%
M48
M72
T01C0.0236
T02C0.0276
T03C0.0320
T04C0.0354
T05C0.0394
T06C0.0400
T07C0.1181
T08C0.1260
%
T01
X6775Y10675
X4175Y13425
X4375Y14175
X7425Y17925
X8425Y17675
X10925Y17425
X15775Y14675
X16675Y13675
T02
X13175Y14675
X13175Y15675
X12925Y13425
X12925Y12425
X11425Y12425
X11425Y13425
X10175Y12425
X9175Y12425
X7925Y9159
X7925Y7191
X12925Y8191
X12925Y10159
X7425Y16425
X6425Y16425
X16675Y2675
X16675Y1675
T03
X11925Y7175
X10925Y7175
X9925Y7175
X8925Y7175
X8925Y10175
X9925Y10175
X10925Y10175
X11925Y10175
X11175Y14675
X10425Y15175
X11175Y15675
T04
X7675Y12175
X7675Y10675
X3675Y10675
X3675Y12175
X8175Y5675
X12175Y5675
T05
X15425Y8425
X16425Y7925
X16425Y8925
X15425Y9425
X16425Y9925
X15425Y10425
X15425Y11425
X16425Y10925
T06
X15425Y5925
X14425Y5925
X14425Y3925
X15425Y3925
X19175Y3675
X19175Y2675
X19175Y1675
X19175Y4675
X19175Y5675
X7175Y5675
X6175Y5675
X5675Y7425
X6675Y7425
X6675Y8425
X5675Y8425
X5675Y9425
X6675Y9425
X1675Y8925
X1675Y7925
X1675Y6925
X1675Y5925
X1675Y4925
X6175Y1675
X7175Y1675
X1675Y9925
X1675Y10925
X1675Y11925
X1675Y12925
X1675Y13925
X1675Y14925
X1675Y15925
X4925Y19175
X5925Y19175
X6925Y19175
X7925Y19175
X8925Y19175
X9925Y19175
X10925Y19175
X11925Y19175
X12925Y19175
X13925Y19175
X14925Y19175
X15925Y19175
T07
X2425Y2425
X2425Y18425
X18425Y18425
T08
X18925Y11925
X18925Y7425
M30
