G75*
G70*
%OFA0B0*%
%FSLAX24Y24*%
%IPPOS*%
%LPD*%
%AMOC8*
5,1,8,0,0,1.08239X$1,22.5*
%
%ADD10C,0.0000*%
%ADD11C,0.0820*%
%ADD12R,0.0820X0.0820*%
%ADD13C,0.1340*%
%ADD14C,0.0730*%
%ADD15C,0.2380*%
%ADD16OC8,0.0710*%
%ADD17R,0.0730X0.0730*%
D10*
X002425Y000675D02*
X019675Y000675D01*
X019719Y000677D01*
X019762Y000683D01*
X019804Y000692D01*
X019846Y000705D01*
X019886Y000722D01*
X019925Y000742D01*
X019962Y000765D01*
X019996Y000792D01*
X020029Y000821D01*
X020058Y000854D01*
X020085Y000888D01*
X020108Y000925D01*
X020128Y000964D01*
X020145Y001004D01*
X020158Y001046D01*
X020167Y001088D01*
X020173Y001131D01*
X020175Y001175D01*
X020175Y018425D01*
X020173Y018508D01*
X020167Y018591D01*
X020157Y018674D01*
X020143Y018756D01*
X020126Y018838D01*
X020104Y018918D01*
X020079Y018997D01*
X020050Y019075D01*
X020017Y019152D01*
X019980Y019227D01*
X019941Y019300D01*
X019897Y019371D01*
X019851Y019440D01*
X019801Y019507D01*
X019748Y019571D01*
X019692Y019633D01*
X019633Y019692D01*
X019571Y019748D01*
X019507Y019801D01*
X019440Y019851D01*
X019371Y019897D01*
X019300Y019941D01*
X019227Y019980D01*
X019152Y020017D01*
X019075Y020050D01*
X018997Y020079D01*
X018918Y020104D01*
X018838Y020126D01*
X018756Y020143D01*
X018674Y020157D01*
X018591Y020167D01*
X018508Y020173D01*
X018425Y020175D01*
X002425Y020175D01*
X002342Y020173D01*
X002259Y020167D01*
X002176Y020157D01*
X002094Y020143D01*
X002012Y020126D01*
X001932Y020104D01*
X001853Y020079D01*
X001775Y020050D01*
X001698Y020017D01*
X001623Y019980D01*
X001550Y019941D01*
X001479Y019897D01*
X001410Y019851D01*
X001343Y019801D01*
X001279Y019748D01*
X001217Y019692D01*
X001158Y019633D01*
X001102Y019571D01*
X001049Y019507D01*
X000999Y019440D01*
X000953Y019371D01*
X000909Y019300D01*
X000870Y019227D01*
X000833Y019152D01*
X000800Y019075D01*
X000771Y018997D01*
X000746Y018918D01*
X000724Y018838D01*
X000707Y018756D01*
X000693Y018674D01*
X000683Y018591D01*
X000677Y018508D01*
X000675Y018425D01*
X000675Y002425D01*
X000677Y002342D01*
X000683Y002259D01*
X000693Y002176D01*
X000707Y002094D01*
X000724Y002012D01*
X000746Y001932D01*
X000771Y001853D01*
X000800Y001775D01*
X000833Y001698D01*
X000870Y001623D01*
X000909Y001550D01*
X000953Y001479D01*
X000999Y001410D01*
X001049Y001343D01*
X001102Y001279D01*
X001158Y001217D01*
X001217Y001158D01*
X001279Y001102D01*
X001343Y001049D01*
X001410Y000999D01*
X001479Y000953D01*
X001550Y000909D01*
X001623Y000870D01*
X001698Y000833D01*
X001775Y000800D01*
X001853Y000771D01*
X001932Y000746D01*
X002012Y000724D01*
X002094Y000707D01*
X002176Y000693D01*
X002259Y000683D01*
X002342Y000677D01*
X002425Y000675D01*
X018295Y007425D02*
X018297Y007475D01*
X018303Y007525D01*
X018313Y007574D01*
X018327Y007622D01*
X018344Y007669D01*
X018365Y007714D01*
X018390Y007758D01*
X018418Y007799D01*
X018450Y007838D01*
X018484Y007875D01*
X018521Y007909D01*
X018561Y007939D01*
X018603Y007966D01*
X018647Y007990D01*
X018693Y008011D01*
X018740Y008027D01*
X018788Y008040D01*
X018838Y008049D01*
X018887Y008054D01*
X018938Y008055D01*
X018988Y008052D01*
X019037Y008045D01*
X019086Y008034D01*
X019134Y008019D01*
X019180Y008001D01*
X019225Y007979D01*
X019268Y007953D01*
X019309Y007924D01*
X019348Y007892D01*
X019384Y007857D01*
X019416Y007819D01*
X019446Y007779D01*
X019473Y007736D01*
X019496Y007692D01*
X019515Y007646D01*
X019531Y007598D01*
X019543Y007549D01*
X019551Y007500D01*
X019555Y007450D01*
X019555Y007400D01*
X019551Y007350D01*
X019543Y007301D01*
X019531Y007252D01*
X019515Y007204D01*
X019496Y007158D01*
X019473Y007114D01*
X019446Y007071D01*
X019416Y007031D01*
X019384Y006993D01*
X019348Y006958D01*
X019309Y006926D01*
X019268Y006897D01*
X019225Y006871D01*
X019180Y006849D01*
X019134Y006831D01*
X019086Y006816D01*
X019037Y006805D01*
X018988Y006798D01*
X018938Y006795D01*
X018887Y006796D01*
X018838Y006801D01*
X018788Y006810D01*
X018740Y006823D01*
X018693Y006839D01*
X018647Y006860D01*
X018603Y006884D01*
X018561Y006911D01*
X018521Y006941D01*
X018484Y006975D01*
X018450Y007012D01*
X018418Y007051D01*
X018390Y007092D01*
X018365Y007136D01*
X018344Y007181D01*
X018327Y007228D01*
X018313Y007276D01*
X018303Y007325D01*
X018297Y007375D01*
X018295Y007425D01*
X018295Y011925D02*
X018297Y011975D01*
X018303Y012025D01*
X018313Y012074D01*
X018327Y012122D01*
X018344Y012169D01*
X018365Y012214D01*
X018390Y012258D01*
X018418Y012299D01*
X018450Y012338D01*
X018484Y012375D01*
X018521Y012409D01*
X018561Y012439D01*
X018603Y012466D01*
X018647Y012490D01*
X018693Y012511D01*
X018740Y012527D01*
X018788Y012540D01*
X018838Y012549D01*
X018887Y012554D01*
X018938Y012555D01*
X018988Y012552D01*
X019037Y012545D01*
X019086Y012534D01*
X019134Y012519D01*
X019180Y012501D01*
X019225Y012479D01*
X019268Y012453D01*
X019309Y012424D01*
X019348Y012392D01*
X019384Y012357D01*
X019416Y012319D01*
X019446Y012279D01*
X019473Y012236D01*
X019496Y012192D01*
X019515Y012146D01*
X019531Y012098D01*
X019543Y012049D01*
X019551Y012000D01*
X019555Y011950D01*
X019555Y011900D01*
X019551Y011850D01*
X019543Y011801D01*
X019531Y011752D01*
X019515Y011704D01*
X019496Y011658D01*
X019473Y011614D01*
X019446Y011571D01*
X019416Y011531D01*
X019384Y011493D01*
X019348Y011458D01*
X019309Y011426D01*
X019268Y011397D01*
X019225Y011371D01*
X019180Y011349D01*
X019134Y011331D01*
X019086Y011316D01*
X019037Y011305D01*
X018988Y011298D01*
X018938Y011295D01*
X018887Y011296D01*
X018838Y011301D01*
X018788Y011310D01*
X018740Y011323D01*
X018693Y011339D01*
X018647Y011360D01*
X018603Y011384D01*
X018561Y011411D01*
X018521Y011441D01*
X018484Y011475D01*
X018450Y011512D01*
X018418Y011551D01*
X018390Y011592D01*
X018365Y011636D01*
X018344Y011681D01*
X018327Y011728D01*
X018313Y011776D01*
X018303Y011825D01*
X018297Y011875D01*
X018295Y011925D01*
D11*
X016425Y010925D03*
X015425Y010425D03*
X015425Y011425D03*
X016425Y009925D03*
X015425Y009425D03*
X016425Y008925D03*
X015425Y008425D03*
X015425Y005925D03*
X014425Y005925D03*
X012175Y005675D03*
X014425Y003925D03*
X015425Y003925D03*
X019175Y003675D03*
X019175Y002675D03*
X019175Y001675D03*
X019175Y004675D03*
X019175Y005675D03*
X011175Y014675D03*
X010425Y015175D03*
X011175Y015675D03*
X010925Y019175D03*
X009925Y019175D03*
X008925Y019175D03*
X007925Y019175D03*
X006925Y019175D03*
X005925Y019175D03*
X004925Y019175D03*
X001675Y015925D03*
X001675Y014925D03*
X001675Y013925D03*
X001675Y012925D03*
X001675Y011925D03*
X001675Y010925D03*
X001675Y009925D03*
X001675Y008925D03*
X001675Y007925D03*
X001675Y006925D03*
X001675Y005925D03*
X001675Y004925D03*
X005675Y007425D03*
X006675Y007425D03*
X006675Y008425D03*
X005675Y008425D03*
X005675Y009425D03*
X006675Y009425D03*
X007675Y010675D03*
X007675Y012175D03*
X003675Y012175D03*
X003675Y010675D03*
X006175Y005675D03*
X007175Y005675D03*
X008175Y005675D03*
X007175Y001675D03*
X006175Y001675D03*
X011925Y019175D03*
X012925Y019175D03*
X013925Y019175D03*
X014925Y019175D03*
X015925Y019175D03*
D12*
X016425Y007925D03*
D13*
X018925Y007425D03*
X018925Y011925D03*
D14*
X013175Y015675D03*
X012925Y013425D03*
X011425Y013425D03*
X011425Y012425D03*
X010175Y012425D03*
X009175Y012425D03*
X007925Y009159D03*
X007925Y007191D03*
X012925Y008191D03*
X012925Y010159D03*
X007425Y016425D03*
X006425Y016425D03*
X016675Y002675D03*
X016675Y001675D03*
D15*
X002425Y002425D03*
X002425Y018425D03*
X018425Y018425D03*
D16*
X011925Y010175D03*
X010925Y010175D03*
X009925Y010175D03*
X008925Y010175D03*
X008925Y007175D03*
X009925Y007175D03*
X010925Y007175D03*
X011925Y007175D03*
D17*
X012925Y012425D03*
X013175Y014675D03*
M02*
