G75*
G70*
%OFA0B0*%
%FSLAX24Y24*%
%IPPOS*%
%LPD*%
%AMOC8*
5,1,8,0,0,1.08239X$1,22.5*
%
%ADD10C,0.0000*%
%ADD11C,0.0740*%
%ADD12R,0.0740X0.0740*%
%ADD13C,0.0650*%
%ADD14C,0.2300*%
%ADD15OC8,0.0630*%
%ADD16R,0.0650X0.0650*%
%ADD17C,0.0150*%
%ADD18C,0.0436*%
%ADD19C,0.0120*%
D10*
X002425Y000675D02*
X019675Y000675D01*
X019719Y000677D01*
X019762Y000683D01*
X019804Y000692D01*
X019846Y000705D01*
X019886Y000722D01*
X019925Y000742D01*
X019962Y000765D01*
X019996Y000792D01*
X020029Y000821D01*
X020058Y000854D01*
X020085Y000888D01*
X020108Y000925D01*
X020128Y000964D01*
X020145Y001004D01*
X020158Y001046D01*
X020167Y001088D01*
X020173Y001131D01*
X020175Y001175D01*
X020175Y018425D01*
X020173Y018508D01*
X020167Y018591D01*
X020157Y018674D01*
X020143Y018756D01*
X020126Y018838D01*
X020104Y018918D01*
X020079Y018997D01*
X020050Y019075D01*
X020017Y019152D01*
X019980Y019227D01*
X019941Y019300D01*
X019897Y019371D01*
X019851Y019440D01*
X019801Y019507D01*
X019748Y019571D01*
X019692Y019633D01*
X019633Y019692D01*
X019571Y019748D01*
X019507Y019801D01*
X019440Y019851D01*
X019371Y019897D01*
X019300Y019941D01*
X019227Y019980D01*
X019152Y020017D01*
X019075Y020050D01*
X018997Y020079D01*
X018918Y020104D01*
X018838Y020126D01*
X018756Y020143D01*
X018674Y020157D01*
X018591Y020167D01*
X018508Y020173D01*
X018425Y020175D01*
X002425Y020175D01*
X002342Y020173D01*
X002259Y020167D01*
X002176Y020157D01*
X002094Y020143D01*
X002012Y020126D01*
X001932Y020104D01*
X001853Y020079D01*
X001775Y020050D01*
X001698Y020017D01*
X001623Y019980D01*
X001550Y019941D01*
X001479Y019897D01*
X001410Y019851D01*
X001343Y019801D01*
X001279Y019748D01*
X001217Y019692D01*
X001158Y019633D01*
X001102Y019571D01*
X001049Y019507D01*
X000999Y019440D01*
X000953Y019371D01*
X000909Y019300D01*
X000870Y019227D01*
X000833Y019152D01*
X000800Y019075D01*
X000771Y018997D01*
X000746Y018918D01*
X000724Y018838D01*
X000707Y018756D01*
X000693Y018674D01*
X000683Y018591D01*
X000677Y018508D01*
X000675Y018425D01*
X000675Y002425D01*
X000677Y002342D01*
X000683Y002259D01*
X000693Y002176D01*
X000707Y002094D01*
X000724Y002012D01*
X000746Y001932D01*
X000771Y001853D01*
X000800Y001775D01*
X000833Y001698D01*
X000870Y001623D01*
X000909Y001550D01*
X000953Y001479D01*
X000999Y001410D01*
X001049Y001343D01*
X001102Y001279D01*
X001158Y001217D01*
X001217Y001158D01*
X001279Y001102D01*
X001343Y001049D01*
X001410Y000999D01*
X001479Y000953D01*
X001550Y000909D01*
X001623Y000870D01*
X001698Y000833D01*
X001775Y000800D01*
X001853Y000771D01*
X001932Y000746D01*
X002012Y000724D01*
X002094Y000707D01*
X002176Y000693D01*
X002259Y000683D01*
X002342Y000677D01*
X002425Y000675D01*
X018295Y007425D02*
X018297Y007475D01*
X018303Y007525D01*
X018313Y007574D01*
X018327Y007622D01*
X018344Y007669D01*
X018365Y007714D01*
X018390Y007758D01*
X018418Y007799D01*
X018450Y007838D01*
X018484Y007875D01*
X018521Y007909D01*
X018561Y007939D01*
X018603Y007966D01*
X018647Y007990D01*
X018693Y008011D01*
X018740Y008027D01*
X018788Y008040D01*
X018838Y008049D01*
X018887Y008054D01*
X018938Y008055D01*
X018988Y008052D01*
X019037Y008045D01*
X019086Y008034D01*
X019134Y008019D01*
X019180Y008001D01*
X019225Y007979D01*
X019268Y007953D01*
X019309Y007924D01*
X019348Y007892D01*
X019384Y007857D01*
X019416Y007819D01*
X019446Y007779D01*
X019473Y007736D01*
X019496Y007692D01*
X019515Y007646D01*
X019531Y007598D01*
X019543Y007549D01*
X019551Y007500D01*
X019555Y007450D01*
X019555Y007400D01*
X019551Y007350D01*
X019543Y007301D01*
X019531Y007252D01*
X019515Y007204D01*
X019496Y007158D01*
X019473Y007114D01*
X019446Y007071D01*
X019416Y007031D01*
X019384Y006993D01*
X019348Y006958D01*
X019309Y006926D01*
X019268Y006897D01*
X019225Y006871D01*
X019180Y006849D01*
X019134Y006831D01*
X019086Y006816D01*
X019037Y006805D01*
X018988Y006798D01*
X018938Y006795D01*
X018887Y006796D01*
X018838Y006801D01*
X018788Y006810D01*
X018740Y006823D01*
X018693Y006839D01*
X018647Y006860D01*
X018603Y006884D01*
X018561Y006911D01*
X018521Y006941D01*
X018484Y006975D01*
X018450Y007012D01*
X018418Y007051D01*
X018390Y007092D01*
X018365Y007136D01*
X018344Y007181D01*
X018327Y007228D01*
X018313Y007276D01*
X018303Y007325D01*
X018297Y007375D01*
X018295Y007425D01*
X018295Y011925D02*
X018297Y011975D01*
X018303Y012025D01*
X018313Y012074D01*
X018327Y012122D01*
X018344Y012169D01*
X018365Y012214D01*
X018390Y012258D01*
X018418Y012299D01*
X018450Y012338D01*
X018484Y012375D01*
X018521Y012409D01*
X018561Y012439D01*
X018603Y012466D01*
X018647Y012490D01*
X018693Y012511D01*
X018740Y012527D01*
X018788Y012540D01*
X018838Y012549D01*
X018887Y012554D01*
X018938Y012555D01*
X018988Y012552D01*
X019037Y012545D01*
X019086Y012534D01*
X019134Y012519D01*
X019180Y012501D01*
X019225Y012479D01*
X019268Y012453D01*
X019309Y012424D01*
X019348Y012392D01*
X019384Y012357D01*
X019416Y012319D01*
X019446Y012279D01*
X019473Y012236D01*
X019496Y012192D01*
X019515Y012146D01*
X019531Y012098D01*
X019543Y012049D01*
X019551Y012000D01*
X019555Y011950D01*
X019555Y011900D01*
X019551Y011850D01*
X019543Y011801D01*
X019531Y011752D01*
X019515Y011704D01*
X019496Y011658D01*
X019473Y011614D01*
X019446Y011571D01*
X019416Y011531D01*
X019384Y011493D01*
X019348Y011458D01*
X019309Y011426D01*
X019268Y011397D01*
X019225Y011371D01*
X019180Y011349D01*
X019134Y011331D01*
X019086Y011316D01*
X019037Y011305D01*
X018988Y011298D01*
X018938Y011295D01*
X018887Y011296D01*
X018838Y011301D01*
X018788Y011310D01*
X018740Y011323D01*
X018693Y011339D01*
X018647Y011360D01*
X018603Y011384D01*
X018561Y011411D01*
X018521Y011441D01*
X018484Y011475D01*
X018450Y011512D01*
X018418Y011551D01*
X018390Y011592D01*
X018365Y011636D01*
X018344Y011681D01*
X018327Y011728D01*
X018313Y011776D01*
X018303Y011825D01*
X018297Y011875D01*
X018295Y011925D01*
D11*
X016425Y010925D03*
X015425Y010425D03*
X015425Y011425D03*
X016425Y009925D03*
X015425Y009425D03*
X016425Y008925D03*
X015425Y008425D03*
X015425Y005925D03*
X014425Y005925D03*
X012175Y005675D03*
X014425Y003925D03*
X015425Y003925D03*
X019175Y003675D03*
X019175Y002675D03*
X019175Y001675D03*
X019175Y004675D03*
X019175Y005675D03*
X011175Y014675D03*
X010425Y015175D03*
X011175Y015675D03*
X010925Y019175D03*
X009925Y019175D03*
X008925Y019175D03*
X007925Y019175D03*
X006925Y019175D03*
X005925Y019175D03*
X004925Y019175D03*
X001675Y015925D03*
X001675Y014925D03*
X001675Y013925D03*
X001675Y012925D03*
X001675Y011925D03*
X001675Y010925D03*
X001675Y009925D03*
X001675Y008925D03*
X001675Y007925D03*
X001675Y006925D03*
X001675Y005925D03*
X001675Y004925D03*
X005675Y007425D03*
X006675Y007425D03*
X006675Y008425D03*
X005675Y008425D03*
X005675Y009425D03*
X006675Y009425D03*
X007675Y010675D03*
X007675Y012175D03*
X003675Y012175D03*
X003675Y010675D03*
X006175Y005675D03*
X007175Y005675D03*
X008175Y005675D03*
X007175Y001675D03*
X006175Y001675D03*
X011925Y019175D03*
X012925Y019175D03*
X013925Y019175D03*
X014925Y019175D03*
X015925Y019175D03*
D12*
X016425Y007925D03*
D13*
X012925Y008191D03*
X012925Y010159D03*
X011425Y012425D03*
X011425Y013425D03*
X010175Y012425D03*
X009175Y012425D03*
X007925Y009159D03*
X007925Y007191D03*
X012925Y013425D03*
X013175Y015675D03*
X007425Y016425D03*
X006425Y016425D03*
X016675Y002675D03*
X016675Y001675D03*
D14*
X002425Y002425D03*
X002425Y018425D03*
X018425Y018425D03*
D15*
X011925Y010175D03*
X010925Y010175D03*
X009925Y010175D03*
X008925Y010175D03*
X008925Y007175D03*
X009925Y007175D03*
X010925Y007175D03*
X011925Y007175D03*
D16*
X012925Y012425D03*
X013175Y014675D03*
D17*
X001564Y001418D02*
X001360Y001418D01*
X001442Y001534D02*
X001359Y001635D01*
X001287Y001743D01*
X001226Y001858D01*
X001176Y001978D01*
X001138Y002103D01*
X001113Y002230D01*
X001101Y002350D01*
X002350Y002350D01*
X002500Y002350D01*
X002500Y002500D01*
X003749Y002500D01*
X003737Y002620D01*
X003712Y002747D01*
X003674Y002872D01*
X003624Y002992D01*
X003563Y003107D01*
X003491Y003215D01*
X003408Y003316D01*
X003316Y003408D01*
X003215Y003491D01*
X003107Y003563D01*
X002992Y003624D01*
X002872Y003674D01*
X002747Y003712D01*
X002620Y003737D01*
X002500Y003749D01*
X002500Y002500D01*
X002350Y002500D01*
X002350Y003749D01*
X002230Y003737D01*
X002103Y003712D01*
X001978Y003674D01*
X001858Y003624D01*
X001743Y003563D01*
X001635Y003491D01*
X001534Y003408D01*
X001442Y003316D01*
X001359Y003215D01*
X001287Y003107D01*
X001226Y002992D01*
X001176Y002872D01*
X001138Y002747D01*
X001113Y002620D01*
X001101Y002500D01*
X002350Y002500D01*
X002350Y002350D01*
X002350Y001101D01*
X002230Y001113D01*
X002103Y001138D01*
X001978Y001176D01*
X001858Y001226D01*
X001743Y001287D01*
X001635Y001359D01*
X001534Y001442D01*
X001442Y001534D01*
X001416Y001566D02*
X001229Y001566D01*
X001252Y001525D02*
X001059Y001859D01*
X000959Y002232D01*
X000947Y002425D01*
X000947Y018425D01*
X000959Y018618D01*
X001059Y018991D01*
X001252Y019325D01*
X001525Y019598D01*
X001859Y019791D01*
X002232Y019891D01*
X002425Y019903D01*
X002479Y019903D01*
X018425Y019903D01*
X018618Y019891D01*
X018991Y019791D01*
X019325Y019598D01*
X019598Y019325D01*
X019791Y018991D01*
X019891Y018618D01*
X019903Y018425D01*
X019903Y001175D01*
X019899Y001130D01*
X019865Y001048D01*
X019802Y000985D01*
X019720Y000951D01*
X019675Y000947D01*
X002425Y000947D01*
X002232Y000959D01*
X001859Y001059D01*
X001525Y001252D01*
X001252Y001525D01*
X001306Y001715D02*
X001143Y001715D01*
X001224Y001863D02*
X001058Y001863D01*
X001019Y002012D02*
X001166Y002012D01*
X001127Y002160D02*
X000979Y002160D01*
X000954Y002309D02*
X001105Y002309D01*
X000947Y002457D02*
X002350Y002457D01*
X002425Y002425D02*
X002475Y002375D01*
X015975Y002375D01*
X016675Y001675D01*
X019175Y001675D01*
X019200Y001700D02*
X019720Y001700D01*
X019720Y001718D01*
X019707Y001803D01*
X019680Y001884D01*
X019641Y001961D01*
X019591Y002030D01*
X019530Y002091D01*
X019463Y002139D01*
X019518Y002162D01*
X019688Y002332D01*
X019780Y002555D01*
X019780Y002795D01*
X019688Y003018D01*
X019531Y003175D01*
X019688Y003332D01*
X019780Y003555D01*
X019780Y003795D01*
X019688Y004018D01*
X019531Y004175D01*
X019688Y004332D01*
X019780Y004555D01*
X019780Y004795D01*
X019688Y005018D01*
X019531Y005175D01*
X019688Y005332D01*
X019780Y005555D01*
X019780Y005795D01*
X019688Y006018D01*
X019518Y006188D01*
X019295Y006280D01*
X019055Y006280D01*
X018832Y006188D01*
X018662Y006018D01*
X018570Y005795D01*
X018570Y005555D01*
X018662Y005332D01*
X018819Y005175D01*
X018662Y005018D01*
X018570Y004795D01*
X018570Y004555D01*
X018662Y004332D01*
X018819Y004175D01*
X018662Y004018D01*
X018570Y003795D01*
X018570Y003555D01*
X018662Y003332D01*
X018819Y003175D01*
X018662Y003018D01*
X018570Y002795D01*
X018570Y002555D01*
X018662Y002332D01*
X018832Y002162D01*
X018887Y002139D01*
X018820Y002091D01*
X018759Y002030D01*
X018709Y001961D01*
X018670Y001884D01*
X018643Y001803D01*
X018630Y001718D01*
X018630Y001700D01*
X019150Y001700D01*
X019150Y002070D01*
X019200Y002070D01*
X019200Y001700D01*
X019200Y001650D01*
X019720Y001650D01*
X019720Y001632D01*
X019707Y001547D01*
X019680Y001466D01*
X019641Y001389D01*
X019591Y001320D01*
X019530Y001259D01*
X019461Y001209D01*
X019384Y001170D01*
X019303Y001143D01*
X019218Y001130D01*
X019200Y001130D01*
X019200Y001650D01*
X019150Y001650D01*
X019150Y001130D01*
X019132Y001130D01*
X019047Y001143D01*
X018966Y001170D01*
X018889Y001209D01*
X018820Y001259D01*
X018759Y001320D01*
X018709Y001389D01*
X018670Y001466D01*
X018643Y001547D01*
X018630Y001632D01*
X018630Y001650D01*
X019150Y001650D01*
X019150Y001700D01*
X019200Y001700D01*
X019200Y001715D02*
X019150Y001715D01*
X019150Y001863D02*
X019200Y001863D01*
X019200Y002012D02*
X019150Y002012D01*
X019513Y002160D02*
X019903Y002160D01*
X019903Y002012D02*
X019604Y002012D01*
X019687Y001863D02*
X019903Y001863D01*
X019903Y001715D02*
X019720Y001715D01*
X019710Y001566D02*
X019903Y001566D01*
X019903Y001418D02*
X019655Y001418D01*
X019540Y001269D02*
X019903Y001269D01*
X019895Y001121D02*
X007417Y001121D01*
X007518Y001162D02*
X007295Y001070D01*
X007055Y001070D01*
X006832Y001162D01*
X006675Y001319D01*
X006518Y001162D01*
X006295Y001070D01*
X006055Y001070D01*
X005832Y001162D01*
X005662Y001332D01*
X005570Y001555D01*
X005570Y001795D01*
X005662Y002018D01*
X005832Y002188D01*
X006055Y002280D01*
X006295Y002280D01*
X006518Y002188D01*
X006675Y002031D01*
X006832Y002188D01*
X007055Y002280D01*
X007295Y002280D01*
X007518Y002188D01*
X007688Y002018D01*
X007780Y001795D01*
X007780Y001555D01*
X007688Y001332D01*
X007518Y001162D01*
X007625Y001269D02*
X016383Y001269D01*
X016413Y001247D02*
X016349Y001294D01*
X016294Y001349D01*
X016247Y001413D01*
X016212Y001483D01*
X016187Y001558D01*
X016175Y001636D01*
X016175Y001675D01*
X016675Y001675D01*
X017175Y001675D01*
X017175Y001714D01*
X017163Y001792D01*
X017138Y001867D01*
X017103Y001937D01*
X017056Y002001D01*
X017001Y002056D01*
X016937Y002103D01*
X016867Y002138D01*
X016853Y002143D01*
X016992Y002200D01*
X017150Y002358D01*
X017235Y002564D01*
X017235Y002786D01*
X017150Y002992D01*
X016992Y003150D01*
X016786Y003235D01*
X016564Y003235D01*
X016358Y003150D01*
X016200Y002992D01*
X016115Y002786D01*
X016115Y002564D01*
X016200Y002358D01*
X016358Y002200D01*
X016497Y002143D01*
X016483Y002138D01*
X016413Y002103D01*
X016349Y002056D01*
X016294Y002001D01*
X016247Y001937D01*
X016212Y001867D01*
X016187Y001792D01*
X016175Y001714D01*
X016175Y001675D01*
X016675Y001675D01*
X016675Y001675D01*
X016675Y001675D01*
X017175Y001675D01*
X017175Y001636D01*
X017163Y001558D01*
X017138Y001483D01*
X017103Y001413D01*
X017056Y001349D01*
X017001Y001294D01*
X016937Y001247D01*
X016867Y001212D01*
X016792Y001187D01*
X016714Y001175D01*
X016675Y001175D01*
X016675Y001675D01*
X016675Y001675D01*
X016675Y001175D01*
X016636Y001175D01*
X016558Y001187D01*
X016483Y001212D01*
X016413Y001247D01*
X016245Y001418D02*
X007723Y001418D01*
X007780Y001566D02*
X016186Y001566D01*
X016175Y001715D02*
X007780Y001715D01*
X007752Y001863D02*
X016210Y001863D01*
X016304Y002012D02*
X007690Y002012D01*
X007546Y002160D02*
X016455Y002160D01*
X016250Y002309D02*
X003745Y002309D01*
X003749Y002350D02*
X002500Y002350D01*
X002500Y001101D01*
X002620Y001113D01*
X002747Y001138D01*
X002872Y001176D01*
X002992Y001226D01*
X003107Y001287D01*
X003215Y001359D01*
X003316Y001442D01*
X003408Y001534D01*
X003491Y001635D01*
X003563Y001743D01*
X003624Y001858D01*
X003674Y001978D01*
X003712Y002103D01*
X003737Y002230D01*
X003749Y002350D01*
X003723Y002160D02*
X005804Y002160D01*
X005660Y002012D02*
X003684Y002012D01*
X003626Y001863D02*
X005598Y001863D01*
X005570Y001715D02*
X003544Y001715D01*
X003434Y001566D02*
X005570Y001566D01*
X005627Y001418D02*
X003286Y001418D01*
X003073Y001269D02*
X005725Y001269D01*
X005933Y001121D02*
X002659Y001121D01*
X002500Y001121D02*
X002350Y001121D01*
X002350Y001269D02*
X002500Y001269D01*
X002500Y001418D02*
X002350Y001418D01*
X002350Y001566D02*
X002500Y001566D01*
X002500Y001715D02*
X002350Y001715D01*
X002350Y001863D02*
X002500Y001863D01*
X002500Y002012D02*
X002350Y002012D01*
X002350Y002160D02*
X002500Y002160D01*
X002500Y002309D02*
X002350Y002309D01*
X002425Y002425D02*
X002675Y002425D01*
X002675Y005925D01*
X004175Y007425D01*
X005675Y007425D01*
X006675Y007425D01*
X006675Y006425D01*
X009675Y006425D01*
X009925Y006675D01*
X009925Y007175D01*
X009925Y007675D01*
X011175Y008925D01*
X014675Y008925D01*
X015175Y009425D01*
X015425Y009425D01*
X015448Y009437D02*
X016058Y009437D01*
X016069Y009425D02*
X015959Y009315D01*
X015970Y009382D01*
X015970Y009402D01*
X015448Y009402D01*
X015448Y009448D01*
X015970Y009448D01*
X015970Y009468D01*
X015959Y009535D01*
X016069Y009425D01*
X015402Y009437D02*
X010125Y009437D01*
X010101Y009412D02*
X010188Y009499D01*
X010235Y009613D01*
X010235Y009707D01*
X010425Y009897D01*
X010697Y009625D01*
X011153Y009625D01*
X011425Y009897D01*
X011697Y009625D01*
X012153Y009625D01*
X012427Y009899D01*
X012450Y009842D01*
X012608Y009685D01*
X012814Y009599D01*
X013036Y009599D01*
X013242Y009685D01*
X013400Y009842D01*
X013485Y010048D01*
X013485Y010271D01*
X013400Y010476D01*
X014820Y010476D01*
X014820Y010545D02*
X014820Y010305D01*
X014912Y010082D01*
X015082Y009912D01*
X015137Y009889D01*
X015070Y009841D01*
X015009Y009780D01*
X014959Y009711D01*
X014920Y009634D01*
X014893Y009553D01*
X014880Y009468D01*
X014880Y009448D01*
X015402Y009448D01*
X015402Y009402D01*
X014880Y009402D01*
X014880Y009382D01*
X014893Y009297D01*
X014920Y009216D01*
X014959Y009139D01*
X015009Y009070D01*
X015070Y009009D01*
X015137Y008961D01*
X015082Y008938D01*
X014912Y008768D01*
X014820Y008545D01*
X014820Y008305D01*
X014912Y008082D01*
X015082Y007912D01*
X015130Y007892D01*
X015130Y006458D01*
X015082Y006438D01*
X014925Y006281D01*
X014768Y006438D01*
X014545Y006530D01*
X014305Y006530D01*
X014082Y006438D01*
X013912Y006268D01*
X013820Y006045D01*
X013820Y005805D01*
X013912Y005582D01*
X014082Y005412D01*
X014305Y005320D01*
X014545Y005320D01*
X014768Y005412D01*
X014925Y005569D01*
X015082Y005412D01*
X015305Y005320D01*
X015545Y005320D01*
X015768Y005412D01*
X015880Y005524D01*
X015880Y004797D01*
X015593Y004510D01*
X015545Y004530D01*
X015305Y004530D01*
X015082Y004438D01*
X014925Y004281D01*
X014768Y004438D01*
X014545Y004530D01*
X014305Y004530D01*
X014082Y004438D01*
X013912Y004268D01*
X013820Y004045D01*
X013820Y003805D01*
X013912Y003582D01*
X014082Y003412D01*
X014305Y003320D01*
X014545Y003320D01*
X014768Y003412D01*
X014925Y003569D01*
X015082Y003412D01*
X015305Y003320D01*
X015545Y003320D01*
X015729Y003396D01*
X015553Y003220D01*
X012797Y003220D01*
X010342Y005675D01*
X011175Y006508D01*
X011220Y006616D01*
X011220Y006692D01*
X011425Y006897D01*
X011697Y006625D01*
X012153Y006625D01*
X012475Y006947D01*
X012475Y007403D01*
X012153Y007725D01*
X011697Y007725D01*
X011425Y007453D01*
X011153Y007725D01*
X010697Y007725D01*
X010383Y007410D01*
X010128Y007665D01*
X009930Y007665D01*
X009930Y007180D01*
X009920Y007180D01*
X009920Y007665D01*
X009722Y007665D01*
X009467Y007410D01*
X009153Y007725D01*
X008697Y007725D01*
X008423Y007451D01*
X008400Y007508D01*
X008242Y007665D01*
X008036Y007751D01*
X007814Y007751D01*
X007608Y007665D01*
X007450Y007508D01*
X007365Y007302D01*
X007365Y007079D01*
X007450Y006874D01*
X007608Y006716D01*
X007814Y006631D01*
X008036Y006631D01*
X008242Y006716D01*
X008400Y006874D01*
X008414Y006908D01*
X008697Y006625D01*
X009153Y006625D01*
X009467Y006940D01*
X009722Y006685D01*
X009920Y006685D01*
X009920Y007170D01*
X009930Y007170D01*
X010375Y007170D01*
X010375Y007180D01*
X009930Y007180D01*
X009930Y007170D01*
X009930Y006685D01*
X010128Y006685D01*
X010383Y006940D01*
X010577Y006745D01*
X009803Y005970D01*
X008708Y005970D01*
X008688Y006018D01*
X008518Y006188D01*
X008295Y006280D01*
X008055Y006280D01*
X007832Y006188D01*
X007675Y006031D01*
X007518Y006188D01*
X007295Y006280D01*
X007055Y006280D01*
X006832Y006188D01*
X006675Y006031D01*
X006518Y006188D01*
X006295Y006280D01*
X006055Y006280D01*
X005832Y006188D01*
X005662Y006018D01*
X005570Y005795D01*
X005570Y005555D01*
X005662Y005332D01*
X005832Y005162D01*
X006055Y005070D01*
X006295Y005070D01*
X006518Y005162D01*
X006675Y005319D01*
X006832Y005162D01*
X007055Y005070D01*
X007295Y005070D01*
X007518Y005162D01*
X007675Y005319D01*
X007832Y005162D01*
X008055Y005070D01*
X008295Y005070D01*
X008518Y005162D01*
X008688Y005332D01*
X008708Y005380D01*
X009803Y005380D01*
X012508Y002675D01*
X012616Y002630D01*
X015734Y002630D01*
X015842Y002675D01*
X015925Y002758D01*
X017425Y004258D01*
X017470Y004366D01*
X017470Y008984D01*
X017425Y009092D01*
X017342Y009175D01*
X017234Y009220D01*
X016958Y009220D01*
X016938Y009268D01*
X016781Y009425D01*
X016938Y009582D01*
X016958Y009630D01*
X017234Y009630D01*
X017342Y009675D01*
X017425Y009758D01*
X017470Y009866D01*
X017470Y012734D01*
X017425Y012842D01*
X017342Y012925D01*
X017234Y012970D01*
X016387Y012970D01*
X016639Y013222D01*
X016765Y013222D01*
X016932Y013291D01*
X017059Y013418D01*
X017128Y013585D01*
X017128Y013765D01*
X017059Y013932D01*
X016932Y014059D01*
X016765Y014128D01*
X016585Y014128D01*
X016418Y014059D01*
X016291Y013932D01*
X016222Y013765D01*
X016222Y013639D01*
X016053Y013470D01*
X015216Y013470D01*
X015108Y013425D01*
X015025Y013342D01*
X013553Y011870D01*
X013352Y011870D01*
X013485Y012003D01*
X013485Y012847D01*
X013347Y012985D01*
X013163Y012985D01*
X013187Y012997D01*
X013251Y013044D01*
X013306Y013099D01*
X013353Y013163D01*
X013388Y013233D01*
X013413Y013308D01*
X013425Y013386D01*
X013425Y013425D01*
X013425Y013464D01*
X013413Y013542D01*
X013388Y013617D01*
X013353Y013687D01*
X013306Y013751D01*
X013251Y013806D01*
X013187Y013853D01*
X013117Y013888D01*
X013042Y013913D01*
X012964Y013925D01*
X012925Y013925D01*
X012925Y013425D01*
X011425Y013425D01*
X009175Y013425D01*
X007425Y015175D01*
X007425Y016425D01*
X007925Y016425D01*
X007925Y016464D01*
X007913Y016542D01*
X007888Y016617D01*
X007853Y016687D01*
X007806Y016751D01*
X007792Y016765D01*
X009365Y016765D01*
X009365Y014613D01*
X009412Y014499D01*
X009499Y014412D01*
X009999Y013912D01*
X010113Y013865D01*
X011187Y013865D01*
X011163Y013853D01*
X011099Y013806D01*
X011044Y013751D01*
X010997Y013687D01*
X010962Y013617D01*
X010937Y013542D01*
X010925Y013464D01*
X010925Y013425D01*
X011425Y013425D01*
X011425Y013425D01*
X011425Y013925D01*
X011464Y013925D01*
X011542Y013913D01*
X011617Y013888D01*
X011687Y013853D01*
X011751Y013806D01*
X011806Y013751D01*
X011853Y013687D01*
X011888Y013617D01*
X011913Y013542D01*
X011925Y013464D01*
X011925Y013425D01*
X011425Y013425D01*
X011425Y013425D01*
X011425Y013925D01*
X011386Y013925D01*
X011359Y013921D01*
X011438Y013999D01*
X011485Y014113D01*
X011485Y014149D01*
X011518Y014162D01*
X011688Y014332D01*
X011701Y014365D01*
X012615Y014365D01*
X012615Y014253D01*
X012753Y014115D01*
X013597Y014115D01*
X013735Y014253D01*
X013735Y014365D01*
X015444Y014365D01*
X015518Y014291D01*
X015685Y014222D01*
X015865Y014222D01*
X016032Y014291D01*
X016159Y014418D01*
X016228Y014585D01*
X016228Y014765D01*
X016159Y014932D01*
X016032Y015059D01*
X015865Y015128D01*
X015685Y015128D01*
X015518Y015059D01*
X015444Y014985D01*
X013735Y014985D01*
X013735Y015097D01*
X013597Y015235D01*
X013413Y015235D01*
X013437Y015247D01*
X013501Y015294D01*
X013556Y015349D01*
X013603Y015413D01*
X013638Y015483D01*
X013663Y015558D01*
X013675Y015636D01*
X013675Y015675D01*
X013675Y015714D01*
X013663Y015792D01*
X013638Y015867D01*
X013603Y015937D01*
X013556Y016001D01*
X013501Y016056D01*
X013437Y016103D01*
X013367Y016138D01*
X013292Y016163D01*
X013214Y016175D01*
X013175Y016175D01*
X013175Y015675D01*
X014925Y017425D01*
X014925Y019175D01*
X014925Y019875D01*
X016975Y019875D01*
X018425Y018425D01*
X018500Y018495D02*
X019899Y018495D01*
X019903Y018347D02*
X019749Y018347D01*
X019749Y018350D02*
X019737Y018230D01*
X019712Y018103D01*
X019674Y017978D01*
X019624Y017858D01*
X019563Y017743D01*
X019491Y017635D01*
X019408Y017534D01*
X019316Y017442D01*
X019215Y017359D01*
X019107Y017287D01*
X018992Y017226D01*
X018872Y017176D01*
X018747Y017138D01*
X018620Y017113D01*
X018500Y017101D01*
X018500Y018350D01*
X018500Y018500D01*
X019749Y018500D01*
X019737Y018620D01*
X019712Y018747D01*
X019674Y018872D01*
X019624Y018992D01*
X019563Y019107D01*
X019491Y019215D01*
X019408Y019316D01*
X019316Y019408D01*
X019215Y019491D01*
X019107Y019563D01*
X018992Y019624D01*
X018872Y019674D01*
X018747Y019712D01*
X018620Y019737D01*
X018500Y019749D01*
X018500Y018500D01*
X018350Y018500D01*
X018350Y019749D01*
X018230Y019737D01*
X018103Y019712D01*
X017978Y019674D01*
X017858Y019624D01*
X017743Y019563D01*
X017635Y019491D01*
X017534Y019408D01*
X017442Y019316D01*
X017359Y019215D01*
X017287Y019107D01*
X017226Y018992D01*
X017176Y018872D01*
X017138Y018747D01*
X017113Y018620D01*
X017101Y018500D01*
X018350Y018500D01*
X018350Y018350D01*
X018500Y018350D01*
X019749Y018350D01*
X019731Y018198D02*
X019903Y018198D01*
X019903Y018050D02*
X019696Y018050D01*
X019642Y017901D02*
X019903Y017901D01*
X019903Y017753D02*
X019568Y017753D01*
X019465Y017604D02*
X019903Y017604D01*
X019903Y017456D02*
X019329Y017456D01*
X019137Y017307D02*
X019903Y017307D01*
X019903Y017159D02*
X018814Y017159D01*
X018500Y017159D02*
X018350Y017159D01*
X018350Y017101D02*
X018350Y018350D01*
X017101Y018350D01*
X017113Y018230D01*
X017138Y018103D01*
X017176Y017978D01*
X017226Y017858D01*
X017287Y017743D01*
X017359Y017635D01*
X017442Y017534D01*
X017534Y017442D01*
X017635Y017359D01*
X017743Y017287D01*
X017858Y017226D01*
X017978Y017176D01*
X018103Y017138D01*
X018230Y017113D01*
X018350Y017101D01*
X018350Y017307D02*
X018500Y017307D01*
X018500Y017456D02*
X018350Y017456D01*
X018350Y017604D02*
X018500Y017604D01*
X018500Y017753D02*
X018350Y017753D01*
X018350Y017901D02*
X018500Y017901D01*
X018500Y018050D02*
X018350Y018050D01*
X018350Y018198D02*
X018500Y018198D01*
X018500Y018347D02*
X018350Y018347D01*
X018350Y018495D02*
X013183Y018495D01*
X013188Y018499D02*
X013235Y018613D01*
X013235Y018649D01*
X013268Y018662D01*
X013425Y018819D01*
X013582Y018662D01*
X013805Y018570D01*
X014045Y018570D01*
X014268Y018662D01*
X014438Y018832D01*
X014461Y018887D01*
X014509Y018820D01*
X014570Y018759D01*
X014639Y018709D01*
X014716Y018670D01*
X014797Y018643D01*
X014797Y018644D02*
X014223Y018644D01*
X014398Y018792D02*
X014537Y018792D01*
X014797Y018643D02*
X014882Y018630D01*
X014900Y018630D01*
X014900Y019150D01*
X014950Y019150D01*
X014950Y018630D01*
X014968Y018630D01*
X015053Y018643D01*
X015053Y018644D02*
X015627Y018644D01*
X015582Y018662D02*
X015805Y018570D01*
X016045Y018570D01*
X016268Y018662D01*
X016438Y018832D01*
X016530Y019055D01*
X016530Y019295D01*
X016438Y019518D01*
X016268Y019688D01*
X016045Y019780D01*
X015805Y019780D01*
X015582Y019688D01*
X015412Y019518D01*
X015389Y019463D01*
X015341Y019530D01*
X015280Y019591D01*
X015211Y019641D01*
X015134Y019680D01*
X015053Y019707D01*
X014968Y019720D01*
X014950Y019720D01*
X014950Y019200D01*
X014900Y019200D01*
X014900Y019720D01*
X014882Y019720D01*
X014797Y019707D01*
X014716Y019680D01*
X014639Y019641D01*
X014570Y019591D01*
X014509Y019530D01*
X014461Y019463D01*
X014438Y019518D01*
X014268Y019688D01*
X014045Y019780D01*
X013805Y019780D01*
X013582Y019688D01*
X013425Y019531D01*
X013268Y019688D01*
X013045Y019780D01*
X012805Y019780D01*
X012582Y019688D01*
X012425Y019531D01*
X012268Y019688D01*
X012045Y019780D01*
X011805Y019780D01*
X011582Y019688D01*
X011425Y019531D01*
X011268Y019688D01*
X011045Y019780D01*
X010805Y019780D01*
X010582Y019688D01*
X010425Y019531D01*
X010268Y019688D01*
X010045Y019780D01*
X009805Y019780D01*
X009582Y019688D01*
X009425Y019531D01*
X009268Y019688D01*
X009045Y019780D01*
X008805Y019780D01*
X008582Y019688D01*
X008425Y019531D01*
X008268Y019688D01*
X008045Y019780D01*
X007805Y019780D01*
X007582Y019688D01*
X007425Y019531D01*
X007268Y019688D01*
X007045Y019780D01*
X006805Y019780D01*
X006582Y019688D01*
X006425Y019531D01*
X006268Y019688D01*
X006045Y019780D01*
X005805Y019780D01*
X005582Y019688D01*
X005425Y019531D01*
X005268Y019688D01*
X005045Y019780D01*
X004805Y019780D01*
X004582Y019688D01*
X004412Y019518D01*
X004320Y019295D01*
X004320Y019055D01*
X004412Y018832D01*
X004582Y018662D01*
X004805Y018570D01*
X005045Y018570D01*
X005229Y018646D01*
X005175Y018592D01*
X003053Y016470D01*
X001940Y016470D01*
X001795Y016530D01*
X001555Y016530D01*
X001332Y016438D01*
X001162Y016268D01*
X001070Y016045D01*
X001070Y015805D01*
X001162Y015582D01*
X001319Y015425D01*
X001162Y015268D01*
X001070Y015045D01*
X001070Y014805D01*
X001162Y014582D01*
X001319Y014425D01*
X001162Y014268D01*
X001070Y014045D01*
X001070Y013805D01*
X001162Y013582D01*
X001319Y013425D01*
X001162Y013268D01*
X001070Y013045D01*
X001070Y012805D01*
X001162Y012582D01*
X001319Y012425D01*
X001162Y012268D01*
X001070Y012045D01*
X001070Y011805D01*
X001162Y011582D01*
X001319Y011425D01*
X001162Y011268D01*
X001070Y011045D01*
X001070Y010805D01*
X001162Y010582D01*
X001319Y010425D01*
X001162Y010268D01*
X001070Y010045D01*
X001070Y009805D01*
X001162Y009582D01*
X001319Y009425D01*
X001162Y009268D01*
X001070Y009045D01*
X001070Y008805D01*
X001162Y008582D01*
X001319Y008425D01*
X001162Y008268D01*
X001070Y008045D01*
X001070Y007805D01*
X001162Y007582D01*
X001319Y007425D01*
X001162Y007268D01*
X001070Y007045D01*
X001070Y006805D01*
X001162Y006582D01*
X001332Y006412D01*
X001387Y006389D01*
X001320Y006341D01*
X001259Y006280D01*
X001209Y006211D01*
X001170Y006134D01*
X001143Y006053D01*
X001130Y005968D01*
X001130Y005950D01*
X001650Y005950D01*
X001650Y005900D01*
X001130Y005900D01*
X001130Y005882D01*
X001143Y005797D01*
X001170Y005716D01*
X001209Y005639D01*
X001259Y005570D01*
X001320Y005509D01*
X001387Y005461D01*
X001332Y005438D01*
X001162Y005268D01*
X001070Y005045D01*
X001070Y004805D01*
X001162Y004582D01*
X001332Y004412D01*
X001555Y004320D01*
X001795Y004320D01*
X002018Y004412D01*
X002188Y004582D01*
X002280Y004805D01*
X002280Y005045D01*
X002188Y005268D01*
X002018Y005438D01*
X001963Y005461D01*
X002030Y005509D01*
X002091Y005570D01*
X002141Y005639D01*
X002180Y005716D01*
X002207Y005797D01*
X002220Y005882D01*
X002220Y005900D01*
X001700Y005900D01*
X001700Y005950D01*
X002220Y005950D01*
X002220Y005968D01*
X002207Y006053D01*
X002180Y006134D01*
X002141Y006211D01*
X002091Y006280D01*
X002030Y006341D01*
X001963Y006389D01*
X002018Y006412D01*
X002188Y006582D01*
X002280Y006805D01*
X002280Y007045D01*
X002188Y007268D01*
X002031Y007425D01*
X002188Y007582D01*
X002201Y007615D01*
X003237Y007615D01*
X003351Y007662D01*
X004803Y009115D01*
X005149Y009115D01*
X005162Y009082D01*
X005319Y008925D01*
X005162Y008768D01*
X005070Y008545D01*
X005070Y008305D01*
X005162Y008082D01*
X005332Y007912D01*
X005387Y007889D01*
X005320Y007841D01*
X005259Y007780D01*
X005209Y007711D01*
X005170Y007634D01*
X005143Y007553D01*
X005130Y007468D01*
X005130Y007450D01*
X005650Y007450D01*
X005650Y007400D01*
X005700Y007400D01*
X005700Y007450D01*
X006650Y007450D01*
X006650Y007400D01*
X006700Y007400D01*
X006700Y007450D01*
X007220Y007450D01*
X007220Y007468D01*
X007207Y007553D01*
X007180Y007634D01*
X007141Y007711D01*
X007091Y007780D01*
X007030Y007841D01*
X006963Y007889D01*
X007018Y007912D01*
X007188Y008082D01*
X007280Y008305D01*
X007280Y008382D01*
X007412Y008249D01*
X007499Y008162D01*
X007613Y008115D01*
X008737Y008115D01*
X008851Y008162D01*
X009351Y008662D01*
X010101Y009412D01*
X009976Y009288D02*
X014896Y009288D01*
X014959Y009140D02*
X009828Y009140D01*
X009679Y008991D02*
X015095Y008991D01*
X014987Y008843D02*
X009531Y008843D01*
X009382Y008694D02*
X012677Y008694D01*
X012608Y008665D02*
X012450Y008508D01*
X012365Y008302D01*
X012365Y008079D01*
X012450Y007874D01*
X012608Y007716D01*
X012814Y007631D01*
X013036Y007631D01*
X013242Y007716D01*
X013400Y007874D01*
X013485Y008079D01*
X013485Y008302D01*
X013400Y008508D01*
X013242Y008665D01*
X013036Y008751D01*
X012814Y008751D01*
X012608Y008665D01*
X012488Y008546D02*
X009234Y008546D01*
X009085Y008397D02*
X012404Y008397D01*
X012365Y008249D02*
X008937Y008249D01*
X008675Y008425D02*
X009175Y008925D01*
X009925Y009675D01*
X009925Y010175D01*
X010261Y009734D02*
X010589Y009734D01*
X010440Y009882D02*
X010410Y009882D01*
X010223Y009585D02*
X014904Y009585D01*
X014975Y009734D02*
X013291Y009734D01*
X013416Y009882D02*
X015127Y009882D01*
X014964Y010031D02*
X013478Y010031D01*
X013485Y010179D02*
X014872Y010179D01*
X014820Y010328D02*
X013461Y010328D01*
X013400Y010476D02*
X013261Y010615D01*
X014487Y010615D01*
X014601Y010662D01*
X014688Y010749D01*
X014966Y011028D01*
X015069Y010925D01*
X014912Y010768D01*
X014820Y010545D01*
X014853Y010625D02*
X014510Y010625D01*
X014711Y010773D02*
X014917Y010773D01*
X014860Y010922D02*
X015066Y010922D01*
X014925Y011425D02*
X014425Y010925D01*
X011675Y010925D01*
X010925Y010175D01*
X011261Y009734D02*
X011589Y009734D01*
X011440Y009882D02*
X011410Y009882D01*
X012261Y009734D02*
X012559Y009734D01*
X012434Y009882D02*
X012410Y009882D01*
X013173Y008694D02*
X014882Y008694D01*
X014820Y008546D02*
X013362Y008546D01*
X013446Y008397D02*
X014820Y008397D01*
X014843Y008249D02*
X013485Y008249D01*
X013485Y008100D02*
X014905Y008100D01*
X015043Y007952D02*
X013432Y007952D01*
X013329Y007803D02*
X015130Y007803D01*
X015130Y007655D02*
X013094Y007655D01*
X012756Y007655D02*
X012223Y007655D01*
X012372Y007506D02*
X015130Y007506D01*
X015130Y007358D02*
X012475Y007358D01*
X012475Y007209D02*
X015130Y007209D01*
X015130Y007061D02*
X012475Y007061D01*
X012440Y006912D02*
X015130Y006912D01*
X015130Y006764D02*
X012291Y006764D01*
X012295Y006280D02*
X012055Y006280D01*
X011832Y006188D01*
X011662Y006018D01*
X011570Y005795D01*
X011570Y005555D01*
X011662Y005332D01*
X011832Y005162D01*
X012055Y005070D01*
X012295Y005070D01*
X012518Y005162D01*
X012688Y005332D01*
X012780Y005555D01*
X012780Y005795D01*
X012688Y006018D01*
X012518Y006188D01*
X012295Y006280D01*
X012536Y006170D02*
X013871Y006170D01*
X013820Y006021D02*
X012685Y006021D01*
X012748Y005873D02*
X013820Y005873D01*
X013853Y005724D02*
X012780Y005724D01*
X012780Y005576D02*
X013919Y005576D01*
X014067Y005427D02*
X012727Y005427D01*
X012634Y005279D02*
X015880Y005279D01*
X015880Y005427D02*
X015783Y005427D01*
X015880Y005130D02*
X012440Y005130D01*
X011910Y005130D02*
X010887Y005130D01*
X010739Y005279D02*
X011716Y005279D01*
X011623Y005427D02*
X010590Y005427D01*
X010442Y005576D02*
X011570Y005576D01*
X011570Y005724D02*
X010391Y005724D01*
X010540Y005873D02*
X011602Y005873D01*
X011665Y006021D02*
X010688Y006021D01*
X010837Y006170D02*
X011814Y006170D01*
X011219Y006615D02*
X015130Y006615D01*
X015130Y006467D02*
X014699Y006467D01*
X014888Y006318D02*
X014962Y006318D01*
X014151Y006467D02*
X011134Y006467D01*
X010985Y006318D02*
X013962Y006318D01*
X014783Y005427D02*
X015067Y005427D01*
X015880Y004982D02*
X011036Y004982D01*
X011184Y004833D02*
X015880Y004833D01*
X015767Y004685D02*
X011333Y004685D01*
X011481Y004536D02*
X015619Y004536D01*
X015032Y004388D02*
X014818Y004388D01*
X014032Y004388D02*
X011630Y004388D01*
X011778Y004239D02*
X013900Y004239D01*
X013839Y004091D02*
X011927Y004091D01*
X012075Y003942D02*
X013820Y003942D01*
X013825Y003794D02*
X012224Y003794D01*
X012372Y003645D02*
X013886Y003645D01*
X013998Y003497D02*
X012521Y003497D01*
X012669Y003348D02*
X014237Y003348D01*
X014613Y003348D02*
X015237Y003348D01*
X014998Y003497D02*
X014852Y003497D01*
X015613Y003348D02*
X015681Y003348D01*
X016218Y003051D02*
X016259Y003051D01*
X016163Y002903D02*
X016070Y002903D01*
X016115Y002754D02*
X015921Y002754D01*
X016115Y002606D02*
X003739Y002606D01*
X003710Y002754D02*
X012429Y002754D01*
X012280Y002903D02*
X003661Y002903D01*
X003593Y003051D02*
X012132Y003051D01*
X011983Y003200D02*
X003501Y003200D01*
X003376Y003348D02*
X011835Y003348D01*
X011686Y003497D02*
X003206Y003497D01*
X002942Y003645D02*
X011538Y003645D01*
X011389Y003794D02*
X000947Y003794D01*
X000947Y003942D02*
X011241Y003942D01*
X011092Y004091D02*
X000947Y004091D01*
X000947Y004239D02*
X010944Y004239D01*
X010795Y004388D02*
X001958Y004388D01*
X002142Y004536D02*
X010647Y004536D01*
X010498Y004685D02*
X002230Y004685D01*
X002280Y004833D02*
X010350Y004833D01*
X010201Y004982D02*
X002280Y004982D01*
X002245Y005130D02*
X005910Y005130D01*
X005716Y005279D02*
X002177Y005279D01*
X002029Y005427D02*
X005623Y005427D01*
X005570Y005576D02*
X002095Y005576D01*
X002183Y005724D02*
X005570Y005724D01*
X005602Y005873D02*
X002218Y005873D01*
X002212Y006021D02*
X005665Y006021D01*
X005814Y006170D02*
X002162Y006170D01*
X002053Y006318D02*
X010151Y006318D01*
X010299Y006467D02*
X002072Y006467D01*
X002201Y006615D02*
X010448Y006615D01*
X010559Y006764D02*
X010206Y006764D01*
X010355Y006912D02*
X010410Y006912D01*
X009930Y006912D02*
X009920Y006912D01*
X009925Y006925D02*
X009925Y007175D01*
X009920Y007180D02*
X009920Y007170D01*
X009475Y007170D01*
X009475Y007180D01*
X009920Y007180D01*
X009920Y007209D02*
X009930Y007209D01*
X009920Y007061D02*
X009930Y007061D01*
X009920Y006764D02*
X009930Y006764D01*
X009644Y006764D02*
X009291Y006764D01*
X009440Y006912D02*
X009495Y006912D01*
X009920Y007358D02*
X009930Y007358D01*
X009920Y007506D02*
X009930Y007506D01*
X009920Y007655D02*
X009930Y007655D01*
X010138Y007655D02*
X010627Y007655D01*
X010478Y007506D02*
X010287Y007506D01*
X009712Y007655D02*
X009223Y007655D01*
X009372Y007506D02*
X009563Y007506D01*
X008675Y008425D02*
X007675Y008425D01*
X006675Y009425D01*
X005675Y009425D01*
X004675Y009425D01*
X003175Y007925D01*
X001675Y007925D01*
X001238Y007506D02*
X000947Y007506D01*
X000947Y007358D02*
X001252Y007358D01*
X001138Y007209D02*
X000947Y007209D01*
X000947Y007061D02*
X001076Y007061D01*
X001070Y006912D02*
X000947Y006912D01*
X000947Y006764D02*
X001087Y006764D01*
X001149Y006615D02*
X000947Y006615D01*
X000947Y006467D02*
X001278Y006467D01*
X001297Y006318D02*
X000947Y006318D01*
X000947Y006170D02*
X001188Y006170D01*
X001138Y006021D02*
X000947Y006021D01*
X000947Y005873D02*
X001132Y005873D01*
X001167Y005724D02*
X000947Y005724D01*
X000947Y005576D02*
X001255Y005576D01*
X001321Y005427D02*
X000947Y005427D01*
X000947Y005279D02*
X001173Y005279D01*
X001105Y005130D02*
X000947Y005130D01*
X000947Y004982D02*
X001070Y004982D01*
X001070Y004833D02*
X000947Y004833D01*
X000947Y004685D02*
X001120Y004685D01*
X001208Y004536D02*
X000947Y004536D01*
X000947Y004388D02*
X001392Y004388D01*
X000947Y003645D02*
X001908Y003645D01*
X001644Y003497D02*
X000947Y003497D01*
X000947Y003348D02*
X001474Y003348D01*
X001349Y003200D02*
X000947Y003200D01*
X000947Y003051D02*
X001257Y003051D01*
X001189Y002903D02*
X000947Y002903D01*
X000947Y002754D02*
X001140Y002754D01*
X001111Y002606D02*
X000947Y002606D01*
X002350Y002606D02*
X002500Y002606D01*
X002500Y002754D02*
X002350Y002754D01*
X002350Y002903D02*
X002500Y002903D01*
X002500Y003051D02*
X002350Y003051D01*
X002350Y003200D02*
X002500Y003200D01*
X002500Y003348D02*
X002350Y003348D01*
X002350Y003497D02*
X002500Y003497D01*
X002500Y003645D02*
X002350Y003645D01*
X002500Y002457D02*
X016159Y002457D01*
X016895Y002160D02*
X018837Y002160D01*
X018746Y002012D02*
X017046Y002012D01*
X017140Y001863D02*
X018663Y001863D01*
X018630Y001715D02*
X017175Y001715D01*
X017164Y001566D02*
X018640Y001566D01*
X018695Y001418D02*
X017105Y001418D01*
X016967Y001269D02*
X018810Y001269D01*
X019150Y001269D02*
X019200Y001269D01*
X019200Y001418D02*
X019150Y001418D01*
X019150Y001566D02*
X019200Y001566D01*
X019770Y000972D02*
X002185Y000972D01*
X002191Y001121D02*
X001753Y001121D01*
X001777Y001269D02*
X001508Y001269D01*
X006417Y001121D02*
X006933Y001121D01*
X006725Y001269D02*
X006625Y001269D01*
X006546Y002160D02*
X006804Y002160D01*
X006910Y005130D02*
X006440Y005130D01*
X006634Y005279D02*
X006716Y005279D01*
X007440Y005130D02*
X007910Y005130D01*
X007716Y005279D02*
X007634Y005279D01*
X008440Y005130D02*
X010053Y005130D01*
X009904Y005279D02*
X008634Y005279D01*
X008685Y006021D02*
X009854Y006021D01*
X010002Y006170D02*
X008536Y006170D01*
X008559Y006764D02*
X008290Y006764D01*
X007560Y006764D02*
X002263Y006764D01*
X002280Y006912D02*
X005490Y006912D01*
X005466Y006920D02*
X005547Y006893D01*
X005632Y006880D01*
X005650Y006880D01*
X005650Y007400D01*
X005130Y007400D01*
X005130Y007382D01*
X005143Y007297D01*
X005170Y007216D01*
X005209Y007139D01*
X005259Y007070D01*
X005320Y007009D01*
X005389Y006959D01*
X005466Y006920D01*
X005650Y006912D02*
X005700Y006912D01*
X005700Y006880D02*
X005718Y006880D01*
X005803Y006893D01*
X005884Y006920D01*
X005961Y006959D01*
X006030Y007009D01*
X006091Y007070D01*
X006141Y007139D01*
X006175Y007206D01*
X006209Y007139D01*
X006259Y007070D01*
X006320Y007009D01*
X006389Y006959D01*
X006466Y006920D01*
X006547Y006893D01*
X006632Y006880D01*
X006650Y006880D01*
X006650Y007400D01*
X006130Y007400D01*
X005700Y007400D01*
X005700Y006880D01*
X005860Y006912D02*
X006490Y006912D01*
X006650Y006912D02*
X006700Y006912D01*
X006700Y006880D02*
X006718Y006880D01*
X006803Y006893D01*
X006884Y006920D01*
X006961Y006959D01*
X007030Y007009D01*
X007091Y007070D01*
X007141Y007139D01*
X007180Y007216D01*
X007207Y007297D01*
X007220Y007382D01*
X007220Y007400D01*
X006700Y007400D01*
X006700Y006880D01*
X006860Y006912D02*
X007434Y006912D01*
X007373Y007061D02*
X007081Y007061D01*
X007177Y007209D02*
X007365Y007209D01*
X007388Y007358D02*
X007216Y007358D01*
X007214Y007506D02*
X007449Y007506D01*
X007597Y007655D02*
X007170Y007655D01*
X007068Y007803D02*
X012521Y007803D01*
X012418Y007952D02*
X007057Y007952D01*
X007195Y008100D02*
X012365Y008100D01*
X011627Y007655D02*
X011223Y007655D01*
X011372Y007506D02*
X011478Y007506D01*
X011559Y006764D02*
X011291Y006764D01*
X009175Y008925D02*
X007675Y010425D01*
X007675Y010675D01*
X008204Y011870D02*
X008280Y012055D01*
X008280Y012295D01*
X008188Y012518D01*
X008018Y012688D01*
X007795Y012780D01*
X007555Y012780D01*
X007522Y012766D01*
X007438Y012851D01*
X007351Y012938D01*
X007237Y012985D01*
X005485Y012985D01*
X005485Y015697D01*
X005934Y016146D01*
X005950Y016108D01*
X006108Y015950D01*
X006314Y015865D01*
X006536Y015865D01*
X006742Y015950D01*
X006900Y016108D01*
X006957Y016247D01*
X006962Y016233D01*
X006997Y016163D01*
X007044Y016099D01*
X007099Y016044D01*
X007163Y015997D01*
X007233Y015962D01*
X007308Y015937D01*
X007386Y015925D01*
X007425Y015925D01*
X007464Y015925D01*
X007542Y015937D01*
X007617Y015962D01*
X007687Y015997D01*
X007751Y016044D01*
X007806Y016099D01*
X007853Y016163D01*
X007888Y016233D01*
X007913Y016308D01*
X007925Y016386D01*
X007925Y016425D01*
X007425Y016425D01*
X007425Y016425D01*
X007425Y015925D01*
X007425Y016425D01*
X007425Y016425D01*
X007425Y016416D02*
X007425Y016416D01*
X007425Y016268D02*
X007425Y016268D01*
X007425Y016119D02*
X007425Y016119D01*
X007425Y015971D02*
X007425Y015971D01*
X007634Y015971D02*
X009365Y015971D01*
X009365Y016119D02*
X007821Y016119D01*
X007900Y016268D02*
X009365Y016268D01*
X009365Y016416D02*
X007925Y016416D01*
X007905Y016565D02*
X009365Y016565D01*
X009365Y016713D02*
X007834Y016713D01*
X007029Y016119D02*
X006904Y016119D01*
X006762Y015971D02*
X007216Y015971D01*
X006425Y016425D02*
X006425Y017075D01*
X005175Y015825D01*
X005175Y012675D01*
X007175Y012675D01*
X007675Y012175D01*
X008151Y012555D02*
X008623Y012555D01*
X008615Y012536D02*
X008615Y012314D01*
X008700Y012108D01*
X008858Y011950D01*
X009052Y011870D01*
X008204Y011870D01*
X008241Y011961D02*
X008847Y011961D01*
X008700Y012110D02*
X008280Y012110D01*
X008280Y012258D02*
X008638Y012258D01*
X008615Y012407D02*
X008234Y012407D01*
X007980Y012704D02*
X008684Y012704D01*
X008700Y012742D02*
X008615Y012536D01*
X008700Y012742D02*
X008858Y012900D01*
X009064Y012985D01*
X009286Y012985D01*
X009492Y012900D01*
X009650Y012742D01*
X009707Y012603D01*
X009712Y012617D01*
X009747Y012687D01*
X009794Y012751D01*
X009849Y012806D01*
X009913Y012853D01*
X009983Y012888D01*
X010058Y012913D01*
X010136Y012925D01*
X010175Y012925D01*
X010175Y012425D01*
X010175Y012425D01*
X010675Y012425D01*
X010675Y012464D01*
X010663Y012542D01*
X010638Y012617D01*
X010603Y012687D01*
X010556Y012751D01*
X010501Y012806D01*
X010437Y012853D01*
X010367Y012888D01*
X010292Y012913D01*
X010214Y012925D01*
X010175Y012925D01*
X010175Y012425D01*
X010175Y012425D01*
X010675Y012425D01*
X010675Y012386D01*
X010663Y012308D01*
X010638Y012233D01*
X010603Y012163D01*
X010556Y012099D01*
X010501Y012044D01*
X010437Y011997D01*
X010367Y011962D01*
X010292Y011937D01*
X010214Y011925D01*
X010175Y011925D01*
X010175Y012425D01*
X010175Y012425D01*
X010175Y011925D01*
X010136Y011925D01*
X010058Y011937D01*
X009983Y011962D01*
X009913Y011997D01*
X009849Y012044D01*
X009794Y012099D01*
X009747Y012163D01*
X009712Y012233D01*
X009707Y012247D01*
X009650Y012108D01*
X009492Y011950D01*
X009298Y011870D01*
X011302Y011870D01*
X011108Y011950D01*
X010950Y012108D01*
X010865Y012314D01*
X010865Y012536D01*
X010950Y012742D01*
X011108Y012900D01*
X011247Y012957D01*
X011233Y012962D01*
X011163Y012997D01*
X011099Y013044D01*
X011044Y013099D01*
X010997Y013163D01*
X010962Y013233D01*
X010937Y013308D01*
X010925Y013386D01*
X010925Y013425D01*
X011425Y013425D01*
X011925Y013425D01*
X011925Y013386D01*
X011913Y013308D01*
X011888Y013233D01*
X011853Y013163D01*
X011806Y013099D01*
X011751Y013044D01*
X011687Y012997D01*
X011617Y012962D01*
X011603Y012957D01*
X011742Y012900D01*
X011900Y012742D01*
X011903Y012735D01*
X012365Y012735D01*
X012365Y012847D01*
X012503Y012985D01*
X012687Y012985D01*
X012663Y012997D01*
X012599Y013044D01*
X012544Y013099D01*
X012497Y013163D01*
X012462Y013233D01*
X012437Y013308D01*
X012425Y013386D01*
X012425Y013425D01*
X012925Y013425D01*
X012925Y013425D01*
X013425Y013425D01*
X012925Y013425D01*
X012925Y013425D01*
X012925Y013425D01*
X012925Y013925D01*
X012886Y013925D01*
X012808Y013913D01*
X012733Y013888D01*
X012663Y013853D01*
X012599Y013806D01*
X012544Y013751D01*
X012497Y013687D01*
X012462Y013617D01*
X012437Y013542D01*
X012425Y013464D01*
X012425Y013425D01*
X012925Y013425D01*
X012925Y013446D02*
X012925Y013446D01*
X012925Y013595D02*
X012925Y013595D01*
X012925Y013743D02*
X012925Y013743D01*
X012925Y013892D02*
X012925Y013892D01*
X012743Y013892D02*
X011607Y013892D01*
X011425Y013892D02*
X011425Y013892D01*
X011425Y013743D02*
X011425Y013743D01*
X011425Y013595D02*
X011425Y013595D01*
X011425Y013446D02*
X011425Y013446D01*
X011425Y013425D02*
X011425Y013425D01*
X011007Y013149D02*
X005485Y013149D01*
X005485Y013001D02*
X011159Y013001D01*
X011060Y012852D02*
X010438Y012852D01*
X010591Y012704D02*
X010934Y012704D01*
X010873Y012555D02*
X010658Y012555D01*
X010675Y012407D02*
X010865Y012407D01*
X010888Y012258D02*
X010646Y012258D01*
X010564Y012110D02*
X010950Y012110D01*
X011097Y011961D02*
X010365Y011961D01*
X010175Y011961D02*
X010175Y011961D01*
X010175Y012110D02*
X010175Y012110D01*
X010175Y012258D02*
X010175Y012258D01*
X010175Y012407D02*
X010175Y012407D01*
X010175Y012555D02*
X010175Y012555D01*
X010175Y012704D02*
X010175Y012704D01*
X010175Y012852D02*
X010175Y012852D01*
X009912Y012852D02*
X009540Y012852D01*
X009666Y012704D02*
X009759Y012704D01*
X009786Y012110D02*
X009650Y012110D01*
X009503Y011961D02*
X009985Y011961D01*
X008810Y012852D02*
X007436Y012852D01*
X005485Y013298D02*
X010941Y013298D01*
X010925Y013446D02*
X005485Y013446D01*
X005485Y013595D02*
X010954Y013595D01*
X011038Y013743D02*
X005485Y013743D01*
X005485Y013892D02*
X010049Y013892D01*
X009872Y014040D02*
X005485Y014040D01*
X005485Y014189D02*
X009723Y014189D01*
X009575Y014337D02*
X005485Y014337D01*
X005485Y014486D02*
X009426Y014486D01*
X009365Y014634D02*
X005485Y014634D01*
X005485Y014783D02*
X009365Y014783D01*
X009365Y014931D02*
X005485Y014931D01*
X005485Y015080D02*
X009365Y015080D01*
X009365Y015228D02*
X005485Y015228D01*
X005485Y015377D02*
X009365Y015377D01*
X009365Y015525D02*
X005485Y015525D01*
X005485Y015674D02*
X009365Y015674D01*
X009365Y015822D02*
X005610Y015822D01*
X005759Y015971D02*
X006088Y015971D01*
X005946Y016119D02*
X005907Y016119D01*
X006425Y017075D02*
X009675Y017075D01*
X009675Y014675D01*
X010175Y014175D01*
X011175Y014175D01*
X011175Y014675D01*
X013175Y014675D01*
X015775Y014675D01*
X016187Y014486D02*
X019903Y014486D01*
X019903Y014634D02*
X016228Y014634D01*
X016221Y014783D02*
X019903Y014783D01*
X019903Y014931D02*
X016159Y014931D01*
X015982Y015080D02*
X019903Y015080D01*
X019903Y015228D02*
X013604Y015228D01*
X013576Y015377D02*
X019903Y015377D01*
X019903Y015525D02*
X013652Y015525D01*
X013675Y015674D02*
X019903Y015674D01*
X019903Y015822D02*
X013653Y015822D01*
X013675Y015675D02*
X013175Y015675D01*
X011175Y015675D01*
X011180Y015674D02*
X012675Y015674D01*
X012675Y015675D02*
X012675Y015636D01*
X012687Y015558D01*
X012712Y015483D01*
X012747Y015413D01*
X012794Y015349D01*
X012849Y015294D01*
X012913Y015247D01*
X012937Y015235D01*
X012753Y015235D01*
X012615Y015097D01*
X012615Y014985D01*
X011701Y014985D01*
X011688Y015018D01*
X011518Y015188D01*
X011463Y015211D01*
X011530Y015259D01*
X011591Y015320D01*
X011641Y015389D01*
X011680Y015466D01*
X011707Y015547D01*
X011720Y015632D01*
X011720Y015670D01*
X011180Y015670D01*
X011180Y015680D01*
X011170Y015680D01*
X011170Y016220D01*
X011132Y016220D01*
X011047Y016207D01*
X010966Y016180D01*
X010889Y016141D01*
X010820Y016091D01*
X010759Y016030D01*
X010720Y015976D01*
X010720Y016803D01*
X010889Y016972D01*
X011015Y016972D01*
X011182Y017041D01*
X011309Y017168D01*
X011378Y017335D01*
X011378Y017515D01*
X011309Y017682D01*
X011182Y017809D01*
X011047Y017865D01*
X012487Y017865D01*
X012601Y017912D01*
X013101Y018412D01*
X013188Y018499D01*
X013235Y018644D02*
X013627Y018644D01*
X013452Y018792D02*
X013398Y018792D01*
X012925Y018675D02*
X012925Y019175D01*
X012925Y018675D02*
X012425Y018175D01*
X010775Y018175D01*
X009675Y017075D01*
X010720Y016713D02*
X019903Y016713D01*
X019903Y016565D02*
X010720Y016565D01*
X010720Y016416D02*
X019903Y016416D01*
X019903Y016268D02*
X010720Y016268D01*
X010720Y016119D02*
X010859Y016119D01*
X011170Y016119D02*
X011180Y016119D01*
X011180Y016220D02*
X011180Y015680D01*
X011720Y015680D01*
X011720Y015718D01*
X011707Y015803D01*
X011680Y015884D01*
X011641Y015961D01*
X011591Y016030D01*
X011530Y016091D01*
X011461Y016141D01*
X011384Y016180D01*
X011303Y016207D01*
X011218Y016220D01*
X011180Y016220D01*
X011170Y015971D02*
X011180Y015971D01*
X011170Y015822D02*
X011180Y015822D01*
X011491Y016119D02*
X012945Y016119D01*
X012913Y016103D02*
X012849Y016056D01*
X012794Y016001D01*
X012747Y015937D01*
X012712Y015867D01*
X012687Y015792D01*
X012675Y015714D01*
X012675Y015675D01*
X013175Y015675D01*
X013175Y015675D01*
X013175Y015675D01*
X013175Y015675D01*
X013175Y016175D01*
X013136Y016175D01*
X013058Y016163D01*
X012983Y016138D01*
X012913Y016103D01*
X012772Y015971D02*
X011634Y015971D01*
X011700Y015822D02*
X012697Y015822D01*
X012675Y015675D02*
X013175Y015675D01*
X013675Y015675D01*
X013578Y015971D02*
X019903Y015971D01*
X019903Y016119D02*
X013405Y016119D01*
X013175Y016119D02*
X013175Y016119D01*
X013175Y015971D02*
X013175Y015971D01*
X013175Y015822D02*
X013175Y015822D01*
X012698Y015525D02*
X011699Y015525D01*
X011632Y015377D02*
X012774Y015377D01*
X012746Y015228D02*
X011487Y015228D01*
X011626Y015080D02*
X012615Y015080D01*
X012615Y014337D02*
X011690Y014337D01*
X011544Y014189D02*
X012679Y014189D01*
X013107Y013892D02*
X016274Y013892D01*
X016222Y013743D02*
X013312Y013743D01*
X013396Y013595D02*
X016177Y013595D01*
X016399Y014040D02*
X011455Y014040D01*
X011812Y013743D02*
X012538Y013743D01*
X012454Y013595D02*
X011896Y013595D01*
X011925Y013446D02*
X012425Y013446D01*
X012441Y013298D02*
X011909Y013298D01*
X011843Y013149D02*
X012507Y013149D01*
X012659Y013001D02*
X011691Y013001D01*
X011790Y012852D02*
X012370Y012852D01*
X012925Y012425D02*
X011425Y012425D01*
X013191Y013001D02*
X014683Y013001D01*
X014832Y013149D02*
X013343Y013149D01*
X013409Y013298D02*
X014980Y013298D01*
X015158Y013446D02*
X013425Y013446D01*
X013480Y012852D02*
X014535Y012852D01*
X014386Y012704D02*
X013485Y012704D01*
X013485Y012555D02*
X014238Y012555D01*
X014089Y012407D02*
X013485Y012407D01*
X013485Y012258D02*
X013941Y012258D01*
X013792Y012110D02*
X013485Y012110D01*
X013443Y011961D02*
X013644Y011961D01*
X014925Y011425D02*
X015425Y011425D01*
X016418Y013001D02*
X019903Y013001D01*
X019903Y013149D02*
X016566Y013149D01*
X016938Y013298D02*
X019903Y013298D01*
X019903Y013446D02*
X017071Y013446D01*
X017128Y013595D02*
X019903Y013595D01*
X019903Y013743D02*
X017128Y013743D01*
X017076Y013892D02*
X019903Y013892D01*
X019903Y014040D02*
X016951Y014040D01*
X016078Y014337D02*
X019903Y014337D01*
X019903Y014189D02*
X013671Y014189D01*
X013735Y014337D02*
X015472Y014337D01*
X015568Y015080D02*
X013735Y015080D01*
X011299Y017159D02*
X018036Y017159D01*
X017713Y017307D02*
X011367Y017307D01*
X011378Y017456D02*
X017521Y017456D01*
X017385Y017604D02*
X011341Y017604D01*
X011238Y017753D02*
X017282Y017753D01*
X017208Y017901D02*
X012574Y017901D01*
X012738Y018050D02*
X017154Y018050D01*
X017119Y018198D02*
X012886Y018198D01*
X013035Y018347D02*
X017101Y018347D01*
X017118Y018644D02*
X016223Y018644D01*
X016398Y018792D02*
X017152Y018792D01*
X017204Y018941D02*
X016483Y018941D01*
X016530Y019089D02*
X017278Y019089D01*
X017378Y019238D02*
X016530Y019238D01*
X016492Y019386D02*
X017512Y019386D01*
X017701Y019535D02*
X016421Y019535D01*
X016273Y019683D02*
X018008Y019683D01*
X018350Y019683D02*
X018500Y019683D01*
X018500Y019535D02*
X018350Y019535D01*
X018350Y019386D02*
X018500Y019386D01*
X018500Y019238D02*
X018350Y019238D01*
X018350Y019089D02*
X018500Y019089D01*
X018500Y018941D02*
X018350Y018941D01*
X018350Y018792D02*
X018500Y018792D01*
X018500Y018644D02*
X018350Y018644D01*
X019149Y019535D02*
X019388Y019535D01*
X019338Y019386D02*
X019537Y019386D01*
X019472Y019238D02*
X019648Y019238D01*
X019572Y019089D02*
X019734Y019089D01*
X019804Y018941D02*
X019646Y018941D01*
X019698Y018792D02*
X019844Y018792D01*
X019884Y018644D02*
X019732Y018644D01*
X019177Y019683D02*
X018842Y019683D01*
X018838Y019832D02*
X002012Y019832D01*
X002008Y019683D02*
X001673Y019683D01*
X001743Y019563D02*
X001858Y019624D01*
X001978Y019674D01*
X002103Y019712D01*
X002230Y019737D01*
X002350Y019749D01*
X002350Y018500D01*
X002500Y018500D01*
X003749Y018500D01*
X003737Y018620D01*
X003712Y018747D01*
X003674Y018872D01*
X003624Y018992D01*
X003563Y019107D01*
X003491Y019215D01*
X003408Y019316D01*
X003316Y019408D01*
X003215Y019491D01*
X003107Y019563D01*
X002992Y019624D01*
X002872Y019674D01*
X002747Y019712D01*
X002620Y019737D01*
X002500Y019749D01*
X002500Y018500D01*
X002500Y018350D01*
X003749Y018350D01*
X003737Y018230D01*
X003712Y018103D01*
X003674Y017978D01*
X003624Y017858D01*
X003563Y017743D01*
X003491Y017635D01*
X003408Y017534D01*
X003316Y017442D01*
X003215Y017359D01*
X003107Y017287D01*
X002992Y017226D01*
X002872Y017176D01*
X002747Y017138D01*
X002620Y017113D01*
X002500Y017101D01*
X002500Y018350D01*
X002350Y018350D01*
X002350Y017101D01*
X002230Y017113D01*
X002103Y017138D01*
X001978Y017176D01*
X001858Y017226D01*
X001743Y017287D01*
X001635Y017359D01*
X001534Y017442D01*
X001442Y017534D01*
X001359Y017635D01*
X001287Y017743D01*
X001226Y017858D01*
X001176Y017978D01*
X001138Y018103D01*
X001113Y018230D01*
X001101Y018350D01*
X002350Y018350D01*
X002350Y018500D01*
X001101Y018500D01*
X001113Y018620D01*
X001138Y018747D01*
X001176Y018872D01*
X001226Y018992D01*
X001287Y019107D01*
X001359Y019215D01*
X001442Y019316D01*
X001534Y019408D01*
X001635Y019491D01*
X001743Y019563D01*
X001701Y019535D02*
X001462Y019535D01*
X001512Y019386D02*
X001313Y019386D01*
X001378Y019238D02*
X001202Y019238D01*
X001278Y019089D02*
X001116Y019089D01*
X001046Y018941D02*
X001204Y018941D01*
X001152Y018792D02*
X001006Y018792D01*
X000966Y018644D02*
X001118Y018644D01*
X000951Y018495D02*
X002350Y018495D01*
X002425Y018425D02*
X003875Y019875D01*
X014925Y019875D01*
X014900Y019683D02*
X014950Y019683D01*
X014950Y019535D02*
X014900Y019535D01*
X014900Y019386D02*
X014950Y019386D01*
X014950Y019238D02*
X014900Y019238D01*
X014900Y019089D02*
X014950Y019089D01*
X014950Y018941D02*
X014900Y018941D01*
X014900Y018792D02*
X014950Y018792D01*
X014950Y018644D02*
X014900Y018644D01*
X015053Y018643D02*
X015134Y018670D01*
X015211Y018709D01*
X015280Y018759D01*
X015341Y018820D01*
X015389Y018887D01*
X015412Y018832D01*
X015582Y018662D01*
X015452Y018792D02*
X015313Y018792D01*
X015336Y019535D02*
X015429Y019535D01*
X015577Y019683D02*
X015125Y019683D01*
X014725Y019683D02*
X014273Y019683D01*
X014421Y019535D02*
X014514Y019535D01*
X013577Y019683D02*
X013273Y019683D01*
X013421Y019535D02*
X013429Y019535D01*
X012577Y019683D02*
X012273Y019683D01*
X012421Y019535D02*
X012429Y019535D01*
X011577Y019683D02*
X011273Y019683D01*
X011421Y019535D02*
X011429Y019535D01*
X010577Y019683D02*
X010273Y019683D01*
X010421Y019535D02*
X010429Y019535D01*
X009577Y019683D02*
X009273Y019683D01*
X009421Y019535D02*
X009429Y019535D01*
X008577Y019683D02*
X008273Y019683D01*
X008421Y019535D02*
X008429Y019535D01*
X007577Y019683D02*
X007273Y019683D01*
X007421Y019535D02*
X007429Y019535D01*
X006577Y019683D02*
X006273Y019683D01*
X006421Y019535D02*
X006429Y019535D01*
X005577Y019683D02*
X005273Y019683D01*
X005421Y019535D02*
X005429Y019535D01*
X004577Y019683D02*
X002842Y019683D01*
X003149Y019535D02*
X004429Y019535D01*
X004358Y019386D02*
X003338Y019386D01*
X003472Y019238D02*
X004320Y019238D01*
X004320Y019089D02*
X003572Y019089D01*
X003646Y018941D02*
X004367Y018941D01*
X004452Y018792D02*
X003698Y018792D01*
X003732Y018644D02*
X004627Y018644D01*
X004929Y018347D02*
X003749Y018347D01*
X003731Y018198D02*
X004781Y018198D01*
X004632Y018050D02*
X003696Y018050D01*
X003642Y017901D02*
X004484Y017901D01*
X004335Y017753D02*
X003568Y017753D01*
X003465Y017604D02*
X004187Y017604D01*
X004038Y017456D02*
X003329Y017456D01*
X003137Y017307D02*
X003890Y017307D01*
X003741Y017159D02*
X002814Y017159D01*
X002500Y017159D02*
X002350Y017159D01*
X002350Y017307D02*
X002500Y017307D01*
X002500Y017456D02*
X002350Y017456D01*
X002350Y017604D02*
X002500Y017604D01*
X002500Y017753D02*
X002350Y017753D01*
X002350Y017901D02*
X002500Y017901D01*
X002500Y018050D02*
X002350Y018050D01*
X002350Y018198D02*
X002500Y018198D01*
X002500Y018347D02*
X002350Y018347D01*
X002500Y018495D02*
X005078Y018495D01*
X005223Y018644D02*
X005226Y018644D01*
X003593Y017010D02*
X000947Y017010D01*
X000947Y016862D02*
X003444Y016862D01*
X003296Y016713D02*
X000947Y016713D01*
X000947Y016565D02*
X003147Y016565D01*
X002036Y017159D02*
X000947Y017159D01*
X000947Y017307D02*
X001713Y017307D01*
X001521Y017456D02*
X000947Y017456D01*
X000947Y017604D02*
X001385Y017604D01*
X001282Y017753D02*
X000947Y017753D01*
X000947Y017901D02*
X001208Y017901D01*
X001154Y018050D02*
X000947Y018050D01*
X000947Y018198D02*
X001119Y018198D01*
X001101Y018347D02*
X000947Y018347D01*
X002350Y018644D02*
X002500Y018644D01*
X002500Y018792D02*
X002350Y018792D01*
X002350Y018941D02*
X002500Y018941D01*
X002500Y019089D02*
X002350Y019089D01*
X002350Y019238D02*
X002500Y019238D01*
X002500Y019386D02*
X002350Y019386D01*
X002350Y019535D02*
X002500Y019535D01*
X002500Y019683D02*
X002350Y019683D01*
X001310Y016416D02*
X000947Y016416D01*
X000947Y016268D02*
X001162Y016268D01*
X001101Y016119D02*
X000947Y016119D01*
X000947Y015971D02*
X001070Y015971D01*
X001070Y015822D02*
X000947Y015822D01*
X000947Y015674D02*
X001124Y015674D01*
X001219Y015525D02*
X000947Y015525D01*
X000947Y015377D02*
X001271Y015377D01*
X001146Y015228D02*
X000947Y015228D01*
X000947Y015080D02*
X001084Y015080D01*
X001070Y014931D02*
X000947Y014931D01*
X000947Y014783D02*
X001079Y014783D01*
X001141Y014634D02*
X000947Y014634D01*
X000947Y014486D02*
X001259Y014486D01*
X001231Y014337D02*
X000947Y014337D01*
X000947Y014189D02*
X001129Y014189D01*
X001070Y014040D02*
X000947Y014040D01*
X000947Y013892D02*
X001070Y013892D01*
X001096Y013743D02*
X000947Y013743D01*
X000947Y013595D02*
X001157Y013595D01*
X001298Y013446D02*
X000947Y013446D01*
X000947Y013298D02*
X001192Y013298D01*
X001113Y013149D02*
X000947Y013149D01*
X000947Y013001D02*
X001070Y013001D01*
X001070Y012852D02*
X000947Y012852D01*
X000947Y012704D02*
X001112Y012704D01*
X001189Y012555D02*
X000947Y012555D01*
X000947Y012407D02*
X001301Y012407D01*
X001158Y012258D02*
X000947Y012258D01*
X000947Y012110D02*
X001097Y012110D01*
X001070Y011961D02*
X000947Y011961D01*
X000947Y011813D02*
X001070Y011813D01*
X001128Y011664D02*
X000947Y011664D01*
X000947Y011516D02*
X001229Y011516D01*
X001261Y011367D02*
X000947Y011367D01*
X000947Y011219D02*
X001142Y011219D01*
X001080Y011070D02*
X000947Y011070D01*
X000947Y010922D02*
X001070Y010922D01*
X001083Y010773D02*
X000947Y010773D01*
X000947Y010625D02*
X001145Y010625D01*
X001268Y010476D02*
X000947Y010476D01*
X000947Y010328D02*
X001222Y010328D01*
X001125Y010179D02*
X000947Y010179D01*
X000947Y010031D02*
X001070Y010031D01*
X001070Y009882D02*
X000947Y009882D01*
X000947Y009734D02*
X001099Y009734D01*
X001161Y009585D02*
X000947Y009585D01*
X000947Y009437D02*
X001308Y009437D01*
X001182Y009288D02*
X000947Y009288D01*
X000947Y009140D02*
X001109Y009140D01*
X001070Y008991D02*
X000947Y008991D01*
X000947Y008843D02*
X001070Y008843D01*
X001116Y008694D02*
X000947Y008694D01*
X000947Y008546D02*
X001199Y008546D01*
X001291Y008397D02*
X000947Y008397D01*
X000947Y008249D02*
X001154Y008249D01*
X001093Y008100D02*
X000947Y008100D01*
X000947Y007952D02*
X001070Y007952D01*
X001071Y007803D02*
X000947Y007803D01*
X000947Y007655D02*
X001132Y007655D01*
X002098Y007358D02*
X005134Y007358D01*
X005136Y007506D02*
X002112Y007506D01*
X002212Y007209D02*
X005173Y007209D01*
X005269Y007061D02*
X002274Y007061D01*
X002675Y005925D02*
X001675Y005925D01*
X003332Y007655D02*
X005180Y007655D01*
X005282Y007803D02*
X003491Y007803D01*
X003640Y007952D02*
X005293Y007952D01*
X005155Y008100D02*
X003788Y008100D01*
X003937Y008249D02*
X005093Y008249D01*
X005070Y008397D02*
X004085Y008397D01*
X004234Y008546D02*
X005070Y008546D01*
X005132Y008694D02*
X004382Y008694D01*
X004531Y008843D02*
X005237Y008843D01*
X005253Y008991D02*
X004679Y008991D01*
X005650Y007358D02*
X005700Y007358D01*
X005700Y007209D02*
X005650Y007209D01*
X005650Y007061D02*
X005700Y007061D01*
X006081Y007061D02*
X006269Y007061D01*
X006650Y007061D02*
X006700Y007061D01*
X006700Y007209D02*
X006650Y007209D01*
X006650Y007358D02*
X006700Y007358D01*
X007257Y008249D02*
X007413Y008249D01*
X008253Y007655D02*
X008627Y007655D01*
X008478Y007506D02*
X008401Y007506D01*
X007814Y006170D02*
X007536Y006170D01*
X006814Y006170D02*
X006536Y006170D01*
X016367Y003200D02*
X016478Y003200D01*
X016515Y003348D02*
X018656Y003348D01*
X018594Y003497D02*
X016664Y003497D01*
X016812Y003645D02*
X018570Y003645D01*
X018570Y003794D02*
X016961Y003794D01*
X017109Y003942D02*
X018631Y003942D01*
X018735Y004091D02*
X017258Y004091D01*
X017406Y004239D02*
X018755Y004239D01*
X018639Y004388D02*
X017470Y004388D01*
X017470Y004536D02*
X018578Y004536D01*
X018570Y004685D02*
X017470Y004685D01*
X017470Y004833D02*
X018586Y004833D01*
X018647Y004982D02*
X017470Y004982D01*
X017470Y005130D02*
X018774Y005130D01*
X018716Y005279D02*
X017470Y005279D01*
X017470Y005427D02*
X018623Y005427D01*
X018570Y005576D02*
X017470Y005576D01*
X017470Y005724D02*
X018570Y005724D01*
X018602Y005873D02*
X017470Y005873D01*
X017470Y006021D02*
X018665Y006021D01*
X018814Y006170D02*
X017470Y006170D01*
X017470Y006318D02*
X019903Y006318D01*
X019903Y006170D02*
X019536Y006170D01*
X019685Y006021D02*
X019903Y006021D01*
X019903Y005873D02*
X019748Y005873D01*
X019780Y005724D02*
X019903Y005724D01*
X019903Y005576D02*
X019780Y005576D01*
X019727Y005427D02*
X019903Y005427D01*
X019903Y005279D02*
X019634Y005279D01*
X019576Y005130D02*
X019903Y005130D01*
X019903Y004982D02*
X019703Y004982D01*
X019764Y004833D02*
X019903Y004833D01*
X019903Y004685D02*
X019780Y004685D01*
X019772Y004536D02*
X019903Y004536D01*
X019903Y004388D02*
X019711Y004388D01*
X019595Y004239D02*
X019903Y004239D01*
X019903Y004091D02*
X019615Y004091D01*
X019719Y003942D02*
X019903Y003942D01*
X019903Y003794D02*
X019780Y003794D01*
X019780Y003645D02*
X019903Y003645D01*
X019903Y003497D02*
X019756Y003497D01*
X019694Y003348D02*
X019903Y003348D01*
X019903Y003200D02*
X019555Y003200D01*
X019655Y003051D02*
X019903Y003051D01*
X019903Y002903D02*
X019736Y002903D01*
X019780Y002754D02*
X019903Y002754D01*
X019903Y002606D02*
X019780Y002606D01*
X019740Y002457D02*
X019903Y002457D01*
X019903Y002309D02*
X019664Y002309D01*
X018686Y002309D02*
X017100Y002309D01*
X017191Y002457D02*
X018610Y002457D01*
X018570Y002606D02*
X017235Y002606D01*
X017235Y002754D02*
X018570Y002754D01*
X018614Y002903D02*
X017187Y002903D01*
X017091Y003051D02*
X018695Y003051D01*
X018795Y003200D02*
X016872Y003200D01*
X016675Y001566D02*
X016675Y001566D01*
X016675Y001418D02*
X016675Y001418D01*
X016675Y001269D02*
X016675Y001269D01*
X017470Y006467D02*
X019903Y006467D01*
X019903Y006615D02*
X019326Y006615D01*
X019436Y006661D02*
X019104Y006523D01*
X018746Y006523D01*
X018414Y006661D01*
X018161Y006914D01*
X018023Y007246D01*
X018023Y007604D01*
X018161Y007936D01*
X018414Y008189D01*
X018746Y008327D01*
X019104Y008327D01*
X019436Y008189D01*
X019689Y007936D01*
X019827Y007604D01*
X019827Y007246D01*
X019689Y006914D01*
X019436Y006661D01*
X019539Y006764D02*
X019903Y006764D01*
X019903Y006912D02*
X019687Y006912D01*
X019750Y007061D02*
X019903Y007061D01*
X019903Y007209D02*
X019812Y007209D01*
X019827Y007358D02*
X019903Y007358D01*
X019903Y007506D02*
X019827Y007506D01*
X019806Y007655D02*
X019903Y007655D01*
X019903Y007803D02*
X019744Y007803D01*
X019674Y007952D02*
X019903Y007952D01*
X019903Y008100D02*
X019525Y008100D01*
X019293Y008249D02*
X019903Y008249D01*
X019903Y008397D02*
X017470Y008397D01*
X017470Y008249D02*
X018557Y008249D01*
X018325Y008100D02*
X017470Y008100D01*
X017470Y007952D02*
X018176Y007952D01*
X018106Y007803D02*
X017470Y007803D01*
X017470Y007655D02*
X018044Y007655D01*
X018023Y007506D02*
X017470Y007506D01*
X017470Y007358D02*
X018023Y007358D01*
X018038Y007209D02*
X017470Y007209D01*
X017470Y007061D02*
X018100Y007061D01*
X018163Y006912D02*
X017470Y006912D01*
X017470Y006764D02*
X018311Y006764D01*
X018524Y006615D02*
X017470Y006615D01*
X017470Y008546D02*
X019903Y008546D01*
X019903Y008694D02*
X017470Y008694D01*
X017470Y008843D02*
X019903Y008843D01*
X019903Y008991D02*
X017467Y008991D01*
X017378Y009140D02*
X019903Y009140D01*
X019903Y009288D02*
X016918Y009288D01*
X016792Y009437D02*
X019903Y009437D01*
X019903Y009585D02*
X016939Y009585D01*
X017401Y009734D02*
X019903Y009734D01*
X019903Y009882D02*
X017470Y009882D01*
X017470Y010031D02*
X019903Y010031D01*
X019903Y010179D02*
X017470Y010179D01*
X017470Y010328D02*
X019903Y010328D01*
X019903Y010476D02*
X017470Y010476D01*
X017470Y010625D02*
X019903Y010625D01*
X019903Y010773D02*
X017470Y010773D01*
X017470Y010922D02*
X019903Y010922D01*
X019903Y011070D02*
X019217Y011070D01*
X019104Y011023D02*
X019436Y011161D01*
X019689Y011414D01*
X019827Y011746D01*
X019827Y012104D01*
X019689Y012436D01*
X019436Y012689D01*
X019104Y012827D01*
X018746Y012827D01*
X018414Y012689D01*
X018161Y012436D01*
X018023Y012104D01*
X018023Y011746D01*
X018161Y011414D01*
X018414Y011161D01*
X018746Y011023D01*
X019104Y011023D01*
X019494Y011219D02*
X019903Y011219D01*
X019903Y011367D02*
X019642Y011367D01*
X019731Y011516D02*
X019903Y011516D01*
X019903Y011664D02*
X019793Y011664D01*
X019827Y011813D02*
X019903Y011813D01*
X019903Y011961D02*
X019827Y011961D01*
X019825Y012110D02*
X019903Y012110D01*
X019903Y012258D02*
X019763Y012258D01*
X019702Y012407D02*
X019903Y012407D01*
X019903Y012555D02*
X019570Y012555D01*
X019402Y012704D02*
X019903Y012704D01*
X019903Y012852D02*
X017415Y012852D01*
X017470Y012704D02*
X018448Y012704D01*
X018280Y012555D02*
X017470Y012555D01*
X017470Y012407D02*
X018148Y012407D01*
X018087Y012258D02*
X017470Y012258D01*
X017470Y012110D02*
X018025Y012110D01*
X018023Y011961D02*
X017470Y011961D01*
X017470Y011813D02*
X018023Y011813D01*
X018057Y011664D02*
X017470Y011664D01*
X017470Y011516D02*
X018119Y011516D01*
X018208Y011367D02*
X017470Y011367D01*
X017470Y011219D02*
X018356Y011219D01*
X018633Y011070D02*
X017470Y011070D01*
X019903Y016862D02*
X010779Y016862D01*
X011107Y017010D02*
X019903Y017010D01*
D18*
X016675Y013675D03*
X015775Y014675D03*
X010925Y017425D03*
X008425Y017675D03*
X007425Y017925D03*
X004375Y014175D03*
X004175Y013425D03*
X006775Y010675D03*
D19*
X006275Y010175D01*
X004675Y010175D01*
X003425Y008925D01*
X001675Y008925D01*
X003675Y010675D02*
X004275Y011275D01*
X014025Y011275D01*
X015425Y012675D01*
X017175Y012675D01*
X017175Y009925D01*
X016425Y009925D01*
X016425Y008925D02*
X017175Y008925D01*
X017175Y004425D01*
X015675Y002925D01*
X012675Y002925D01*
X009925Y005675D01*
X008175Y005675D01*
X009925Y005675D02*
X010925Y006675D01*
X010925Y007175D01*
X015425Y008425D02*
X015425Y005925D01*
X016175Y004675D02*
X016175Y007675D01*
X016425Y007925D01*
X016175Y004675D02*
X015425Y003925D01*
X013675Y011575D02*
X015275Y013175D01*
X016175Y013175D01*
X016675Y013675D01*
X013675Y011575D02*
X006175Y011575D01*
X005575Y012175D01*
X003675Y012175D01*
X002425Y012175D02*
X002425Y011425D01*
X001925Y010925D01*
X001675Y010925D01*
X001675Y011925D02*
X003675Y013925D01*
X004125Y013925D01*
X004375Y014175D01*
X004175Y013425D02*
X003675Y013425D01*
X002425Y012175D01*
X002175Y012925D02*
X001675Y012925D01*
X002175Y012925D02*
X002425Y013175D01*
X002425Y013925D01*
X005925Y017425D01*
X008175Y017425D01*
X008425Y017675D01*
X009925Y019175D01*
X008925Y019175D02*
X008925Y018925D01*
X007925Y017925D01*
X007425Y017925D01*
X005925Y017925D01*
X001925Y013925D01*
X001675Y013925D01*
X001675Y014925D02*
X002675Y015925D01*
X003425Y015925D01*
X005675Y018175D01*
X006925Y018175D01*
X007925Y019175D01*
X006925Y019175D02*
X006925Y018675D01*
X006675Y018425D01*
X005425Y018425D01*
X003175Y016175D01*
X001925Y016175D01*
X001675Y015925D01*
X010425Y015175D02*
X010425Y016925D01*
X010925Y017425D01*
M02*
