G75*
G70*
%OFA0B0*%
%FSLAX24Y24*%
%IPPOS*%
%LPD*%
%AMOC8*
5,1,8,0,0,1.08239X$1,22.5*
%
%ADD10C,0.0000*%
%ADD11C,0.0060*%
%ADD12C,0.0030*%
D10*
X002425Y000675D02*
X019675Y000675D01*
X019719Y000677D01*
X019762Y000683D01*
X019804Y000692D01*
X019846Y000705D01*
X019886Y000722D01*
X019925Y000742D01*
X019962Y000765D01*
X019996Y000792D01*
X020029Y000821D01*
X020058Y000854D01*
X020085Y000888D01*
X020108Y000925D01*
X020128Y000964D01*
X020145Y001004D01*
X020158Y001046D01*
X020167Y001088D01*
X020173Y001131D01*
X020175Y001175D01*
X020175Y018425D01*
X020173Y018508D01*
X020167Y018591D01*
X020157Y018674D01*
X020143Y018756D01*
X020126Y018838D01*
X020104Y018918D01*
X020079Y018997D01*
X020050Y019075D01*
X020017Y019152D01*
X019980Y019227D01*
X019941Y019300D01*
X019897Y019371D01*
X019851Y019440D01*
X019801Y019507D01*
X019748Y019571D01*
X019692Y019633D01*
X019633Y019692D01*
X019571Y019748D01*
X019507Y019801D01*
X019440Y019851D01*
X019371Y019897D01*
X019300Y019941D01*
X019227Y019980D01*
X019152Y020017D01*
X019075Y020050D01*
X018997Y020079D01*
X018918Y020104D01*
X018838Y020126D01*
X018756Y020143D01*
X018674Y020157D01*
X018591Y020167D01*
X018508Y020173D01*
X018425Y020175D01*
X002425Y020175D01*
X002342Y020173D01*
X002259Y020167D01*
X002176Y020157D01*
X002094Y020143D01*
X002012Y020126D01*
X001932Y020104D01*
X001853Y020079D01*
X001775Y020050D01*
X001698Y020017D01*
X001623Y019980D01*
X001550Y019941D01*
X001479Y019897D01*
X001410Y019851D01*
X001343Y019801D01*
X001279Y019748D01*
X001217Y019692D01*
X001158Y019633D01*
X001102Y019571D01*
X001049Y019507D01*
X000999Y019440D01*
X000953Y019371D01*
X000909Y019300D01*
X000870Y019227D01*
X000833Y019152D01*
X000800Y019075D01*
X000771Y018997D01*
X000746Y018918D01*
X000724Y018838D01*
X000707Y018756D01*
X000693Y018674D01*
X000683Y018591D01*
X000677Y018508D01*
X000675Y018425D01*
X000675Y002425D01*
X000677Y002342D01*
X000683Y002259D01*
X000693Y002176D01*
X000707Y002094D01*
X000724Y002012D01*
X000746Y001932D01*
X000771Y001853D01*
X000800Y001775D01*
X000833Y001698D01*
X000870Y001623D01*
X000909Y001550D01*
X000953Y001479D01*
X000999Y001410D01*
X001049Y001343D01*
X001102Y001279D01*
X001158Y001217D01*
X001217Y001158D01*
X001279Y001102D01*
X001343Y001049D01*
X001410Y000999D01*
X001479Y000953D01*
X001550Y000909D01*
X001623Y000870D01*
X001698Y000833D01*
X001775Y000800D01*
X001853Y000771D01*
X001932Y000746D01*
X002012Y000724D01*
X002094Y000707D01*
X002176Y000693D01*
X002259Y000683D01*
X002342Y000677D01*
X002425Y000675D01*
X018295Y007425D02*
X018297Y007475D01*
X018303Y007525D01*
X018313Y007574D01*
X018327Y007622D01*
X018344Y007669D01*
X018365Y007714D01*
X018390Y007758D01*
X018418Y007799D01*
X018450Y007838D01*
X018484Y007875D01*
X018521Y007909D01*
X018561Y007939D01*
X018603Y007966D01*
X018647Y007990D01*
X018693Y008011D01*
X018740Y008027D01*
X018788Y008040D01*
X018838Y008049D01*
X018887Y008054D01*
X018938Y008055D01*
X018988Y008052D01*
X019037Y008045D01*
X019086Y008034D01*
X019134Y008019D01*
X019180Y008001D01*
X019225Y007979D01*
X019268Y007953D01*
X019309Y007924D01*
X019348Y007892D01*
X019384Y007857D01*
X019416Y007819D01*
X019446Y007779D01*
X019473Y007736D01*
X019496Y007692D01*
X019515Y007646D01*
X019531Y007598D01*
X019543Y007549D01*
X019551Y007500D01*
X019555Y007450D01*
X019555Y007400D01*
X019551Y007350D01*
X019543Y007301D01*
X019531Y007252D01*
X019515Y007204D01*
X019496Y007158D01*
X019473Y007114D01*
X019446Y007071D01*
X019416Y007031D01*
X019384Y006993D01*
X019348Y006958D01*
X019309Y006926D01*
X019268Y006897D01*
X019225Y006871D01*
X019180Y006849D01*
X019134Y006831D01*
X019086Y006816D01*
X019037Y006805D01*
X018988Y006798D01*
X018938Y006795D01*
X018887Y006796D01*
X018838Y006801D01*
X018788Y006810D01*
X018740Y006823D01*
X018693Y006839D01*
X018647Y006860D01*
X018603Y006884D01*
X018561Y006911D01*
X018521Y006941D01*
X018484Y006975D01*
X018450Y007012D01*
X018418Y007051D01*
X018390Y007092D01*
X018365Y007136D01*
X018344Y007181D01*
X018327Y007228D01*
X018313Y007276D01*
X018303Y007325D01*
X018297Y007375D01*
X018295Y007425D01*
X018295Y011925D02*
X018297Y011975D01*
X018303Y012025D01*
X018313Y012074D01*
X018327Y012122D01*
X018344Y012169D01*
X018365Y012214D01*
X018390Y012258D01*
X018418Y012299D01*
X018450Y012338D01*
X018484Y012375D01*
X018521Y012409D01*
X018561Y012439D01*
X018603Y012466D01*
X018647Y012490D01*
X018693Y012511D01*
X018740Y012527D01*
X018788Y012540D01*
X018838Y012549D01*
X018887Y012554D01*
X018938Y012555D01*
X018988Y012552D01*
X019037Y012545D01*
X019086Y012534D01*
X019134Y012519D01*
X019180Y012501D01*
X019225Y012479D01*
X019268Y012453D01*
X019309Y012424D01*
X019348Y012392D01*
X019384Y012357D01*
X019416Y012319D01*
X019446Y012279D01*
X019473Y012236D01*
X019496Y012192D01*
X019515Y012146D01*
X019531Y012098D01*
X019543Y012049D01*
X019551Y012000D01*
X019555Y011950D01*
X019555Y011900D01*
X019551Y011850D01*
X019543Y011801D01*
X019531Y011752D01*
X019515Y011704D01*
X019496Y011658D01*
X019473Y011614D01*
X019446Y011571D01*
X019416Y011531D01*
X019384Y011493D01*
X019348Y011458D01*
X019309Y011426D01*
X019268Y011397D01*
X019225Y011371D01*
X019180Y011349D01*
X019134Y011331D01*
X019086Y011316D01*
X019037Y011305D01*
X018988Y011298D01*
X018938Y011295D01*
X018887Y011296D01*
X018838Y011301D01*
X018788Y011310D01*
X018740Y011323D01*
X018693Y011339D01*
X018647Y011360D01*
X018603Y011384D01*
X018561Y011411D01*
X018521Y011441D01*
X018484Y011475D01*
X018450Y011512D01*
X018418Y011551D01*
X018390Y011592D01*
X018365Y011636D01*
X018344Y011681D01*
X018327Y011728D01*
X018313Y011776D01*
X018303Y011825D01*
X018297Y011875D01*
X018295Y011925D01*
D11*
X012145Y004895D02*
X011851Y004895D01*
X011685Y004895D02*
X011685Y004455D01*
X011391Y004455D01*
X011224Y004528D02*
X011151Y004455D01*
X011004Y004455D01*
X010931Y004528D01*
X010764Y004455D02*
X010470Y004455D01*
X010617Y004455D02*
X010617Y004895D01*
X010764Y004749D01*
X010931Y004822D02*
X011004Y004895D01*
X011151Y004895D01*
X011224Y004822D01*
X011224Y004528D01*
X011998Y004675D02*
X012145Y004675D01*
X012145Y004455D02*
X012145Y004895D01*
X010303Y004822D02*
X010303Y004528D01*
X010010Y004822D01*
X010010Y004528D01*
X010083Y004455D01*
X010230Y004455D01*
X010303Y004528D01*
X010303Y004822D02*
X010230Y004895D01*
X010083Y004895D01*
X010010Y004822D01*
X009843Y004822D02*
X009770Y004895D01*
X009623Y004895D01*
X009549Y004822D01*
X009843Y004528D01*
X009770Y004455D01*
X009623Y004455D01*
X009549Y004528D01*
X009549Y004822D01*
X009843Y004822D02*
X009843Y004528D01*
X008922Y004455D02*
X008922Y004749D01*
X008922Y004602D02*
X008775Y004749D01*
X008702Y004749D01*
X008539Y004675D02*
X008539Y004528D01*
X008465Y004455D01*
X008318Y004455D01*
X008245Y004602D02*
X008539Y004602D01*
X008539Y004675D02*
X008465Y004749D01*
X008318Y004749D01*
X008245Y004675D01*
X008245Y004602D01*
X008078Y004455D02*
X008078Y004749D01*
X008005Y004749D01*
X007931Y004675D01*
X007858Y004749D01*
X007785Y004675D01*
X007785Y004455D01*
X007931Y004455D02*
X007931Y004675D01*
X007618Y004675D02*
X007618Y004528D01*
X007544Y004455D01*
X007398Y004455D01*
X007324Y004528D01*
X007324Y004675D01*
X007398Y004749D01*
X007544Y004749D01*
X007618Y004675D01*
X007157Y004749D02*
X007011Y004749D01*
X007084Y004822D02*
X007084Y004528D01*
X007011Y004455D01*
X006850Y004528D02*
X006850Y004675D01*
X006777Y004749D01*
X006630Y004749D01*
X006557Y004675D01*
X006557Y004602D01*
X006850Y004602D01*
X006850Y004528D02*
X006777Y004455D01*
X006630Y004455D01*
X005930Y004749D02*
X005783Y004455D01*
X005636Y004749D01*
X005469Y004749D02*
X005323Y004895D01*
X005323Y004455D01*
X005469Y004455D02*
X005176Y004455D01*
X005009Y004455D02*
X004936Y004455D01*
X004936Y004528D01*
X005009Y004528D01*
X005009Y004455D01*
X004779Y004528D02*
X004485Y004822D01*
X004485Y004528D01*
X004559Y004455D01*
X004705Y004455D01*
X004779Y004528D01*
X004779Y004822D01*
X004705Y004895D01*
X004559Y004895D01*
X004485Y004822D01*
D12*
X005775Y003560D02*
X005775Y003190D01*
X005652Y003190D02*
X005899Y003190D01*
X006020Y003252D02*
X006082Y003190D01*
X006205Y003190D01*
X006267Y003252D01*
X006020Y003499D01*
X006020Y003252D01*
X005899Y003437D02*
X005775Y003560D01*
X006020Y003499D02*
X006082Y003560D01*
X006205Y003560D01*
X006267Y003499D01*
X006267Y003252D01*
X006389Y003252D02*
X006389Y003190D01*
X006451Y003190D01*
X006451Y003252D01*
X006389Y003252D01*
X006389Y003375D02*
X006451Y003375D01*
X006451Y003437D01*
X006389Y003437D01*
X006389Y003375D01*
X006573Y003190D02*
X006819Y003190D01*
X006941Y003190D02*
X007188Y003190D01*
X007310Y003190D02*
X007372Y003190D01*
X007372Y003252D01*
X007310Y003252D01*
X007310Y003190D01*
X007493Y003190D02*
X007740Y003190D01*
X007493Y003437D01*
X007493Y003499D01*
X007555Y003560D01*
X007679Y003560D01*
X007740Y003499D01*
X007862Y003499D02*
X007923Y003560D01*
X008047Y003560D01*
X008109Y003499D01*
X008046Y003690D02*
X008108Y003752D01*
X008108Y003999D01*
X008170Y003937D02*
X008046Y003937D01*
X007924Y003875D02*
X007924Y003752D01*
X007863Y003690D01*
X007739Y003690D01*
X007678Y003813D02*
X007924Y003813D01*
X007924Y003875D02*
X007863Y003937D01*
X007739Y003937D01*
X007678Y003875D01*
X007678Y003813D01*
X007556Y003628D02*
X007309Y003628D01*
X007310Y003437D02*
X007310Y003375D01*
X007372Y003375D01*
X007372Y003437D01*
X007310Y003437D01*
X007188Y003437D02*
X007064Y003560D01*
X007064Y003190D01*
X006819Y003437D02*
X006696Y003560D01*
X006696Y003190D01*
X006696Y003690D02*
X006696Y004060D01*
X006819Y003937D01*
X006941Y003937D02*
X007064Y003690D01*
X007188Y003937D01*
X006819Y003690D02*
X006573Y003690D01*
X006451Y003690D02*
X006389Y003690D01*
X006389Y003752D01*
X006451Y003752D01*
X006451Y003690D01*
X006267Y003690D02*
X006020Y003690D01*
X006144Y003690D02*
X006144Y004060D01*
X006267Y003937D01*
X007862Y003499D02*
X007862Y003437D01*
X008109Y003190D01*
X007862Y003190D01*
X008353Y003690D02*
X008291Y003752D01*
X008291Y003875D01*
X008353Y003937D01*
X008477Y003937D01*
X008538Y003875D01*
X008538Y003752D01*
X008477Y003690D01*
X008353Y003690D01*
X008598Y003499D02*
X008660Y003560D01*
X008783Y003560D01*
X008845Y003499D01*
X008845Y003437D01*
X008783Y003375D01*
X008598Y003375D01*
X008598Y003252D02*
X008598Y003499D01*
X008660Y003690D02*
X008660Y003875D01*
X008721Y003937D01*
X008783Y003875D01*
X008783Y003690D01*
X008907Y003690D02*
X008907Y003937D01*
X008845Y003937D01*
X008783Y003875D01*
X009028Y003875D02*
X009028Y003813D01*
X009275Y003813D01*
X009275Y003752D02*
X009275Y003875D01*
X009213Y003937D01*
X009090Y003937D01*
X009028Y003875D01*
X009090Y003690D02*
X009213Y003690D01*
X009275Y003752D01*
X009397Y003937D02*
X009458Y003937D01*
X009582Y003813D01*
X009582Y003690D02*
X009582Y003937D01*
X009703Y003628D02*
X009950Y003628D01*
X009888Y003560D02*
X009765Y003560D01*
X009703Y003499D01*
X009703Y003437D01*
X009765Y003375D01*
X009888Y003375D01*
X009950Y003437D01*
X009950Y003499D01*
X009888Y003560D01*
X009888Y003375D02*
X009950Y003313D01*
X009950Y003252D01*
X009888Y003190D01*
X009765Y003190D01*
X009703Y003252D01*
X009703Y003313D01*
X009765Y003375D01*
X009582Y003375D02*
X009335Y003375D01*
X009213Y003499D02*
X009152Y003560D01*
X009028Y003560D01*
X008967Y003499D01*
X008967Y003437D01*
X009213Y003190D01*
X008967Y003190D01*
X008845Y003252D02*
X008783Y003190D01*
X008660Y003190D01*
X008598Y003252D01*
X010072Y003252D02*
X010133Y003190D01*
X010257Y003190D01*
X010318Y003252D01*
X010072Y003499D01*
X010072Y003252D01*
X010318Y003252D02*
X010318Y003499D01*
X010257Y003560D01*
X010133Y003560D01*
X010072Y003499D01*
X010133Y003690D02*
X010257Y003690D01*
X010318Y003752D01*
X010072Y003999D01*
X010072Y003752D01*
X010133Y003690D01*
X010318Y003752D02*
X010318Y003999D01*
X010257Y004060D01*
X010133Y004060D01*
X010072Y003999D01*
X010440Y003999D02*
X010687Y003752D01*
X010625Y003690D01*
X010502Y003690D01*
X010440Y003752D01*
X010440Y003999D01*
X010502Y004060D01*
X010625Y004060D01*
X010687Y003999D01*
X010687Y003752D01*
X010808Y003690D02*
X011055Y003690D01*
X010932Y003690D02*
X010932Y004060D01*
X011055Y003937D01*
X011176Y003999D02*
X011238Y004060D01*
X011362Y004060D01*
X011423Y003999D01*
X011423Y003752D01*
X011362Y003690D01*
X011238Y003690D01*
X011176Y003752D01*
X011300Y003560D02*
X011423Y003437D01*
X011545Y003499D02*
X011545Y003252D01*
X011607Y003190D01*
X011730Y003190D01*
X011792Y003252D01*
X011545Y003499D01*
X011607Y003560D01*
X011730Y003560D01*
X011792Y003499D01*
X011792Y003252D01*
X011913Y003190D02*
X012160Y003190D01*
X011913Y003437D01*
X011913Y003499D01*
X011975Y003560D01*
X012098Y003560D01*
X012160Y003499D01*
X012160Y003690D02*
X012160Y004060D01*
X011913Y004060D01*
X011792Y004060D02*
X011792Y003690D01*
X011545Y003690D01*
X011300Y003560D02*
X011300Y003190D01*
X011423Y003190D02*
X011176Y003190D01*
X011055Y003190D02*
X010808Y003437D01*
X010808Y003499D01*
X010870Y003560D01*
X010993Y003560D01*
X011055Y003499D01*
X011055Y003190D02*
X010808Y003190D01*
X010687Y003375D02*
X010440Y003375D01*
X012037Y003875D02*
X012160Y003875D01*
M02*
