G75*
G70*
%OFA0B0*%
%FSLAX24Y24*%
%IPPOS*%
%LPD*%
%AMOC8*
5,1,8,0,0,1.08239X$1,22.5*
%
%ADD10C,0.0000*%
%ADD11C,0.0060*%
%ADD12C,0.0040*%
%ADD13C,0.0150*%
%ADD14C,0.0020*%
%ADD15C,0.0050*%
%ADD16C,0.0080*%
%ADD17C,0.0100*%
D10*
X001675Y001175D02*
X001175Y001675D01*
X001175Y020175D01*
X001675Y020675D01*
X009675Y020675D01*
X010425Y019925D01*
X011175Y020675D01*
X019175Y020675D01*
X019675Y020175D01*
X019675Y001675D01*
X019175Y001175D01*
X011175Y001175D01*
X010425Y001925D01*
X009675Y001175D01*
X001675Y001175D01*
X001545Y002175D02*
X001547Y002225D01*
X001553Y002275D01*
X001563Y002324D01*
X001577Y002372D01*
X001594Y002419D01*
X001615Y002464D01*
X001640Y002508D01*
X001668Y002549D01*
X001700Y002588D01*
X001734Y002625D01*
X001771Y002659D01*
X001811Y002689D01*
X001853Y002716D01*
X001897Y002740D01*
X001943Y002761D01*
X001990Y002777D01*
X002038Y002790D01*
X002088Y002799D01*
X002137Y002804D01*
X002188Y002805D01*
X002238Y002802D01*
X002287Y002795D01*
X002336Y002784D01*
X002384Y002769D01*
X002430Y002751D01*
X002475Y002729D01*
X002518Y002703D01*
X002559Y002674D01*
X002598Y002642D01*
X002634Y002607D01*
X002666Y002569D01*
X002696Y002529D01*
X002723Y002486D01*
X002746Y002442D01*
X002765Y002396D01*
X002781Y002348D01*
X002793Y002299D01*
X002801Y002250D01*
X002805Y002200D01*
X002805Y002150D01*
X002801Y002100D01*
X002793Y002051D01*
X002781Y002002D01*
X002765Y001954D01*
X002746Y001908D01*
X002723Y001864D01*
X002696Y001821D01*
X002666Y001781D01*
X002634Y001743D01*
X002598Y001708D01*
X002559Y001676D01*
X002518Y001647D01*
X002475Y001621D01*
X002430Y001599D01*
X002384Y001581D01*
X002336Y001566D01*
X002287Y001555D01*
X002238Y001548D01*
X002188Y001545D01*
X002137Y001546D01*
X002088Y001551D01*
X002038Y001560D01*
X001990Y001573D01*
X001943Y001589D01*
X001897Y001610D01*
X001853Y001634D01*
X001811Y001661D01*
X001771Y001691D01*
X001734Y001725D01*
X001700Y001762D01*
X001668Y001801D01*
X001640Y001842D01*
X001615Y001886D01*
X001594Y001931D01*
X001577Y001978D01*
X001563Y002026D01*
X001553Y002075D01*
X001547Y002125D01*
X001545Y002175D01*
X008545Y002175D02*
X008547Y002225D01*
X008553Y002275D01*
X008563Y002324D01*
X008577Y002372D01*
X008594Y002419D01*
X008615Y002464D01*
X008640Y002508D01*
X008668Y002549D01*
X008700Y002588D01*
X008734Y002625D01*
X008771Y002659D01*
X008811Y002689D01*
X008853Y002716D01*
X008897Y002740D01*
X008943Y002761D01*
X008990Y002777D01*
X009038Y002790D01*
X009088Y002799D01*
X009137Y002804D01*
X009188Y002805D01*
X009238Y002802D01*
X009287Y002795D01*
X009336Y002784D01*
X009384Y002769D01*
X009430Y002751D01*
X009475Y002729D01*
X009518Y002703D01*
X009559Y002674D01*
X009598Y002642D01*
X009634Y002607D01*
X009666Y002569D01*
X009696Y002529D01*
X009723Y002486D01*
X009746Y002442D01*
X009765Y002396D01*
X009781Y002348D01*
X009793Y002299D01*
X009801Y002250D01*
X009805Y002200D01*
X009805Y002150D01*
X009801Y002100D01*
X009793Y002051D01*
X009781Y002002D01*
X009765Y001954D01*
X009746Y001908D01*
X009723Y001864D01*
X009696Y001821D01*
X009666Y001781D01*
X009634Y001743D01*
X009598Y001708D01*
X009559Y001676D01*
X009518Y001647D01*
X009475Y001621D01*
X009430Y001599D01*
X009384Y001581D01*
X009336Y001566D01*
X009287Y001555D01*
X009238Y001548D01*
X009188Y001545D01*
X009137Y001546D01*
X009088Y001551D01*
X009038Y001560D01*
X008990Y001573D01*
X008943Y001589D01*
X008897Y001610D01*
X008853Y001634D01*
X008811Y001661D01*
X008771Y001691D01*
X008734Y001725D01*
X008700Y001762D01*
X008668Y001801D01*
X008640Y001842D01*
X008615Y001886D01*
X008594Y001931D01*
X008577Y001978D01*
X008563Y002026D01*
X008553Y002075D01*
X008547Y002125D01*
X008545Y002175D01*
X011045Y002175D02*
X011047Y002225D01*
X011053Y002275D01*
X011063Y002324D01*
X011077Y002372D01*
X011094Y002419D01*
X011115Y002464D01*
X011140Y002508D01*
X011168Y002549D01*
X011200Y002588D01*
X011234Y002625D01*
X011271Y002659D01*
X011311Y002689D01*
X011353Y002716D01*
X011397Y002740D01*
X011443Y002761D01*
X011490Y002777D01*
X011538Y002790D01*
X011588Y002799D01*
X011637Y002804D01*
X011688Y002805D01*
X011738Y002802D01*
X011787Y002795D01*
X011836Y002784D01*
X011884Y002769D01*
X011930Y002751D01*
X011975Y002729D01*
X012018Y002703D01*
X012059Y002674D01*
X012098Y002642D01*
X012134Y002607D01*
X012166Y002569D01*
X012196Y002529D01*
X012223Y002486D01*
X012246Y002442D01*
X012265Y002396D01*
X012281Y002348D01*
X012293Y002299D01*
X012301Y002250D01*
X012305Y002200D01*
X012305Y002150D01*
X012301Y002100D01*
X012293Y002051D01*
X012281Y002002D01*
X012265Y001954D01*
X012246Y001908D01*
X012223Y001864D01*
X012196Y001821D01*
X012166Y001781D01*
X012134Y001743D01*
X012098Y001708D01*
X012059Y001676D01*
X012018Y001647D01*
X011975Y001621D01*
X011930Y001599D01*
X011884Y001581D01*
X011836Y001566D01*
X011787Y001555D01*
X011738Y001548D01*
X011688Y001545D01*
X011637Y001546D01*
X011588Y001551D01*
X011538Y001560D01*
X011490Y001573D01*
X011443Y001589D01*
X011397Y001610D01*
X011353Y001634D01*
X011311Y001661D01*
X011271Y001691D01*
X011234Y001725D01*
X011200Y001762D01*
X011168Y001801D01*
X011140Y001842D01*
X011115Y001886D01*
X011094Y001931D01*
X011077Y001978D01*
X011063Y002026D01*
X011053Y002075D01*
X011047Y002125D01*
X011045Y002175D01*
X018045Y002175D02*
X018047Y002225D01*
X018053Y002275D01*
X018063Y002324D01*
X018077Y002372D01*
X018094Y002419D01*
X018115Y002464D01*
X018140Y002508D01*
X018168Y002549D01*
X018200Y002588D01*
X018234Y002625D01*
X018271Y002659D01*
X018311Y002689D01*
X018353Y002716D01*
X018397Y002740D01*
X018443Y002761D01*
X018490Y002777D01*
X018538Y002790D01*
X018588Y002799D01*
X018637Y002804D01*
X018688Y002805D01*
X018738Y002802D01*
X018787Y002795D01*
X018836Y002784D01*
X018884Y002769D01*
X018930Y002751D01*
X018975Y002729D01*
X019018Y002703D01*
X019059Y002674D01*
X019098Y002642D01*
X019134Y002607D01*
X019166Y002569D01*
X019196Y002529D01*
X019223Y002486D01*
X019246Y002442D01*
X019265Y002396D01*
X019281Y002348D01*
X019293Y002299D01*
X019301Y002250D01*
X019305Y002200D01*
X019305Y002150D01*
X019301Y002100D01*
X019293Y002051D01*
X019281Y002002D01*
X019265Y001954D01*
X019246Y001908D01*
X019223Y001864D01*
X019196Y001821D01*
X019166Y001781D01*
X019134Y001743D01*
X019098Y001708D01*
X019059Y001676D01*
X019018Y001647D01*
X018975Y001621D01*
X018930Y001599D01*
X018884Y001581D01*
X018836Y001566D01*
X018787Y001555D01*
X018738Y001548D01*
X018688Y001545D01*
X018637Y001546D01*
X018588Y001551D01*
X018538Y001560D01*
X018490Y001573D01*
X018443Y001589D01*
X018397Y001610D01*
X018353Y001634D01*
X018311Y001661D01*
X018271Y001691D01*
X018234Y001725D01*
X018200Y001762D01*
X018168Y001801D01*
X018140Y001842D01*
X018115Y001886D01*
X018094Y001931D01*
X018077Y001978D01*
X018063Y002026D01*
X018053Y002075D01*
X018047Y002125D01*
X018045Y002175D01*
X018045Y012675D02*
X018047Y012725D01*
X018053Y012775D01*
X018063Y012824D01*
X018077Y012872D01*
X018094Y012919D01*
X018115Y012964D01*
X018140Y013008D01*
X018168Y013049D01*
X018200Y013088D01*
X018234Y013125D01*
X018271Y013159D01*
X018311Y013189D01*
X018353Y013216D01*
X018397Y013240D01*
X018443Y013261D01*
X018490Y013277D01*
X018538Y013290D01*
X018588Y013299D01*
X018637Y013304D01*
X018688Y013305D01*
X018738Y013302D01*
X018787Y013295D01*
X018836Y013284D01*
X018884Y013269D01*
X018930Y013251D01*
X018975Y013229D01*
X019018Y013203D01*
X019059Y013174D01*
X019098Y013142D01*
X019134Y013107D01*
X019166Y013069D01*
X019196Y013029D01*
X019223Y012986D01*
X019246Y012942D01*
X019265Y012896D01*
X019281Y012848D01*
X019293Y012799D01*
X019301Y012750D01*
X019305Y012700D01*
X019305Y012650D01*
X019301Y012600D01*
X019293Y012551D01*
X019281Y012502D01*
X019265Y012454D01*
X019246Y012408D01*
X019223Y012364D01*
X019196Y012321D01*
X019166Y012281D01*
X019134Y012243D01*
X019098Y012208D01*
X019059Y012176D01*
X019018Y012147D01*
X018975Y012121D01*
X018930Y012099D01*
X018884Y012081D01*
X018836Y012066D01*
X018787Y012055D01*
X018738Y012048D01*
X018688Y012045D01*
X018637Y012046D01*
X018588Y012051D01*
X018538Y012060D01*
X018490Y012073D01*
X018443Y012089D01*
X018397Y012110D01*
X018353Y012134D01*
X018311Y012161D01*
X018271Y012191D01*
X018234Y012225D01*
X018200Y012262D01*
X018168Y012301D01*
X018140Y012342D01*
X018115Y012386D01*
X018094Y012431D01*
X018077Y012478D01*
X018063Y012526D01*
X018053Y012575D01*
X018047Y012625D01*
X018045Y012675D01*
X011045Y012675D02*
X011047Y012725D01*
X011053Y012775D01*
X011063Y012824D01*
X011077Y012872D01*
X011094Y012919D01*
X011115Y012964D01*
X011140Y013008D01*
X011168Y013049D01*
X011200Y013088D01*
X011234Y013125D01*
X011271Y013159D01*
X011311Y013189D01*
X011353Y013216D01*
X011397Y013240D01*
X011443Y013261D01*
X011490Y013277D01*
X011538Y013290D01*
X011588Y013299D01*
X011637Y013304D01*
X011688Y013305D01*
X011738Y013302D01*
X011787Y013295D01*
X011836Y013284D01*
X011884Y013269D01*
X011930Y013251D01*
X011975Y013229D01*
X012018Y013203D01*
X012059Y013174D01*
X012098Y013142D01*
X012134Y013107D01*
X012166Y013069D01*
X012196Y013029D01*
X012223Y012986D01*
X012246Y012942D01*
X012265Y012896D01*
X012281Y012848D01*
X012293Y012799D01*
X012301Y012750D01*
X012305Y012700D01*
X012305Y012650D01*
X012301Y012600D01*
X012293Y012551D01*
X012281Y012502D01*
X012265Y012454D01*
X012246Y012408D01*
X012223Y012364D01*
X012196Y012321D01*
X012166Y012281D01*
X012134Y012243D01*
X012098Y012208D01*
X012059Y012176D01*
X012018Y012147D01*
X011975Y012121D01*
X011930Y012099D01*
X011884Y012081D01*
X011836Y012066D01*
X011787Y012055D01*
X011738Y012048D01*
X011688Y012045D01*
X011637Y012046D01*
X011588Y012051D01*
X011538Y012060D01*
X011490Y012073D01*
X011443Y012089D01*
X011397Y012110D01*
X011353Y012134D01*
X011311Y012161D01*
X011271Y012191D01*
X011234Y012225D01*
X011200Y012262D01*
X011168Y012301D01*
X011140Y012342D01*
X011115Y012386D01*
X011094Y012431D01*
X011077Y012478D01*
X011063Y012526D01*
X011053Y012575D01*
X011047Y012625D01*
X011045Y012675D01*
X008545Y012675D02*
X008547Y012725D01*
X008553Y012775D01*
X008563Y012824D01*
X008577Y012872D01*
X008594Y012919D01*
X008615Y012964D01*
X008640Y013008D01*
X008668Y013049D01*
X008700Y013088D01*
X008734Y013125D01*
X008771Y013159D01*
X008811Y013189D01*
X008853Y013216D01*
X008897Y013240D01*
X008943Y013261D01*
X008990Y013277D01*
X009038Y013290D01*
X009088Y013299D01*
X009137Y013304D01*
X009188Y013305D01*
X009238Y013302D01*
X009287Y013295D01*
X009336Y013284D01*
X009384Y013269D01*
X009430Y013251D01*
X009475Y013229D01*
X009518Y013203D01*
X009559Y013174D01*
X009598Y013142D01*
X009634Y013107D01*
X009666Y013069D01*
X009696Y013029D01*
X009723Y012986D01*
X009746Y012942D01*
X009765Y012896D01*
X009781Y012848D01*
X009793Y012799D01*
X009801Y012750D01*
X009805Y012700D01*
X009805Y012650D01*
X009801Y012600D01*
X009793Y012551D01*
X009781Y012502D01*
X009765Y012454D01*
X009746Y012408D01*
X009723Y012364D01*
X009696Y012321D01*
X009666Y012281D01*
X009634Y012243D01*
X009598Y012208D01*
X009559Y012176D01*
X009518Y012147D01*
X009475Y012121D01*
X009430Y012099D01*
X009384Y012081D01*
X009336Y012066D01*
X009287Y012055D01*
X009238Y012048D01*
X009188Y012045D01*
X009137Y012046D01*
X009088Y012051D01*
X009038Y012060D01*
X008990Y012073D01*
X008943Y012089D01*
X008897Y012110D01*
X008853Y012134D01*
X008811Y012161D01*
X008771Y012191D01*
X008734Y012225D01*
X008700Y012262D01*
X008668Y012301D01*
X008640Y012342D01*
X008615Y012386D01*
X008594Y012431D01*
X008577Y012478D01*
X008563Y012526D01*
X008553Y012575D01*
X008547Y012625D01*
X008545Y012675D01*
X001545Y012675D02*
X001547Y012725D01*
X001553Y012775D01*
X001563Y012824D01*
X001577Y012872D01*
X001594Y012919D01*
X001615Y012964D01*
X001640Y013008D01*
X001668Y013049D01*
X001700Y013088D01*
X001734Y013125D01*
X001771Y013159D01*
X001811Y013189D01*
X001853Y013216D01*
X001897Y013240D01*
X001943Y013261D01*
X001990Y013277D01*
X002038Y013290D01*
X002088Y013299D01*
X002137Y013304D01*
X002188Y013305D01*
X002238Y013302D01*
X002287Y013295D01*
X002336Y013284D01*
X002384Y013269D01*
X002430Y013251D01*
X002475Y013229D01*
X002518Y013203D01*
X002559Y013174D01*
X002598Y013142D01*
X002634Y013107D01*
X002666Y013069D01*
X002696Y013029D01*
X002723Y012986D01*
X002746Y012942D01*
X002765Y012896D01*
X002781Y012848D01*
X002793Y012799D01*
X002801Y012750D01*
X002805Y012700D01*
X002805Y012650D01*
X002801Y012600D01*
X002793Y012551D01*
X002781Y012502D01*
X002765Y012454D01*
X002746Y012408D01*
X002723Y012364D01*
X002696Y012321D01*
X002666Y012281D01*
X002634Y012243D01*
X002598Y012208D01*
X002559Y012176D01*
X002518Y012147D01*
X002475Y012121D01*
X002430Y012099D01*
X002384Y012081D01*
X002336Y012066D01*
X002287Y012055D01*
X002238Y012048D01*
X002188Y012045D01*
X002137Y012046D01*
X002088Y012051D01*
X002038Y012060D01*
X001990Y012073D01*
X001943Y012089D01*
X001897Y012110D01*
X001853Y012134D01*
X001811Y012161D01*
X001771Y012191D01*
X001734Y012225D01*
X001700Y012262D01*
X001668Y012301D01*
X001640Y012342D01*
X001615Y012386D01*
X001594Y012431D01*
X001577Y012478D01*
X001563Y012526D01*
X001553Y012575D01*
X001547Y012625D01*
X001545Y012675D01*
X001545Y019675D02*
X001547Y019725D01*
X001553Y019775D01*
X001563Y019824D01*
X001577Y019872D01*
X001594Y019919D01*
X001615Y019964D01*
X001640Y020008D01*
X001668Y020049D01*
X001700Y020088D01*
X001734Y020125D01*
X001771Y020159D01*
X001811Y020189D01*
X001853Y020216D01*
X001897Y020240D01*
X001943Y020261D01*
X001990Y020277D01*
X002038Y020290D01*
X002088Y020299D01*
X002137Y020304D01*
X002188Y020305D01*
X002238Y020302D01*
X002287Y020295D01*
X002336Y020284D01*
X002384Y020269D01*
X002430Y020251D01*
X002475Y020229D01*
X002518Y020203D01*
X002559Y020174D01*
X002598Y020142D01*
X002634Y020107D01*
X002666Y020069D01*
X002696Y020029D01*
X002723Y019986D01*
X002746Y019942D01*
X002765Y019896D01*
X002781Y019848D01*
X002793Y019799D01*
X002801Y019750D01*
X002805Y019700D01*
X002805Y019650D01*
X002801Y019600D01*
X002793Y019551D01*
X002781Y019502D01*
X002765Y019454D01*
X002746Y019408D01*
X002723Y019364D01*
X002696Y019321D01*
X002666Y019281D01*
X002634Y019243D01*
X002598Y019208D01*
X002559Y019176D01*
X002518Y019147D01*
X002475Y019121D01*
X002430Y019099D01*
X002384Y019081D01*
X002336Y019066D01*
X002287Y019055D01*
X002238Y019048D01*
X002188Y019045D01*
X002137Y019046D01*
X002088Y019051D01*
X002038Y019060D01*
X001990Y019073D01*
X001943Y019089D01*
X001897Y019110D01*
X001853Y019134D01*
X001811Y019161D01*
X001771Y019191D01*
X001734Y019225D01*
X001700Y019262D01*
X001668Y019301D01*
X001640Y019342D01*
X001615Y019386D01*
X001594Y019431D01*
X001577Y019478D01*
X001563Y019526D01*
X001553Y019575D01*
X001547Y019625D01*
X001545Y019675D01*
X008545Y019675D02*
X008547Y019725D01*
X008553Y019775D01*
X008563Y019824D01*
X008577Y019872D01*
X008594Y019919D01*
X008615Y019964D01*
X008640Y020008D01*
X008668Y020049D01*
X008700Y020088D01*
X008734Y020125D01*
X008771Y020159D01*
X008811Y020189D01*
X008853Y020216D01*
X008897Y020240D01*
X008943Y020261D01*
X008990Y020277D01*
X009038Y020290D01*
X009088Y020299D01*
X009137Y020304D01*
X009188Y020305D01*
X009238Y020302D01*
X009287Y020295D01*
X009336Y020284D01*
X009384Y020269D01*
X009430Y020251D01*
X009475Y020229D01*
X009518Y020203D01*
X009559Y020174D01*
X009598Y020142D01*
X009634Y020107D01*
X009666Y020069D01*
X009696Y020029D01*
X009723Y019986D01*
X009746Y019942D01*
X009765Y019896D01*
X009781Y019848D01*
X009793Y019799D01*
X009801Y019750D01*
X009805Y019700D01*
X009805Y019650D01*
X009801Y019600D01*
X009793Y019551D01*
X009781Y019502D01*
X009765Y019454D01*
X009746Y019408D01*
X009723Y019364D01*
X009696Y019321D01*
X009666Y019281D01*
X009634Y019243D01*
X009598Y019208D01*
X009559Y019176D01*
X009518Y019147D01*
X009475Y019121D01*
X009430Y019099D01*
X009384Y019081D01*
X009336Y019066D01*
X009287Y019055D01*
X009238Y019048D01*
X009188Y019045D01*
X009137Y019046D01*
X009088Y019051D01*
X009038Y019060D01*
X008990Y019073D01*
X008943Y019089D01*
X008897Y019110D01*
X008853Y019134D01*
X008811Y019161D01*
X008771Y019191D01*
X008734Y019225D01*
X008700Y019262D01*
X008668Y019301D01*
X008640Y019342D01*
X008615Y019386D01*
X008594Y019431D01*
X008577Y019478D01*
X008563Y019526D01*
X008553Y019575D01*
X008547Y019625D01*
X008545Y019675D01*
X011045Y019675D02*
X011047Y019725D01*
X011053Y019775D01*
X011063Y019824D01*
X011077Y019872D01*
X011094Y019919D01*
X011115Y019964D01*
X011140Y020008D01*
X011168Y020049D01*
X011200Y020088D01*
X011234Y020125D01*
X011271Y020159D01*
X011311Y020189D01*
X011353Y020216D01*
X011397Y020240D01*
X011443Y020261D01*
X011490Y020277D01*
X011538Y020290D01*
X011588Y020299D01*
X011637Y020304D01*
X011688Y020305D01*
X011738Y020302D01*
X011787Y020295D01*
X011836Y020284D01*
X011884Y020269D01*
X011930Y020251D01*
X011975Y020229D01*
X012018Y020203D01*
X012059Y020174D01*
X012098Y020142D01*
X012134Y020107D01*
X012166Y020069D01*
X012196Y020029D01*
X012223Y019986D01*
X012246Y019942D01*
X012265Y019896D01*
X012281Y019848D01*
X012293Y019799D01*
X012301Y019750D01*
X012305Y019700D01*
X012305Y019650D01*
X012301Y019600D01*
X012293Y019551D01*
X012281Y019502D01*
X012265Y019454D01*
X012246Y019408D01*
X012223Y019364D01*
X012196Y019321D01*
X012166Y019281D01*
X012134Y019243D01*
X012098Y019208D01*
X012059Y019176D01*
X012018Y019147D01*
X011975Y019121D01*
X011930Y019099D01*
X011884Y019081D01*
X011836Y019066D01*
X011787Y019055D01*
X011738Y019048D01*
X011688Y019045D01*
X011637Y019046D01*
X011588Y019051D01*
X011538Y019060D01*
X011490Y019073D01*
X011443Y019089D01*
X011397Y019110D01*
X011353Y019134D01*
X011311Y019161D01*
X011271Y019191D01*
X011234Y019225D01*
X011200Y019262D01*
X011168Y019301D01*
X011140Y019342D01*
X011115Y019386D01*
X011094Y019431D01*
X011077Y019478D01*
X011063Y019526D01*
X011053Y019575D01*
X011047Y019625D01*
X011045Y019675D01*
X018045Y019675D02*
X018047Y019725D01*
X018053Y019775D01*
X018063Y019824D01*
X018077Y019872D01*
X018094Y019919D01*
X018115Y019964D01*
X018140Y020008D01*
X018168Y020049D01*
X018200Y020088D01*
X018234Y020125D01*
X018271Y020159D01*
X018311Y020189D01*
X018353Y020216D01*
X018397Y020240D01*
X018443Y020261D01*
X018490Y020277D01*
X018538Y020290D01*
X018588Y020299D01*
X018637Y020304D01*
X018688Y020305D01*
X018738Y020302D01*
X018787Y020295D01*
X018836Y020284D01*
X018884Y020269D01*
X018930Y020251D01*
X018975Y020229D01*
X019018Y020203D01*
X019059Y020174D01*
X019098Y020142D01*
X019134Y020107D01*
X019166Y020069D01*
X019196Y020029D01*
X019223Y019986D01*
X019246Y019942D01*
X019265Y019896D01*
X019281Y019848D01*
X019293Y019799D01*
X019301Y019750D01*
X019305Y019700D01*
X019305Y019650D01*
X019301Y019600D01*
X019293Y019551D01*
X019281Y019502D01*
X019265Y019454D01*
X019246Y019408D01*
X019223Y019364D01*
X019196Y019321D01*
X019166Y019281D01*
X019134Y019243D01*
X019098Y019208D01*
X019059Y019176D01*
X019018Y019147D01*
X018975Y019121D01*
X018930Y019099D01*
X018884Y019081D01*
X018836Y019066D01*
X018787Y019055D01*
X018738Y019048D01*
X018688Y019045D01*
X018637Y019046D01*
X018588Y019051D01*
X018538Y019060D01*
X018490Y019073D01*
X018443Y019089D01*
X018397Y019110D01*
X018353Y019134D01*
X018311Y019161D01*
X018271Y019191D01*
X018234Y019225D01*
X018200Y019262D01*
X018168Y019301D01*
X018140Y019342D01*
X018115Y019386D01*
X018094Y019431D01*
X018077Y019478D01*
X018063Y019526D01*
X018053Y019575D01*
X018047Y019625D01*
X018045Y019675D01*
D11*
X017175Y012925D02*
X017175Y012354D01*
X017175Y011960D02*
X017175Y011390D01*
X017175Y010996D02*
X017175Y010425D01*
X017425Y009675D02*
X018925Y009675D01*
X019175Y009425D01*
X019175Y008925D01*
X018925Y008675D01*
X017425Y008675D01*
X017175Y008925D01*
X017175Y009425D01*
X017425Y009675D01*
X017425Y008675D02*
X017175Y008425D01*
X017175Y007925D01*
X017425Y007675D01*
X018925Y007675D01*
X019175Y007925D01*
X019175Y008425D01*
X018925Y008675D01*
X018925Y007675D02*
X019175Y007425D01*
X019175Y006925D01*
X018925Y006675D01*
X017425Y006675D01*
X017175Y006925D01*
X017175Y007425D01*
X017425Y007675D01*
X016925Y008175D02*
X016925Y005475D01*
X016525Y005475D01*
X016425Y005475D01*
X016425Y007675D01*
X013925Y007675D01*
X013925Y001675D01*
X016425Y001675D01*
X016425Y003875D01*
X016525Y003875D01*
X016925Y003875D01*
X016925Y003175D01*
X016875Y003175D01*
X016875Y002675D01*
X016925Y002675D01*
X016925Y001175D01*
X013425Y001175D01*
X013425Y001675D01*
X013325Y001675D01*
X013325Y002175D01*
X013425Y002175D01*
X013425Y004425D01*
X013325Y004425D01*
X013325Y004925D01*
X013425Y004925D01*
X013425Y007175D01*
X013325Y007175D01*
X013325Y007675D01*
X013425Y007675D01*
X013425Y008175D01*
X016925Y008175D01*
X017425Y006175D02*
X018925Y006175D01*
X019175Y005925D01*
X019175Y005425D01*
X018925Y005175D01*
X017425Y005175D01*
X017175Y004925D01*
X017175Y004425D01*
X017425Y004175D01*
X017175Y003925D01*
X017175Y003425D01*
X017425Y003175D01*
X018925Y003175D01*
X019175Y003425D01*
X019175Y003925D01*
X018925Y004175D01*
X017425Y004175D01*
X016925Y003875D02*
X016925Y005475D01*
X017175Y005425D02*
X017175Y005925D01*
X017425Y006175D01*
X017175Y005425D02*
X017425Y005175D01*
X016425Y005475D02*
X016125Y005475D01*
X016125Y003875D01*
X016425Y003875D01*
X018925Y004175D02*
X019175Y004425D01*
X019175Y004925D01*
X018925Y005175D01*
X013175Y010425D02*
X013175Y010996D01*
X013175Y011390D02*
X013175Y011960D01*
X013175Y012354D02*
X013175Y012925D01*
X006925Y008675D02*
X006925Y005975D01*
X006525Y005975D01*
X006425Y005975D01*
X006425Y008175D01*
X003925Y008175D01*
X003925Y002175D01*
X006425Y002175D01*
X006425Y004375D01*
X006525Y004375D01*
X006925Y004375D01*
X006925Y003675D01*
X006875Y003675D01*
X006875Y003175D01*
X006925Y003175D01*
X006925Y001675D01*
X003425Y001675D01*
X003425Y002175D01*
X003325Y002175D01*
X003325Y002675D01*
X003425Y002675D01*
X003425Y004925D01*
X003325Y004925D01*
X003325Y005425D01*
X003425Y005425D01*
X003425Y007675D01*
X003325Y007675D01*
X003325Y008175D01*
X003425Y008175D01*
X003425Y008675D01*
X006925Y008675D01*
X007925Y006175D02*
X009425Y006175D01*
X009675Y005925D01*
X009675Y005425D01*
X009425Y005175D01*
X007925Y005175D01*
X007675Y005425D01*
X007675Y005925D01*
X007925Y006175D01*
X007925Y005175D02*
X007675Y004925D01*
X007675Y004425D01*
X007925Y004175D01*
X009425Y004175D01*
X009675Y004425D01*
X009675Y004925D01*
X009425Y005175D01*
X009425Y004175D02*
X009675Y003925D01*
X009675Y003425D01*
X009425Y003175D01*
X007925Y003175D01*
X007675Y003425D01*
X007675Y003925D01*
X007925Y004175D01*
X006925Y004375D02*
X006925Y005975D01*
X006425Y005975D02*
X006125Y005975D01*
X006125Y004375D01*
X006425Y004375D01*
X002145Y004419D02*
X001705Y004419D01*
X001851Y004273D01*
X001705Y004126D01*
X002145Y004126D01*
X002072Y003959D02*
X002145Y003886D01*
X002145Y003739D01*
X002072Y003665D01*
X001705Y003665D01*
X001705Y003499D02*
X002145Y003499D01*
X001925Y003499D02*
X001925Y003205D01*
X002145Y003205D02*
X001705Y003205D01*
X001705Y003959D02*
X002072Y003959D01*
X002145Y004586D02*
X002145Y004733D01*
X002145Y004660D02*
X001705Y004660D01*
X001705Y004733D02*
X001705Y004586D01*
X001705Y004893D02*
X001705Y005113D01*
X001778Y005187D01*
X002072Y005187D01*
X002145Y005113D01*
X002145Y004893D01*
X001705Y004893D01*
X001705Y005353D02*
X001705Y005500D01*
X001705Y005427D02*
X002145Y005427D01*
X002145Y005500D02*
X002145Y005353D01*
X002145Y005807D02*
X001705Y005807D01*
X001705Y005660D02*
X001705Y005954D01*
X001705Y006121D02*
X001778Y006121D01*
X001925Y006268D01*
X002145Y006268D01*
X001925Y006268D02*
X001778Y006414D01*
X001705Y006414D01*
X001778Y007042D02*
X001851Y007042D01*
X001925Y007115D01*
X001925Y007262D01*
X001998Y007335D01*
X002072Y007335D01*
X002145Y007262D01*
X002145Y007115D01*
X002072Y007042D01*
X001778Y007042D02*
X001705Y007115D01*
X001705Y007262D01*
X001778Y007335D01*
X001705Y007502D02*
X002145Y007502D01*
X002145Y007796D01*
X002145Y007962D02*
X001705Y007962D01*
X002145Y008256D01*
X001705Y008256D01*
X001778Y008423D02*
X001851Y008423D01*
X001925Y008496D01*
X001925Y008643D01*
X001998Y008716D01*
X002072Y008716D01*
X002145Y008643D01*
X002145Y008496D01*
X002072Y008423D01*
X001778Y008423D02*
X001705Y008496D01*
X001705Y008643D01*
X001778Y008716D01*
X001778Y008883D02*
X002072Y008883D01*
X002145Y008957D01*
X002145Y009103D01*
X002072Y009177D01*
X001778Y009177D01*
X001705Y009103D01*
X001705Y008957D01*
X001778Y008883D01*
X001705Y009344D02*
X001705Y009564D01*
X001778Y009637D01*
X001925Y009637D01*
X001998Y009564D01*
X001998Y009344D01*
X001998Y009490D02*
X002145Y009637D01*
X002145Y009344D02*
X001705Y009344D01*
X001851Y010264D02*
X002145Y010411D01*
X001851Y010558D01*
X001851Y010725D02*
X001705Y010872D01*
X002145Y010872D01*
X002145Y011018D02*
X002145Y010725D01*
X002145Y011185D02*
X002072Y011185D01*
X002072Y011259D01*
X002145Y011259D01*
X002145Y011185D01*
X002072Y011415D02*
X001778Y011709D01*
X002072Y011709D01*
X002145Y011636D01*
X002145Y011489D01*
X002072Y011415D01*
X001778Y011415D01*
X001705Y011489D01*
X001705Y011636D01*
X001778Y011709D01*
X001705Y007796D02*
X001705Y007502D01*
X001925Y007502D02*
X001925Y007649D01*
D12*
X002795Y007746D02*
X002795Y007505D01*
X003155Y007505D01*
X003155Y007746D01*
X003155Y007874D02*
X003155Y008114D01*
X003155Y008242D02*
X003155Y008422D01*
X003095Y008482D01*
X002855Y008482D01*
X002795Y008422D01*
X002795Y008242D01*
X003155Y008242D01*
X003155Y007874D02*
X002795Y007874D01*
X002975Y007625D02*
X002975Y007505D01*
X003155Y007380D02*
X003155Y007260D01*
X003155Y007320D02*
X002795Y007320D01*
X002795Y007260D02*
X002795Y007380D01*
X002795Y007132D02*
X003155Y007132D01*
X002975Y007132D02*
X002975Y006892D01*
X003035Y006763D02*
X003095Y006763D01*
X003155Y006703D01*
X003155Y006583D01*
X003095Y006523D01*
X002975Y006583D02*
X002975Y006703D01*
X003035Y006763D01*
X003155Y006892D02*
X002795Y006892D01*
X002855Y006763D02*
X002795Y006703D01*
X002795Y006583D01*
X002855Y006523D01*
X002915Y006523D01*
X002975Y006583D01*
X002855Y006027D02*
X003095Y006027D01*
X003155Y005967D01*
X003155Y005847D01*
X003095Y005787D01*
X002855Y006027D01*
X002795Y005967D01*
X002795Y005847D01*
X002855Y005787D01*
X003095Y005787D01*
X003095Y005658D02*
X002855Y005658D01*
X003095Y005418D01*
X003155Y005478D01*
X003155Y005598D01*
X003095Y005658D01*
X003095Y005418D02*
X002855Y005418D01*
X002795Y005478D01*
X002795Y005598D01*
X002855Y005658D01*
X003155Y005290D02*
X003155Y005050D01*
X003155Y005170D02*
X002795Y005170D01*
X002915Y005050D01*
X002855Y004922D02*
X002795Y004862D01*
X002795Y004742D01*
X002855Y004682D01*
X003095Y004682D01*
X003155Y004742D01*
X003155Y004862D01*
X003095Y004922D01*
X003155Y004554D02*
X003155Y004313D01*
X002795Y004313D01*
X002795Y004185D02*
X002795Y003945D01*
X003155Y003945D01*
X002975Y003945D02*
X002975Y004065D01*
X003155Y003304D02*
X003155Y003063D01*
X003155Y003183D02*
X002795Y003183D01*
X002915Y003063D01*
X002795Y002935D02*
X003155Y002695D01*
X003155Y002935D02*
X002795Y002695D01*
X007445Y002505D02*
X007505Y002445D01*
X007565Y002445D01*
X007625Y002505D01*
X007625Y002805D01*
X007565Y002805D02*
X007685Y002805D01*
X007813Y002805D02*
X007813Y002445D01*
X007813Y002565D02*
X007993Y002565D01*
X008054Y002625D01*
X008054Y002745D01*
X007993Y002805D01*
X007813Y002805D01*
X008182Y002685D02*
X008302Y002805D01*
X008302Y002445D01*
X008182Y002445D02*
X008422Y002445D01*
X008362Y002305D02*
X008242Y002305D01*
X008182Y002245D01*
X008182Y002005D01*
X008242Y001945D01*
X008362Y001945D01*
X008422Y002005D01*
X008422Y002245D02*
X008362Y002305D01*
X008054Y002245D02*
X007993Y002305D01*
X007873Y002305D01*
X007813Y002245D01*
X007813Y002005D01*
X007873Y001945D01*
X007993Y001945D01*
X008054Y002005D01*
X007685Y002065D02*
X007565Y001945D01*
X007445Y002065D01*
X007445Y002305D01*
X007685Y002305D02*
X007685Y002065D01*
X011125Y003242D02*
X011171Y003195D01*
X011358Y003195D01*
X011405Y003242D01*
X011405Y003335D01*
X011358Y003382D01*
X011405Y003490D02*
X011405Y003676D01*
X011358Y003784D02*
X011171Y003784D01*
X011125Y003831D01*
X011125Y003924D01*
X011171Y003971D01*
X011358Y003971D01*
X011405Y003924D01*
X011405Y003831D01*
X011358Y003784D01*
X011358Y004079D02*
X011125Y004079D01*
X011125Y004266D02*
X011358Y004266D01*
X011405Y004219D01*
X011405Y004126D01*
X011358Y004079D01*
X011405Y004374D02*
X011125Y004374D01*
X011125Y004514D01*
X011171Y004560D01*
X011358Y004560D01*
X011405Y004514D01*
X011405Y004374D01*
X011358Y004963D02*
X011405Y005010D01*
X011405Y005103D01*
X011358Y005150D01*
X011312Y005150D01*
X011265Y005103D01*
X011265Y005010D01*
X011218Y004963D01*
X011171Y004963D01*
X011125Y005010D01*
X011125Y005103D01*
X011171Y005150D01*
X011125Y005258D02*
X011405Y005258D01*
X011405Y005444D01*
X011405Y005552D02*
X011125Y005552D01*
X011405Y005739D01*
X011125Y005739D01*
X011171Y005847D02*
X011218Y005847D01*
X011265Y005894D01*
X011265Y005987D01*
X011312Y006034D01*
X011358Y006034D01*
X011405Y005987D01*
X011405Y005894D01*
X011358Y005847D01*
X011171Y005847D02*
X011125Y005894D01*
X011125Y005987D01*
X011171Y006034D01*
X011171Y006142D02*
X011358Y006142D01*
X011405Y006188D01*
X011405Y006282D01*
X011358Y006328D01*
X011171Y006328D01*
X011125Y006282D01*
X011125Y006188D01*
X011171Y006142D01*
X011125Y006436D02*
X011125Y006576D01*
X011171Y006623D01*
X011265Y006623D01*
X011312Y006576D01*
X011312Y006436D01*
X011405Y006436D02*
X011125Y006436D01*
X011312Y006530D02*
X011405Y006623D01*
X011218Y007025D02*
X011405Y007119D01*
X011218Y007212D01*
X011218Y007320D02*
X011125Y007414D01*
X011405Y007414D01*
X011405Y007507D02*
X011405Y007320D01*
X011405Y007615D02*
X011405Y007661D01*
X011358Y007661D01*
X011358Y007615D01*
X011405Y007615D01*
X011358Y007762D02*
X011171Y007762D01*
X011125Y007809D01*
X011125Y007902D01*
X011171Y007949D01*
X011358Y007762D01*
X011405Y007809D01*
X011405Y007902D01*
X011358Y007949D01*
X011171Y007949D01*
X012795Y007844D02*
X012795Y007664D01*
X013155Y007664D01*
X013155Y007844D01*
X013095Y007904D01*
X012855Y007904D01*
X012795Y007844D01*
X013155Y007536D02*
X013155Y007295D01*
X012795Y007295D01*
X012795Y007167D02*
X012795Y006927D01*
X013155Y006927D01*
X013155Y007167D01*
X012975Y007047D02*
X012975Y006927D01*
X013155Y006802D02*
X013155Y006682D01*
X013155Y006742D02*
X012795Y006742D01*
X012795Y006682D02*
X012795Y006802D01*
X012795Y006554D02*
X013155Y006554D01*
X012975Y006554D02*
X012975Y006313D01*
X013035Y006185D02*
X013095Y006185D01*
X013155Y006125D01*
X013155Y006005D01*
X013095Y005945D01*
X012975Y006005D02*
X012975Y006125D01*
X013035Y006185D01*
X013155Y006313D02*
X012795Y006313D01*
X012855Y006185D02*
X012795Y006125D01*
X012795Y006005D01*
X012855Y005945D01*
X012915Y005945D01*
X012975Y006005D01*
X012355Y005685D02*
X011995Y005685D01*
X012115Y005565D01*
X011995Y005445D01*
X012355Y005445D01*
X012355Y005317D02*
X012355Y005077D01*
X012355Y005197D02*
X011995Y005197D01*
X012115Y005077D01*
X012795Y005183D02*
X013155Y005183D01*
X013155Y005063D02*
X013155Y005304D01*
X012915Y005063D02*
X012795Y005183D01*
X012795Y004935D02*
X013155Y004695D01*
X013155Y004935D02*
X012795Y004695D01*
X013155Y004054D02*
X013155Y003813D01*
X013155Y003933D02*
X012795Y003933D01*
X012915Y003813D01*
X012855Y003685D02*
X012975Y003685D01*
X013035Y003625D01*
X013035Y003445D01*
X013155Y003445D02*
X012795Y003445D01*
X012795Y003625D01*
X012855Y003685D01*
X013035Y003565D02*
X013155Y003685D01*
X011405Y003490D02*
X011125Y003490D01*
X011171Y003382D02*
X011125Y003335D01*
X011125Y003242D01*
X011125Y005258D02*
X011125Y005444D01*
X011265Y005351D02*
X011265Y005258D01*
X013695Y008695D02*
X013935Y008935D01*
X013935Y008995D01*
X013875Y009055D01*
X013755Y009055D01*
X013695Y008995D01*
X013755Y009195D02*
X013695Y009255D01*
X013695Y009495D01*
X013755Y009555D01*
X013875Y009555D01*
X013935Y009495D01*
X013935Y009255D01*
X013875Y009195D01*
X013755Y009195D01*
X013815Y009315D02*
X013935Y009195D01*
X014063Y009195D02*
X014304Y009195D01*
X014183Y009195D02*
X014183Y009555D01*
X014063Y009435D01*
X014063Y009055D02*
X014304Y008695D01*
X014304Y009055D01*
X014432Y009055D02*
X014672Y009055D01*
X014672Y008995D01*
X014432Y008755D01*
X014432Y008695D01*
X014800Y008755D02*
X015040Y008995D01*
X015040Y008755D01*
X014980Y008695D01*
X014860Y008695D01*
X014800Y008755D01*
X014800Y008995D01*
X014860Y009055D01*
X014980Y009055D01*
X015040Y008995D01*
X015168Y008995D02*
X015228Y009055D01*
X015348Y009055D01*
X015408Y008995D01*
X015168Y008755D01*
X015228Y008695D01*
X015348Y008695D01*
X015408Y008755D01*
X015408Y008995D01*
X015537Y008995D02*
X015537Y008755D01*
X015777Y008995D01*
X015777Y008755D01*
X015717Y008695D01*
X015597Y008695D01*
X015537Y008755D01*
X015537Y008995D02*
X015597Y009055D01*
X015717Y009055D01*
X015777Y008995D01*
X015168Y008995D02*
X015168Y008755D01*
X014063Y008695D02*
X014063Y009055D01*
X013935Y008695D02*
X013695Y008695D01*
X014445Y009945D02*
X014685Y010305D01*
X014813Y010245D02*
X014873Y010305D01*
X014993Y010305D01*
X015054Y010245D01*
X015054Y010185D01*
X014813Y009945D01*
X015054Y009945D01*
X014685Y009945D02*
X014445Y010305D01*
X015695Y010245D02*
X015695Y010185D01*
X015755Y010125D01*
X015875Y010125D01*
X015935Y010065D01*
X015935Y010005D01*
X015875Y009945D01*
X015755Y009945D01*
X015695Y010005D01*
X015695Y010245D02*
X015755Y010305D01*
X015875Y010305D01*
X015935Y010245D01*
X016063Y010305D02*
X016063Y009945D01*
X016304Y009945D01*
X016432Y009945D02*
X016432Y010305D01*
X016672Y009945D01*
X016672Y010305D01*
X016800Y010245D02*
X016800Y010185D01*
X016860Y010125D01*
X016980Y010125D01*
X017040Y010065D01*
X017040Y010005D01*
X016980Y009945D01*
X016860Y009945D01*
X016800Y010005D01*
X016800Y010245D02*
X016860Y010305D01*
X016980Y010305D01*
X017040Y010245D01*
X017168Y010245D02*
X017168Y010005D01*
X017228Y009945D01*
X017348Y009945D01*
X017408Y010005D01*
X017408Y010245D01*
X017348Y010305D01*
X017228Y010305D01*
X017168Y010245D01*
X017537Y010305D02*
X017537Y009945D01*
X017537Y010065D02*
X017717Y010065D01*
X017777Y010125D01*
X017777Y010245D01*
X017717Y010305D01*
X017537Y010305D01*
X017657Y010065D02*
X017777Y009945D01*
X018445Y010065D02*
X018565Y009945D01*
X018685Y010065D01*
X018685Y010305D01*
X018813Y010245D02*
X018813Y010005D01*
X018873Y009945D01*
X018993Y009945D01*
X019054Y010005D01*
X019182Y010005D02*
X019242Y009945D01*
X019362Y009945D01*
X019422Y010005D01*
X019422Y010245D02*
X019362Y010305D01*
X019242Y010305D01*
X019182Y010245D01*
X019182Y010005D01*
X019054Y010245D02*
X018993Y010305D01*
X018873Y010305D01*
X018813Y010245D01*
X018813Y010445D02*
X018813Y010805D01*
X018993Y010805D01*
X019054Y010745D01*
X019054Y010625D01*
X018993Y010565D01*
X018813Y010565D01*
X018625Y010505D02*
X018565Y010445D01*
X018505Y010445D01*
X018445Y010505D01*
X018625Y010505D02*
X018625Y010805D01*
X018565Y010805D02*
X018685Y010805D01*
X019182Y010745D02*
X019242Y010805D01*
X019362Y010805D01*
X019422Y010745D01*
X019422Y010685D01*
X019182Y010445D01*
X019422Y010445D01*
X018445Y010305D02*
X018445Y010065D01*
X016304Y010305D02*
X016063Y010305D01*
X016063Y010125D02*
X016183Y010125D01*
X016190Y013195D02*
X016190Y013555D01*
X016010Y013375D01*
X016250Y013375D01*
X016378Y013255D02*
X016438Y013255D01*
X016438Y013195D01*
X016378Y013195D01*
X016378Y013255D01*
X016562Y013255D02*
X016562Y013495D01*
X016622Y013555D01*
X016742Y013555D01*
X016803Y013495D01*
X016562Y013255D01*
X016622Y013195D01*
X016742Y013195D01*
X016803Y013255D01*
X016803Y013495D01*
X017053Y014275D02*
X017053Y014635D01*
X017234Y014635D01*
X017294Y014575D01*
X017294Y014455D01*
X017234Y014395D01*
X017053Y014395D01*
X016927Y014635D02*
X016867Y014635D01*
X016746Y014515D01*
X016746Y014395D02*
X016746Y014635D01*
X016618Y014575D02*
X016618Y014395D01*
X016438Y014395D01*
X016378Y014455D01*
X016438Y014515D01*
X016618Y014515D01*
X016618Y014575D02*
X016558Y014635D01*
X016438Y014635D01*
X016250Y014755D02*
X016250Y014395D01*
X016010Y014395D02*
X016010Y014755D01*
X016130Y014635D01*
X016250Y014755D01*
X016355Y014945D02*
X016595Y014945D01*
X016655Y015005D01*
X016655Y015125D01*
X016595Y015185D01*
X016655Y015313D02*
X016655Y015554D01*
X016655Y015433D02*
X016295Y015433D01*
X016415Y015313D01*
X016355Y015185D02*
X016295Y015125D01*
X016295Y015005D01*
X016355Y014945D01*
X016795Y015065D02*
X017155Y015065D01*
X017155Y014945D02*
X017155Y015185D01*
X017095Y015313D02*
X016855Y015554D01*
X017095Y015554D01*
X017155Y015493D01*
X017155Y015373D01*
X017095Y015313D01*
X016855Y015313D01*
X016795Y015373D01*
X016795Y015493D01*
X016855Y015554D01*
X016855Y015682D02*
X016795Y015742D01*
X016795Y015862D01*
X016855Y015922D01*
X017095Y015682D01*
X017155Y015742D01*
X017155Y015862D01*
X017095Y015922D01*
X016855Y015922D01*
X016915Y016050D02*
X016915Y016230D01*
X016975Y016290D01*
X017155Y016290D01*
X017155Y016050D02*
X016915Y016050D01*
X016855Y015682D02*
X017095Y015682D01*
X016795Y015065D02*
X016915Y014945D01*
X017422Y014755D02*
X017482Y014755D01*
X017482Y014395D01*
X017422Y014395D02*
X017542Y014395D01*
X017667Y014455D02*
X017667Y014575D01*
X017727Y014635D01*
X017847Y014635D01*
X017907Y014575D01*
X017907Y014515D01*
X017667Y014515D01*
X017667Y014455D02*
X017727Y014395D01*
X017847Y014395D01*
X018615Y015458D02*
X018495Y015578D01*
X018855Y015578D01*
X018855Y015458D02*
X018855Y015699D01*
X018795Y015827D02*
X018555Y016067D01*
X018795Y016067D01*
X018855Y016007D01*
X018855Y015887D01*
X018795Y015827D01*
X018555Y015827D01*
X018495Y015887D01*
X018495Y016007D01*
X018555Y016067D01*
X018555Y016195D02*
X018495Y016255D01*
X018495Y016375D01*
X018555Y016435D01*
X018795Y016195D01*
X018855Y016255D01*
X018855Y016375D01*
X018795Y016435D01*
X018555Y016435D01*
X018495Y016563D02*
X018495Y016743D01*
X018555Y016804D01*
X018675Y016804D01*
X018735Y016743D01*
X018735Y016563D01*
X018855Y016563D02*
X018495Y016563D01*
X018735Y016683D02*
X018855Y016804D01*
X018795Y016195D02*
X018555Y016195D01*
X017905Y016945D02*
X017545Y016945D01*
X017545Y017125D01*
X017605Y017185D01*
X017725Y017185D01*
X017785Y017125D01*
X017785Y016945D01*
X017785Y017065D02*
X017905Y017185D01*
X017905Y017313D02*
X017665Y017554D01*
X017605Y017554D01*
X017545Y017493D01*
X017545Y017373D01*
X017605Y017313D01*
X017905Y017313D02*
X017905Y017554D01*
X015590Y018495D02*
X015410Y018615D01*
X015590Y018735D01*
X015410Y018855D02*
X015410Y018495D01*
X015282Y018555D02*
X015222Y018495D01*
X015102Y018495D01*
X015042Y018555D01*
X015282Y018795D01*
X015282Y018555D01*
X015042Y018555D02*
X015042Y018795D01*
X015102Y018855D01*
X015222Y018855D01*
X015282Y018795D01*
X014913Y018495D02*
X014673Y018495D01*
X014793Y018495D02*
X014793Y018855D01*
X014673Y018735D01*
X014673Y019495D02*
X014913Y019495D01*
X014793Y019495D02*
X014793Y019855D01*
X014673Y019735D01*
X015042Y019795D02*
X015042Y019555D01*
X015282Y019795D01*
X015282Y019555D01*
X015222Y019495D01*
X015102Y019495D01*
X015042Y019555D01*
X015042Y019795D02*
X015102Y019855D01*
X015222Y019855D01*
X015282Y019795D01*
X015410Y019855D02*
X015410Y019495D01*
X015410Y019615D02*
X015590Y019735D01*
X015410Y019615D02*
X015590Y019495D01*
X012655Y019445D02*
X012295Y019445D01*
X012295Y019625D01*
X012355Y019685D01*
X012475Y019685D01*
X012535Y019625D01*
X012535Y019445D01*
X012535Y019565D02*
X012655Y019685D01*
X012475Y019813D02*
X012475Y020054D01*
X012655Y019993D02*
X012295Y019993D01*
X012475Y019813D01*
X012475Y019054D02*
X012595Y019054D01*
X012655Y018993D01*
X012655Y018873D01*
X012595Y018813D01*
X012475Y018813D02*
X012415Y018933D01*
X012415Y018993D01*
X012475Y019054D01*
X012295Y019054D02*
X012295Y018813D01*
X012475Y018813D01*
X012475Y018685D02*
X012535Y018625D01*
X012535Y018445D01*
X012655Y018445D02*
X012295Y018445D01*
X012295Y018625D01*
X012355Y018685D01*
X012475Y018685D01*
X012535Y018565D02*
X012655Y018685D01*
X011855Y016804D02*
X011735Y016683D01*
X011735Y016743D02*
X011735Y016563D01*
X011855Y016563D02*
X011495Y016563D01*
X011495Y016743D01*
X011555Y016804D01*
X011675Y016804D01*
X011735Y016743D01*
X011795Y016435D02*
X011555Y016435D01*
X011795Y016195D01*
X011855Y016255D01*
X011855Y016375D01*
X011795Y016435D01*
X011795Y016195D02*
X011555Y016195D01*
X011495Y016255D01*
X011495Y016375D01*
X011555Y016435D01*
X011555Y016067D02*
X011795Y015827D01*
X011855Y015887D01*
X011855Y016007D01*
X011795Y016067D01*
X011555Y016067D01*
X011495Y016007D01*
X011495Y015887D01*
X011555Y015827D01*
X011795Y015827D01*
X011855Y015699D02*
X011855Y015458D01*
X011855Y015578D02*
X011495Y015578D01*
X011615Y015458D01*
X012295Y015375D02*
X012295Y015195D01*
X012655Y015195D01*
X012535Y015195D02*
X012535Y015375D01*
X012475Y015435D01*
X012355Y015435D01*
X012295Y015375D01*
X012355Y015563D02*
X012295Y015623D01*
X012295Y015743D01*
X012355Y015804D01*
X012415Y015804D01*
X012475Y015743D01*
X012535Y015804D01*
X012595Y015804D01*
X012655Y015743D01*
X012655Y015623D01*
X012595Y015563D01*
X012655Y015435D02*
X012535Y015315D01*
X012475Y015683D02*
X012475Y015743D01*
X012815Y014755D02*
X012695Y014635D01*
X012695Y014515D01*
X012815Y014395D01*
X012941Y014455D02*
X013001Y014395D01*
X013121Y014395D01*
X013181Y014455D01*
X013309Y014395D02*
X013429Y014515D01*
X013429Y014635D01*
X013309Y014755D01*
X013181Y014695D02*
X013121Y014755D01*
X013001Y014755D01*
X012941Y014695D01*
X012941Y014455D01*
X012875Y014155D02*
X012755Y014155D01*
X012695Y014095D01*
X012875Y014155D02*
X012935Y014095D01*
X012935Y014035D01*
X012695Y013795D01*
X012935Y013795D01*
X013063Y013855D02*
X013304Y014095D01*
X013304Y013855D01*
X013243Y013795D01*
X013123Y013795D01*
X013063Y013855D01*
X013063Y014095D01*
X013123Y014155D01*
X013243Y014155D01*
X013304Y014095D01*
X013432Y014035D02*
X013552Y014155D01*
X013552Y013795D01*
X013432Y013795D02*
X013672Y013795D01*
X013800Y013975D02*
X014040Y013975D01*
X013980Y013795D02*
X013980Y014155D01*
X013800Y013975D01*
X013800Y013555D02*
X013980Y013555D01*
X014040Y013495D01*
X014040Y013435D01*
X013980Y013375D01*
X013800Y013375D01*
X013672Y013375D02*
X013432Y013375D01*
X013304Y013255D02*
X013243Y013195D01*
X013123Y013195D01*
X013063Y013255D01*
X013063Y013495D01*
X013123Y013555D01*
X013243Y013555D01*
X013304Y013495D01*
X012935Y013495D02*
X012875Y013555D01*
X012755Y013555D01*
X012695Y013495D01*
X012695Y013255D01*
X012755Y013195D01*
X012875Y013195D01*
X012935Y013255D01*
X013800Y013195D02*
X013980Y013195D01*
X014040Y013255D01*
X014040Y013315D01*
X013980Y013375D01*
X014168Y013495D02*
X014288Y013375D01*
X014288Y013195D01*
X014288Y013375D02*
X014408Y013495D01*
X014408Y013555D01*
X014537Y013375D02*
X014777Y013375D01*
X014905Y013435D02*
X014965Y013375D01*
X015085Y013375D01*
X015145Y013315D01*
X015145Y013255D01*
X015085Y013195D01*
X014965Y013195D01*
X014905Y013255D01*
X014905Y013435D02*
X014905Y013495D01*
X014965Y013555D01*
X015085Y013555D01*
X015145Y013495D01*
X015273Y013435D02*
X015273Y013195D01*
X015273Y013375D02*
X015513Y013375D01*
X015513Y013435D02*
X015513Y013195D01*
X015513Y013435D02*
X015393Y013555D01*
X015273Y013435D01*
X015333Y014395D02*
X015273Y014455D01*
X015273Y014575D01*
X015333Y014635D01*
X015453Y014635D01*
X015513Y014575D01*
X015513Y014515D01*
X015273Y014515D01*
X015333Y014395D02*
X015453Y014395D01*
X015145Y014635D02*
X015025Y014395D01*
X014905Y014635D01*
X014777Y014575D02*
X014777Y014515D01*
X014537Y014515D01*
X014537Y014455D02*
X014537Y014575D01*
X014597Y014635D01*
X014717Y014635D01*
X014777Y014575D01*
X014717Y014395D02*
X014597Y014395D01*
X014537Y014455D01*
X014411Y014395D02*
X014351Y014455D01*
X014351Y014695D01*
X014291Y014635D02*
X014411Y014635D01*
X014163Y014695D02*
X014103Y014755D01*
X013983Y014755D01*
X013923Y014695D01*
X013923Y014635D01*
X013983Y014575D01*
X014103Y014575D01*
X014163Y014515D01*
X014163Y014455D01*
X014103Y014395D01*
X013983Y014395D01*
X013923Y014455D01*
X013800Y013555D02*
X013800Y013195D01*
X014168Y013495D02*
X014168Y013555D01*
X009054Y011445D02*
X008813Y011445D01*
X008933Y011445D02*
X008933Y011805D01*
X008813Y011685D01*
X008685Y011625D02*
X008625Y011565D01*
X008445Y011565D01*
X008445Y011445D02*
X008445Y011805D01*
X008625Y011805D01*
X008685Y011745D01*
X008685Y011625D01*
X008565Y011565D02*
X008685Y011445D01*
X008625Y010305D02*
X008445Y010305D01*
X008445Y009945D01*
X008445Y010065D02*
X008625Y010065D01*
X008685Y010125D01*
X008685Y010245D01*
X008625Y010305D01*
X008813Y010245D02*
X008873Y010305D01*
X008993Y010305D01*
X009054Y010245D01*
X009054Y010185D01*
X008813Y009945D01*
X009054Y009945D01*
X008685Y009945D02*
X008565Y010065D01*
X006090Y009995D02*
X005910Y010115D01*
X006090Y010235D01*
X005910Y010355D02*
X005910Y009995D01*
X005782Y010055D02*
X005722Y009995D01*
X005602Y009995D01*
X005542Y010055D01*
X005782Y010295D01*
X005782Y010055D01*
X005782Y010295D02*
X005722Y010355D01*
X005602Y010355D01*
X005542Y010295D01*
X005542Y010055D01*
X005413Y009995D02*
X005173Y009995D01*
X005293Y009995D02*
X005293Y010355D01*
X005173Y010235D01*
X005173Y011495D02*
X005413Y011495D01*
X005293Y011495D02*
X005293Y011855D01*
X005173Y011735D01*
X005542Y011795D02*
X005542Y011555D01*
X005782Y011795D01*
X005782Y011555D01*
X005722Y011495D01*
X005602Y011495D01*
X005542Y011555D01*
X005542Y011795D02*
X005602Y011855D01*
X005722Y011855D01*
X005782Y011795D01*
X005910Y011855D02*
X005910Y011495D01*
X005910Y011615D02*
X006090Y011735D01*
X005910Y011615D02*
X006090Y011495D01*
X003155Y013755D02*
X003155Y013875D01*
X003095Y013935D01*
X003095Y014063D02*
X002855Y014063D01*
X002795Y014123D01*
X002795Y014243D01*
X002855Y014304D01*
X002975Y014432D02*
X002975Y014672D01*
X002975Y014800D02*
X002975Y014980D01*
X003035Y015040D01*
X003095Y015040D01*
X003155Y014980D01*
X003155Y014800D01*
X002795Y014800D01*
X002795Y014980D01*
X002855Y015040D01*
X002915Y015040D01*
X002975Y014980D01*
X002855Y015168D02*
X002975Y015288D01*
X003155Y015288D01*
X002975Y015288D02*
X002855Y015408D01*
X002795Y015408D01*
X002975Y015537D02*
X002975Y015777D01*
X002915Y015905D02*
X002975Y015965D01*
X002975Y016085D01*
X003035Y016145D01*
X003095Y016145D01*
X003155Y016085D01*
X003155Y015965D01*
X003095Y015905D01*
X002915Y015905D02*
X002855Y015905D01*
X002795Y015965D01*
X002795Y016085D01*
X002855Y016145D01*
X002915Y016273D02*
X002795Y016393D01*
X002915Y016513D01*
X003155Y016513D01*
X002975Y016513D02*
X002975Y016273D01*
X002915Y016273D02*
X003155Y016273D01*
X002975Y017010D02*
X002975Y017250D01*
X003095Y017378D02*
X003095Y017438D01*
X003155Y017438D01*
X003155Y017378D01*
X003095Y017378D01*
X003095Y017562D02*
X002855Y017562D01*
X002795Y017622D01*
X002795Y017742D01*
X002855Y017803D01*
X003095Y017562D01*
X003155Y017622D01*
X003155Y017742D01*
X003095Y017803D01*
X002855Y017803D01*
X002795Y017190D02*
X002975Y017010D01*
X003155Y017190D02*
X002795Y017190D01*
X001955Y017250D02*
X001595Y017250D01*
X001715Y017130D01*
X001595Y017010D01*
X001955Y017010D01*
X001895Y017378D02*
X001835Y017438D01*
X001835Y017618D01*
X001775Y017618D02*
X001955Y017618D01*
X001955Y017438D01*
X001895Y017378D01*
X001715Y017438D02*
X001715Y017558D01*
X001775Y017618D01*
X001835Y017746D02*
X001715Y017867D01*
X001715Y017927D01*
X001715Y018053D02*
X001715Y018234D01*
X001775Y018294D01*
X001895Y018294D01*
X001955Y018234D01*
X001955Y018053D01*
X002075Y018053D02*
X001715Y018053D01*
X001715Y017746D02*
X001955Y017746D01*
X001955Y018422D02*
X001955Y018542D01*
X001955Y018482D02*
X001595Y018482D01*
X001595Y018422D01*
X001775Y018667D02*
X001715Y018727D01*
X001715Y018847D01*
X001775Y018907D01*
X001835Y018907D01*
X001835Y018667D01*
X001895Y018667D02*
X001775Y018667D01*
X001895Y018667D02*
X001955Y018727D01*
X001955Y018847D01*
X001835Y016513D02*
X001835Y016273D01*
X001895Y016273D02*
X001775Y016273D01*
X001715Y016333D01*
X001715Y016453D01*
X001775Y016513D01*
X001835Y016513D01*
X001955Y016453D02*
X001955Y016333D01*
X001895Y016273D01*
X001715Y016145D02*
X001955Y016025D01*
X001715Y015905D01*
X001775Y015777D02*
X001835Y015777D01*
X001835Y015537D01*
X001895Y015537D02*
X001775Y015537D01*
X001715Y015597D01*
X001715Y015717D01*
X001775Y015777D01*
X001955Y015717D02*
X001955Y015597D01*
X001895Y015537D01*
X001955Y015411D02*
X001895Y015351D01*
X001655Y015351D01*
X001715Y015291D02*
X001715Y015411D01*
X001655Y015163D02*
X001595Y015103D01*
X001595Y014983D01*
X001655Y014923D01*
X001715Y014923D01*
X001775Y014983D01*
X001775Y015103D01*
X001835Y015163D01*
X001895Y015163D01*
X001955Y015103D01*
X001955Y014983D01*
X001895Y014923D01*
X002195Y014980D02*
X002375Y014800D01*
X002375Y015040D01*
X002555Y014980D02*
X002195Y014980D01*
X002195Y014552D02*
X002555Y014552D01*
X002555Y014432D02*
X002555Y014672D01*
X002315Y014432D02*
X002195Y014552D01*
X002255Y014304D02*
X002495Y014063D01*
X002555Y014123D01*
X002555Y014243D01*
X002495Y014304D01*
X002255Y014304D01*
X002195Y014243D01*
X002195Y014123D01*
X002255Y014063D01*
X002495Y014063D01*
X002555Y013935D02*
X002555Y013695D01*
X002315Y013935D01*
X002255Y013935D01*
X002195Y013875D01*
X002195Y013755D01*
X002255Y013695D01*
X001955Y013815D02*
X001835Y013695D01*
X001715Y013695D01*
X001595Y013815D01*
X001655Y013941D02*
X001895Y013941D01*
X001955Y014001D01*
X001955Y014121D01*
X001895Y014181D01*
X001955Y014309D02*
X001835Y014429D01*
X001715Y014429D01*
X001595Y014309D01*
X001655Y014181D02*
X001595Y014121D01*
X001595Y014001D01*
X001655Y013941D01*
X002795Y013875D02*
X002795Y013755D01*
X002855Y013695D01*
X003095Y013695D01*
X003155Y013755D01*
X003095Y014063D02*
X003155Y014123D01*
X003155Y014243D01*
X003095Y014304D01*
X002855Y013935D02*
X002795Y013875D01*
X002795Y015168D02*
X002855Y015168D01*
X004855Y018195D02*
X004795Y018255D01*
X004795Y018375D01*
X004855Y018435D01*
X004855Y018563D02*
X004795Y018623D01*
X004795Y018743D01*
X004855Y018804D01*
X004915Y018804D01*
X005155Y018563D01*
X005155Y018804D01*
X005295Y018743D02*
X005295Y018623D01*
X005355Y018563D01*
X005355Y018435D02*
X005295Y018375D01*
X005295Y018255D01*
X005355Y018195D01*
X005155Y018255D02*
X005155Y018375D01*
X005095Y018435D01*
X005155Y018255D02*
X005095Y018195D01*
X004855Y018195D01*
X005355Y018435D02*
X005415Y018435D01*
X005655Y018195D01*
X005655Y018435D01*
X005655Y018563D02*
X005415Y018804D01*
X005355Y018804D01*
X005295Y018743D01*
X005355Y018932D02*
X005295Y018992D01*
X005295Y019112D01*
X005355Y019172D01*
X005595Y018932D01*
X005655Y018992D01*
X005655Y019112D01*
X005595Y019172D01*
X005355Y019172D01*
X005415Y019300D02*
X005415Y019480D01*
X005475Y019540D01*
X005655Y019540D01*
X005655Y019300D02*
X005415Y019300D01*
X005355Y018932D02*
X005595Y018932D01*
X005655Y018804D02*
X005655Y018563D01*
X007795Y018183D02*
X007915Y018063D01*
X007855Y017935D02*
X007795Y017875D01*
X007795Y017755D01*
X007855Y017695D01*
X008095Y017695D01*
X008155Y017755D01*
X008155Y017875D01*
X008095Y017935D01*
X008155Y018063D02*
X008155Y018304D01*
X008155Y018183D02*
X007795Y018183D01*
X008295Y018123D02*
X008295Y018243D01*
X008355Y018304D01*
X008595Y018063D01*
X008655Y018123D01*
X008655Y018243D01*
X008595Y018304D01*
X008355Y018304D01*
X008355Y018432D02*
X008295Y018492D01*
X008295Y018612D01*
X008355Y018672D01*
X008595Y018432D01*
X008655Y018492D01*
X008655Y018612D01*
X008595Y018672D01*
X008355Y018672D01*
X008415Y018800D02*
X008415Y018980D01*
X008475Y019040D01*
X008655Y019040D01*
X008655Y018800D02*
X008415Y018800D01*
X008355Y018432D02*
X008595Y018432D01*
X008595Y018063D02*
X008355Y018063D01*
X008295Y018123D01*
X008295Y017815D02*
X008655Y017815D01*
X008655Y017695D02*
X008655Y017935D01*
X008415Y017695D02*
X008295Y017815D01*
X017315Y002955D02*
X017435Y002955D01*
X017375Y002955D02*
X017375Y002655D01*
X017315Y002595D01*
X017255Y002595D01*
X017195Y002655D01*
X017563Y002595D02*
X017563Y002955D01*
X017743Y002955D01*
X017804Y002895D01*
X017804Y002775D01*
X017743Y002715D01*
X017563Y002715D01*
X017932Y002595D02*
X018172Y002595D01*
X018052Y002595D02*
X018052Y002955D01*
X017932Y002835D01*
D13*
X010425Y001925D02*
X010425Y019925D01*
D14*
X006525Y008275D02*
X003825Y008275D01*
X003825Y002075D01*
X006525Y002075D01*
X006525Y004375D01*
X006525Y005975D02*
X006525Y008275D01*
X013825Y007775D02*
X013825Y001575D01*
X016525Y001575D01*
X016525Y003875D01*
X016525Y005475D02*
X016525Y007775D01*
X013825Y007775D01*
X019345Y005342D02*
X019345Y005269D01*
X019382Y005232D01*
X019528Y005232D01*
X019565Y005269D01*
X019565Y005342D01*
X019528Y005379D01*
X019382Y005379D02*
X019345Y005342D01*
X019382Y005158D02*
X019345Y005121D01*
X019345Y005048D01*
X019382Y005011D01*
X019528Y005011D01*
X019565Y005048D01*
X019565Y005121D01*
X019528Y005158D01*
X019492Y004937D02*
X019345Y004937D01*
X019492Y004937D02*
X019565Y004863D01*
X019492Y004790D01*
X019345Y004790D01*
X019345Y004495D02*
X019345Y004348D01*
X019345Y004421D02*
X019565Y004421D01*
X019565Y004274D02*
X019418Y004274D01*
X019345Y004200D01*
X019418Y004127D01*
X019565Y004127D01*
X019565Y004053D02*
X019565Y003906D01*
X019345Y003906D01*
X019345Y004053D01*
X019455Y003979D02*
X019455Y003906D01*
X019455Y003832D02*
X019455Y003685D01*
X019565Y003685D02*
X019345Y003685D01*
X019345Y003832D02*
X019565Y003832D01*
X019455Y004127D02*
X019455Y004274D01*
D15*
X016750Y004625D02*
X016675Y004550D01*
X016600Y004550D01*
X016525Y004625D01*
X016525Y004775D01*
X016600Y004850D01*
X016675Y004850D01*
X016750Y004775D01*
X016750Y004625D01*
X016525Y004625D02*
X016450Y004550D01*
X016375Y004550D01*
X016300Y004625D01*
X016300Y004775D01*
X016375Y004850D01*
X016450Y004850D01*
X016525Y004775D01*
X015900Y002500D02*
X015900Y002200D01*
X015900Y002350D02*
X015450Y002350D01*
X015600Y002200D01*
X014900Y002200D02*
X014600Y002500D01*
X014525Y002500D01*
X014450Y002425D01*
X014450Y002275D01*
X014525Y002200D01*
X014900Y002200D02*
X014900Y002500D01*
X006750Y005125D02*
X006675Y005050D01*
X006600Y005050D01*
X006525Y005125D01*
X006525Y005275D01*
X006600Y005350D01*
X006675Y005350D01*
X006750Y005275D01*
X006750Y005125D01*
X006525Y005125D02*
X006450Y005050D01*
X006375Y005050D01*
X006300Y005125D01*
X006300Y005275D01*
X006375Y005350D01*
X006450Y005350D01*
X006525Y005275D01*
X005900Y003000D02*
X005900Y002700D01*
X005900Y002850D02*
X005450Y002850D01*
X005600Y002700D01*
X004900Y002700D02*
X004600Y003000D01*
X004525Y003000D01*
X004450Y002925D01*
X004450Y002775D01*
X004525Y002700D01*
X004900Y002700D02*
X004900Y003000D01*
D16*
X011130Y009275D02*
X011225Y009275D01*
X011350Y009825D02*
X013000Y009825D01*
X013125Y009275D02*
X013220Y009275D01*
X012215Y009275D02*
X012135Y009275D01*
X011351Y009825D02*
X011312Y009776D01*
X011275Y009725D01*
X011242Y009672D01*
X011212Y009618D01*
X011186Y009561D01*
X011163Y009503D01*
X011143Y009444D01*
X011127Y009383D01*
X011115Y009322D01*
X011106Y009260D01*
X011101Y009198D01*
X011100Y009135D01*
X011103Y009073D01*
X011109Y009010D01*
X011119Y008949D01*
X011133Y008888D01*
X011150Y008828D01*
X011171Y008769D01*
X011195Y008711D01*
X011223Y008655D01*
X011254Y008601D01*
X011289Y008549D01*
X011326Y008499D01*
X011366Y008451D01*
X011410Y008406D01*
X011455Y008363D01*
X011504Y008323D01*
X011554Y008287D01*
X011607Y008253D01*
X011661Y008222D01*
X011718Y008195D01*
X011775Y008172D01*
X012575Y008172D02*
X012632Y008195D01*
X012689Y008222D01*
X012743Y008253D01*
X012796Y008287D01*
X012846Y008323D01*
X012895Y008363D01*
X012940Y008406D01*
X012984Y008451D01*
X013024Y008499D01*
X013061Y008549D01*
X013096Y008601D01*
X013127Y008655D01*
X013155Y008711D01*
X013179Y008769D01*
X013200Y008828D01*
X013217Y008888D01*
X013231Y008949D01*
X013241Y009010D01*
X013247Y009073D01*
X013250Y009135D01*
X013249Y009198D01*
X013244Y009260D01*
X013235Y009322D01*
X013223Y009383D01*
X013207Y009444D01*
X013187Y009503D01*
X013164Y009561D01*
X013138Y009618D01*
X013108Y009672D01*
X013075Y009725D01*
X013038Y009776D01*
X012999Y009825D01*
X012647Y006665D02*
X011703Y006665D01*
X011703Y004185D01*
X012647Y004185D01*
X012647Y006665D01*
X006915Y009703D02*
X004435Y009703D01*
X004435Y010647D01*
X006915Y010647D01*
X006915Y009703D01*
X006915Y011203D02*
X004435Y011203D01*
X004435Y012147D01*
X006915Y012147D01*
X006915Y011203D01*
X011203Y014935D02*
X011203Y017415D01*
X012147Y017415D01*
X012147Y014935D01*
X011203Y014935D01*
X013935Y018203D02*
X016415Y018203D01*
X016415Y019147D01*
X013935Y019147D01*
X013935Y018203D01*
X013935Y019203D02*
X016415Y019203D01*
X016415Y020147D01*
X013935Y020147D01*
X013935Y019203D01*
X017425Y015675D02*
X017925Y015675D01*
X018203Y014935D02*
X018203Y017415D01*
X019147Y017415D01*
X019147Y014935D01*
X018203Y014935D01*
X007425Y018675D02*
X006925Y018675D01*
X004425Y018675D02*
X003925Y018675D01*
D17*
X012175Y012925D02*
X012175Y012175D01*
X018175Y012175D01*
X018175Y010425D01*
X012175Y010425D01*
X012175Y012175D01*
X012175Y012925D02*
X018175Y012925D01*
X018175Y012175D01*
M02*
