%
M48
M72
T01C0.0236
T02C0.0276
T03C0.0320
T04C0.0354
T05C0.0360
T06C0.0394
T07C0.0400
T08C0.1260
%
T01
X5175Y9175
X2425Y9925
X8925Y10925
X11425Y11175
X8925Y14175
X8925Y16675
X7675Y19925
X3675Y19925
X2425Y16675
T02
X4175Y18175
X4175Y19175
X7175Y19175
X7175Y18175
X17675Y16175
X17675Y15175
T03
X16175Y16175
X15175Y15175
X14175Y16175
X15175Y17175
X12675Y9175
X12175Y8425
X11675Y9175
T04
X12175Y7425
X12175Y3425
X7675Y10175
X7675Y11675
X3675Y11675
X3675Y10175
X11675Y14175
X11675Y18175
X13175Y18675
X13175Y19675
X17175Y19675
X17175Y18675
X18675Y18175
X18675Y14175
T05
X15675Y6175
X15675Y5175
X15675Y4175
X15675Y3175
X14675Y3175
X14675Y4175
X14675Y5175
X14675Y6175
X5675Y5675
X5675Y4675
X5675Y3675
X4675Y3675
X4675Y4675
X4675Y5675
X4675Y6675
X5675Y6675
T06
X12675Y11675
X13675Y11675
X14675Y11675
X15675Y11675
X16675Y11675
X17675Y11675
T07
X17675Y9175
X17675Y8175
X17675Y7175
X18675Y7175
X18675Y8175
X18675Y9175
X18675Y5675
X18675Y4675
X18675Y3675
X17675Y3675
X17675Y4675
X17675Y5675
X9175Y5675
X9175Y4675
X9175Y3675
X8175Y3675
X8175Y4675
X8175Y5675
X5675Y14175
X5675Y15175
X5675Y16175
X5675Y17175
T08
X2175Y2175
X9175Y2175
X11675Y2175
X18675Y2175
X18675Y12675
X18675Y19675
X11675Y19675
X9175Y19675
X9175Y12675
X11675Y12675
X2175Y12675
X2175Y19675
M30
