G75*
G70*
%OFA0B0*%
%FSLAX24Y24*%
%IPPOS*%
%LPD*%
%AMOC8*
5,1,8,0,0,1.08239X$1,22.5*
%
%ADD10C,0.0000*%
%ADD11C,0.1340*%
%ADD12OC8,0.0680*%
%ADD13OC8,0.0720*%
%ADD14C,0.0820*%
%ADD15R,0.0950X0.0320*%
%ADD16C,0.0730*%
%ADD17R,0.0820X0.0820*%
%ADD18C,0.0780*%
%ADD19C,0.0714*%
D10*
X001675Y001175D02*
X001175Y001675D01*
X001175Y020175D01*
X001675Y020675D01*
X009675Y020675D01*
X010425Y019925D01*
X011175Y020675D01*
X019175Y020675D01*
X019675Y020175D01*
X019675Y001675D01*
X019175Y001175D01*
X011175Y001175D01*
X010425Y001925D01*
X009675Y001175D01*
X001675Y001175D01*
X001545Y002175D02*
X001547Y002225D01*
X001553Y002275D01*
X001563Y002324D01*
X001577Y002372D01*
X001594Y002419D01*
X001615Y002464D01*
X001640Y002508D01*
X001668Y002549D01*
X001700Y002588D01*
X001734Y002625D01*
X001771Y002659D01*
X001811Y002689D01*
X001853Y002716D01*
X001897Y002740D01*
X001943Y002761D01*
X001990Y002777D01*
X002038Y002790D01*
X002088Y002799D01*
X002137Y002804D01*
X002188Y002805D01*
X002238Y002802D01*
X002287Y002795D01*
X002336Y002784D01*
X002384Y002769D01*
X002430Y002751D01*
X002475Y002729D01*
X002518Y002703D01*
X002559Y002674D01*
X002598Y002642D01*
X002634Y002607D01*
X002666Y002569D01*
X002696Y002529D01*
X002723Y002486D01*
X002746Y002442D01*
X002765Y002396D01*
X002781Y002348D01*
X002793Y002299D01*
X002801Y002250D01*
X002805Y002200D01*
X002805Y002150D01*
X002801Y002100D01*
X002793Y002051D01*
X002781Y002002D01*
X002765Y001954D01*
X002746Y001908D01*
X002723Y001864D01*
X002696Y001821D01*
X002666Y001781D01*
X002634Y001743D01*
X002598Y001708D01*
X002559Y001676D01*
X002518Y001647D01*
X002475Y001621D01*
X002430Y001599D01*
X002384Y001581D01*
X002336Y001566D01*
X002287Y001555D01*
X002238Y001548D01*
X002188Y001545D01*
X002137Y001546D01*
X002088Y001551D01*
X002038Y001560D01*
X001990Y001573D01*
X001943Y001589D01*
X001897Y001610D01*
X001853Y001634D01*
X001811Y001661D01*
X001771Y001691D01*
X001734Y001725D01*
X001700Y001762D01*
X001668Y001801D01*
X001640Y001842D01*
X001615Y001886D01*
X001594Y001931D01*
X001577Y001978D01*
X001563Y002026D01*
X001553Y002075D01*
X001547Y002125D01*
X001545Y002175D01*
X008545Y002175D02*
X008547Y002225D01*
X008553Y002275D01*
X008563Y002324D01*
X008577Y002372D01*
X008594Y002419D01*
X008615Y002464D01*
X008640Y002508D01*
X008668Y002549D01*
X008700Y002588D01*
X008734Y002625D01*
X008771Y002659D01*
X008811Y002689D01*
X008853Y002716D01*
X008897Y002740D01*
X008943Y002761D01*
X008990Y002777D01*
X009038Y002790D01*
X009088Y002799D01*
X009137Y002804D01*
X009188Y002805D01*
X009238Y002802D01*
X009287Y002795D01*
X009336Y002784D01*
X009384Y002769D01*
X009430Y002751D01*
X009475Y002729D01*
X009518Y002703D01*
X009559Y002674D01*
X009598Y002642D01*
X009634Y002607D01*
X009666Y002569D01*
X009696Y002529D01*
X009723Y002486D01*
X009746Y002442D01*
X009765Y002396D01*
X009781Y002348D01*
X009793Y002299D01*
X009801Y002250D01*
X009805Y002200D01*
X009805Y002150D01*
X009801Y002100D01*
X009793Y002051D01*
X009781Y002002D01*
X009765Y001954D01*
X009746Y001908D01*
X009723Y001864D01*
X009696Y001821D01*
X009666Y001781D01*
X009634Y001743D01*
X009598Y001708D01*
X009559Y001676D01*
X009518Y001647D01*
X009475Y001621D01*
X009430Y001599D01*
X009384Y001581D01*
X009336Y001566D01*
X009287Y001555D01*
X009238Y001548D01*
X009188Y001545D01*
X009137Y001546D01*
X009088Y001551D01*
X009038Y001560D01*
X008990Y001573D01*
X008943Y001589D01*
X008897Y001610D01*
X008853Y001634D01*
X008811Y001661D01*
X008771Y001691D01*
X008734Y001725D01*
X008700Y001762D01*
X008668Y001801D01*
X008640Y001842D01*
X008615Y001886D01*
X008594Y001931D01*
X008577Y001978D01*
X008563Y002026D01*
X008553Y002075D01*
X008547Y002125D01*
X008545Y002175D01*
X011045Y002175D02*
X011047Y002225D01*
X011053Y002275D01*
X011063Y002324D01*
X011077Y002372D01*
X011094Y002419D01*
X011115Y002464D01*
X011140Y002508D01*
X011168Y002549D01*
X011200Y002588D01*
X011234Y002625D01*
X011271Y002659D01*
X011311Y002689D01*
X011353Y002716D01*
X011397Y002740D01*
X011443Y002761D01*
X011490Y002777D01*
X011538Y002790D01*
X011588Y002799D01*
X011637Y002804D01*
X011688Y002805D01*
X011738Y002802D01*
X011787Y002795D01*
X011836Y002784D01*
X011884Y002769D01*
X011930Y002751D01*
X011975Y002729D01*
X012018Y002703D01*
X012059Y002674D01*
X012098Y002642D01*
X012134Y002607D01*
X012166Y002569D01*
X012196Y002529D01*
X012223Y002486D01*
X012246Y002442D01*
X012265Y002396D01*
X012281Y002348D01*
X012293Y002299D01*
X012301Y002250D01*
X012305Y002200D01*
X012305Y002150D01*
X012301Y002100D01*
X012293Y002051D01*
X012281Y002002D01*
X012265Y001954D01*
X012246Y001908D01*
X012223Y001864D01*
X012196Y001821D01*
X012166Y001781D01*
X012134Y001743D01*
X012098Y001708D01*
X012059Y001676D01*
X012018Y001647D01*
X011975Y001621D01*
X011930Y001599D01*
X011884Y001581D01*
X011836Y001566D01*
X011787Y001555D01*
X011738Y001548D01*
X011688Y001545D01*
X011637Y001546D01*
X011588Y001551D01*
X011538Y001560D01*
X011490Y001573D01*
X011443Y001589D01*
X011397Y001610D01*
X011353Y001634D01*
X011311Y001661D01*
X011271Y001691D01*
X011234Y001725D01*
X011200Y001762D01*
X011168Y001801D01*
X011140Y001842D01*
X011115Y001886D01*
X011094Y001931D01*
X011077Y001978D01*
X011063Y002026D01*
X011053Y002075D01*
X011047Y002125D01*
X011045Y002175D01*
X018045Y002175D02*
X018047Y002225D01*
X018053Y002275D01*
X018063Y002324D01*
X018077Y002372D01*
X018094Y002419D01*
X018115Y002464D01*
X018140Y002508D01*
X018168Y002549D01*
X018200Y002588D01*
X018234Y002625D01*
X018271Y002659D01*
X018311Y002689D01*
X018353Y002716D01*
X018397Y002740D01*
X018443Y002761D01*
X018490Y002777D01*
X018538Y002790D01*
X018588Y002799D01*
X018637Y002804D01*
X018688Y002805D01*
X018738Y002802D01*
X018787Y002795D01*
X018836Y002784D01*
X018884Y002769D01*
X018930Y002751D01*
X018975Y002729D01*
X019018Y002703D01*
X019059Y002674D01*
X019098Y002642D01*
X019134Y002607D01*
X019166Y002569D01*
X019196Y002529D01*
X019223Y002486D01*
X019246Y002442D01*
X019265Y002396D01*
X019281Y002348D01*
X019293Y002299D01*
X019301Y002250D01*
X019305Y002200D01*
X019305Y002150D01*
X019301Y002100D01*
X019293Y002051D01*
X019281Y002002D01*
X019265Y001954D01*
X019246Y001908D01*
X019223Y001864D01*
X019196Y001821D01*
X019166Y001781D01*
X019134Y001743D01*
X019098Y001708D01*
X019059Y001676D01*
X019018Y001647D01*
X018975Y001621D01*
X018930Y001599D01*
X018884Y001581D01*
X018836Y001566D01*
X018787Y001555D01*
X018738Y001548D01*
X018688Y001545D01*
X018637Y001546D01*
X018588Y001551D01*
X018538Y001560D01*
X018490Y001573D01*
X018443Y001589D01*
X018397Y001610D01*
X018353Y001634D01*
X018311Y001661D01*
X018271Y001691D01*
X018234Y001725D01*
X018200Y001762D01*
X018168Y001801D01*
X018140Y001842D01*
X018115Y001886D01*
X018094Y001931D01*
X018077Y001978D01*
X018063Y002026D01*
X018053Y002075D01*
X018047Y002125D01*
X018045Y002175D01*
X018045Y012675D02*
X018047Y012725D01*
X018053Y012775D01*
X018063Y012824D01*
X018077Y012872D01*
X018094Y012919D01*
X018115Y012964D01*
X018140Y013008D01*
X018168Y013049D01*
X018200Y013088D01*
X018234Y013125D01*
X018271Y013159D01*
X018311Y013189D01*
X018353Y013216D01*
X018397Y013240D01*
X018443Y013261D01*
X018490Y013277D01*
X018538Y013290D01*
X018588Y013299D01*
X018637Y013304D01*
X018688Y013305D01*
X018738Y013302D01*
X018787Y013295D01*
X018836Y013284D01*
X018884Y013269D01*
X018930Y013251D01*
X018975Y013229D01*
X019018Y013203D01*
X019059Y013174D01*
X019098Y013142D01*
X019134Y013107D01*
X019166Y013069D01*
X019196Y013029D01*
X019223Y012986D01*
X019246Y012942D01*
X019265Y012896D01*
X019281Y012848D01*
X019293Y012799D01*
X019301Y012750D01*
X019305Y012700D01*
X019305Y012650D01*
X019301Y012600D01*
X019293Y012551D01*
X019281Y012502D01*
X019265Y012454D01*
X019246Y012408D01*
X019223Y012364D01*
X019196Y012321D01*
X019166Y012281D01*
X019134Y012243D01*
X019098Y012208D01*
X019059Y012176D01*
X019018Y012147D01*
X018975Y012121D01*
X018930Y012099D01*
X018884Y012081D01*
X018836Y012066D01*
X018787Y012055D01*
X018738Y012048D01*
X018688Y012045D01*
X018637Y012046D01*
X018588Y012051D01*
X018538Y012060D01*
X018490Y012073D01*
X018443Y012089D01*
X018397Y012110D01*
X018353Y012134D01*
X018311Y012161D01*
X018271Y012191D01*
X018234Y012225D01*
X018200Y012262D01*
X018168Y012301D01*
X018140Y012342D01*
X018115Y012386D01*
X018094Y012431D01*
X018077Y012478D01*
X018063Y012526D01*
X018053Y012575D01*
X018047Y012625D01*
X018045Y012675D01*
X011045Y012675D02*
X011047Y012725D01*
X011053Y012775D01*
X011063Y012824D01*
X011077Y012872D01*
X011094Y012919D01*
X011115Y012964D01*
X011140Y013008D01*
X011168Y013049D01*
X011200Y013088D01*
X011234Y013125D01*
X011271Y013159D01*
X011311Y013189D01*
X011353Y013216D01*
X011397Y013240D01*
X011443Y013261D01*
X011490Y013277D01*
X011538Y013290D01*
X011588Y013299D01*
X011637Y013304D01*
X011688Y013305D01*
X011738Y013302D01*
X011787Y013295D01*
X011836Y013284D01*
X011884Y013269D01*
X011930Y013251D01*
X011975Y013229D01*
X012018Y013203D01*
X012059Y013174D01*
X012098Y013142D01*
X012134Y013107D01*
X012166Y013069D01*
X012196Y013029D01*
X012223Y012986D01*
X012246Y012942D01*
X012265Y012896D01*
X012281Y012848D01*
X012293Y012799D01*
X012301Y012750D01*
X012305Y012700D01*
X012305Y012650D01*
X012301Y012600D01*
X012293Y012551D01*
X012281Y012502D01*
X012265Y012454D01*
X012246Y012408D01*
X012223Y012364D01*
X012196Y012321D01*
X012166Y012281D01*
X012134Y012243D01*
X012098Y012208D01*
X012059Y012176D01*
X012018Y012147D01*
X011975Y012121D01*
X011930Y012099D01*
X011884Y012081D01*
X011836Y012066D01*
X011787Y012055D01*
X011738Y012048D01*
X011688Y012045D01*
X011637Y012046D01*
X011588Y012051D01*
X011538Y012060D01*
X011490Y012073D01*
X011443Y012089D01*
X011397Y012110D01*
X011353Y012134D01*
X011311Y012161D01*
X011271Y012191D01*
X011234Y012225D01*
X011200Y012262D01*
X011168Y012301D01*
X011140Y012342D01*
X011115Y012386D01*
X011094Y012431D01*
X011077Y012478D01*
X011063Y012526D01*
X011053Y012575D01*
X011047Y012625D01*
X011045Y012675D01*
X008545Y012675D02*
X008547Y012725D01*
X008553Y012775D01*
X008563Y012824D01*
X008577Y012872D01*
X008594Y012919D01*
X008615Y012964D01*
X008640Y013008D01*
X008668Y013049D01*
X008700Y013088D01*
X008734Y013125D01*
X008771Y013159D01*
X008811Y013189D01*
X008853Y013216D01*
X008897Y013240D01*
X008943Y013261D01*
X008990Y013277D01*
X009038Y013290D01*
X009088Y013299D01*
X009137Y013304D01*
X009188Y013305D01*
X009238Y013302D01*
X009287Y013295D01*
X009336Y013284D01*
X009384Y013269D01*
X009430Y013251D01*
X009475Y013229D01*
X009518Y013203D01*
X009559Y013174D01*
X009598Y013142D01*
X009634Y013107D01*
X009666Y013069D01*
X009696Y013029D01*
X009723Y012986D01*
X009746Y012942D01*
X009765Y012896D01*
X009781Y012848D01*
X009793Y012799D01*
X009801Y012750D01*
X009805Y012700D01*
X009805Y012650D01*
X009801Y012600D01*
X009793Y012551D01*
X009781Y012502D01*
X009765Y012454D01*
X009746Y012408D01*
X009723Y012364D01*
X009696Y012321D01*
X009666Y012281D01*
X009634Y012243D01*
X009598Y012208D01*
X009559Y012176D01*
X009518Y012147D01*
X009475Y012121D01*
X009430Y012099D01*
X009384Y012081D01*
X009336Y012066D01*
X009287Y012055D01*
X009238Y012048D01*
X009188Y012045D01*
X009137Y012046D01*
X009088Y012051D01*
X009038Y012060D01*
X008990Y012073D01*
X008943Y012089D01*
X008897Y012110D01*
X008853Y012134D01*
X008811Y012161D01*
X008771Y012191D01*
X008734Y012225D01*
X008700Y012262D01*
X008668Y012301D01*
X008640Y012342D01*
X008615Y012386D01*
X008594Y012431D01*
X008577Y012478D01*
X008563Y012526D01*
X008553Y012575D01*
X008547Y012625D01*
X008545Y012675D01*
X001545Y012675D02*
X001547Y012725D01*
X001553Y012775D01*
X001563Y012824D01*
X001577Y012872D01*
X001594Y012919D01*
X001615Y012964D01*
X001640Y013008D01*
X001668Y013049D01*
X001700Y013088D01*
X001734Y013125D01*
X001771Y013159D01*
X001811Y013189D01*
X001853Y013216D01*
X001897Y013240D01*
X001943Y013261D01*
X001990Y013277D01*
X002038Y013290D01*
X002088Y013299D01*
X002137Y013304D01*
X002188Y013305D01*
X002238Y013302D01*
X002287Y013295D01*
X002336Y013284D01*
X002384Y013269D01*
X002430Y013251D01*
X002475Y013229D01*
X002518Y013203D01*
X002559Y013174D01*
X002598Y013142D01*
X002634Y013107D01*
X002666Y013069D01*
X002696Y013029D01*
X002723Y012986D01*
X002746Y012942D01*
X002765Y012896D01*
X002781Y012848D01*
X002793Y012799D01*
X002801Y012750D01*
X002805Y012700D01*
X002805Y012650D01*
X002801Y012600D01*
X002793Y012551D01*
X002781Y012502D01*
X002765Y012454D01*
X002746Y012408D01*
X002723Y012364D01*
X002696Y012321D01*
X002666Y012281D01*
X002634Y012243D01*
X002598Y012208D01*
X002559Y012176D01*
X002518Y012147D01*
X002475Y012121D01*
X002430Y012099D01*
X002384Y012081D01*
X002336Y012066D01*
X002287Y012055D01*
X002238Y012048D01*
X002188Y012045D01*
X002137Y012046D01*
X002088Y012051D01*
X002038Y012060D01*
X001990Y012073D01*
X001943Y012089D01*
X001897Y012110D01*
X001853Y012134D01*
X001811Y012161D01*
X001771Y012191D01*
X001734Y012225D01*
X001700Y012262D01*
X001668Y012301D01*
X001640Y012342D01*
X001615Y012386D01*
X001594Y012431D01*
X001577Y012478D01*
X001563Y012526D01*
X001553Y012575D01*
X001547Y012625D01*
X001545Y012675D01*
X001545Y019675D02*
X001547Y019725D01*
X001553Y019775D01*
X001563Y019824D01*
X001577Y019872D01*
X001594Y019919D01*
X001615Y019964D01*
X001640Y020008D01*
X001668Y020049D01*
X001700Y020088D01*
X001734Y020125D01*
X001771Y020159D01*
X001811Y020189D01*
X001853Y020216D01*
X001897Y020240D01*
X001943Y020261D01*
X001990Y020277D01*
X002038Y020290D01*
X002088Y020299D01*
X002137Y020304D01*
X002188Y020305D01*
X002238Y020302D01*
X002287Y020295D01*
X002336Y020284D01*
X002384Y020269D01*
X002430Y020251D01*
X002475Y020229D01*
X002518Y020203D01*
X002559Y020174D01*
X002598Y020142D01*
X002634Y020107D01*
X002666Y020069D01*
X002696Y020029D01*
X002723Y019986D01*
X002746Y019942D01*
X002765Y019896D01*
X002781Y019848D01*
X002793Y019799D01*
X002801Y019750D01*
X002805Y019700D01*
X002805Y019650D01*
X002801Y019600D01*
X002793Y019551D01*
X002781Y019502D01*
X002765Y019454D01*
X002746Y019408D01*
X002723Y019364D01*
X002696Y019321D01*
X002666Y019281D01*
X002634Y019243D01*
X002598Y019208D01*
X002559Y019176D01*
X002518Y019147D01*
X002475Y019121D01*
X002430Y019099D01*
X002384Y019081D01*
X002336Y019066D01*
X002287Y019055D01*
X002238Y019048D01*
X002188Y019045D01*
X002137Y019046D01*
X002088Y019051D01*
X002038Y019060D01*
X001990Y019073D01*
X001943Y019089D01*
X001897Y019110D01*
X001853Y019134D01*
X001811Y019161D01*
X001771Y019191D01*
X001734Y019225D01*
X001700Y019262D01*
X001668Y019301D01*
X001640Y019342D01*
X001615Y019386D01*
X001594Y019431D01*
X001577Y019478D01*
X001563Y019526D01*
X001553Y019575D01*
X001547Y019625D01*
X001545Y019675D01*
X008545Y019675D02*
X008547Y019725D01*
X008553Y019775D01*
X008563Y019824D01*
X008577Y019872D01*
X008594Y019919D01*
X008615Y019964D01*
X008640Y020008D01*
X008668Y020049D01*
X008700Y020088D01*
X008734Y020125D01*
X008771Y020159D01*
X008811Y020189D01*
X008853Y020216D01*
X008897Y020240D01*
X008943Y020261D01*
X008990Y020277D01*
X009038Y020290D01*
X009088Y020299D01*
X009137Y020304D01*
X009188Y020305D01*
X009238Y020302D01*
X009287Y020295D01*
X009336Y020284D01*
X009384Y020269D01*
X009430Y020251D01*
X009475Y020229D01*
X009518Y020203D01*
X009559Y020174D01*
X009598Y020142D01*
X009634Y020107D01*
X009666Y020069D01*
X009696Y020029D01*
X009723Y019986D01*
X009746Y019942D01*
X009765Y019896D01*
X009781Y019848D01*
X009793Y019799D01*
X009801Y019750D01*
X009805Y019700D01*
X009805Y019650D01*
X009801Y019600D01*
X009793Y019551D01*
X009781Y019502D01*
X009765Y019454D01*
X009746Y019408D01*
X009723Y019364D01*
X009696Y019321D01*
X009666Y019281D01*
X009634Y019243D01*
X009598Y019208D01*
X009559Y019176D01*
X009518Y019147D01*
X009475Y019121D01*
X009430Y019099D01*
X009384Y019081D01*
X009336Y019066D01*
X009287Y019055D01*
X009238Y019048D01*
X009188Y019045D01*
X009137Y019046D01*
X009088Y019051D01*
X009038Y019060D01*
X008990Y019073D01*
X008943Y019089D01*
X008897Y019110D01*
X008853Y019134D01*
X008811Y019161D01*
X008771Y019191D01*
X008734Y019225D01*
X008700Y019262D01*
X008668Y019301D01*
X008640Y019342D01*
X008615Y019386D01*
X008594Y019431D01*
X008577Y019478D01*
X008563Y019526D01*
X008553Y019575D01*
X008547Y019625D01*
X008545Y019675D01*
X011045Y019675D02*
X011047Y019725D01*
X011053Y019775D01*
X011063Y019824D01*
X011077Y019872D01*
X011094Y019919D01*
X011115Y019964D01*
X011140Y020008D01*
X011168Y020049D01*
X011200Y020088D01*
X011234Y020125D01*
X011271Y020159D01*
X011311Y020189D01*
X011353Y020216D01*
X011397Y020240D01*
X011443Y020261D01*
X011490Y020277D01*
X011538Y020290D01*
X011588Y020299D01*
X011637Y020304D01*
X011688Y020305D01*
X011738Y020302D01*
X011787Y020295D01*
X011836Y020284D01*
X011884Y020269D01*
X011930Y020251D01*
X011975Y020229D01*
X012018Y020203D01*
X012059Y020174D01*
X012098Y020142D01*
X012134Y020107D01*
X012166Y020069D01*
X012196Y020029D01*
X012223Y019986D01*
X012246Y019942D01*
X012265Y019896D01*
X012281Y019848D01*
X012293Y019799D01*
X012301Y019750D01*
X012305Y019700D01*
X012305Y019650D01*
X012301Y019600D01*
X012293Y019551D01*
X012281Y019502D01*
X012265Y019454D01*
X012246Y019408D01*
X012223Y019364D01*
X012196Y019321D01*
X012166Y019281D01*
X012134Y019243D01*
X012098Y019208D01*
X012059Y019176D01*
X012018Y019147D01*
X011975Y019121D01*
X011930Y019099D01*
X011884Y019081D01*
X011836Y019066D01*
X011787Y019055D01*
X011738Y019048D01*
X011688Y019045D01*
X011637Y019046D01*
X011588Y019051D01*
X011538Y019060D01*
X011490Y019073D01*
X011443Y019089D01*
X011397Y019110D01*
X011353Y019134D01*
X011311Y019161D01*
X011271Y019191D01*
X011234Y019225D01*
X011200Y019262D01*
X011168Y019301D01*
X011140Y019342D01*
X011115Y019386D01*
X011094Y019431D01*
X011077Y019478D01*
X011063Y019526D01*
X011053Y019575D01*
X011047Y019625D01*
X011045Y019675D01*
X018045Y019675D02*
X018047Y019725D01*
X018053Y019775D01*
X018063Y019824D01*
X018077Y019872D01*
X018094Y019919D01*
X018115Y019964D01*
X018140Y020008D01*
X018168Y020049D01*
X018200Y020088D01*
X018234Y020125D01*
X018271Y020159D01*
X018311Y020189D01*
X018353Y020216D01*
X018397Y020240D01*
X018443Y020261D01*
X018490Y020277D01*
X018538Y020290D01*
X018588Y020299D01*
X018637Y020304D01*
X018688Y020305D01*
X018738Y020302D01*
X018787Y020295D01*
X018836Y020284D01*
X018884Y020269D01*
X018930Y020251D01*
X018975Y020229D01*
X019018Y020203D01*
X019059Y020174D01*
X019098Y020142D01*
X019134Y020107D01*
X019166Y020069D01*
X019196Y020029D01*
X019223Y019986D01*
X019246Y019942D01*
X019265Y019896D01*
X019281Y019848D01*
X019293Y019799D01*
X019301Y019750D01*
X019305Y019700D01*
X019305Y019650D01*
X019301Y019600D01*
X019293Y019551D01*
X019281Y019502D01*
X019265Y019454D01*
X019246Y019408D01*
X019223Y019364D01*
X019196Y019321D01*
X019166Y019281D01*
X019134Y019243D01*
X019098Y019208D01*
X019059Y019176D01*
X019018Y019147D01*
X018975Y019121D01*
X018930Y019099D01*
X018884Y019081D01*
X018836Y019066D01*
X018787Y019055D01*
X018738Y019048D01*
X018688Y019045D01*
X018637Y019046D01*
X018588Y019051D01*
X018538Y019060D01*
X018490Y019073D01*
X018443Y019089D01*
X018397Y019110D01*
X018353Y019134D01*
X018311Y019161D01*
X018271Y019191D01*
X018234Y019225D01*
X018200Y019262D01*
X018168Y019301D01*
X018140Y019342D01*
X018115Y019386D01*
X018094Y019431D01*
X018077Y019478D01*
X018063Y019526D01*
X018053Y019575D01*
X018047Y019625D01*
X018045Y019675D01*
D11*
X018675Y019675D03*
X018675Y012675D03*
X011675Y012675D03*
X009175Y012675D03*
X009175Y019675D03*
X011675Y019675D03*
X002175Y019675D03*
X002175Y012675D03*
X002175Y002175D03*
X009175Y002175D03*
X011675Y002175D03*
X018675Y002175D03*
D12*
X015675Y003175D03*
X015675Y004175D03*
X015675Y005175D03*
X015675Y006175D03*
X014675Y006175D03*
X014675Y005175D03*
X014675Y004175D03*
X014675Y003175D03*
X005675Y003675D03*
X005675Y004675D03*
X005675Y005675D03*
X005675Y006675D03*
X004675Y006675D03*
X004675Y005675D03*
X004675Y004675D03*
X004675Y003675D03*
D13*
X008175Y003675D03*
X008175Y004675D03*
X008175Y005675D03*
X009175Y005675D03*
X009175Y004675D03*
X009175Y003675D03*
X017675Y003675D03*
X017675Y004675D03*
X017675Y005675D03*
X018675Y005675D03*
X018675Y004675D03*
X018675Y003675D03*
X018675Y007175D03*
X018675Y008175D03*
X018675Y009175D03*
X017675Y009175D03*
X017675Y008175D03*
X017675Y007175D03*
D14*
X012675Y009175D03*
X012175Y008425D03*
X011675Y009175D03*
X012175Y007425D03*
X012175Y003425D03*
X007675Y010175D03*
X007675Y011675D03*
X005675Y014175D03*
X005675Y015175D03*
X005675Y016175D03*
X003675Y011675D03*
X003675Y010175D03*
X011675Y014175D03*
X011675Y018175D03*
X013175Y018675D03*
X013175Y019675D03*
X017175Y019675D03*
X017175Y018675D03*
X018675Y018175D03*
X018675Y014175D03*
D15*
X006705Y014925D03*
X006705Y015425D03*
X006705Y015925D03*
X006705Y016425D03*
X004645Y016425D03*
X004645Y015925D03*
X004645Y015425D03*
X004645Y014925D03*
D16*
X004175Y018175D03*
X004175Y019175D03*
X007175Y019175D03*
X007175Y018175D03*
X017675Y016175D03*
X017675Y015175D03*
D17*
X005675Y017175D03*
D18*
X014175Y016175D03*
X015175Y015175D03*
X016175Y016175D03*
X015175Y017175D03*
D19*
X014675Y011992D02*
X014675Y011358D01*
X013675Y011358D02*
X013675Y011992D01*
X012675Y011992D02*
X012675Y011358D01*
X015675Y011358D02*
X015675Y011992D01*
X016675Y011992D02*
X016675Y011358D01*
X017675Y011358D02*
X017675Y011992D01*
M02*
