G75*
G70*
%OFA0B0*%
%FSLAX24Y24*%
%IPPOS*%
%LPD*%
%AMOC8*
5,1,8,0,0,1.08239X$1,22.5*
%
%ADD10C,0.0000*%
%ADD11OC8,0.0600*%
%ADD12OC8,0.0640*%
%ADD13C,0.0740*%
%ADD14R,0.0870X0.0240*%
%ADD15C,0.0650*%
%ADD16R,0.0740X0.0740*%
%ADD17C,0.0700*%
%ADD18C,0.0634*%
%ADD19C,0.0150*%
%ADD20C,0.0476*%
%ADD21C,0.0120*%
%ADD22C,0.0100*%
D10*
X001675Y001175D02*
X001175Y001675D01*
X001175Y020175D01*
X001675Y020675D01*
X009675Y020675D01*
X010425Y019925D01*
X011175Y020675D01*
X019175Y020675D01*
X019675Y020175D01*
X019675Y001675D01*
X019175Y001175D01*
X011175Y001175D01*
X010425Y001925D01*
X009675Y001175D01*
X001675Y001175D01*
X001545Y002175D02*
X001547Y002225D01*
X001553Y002275D01*
X001563Y002324D01*
X001577Y002372D01*
X001594Y002419D01*
X001615Y002464D01*
X001640Y002508D01*
X001668Y002549D01*
X001700Y002588D01*
X001734Y002625D01*
X001771Y002659D01*
X001811Y002689D01*
X001853Y002716D01*
X001897Y002740D01*
X001943Y002761D01*
X001990Y002777D01*
X002038Y002790D01*
X002088Y002799D01*
X002137Y002804D01*
X002188Y002805D01*
X002238Y002802D01*
X002287Y002795D01*
X002336Y002784D01*
X002384Y002769D01*
X002430Y002751D01*
X002475Y002729D01*
X002518Y002703D01*
X002559Y002674D01*
X002598Y002642D01*
X002634Y002607D01*
X002666Y002569D01*
X002696Y002529D01*
X002723Y002486D01*
X002746Y002442D01*
X002765Y002396D01*
X002781Y002348D01*
X002793Y002299D01*
X002801Y002250D01*
X002805Y002200D01*
X002805Y002150D01*
X002801Y002100D01*
X002793Y002051D01*
X002781Y002002D01*
X002765Y001954D01*
X002746Y001908D01*
X002723Y001864D01*
X002696Y001821D01*
X002666Y001781D01*
X002634Y001743D01*
X002598Y001708D01*
X002559Y001676D01*
X002518Y001647D01*
X002475Y001621D01*
X002430Y001599D01*
X002384Y001581D01*
X002336Y001566D01*
X002287Y001555D01*
X002238Y001548D01*
X002188Y001545D01*
X002137Y001546D01*
X002088Y001551D01*
X002038Y001560D01*
X001990Y001573D01*
X001943Y001589D01*
X001897Y001610D01*
X001853Y001634D01*
X001811Y001661D01*
X001771Y001691D01*
X001734Y001725D01*
X001700Y001762D01*
X001668Y001801D01*
X001640Y001842D01*
X001615Y001886D01*
X001594Y001931D01*
X001577Y001978D01*
X001563Y002026D01*
X001553Y002075D01*
X001547Y002125D01*
X001545Y002175D01*
X008545Y002175D02*
X008547Y002225D01*
X008553Y002275D01*
X008563Y002324D01*
X008577Y002372D01*
X008594Y002419D01*
X008615Y002464D01*
X008640Y002508D01*
X008668Y002549D01*
X008700Y002588D01*
X008734Y002625D01*
X008771Y002659D01*
X008811Y002689D01*
X008853Y002716D01*
X008897Y002740D01*
X008943Y002761D01*
X008990Y002777D01*
X009038Y002790D01*
X009088Y002799D01*
X009137Y002804D01*
X009188Y002805D01*
X009238Y002802D01*
X009287Y002795D01*
X009336Y002784D01*
X009384Y002769D01*
X009430Y002751D01*
X009475Y002729D01*
X009518Y002703D01*
X009559Y002674D01*
X009598Y002642D01*
X009634Y002607D01*
X009666Y002569D01*
X009696Y002529D01*
X009723Y002486D01*
X009746Y002442D01*
X009765Y002396D01*
X009781Y002348D01*
X009793Y002299D01*
X009801Y002250D01*
X009805Y002200D01*
X009805Y002150D01*
X009801Y002100D01*
X009793Y002051D01*
X009781Y002002D01*
X009765Y001954D01*
X009746Y001908D01*
X009723Y001864D01*
X009696Y001821D01*
X009666Y001781D01*
X009634Y001743D01*
X009598Y001708D01*
X009559Y001676D01*
X009518Y001647D01*
X009475Y001621D01*
X009430Y001599D01*
X009384Y001581D01*
X009336Y001566D01*
X009287Y001555D01*
X009238Y001548D01*
X009188Y001545D01*
X009137Y001546D01*
X009088Y001551D01*
X009038Y001560D01*
X008990Y001573D01*
X008943Y001589D01*
X008897Y001610D01*
X008853Y001634D01*
X008811Y001661D01*
X008771Y001691D01*
X008734Y001725D01*
X008700Y001762D01*
X008668Y001801D01*
X008640Y001842D01*
X008615Y001886D01*
X008594Y001931D01*
X008577Y001978D01*
X008563Y002026D01*
X008553Y002075D01*
X008547Y002125D01*
X008545Y002175D01*
X011045Y002175D02*
X011047Y002225D01*
X011053Y002275D01*
X011063Y002324D01*
X011077Y002372D01*
X011094Y002419D01*
X011115Y002464D01*
X011140Y002508D01*
X011168Y002549D01*
X011200Y002588D01*
X011234Y002625D01*
X011271Y002659D01*
X011311Y002689D01*
X011353Y002716D01*
X011397Y002740D01*
X011443Y002761D01*
X011490Y002777D01*
X011538Y002790D01*
X011588Y002799D01*
X011637Y002804D01*
X011688Y002805D01*
X011738Y002802D01*
X011787Y002795D01*
X011836Y002784D01*
X011884Y002769D01*
X011930Y002751D01*
X011975Y002729D01*
X012018Y002703D01*
X012059Y002674D01*
X012098Y002642D01*
X012134Y002607D01*
X012166Y002569D01*
X012196Y002529D01*
X012223Y002486D01*
X012246Y002442D01*
X012265Y002396D01*
X012281Y002348D01*
X012293Y002299D01*
X012301Y002250D01*
X012305Y002200D01*
X012305Y002150D01*
X012301Y002100D01*
X012293Y002051D01*
X012281Y002002D01*
X012265Y001954D01*
X012246Y001908D01*
X012223Y001864D01*
X012196Y001821D01*
X012166Y001781D01*
X012134Y001743D01*
X012098Y001708D01*
X012059Y001676D01*
X012018Y001647D01*
X011975Y001621D01*
X011930Y001599D01*
X011884Y001581D01*
X011836Y001566D01*
X011787Y001555D01*
X011738Y001548D01*
X011688Y001545D01*
X011637Y001546D01*
X011588Y001551D01*
X011538Y001560D01*
X011490Y001573D01*
X011443Y001589D01*
X011397Y001610D01*
X011353Y001634D01*
X011311Y001661D01*
X011271Y001691D01*
X011234Y001725D01*
X011200Y001762D01*
X011168Y001801D01*
X011140Y001842D01*
X011115Y001886D01*
X011094Y001931D01*
X011077Y001978D01*
X011063Y002026D01*
X011053Y002075D01*
X011047Y002125D01*
X011045Y002175D01*
X018045Y002175D02*
X018047Y002225D01*
X018053Y002275D01*
X018063Y002324D01*
X018077Y002372D01*
X018094Y002419D01*
X018115Y002464D01*
X018140Y002508D01*
X018168Y002549D01*
X018200Y002588D01*
X018234Y002625D01*
X018271Y002659D01*
X018311Y002689D01*
X018353Y002716D01*
X018397Y002740D01*
X018443Y002761D01*
X018490Y002777D01*
X018538Y002790D01*
X018588Y002799D01*
X018637Y002804D01*
X018688Y002805D01*
X018738Y002802D01*
X018787Y002795D01*
X018836Y002784D01*
X018884Y002769D01*
X018930Y002751D01*
X018975Y002729D01*
X019018Y002703D01*
X019059Y002674D01*
X019098Y002642D01*
X019134Y002607D01*
X019166Y002569D01*
X019196Y002529D01*
X019223Y002486D01*
X019246Y002442D01*
X019265Y002396D01*
X019281Y002348D01*
X019293Y002299D01*
X019301Y002250D01*
X019305Y002200D01*
X019305Y002150D01*
X019301Y002100D01*
X019293Y002051D01*
X019281Y002002D01*
X019265Y001954D01*
X019246Y001908D01*
X019223Y001864D01*
X019196Y001821D01*
X019166Y001781D01*
X019134Y001743D01*
X019098Y001708D01*
X019059Y001676D01*
X019018Y001647D01*
X018975Y001621D01*
X018930Y001599D01*
X018884Y001581D01*
X018836Y001566D01*
X018787Y001555D01*
X018738Y001548D01*
X018688Y001545D01*
X018637Y001546D01*
X018588Y001551D01*
X018538Y001560D01*
X018490Y001573D01*
X018443Y001589D01*
X018397Y001610D01*
X018353Y001634D01*
X018311Y001661D01*
X018271Y001691D01*
X018234Y001725D01*
X018200Y001762D01*
X018168Y001801D01*
X018140Y001842D01*
X018115Y001886D01*
X018094Y001931D01*
X018077Y001978D01*
X018063Y002026D01*
X018053Y002075D01*
X018047Y002125D01*
X018045Y002175D01*
X018045Y012675D02*
X018047Y012725D01*
X018053Y012775D01*
X018063Y012824D01*
X018077Y012872D01*
X018094Y012919D01*
X018115Y012964D01*
X018140Y013008D01*
X018168Y013049D01*
X018200Y013088D01*
X018234Y013125D01*
X018271Y013159D01*
X018311Y013189D01*
X018353Y013216D01*
X018397Y013240D01*
X018443Y013261D01*
X018490Y013277D01*
X018538Y013290D01*
X018588Y013299D01*
X018637Y013304D01*
X018688Y013305D01*
X018738Y013302D01*
X018787Y013295D01*
X018836Y013284D01*
X018884Y013269D01*
X018930Y013251D01*
X018975Y013229D01*
X019018Y013203D01*
X019059Y013174D01*
X019098Y013142D01*
X019134Y013107D01*
X019166Y013069D01*
X019196Y013029D01*
X019223Y012986D01*
X019246Y012942D01*
X019265Y012896D01*
X019281Y012848D01*
X019293Y012799D01*
X019301Y012750D01*
X019305Y012700D01*
X019305Y012650D01*
X019301Y012600D01*
X019293Y012551D01*
X019281Y012502D01*
X019265Y012454D01*
X019246Y012408D01*
X019223Y012364D01*
X019196Y012321D01*
X019166Y012281D01*
X019134Y012243D01*
X019098Y012208D01*
X019059Y012176D01*
X019018Y012147D01*
X018975Y012121D01*
X018930Y012099D01*
X018884Y012081D01*
X018836Y012066D01*
X018787Y012055D01*
X018738Y012048D01*
X018688Y012045D01*
X018637Y012046D01*
X018588Y012051D01*
X018538Y012060D01*
X018490Y012073D01*
X018443Y012089D01*
X018397Y012110D01*
X018353Y012134D01*
X018311Y012161D01*
X018271Y012191D01*
X018234Y012225D01*
X018200Y012262D01*
X018168Y012301D01*
X018140Y012342D01*
X018115Y012386D01*
X018094Y012431D01*
X018077Y012478D01*
X018063Y012526D01*
X018053Y012575D01*
X018047Y012625D01*
X018045Y012675D01*
X011045Y012675D02*
X011047Y012725D01*
X011053Y012775D01*
X011063Y012824D01*
X011077Y012872D01*
X011094Y012919D01*
X011115Y012964D01*
X011140Y013008D01*
X011168Y013049D01*
X011200Y013088D01*
X011234Y013125D01*
X011271Y013159D01*
X011311Y013189D01*
X011353Y013216D01*
X011397Y013240D01*
X011443Y013261D01*
X011490Y013277D01*
X011538Y013290D01*
X011588Y013299D01*
X011637Y013304D01*
X011688Y013305D01*
X011738Y013302D01*
X011787Y013295D01*
X011836Y013284D01*
X011884Y013269D01*
X011930Y013251D01*
X011975Y013229D01*
X012018Y013203D01*
X012059Y013174D01*
X012098Y013142D01*
X012134Y013107D01*
X012166Y013069D01*
X012196Y013029D01*
X012223Y012986D01*
X012246Y012942D01*
X012265Y012896D01*
X012281Y012848D01*
X012293Y012799D01*
X012301Y012750D01*
X012305Y012700D01*
X012305Y012650D01*
X012301Y012600D01*
X012293Y012551D01*
X012281Y012502D01*
X012265Y012454D01*
X012246Y012408D01*
X012223Y012364D01*
X012196Y012321D01*
X012166Y012281D01*
X012134Y012243D01*
X012098Y012208D01*
X012059Y012176D01*
X012018Y012147D01*
X011975Y012121D01*
X011930Y012099D01*
X011884Y012081D01*
X011836Y012066D01*
X011787Y012055D01*
X011738Y012048D01*
X011688Y012045D01*
X011637Y012046D01*
X011588Y012051D01*
X011538Y012060D01*
X011490Y012073D01*
X011443Y012089D01*
X011397Y012110D01*
X011353Y012134D01*
X011311Y012161D01*
X011271Y012191D01*
X011234Y012225D01*
X011200Y012262D01*
X011168Y012301D01*
X011140Y012342D01*
X011115Y012386D01*
X011094Y012431D01*
X011077Y012478D01*
X011063Y012526D01*
X011053Y012575D01*
X011047Y012625D01*
X011045Y012675D01*
X008545Y012675D02*
X008547Y012725D01*
X008553Y012775D01*
X008563Y012824D01*
X008577Y012872D01*
X008594Y012919D01*
X008615Y012964D01*
X008640Y013008D01*
X008668Y013049D01*
X008700Y013088D01*
X008734Y013125D01*
X008771Y013159D01*
X008811Y013189D01*
X008853Y013216D01*
X008897Y013240D01*
X008943Y013261D01*
X008990Y013277D01*
X009038Y013290D01*
X009088Y013299D01*
X009137Y013304D01*
X009188Y013305D01*
X009238Y013302D01*
X009287Y013295D01*
X009336Y013284D01*
X009384Y013269D01*
X009430Y013251D01*
X009475Y013229D01*
X009518Y013203D01*
X009559Y013174D01*
X009598Y013142D01*
X009634Y013107D01*
X009666Y013069D01*
X009696Y013029D01*
X009723Y012986D01*
X009746Y012942D01*
X009765Y012896D01*
X009781Y012848D01*
X009793Y012799D01*
X009801Y012750D01*
X009805Y012700D01*
X009805Y012650D01*
X009801Y012600D01*
X009793Y012551D01*
X009781Y012502D01*
X009765Y012454D01*
X009746Y012408D01*
X009723Y012364D01*
X009696Y012321D01*
X009666Y012281D01*
X009634Y012243D01*
X009598Y012208D01*
X009559Y012176D01*
X009518Y012147D01*
X009475Y012121D01*
X009430Y012099D01*
X009384Y012081D01*
X009336Y012066D01*
X009287Y012055D01*
X009238Y012048D01*
X009188Y012045D01*
X009137Y012046D01*
X009088Y012051D01*
X009038Y012060D01*
X008990Y012073D01*
X008943Y012089D01*
X008897Y012110D01*
X008853Y012134D01*
X008811Y012161D01*
X008771Y012191D01*
X008734Y012225D01*
X008700Y012262D01*
X008668Y012301D01*
X008640Y012342D01*
X008615Y012386D01*
X008594Y012431D01*
X008577Y012478D01*
X008563Y012526D01*
X008553Y012575D01*
X008547Y012625D01*
X008545Y012675D01*
X001545Y012675D02*
X001547Y012725D01*
X001553Y012775D01*
X001563Y012824D01*
X001577Y012872D01*
X001594Y012919D01*
X001615Y012964D01*
X001640Y013008D01*
X001668Y013049D01*
X001700Y013088D01*
X001734Y013125D01*
X001771Y013159D01*
X001811Y013189D01*
X001853Y013216D01*
X001897Y013240D01*
X001943Y013261D01*
X001990Y013277D01*
X002038Y013290D01*
X002088Y013299D01*
X002137Y013304D01*
X002188Y013305D01*
X002238Y013302D01*
X002287Y013295D01*
X002336Y013284D01*
X002384Y013269D01*
X002430Y013251D01*
X002475Y013229D01*
X002518Y013203D01*
X002559Y013174D01*
X002598Y013142D01*
X002634Y013107D01*
X002666Y013069D01*
X002696Y013029D01*
X002723Y012986D01*
X002746Y012942D01*
X002765Y012896D01*
X002781Y012848D01*
X002793Y012799D01*
X002801Y012750D01*
X002805Y012700D01*
X002805Y012650D01*
X002801Y012600D01*
X002793Y012551D01*
X002781Y012502D01*
X002765Y012454D01*
X002746Y012408D01*
X002723Y012364D01*
X002696Y012321D01*
X002666Y012281D01*
X002634Y012243D01*
X002598Y012208D01*
X002559Y012176D01*
X002518Y012147D01*
X002475Y012121D01*
X002430Y012099D01*
X002384Y012081D01*
X002336Y012066D01*
X002287Y012055D01*
X002238Y012048D01*
X002188Y012045D01*
X002137Y012046D01*
X002088Y012051D01*
X002038Y012060D01*
X001990Y012073D01*
X001943Y012089D01*
X001897Y012110D01*
X001853Y012134D01*
X001811Y012161D01*
X001771Y012191D01*
X001734Y012225D01*
X001700Y012262D01*
X001668Y012301D01*
X001640Y012342D01*
X001615Y012386D01*
X001594Y012431D01*
X001577Y012478D01*
X001563Y012526D01*
X001553Y012575D01*
X001547Y012625D01*
X001545Y012675D01*
X001545Y019675D02*
X001547Y019725D01*
X001553Y019775D01*
X001563Y019824D01*
X001577Y019872D01*
X001594Y019919D01*
X001615Y019964D01*
X001640Y020008D01*
X001668Y020049D01*
X001700Y020088D01*
X001734Y020125D01*
X001771Y020159D01*
X001811Y020189D01*
X001853Y020216D01*
X001897Y020240D01*
X001943Y020261D01*
X001990Y020277D01*
X002038Y020290D01*
X002088Y020299D01*
X002137Y020304D01*
X002188Y020305D01*
X002238Y020302D01*
X002287Y020295D01*
X002336Y020284D01*
X002384Y020269D01*
X002430Y020251D01*
X002475Y020229D01*
X002518Y020203D01*
X002559Y020174D01*
X002598Y020142D01*
X002634Y020107D01*
X002666Y020069D01*
X002696Y020029D01*
X002723Y019986D01*
X002746Y019942D01*
X002765Y019896D01*
X002781Y019848D01*
X002793Y019799D01*
X002801Y019750D01*
X002805Y019700D01*
X002805Y019650D01*
X002801Y019600D01*
X002793Y019551D01*
X002781Y019502D01*
X002765Y019454D01*
X002746Y019408D01*
X002723Y019364D01*
X002696Y019321D01*
X002666Y019281D01*
X002634Y019243D01*
X002598Y019208D01*
X002559Y019176D01*
X002518Y019147D01*
X002475Y019121D01*
X002430Y019099D01*
X002384Y019081D01*
X002336Y019066D01*
X002287Y019055D01*
X002238Y019048D01*
X002188Y019045D01*
X002137Y019046D01*
X002088Y019051D01*
X002038Y019060D01*
X001990Y019073D01*
X001943Y019089D01*
X001897Y019110D01*
X001853Y019134D01*
X001811Y019161D01*
X001771Y019191D01*
X001734Y019225D01*
X001700Y019262D01*
X001668Y019301D01*
X001640Y019342D01*
X001615Y019386D01*
X001594Y019431D01*
X001577Y019478D01*
X001563Y019526D01*
X001553Y019575D01*
X001547Y019625D01*
X001545Y019675D01*
X008545Y019675D02*
X008547Y019725D01*
X008553Y019775D01*
X008563Y019824D01*
X008577Y019872D01*
X008594Y019919D01*
X008615Y019964D01*
X008640Y020008D01*
X008668Y020049D01*
X008700Y020088D01*
X008734Y020125D01*
X008771Y020159D01*
X008811Y020189D01*
X008853Y020216D01*
X008897Y020240D01*
X008943Y020261D01*
X008990Y020277D01*
X009038Y020290D01*
X009088Y020299D01*
X009137Y020304D01*
X009188Y020305D01*
X009238Y020302D01*
X009287Y020295D01*
X009336Y020284D01*
X009384Y020269D01*
X009430Y020251D01*
X009475Y020229D01*
X009518Y020203D01*
X009559Y020174D01*
X009598Y020142D01*
X009634Y020107D01*
X009666Y020069D01*
X009696Y020029D01*
X009723Y019986D01*
X009746Y019942D01*
X009765Y019896D01*
X009781Y019848D01*
X009793Y019799D01*
X009801Y019750D01*
X009805Y019700D01*
X009805Y019650D01*
X009801Y019600D01*
X009793Y019551D01*
X009781Y019502D01*
X009765Y019454D01*
X009746Y019408D01*
X009723Y019364D01*
X009696Y019321D01*
X009666Y019281D01*
X009634Y019243D01*
X009598Y019208D01*
X009559Y019176D01*
X009518Y019147D01*
X009475Y019121D01*
X009430Y019099D01*
X009384Y019081D01*
X009336Y019066D01*
X009287Y019055D01*
X009238Y019048D01*
X009188Y019045D01*
X009137Y019046D01*
X009088Y019051D01*
X009038Y019060D01*
X008990Y019073D01*
X008943Y019089D01*
X008897Y019110D01*
X008853Y019134D01*
X008811Y019161D01*
X008771Y019191D01*
X008734Y019225D01*
X008700Y019262D01*
X008668Y019301D01*
X008640Y019342D01*
X008615Y019386D01*
X008594Y019431D01*
X008577Y019478D01*
X008563Y019526D01*
X008553Y019575D01*
X008547Y019625D01*
X008545Y019675D01*
X011045Y019675D02*
X011047Y019725D01*
X011053Y019775D01*
X011063Y019824D01*
X011077Y019872D01*
X011094Y019919D01*
X011115Y019964D01*
X011140Y020008D01*
X011168Y020049D01*
X011200Y020088D01*
X011234Y020125D01*
X011271Y020159D01*
X011311Y020189D01*
X011353Y020216D01*
X011397Y020240D01*
X011443Y020261D01*
X011490Y020277D01*
X011538Y020290D01*
X011588Y020299D01*
X011637Y020304D01*
X011688Y020305D01*
X011738Y020302D01*
X011787Y020295D01*
X011836Y020284D01*
X011884Y020269D01*
X011930Y020251D01*
X011975Y020229D01*
X012018Y020203D01*
X012059Y020174D01*
X012098Y020142D01*
X012134Y020107D01*
X012166Y020069D01*
X012196Y020029D01*
X012223Y019986D01*
X012246Y019942D01*
X012265Y019896D01*
X012281Y019848D01*
X012293Y019799D01*
X012301Y019750D01*
X012305Y019700D01*
X012305Y019650D01*
X012301Y019600D01*
X012293Y019551D01*
X012281Y019502D01*
X012265Y019454D01*
X012246Y019408D01*
X012223Y019364D01*
X012196Y019321D01*
X012166Y019281D01*
X012134Y019243D01*
X012098Y019208D01*
X012059Y019176D01*
X012018Y019147D01*
X011975Y019121D01*
X011930Y019099D01*
X011884Y019081D01*
X011836Y019066D01*
X011787Y019055D01*
X011738Y019048D01*
X011688Y019045D01*
X011637Y019046D01*
X011588Y019051D01*
X011538Y019060D01*
X011490Y019073D01*
X011443Y019089D01*
X011397Y019110D01*
X011353Y019134D01*
X011311Y019161D01*
X011271Y019191D01*
X011234Y019225D01*
X011200Y019262D01*
X011168Y019301D01*
X011140Y019342D01*
X011115Y019386D01*
X011094Y019431D01*
X011077Y019478D01*
X011063Y019526D01*
X011053Y019575D01*
X011047Y019625D01*
X011045Y019675D01*
X018045Y019675D02*
X018047Y019725D01*
X018053Y019775D01*
X018063Y019824D01*
X018077Y019872D01*
X018094Y019919D01*
X018115Y019964D01*
X018140Y020008D01*
X018168Y020049D01*
X018200Y020088D01*
X018234Y020125D01*
X018271Y020159D01*
X018311Y020189D01*
X018353Y020216D01*
X018397Y020240D01*
X018443Y020261D01*
X018490Y020277D01*
X018538Y020290D01*
X018588Y020299D01*
X018637Y020304D01*
X018688Y020305D01*
X018738Y020302D01*
X018787Y020295D01*
X018836Y020284D01*
X018884Y020269D01*
X018930Y020251D01*
X018975Y020229D01*
X019018Y020203D01*
X019059Y020174D01*
X019098Y020142D01*
X019134Y020107D01*
X019166Y020069D01*
X019196Y020029D01*
X019223Y019986D01*
X019246Y019942D01*
X019265Y019896D01*
X019281Y019848D01*
X019293Y019799D01*
X019301Y019750D01*
X019305Y019700D01*
X019305Y019650D01*
X019301Y019600D01*
X019293Y019551D01*
X019281Y019502D01*
X019265Y019454D01*
X019246Y019408D01*
X019223Y019364D01*
X019196Y019321D01*
X019166Y019281D01*
X019134Y019243D01*
X019098Y019208D01*
X019059Y019176D01*
X019018Y019147D01*
X018975Y019121D01*
X018930Y019099D01*
X018884Y019081D01*
X018836Y019066D01*
X018787Y019055D01*
X018738Y019048D01*
X018688Y019045D01*
X018637Y019046D01*
X018588Y019051D01*
X018538Y019060D01*
X018490Y019073D01*
X018443Y019089D01*
X018397Y019110D01*
X018353Y019134D01*
X018311Y019161D01*
X018271Y019191D01*
X018234Y019225D01*
X018200Y019262D01*
X018168Y019301D01*
X018140Y019342D01*
X018115Y019386D01*
X018094Y019431D01*
X018077Y019478D01*
X018063Y019526D01*
X018053Y019575D01*
X018047Y019625D01*
X018045Y019675D01*
D11*
X005675Y006675D03*
X005675Y005675D03*
X005675Y004675D03*
X005675Y003675D03*
X004675Y003675D03*
X004675Y004675D03*
X004675Y005675D03*
X004675Y006675D03*
X014675Y006175D03*
X014675Y005175D03*
X014675Y004175D03*
X014675Y003175D03*
X015675Y003175D03*
X015675Y004175D03*
X015675Y005175D03*
X015675Y006175D03*
D12*
X017675Y005675D03*
X017675Y004675D03*
X017675Y003675D03*
X018675Y003675D03*
X018675Y004675D03*
X018675Y005675D03*
X018675Y007175D03*
X018675Y008175D03*
X018675Y009175D03*
X017675Y009175D03*
X017675Y008175D03*
X017675Y007175D03*
X009175Y005675D03*
X009175Y004675D03*
X009175Y003675D03*
X008175Y003675D03*
X008175Y004675D03*
X008175Y005675D03*
D13*
X011675Y009175D03*
X012175Y008425D03*
X012675Y009175D03*
X012175Y007425D03*
X012175Y003425D03*
X007675Y010175D03*
X007675Y011675D03*
X005675Y014175D03*
X005675Y015175D03*
X005675Y016175D03*
X003675Y011675D03*
X003675Y010175D03*
X011675Y014175D03*
X011675Y018175D03*
X013175Y018675D03*
X013175Y019675D03*
X017175Y019675D03*
X017175Y018675D03*
X018675Y018175D03*
X018675Y014175D03*
D14*
X006705Y014925D03*
X006705Y015425D03*
X006705Y015925D03*
X006705Y016425D03*
X004645Y016425D03*
X004645Y015925D03*
X004645Y015425D03*
X004645Y014925D03*
D15*
X004175Y018175D03*
X004175Y019175D03*
X007175Y019175D03*
X007175Y018175D03*
X017675Y016175D03*
X017675Y015175D03*
D16*
X005675Y017175D03*
D17*
X014175Y016175D03*
X015175Y015175D03*
X016175Y016175D03*
X015175Y017175D03*
D18*
X014675Y011992D02*
X014675Y011358D01*
X013675Y011358D02*
X013675Y011992D01*
X012675Y011992D02*
X012675Y011358D01*
X015675Y011358D02*
X015675Y011992D01*
X016675Y011992D02*
X016675Y011358D01*
X017675Y011358D02*
X017675Y011992D01*
D19*
X017175Y012385D02*
X017033Y012528D01*
X016801Y012624D01*
X016549Y012624D01*
X016317Y012528D01*
X016139Y012350D01*
X016097Y012247D01*
X016096Y012250D01*
X016050Y012312D01*
X015995Y012367D01*
X015933Y012413D01*
X015864Y012448D01*
X015790Y012472D01*
X015714Y012484D01*
X015698Y012484D01*
X015698Y011698D01*
X015652Y011698D01*
X015652Y012484D01*
X015636Y012484D01*
X015560Y012472D01*
X015486Y012448D01*
X015417Y012413D01*
X015355Y012367D01*
X015300Y012312D01*
X015254Y012250D01*
X015253Y012247D01*
X015211Y012350D01*
X015033Y012528D01*
X014801Y012624D01*
X014549Y012624D01*
X014317Y012528D01*
X014175Y012385D01*
X014033Y012528D01*
X013801Y012624D01*
X013549Y012624D01*
X013317Y012528D01*
X013175Y012385D01*
X013065Y012495D01*
X013065Y013785D01*
X018096Y013785D01*
X018287Y013594D01*
X018356Y013566D01*
X018140Y013476D01*
X017874Y013210D01*
X017730Y012863D01*
X017730Y012624D01*
X017549Y012624D01*
X017317Y012528D01*
X017175Y012385D01*
X017099Y012461D02*
X017251Y012461D01*
X017515Y012610D02*
X016835Y012610D01*
X016515Y012610D02*
X014835Y012610D01*
X015099Y012461D02*
X015527Y012461D01*
X015652Y012461D02*
X015698Y012461D01*
X015823Y012461D02*
X016251Y012461D01*
X016124Y012313D02*
X016050Y012313D01*
X015698Y012313D02*
X015652Y012313D01*
X015652Y012164D02*
X015698Y012164D01*
X015698Y012016D02*
X015652Y012016D01*
X015652Y011867D02*
X015698Y011867D01*
X015698Y011719D02*
X015652Y011719D01*
X015675Y011675D02*
X015675Y010175D01*
X014675Y009175D01*
X012675Y009175D01*
X012680Y009170D02*
X012680Y009180D01*
X013220Y009180D01*
X013220Y009218D01*
X013207Y009303D01*
X013180Y009384D01*
X013141Y009461D01*
X013091Y009530D01*
X013030Y009591D01*
X012961Y009641D01*
X012884Y009680D01*
X012803Y009707D01*
X012718Y009720D01*
X012680Y009720D01*
X012680Y009180D01*
X012670Y009180D01*
X012670Y009720D01*
X012632Y009720D01*
X012547Y009707D01*
X012466Y009680D01*
X012389Y009641D01*
X012320Y009591D01*
X012266Y009537D01*
X012256Y009563D01*
X012185Y009634D01*
X013006Y010454D01*
X013065Y010597D01*
X013065Y010855D01*
X013175Y010965D01*
X013317Y010822D01*
X013549Y010726D01*
X013801Y010726D01*
X014033Y010822D01*
X014175Y010965D01*
X014317Y010822D01*
X014549Y010726D01*
X014801Y010726D01*
X015033Y010822D01*
X015211Y011000D01*
X015253Y011103D01*
X015254Y011100D01*
X015300Y011038D01*
X015355Y010983D01*
X015417Y010937D01*
X015486Y010902D01*
X015560Y010878D01*
X015636Y010866D01*
X015652Y010866D01*
X015652Y011652D01*
X015698Y011652D01*
X015698Y010866D01*
X015714Y010866D01*
X015790Y010878D01*
X015864Y010902D01*
X015933Y010937D01*
X015995Y010983D01*
X016050Y011038D01*
X016096Y011100D01*
X016097Y011103D01*
X016139Y011000D01*
X016285Y010855D01*
X016285Y010097D01*
X016344Y009954D01*
X016454Y009844D01*
X016597Y009785D01*
X017387Y009785D01*
X017142Y009540D01*
X016602Y009540D01*
X016468Y009484D01*
X016366Y009382D01*
X015774Y008790D01*
X013061Y008790D01*
X013091Y008820D01*
X013141Y008889D01*
X013180Y008966D01*
X013207Y009047D01*
X013220Y009132D01*
X013220Y009170D01*
X012680Y009170D01*
X012680Y009194D02*
X012670Y009194D01*
X012670Y009343D02*
X012680Y009343D01*
X012670Y009491D02*
X012680Y009491D01*
X012670Y009640D02*
X012680Y009640D01*
X012387Y009640D02*
X012191Y009640D01*
X012340Y009788D02*
X016590Y009788D01*
X016362Y009937D02*
X012488Y009937D01*
X012637Y010085D02*
X016290Y010085D01*
X016285Y010234D02*
X012785Y010234D01*
X012934Y010382D02*
X016285Y010382D01*
X016285Y010531D02*
X013037Y010531D01*
X013065Y010679D02*
X016285Y010679D01*
X016285Y010828D02*
X015038Y010828D01*
X015186Y010976D02*
X015364Y010976D01*
X015652Y010976D02*
X015698Y010976D01*
X015698Y011125D02*
X015652Y011125D01*
X015652Y011273D02*
X015698Y011273D01*
X015698Y011422D02*
X015652Y011422D01*
X015652Y011570D02*
X015698Y011570D01*
X015986Y010976D02*
X016164Y010976D01*
X016675Y011675D02*
X016675Y010175D01*
X018175Y010175D01*
X018675Y009675D01*
X018675Y009175D01*
X018675Y008175D01*
X018675Y007175D01*
X018675Y006425D01*
X016925Y006425D01*
X016175Y005675D01*
X015175Y005675D01*
X014675Y005175D01*
X014660Y004190D02*
X014200Y004190D01*
X014200Y004310D01*
X013602Y004310D01*
X013468Y004366D01*
X011968Y005866D01*
X011866Y005968D01*
X011810Y006102D01*
X011810Y006835D01*
X011787Y006844D01*
X011594Y007037D01*
X011490Y007289D01*
X011490Y007561D01*
X011594Y007813D01*
X011706Y007925D01*
X011594Y008037D01*
X011490Y008289D01*
X011490Y008510D01*
X011287Y008594D01*
X011094Y008787D01*
X010990Y009039D01*
X010990Y009311D01*
X011094Y009563D01*
X011286Y009755D01*
X011344Y009896D01*
X011454Y010006D01*
X012285Y010837D01*
X012285Y010855D01*
X012139Y011000D01*
X012043Y011232D01*
X012043Y011805D01*
X011863Y011730D01*
X011487Y011730D01*
X011140Y011874D01*
X010874Y012140D01*
X010730Y012487D01*
X010730Y012863D01*
X010874Y013210D01*
X011140Y013476D01*
X011356Y013566D01*
X011287Y013594D01*
X011094Y013787D01*
X010990Y014039D01*
X010990Y014311D01*
X011094Y014563D01*
X011287Y014756D01*
X011539Y014860D01*
X011811Y014860D01*
X012063Y014756D01*
X012254Y014565D01*
X018096Y014565D01*
X018287Y014756D01*
X018539Y014860D01*
X018811Y014860D01*
X019063Y014756D01*
X019256Y014563D01*
X019360Y014311D01*
X019360Y014039D01*
X019256Y013787D01*
X019063Y013594D01*
X018994Y013566D01*
X019210Y013476D01*
X019360Y013326D01*
X019360Y019024D01*
X019210Y018874D01*
X018994Y018784D01*
X019063Y018756D01*
X019256Y018563D01*
X019360Y018311D01*
X019360Y018039D01*
X019256Y017787D01*
X019063Y017594D01*
X018811Y017490D01*
X018542Y017490D01*
X018256Y017204D01*
X018256Y017204D01*
X018146Y017094D01*
X018003Y017035D01*
X016847Y017035D01*
X016704Y017094D01*
X015763Y018035D01*
X014587Y018035D01*
X013756Y017204D01*
X013756Y017204D01*
X013646Y017094D01*
X013503Y017035D01*
X012347Y017035D01*
X012204Y017094D01*
X011808Y017490D01*
X011539Y017490D01*
X011287Y017594D01*
X011094Y017787D01*
X010990Y018039D01*
X010990Y018311D01*
X011094Y018563D01*
X011287Y018756D01*
X011356Y018784D01*
X011140Y018874D01*
X010874Y019140D01*
X010730Y019487D01*
X010730Y019785D01*
X010675Y019730D01*
X010675Y002120D01*
X010730Y002065D01*
X010730Y002363D01*
X010874Y002710D01*
X011140Y002976D01*
X011487Y003120D01*
X011723Y003120D01*
X011709Y003139D01*
X011670Y003216D01*
X011643Y003297D01*
X011630Y003382D01*
X011630Y003411D01*
X012161Y003411D01*
X012161Y003439D01*
X012161Y003970D01*
X012132Y003970D01*
X012047Y003957D01*
X011966Y003930D01*
X011889Y003891D01*
X011820Y003841D01*
X011759Y003780D01*
X011709Y003711D01*
X011670Y003634D01*
X011643Y003553D01*
X011630Y003468D01*
X011630Y003439D01*
X012161Y003439D01*
X012189Y003439D01*
X012189Y003970D01*
X012218Y003970D01*
X012303Y003957D01*
X012384Y003930D01*
X012461Y003891D01*
X012530Y003841D01*
X012591Y003780D01*
X012641Y003711D01*
X012680Y003634D01*
X012707Y003553D01*
X012720Y003468D01*
X012720Y003439D01*
X012189Y003439D01*
X012189Y003411D01*
X012720Y003411D01*
X012720Y003382D01*
X012707Y003297D01*
X012680Y003216D01*
X012641Y003139D01*
X012591Y003070D01*
X012530Y003009D01*
X012461Y002959D01*
X012384Y002920D01*
X012303Y002893D01*
X012294Y002892D01*
X012476Y002710D01*
X012620Y002363D01*
X012620Y001987D01*
X012476Y001640D01*
X012326Y001490D01*
X018024Y001490D01*
X017874Y001640D01*
X017730Y001987D01*
X017730Y002363D01*
X017874Y002710D01*
X018140Y002976D01*
X018377Y003075D01*
X018175Y003277D01*
X017938Y003040D01*
X017412Y003040D01*
X017065Y003387D01*
X017065Y003097D01*
X017006Y002954D01*
X016896Y002844D01*
X016753Y002785D01*
X016155Y002785D01*
X015930Y002560D01*
X015420Y002560D01*
X015175Y002805D01*
X014930Y002560D01*
X014420Y002560D01*
X014060Y002920D01*
X014060Y003430D01*
X014404Y003774D01*
X014200Y003978D01*
X014200Y004160D01*
X014660Y004160D01*
X014660Y004190D01*
X014200Y004145D02*
X010675Y004145D01*
X010675Y003997D02*
X014200Y003997D01*
X014330Y003848D02*
X012520Y003848D01*
X012647Y003700D02*
X014330Y003700D01*
X014181Y003551D02*
X012707Y003551D01*
X012720Y003403D02*
X014060Y003403D01*
X014060Y003254D02*
X012692Y003254D01*
X012617Y003106D02*
X014060Y003106D01*
X014060Y002957D02*
X012457Y002957D01*
X012378Y002809D02*
X014172Y002809D01*
X014320Y002660D02*
X012497Y002660D01*
X012558Y002512D02*
X017792Y002512D01*
X017853Y002660D02*
X016030Y002660D01*
X015675Y003175D02*
X016675Y003175D01*
X016675Y004675D01*
X017675Y004675D01*
X018152Y003254D02*
X018198Y003254D01*
X018346Y003106D02*
X018004Y003106D01*
X018121Y002957D02*
X017007Y002957D01*
X017065Y003106D02*
X017346Y003106D01*
X017198Y003254D02*
X017065Y003254D01*
X016809Y002809D02*
X017972Y002809D01*
X017730Y002363D02*
X012620Y002363D01*
X012620Y002215D02*
X017730Y002215D01*
X017730Y002066D02*
X012620Y002066D01*
X012591Y001918D02*
X017759Y001918D01*
X017820Y001769D02*
X012530Y001769D01*
X012457Y001621D02*
X017893Y001621D01*
X015320Y002660D02*
X015030Y002660D01*
X014200Y004294D02*
X010675Y004294D01*
X010675Y004442D02*
X013392Y004442D01*
X013243Y004591D02*
X010675Y004591D01*
X010675Y004739D02*
X013095Y004739D01*
X012946Y004888D02*
X010675Y004888D01*
X010675Y005036D02*
X012798Y005036D01*
X012649Y005185D02*
X010675Y005185D01*
X010675Y005333D02*
X012501Y005333D01*
X012352Y005482D02*
X010675Y005482D01*
X010675Y005630D02*
X012204Y005630D01*
X012055Y005779D02*
X010675Y005779D01*
X010675Y005927D02*
X011907Y005927D01*
X011821Y006076D02*
X010675Y006076D01*
X010675Y006224D02*
X011810Y006224D01*
X011810Y006373D02*
X010675Y006373D01*
X010675Y006521D02*
X011810Y006521D01*
X011810Y006670D02*
X010675Y006670D01*
X010675Y006818D02*
X011810Y006818D01*
X011665Y006967D02*
X010675Y006967D01*
X010675Y007115D02*
X011562Y007115D01*
X011500Y007264D02*
X010675Y007264D01*
X010675Y007412D02*
X011490Y007412D01*
X011490Y007561D02*
X010675Y007561D01*
X010675Y007709D02*
X011551Y007709D01*
X011639Y007858D02*
X010675Y007858D01*
X010675Y008006D02*
X011625Y008006D01*
X011546Y008155D02*
X010675Y008155D01*
X010675Y008303D02*
X011490Y008303D01*
X011490Y008452D02*
X010675Y008452D01*
X010675Y008600D02*
X011281Y008600D01*
X011133Y008749D02*
X010675Y008749D01*
X010675Y008897D02*
X011049Y008897D01*
X010990Y009046D02*
X010675Y009046D01*
X010675Y009194D02*
X010990Y009194D01*
X011003Y009343D02*
X010675Y009343D01*
X010675Y009491D02*
X011064Y009491D01*
X011171Y009640D02*
X010675Y009640D01*
X010675Y009788D02*
X011300Y009788D01*
X011385Y009937D02*
X010675Y009937D01*
X010675Y010085D02*
X011533Y010085D01*
X011682Y010234D02*
X010675Y010234D01*
X010675Y010382D02*
X011830Y010382D01*
X011979Y010531D02*
X010675Y010531D01*
X010675Y010679D02*
X011177Y010679D01*
X011112Y010706D02*
X011315Y010622D01*
X011535Y010622D01*
X011738Y010706D01*
X011894Y010862D01*
X011978Y011065D01*
X011978Y011285D01*
X011894Y011488D01*
X011738Y011644D01*
X011535Y011728D01*
X011315Y011728D01*
X011112Y011644D01*
X010956Y011488D01*
X010872Y011285D01*
X010872Y011065D01*
X010956Y010862D01*
X011112Y010706D01*
X010990Y010828D02*
X010675Y010828D01*
X010675Y010976D02*
X010909Y010976D01*
X010872Y011125D02*
X010675Y011125D01*
X010675Y011273D02*
X010872Y011273D01*
X010928Y011422D02*
X010675Y011422D01*
X010675Y011570D02*
X011038Y011570D01*
X011292Y011719D02*
X010675Y011719D01*
X010675Y011867D02*
X011156Y011867D01*
X010998Y012016D02*
X010675Y012016D01*
X010675Y012164D02*
X010864Y012164D01*
X010802Y012313D02*
X010675Y012313D01*
X010675Y012461D02*
X010741Y012461D01*
X010730Y012610D02*
X010675Y012610D01*
X010675Y012758D02*
X010730Y012758D01*
X010748Y012907D02*
X010675Y012907D01*
X010675Y013055D02*
X010810Y013055D01*
X010871Y013204D02*
X010675Y013204D01*
X010675Y013352D02*
X011016Y013352D01*
X011199Y013501D02*
X010675Y013501D01*
X010675Y013649D02*
X011232Y013649D01*
X011090Y013798D02*
X010675Y013798D01*
X010675Y013946D02*
X011028Y013946D01*
X010990Y014095D02*
X010675Y014095D01*
X010675Y014243D02*
X010990Y014243D01*
X011023Y014392D02*
X010675Y014392D01*
X010675Y014540D02*
X011085Y014540D01*
X011220Y014689D02*
X010675Y014689D01*
X010675Y014837D02*
X011483Y014837D01*
X011867Y014837D02*
X014772Y014837D01*
X014775Y014833D02*
X014833Y014775D01*
X014900Y014726D01*
X014973Y014688D01*
X014973Y014689D02*
X012130Y014689D01*
X011675Y014175D02*
X012675Y014175D01*
X018675Y014175D01*
X018232Y013649D02*
X013065Y013649D01*
X013065Y013501D02*
X018199Y013501D01*
X018016Y013352D02*
X013065Y013352D01*
X013065Y013204D02*
X017871Y013204D01*
X017810Y013055D02*
X013065Y013055D01*
X013065Y012907D02*
X017748Y012907D01*
X017730Y012758D02*
X013065Y012758D01*
X013065Y012610D02*
X013515Y012610D01*
X013251Y012461D02*
X013099Y012461D01*
X013835Y012610D02*
X014515Y012610D01*
X014251Y012461D02*
X014099Y012461D01*
X015226Y012313D02*
X015300Y012313D01*
X014312Y010828D02*
X014038Y010828D01*
X013312Y010828D02*
X013065Y010828D01*
X012675Y010675D02*
X011675Y009675D01*
X011675Y009175D01*
X012963Y009640D02*
X017241Y009640D01*
X016484Y009491D02*
X013119Y009491D01*
X013194Y009343D02*
X016326Y009343D01*
X016178Y009194D02*
X013220Y009194D01*
X013206Y009046D02*
X016029Y009046D01*
X015881Y008897D02*
X013145Y008897D01*
X012675Y010675D02*
X012675Y011675D01*
X012675Y014175D01*
X013798Y015611D02*
X014043Y015510D01*
X014307Y015510D01*
X014552Y015611D01*
X014739Y015798D01*
X014840Y016043D01*
X014840Y016307D01*
X014739Y016552D01*
X014552Y016739D01*
X014307Y016840D01*
X014043Y016840D01*
X013798Y016739D01*
X013611Y016552D01*
X013510Y016307D01*
X013510Y016043D01*
X013611Y015798D01*
X013798Y015611D01*
X013875Y015580D02*
X010675Y015580D01*
X010675Y015728D02*
X013682Y015728D01*
X013579Y015877D02*
X010675Y015877D01*
X010675Y016025D02*
X013517Y016025D01*
X013510Y016174D02*
X010675Y016174D01*
X010675Y016322D02*
X013516Y016322D01*
X013578Y016471D02*
X010675Y016471D01*
X010675Y016619D02*
X013679Y016619D01*
X013868Y016768D02*
X010675Y016768D01*
X010675Y016916D02*
X014562Y016916D01*
X014611Y016798D02*
X014510Y017043D01*
X014510Y017307D01*
X014611Y017552D01*
X014798Y017739D01*
X015043Y017840D01*
X015307Y017840D01*
X015552Y017739D01*
X015739Y017552D01*
X015840Y017307D01*
X015840Y017043D01*
X015739Y016798D01*
X015552Y016611D01*
X015307Y016510D01*
X015043Y016510D01*
X014798Y016611D01*
X014611Y016798D01*
X014642Y016768D02*
X014482Y016768D01*
X014671Y016619D02*
X014791Y016619D01*
X014772Y016471D02*
X015578Y016471D01*
X015611Y016552D02*
X015510Y016307D01*
X015510Y016043D01*
X015611Y015798D01*
X015798Y015611D01*
X016043Y015510D01*
X016307Y015510D01*
X016552Y015611D01*
X016739Y015798D01*
X016840Y016043D01*
X016840Y016307D01*
X016739Y016552D01*
X016552Y016739D01*
X016307Y016840D01*
X016043Y016840D01*
X015798Y016739D01*
X015611Y016552D01*
X015559Y016619D02*
X015679Y016619D01*
X015708Y016768D02*
X015868Y016768D01*
X015788Y016916D02*
X019360Y016916D01*
X019360Y016768D02*
X017917Y016768D01*
X017802Y016815D02*
X017548Y016815D01*
X017312Y016718D01*
X017132Y016538D01*
X017035Y016302D01*
X017035Y016048D01*
X017132Y015812D01*
X017312Y015632D01*
X017403Y015595D01*
X017349Y015556D01*
X017294Y015501D01*
X017247Y015437D01*
X017212Y015367D01*
X017187Y015292D01*
X017175Y015214D01*
X017175Y015175D01*
X017675Y015175D01*
X015175Y015175D01*
X015180Y015180D02*
X015170Y015180D01*
X015170Y015700D01*
X015134Y015700D01*
X015052Y015687D01*
X014973Y015662D01*
X014900Y015624D01*
X014833Y015575D01*
X014775Y015517D01*
X014726Y015450D01*
X014688Y015377D01*
X014663Y015298D01*
X014650Y015216D01*
X014650Y015180D01*
X015170Y015180D01*
X015170Y015170D01*
X014650Y015170D01*
X014650Y015134D01*
X010675Y015134D01*
X010675Y014986D02*
X014685Y014986D01*
X014688Y014973D02*
X014726Y014900D01*
X014775Y014833D01*
X014688Y014973D02*
X014663Y015052D01*
X014650Y015134D01*
X014660Y015283D02*
X010675Y015283D01*
X010675Y015431D02*
X014716Y015431D01*
X014839Y015580D02*
X014475Y015580D01*
X014668Y015728D02*
X015682Y015728D01*
X015579Y015877D02*
X014771Y015877D01*
X014833Y016025D02*
X015517Y016025D01*
X015510Y016174D02*
X014840Y016174D01*
X014834Y016322D02*
X015516Y016322D01*
X015298Y015687D02*
X015216Y015700D01*
X015180Y015700D01*
X015180Y015180D01*
X015700Y015180D01*
X015700Y015216D01*
X015687Y015298D01*
X015662Y015377D01*
X015624Y015450D01*
X015575Y015517D01*
X015517Y015575D01*
X015450Y015624D01*
X015377Y015662D01*
X015298Y015687D01*
X015180Y015580D02*
X015170Y015580D01*
X015170Y015431D02*
X015180Y015431D01*
X015170Y015283D02*
X015180Y015283D01*
X015180Y015180D02*
X015180Y015170D01*
X015700Y015170D01*
X015700Y015134D01*
X017175Y015134D01*
X017175Y015136D02*
X017187Y015058D01*
X017212Y014983D01*
X017247Y014913D01*
X017294Y014849D01*
X017349Y014794D01*
X017413Y014747D01*
X017483Y014712D01*
X017558Y014687D01*
X017636Y014675D01*
X017675Y014675D01*
X017714Y014675D01*
X017792Y014687D01*
X017867Y014712D01*
X017937Y014747D01*
X018001Y014794D01*
X018056Y014849D01*
X018103Y014913D01*
X018138Y014983D01*
X018163Y015058D01*
X018175Y015136D01*
X018175Y015175D01*
X018175Y015214D01*
X018163Y015292D01*
X018138Y015367D01*
X018103Y015437D01*
X018056Y015501D01*
X018001Y015556D01*
X017947Y015595D01*
X018038Y015632D01*
X018218Y015812D01*
X018315Y016048D01*
X018315Y016302D01*
X018218Y016538D01*
X018038Y016718D01*
X017802Y016815D01*
X018136Y016619D02*
X019360Y016619D01*
X019360Y016471D02*
X018245Y016471D01*
X018307Y016322D02*
X019360Y016322D01*
X019360Y016174D02*
X018315Y016174D01*
X018306Y016025D02*
X019360Y016025D01*
X019360Y015877D02*
X018244Y015877D01*
X018133Y015728D02*
X019360Y015728D01*
X019360Y015580D02*
X017969Y015580D01*
X018106Y015431D02*
X019360Y015431D01*
X019360Y015283D02*
X018164Y015283D01*
X018175Y015175D02*
X017675Y015175D01*
X017675Y015175D01*
X017675Y015175D01*
X018175Y015175D01*
X018175Y015134D02*
X019360Y015134D01*
X019360Y014986D02*
X018139Y014986D01*
X018044Y014837D02*
X018483Y014837D01*
X018220Y014689D02*
X017796Y014689D01*
X017675Y014689D02*
X017675Y014689D01*
X017675Y014675D02*
X017675Y015175D01*
X017675Y015175D01*
X017175Y015175D01*
X017175Y015136D01*
X017186Y015283D02*
X015690Y015283D01*
X015700Y015134D02*
X015687Y015052D01*
X015662Y014973D01*
X015624Y014900D01*
X015575Y014833D01*
X015517Y014775D01*
X015450Y014726D01*
X015377Y014688D01*
X015377Y014689D02*
X017554Y014689D01*
X017675Y014675D02*
X017675Y015175D01*
X017675Y015134D02*
X017675Y015134D01*
X017675Y014986D02*
X017675Y014986D01*
X017675Y014837D02*
X017675Y014837D01*
X017306Y014837D02*
X015578Y014837D01*
X015665Y014986D02*
X017211Y014986D01*
X017244Y015431D02*
X015634Y015431D01*
X015511Y015580D02*
X015875Y015580D01*
X016475Y015580D02*
X017381Y015580D01*
X017217Y015728D02*
X016668Y015728D01*
X016771Y015877D02*
X017106Y015877D01*
X017044Y016025D02*
X016833Y016025D01*
X016840Y016174D02*
X017035Y016174D01*
X017043Y016322D02*
X016834Y016322D01*
X016772Y016471D02*
X017105Y016471D01*
X017214Y016619D02*
X016671Y016619D01*
X016482Y016768D02*
X017433Y016768D01*
X018074Y017065D02*
X019360Y017065D01*
X019360Y017213D02*
X018265Y017213D01*
X018413Y017362D02*
X019360Y017362D01*
X019360Y017510D02*
X018860Y017510D01*
X019127Y017659D02*
X019360Y017659D01*
X019360Y017807D02*
X019264Y017807D01*
X019326Y017956D02*
X019360Y017956D01*
X019360Y018104D02*
X019360Y018104D01*
X019360Y018253D02*
X019360Y018253D01*
X019360Y018401D02*
X019323Y018401D01*
X019360Y018550D02*
X019261Y018550D01*
X019360Y018698D02*
X019121Y018698D01*
X019144Y018847D02*
X019360Y018847D01*
X019360Y018995D02*
X019331Y018995D01*
X018675Y018175D02*
X017925Y017425D01*
X016925Y017425D01*
X015925Y018425D01*
X014425Y018425D01*
X013425Y017425D01*
X012425Y017425D01*
X011675Y018175D01*
X011229Y018698D02*
X010675Y018698D01*
X010675Y018550D02*
X011089Y018550D01*
X011027Y018401D02*
X010675Y018401D01*
X010675Y018253D02*
X010990Y018253D01*
X010990Y018104D02*
X010675Y018104D01*
X010675Y017956D02*
X011024Y017956D01*
X011086Y017807D02*
X010675Y017807D01*
X010675Y017659D02*
X011223Y017659D01*
X011490Y017510D02*
X010675Y017510D01*
X010675Y017362D02*
X011937Y017362D01*
X012085Y017213D02*
X010675Y017213D01*
X010675Y017065D02*
X012276Y017065D01*
X013574Y017065D02*
X014510Y017065D01*
X014510Y017213D02*
X013765Y017213D01*
X013913Y017362D02*
X014532Y017362D01*
X014594Y017510D02*
X014062Y017510D01*
X014210Y017659D02*
X014718Y017659D01*
X014963Y017807D02*
X014359Y017807D01*
X014507Y017956D02*
X015843Y017956D01*
X015991Y017807D02*
X015387Y017807D01*
X015632Y017659D02*
X016140Y017659D01*
X016288Y017510D02*
X015756Y017510D01*
X015818Y017362D02*
X016437Y017362D01*
X016585Y017213D02*
X015840Y017213D01*
X015840Y017065D02*
X016776Y017065D01*
X015180Y015170D02*
X015180Y014650D01*
X015216Y014650D01*
X015298Y014663D01*
X015377Y014688D01*
X015180Y014689D02*
X015170Y014689D01*
X015170Y014650D02*
X015170Y015170D01*
X015180Y015170D01*
X015180Y015134D02*
X015170Y015134D01*
X015170Y014986D02*
X015180Y014986D01*
X015170Y014837D02*
X015180Y014837D01*
X015170Y014650D02*
X015134Y014650D01*
X015052Y014663D01*
X014973Y014688D01*
X012043Y011719D02*
X011558Y011719D01*
X011812Y011570D02*
X012043Y011570D01*
X012043Y011422D02*
X011922Y011422D01*
X011978Y011273D02*
X012043Y011273D01*
X012088Y011125D02*
X011978Y011125D01*
X011941Y010976D02*
X012164Y010976D01*
X012276Y010828D02*
X011860Y010828D01*
X011673Y010679D02*
X012127Y010679D01*
X010175Y010679D02*
X008140Y010679D01*
X008063Y010756D02*
X008256Y010563D01*
X008360Y010311D01*
X008360Y010039D01*
X008256Y009787D01*
X008063Y009594D01*
X007811Y009490D01*
X007539Y009490D01*
X007500Y009506D01*
X007500Y008050D01*
X007443Y007913D01*
X007337Y007807D01*
X006290Y006760D01*
X006290Y006592D01*
X006704Y007006D01*
X006847Y007065D01*
X009253Y007065D01*
X009396Y007006D01*
X009506Y006896D01*
X009565Y006753D01*
X009565Y006183D01*
X009810Y005938D01*
X009810Y005412D01*
X009573Y005175D01*
X009810Y004938D01*
X009810Y004412D01*
X009573Y004175D01*
X009810Y003938D01*
X009810Y003412D01*
X009473Y003075D01*
X009710Y002976D01*
X009976Y002710D01*
X010120Y002363D01*
X010120Y002065D01*
X010158Y002103D01*
X010158Y002103D01*
X010175Y002120D01*
X010175Y019730D01*
X010158Y019747D01*
X010158Y019747D01*
X010120Y019785D01*
X010120Y019487D01*
X009976Y019140D01*
X009710Y018874D01*
X009363Y018730D01*
X008987Y018730D01*
X008640Y018874D01*
X008374Y019140D01*
X008230Y019487D01*
X008230Y019863D01*
X008374Y020210D01*
X008524Y020360D01*
X002826Y020360D01*
X002976Y020210D01*
X003120Y019863D01*
X003120Y019487D01*
X002976Y019140D01*
X002710Y018874D01*
X002363Y018730D01*
X001987Y018730D01*
X001640Y018874D01*
X001490Y019024D01*
X001490Y013326D01*
X001640Y013476D01*
X001987Y013620D01*
X002363Y013620D01*
X002710Y013476D01*
X002976Y013210D01*
X003120Y012863D01*
X003120Y012487D01*
X002976Y012140D01*
X002710Y011874D01*
X002363Y011730D01*
X001987Y011730D01*
X001640Y011874D01*
X001490Y012024D01*
X001490Y002826D01*
X001640Y002976D01*
X001987Y003120D01*
X002363Y003120D01*
X002710Y002976D01*
X002976Y002710D01*
X003120Y002363D01*
X003120Y001987D01*
X002976Y001640D01*
X002826Y001490D01*
X008524Y001490D01*
X008374Y001640D01*
X008230Y001987D01*
X008230Y002363D01*
X008374Y002710D01*
X008640Y002976D01*
X008877Y003075D01*
X008675Y003277D01*
X008438Y003040D01*
X008092Y003040D01*
X007646Y002594D01*
X007503Y002535D01*
X003847Y002535D01*
X003704Y002594D01*
X003594Y002704D01*
X003344Y002954D01*
X003285Y003097D01*
X003285Y006753D01*
X003344Y006896D01*
X003454Y007006D01*
X003597Y007065D01*
X004195Y007065D01*
X004420Y007290D01*
X004930Y007290D01*
X005175Y007045D01*
X005420Y007290D01*
X005760Y007290D01*
X006750Y008280D01*
X006750Y011350D01*
X005850Y011350D01*
X005713Y011407D01*
X005607Y011513D01*
X005550Y011650D01*
X005550Y013490D01*
X005539Y013490D01*
X005287Y013594D01*
X005094Y013787D01*
X004990Y014039D01*
X004990Y014311D01*
X005064Y014490D01*
X004147Y014490D01*
X004065Y014524D01*
X004065Y012254D01*
X004256Y012063D01*
X004360Y011811D01*
X004360Y011539D01*
X004256Y011287D01*
X004063Y011094D01*
X003811Y010990D01*
X003539Y010990D01*
X003287Y011094D01*
X003094Y011287D01*
X002990Y011539D01*
X002990Y011811D01*
X003094Y012063D01*
X003285Y012254D01*
X003285Y016003D01*
X003344Y016146D01*
X003454Y016256D01*
X003904Y016706D01*
X003942Y016721D01*
X003943Y016723D01*
X004032Y016812D01*
X004147Y016860D01*
X004558Y016860D01*
X004748Y017050D01*
X004263Y017535D01*
X004048Y017535D01*
X003812Y017632D01*
X003632Y017812D01*
X003535Y018048D01*
X003535Y018302D01*
X003632Y018538D01*
X003812Y018718D01*
X003903Y018755D01*
X003849Y018794D01*
X003794Y018849D01*
X003747Y018913D01*
X003712Y018983D01*
X003687Y019058D01*
X003675Y019136D01*
X003675Y019175D01*
X004175Y019175D01*
X004175Y019175D01*
X004175Y019675D01*
X004214Y019675D01*
X004292Y019663D01*
X004367Y019638D01*
X004437Y019603D01*
X004501Y019556D01*
X004556Y019501D01*
X004603Y019437D01*
X004638Y019367D01*
X004663Y019292D01*
X006687Y019292D01*
X006675Y019214D01*
X006675Y019175D01*
X007175Y019175D01*
X007175Y019175D01*
X007175Y019675D01*
X007214Y019675D01*
X007292Y019663D01*
X007367Y019638D01*
X007437Y019603D01*
X007501Y019556D01*
X007556Y019501D01*
X007603Y019437D01*
X007638Y019367D01*
X007663Y019292D01*
X008311Y019292D01*
X008372Y019144D02*
X007675Y019144D01*
X007675Y019136D02*
X007675Y019175D01*
X007675Y019214D01*
X007663Y019292D01*
X007675Y019175D02*
X007175Y019175D01*
X007175Y019175D01*
X007175Y019175D01*
X007175Y019675D01*
X007136Y019675D01*
X007058Y019663D01*
X006983Y019638D01*
X006913Y019603D01*
X006849Y019556D01*
X006794Y019501D01*
X006747Y019437D01*
X006712Y019367D01*
X006687Y019292D01*
X006675Y019175D02*
X006675Y019136D01*
X006687Y019058D01*
X006712Y018983D01*
X006747Y018913D01*
X006794Y018849D01*
X006849Y018794D01*
X006903Y018755D01*
X006812Y018718D01*
X006641Y018546D01*
X006513Y018493D01*
X006407Y018387D01*
X006350Y018250D01*
X006350Y017632D01*
X006312Y017723D01*
X006223Y017812D01*
X006108Y017860D01*
X005242Y017860D01*
X005127Y017812D01*
X005108Y017794D01*
X004815Y018087D01*
X004815Y018302D01*
X004718Y018538D01*
X004538Y018718D01*
X004447Y018755D01*
X004501Y018794D01*
X004556Y018849D01*
X004603Y018913D01*
X004638Y018983D01*
X004663Y019058D01*
X004675Y019136D01*
X004675Y019175D01*
X004675Y019214D01*
X004663Y019292D01*
X004675Y019175D02*
X004175Y019175D01*
X004175Y019175D01*
X004175Y019175D01*
X004175Y019675D01*
X004136Y019675D01*
X004058Y019663D01*
X003983Y019638D01*
X003913Y019603D01*
X003849Y019556D01*
X003794Y019501D01*
X003747Y019437D01*
X003712Y019367D01*
X003687Y019292D01*
X003039Y019292D01*
X002978Y019144D02*
X003675Y019144D01*
X003675Y019175D02*
X004175Y019175D01*
X004675Y019175D01*
X004675Y019144D02*
X006675Y019144D01*
X006675Y019175D02*
X007175Y019175D01*
X007675Y019175D01*
X007675Y019136D02*
X007663Y019058D01*
X007638Y018983D01*
X007603Y018913D01*
X007556Y018849D01*
X007501Y018794D01*
X007447Y018755D01*
X007538Y018718D01*
X007718Y018538D01*
X007815Y018302D01*
X007815Y018048D01*
X007718Y017812D01*
X007538Y017632D01*
X007302Y017535D01*
X007100Y017535D01*
X007100Y016860D01*
X007203Y016860D01*
X007318Y016812D01*
X007407Y016723D01*
X007455Y016608D01*
X007455Y016442D01*
X007490Y016358D01*
X007490Y015992D01*
X007462Y015925D01*
X007490Y015858D01*
X007490Y015492D01*
X007462Y015425D01*
X007490Y015358D01*
X007490Y014992D01*
X007455Y014908D01*
X007455Y014742D01*
X007407Y014627D01*
X007318Y014538D01*
X007203Y014490D01*
X006770Y014490D01*
X006360Y014080D01*
X006360Y014039D01*
X006300Y013894D01*
X006300Y012100D01*
X007131Y012100D01*
X007287Y012256D01*
X007539Y012360D01*
X007811Y012360D01*
X008063Y012256D01*
X008256Y012063D01*
X008360Y011811D01*
X008360Y011539D01*
X008256Y011287D01*
X008063Y011094D01*
X007811Y010990D01*
X007539Y010990D01*
X007500Y011006D01*
X007500Y010844D01*
X007539Y010860D01*
X007811Y010860D01*
X008063Y010756D01*
X007890Y010828D02*
X010175Y010828D01*
X010175Y010976D02*
X007500Y010976D01*
X008093Y011125D02*
X010175Y011125D01*
X010175Y011273D02*
X008242Y011273D01*
X008311Y011422D02*
X010175Y011422D01*
X010175Y011570D02*
X008360Y011570D01*
X008360Y011719D02*
X010175Y011719D01*
X010175Y011867D02*
X009694Y011867D01*
X009710Y011874D02*
X009976Y012140D01*
X010120Y012487D01*
X010120Y012863D01*
X009976Y013210D01*
X009710Y013476D01*
X009363Y013620D01*
X008987Y013620D01*
X008640Y013476D01*
X008374Y013210D01*
X008230Y012863D01*
X008230Y012487D01*
X008374Y012140D01*
X008640Y011874D01*
X008987Y011730D01*
X009363Y011730D01*
X009710Y011874D01*
X009852Y012016D02*
X010175Y012016D01*
X010175Y012164D02*
X009986Y012164D01*
X010048Y012313D02*
X010175Y012313D01*
X010175Y012461D02*
X010109Y012461D01*
X010120Y012610D02*
X010175Y012610D01*
X010175Y012758D02*
X010120Y012758D01*
X010102Y012907D02*
X010175Y012907D01*
X010175Y013055D02*
X010040Y013055D01*
X009979Y013204D02*
X010175Y013204D01*
X010175Y013352D02*
X009834Y013352D01*
X009651Y013501D02*
X010175Y013501D01*
X010175Y013649D02*
X006300Y013649D01*
X006300Y013501D02*
X008699Y013501D01*
X008516Y013352D02*
X006300Y013352D01*
X006300Y013204D02*
X008371Y013204D01*
X008310Y013055D02*
X006300Y013055D01*
X006300Y012907D02*
X008248Y012907D01*
X008230Y012758D02*
X006300Y012758D01*
X006300Y012610D02*
X008230Y012610D01*
X008241Y012461D02*
X006300Y012461D01*
X006300Y012313D02*
X007424Y012313D01*
X007195Y012164D02*
X006300Y012164D01*
X005698Y011422D02*
X004311Y011422D01*
X004360Y011570D02*
X005583Y011570D01*
X005550Y011719D02*
X004360Y011719D01*
X004337Y011867D02*
X005550Y011867D01*
X005550Y012016D02*
X004275Y012016D01*
X004155Y012164D02*
X005550Y012164D01*
X005550Y012313D02*
X004065Y012313D01*
X004065Y012461D02*
X005550Y012461D01*
X005550Y012610D02*
X004065Y012610D01*
X004065Y012758D02*
X005550Y012758D01*
X005550Y012907D02*
X004065Y012907D01*
X004065Y013055D02*
X005550Y013055D01*
X005550Y013204D02*
X004065Y013204D01*
X004065Y013352D02*
X005550Y013352D01*
X005513Y013501D02*
X004065Y013501D01*
X004065Y013649D02*
X005232Y013649D01*
X005090Y013798D02*
X004065Y013798D01*
X004065Y013946D02*
X005028Y013946D01*
X004990Y014095D02*
X004065Y014095D01*
X004065Y014243D02*
X004990Y014243D01*
X005023Y014392D02*
X004065Y014392D01*
X003285Y014392D02*
X001490Y014392D01*
X001490Y014540D02*
X003285Y014540D01*
X003285Y014689D02*
X001490Y014689D01*
X001490Y014837D02*
X003285Y014837D01*
X003285Y014986D02*
X001490Y014986D01*
X001490Y015134D02*
X003285Y015134D01*
X003285Y015283D02*
X001490Y015283D01*
X001490Y015431D02*
X003285Y015431D01*
X003285Y015580D02*
X001490Y015580D01*
X001490Y015728D02*
X003285Y015728D01*
X003285Y015877D02*
X001490Y015877D01*
X001490Y016025D02*
X003294Y016025D01*
X003372Y016174D02*
X001490Y016174D01*
X001490Y016322D02*
X003520Y016322D01*
X003669Y016471D02*
X001490Y016471D01*
X001490Y016619D02*
X003817Y016619D01*
X003987Y016768D02*
X001490Y016768D01*
X001490Y016916D02*
X004614Y016916D01*
X004734Y017065D02*
X001490Y017065D01*
X001490Y017213D02*
X004585Y017213D01*
X004437Y017362D02*
X001490Y017362D01*
X001490Y017510D02*
X004288Y017510D01*
X003786Y017659D02*
X001490Y017659D01*
X001490Y017807D02*
X003638Y017807D01*
X003573Y017956D02*
X001490Y017956D01*
X001490Y018104D02*
X003535Y018104D01*
X003535Y018253D02*
X001490Y018253D01*
X001490Y018401D02*
X003576Y018401D01*
X003644Y018550D02*
X001490Y018550D01*
X001490Y018698D02*
X003793Y018698D01*
X003796Y018847D02*
X002644Y018847D01*
X002831Y018995D02*
X003708Y018995D01*
X003675Y019175D02*
X003675Y019214D01*
X003687Y019292D01*
X003750Y019441D02*
X003101Y019441D01*
X003120Y019589D02*
X003894Y019589D01*
X004175Y019589D02*
X004175Y019589D01*
X004175Y019441D02*
X004175Y019441D01*
X004175Y019292D02*
X004175Y019292D01*
X004456Y019589D02*
X006894Y019589D01*
X006750Y019441D02*
X004600Y019441D01*
X004642Y018995D02*
X006708Y018995D01*
X006796Y018847D02*
X004554Y018847D01*
X004557Y018698D02*
X006793Y018698D01*
X006644Y018550D02*
X004706Y018550D01*
X004774Y018401D02*
X006421Y018401D01*
X006351Y018253D02*
X004815Y018253D01*
X004815Y018104D02*
X006350Y018104D01*
X006350Y017956D02*
X004946Y017956D01*
X005095Y017807D02*
X005122Y017807D01*
X005225Y017125D02*
X005275Y017125D01*
X005325Y017075D01*
X004675Y016425D01*
X004645Y016425D01*
X004575Y016425D01*
X004525Y016375D01*
X004125Y016375D01*
X003675Y015925D01*
X003675Y011675D01*
X003195Y012164D02*
X002986Y012164D01*
X003048Y012313D02*
X003285Y012313D01*
X003285Y012461D02*
X003109Y012461D01*
X003120Y012610D02*
X003285Y012610D01*
X003285Y012758D02*
X003120Y012758D01*
X003102Y012907D02*
X003285Y012907D01*
X003285Y013055D02*
X003040Y013055D01*
X002979Y013204D02*
X003285Y013204D01*
X003285Y013352D02*
X002834Y013352D01*
X002651Y013501D02*
X003285Y013501D01*
X003285Y013649D02*
X001490Y013649D01*
X001490Y013501D02*
X001699Y013501D01*
X001516Y013352D02*
X001490Y013352D01*
X001490Y013798D02*
X003285Y013798D01*
X003285Y013946D02*
X001490Y013946D01*
X001490Y014095D02*
X003285Y014095D01*
X003285Y014243D02*
X001490Y014243D01*
X001490Y012016D02*
X001498Y012016D01*
X001490Y011867D02*
X001656Y011867D01*
X001490Y011719D02*
X002990Y011719D01*
X002990Y011570D02*
X001490Y011570D01*
X001490Y011422D02*
X003039Y011422D01*
X003108Y011273D02*
X001490Y011273D01*
X001490Y011125D02*
X003257Y011125D01*
X003460Y010828D02*
X001490Y010828D01*
X001490Y010976D02*
X006750Y010976D01*
X006750Y010828D02*
X003890Y010828D01*
X003811Y010860D02*
X003539Y010860D01*
X003287Y010756D01*
X003094Y010563D01*
X002990Y010311D01*
X002990Y010039D01*
X003094Y009787D01*
X003287Y009594D01*
X003539Y009490D01*
X003811Y009490D01*
X004063Y009594D01*
X004256Y009787D01*
X004360Y010039D01*
X004360Y010311D01*
X004256Y010563D01*
X004063Y010756D01*
X003811Y010860D01*
X004140Y010679D02*
X006750Y010679D01*
X006750Y010531D02*
X004269Y010531D01*
X004331Y010382D02*
X006750Y010382D01*
X006750Y010234D02*
X004360Y010234D01*
X004360Y010085D02*
X006750Y010085D01*
X006750Y009937D02*
X004318Y009937D01*
X004256Y009788D02*
X006750Y009788D01*
X006750Y009640D02*
X004108Y009640D01*
X003814Y009491D02*
X006750Y009491D01*
X006750Y009343D02*
X001490Y009343D01*
X001490Y009491D02*
X003536Y009491D01*
X003242Y009640D02*
X001490Y009640D01*
X001490Y009788D02*
X003094Y009788D01*
X003032Y009937D02*
X001490Y009937D01*
X001490Y010085D02*
X002990Y010085D01*
X002990Y010234D02*
X001490Y010234D01*
X001490Y010382D02*
X003019Y010382D01*
X003081Y010531D02*
X001490Y010531D01*
X001490Y010679D02*
X003210Y010679D01*
X004093Y011125D02*
X006750Y011125D01*
X006750Y011273D02*
X004242Y011273D01*
X003013Y011867D02*
X002694Y011867D01*
X002852Y012016D02*
X003075Y012016D01*
X001490Y009194D02*
X006750Y009194D01*
X006750Y009046D02*
X001490Y009046D01*
X001490Y008897D02*
X006750Y008897D01*
X006750Y008749D02*
X001490Y008749D01*
X001490Y008600D02*
X006750Y008600D01*
X006750Y008452D02*
X001490Y008452D01*
X001490Y008303D02*
X006750Y008303D01*
X006624Y008155D02*
X001490Y008155D01*
X001490Y008006D02*
X006476Y008006D01*
X006327Y007858D02*
X001490Y007858D01*
X001490Y007709D02*
X006179Y007709D01*
X006030Y007561D02*
X001490Y007561D01*
X001490Y007412D02*
X005882Y007412D01*
X006348Y006818D02*
X006516Y006818D01*
X006497Y006967D02*
X006665Y006967D01*
X006645Y007115D02*
X010175Y007115D01*
X010175Y006967D02*
X009435Y006967D01*
X009538Y006818D02*
X010175Y006818D01*
X010175Y006670D02*
X009565Y006670D01*
X009565Y006521D02*
X010175Y006521D01*
X010175Y006373D02*
X009565Y006373D01*
X009565Y006224D02*
X010175Y006224D01*
X010175Y006076D02*
X009673Y006076D01*
X009810Y005927D02*
X010175Y005927D01*
X010175Y005779D02*
X009810Y005779D01*
X009810Y005630D02*
X010175Y005630D01*
X010175Y005482D02*
X009810Y005482D01*
X009731Y005333D02*
X010175Y005333D01*
X010175Y005185D02*
X009583Y005185D01*
X009712Y005036D02*
X010175Y005036D01*
X010175Y004888D02*
X009810Y004888D01*
X009810Y004739D02*
X010175Y004739D01*
X010175Y004591D02*
X009810Y004591D01*
X009810Y004442D02*
X010175Y004442D01*
X010175Y004294D02*
X009692Y004294D01*
X009603Y004145D02*
X010175Y004145D01*
X010175Y003997D02*
X009752Y003997D01*
X009810Y003848D02*
X010175Y003848D01*
X010175Y003700D02*
X009810Y003700D01*
X009810Y003551D02*
X010175Y003551D01*
X010175Y003403D02*
X009801Y003403D01*
X009652Y003254D02*
X010175Y003254D01*
X010175Y003106D02*
X009504Y003106D01*
X009729Y002957D02*
X010175Y002957D01*
X010175Y002809D02*
X009878Y002809D01*
X009997Y002660D02*
X010175Y002660D01*
X010175Y002512D02*
X010058Y002512D01*
X010120Y002363D02*
X010175Y002363D01*
X010175Y002215D02*
X010120Y002215D01*
X010120Y002066D02*
X010121Y002066D01*
X010675Y002215D02*
X010730Y002215D01*
X010730Y002363D02*
X010675Y002363D01*
X010675Y002512D02*
X010792Y002512D01*
X010853Y002660D02*
X010675Y002660D01*
X010675Y002809D02*
X010972Y002809D01*
X011121Y002957D02*
X010675Y002957D01*
X010675Y003106D02*
X011452Y003106D01*
X011658Y003254D02*
X010675Y003254D01*
X010675Y003403D02*
X011630Y003403D01*
X011643Y003551D02*
X010675Y003551D01*
X010675Y003700D02*
X011703Y003700D01*
X011830Y003848D02*
X010675Y003848D01*
X012161Y003848D02*
X012189Y003848D01*
X012189Y003700D02*
X012161Y003700D01*
X012161Y003551D02*
X012189Y003551D01*
X010730Y002066D02*
X010729Y002066D01*
X008846Y003106D02*
X008504Y003106D01*
X008621Y002957D02*
X008009Y002957D01*
X007860Y002809D02*
X008472Y002809D01*
X008353Y002660D02*
X007712Y002660D01*
X007425Y002925D02*
X008175Y003675D01*
X008652Y003254D02*
X008698Y003254D01*
X008292Y002512D02*
X003058Y002512D01*
X002997Y002660D02*
X003638Y002660D01*
X003490Y002809D02*
X002878Y002809D01*
X002729Y002957D02*
X003343Y002957D01*
X003285Y003106D02*
X002398Y003106D01*
X001952Y003106D02*
X001490Y003106D01*
X001490Y003254D02*
X003285Y003254D01*
X003285Y003403D02*
X001490Y003403D01*
X001490Y003551D02*
X003285Y003551D01*
X003285Y003700D02*
X001490Y003700D01*
X001490Y003848D02*
X003285Y003848D01*
X003285Y003997D02*
X001490Y003997D01*
X001490Y004145D02*
X003285Y004145D01*
X003285Y004294D02*
X001490Y004294D01*
X001490Y004442D02*
X003285Y004442D01*
X003285Y004591D02*
X001490Y004591D01*
X001490Y004739D02*
X003285Y004739D01*
X003285Y004888D02*
X001490Y004888D01*
X001490Y005036D02*
X003285Y005036D01*
X003285Y005185D02*
X001490Y005185D01*
X001490Y005333D02*
X003285Y005333D01*
X003285Y005482D02*
X001490Y005482D01*
X001490Y005630D02*
X003285Y005630D01*
X003285Y005779D02*
X001490Y005779D01*
X001490Y005927D02*
X003285Y005927D01*
X003285Y006076D02*
X001490Y006076D01*
X001490Y006224D02*
X003285Y006224D01*
X003285Y006373D02*
X001490Y006373D01*
X001490Y006521D02*
X003285Y006521D01*
X003285Y006670D02*
X001490Y006670D01*
X001490Y006818D02*
X003312Y006818D01*
X003415Y006967D02*
X001490Y006967D01*
X001490Y007115D02*
X004245Y007115D01*
X004394Y007264D02*
X001490Y007264D01*
X003675Y006675D02*
X003675Y003175D01*
X003925Y002925D01*
X007425Y002925D01*
X008230Y002363D02*
X003120Y002363D01*
X003120Y002215D02*
X008230Y002215D01*
X008230Y002066D02*
X003120Y002066D01*
X003091Y001918D02*
X008259Y001918D01*
X008320Y001769D02*
X003030Y001769D01*
X002957Y001621D02*
X008393Y001621D01*
X009175Y005675D02*
X009175Y006675D01*
X006925Y006675D01*
X006425Y006175D01*
X005175Y006175D01*
X004675Y005675D01*
X004296Y005185D02*
X004065Y005185D01*
X004065Y005333D02*
X004147Y005333D01*
X004065Y005415D02*
X004404Y005076D01*
X004200Y004872D01*
X004200Y004690D01*
X004660Y004690D01*
X004660Y004660D01*
X004200Y004660D01*
X004200Y004478D01*
X004404Y004274D01*
X004065Y003935D01*
X004065Y005415D01*
X004065Y005036D02*
X004364Y005036D01*
X004216Y004888D02*
X004065Y004888D01*
X004065Y004739D02*
X004200Y004739D01*
X004200Y004591D02*
X004065Y004591D01*
X004065Y004442D02*
X004236Y004442D01*
X004385Y004294D02*
X004065Y004294D01*
X004065Y004145D02*
X004275Y004145D01*
X004127Y003997D02*
X004065Y003997D01*
X001621Y002957D02*
X001490Y002957D01*
X003675Y006675D02*
X004675Y006675D01*
X005105Y007115D02*
X005245Y007115D01*
X005394Y007264D02*
X004956Y007264D01*
X006290Y006670D02*
X006368Y006670D01*
X006794Y007264D02*
X010175Y007264D01*
X010175Y007412D02*
X006942Y007412D01*
X007091Y007561D02*
X010175Y007561D01*
X010175Y007709D02*
X007239Y007709D01*
X007388Y007858D02*
X010175Y007858D01*
X010175Y008006D02*
X007482Y008006D01*
X007500Y008155D02*
X010175Y008155D01*
X010175Y008303D02*
X007500Y008303D01*
X007500Y008452D02*
X010175Y008452D01*
X010175Y008600D02*
X007500Y008600D01*
X007500Y008749D02*
X010175Y008749D01*
X010175Y008897D02*
X007500Y008897D01*
X007500Y009046D02*
X010175Y009046D01*
X010175Y009194D02*
X007500Y009194D01*
X007500Y009343D02*
X010175Y009343D01*
X010175Y009491D02*
X007814Y009491D01*
X007536Y009491D02*
X007500Y009491D01*
X008108Y009640D02*
X010175Y009640D01*
X010175Y009788D02*
X008256Y009788D01*
X008318Y009937D02*
X010175Y009937D01*
X010175Y010085D02*
X008360Y010085D01*
X008360Y010234D02*
X010175Y010234D01*
X010175Y010382D02*
X008331Y010382D01*
X008269Y010531D02*
X010175Y010531D01*
X008656Y011867D02*
X008337Y011867D01*
X008275Y012016D02*
X008498Y012016D01*
X008364Y012164D02*
X008155Y012164D01*
X008302Y012313D02*
X007926Y012313D01*
X006300Y013798D02*
X010175Y013798D01*
X010175Y013946D02*
X006322Y013946D01*
X006375Y014095D02*
X010175Y014095D01*
X010175Y014243D02*
X006523Y014243D01*
X006672Y014392D02*
X010175Y014392D01*
X010175Y014540D02*
X007320Y014540D01*
X007433Y014689D02*
X010175Y014689D01*
X010175Y014837D02*
X007455Y014837D01*
X007487Y014986D02*
X010175Y014986D01*
X010175Y015134D02*
X007490Y015134D01*
X007490Y015283D02*
X010175Y015283D01*
X010175Y015431D02*
X007465Y015431D01*
X007490Y015580D02*
X010175Y015580D01*
X010175Y015728D02*
X007490Y015728D01*
X007482Y015877D02*
X010175Y015877D01*
X010175Y016025D02*
X007490Y016025D01*
X007490Y016174D02*
X010175Y016174D01*
X010175Y016322D02*
X007490Y016322D01*
X007455Y016471D02*
X010175Y016471D01*
X010175Y016619D02*
X007450Y016619D01*
X007363Y016768D02*
X010175Y016768D01*
X010175Y016916D02*
X007100Y016916D01*
X007100Y017065D02*
X010175Y017065D01*
X010175Y017213D02*
X007100Y017213D01*
X007100Y017362D02*
X010175Y017362D01*
X010175Y017510D02*
X007100Y017510D01*
X007564Y017659D02*
X010175Y017659D01*
X010175Y017807D02*
X007712Y017807D01*
X007777Y017956D02*
X010175Y017956D01*
X010175Y018104D02*
X007815Y018104D01*
X007815Y018253D02*
X010175Y018253D01*
X010175Y018401D02*
X007774Y018401D01*
X007706Y018550D02*
X010175Y018550D01*
X010175Y018698D02*
X007557Y018698D01*
X007554Y018847D02*
X008706Y018847D01*
X008519Y018995D02*
X007642Y018995D01*
X007600Y019441D02*
X008249Y019441D01*
X008230Y019589D02*
X007456Y019589D01*
X007175Y019589D02*
X007175Y019589D01*
X007175Y019441D02*
X007175Y019441D01*
X007175Y019292D02*
X007175Y019292D01*
X008230Y019738D02*
X003120Y019738D01*
X003110Y019886D02*
X008240Y019886D01*
X008301Y020035D02*
X003049Y020035D01*
X002987Y020183D02*
X008363Y020183D01*
X008495Y020332D02*
X002855Y020332D01*
X001706Y018847D02*
X001490Y018847D01*
X001490Y018995D02*
X001519Y018995D01*
X004175Y018175D02*
X005225Y017125D01*
X005325Y017075D02*
X005425Y017175D01*
X005675Y017175D01*
X005650Y016490D02*
X005650Y016200D01*
X005700Y016200D01*
X005700Y016490D01*
X005650Y016490D01*
X005650Y016471D02*
X005700Y016471D01*
X005700Y016322D02*
X005650Y016322D01*
X005650Y016200D02*
X005650Y016150D01*
X005650Y015860D01*
X005700Y015860D01*
X005700Y016150D01*
X005700Y016200D01*
X005960Y016200D01*
X005960Y016150D01*
X005700Y016150D01*
X005650Y016150D01*
X005390Y016150D01*
X005390Y016200D01*
X005650Y016200D01*
X005650Y016174D02*
X005390Y016174D01*
X005675Y016175D02*
X005875Y015975D01*
X006675Y015975D01*
X006705Y015925D01*
X006725Y015925D01*
X005960Y016174D02*
X005700Y016174D01*
X005700Y016025D02*
X005650Y016025D01*
X005650Y015877D02*
X005700Y015877D01*
X006339Y017659D02*
X006350Y017659D01*
X006350Y017807D02*
X006228Y017807D01*
X009644Y018847D02*
X010175Y018847D01*
X010175Y018995D02*
X009831Y018995D01*
X009978Y019144D02*
X010175Y019144D01*
X010175Y019292D02*
X010039Y019292D01*
X010101Y019441D02*
X010175Y019441D01*
X010175Y019589D02*
X010120Y019589D01*
X010120Y019738D02*
X010167Y019738D01*
X010683Y019738D02*
X010730Y019738D01*
X010730Y019589D02*
X010675Y019589D01*
X010675Y019441D02*
X010749Y019441D01*
X010811Y019292D02*
X010675Y019292D01*
X010675Y019144D02*
X010872Y019144D01*
X011019Y018995D02*
X010675Y018995D01*
X010675Y018847D02*
X011206Y018847D01*
X018867Y014837D02*
X019360Y014837D01*
X019360Y014689D02*
X019130Y014689D01*
X019265Y014540D02*
X019360Y014540D01*
X019360Y014392D02*
X019327Y014392D01*
X019360Y014243D02*
X019360Y014243D01*
X019360Y014095D02*
X019360Y014095D01*
X019360Y013946D02*
X019322Y013946D01*
X019360Y013798D02*
X019260Y013798D01*
X019360Y013649D02*
X019118Y013649D01*
X019151Y013501D02*
X019360Y013501D01*
X019360Y013352D02*
X019334Y013352D01*
X017675Y007175D02*
X014675Y007175D01*
X014675Y006175D01*
D20*
X011425Y011175D03*
X008925Y010925D03*
X008925Y014175D03*
X008925Y016675D03*
X007675Y019925D03*
X003675Y019925D03*
X002425Y016675D03*
X002425Y009925D03*
X005175Y009175D03*
D21*
X007125Y008125D02*
X007125Y011675D01*
X007125Y011725D01*
X005925Y011725D01*
X005925Y014125D01*
X005675Y014175D01*
X005925Y014175D01*
X006675Y014925D01*
X006705Y014925D01*
X006625Y015375D02*
X005875Y015375D01*
X005675Y015175D01*
X006625Y015375D02*
X006675Y015425D01*
X006705Y015425D01*
X006725Y016425D02*
X006705Y016425D01*
X006725Y016425D02*
X006725Y018175D01*
X007175Y018175D01*
X007125Y011675D02*
X007675Y011675D01*
X007125Y008125D02*
X005675Y006675D01*
X007425Y005675D02*
X008175Y005675D01*
X007425Y005675D02*
X006425Y004675D01*
X005675Y004675D01*
D22*
X012175Y006175D02*
X012175Y007425D01*
X012175Y008425D01*
X015925Y008425D01*
X016675Y009175D01*
X017675Y009175D01*
X015175Y004675D02*
X013675Y004675D01*
X012175Y006175D01*
X015175Y004675D02*
X015675Y004175D01*
M02*
