G75*
G70*
%OFA0B0*%
%FSLAX24Y24*%
%IPPOS*%
%LPD*%
%AMOC8*
5,1,8,0,0,1.08239X$1,22.5*
%
%ADD10C,0.0000*%
%ADD11OC8,0.0600*%
%ADD12OC8,0.0640*%
%ADD13C,0.0740*%
%ADD14C,0.0650*%
%ADD15R,0.0740X0.0740*%
%ADD16C,0.0700*%
%ADD17R,0.0650X0.0650*%
%ADD18C,0.2300*%
%ADD19C,0.0634*%
%ADD20C,0.0150*%
%ADD21C,0.0120*%
D10*
X001175Y002925D02*
X001175Y018925D01*
X001177Y019008D01*
X001183Y019091D01*
X001193Y019174D01*
X001207Y019256D01*
X001224Y019338D01*
X001246Y019418D01*
X001271Y019497D01*
X001300Y019575D01*
X001333Y019652D01*
X001370Y019727D01*
X001409Y019800D01*
X001453Y019871D01*
X001499Y019940D01*
X001549Y020007D01*
X001602Y020071D01*
X001658Y020133D01*
X001717Y020192D01*
X001779Y020248D01*
X001843Y020301D01*
X001910Y020351D01*
X001979Y020397D01*
X002050Y020441D01*
X002123Y020480D01*
X002198Y020517D01*
X002275Y020550D01*
X002353Y020579D01*
X002432Y020604D01*
X002512Y020626D01*
X002594Y020643D01*
X002676Y020657D01*
X002759Y020667D01*
X002842Y020673D01*
X002925Y020675D01*
X018925Y020675D01*
X019008Y020673D01*
X019091Y020667D01*
X019174Y020657D01*
X019256Y020643D01*
X019338Y020626D01*
X019418Y020604D01*
X019497Y020579D01*
X019575Y020550D01*
X019652Y020517D01*
X019727Y020480D01*
X019800Y020441D01*
X019871Y020397D01*
X019940Y020351D01*
X020007Y020301D01*
X020071Y020248D01*
X020133Y020192D01*
X020192Y020133D01*
X020248Y020071D01*
X020301Y020007D01*
X020351Y019940D01*
X020397Y019871D01*
X020441Y019800D01*
X020480Y019727D01*
X020517Y019652D01*
X020550Y019575D01*
X020579Y019497D01*
X020604Y019418D01*
X020626Y019338D01*
X020643Y019256D01*
X020657Y019174D01*
X020667Y019091D01*
X020673Y019008D01*
X020675Y018925D01*
X020675Y002925D01*
X020673Y002842D01*
X020667Y002759D01*
X020657Y002676D01*
X020643Y002594D01*
X020626Y002512D01*
X020604Y002432D01*
X020579Y002353D01*
X020550Y002275D01*
X020517Y002198D01*
X020480Y002123D01*
X020441Y002050D01*
X020397Y001979D01*
X020351Y001910D01*
X020301Y001843D01*
X020248Y001779D01*
X020192Y001717D01*
X020133Y001658D01*
X020071Y001602D01*
X020007Y001549D01*
X019940Y001499D01*
X019871Y001453D01*
X019800Y001409D01*
X019727Y001370D01*
X019652Y001333D01*
X019575Y001300D01*
X019497Y001271D01*
X019418Y001246D01*
X019338Y001224D01*
X019256Y001207D01*
X019174Y001193D01*
X019091Y001183D01*
X019008Y001177D01*
X018925Y001175D01*
X002925Y001175D01*
X002842Y001177D01*
X002759Y001183D01*
X002676Y001193D01*
X002594Y001207D01*
X002512Y001224D01*
X002432Y001246D01*
X002353Y001271D01*
X002275Y001300D01*
X002198Y001333D01*
X002123Y001370D01*
X002050Y001409D01*
X001979Y001453D01*
X001910Y001499D01*
X001843Y001549D01*
X001779Y001602D01*
X001717Y001658D01*
X001658Y001717D01*
X001602Y001779D01*
X001549Y001843D01*
X001499Y001910D01*
X001453Y001979D01*
X001409Y002050D01*
X001370Y002123D01*
X001333Y002198D01*
X001300Y002275D01*
X001271Y002353D01*
X001246Y002432D01*
X001224Y002512D01*
X001207Y002594D01*
X001193Y002676D01*
X001183Y002759D01*
X001177Y002842D01*
X001175Y002925D01*
D11*
X017175Y009425D03*
X017175Y010425D03*
X017175Y011425D03*
X017175Y012425D03*
X018175Y012425D03*
X018175Y011425D03*
X018175Y010425D03*
X018175Y009425D03*
D12*
X018175Y006425D03*
X018175Y005425D03*
X017175Y005425D03*
X016175Y005425D03*
X016175Y006425D03*
X017175Y006425D03*
X017175Y015425D03*
X016175Y015425D03*
X016175Y016425D03*
X017175Y016425D03*
X018175Y016425D03*
X018175Y015425D03*
D13*
X012925Y013675D03*
X008925Y013675D03*
X003675Y012925D03*
X003675Y011925D03*
X003675Y010925D03*
X008925Y008175D03*
X009675Y006175D03*
X010925Y006175D03*
X012175Y006175D03*
X012925Y008175D03*
X007675Y004425D03*
X007175Y005175D03*
X006675Y004425D03*
X009675Y002175D03*
X010925Y002175D03*
X012175Y002175D03*
D14*
X014175Y006175D03*
X008425Y010925D03*
X008425Y011925D03*
X007175Y009675D03*
X007175Y008675D03*
X005175Y008675D03*
X005175Y009675D03*
D15*
X003675Y009925D03*
D16*
X009925Y010925D03*
X010925Y009925D03*
X011925Y010925D03*
X010925Y011925D03*
D17*
X014175Y005175D03*
D18*
X018925Y002925D03*
X018925Y018925D03*
X002925Y018925D03*
X002925Y002925D03*
D19*
X008425Y016858D02*
X008425Y017492D01*
X009425Y017492D02*
X009425Y016858D01*
X010425Y016858D02*
X010425Y017492D01*
X011425Y017492D02*
X011425Y016858D01*
X012425Y016858D02*
X012425Y017492D01*
X013425Y017492D02*
X013425Y016858D01*
D20*
X002064Y001918D02*
X001920Y001918D01*
X002034Y001942D02*
X001942Y002034D01*
X001859Y002135D01*
X001787Y002243D01*
X001726Y002358D01*
X001676Y002478D01*
X001638Y002603D01*
X001613Y002730D01*
X001601Y002850D01*
X002850Y002850D01*
X003000Y002850D01*
X003000Y003000D01*
X004249Y003000D01*
X004237Y003120D01*
X004212Y003247D01*
X004174Y003372D01*
X004124Y003492D01*
X004063Y003607D01*
X003991Y003715D01*
X003908Y003816D01*
X003816Y003908D01*
X003715Y003991D01*
X003607Y004063D01*
X003492Y004124D01*
X003372Y004174D01*
X003247Y004212D01*
X003120Y004237D01*
X003000Y004249D01*
X003000Y003000D01*
X002850Y003000D01*
X002850Y004249D01*
X002730Y004237D01*
X002603Y004212D01*
X002478Y004174D01*
X002358Y004124D01*
X002243Y004063D01*
X002135Y003991D01*
X002034Y003908D01*
X001942Y003816D01*
X001859Y003715D01*
X001787Y003607D01*
X001726Y003492D01*
X001676Y003372D01*
X001638Y003247D01*
X001613Y003120D01*
X001601Y003000D01*
X002850Y003000D01*
X002850Y002850D01*
X002850Y001601D01*
X002730Y001613D01*
X002603Y001638D01*
X002478Y001676D01*
X002358Y001726D01*
X002243Y001787D01*
X002135Y001859D01*
X002034Y001942D01*
X002051Y001787D02*
X001787Y002051D01*
X001599Y002376D01*
X001502Y002738D01*
X001490Y002925D01*
X001490Y018925D01*
X001502Y019112D01*
X001599Y019474D01*
X001787Y019799D01*
X002051Y020063D01*
X002376Y020251D01*
X002738Y020348D01*
X002925Y020360D01*
X018925Y020360D01*
X019112Y020348D01*
X019474Y020251D01*
X019799Y020063D01*
X020063Y019799D01*
X020251Y019474D01*
X020348Y019112D01*
X020360Y018925D01*
X020360Y002925D01*
X020348Y002738D01*
X020251Y002376D01*
X020251Y002376D01*
X020063Y002051D01*
X019799Y001787D01*
X019474Y001599D01*
X019112Y001502D01*
X018925Y001490D01*
X002925Y001490D01*
X002738Y001502D01*
X002376Y001599D01*
X002051Y001787D01*
X002082Y001769D02*
X002277Y001769D01*
X002339Y001621D02*
X002691Y001621D01*
X002850Y001621D02*
X003000Y001621D01*
X003000Y001601D02*
X003120Y001613D01*
X003247Y001638D01*
X003372Y001676D01*
X003492Y001726D01*
X003607Y001787D01*
X003715Y001859D01*
X003816Y001942D01*
X003908Y002034D01*
X003991Y002135D01*
X004063Y002243D01*
X004124Y002358D01*
X004174Y002478D01*
X004212Y002603D01*
X004237Y002730D01*
X004249Y002850D01*
X003000Y002850D01*
X003000Y001601D01*
X003159Y001621D02*
X010511Y001621D01*
X010537Y001594D02*
X010789Y001490D01*
X011061Y001490D01*
X011313Y001594D01*
X011504Y001785D01*
X011596Y001785D01*
X011787Y001594D01*
X012039Y001490D01*
X012311Y001490D01*
X012563Y001594D01*
X012756Y001787D01*
X012860Y002039D01*
X012860Y002308D01*
X014396Y003844D01*
X014506Y003954D01*
X014565Y004097D01*
X014565Y004536D01*
X014678Y004583D01*
X014767Y004672D01*
X014814Y004785D01*
X015503Y004785D01*
X015646Y004844D01*
X015752Y004950D01*
X015912Y004790D01*
X016438Y004790D01*
X016675Y005027D01*
X016912Y004790D01*
X017438Y004790D01*
X017675Y005027D01*
X017912Y004790D01*
X018438Y004790D01*
X018683Y005035D01*
X019253Y005035D01*
X019396Y005094D01*
X019506Y005204D01*
X019565Y005347D01*
X019565Y010503D01*
X019506Y010646D01*
X019396Y010756D01*
X019253Y010815D01*
X018655Y010815D01*
X018446Y011024D01*
X018650Y011228D01*
X018650Y011410D01*
X018190Y011410D01*
X018190Y011440D01*
X018650Y011440D01*
X018650Y011622D01*
X018446Y011826D01*
X018790Y012170D01*
X018790Y012680D01*
X018565Y012905D01*
X018565Y014917D01*
X018810Y015162D01*
X018810Y015688D01*
X018573Y015925D01*
X018810Y016162D01*
X018810Y016688D01*
X018438Y017060D01*
X017912Y017060D01*
X017675Y016823D01*
X017438Y017060D01*
X016912Y017060D01*
X016675Y016823D01*
X016438Y017060D01*
X015912Y017060D01*
X015540Y016688D01*
X015540Y016162D01*
X015777Y015925D01*
X015540Y015688D01*
X015540Y015342D01*
X014454Y014256D01*
X014344Y014146D01*
X014285Y014003D01*
X014285Y007847D01*
X014344Y007704D01*
X015540Y006508D01*
X015540Y006162D01*
X015777Y005925D01*
X015667Y005815D01*
X015597Y005815D01*
X015454Y005756D01*
X015263Y005565D01*
X014814Y005565D01*
X014767Y005678D01*
X014678Y005767D01*
X014563Y005815D01*
X014522Y005815D01*
X014556Y005849D01*
X014603Y005913D01*
X014638Y005983D01*
X014663Y006058D01*
X014675Y006136D01*
X014675Y006175D01*
X014675Y006214D01*
X014663Y006292D01*
X014638Y006367D01*
X014603Y006437D01*
X014556Y006501D01*
X014501Y006556D01*
X014437Y006603D01*
X014367Y006638D01*
X014292Y006663D01*
X014214Y006675D01*
X014175Y006675D01*
X014175Y006175D01*
X014175Y006175D01*
X014675Y006175D01*
X014175Y006175D01*
X014175Y006175D01*
X014175Y006175D01*
X013675Y006175D01*
X013675Y006214D01*
X013687Y006292D01*
X013712Y006367D01*
X013747Y006437D01*
X013794Y006501D01*
X013849Y006556D01*
X013913Y006603D01*
X013983Y006638D01*
X014058Y006663D01*
X014136Y006675D01*
X014175Y006675D01*
X014175Y006175D01*
X013675Y006175D01*
X013675Y006136D01*
X013687Y006058D01*
X013712Y005983D01*
X013747Y005913D01*
X013794Y005849D01*
X013828Y005815D01*
X013787Y005815D01*
X013672Y005767D01*
X013583Y005678D01*
X013535Y005563D01*
X013535Y004787D01*
X013583Y004672D01*
X013672Y004583D01*
X013785Y004536D01*
X013785Y004337D01*
X012308Y002860D01*
X012039Y002860D01*
X011787Y002756D01*
X011596Y002565D01*
X011504Y002565D01*
X011313Y002756D01*
X011061Y002860D01*
X010792Y002860D01*
X009065Y004587D01*
X009065Y005858D01*
X009094Y005787D01*
X009287Y005594D01*
X009539Y005490D01*
X009811Y005490D01*
X010063Y005594D01*
X010256Y005787D01*
X010300Y005894D01*
X010344Y005787D01*
X010537Y005594D01*
X010789Y005490D01*
X011061Y005490D01*
X011313Y005594D01*
X011506Y005787D01*
X011550Y005894D01*
X011594Y005787D01*
X011787Y005594D01*
X012039Y005490D01*
X012311Y005490D01*
X012563Y005594D01*
X012756Y005787D01*
X012860Y006039D01*
X012860Y006311D01*
X012756Y006563D01*
X012563Y006756D01*
X012311Y006860D01*
X012300Y006860D01*
X012300Y007894D01*
X012344Y007787D01*
X012537Y007594D01*
X012789Y007490D01*
X013061Y007490D01*
X013313Y007594D01*
X013506Y007787D01*
X013610Y008039D01*
X013610Y008311D01*
X013506Y008563D01*
X013315Y008754D01*
X013315Y013096D01*
X013506Y013287D01*
X013610Y013539D01*
X013610Y013808D01*
X013756Y013954D01*
X013815Y014097D01*
X013815Y016355D01*
X013961Y016500D01*
X014057Y016732D01*
X014057Y017618D01*
X013961Y017850D01*
X013783Y018028D01*
X013551Y018124D01*
X013299Y018124D01*
X013067Y018028D01*
X012925Y017885D01*
X012783Y018028D01*
X012551Y018124D01*
X012299Y018124D01*
X012067Y018028D01*
X011889Y017850D01*
X011847Y017747D01*
X011846Y017750D01*
X011800Y017812D01*
X011745Y017867D01*
X011683Y017913D01*
X011614Y017948D01*
X011540Y017972D01*
X011464Y017984D01*
X011448Y017984D01*
X011448Y017198D01*
X011402Y017198D01*
X011402Y017984D01*
X011386Y017984D01*
X011310Y017972D01*
X011236Y017948D01*
X011167Y017913D01*
X011105Y017867D01*
X011050Y017812D01*
X011004Y017750D01*
X011003Y017747D01*
X010961Y017850D01*
X010783Y018028D01*
X010551Y018124D01*
X010299Y018124D01*
X010067Y018028D01*
X009925Y017885D01*
X009783Y018028D01*
X009551Y018124D01*
X009299Y018124D01*
X009067Y018028D01*
X008925Y017885D01*
X008783Y018028D01*
X008551Y018124D01*
X008299Y018124D01*
X008067Y018028D01*
X007889Y017850D01*
X007793Y017618D01*
X007793Y016732D01*
X007889Y016500D01*
X008035Y016355D01*
X008035Y014097D01*
X008094Y013954D01*
X008240Y013808D01*
X008240Y013539D01*
X008344Y013287D01*
X008537Y013094D01*
X008785Y012992D01*
X008785Y012272D01*
X008751Y012306D01*
X008687Y012353D01*
X008617Y012388D01*
X008542Y012413D01*
X008464Y012425D01*
X008425Y012425D01*
X008425Y011925D01*
X002925Y017425D01*
X002925Y018925D01*
X003000Y018995D02*
X018850Y018995D01*
X018850Y019000D02*
X018850Y018850D01*
X019000Y018850D01*
X019000Y019000D01*
X020249Y019000D01*
X020237Y019120D01*
X020212Y019247D01*
X020174Y019372D01*
X020124Y019492D01*
X020063Y019607D01*
X019991Y019715D01*
X019908Y019816D01*
X019816Y019908D01*
X019715Y019991D01*
X019607Y020063D01*
X019492Y020124D01*
X019372Y020174D01*
X019247Y020212D01*
X019120Y020237D01*
X019000Y020249D01*
X019000Y019000D01*
X018850Y019000D01*
X018850Y020249D01*
X018730Y020237D01*
X018603Y020212D01*
X018478Y020174D01*
X018358Y020124D01*
X018243Y020063D01*
X018135Y019991D01*
X018034Y019908D01*
X017942Y019816D01*
X017859Y019715D01*
X017787Y019607D01*
X017726Y019492D01*
X017676Y019372D01*
X017638Y019247D01*
X017613Y019120D01*
X017601Y019000D01*
X018850Y019000D01*
X018925Y018925D02*
X019175Y018675D01*
X019175Y011425D01*
X019675Y011425D01*
X019675Y003675D01*
X018925Y002925D01*
X019000Y002957D02*
X020360Y002957D01*
X020249Y003000D02*
X020237Y003120D01*
X020212Y003247D01*
X020174Y003372D01*
X020124Y003492D01*
X020063Y003607D01*
X019991Y003715D01*
X019908Y003816D01*
X019816Y003908D01*
X019715Y003991D01*
X019607Y004063D01*
X019492Y004124D01*
X019372Y004174D01*
X019247Y004212D01*
X019120Y004237D01*
X019000Y004249D01*
X019000Y003000D01*
X020249Y003000D01*
X020239Y003106D02*
X020360Y003106D01*
X020360Y003254D02*
X020210Y003254D01*
X020161Y003403D02*
X020360Y003403D01*
X020360Y003551D02*
X020093Y003551D01*
X020001Y003700D02*
X020360Y003700D01*
X020360Y003848D02*
X019876Y003848D01*
X019706Y003997D02*
X020360Y003997D01*
X020360Y004145D02*
X019442Y004145D01*
X019000Y004145D02*
X018850Y004145D01*
X018850Y004249D02*
X018730Y004237D01*
X018603Y004212D01*
X018478Y004174D01*
X018358Y004124D01*
X018243Y004063D01*
X018135Y003991D01*
X018034Y003908D01*
X017942Y003816D01*
X017859Y003715D01*
X017787Y003607D01*
X017726Y003492D01*
X017676Y003372D01*
X017638Y003247D01*
X017613Y003120D01*
X017601Y003000D01*
X018850Y003000D01*
X018850Y004249D01*
X018850Y003997D02*
X019000Y003997D01*
X019000Y003848D02*
X018850Y003848D01*
X018850Y003700D02*
X019000Y003700D01*
X019000Y003551D02*
X018850Y003551D01*
X018850Y003403D02*
X019000Y003403D01*
X019000Y003254D02*
X018850Y003254D01*
X018850Y003106D02*
X019000Y003106D01*
X019000Y003000D02*
X018850Y003000D01*
X018850Y002850D01*
X019000Y002850D01*
X019000Y003000D01*
X019000Y002850D02*
X020249Y002850D01*
X020237Y002730D01*
X020212Y002603D01*
X020174Y002478D01*
X020124Y002358D01*
X020063Y002243D01*
X019991Y002135D01*
X019908Y002034D01*
X019816Y001942D01*
X019715Y001859D01*
X019607Y001787D01*
X019492Y001726D01*
X019372Y001676D01*
X019247Y001638D01*
X019120Y001613D01*
X019000Y001601D01*
X019000Y002850D01*
X019000Y002809D02*
X018850Y002809D01*
X018850Y002850D02*
X018850Y001601D01*
X018730Y001613D01*
X018603Y001638D01*
X018478Y001676D01*
X018358Y001726D01*
X018243Y001787D01*
X018135Y001859D01*
X018034Y001942D01*
X017942Y002034D01*
X017859Y002135D01*
X017787Y002243D01*
X017726Y002358D01*
X017676Y002478D01*
X017638Y002603D01*
X017613Y002730D01*
X017601Y002850D01*
X018850Y002850D01*
X018850Y002957D02*
X013509Y002957D01*
X013657Y003106D02*
X017611Y003106D01*
X017640Y003254D02*
X013806Y003254D01*
X013954Y003403D02*
X017689Y003403D01*
X017757Y003551D02*
X014103Y003551D01*
X014251Y003700D02*
X017849Y003700D01*
X017974Y003848D02*
X014400Y003848D01*
X014523Y003997D02*
X018144Y003997D01*
X018408Y004145D02*
X014565Y004145D01*
X014565Y004294D02*
X020360Y004294D01*
X020360Y004442D02*
X014565Y004442D01*
X014686Y004591D02*
X020360Y004591D01*
X020360Y004739D02*
X014795Y004739D01*
X014175Y005175D02*
X014175Y004175D01*
X012175Y002175D01*
X010925Y002175D01*
X008675Y004425D01*
X008675Y006675D01*
X009925Y007925D01*
X009925Y010925D01*
X009675Y011175D01*
X009675Y015425D01*
X009425Y015675D01*
X009425Y017175D01*
X008995Y017956D02*
X008855Y017956D01*
X008598Y018104D02*
X009252Y018104D01*
X009598Y018104D02*
X010252Y018104D01*
X009995Y017956D02*
X009855Y017956D01*
X010598Y018104D02*
X012252Y018104D01*
X012598Y018104D02*
X013252Y018104D01*
X012995Y017956D02*
X012855Y017956D01*
X013598Y018104D02*
X017885Y018104D01*
X017859Y018135D02*
X017942Y018034D01*
X018034Y017942D01*
X018135Y017859D01*
X018243Y017787D01*
X018358Y017726D01*
X018478Y017676D01*
X018603Y017638D01*
X018730Y017613D01*
X018850Y017601D01*
X018850Y018850D01*
X017601Y018850D01*
X017613Y018730D01*
X017638Y018603D01*
X017676Y018478D01*
X017726Y018358D01*
X017787Y018243D01*
X017859Y018135D01*
X017782Y018253D02*
X004068Y018253D01*
X004063Y018243D02*
X004124Y018358D01*
X004174Y018478D01*
X004212Y018603D01*
X004237Y018730D01*
X004249Y018850D01*
X003000Y018850D01*
X003000Y019000D01*
X004249Y019000D01*
X004237Y019120D01*
X004212Y019247D01*
X004174Y019372D01*
X004124Y019492D01*
X004063Y019607D01*
X003991Y019715D01*
X003908Y019816D01*
X003816Y019908D01*
X003715Y019991D01*
X003607Y020063D01*
X003492Y020124D01*
X003372Y020174D01*
X003247Y020212D01*
X003120Y020237D01*
X003000Y020249D01*
X003000Y019000D01*
X002850Y019000D01*
X002850Y020249D01*
X002730Y020237D01*
X002603Y020212D01*
X002478Y020174D01*
X002358Y020124D01*
X002243Y020063D01*
X002135Y019991D01*
X002034Y019908D01*
X001942Y019816D01*
X001859Y019715D01*
X001787Y019607D01*
X001726Y019492D01*
X001676Y019372D01*
X001638Y019247D01*
X001613Y019120D01*
X001601Y019000D01*
X002850Y019000D01*
X002850Y018850D01*
X003000Y018850D01*
X003000Y017601D01*
X003120Y017613D01*
X003247Y017638D01*
X003372Y017676D01*
X003492Y017726D01*
X003607Y017787D01*
X003715Y017859D01*
X003816Y017942D01*
X003908Y018034D01*
X003991Y018135D01*
X004063Y018243D01*
X003965Y018104D02*
X008252Y018104D01*
X007995Y017956D02*
X003829Y017956D01*
X003637Y017807D02*
X007872Y017807D01*
X007810Y017659D02*
X003314Y017659D01*
X003000Y017659D02*
X002850Y017659D01*
X002850Y017601D02*
X002850Y018850D01*
X001601Y018850D01*
X001613Y018730D01*
X001638Y018603D01*
X001676Y018478D01*
X001726Y018358D01*
X001787Y018243D01*
X001859Y018135D01*
X001942Y018034D01*
X002034Y017942D01*
X002135Y017859D01*
X002243Y017787D01*
X002358Y017726D01*
X002478Y017676D01*
X002603Y017638D01*
X002730Y017613D01*
X002850Y017601D01*
X002850Y017807D02*
X003000Y017807D01*
X003000Y017956D02*
X002850Y017956D01*
X002850Y018104D02*
X003000Y018104D01*
X003000Y018253D02*
X002850Y018253D01*
X002850Y018401D02*
X003000Y018401D01*
X003000Y018550D02*
X002850Y018550D01*
X002850Y018698D02*
X003000Y018698D01*
X003000Y018847D02*
X002850Y018847D01*
X002850Y018995D02*
X001495Y018995D01*
X001490Y018847D02*
X001601Y018847D01*
X001619Y018698D02*
X001490Y018698D01*
X001490Y018550D02*
X001654Y018550D01*
X001708Y018401D02*
X001490Y018401D01*
X001490Y018253D02*
X001782Y018253D01*
X001885Y018104D02*
X001490Y018104D01*
X001490Y017956D02*
X002021Y017956D01*
X002213Y017807D02*
X001490Y017807D01*
X001490Y017659D02*
X002536Y017659D01*
X001490Y017510D02*
X007793Y017510D01*
X007793Y017362D02*
X001490Y017362D01*
X001490Y017213D02*
X007793Y017213D01*
X007793Y017065D02*
X001490Y017065D01*
X001490Y016916D02*
X007793Y016916D01*
X007793Y016768D02*
X001490Y016768D01*
X001490Y016619D02*
X007840Y016619D01*
X007919Y016471D02*
X001490Y016471D01*
X001490Y016322D02*
X008035Y016322D01*
X008035Y016174D02*
X001490Y016174D01*
X001490Y016025D02*
X008035Y016025D01*
X008035Y015877D02*
X001490Y015877D01*
X001490Y015728D02*
X008035Y015728D01*
X008035Y015580D02*
X001490Y015580D01*
X001490Y015431D02*
X008035Y015431D01*
X008035Y015283D02*
X001490Y015283D01*
X001490Y015134D02*
X008035Y015134D01*
X008035Y014986D02*
X001490Y014986D01*
X001490Y014837D02*
X008035Y014837D01*
X008035Y014689D02*
X001490Y014689D01*
X001490Y014540D02*
X008035Y014540D01*
X008035Y014392D02*
X001490Y014392D01*
X001490Y014243D02*
X008035Y014243D01*
X008036Y014095D02*
X001490Y014095D01*
X001490Y013946D02*
X008102Y013946D01*
X008240Y013798D02*
X001490Y013798D01*
X001490Y013649D02*
X008240Y013649D01*
X008256Y013501D02*
X004068Y013501D01*
X004063Y013506D02*
X003811Y013610D01*
X003539Y013610D01*
X003287Y013506D01*
X003094Y013313D01*
X002990Y013061D01*
X002990Y012789D01*
X003094Y012537D01*
X003206Y012425D01*
X003094Y012313D01*
X002990Y012061D01*
X002990Y011789D01*
X003094Y011537D01*
X003287Y011344D01*
X003313Y011334D01*
X003259Y011280D01*
X003209Y011211D01*
X003170Y011134D01*
X003143Y011053D01*
X003130Y010968D01*
X003130Y010950D01*
X003650Y010950D01*
X003650Y011240D01*
X003700Y011240D01*
X003700Y010950D01*
X004220Y010950D01*
X004220Y010968D01*
X004207Y011053D01*
X004180Y011134D01*
X004141Y011211D01*
X004091Y011280D01*
X004037Y011334D01*
X004063Y011344D01*
X004256Y011537D01*
X004360Y011789D01*
X004360Y012061D01*
X004256Y012313D01*
X004144Y012425D01*
X004256Y012537D01*
X004360Y012789D01*
X004360Y013061D01*
X004256Y013313D01*
X004063Y013506D01*
X004217Y013352D02*
X008317Y013352D01*
X008428Y013204D02*
X004301Y013204D01*
X004360Y013055D02*
X008632Y013055D01*
X008785Y012907D02*
X004360Y012907D01*
X004347Y012758D02*
X008785Y012758D01*
X008785Y012610D02*
X004286Y012610D01*
X004180Y012461D02*
X008785Y012461D01*
X008785Y012313D02*
X008742Y012313D01*
X008425Y012313D02*
X008425Y012313D01*
X008425Y012425D02*
X008386Y012425D01*
X008308Y012413D01*
X008233Y012388D01*
X008163Y012353D01*
X008099Y012306D01*
X008044Y012251D01*
X007997Y012187D01*
X007962Y012117D01*
X007937Y012042D01*
X007925Y011964D01*
X007925Y011925D01*
X008425Y011925D01*
X008175Y011925D01*
X007675Y011425D01*
X007675Y010425D01*
X007925Y010175D01*
X007925Y009175D01*
X007425Y008675D01*
X007175Y008675D01*
X006175Y008675D01*
X006175Y004925D01*
X006675Y004425D01*
X006680Y004420D02*
X006680Y003880D01*
X006718Y003880D01*
X006803Y003893D01*
X006884Y003920D01*
X006961Y003959D01*
X007030Y004009D01*
X007084Y004063D01*
X007094Y004037D01*
X007287Y003844D01*
X007539Y003740D01*
X007811Y003740D01*
X008063Y003844D01*
X008256Y004037D01*
X008335Y004228D01*
X008344Y004204D01*
X009861Y002688D01*
X009803Y002707D01*
X009718Y002720D01*
X009689Y002720D01*
X009689Y002189D01*
X009661Y002189D01*
X009661Y002720D01*
X009632Y002720D01*
X009547Y002707D01*
X009466Y002680D01*
X009389Y002641D01*
X009320Y002591D01*
X009259Y002530D01*
X009209Y002461D01*
X009170Y002384D01*
X009143Y002303D01*
X009130Y002218D01*
X009130Y002189D01*
X009661Y002189D01*
X009661Y002161D01*
X009130Y002161D01*
X009130Y002132D01*
X009143Y002047D01*
X009170Y001966D01*
X009209Y001889D01*
X009259Y001820D01*
X009320Y001759D01*
X009389Y001709D01*
X009466Y001670D01*
X009547Y001643D01*
X009632Y001630D01*
X009661Y001630D01*
X009661Y002161D01*
X009689Y002161D01*
X009689Y002189D01*
X010220Y002189D01*
X010220Y002218D01*
X010207Y002303D01*
X010188Y002361D01*
X010240Y002308D01*
X010240Y002039D01*
X010344Y001787D01*
X010537Y001594D01*
X010362Y001769D02*
X010040Y001769D01*
X010030Y001759D02*
X010091Y001820D01*
X010141Y001889D01*
X010180Y001966D01*
X010207Y002047D01*
X010220Y002132D01*
X010220Y002161D01*
X009689Y002161D01*
X009689Y001630D01*
X009718Y001630D01*
X009803Y001643D01*
X009884Y001670D01*
X009961Y001709D01*
X010030Y001759D01*
X010155Y001918D02*
X010290Y001918D01*
X010240Y002066D02*
X010210Y002066D01*
X010220Y002215D02*
X010240Y002215D01*
X009689Y002215D02*
X009661Y002215D01*
X009661Y002363D02*
X009689Y002363D01*
X009689Y002512D02*
X009661Y002512D01*
X009661Y002660D02*
X009689Y002660D01*
X009740Y002809D02*
X004245Y002809D01*
X004223Y002660D02*
X009426Y002660D01*
X009246Y002512D02*
X004184Y002512D01*
X004126Y002363D02*
X009163Y002363D01*
X009130Y002215D02*
X004044Y002215D01*
X003934Y002066D02*
X009140Y002066D01*
X009195Y001918D02*
X003786Y001918D01*
X003573Y001769D02*
X009310Y001769D01*
X009661Y001769D02*
X009689Y001769D01*
X009689Y001918D02*
X009661Y001918D01*
X009661Y002066D02*
X009689Y002066D01*
X009591Y002957D02*
X003000Y002957D01*
X003000Y002809D02*
X002850Y002809D01*
X002850Y002957D02*
X001490Y002957D01*
X001490Y003106D02*
X001611Y003106D01*
X001640Y003254D02*
X001490Y003254D01*
X001490Y003403D02*
X001689Y003403D01*
X001757Y003551D02*
X001490Y003551D01*
X001490Y003700D02*
X001849Y003700D01*
X001974Y003848D02*
X001490Y003848D01*
X001490Y003997D02*
X002144Y003997D01*
X002408Y004145D02*
X001490Y004145D01*
X001490Y004294D02*
X006145Y004294D01*
X006143Y004297D02*
X006170Y004216D01*
X006209Y004139D01*
X006259Y004070D01*
X006320Y004009D01*
X006389Y003959D01*
X006466Y003920D01*
X006547Y003893D01*
X006632Y003880D01*
X006670Y003880D01*
X006670Y004420D01*
X006680Y004420D01*
X006670Y004420D02*
X006130Y004420D01*
X006130Y004382D01*
X006143Y004297D01*
X006130Y004430D02*
X006670Y004430D01*
X006670Y004420D01*
X006670Y004294D02*
X006680Y004294D01*
X006670Y004145D02*
X006680Y004145D01*
X006670Y003997D02*
X006680Y003997D01*
X006338Y003997D02*
X003706Y003997D01*
X003876Y003848D02*
X007283Y003848D01*
X007135Y003997D02*
X007012Y003997D01*
X007675Y004425D02*
X008175Y004925D01*
X008175Y007425D01*
X008925Y008175D01*
X009175Y008425D01*
X009175Y013425D01*
X008925Y013675D01*
X008425Y014175D01*
X008425Y017175D01*
X010550Y015270D02*
X010637Y015357D01*
X010743Y015463D01*
X010800Y015600D01*
X010800Y016340D01*
X010961Y016500D01*
X011003Y016603D01*
X011004Y016600D01*
X011050Y016538D01*
X011105Y016483D01*
X011167Y016437D01*
X011236Y016402D01*
X011310Y016378D01*
X011386Y016366D01*
X011402Y016366D01*
X011402Y017152D01*
X011448Y017152D01*
X011448Y016366D01*
X011464Y016366D01*
X011540Y016378D01*
X011614Y016402D01*
X011683Y016437D01*
X011745Y016483D01*
X011800Y016538D01*
X011846Y016600D01*
X011847Y016603D01*
X011889Y016500D01*
X012050Y016340D01*
X012050Y016080D01*
X011607Y015637D01*
X011550Y015500D01*
X011550Y011489D01*
X011548Y011489D01*
X011361Y011302D01*
X011268Y011077D01*
X011243Y011137D01*
X010978Y011402D01*
X011048Y011413D01*
X011127Y011438D01*
X011200Y011476D01*
X011267Y011525D01*
X011325Y011583D01*
X011374Y011650D01*
X011412Y011723D01*
X011437Y011802D01*
X011450Y011884D01*
X011450Y011920D01*
X010930Y011920D01*
X010930Y011930D01*
X010920Y011930D01*
X010920Y012450D01*
X010884Y012450D01*
X010802Y012437D01*
X010723Y012412D01*
X010650Y012374D01*
X010583Y012325D01*
X010550Y012292D01*
X010550Y015270D01*
X010563Y015283D02*
X011550Y015283D01*
X011550Y015431D02*
X010711Y015431D01*
X010791Y015580D02*
X011583Y015580D01*
X011698Y015728D02*
X010800Y015728D01*
X010800Y015877D02*
X011846Y015877D01*
X011995Y016025D02*
X010800Y016025D01*
X010800Y016174D02*
X012050Y016174D01*
X012050Y016322D02*
X010800Y016322D01*
X010931Y016471D02*
X011122Y016471D01*
X011402Y016471D02*
X011448Y016471D01*
X011448Y016619D02*
X011402Y016619D01*
X011402Y016768D02*
X011448Y016768D01*
X011448Y016916D02*
X011402Y016916D01*
X011402Y017065D02*
X011448Y017065D01*
X011425Y017175D02*
X011425Y015925D01*
X010925Y015425D01*
X010925Y011925D01*
X010930Y011930D02*
X010930Y012450D01*
X010966Y012450D01*
X011048Y012437D01*
X011127Y012412D01*
X011200Y012374D01*
X011267Y012325D01*
X011325Y012267D01*
X011374Y012200D01*
X011412Y012127D01*
X011437Y012048D01*
X011450Y011966D01*
X011450Y011930D01*
X010930Y011930D01*
X010930Y011920D02*
X010930Y011450D01*
X010920Y011460D01*
X010920Y011920D01*
X010930Y011920D01*
X010920Y011920D02*
X010550Y011920D01*
X010550Y011930D01*
X010920Y011930D01*
X010920Y011920D01*
X010920Y011867D02*
X010930Y011867D01*
X010920Y011719D02*
X010930Y011719D01*
X010920Y011570D02*
X010930Y011570D01*
X011074Y011422D02*
X011481Y011422D01*
X011550Y011570D02*
X011312Y011570D01*
X011409Y011719D02*
X011550Y011719D01*
X011550Y011867D02*
X011447Y011867D01*
X011442Y012016D02*
X011550Y012016D01*
X011550Y012164D02*
X011392Y012164D01*
X011280Y012313D02*
X011550Y012313D01*
X011550Y012461D02*
X010550Y012461D01*
X010550Y012313D02*
X010570Y012313D01*
X010550Y012610D02*
X011550Y012610D01*
X011550Y012758D02*
X010550Y012758D01*
X010550Y012907D02*
X011550Y012907D01*
X011550Y013055D02*
X010550Y013055D01*
X010550Y013204D02*
X011550Y013204D01*
X011550Y013352D02*
X010550Y013352D01*
X010550Y013501D02*
X011550Y013501D01*
X011550Y013649D02*
X010550Y013649D01*
X010550Y013798D02*
X011550Y013798D01*
X011550Y013946D02*
X010550Y013946D01*
X010550Y014095D02*
X011550Y014095D01*
X011550Y014243D02*
X010550Y014243D01*
X010550Y014392D02*
X011550Y014392D01*
X011550Y014540D02*
X010550Y014540D01*
X010550Y014689D02*
X011550Y014689D01*
X011550Y014837D02*
X010550Y014837D01*
X010550Y014986D02*
X011550Y014986D01*
X011550Y015134D02*
X010550Y015134D01*
X011728Y016471D02*
X011919Y016471D01*
X011448Y017213D02*
X011402Y017213D01*
X011402Y017362D02*
X011448Y017362D01*
X011448Y017510D02*
X011402Y017510D01*
X011402Y017659D02*
X011448Y017659D01*
X011448Y017807D02*
X011402Y017807D01*
X011402Y017956D02*
X011448Y017956D01*
X011590Y017956D02*
X011995Y017956D01*
X011872Y017807D02*
X011804Y017807D01*
X011260Y017956D02*
X010855Y017956D01*
X010978Y017807D02*
X011046Y017807D01*
X013425Y017175D02*
X013425Y014175D01*
X012925Y013675D01*
X012925Y008175D01*
X013428Y007709D02*
X014342Y007709D01*
X014285Y007858D02*
X013535Y007858D01*
X013596Y008006D02*
X014285Y008006D01*
X014285Y008155D02*
X013610Y008155D01*
X013610Y008303D02*
X014285Y008303D01*
X014285Y008452D02*
X013552Y008452D01*
X013469Y008600D02*
X014285Y008600D01*
X014285Y008749D02*
X013320Y008749D01*
X013315Y008897D02*
X014285Y008897D01*
X014285Y009046D02*
X013315Y009046D01*
X013315Y009194D02*
X014285Y009194D01*
X014285Y009343D02*
X013315Y009343D01*
X013315Y009491D02*
X014285Y009491D01*
X014285Y009640D02*
X013315Y009640D01*
X013315Y009788D02*
X014285Y009788D01*
X014285Y009937D02*
X013315Y009937D01*
X013315Y010085D02*
X014285Y010085D01*
X014285Y010234D02*
X013315Y010234D01*
X013315Y010382D02*
X014285Y010382D01*
X014285Y010531D02*
X013315Y010531D01*
X013315Y010679D02*
X014285Y010679D01*
X014285Y010828D02*
X013315Y010828D01*
X013315Y010976D02*
X014285Y010976D01*
X014285Y011125D02*
X013315Y011125D01*
X013315Y011273D02*
X014285Y011273D01*
X014285Y011422D02*
X013315Y011422D01*
X013315Y011570D02*
X014285Y011570D01*
X014285Y011719D02*
X013315Y011719D01*
X013315Y011867D02*
X014285Y011867D01*
X014285Y012016D02*
X013315Y012016D01*
X013315Y012164D02*
X014285Y012164D01*
X014285Y012313D02*
X013315Y012313D01*
X013315Y012461D02*
X014285Y012461D01*
X014285Y012610D02*
X013315Y012610D01*
X013315Y012758D02*
X014285Y012758D01*
X014285Y012907D02*
X013315Y012907D01*
X013315Y013055D02*
X014285Y013055D01*
X014285Y013204D02*
X013422Y013204D01*
X013533Y013352D02*
X014285Y013352D01*
X014285Y013501D02*
X013594Y013501D01*
X013610Y013649D02*
X014285Y013649D01*
X014285Y013798D02*
X013610Y013798D01*
X013748Y013946D02*
X014285Y013946D01*
X014323Y014095D02*
X013814Y014095D01*
X013815Y014243D02*
X014441Y014243D01*
X014590Y014392D02*
X013815Y014392D01*
X013815Y014540D02*
X014738Y014540D01*
X014887Y014689D02*
X013815Y014689D01*
X013815Y014837D02*
X015035Y014837D01*
X015184Y014986D02*
X013815Y014986D01*
X013815Y015134D02*
X015332Y015134D01*
X015481Y015283D02*
X013815Y015283D01*
X013815Y015431D02*
X015540Y015431D01*
X015540Y015580D02*
X013815Y015580D01*
X013815Y015728D02*
X015580Y015728D01*
X015729Y015877D02*
X013815Y015877D01*
X013815Y016025D02*
X015677Y016025D01*
X015540Y016174D02*
X013815Y016174D01*
X013815Y016322D02*
X015540Y016322D01*
X015540Y016471D02*
X013931Y016471D01*
X014010Y016619D02*
X015540Y016619D01*
X015620Y016768D02*
X014057Y016768D01*
X014057Y016916D02*
X015768Y016916D01*
X016582Y016916D02*
X016768Y016916D01*
X017582Y016916D02*
X017768Y016916D01*
X018536Y017659D02*
X014040Y017659D01*
X014057Y017510D02*
X020360Y017510D01*
X020360Y017362D02*
X014057Y017362D01*
X014057Y017213D02*
X020360Y017213D01*
X020360Y017065D02*
X014057Y017065D01*
X013978Y017807D02*
X018213Y017807D01*
X018021Y017956D02*
X013855Y017956D01*
X016175Y015425D02*
X014675Y013925D01*
X014675Y007925D01*
X016175Y006425D01*
X015775Y005927D02*
X014610Y005927D01*
X014651Y005779D02*
X015509Y005779D01*
X015328Y005630D02*
X014787Y005630D01*
X014665Y006076D02*
X015626Y006076D01*
X015540Y006224D02*
X014673Y006224D01*
X014636Y006373D02*
X015540Y006373D01*
X015527Y006521D02*
X014536Y006521D01*
X014249Y006670D02*
X015379Y006670D01*
X015230Y006818D02*
X012413Y006818D01*
X012300Y006967D02*
X015082Y006967D01*
X014933Y007115D02*
X012300Y007115D01*
X012300Y007264D02*
X014785Y007264D01*
X014636Y007412D02*
X012300Y007412D01*
X012300Y007561D02*
X012619Y007561D01*
X012422Y007709D02*
X012300Y007709D01*
X012300Y007858D02*
X012315Y007858D01*
X013231Y007561D02*
X014488Y007561D01*
X014175Y006670D02*
X014175Y006670D01*
X014101Y006670D02*
X012649Y006670D01*
X012773Y006521D02*
X013814Y006521D01*
X013714Y006373D02*
X012835Y006373D01*
X012860Y006224D02*
X013677Y006224D01*
X013685Y006076D02*
X012860Y006076D01*
X012814Y005927D02*
X013740Y005927D01*
X013699Y005779D02*
X012747Y005779D01*
X012599Y005630D02*
X013563Y005630D01*
X013535Y005482D02*
X009065Y005482D01*
X009065Y005630D02*
X009251Y005630D01*
X009103Y005779D02*
X009065Y005779D01*
X009065Y005333D02*
X013535Y005333D01*
X013535Y005185D02*
X009065Y005185D01*
X009065Y005036D02*
X013535Y005036D01*
X013535Y004888D02*
X009065Y004888D01*
X009065Y004739D02*
X013555Y004739D01*
X013664Y004591D02*
X009065Y004591D01*
X009210Y004442D02*
X013785Y004442D01*
X013742Y004294D02*
X009358Y004294D01*
X009507Y004145D02*
X013593Y004145D01*
X013445Y003997D02*
X009655Y003997D01*
X009804Y003848D02*
X013296Y003848D01*
X013148Y003700D02*
X009952Y003700D01*
X010101Y003551D02*
X012999Y003551D01*
X012851Y003403D02*
X010249Y003403D01*
X010398Y003254D02*
X012702Y003254D01*
X012554Y003106D02*
X010546Y003106D01*
X010695Y002957D02*
X012405Y002957D01*
X011914Y002809D02*
X011186Y002809D01*
X011409Y002660D02*
X011691Y002660D01*
X011612Y001769D02*
X011488Y001769D01*
X011339Y001621D02*
X011761Y001621D01*
X012589Y001621D02*
X018691Y001621D01*
X018850Y001621D02*
X019000Y001621D01*
X019000Y001769D02*
X018850Y001769D01*
X018850Y001918D02*
X019000Y001918D01*
X019000Y002066D02*
X018850Y002066D01*
X018850Y002215D02*
X019000Y002215D01*
X019000Y002363D02*
X018850Y002363D01*
X018850Y002512D02*
X019000Y002512D01*
X019000Y002660D02*
X018850Y002660D01*
X018277Y001769D02*
X012738Y001769D01*
X012810Y001918D02*
X018064Y001918D01*
X017916Y002066D02*
X012860Y002066D01*
X012860Y002215D02*
X017806Y002215D01*
X017724Y002363D02*
X012915Y002363D01*
X013063Y002512D02*
X017666Y002512D01*
X017627Y002660D02*
X013212Y002660D01*
X013360Y002809D02*
X017605Y002809D01*
X019159Y001621D02*
X019511Y001621D01*
X019573Y001769D02*
X019768Y001769D01*
X019786Y001918D02*
X019930Y001918D01*
X019934Y002066D02*
X020072Y002066D01*
X020044Y002215D02*
X020158Y002215D01*
X020126Y002363D02*
X020243Y002363D01*
X020287Y002512D02*
X020184Y002512D01*
X020223Y002660D02*
X020327Y002660D01*
X020352Y002809D02*
X020245Y002809D01*
X020360Y004888D02*
X018536Y004888D01*
X018175Y005425D02*
X017175Y005425D01*
X016175Y005425D01*
X015675Y005425D01*
X015425Y005175D01*
X014175Y005175D01*
X014175Y006224D02*
X014175Y006224D01*
X014175Y006373D02*
X014175Y006373D01*
X014175Y006521D02*
X014175Y006521D01*
X015689Y004888D02*
X015814Y004888D01*
X016536Y004888D02*
X016814Y004888D01*
X017536Y004888D02*
X017814Y004888D01*
X018175Y005425D02*
X019175Y005425D01*
X019175Y010425D01*
X018175Y010425D01*
X018642Y010828D02*
X020360Y010828D01*
X020360Y010976D02*
X018494Y010976D01*
X018546Y011125D02*
X020360Y011125D01*
X020360Y011273D02*
X018650Y011273D01*
X018650Y011570D02*
X020360Y011570D01*
X020360Y011422D02*
X018190Y011422D01*
X018175Y011425D02*
X019175Y011425D01*
X018635Y012016D02*
X020360Y012016D01*
X020360Y012164D02*
X018784Y012164D01*
X018790Y012313D02*
X020360Y012313D01*
X020360Y012461D02*
X018790Y012461D01*
X018790Y012610D02*
X020360Y012610D01*
X020360Y012758D02*
X018712Y012758D01*
X018565Y012907D02*
X020360Y012907D01*
X020360Y013055D02*
X018565Y013055D01*
X018565Y013204D02*
X020360Y013204D01*
X020360Y013352D02*
X018565Y013352D01*
X018565Y013501D02*
X020360Y013501D01*
X020360Y013649D02*
X018565Y013649D01*
X018565Y013798D02*
X020360Y013798D01*
X020360Y013946D02*
X018565Y013946D01*
X018565Y014095D02*
X020360Y014095D01*
X020360Y014243D02*
X018565Y014243D01*
X018565Y014392D02*
X020360Y014392D01*
X020360Y014540D02*
X018565Y014540D01*
X018565Y014689D02*
X020360Y014689D01*
X020360Y014837D02*
X018565Y014837D01*
X018634Y014986D02*
X020360Y014986D01*
X020360Y015134D02*
X018782Y015134D01*
X018810Y015283D02*
X020360Y015283D01*
X020360Y015431D02*
X018810Y015431D01*
X018810Y015580D02*
X020360Y015580D01*
X020360Y015728D02*
X018770Y015728D01*
X018621Y015877D02*
X020360Y015877D01*
X020360Y016025D02*
X018673Y016025D01*
X018810Y016174D02*
X020360Y016174D01*
X020360Y016322D02*
X018810Y016322D01*
X018810Y016471D02*
X020360Y016471D01*
X020360Y016619D02*
X018810Y016619D01*
X018730Y016768D02*
X020360Y016768D01*
X020360Y016916D02*
X018582Y016916D01*
X018850Y017659D02*
X019000Y017659D01*
X019000Y017601D02*
X019120Y017613D01*
X019247Y017638D01*
X019372Y017676D01*
X019492Y017726D01*
X019607Y017787D01*
X019715Y017859D01*
X019816Y017942D01*
X019908Y018034D01*
X019991Y018135D01*
X020063Y018243D01*
X020124Y018358D01*
X020174Y018478D01*
X020212Y018603D01*
X020237Y018730D01*
X020249Y018850D01*
X019000Y018850D01*
X019000Y017601D01*
X019000Y017807D02*
X018850Y017807D01*
X018850Y017956D02*
X019000Y017956D01*
X019000Y018104D02*
X018850Y018104D01*
X018850Y018253D02*
X019000Y018253D01*
X019000Y018401D02*
X018850Y018401D01*
X018850Y018550D02*
X019000Y018550D01*
X019000Y018698D02*
X018850Y018698D01*
X018850Y018847D02*
X019000Y018847D01*
X019000Y018995D02*
X020355Y018995D01*
X020360Y018847D02*
X020249Y018847D01*
X020231Y018698D02*
X020360Y018698D01*
X020360Y018550D02*
X020196Y018550D01*
X020142Y018401D02*
X020360Y018401D01*
X020360Y018253D02*
X020068Y018253D01*
X019965Y018104D02*
X020360Y018104D01*
X020360Y017956D02*
X019829Y017956D01*
X019637Y017807D02*
X020360Y017807D01*
X020360Y017659D02*
X019314Y017659D01*
X019000Y019144D02*
X018850Y019144D01*
X018850Y019292D02*
X019000Y019292D01*
X019000Y019441D02*
X018850Y019441D01*
X018850Y019589D02*
X019000Y019589D01*
X019000Y019738D02*
X018850Y019738D01*
X018850Y019886D02*
X019000Y019886D01*
X019000Y020035D02*
X018850Y020035D01*
X018850Y020183D02*
X019000Y020183D01*
X019173Y020332D02*
X002677Y020332D01*
X002508Y020183D02*
X002259Y020183D01*
X002201Y020035D02*
X002022Y020035D01*
X002012Y019886D02*
X001874Y019886D01*
X001878Y019738D02*
X001751Y019738D01*
X001778Y019589D02*
X001666Y019589D01*
X001704Y019441D02*
X001590Y019441D01*
X001550Y019292D02*
X001652Y019292D01*
X001618Y019144D02*
X001511Y019144D01*
X002850Y019144D02*
X003000Y019144D01*
X003000Y019292D02*
X002850Y019292D01*
X002850Y019441D02*
X003000Y019441D01*
X003000Y019589D02*
X002850Y019589D01*
X002850Y019738D02*
X003000Y019738D01*
X003000Y019886D02*
X002850Y019886D01*
X002850Y020035D02*
X003000Y020035D01*
X003000Y020183D02*
X002850Y020183D01*
X003342Y020183D02*
X018508Y020183D01*
X018201Y020035D02*
X003649Y020035D01*
X003838Y019886D02*
X018012Y019886D01*
X017878Y019738D02*
X003972Y019738D01*
X004072Y019589D02*
X017778Y019589D01*
X017704Y019441D02*
X004146Y019441D01*
X004198Y019292D02*
X017652Y019292D01*
X017618Y019144D02*
X004232Y019144D01*
X004249Y018847D02*
X017601Y018847D01*
X017619Y018698D02*
X004231Y018698D01*
X004196Y018550D02*
X017654Y018550D01*
X017708Y018401D02*
X004142Y018401D01*
X003282Y013501D02*
X001490Y013501D01*
X001490Y013352D02*
X003133Y013352D01*
X003049Y013204D02*
X001490Y013204D01*
X001490Y013055D02*
X002990Y013055D01*
X002990Y012907D02*
X001490Y012907D01*
X001490Y012758D02*
X003003Y012758D01*
X003064Y012610D02*
X001490Y012610D01*
X001490Y012461D02*
X003170Y012461D01*
X003094Y012313D02*
X001490Y012313D01*
X001490Y012164D02*
X003033Y012164D01*
X002990Y012016D02*
X001490Y012016D01*
X001490Y011867D02*
X002990Y011867D01*
X003019Y011719D02*
X001490Y011719D01*
X001490Y011570D02*
X003081Y011570D01*
X003210Y011422D02*
X001490Y011422D01*
X001490Y011273D02*
X003254Y011273D01*
X003167Y011125D02*
X001490Y011125D01*
X001490Y010976D02*
X003131Y010976D01*
X003130Y010900D02*
X003130Y010882D01*
X003143Y010797D01*
X003170Y010716D01*
X003209Y010639D01*
X003233Y010606D01*
X003127Y010562D01*
X003038Y010473D01*
X002990Y010358D01*
X002990Y009492D01*
X003038Y009377D01*
X003127Y009288D01*
X003242Y009240D01*
X004108Y009240D01*
X004223Y009288D01*
X004312Y009377D01*
X004360Y009492D01*
X004360Y009808D01*
X005087Y010535D01*
X005763Y010535D01*
X006535Y009763D01*
X006535Y009548D01*
X006632Y009312D01*
X006812Y009132D01*
X006903Y009095D01*
X006849Y009056D01*
X006794Y009001D01*
X006747Y008937D01*
X006712Y008867D01*
X006687Y008792D01*
X006675Y008714D01*
X006675Y008675D01*
X007175Y008675D01*
X007675Y008675D01*
X007675Y008714D01*
X007663Y008792D01*
X007638Y008867D01*
X007603Y008937D01*
X007556Y009001D01*
X007501Y009056D01*
X007447Y009095D01*
X007538Y009132D01*
X007718Y009312D01*
X007815Y009548D01*
X007815Y009802D01*
X007718Y010038D01*
X007538Y010218D01*
X007302Y010315D01*
X007087Y010315D01*
X006256Y011146D01*
X006146Y011256D01*
X006003Y011315D01*
X004847Y011315D01*
X004704Y011256D01*
X004188Y010739D01*
X004207Y010797D01*
X004220Y010882D01*
X004220Y010900D01*
X003700Y010900D01*
X003700Y010950D01*
X003650Y010950D01*
X003650Y010900D01*
X003130Y010900D01*
X003139Y010828D02*
X001490Y010828D01*
X001490Y010679D02*
X003189Y010679D01*
X003095Y010531D02*
X001490Y010531D01*
X001490Y010382D02*
X003000Y010382D01*
X002990Y010234D02*
X001490Y010234D01*
X001490Y010085D02*
X002990Y010085D01*
X002990Y009937D02*
X001490Y009937D01*
X001490Y009788D02*
X002990Y009788D01*
X002990Y009640D02*
X001490Y009640D01*
X001490Y009491D02*
X002991Y009491D01*
X003072Y009343D02*
X001490Y009343D01*
X001490Y009194D02*
X004751Y009194D01*
X004812Y009132D02*
X004632Y009312D01*
X004535Y009548D01*
X004535Y009802D01*
X004632Y010038D01*
X004812Y010218D01*
X005048Y010315D01*
X005302Y010315D01*
X005538Y010218D01*
X005718Y010038D01*
X005815Y009802D01*
X005815Y009548D01*
X005718Y009312D01*
X005538Y009132D01*
X005447Y009095D01*
X005501Y009056D01*
X005556Y009001D01*
X005603Y008937D01*
X005638Y008867D01*
X005663Y008792D01*
X005675Y008714D01*
X005675Y008675D01*
X005175Y008675D01*
X006175Y008675D01*
X006675Y008675D02*
X006675Y008636D01*
X006687Y008558D01*
X006712Y008483D01*
X006747Y008413D01*
X006794Y008349D01*
X006849Y008294D01*
X006913Y008247D01*
X006983Y008212D01*
X007058Y008187D01*
X007136Y008175D01*
X007175Y008175D01*
X007214Y008175D01*
X007292Y008187D01*
X007367Y008212D01*
X007437Y008247D01*
X007501Y008294D01*
X007556Y008349D01*
X007603Y008413D01*
X007638Y008483D01*
X007663Y008558D01*
X007675Y008636D01*
X007675Y008675D01*
X007175Y008675D01*
X007175Y008675D01*
X007175Y008175D01*
X007175Y008675D01*
X007175Y008675D01*
X007175Y008675D01*
X006675Y008675D01*
X006680Y008749D02*
X005670Y008749D01*
X005675Y008675D02*
X005175Y008675D01*
X005175Y008675D01*
X005175Y008675D01*
X004675Y008675D01*
X004675Y008714D01*
X004687Y008792D01*
X004712Y008867D01*
X004747Y008937D01*
X004794Y009001D01*
X004849Y009056D01*
X004903Y009095D01*
X004812Y009132D01*
X004838Y009046D02*
X001490Y009046D01*
X001490Y008897D02*
X004727Y008897D01*
X004680Y008749D02*
X001490Y008749D01*
X001490Y008600D02*
X004681Y008600D01*
X004675Y008636D02*
X004687Y008558D01*
X004712Y008483D01*
X004747Y008413D01*
X004794Y008349D01*
X004849Y008294D01*
X004913Y008247D01*
X004983Y008212D01*
X005058Y008187D01*
X005136Y008175D01*
X005175Y008175D01*
X005214Y008175D01*
X005292Y008187D01*
X005367Y008212D01*
X005437Y008247D01*
X005501Y008294D01*
X005556Y008349D01*
X005603Y008413D01*
X005638Y008483D01*
X005663Y008558D01*
X005675Y008636D01*
X005675Y008675D01*
X005669Y008600D02*
X006681Y008600D01*
X006728Y008452D02*
X005622Y008452D01*
X005510Y008303D02*
X006840Y008303D01*
X007175Y008303D02*
X007175Y008303D01*
X007175Y008452D02*
X007175Y008452D01*
X007175Y008600D02*
X007175Y008600D01*
X007510Y008303D02*
X008240Y008303D01*
X008240Y008311D02*
X008240Y008042D01*
X007954Y007756D01*
X007844Y007646D01*
X007785Y007503D01*
X007785Y005492D01*
X007756Y005563D01*
X007563Y005756D01*
X007311Y005860D01*
X007039Y005860D01*
X006787Y005756D01*
X006594Y005563D01*
X006490Y005311D01*
X006490Y005039D01*
X006527Y004950D01*
X006466Y004930D01*
X006389Y004891D01*
X006320Y004841D01*
X006259Y004780D01*
X006209Y004711D01*
X006170Y004634D01*
X006143Y004553D01*
X006130Y004468D01*
X006130Y004430D01*
X006130Y004442D02*
X001490Y004442D01*
X001490Y004591D02*
X006156Y004591D01*
X006229Y004739D02*
X001490Y004739D01*
X001490Y004888D02*
X006384Y004888D01*
X006491Y005036D02*
X001490Y005036D01*
X001490Y005185D02*
X006490Y005185D01*
X006499Y005333D02*
X001490Y005333D01*
X001490Y005482D02*
X006561Y005482D01*
X006661Y005630D02*
X001490Y005630D01*
X001490Y005779D02*
X006842Y005779D01*
X007508Y005779D02*
X007785Y005779D01*
X007785Y005927D02*
X001490Y005927D01*
X001490Y006076D02*
X007785Y006076D01*
X007785Y006224D02*
X001490Y006224D01*
X001490Y006373D02*
X007785Y006373D01*
X007785Y006521D02*
X001490Y006521D01*
X001490Y006670D02*
X007785Y006670D01*
X007785Y006818D02*
X001490Y006818D01*
X001490Y006967D02*
X007785Y006967D01*
X007785Y007115D02*
X001490Y007115D01*
X001490Y007264D02*
X007785Y007264D01*
X007785Y007412D02*
X001490Y007412D01*
X001490Y007561D02*
X007809Y007561D01*
X007907Y007709D02*
X001490Y007709D01*
X001490Y007858D02*
X008056Y007858D01*
X008204Y008006D02*
X001490Y008006D01*
X001490Y008155D02*
X008240Y008155D01*
X008240Y008311D02*
X008344Y008563D01*
X008537Y008756D01*
X008785Y008858D01*
X008785Y010381D01*
X008552Y010285D01*
X008298Y010285D01*
X008062Y010382D01*
X007882Y010562D01*
X007785Y010798D01*
X007785Y011052D01*
X007882Y011288D01*
X008062Y011468D01*
X008153Y011505D01*
X008099Y011544D01*
X008044Y011599D01*
X007997Y011663D01*
X007962Y011733D01*
X007937Y011808D01*
X007925Y011886D01*
X007925Y011925D01*
X008425Y011925D01*
X008425Y011925D01*
X008425Y011925D01*
X008425Y012425D01*
X008425Y012164D02*
X008425Y012164D01*
X008425Y012016D02*
X008425Y012016D01*
X008108Y012313D02*
X004256Y012313D01*
X004317Y012164D02*
X007986Y012164D01*
X007933Y012016D02*
X004360Y012016D01*
X004360Y011867D02*
X007928Y011867D01*
X007969Y011719D02*
X004331Y011719D01*
X004269Y011570D02*
X008073Y011570D01*
X008016Y011422D02*
X004140Y011422D01*
X004096Y011273D02*
X004746Y011273D01*
X004573Y011125D02*
X004183Y011125D01*
X004219Y010976D02*
X004424Y010976D01*
X004276Y010828D02*
X004211Y010828D01*
X003700Y010828D02*
X003650Y010828D01*
X003650Y010900D02*
X003700Y010900D01*
X003700Y010610D01*
X003650Y010610D01*
X003650Y010900D01*
X003650Y010976D02*
X003700Y010976D01*
X003700Y011125D02*
X003650Y011125D01*
X003650Y010679D02*
X003700Y010679D01*
X003675Y009925D02*
X003925Y009925D01*
X004925Y010925D01*
X005925Y010925D01*
X007175Y009675D01*
X007599Y009194D02*
X008785Y009194D01*
X008785Y009046D02*
X007512Y009046D01*
X007623Y008897D02*
X008785Y008897D01*
X008530Y008749D02*
X007670Y008749D01*
X007669Y008600D02*
X008381Y008600D01*
X008298Y008452D02*
X007622Y008452D01*
X006838Y009046D02*
X005512Y009046D01*
X005599Y009194D02*
X006751Y009194D01*
X006620Y009343D02*
X005730Y009343D01*
X005792Y009491D02*
X006558Y009491D01*
X006535Y009640D02*
X005815Y009640D01*
X005815Y009788D02*
X006510Y009788D01*
X006362Y009937D02*
X005759Y009937D01*
X005670Y010085D02*
X006213Y010085D01*
X006065Y010234D02*
X005499Y010234D01*
X005768Y010531D02*
X005082Y010531D01*
X004934Y010382D02*
X005916Y010382D01*
X006426Y010976D02*
X007785Y010976D01*
X007785Y010828D02*
X006574Y010828D01*
X006723Y010679D02*
X007834Y010679D01*
X007914Y010531D02*
X006871Y010531D01*
X007020Y010382D02*
X008063Y010382D01*
X007670Y010085D02*
X008785Y010085D01*
X008785Y009937D02*
X007759Y009937D01*
X007815Y009788D02*
X008785Y009788D01*
X008785Y009640D02*
X007815Y009640D01*
X007792Y009491D02*
X008785Y009491D01*
X008785Y009343D02*
X007730Y009343D01*
X007499Y010234D02*
X008785Y010234D01*
X007815Y011125D02*
X006277Y011125D01*
X006104Y011273D02*
X007876Y011273D01*
X006727Y008897D02*
X005623Y008897D01*
X005175Y008675D02*
X005175Y008175D01*
X005175Y008675D01*
X005175Y008675D01*
X004675Y008675D01*
X004675Y008636D01*
X004728Y008452D02*
X001490Y008452D01*
X001490Y008303D02*
X004840Y008303D01*
X005175Y008303D02*
X005175Y008303D01*
X005175Y008452D02*
X005175Y008452D01*
X005175Y008600D02*
X005175Y008600D01*
X004620Y009343D02*
X004278Y009343D01*
X004359Y009491D02*
X004558Y009491D01*
X004535Y009640D02*
X004360Y009640D01*
X004360Y009788D02*
X004535Y009788D01*
X004488Y009937D02*
X004591Y009937D01*
X004637Y010085D02*
X004680Y010085D01*
X004785Y010234D02*
X004851Y010234D01*
X007689Y005630D02*
X007785Y005630D01*
X008300Y004145D02*
X008403Y004145D01*
X008552Y003997D02*
X008215Y003997D01*
X008067Y003848D02*
X008700Y003848D01*
X008849Y003700D02*
X004001Y003700D01*
X004093Y003551D02*
X008997Y003551D01*
X009146Y003403D02*
X004161Y003403D01*
X004210Y003254D02*
X009294Y003254D01*
X009443Y003106D02*
X004239Y003106D01*
X003442Y004145D02*
X006206Y004145D01*
X003000Y004145D02*
X002850Y004145D01*
X002850Y003997D02*
X003000Y003997D01*
X003000Y003848D02*
X002850Y003848D01*
X002850Y003700D02*
X003000Y003700D01*
X003000Y003551D02*
X002850Y003551D01*
X002850Y003403D02*
X003000Y003403D01*
X003000Y003254D02*
X002850Y003254D01*
X002850Y003106D02*
X003000Y003106D01*
X003000Y002660D02*
X002850Y002660D01*
X002850Y002512D02*
X003000Y002512D01*
X003000Y002363D02*
X002850Y002363D01*
X002850Y002215D02*
X003000Y002215D01*
X003000Y002066D02*
X002850Y002066D01*
X002850Y001918D02*
X003000Y001918D01*
X003000Y001769D02*
X002850Y001769D01*
X001916Y002066D02*
X001778Y002066D01*
X001806Y002215D02*
X001692Y002215D01*
X001724Y002363D02*
X001607Y002363D01*
X001563Y002512D02*
X001666Y002512D01*
X001627Y002660D02*
X001523Y002660D01*
X001498Y002809D02*
X001605Y002809D01*
X010099Y005630D02*
X010501Y005630D01*
X010353Y005779D02*
X010247Y005779D01*
X011349Y005630D02*
X011751Y005630D01*
X011603Y005779D02*
X011497Y005779D01*
X015425Y008925D02*
X017175Y007175D01*
X017175Y006425D01*
X019255Y005036D02*
X020360Y005036D01*
X020360Y005185D02*
X019486Y005185D01*
X019559Y005333D02*
X020360Y005333D01*
X020360Y005482D02*
X019565Y005482D01*
X019565Y005630D02*
X020360Y005630D01*
X020360Y005779D02*
X019565Y005779D01*
X019565Y005927D02*
X020360Y005927D01*
X020360Y006076D02*
X019565Y006076D01*
X019565Y006224D02*
X020360Y006224D01*
X020360Y006373D02*
X019565Y006373D01*
X019565Y006521D02*
X020360Y006521D01*
X020360Y006670D02*
X019565Y006670D01*
X019565Y006818D02*
X020360Y006818D01*
X020360Y006967D02*
X019565Y006967D01*
X019565Y007115D02*
X020360Y007115D01*
X020360Y007264D02*
X019565Y007264D01*
X019565Y007412D02*
X020360Y007412D01*
X020360Y007561D02*
X019565Y007561D01*
X019565Y007709D02*
X020360Y007709D01*
X020360Y007858D02*
X019565Y007858D01*
X019565Y008006D02*
X020360Y008006D01*
X020360Y008155D02*
X019565Y008155D01*
X019565Y008303D02*
X020360Y008303D01*
X020360Y008452D02*
X019565Y008452D01*
X019565Y008600D02*
X020360Y008600D01*
X020360Y008749D02*
X019565Y008749D01*
X019565Y008897D02*
X020360Y008897D01*
X020360Y009046D02*
X019565Y009046D01*
X019565Y009194D02*
X020360Y009194D01*
X020360Y009343D02*
X019565Y009343D01*
X019565Y009491D02*
X020360Y009491D01*
X020360Y009640D02*
X019565Y009640D01*
X019565Y009788D02*
X020360Y009788D01*
X020360Y009937D02*
X019565Y009937D01*
X019565Y010085D02*
X020360Y010085D01*
X020360Y010234D02*
X019565Y010234D01*
X019565Y010382D02*
X020360Y010382D01*
X020360Y010531D02*
X019553Y010531D01*
X019473Y010679D02*
X020360Y010679D01*
X020360Y011719D02*
X018553Y011719D01*
X018487Y011867D02*
X020360Y011867D01*
X018175Y012425D02*
X018175Y015425D01*
X017175Y015425D02*
X017175Y012425D01*
X015425Y012425D01*
X015425Y008925D01*
X011288Y011125D02*
X011248Y011125D01*
X011349Y011273D02*
X011107Y011273D01*
X010930Y012016D02*
X010920Y012016D01*
X010920Y012164D02*
X010930Y012164D01*
X010920Y012313D02*
X010930Y012313D01*
X019342Y020183D02*
X019591Y020183D01*
X019649Y020035D02*
X019828Y020035D01*
X019838Y019886D02*
X019976Y019886D01*
X019972Y019738D02*
X020099Y019738D01*
X020072Y019589D02*
X020184Y019589D01*
X020146Y019441D02*
X020260Y019441D01*
X020300Y019292D02*
X020198Y019292D01*
X020232Y019144D02*
X020339Y019144D01*
D21*
X017175Y011425D02*
X016175Y011425D01*
X016175Y009175D01*
X018175Y007175D01*
X018175Y006425D01*
X012175Y006175D02*
X011925Y006425D01*
X011925Y010925D01*
X011925Y015425D01*
X012425Y015925D01*
X012425Y017175D01*
X010425Y017175D02*
X010425Y015675D01*
X010175Y015425D01*
X010175Y011675D01*
X010925Y010925D01*
X010925Y009925D01*
X010925Y006175D01*
M02*
