G75*
G70*
%OFA0B0*%
%FSLAX24Y24*%
%IPPOS*%
%LPD*%
%AMOC8*
5,1,8,0,0,1.08239X$1,22.5*
%
%ADD10C,0.0000*%
%ADD11OC8,0.0680*%
%ADD12OC8,0.0720*%
%ADD13C,0.0820*%
%ADD14C,0.0730*%
%ADD15R,0.0820X0.0820*%
%ADD16C,0.0780*%
%ADD17R,0.0730X0.0730*%
%ADD18C,0.2380*%
%ADD19C,0.0714*%
D10*
X001175Y002925D02*
X001175Y018925D01*
X001177Y019008D01*
X001183Y019091D01*
X001193Y019174D01*
X001207Y019256D01*
X001224Y019338D01*
X001246Y019418D01*
X001271Y019497D01*
X001300Y019575D01*
X001333Y019652D01*
X001370Y019727D01*
X001409Y019800D01*
X001453Y019871D01*
X001499Y019940D01*
X001549Y020007D01*
X001602Y020071D01*
X001658Y020133D01*
X001717Y020192D01*
X001779Y020248D01*
X001843Y020301D01*
X001910Y020351D01*
X001979Y020397D01*
X002050Y020441D01*
X002123Y020480D01*
X002198Y020517D01*
X002275Y020550D01*
X002353Y020579D01*
X002432Y020604D01*
X002512Y020626D01*
X002594Y020643D01*
X002676Y020657D01*
X002759Y020667D01*
X002842Y020673D01*
X002925Y020675D01*
X018925Y020675D01*
X019008Y020673D01*
X019091Y020667D01*
X019174Y020657D01*
X019256Y020643D01*
X019338Y020626D01*
X019418Y020604D01*
X019497Y020579D01*
X019575Y020550D01*
X019652Y020517D01*
X019727Y020480D01*
X019800Y020441D01*
X019871Y020397D01*
X019940Y020351D01*
X020007Y020301D01*
X020071Y020248D01*
X020133Y020192D01*
X020192Y020133D01*
X020248Y020071D01*
X020301Y020007D01*
X020351Y019940D01*
X020397Y019871D01*
X020441Y019800D01*
X020480Y019727D01*
X020517Y019652D01*
X020550Y019575D01*
X020579Y019497D01*
X020604Y019418D01*
X020626Y019338D01*
X020643Y019256D01*
X020657Y019174D01*
X020667Y019091D01*
X020673Y019008D01*
X020675Y018925D01*
X020675Y002925D01*
X020673Y002842D01*
X020667Y002759D01*
X020657Y002676D01*
X020643Y002594D01*
X020626Y002512D01*
X020604Y002432D01*
X020579Y002353D01*
X020550Y002275D01*
X020517Y002198D01*
X020480Y002123D01*
X020441Y002050D01*
X020397Y001979D01*
X020351Y001910D01*
X020301Y001843D01*
X020248Y001779D01*
X020192Y001717D01*
X020133Y001658D01*
X020071Y001602D01*
X020007Y001549D01*
X019940Y001499D01*
X019871Y001453D01*
X019800Y001409D01*
X019727Y001370D01*
X019652Y001333D01*
X019575Y001300D01*
X019497Y001271D01*
X019418Y001246D01*
X019338Y001224D01*
X019256Y001207D01*
X019174Y001193D01*
X019091Y001183D01*
X019008Y001177D01*
X018925Y001175D01*
X002925Y001175D01*
X002842Y001177D01*
X002759Y001183D01*
X002676Y001193D01*
X002594Y001207D01*
X002512Y001224D01*
X002432Y001246D01*
X002353Y001271D01*
X002275Y001300D01*
X002198Y001333D01*
X002123Y001370D01*
X002050Y001409D01*
X001979Y001453D01*
X001910Y001499D01*
X001843Y001549D01*
X001779Y001602D01*
X001717Y001658D01*
X001658Y001717D01*
X001602Y001779D01*
X001549Y001843D01*
X001499Y001910D01*
X001453Y001979D01*
X001409Y002050D01*
X001370Y002123D01*
X001333Y002198D01*
X001300Y002275D01*
X001271Y002353D01*
X001246Y002432D01*
X001224Y002512D01*
X001207Y002594D01*
X001193Y002676D01*
X001183Y002759D01*
X001177Y002842D01*
X001175Y002925D01*
D11*
X017175Y009425D03*
X017175Y010425D03*
X017175Y011425D03*
X017175Y012425D03*
X018175Y012425D03*
X018175Y011425D03*
X018175Y010425D03*
X018175Y009425D03*
D12*
X018175Y006425D03*
X018175Y005425D03*
X017175Y005425D03*
X016175Y005425D03*
X016175Y006425D03*
X017175Y006425D03*
X017175Y015425D03*
X016175Y015425D03*
X016175Y016425D03*
X017175Y016425D03*
X018175Y016425D03*
X018175Y015425D03*
D13*
X012925Y013675D03*
X008925Y013675D03*
X003675Y012925D03*
X003675Y011925D03*
X003675Y010925D03*
X008925Y008175D03*
X009675Y006175D03*
X010925Y006175D03*
X012175Y006175D03*
X012925Y008175D03*
X007675Y004425D03*
X007175Y005175D03*
X006675Y004425D03*
X009675Y002175D03*
X010925Y002175D03*
X012175Y002175D03*
D14*
X014175Y006175D03*
X008425Y010925D03*
X008425Y011925D03*
X007175Y009675D03*
X007175Y008675D03*
X005175Y008675D03*
X005175Y009675D03*
D15*
X003675Y009925D03*
D16*
X009925Y010925D03*
X010925Y009925D03*
X011925Y010925D03*
X010925Y011925D03*
D17*
X014175Y005175D03*
D18*
X018925Y002925D03*
X018925Y018925D03*
X002925Y018925D03*
X002925Y002925D03*
D19*
X008425Y016858D02*
X008425Y017492D01*
X009425Y017492D02*
X009425Y016858D01*
X010425Y016858D02*
X010425Y017492D01*
X011425Y017492D02*
X011425Y016858D01*
X012425Y016858D02*
X012425Y017492D01*
X013425Y017492D02*
X013425Y016858D01*
M02*
