%
M48
M72
T01C0.0276
T02C0.0320
T03C0.0354
T04C0.0360
T05C0.0394
T06C0.0400
T07C0.1181
%
T01
X7175Y9675
X7175Y8675
X5175Y9675
X5175Y8675
X8425Y10925
X8425Y11925
X14175Y5175
X14175Y6175
T02
X11925Y10925
X10925Y9925
X9925Y10925
X10925Y11925
X7675Y4425
X7175Y5175
X6675Y4425
T03
X10925Y6175
X10925Y2175
X12175Y6175
X12175Y2175
X9675Y2175
X9675Y6175
X8925Y13675
X12925Y13675
X8925Y8175
X12925Y8175
T04
X17175Y12425
X18175Y12425
X17175Y11425
X18175Y11425
X17175Y10425
X18175Y10425
X17175Y9425
X18175Y9425
T05
X13425Y17175
X12425Y17175
X11425Y17175
X10425Y17175
X9425Y17175
X8425Y17175
T06
X16175Y5425
X16175Y6425
X17175Y5425
X17175Y6425
X18175Y5425
X18175Y6425
X3675Y9925
X3675Y10925
X3675Y11925
X3675Y12925
X16175Y15425
X16175Y16425
X17175Y15425
X17175Y16425
X18175Y15425
X18175Y16425
T07
X18925Y18925
X2925Y2925
X18925Y2925
X2925Y18925
M30
