%
M48
M72
T01C0.0200
T02C0.0276
T03C0.0320
T04C0.0394
T05C0.0400
T06C0.0512
T07C0.1260
T08C0.1280
%
T01
X16180Y7430
X5180Y15680
X8880Y18530
X3180Y3680
X3180Y7680
X3180Y9680
X3180Y14180
X15180Y3680
X20680Y3680
X15930Y19430
X11430Y14930
X19180Y15180
X14430Y18680
X17180Y5180
X10680Y14180
X13930Y14180
X7930Y5430
T02
X16430Y13930
X18430Y13930
T03
X16930Y11680
X17930Y11680
T04
X3180Y20180
X3180Y21180
X4180Y20180
X4180Y21180
X5180Y20180
X5180Y21180
X6180Y20180
X6180Y21180
X7180Y20180
X7180Y21180
X8180Y20180
X8180Y21180
X9180Y20180
X9180Y21180
X10180Y20180
X10180Y21180
X11180Y20180
X11180Y21180
X12180Y20180
X12180Y21180
X13180Y20180
X13180Y21180
X14180Y20180
X14180Y21180
X15180Y20180
X15180Y21180
X10180Y10180
X9180Y10680
X10180Y11180
X10180Y12180
X10180Y13180
X9180Y11680
X9180Y12680
X9180Y13680
T05
X3180Y15680
X4180Y15680
X10180Y6930
X9180Y6430
X10180Y5930
X9180Y5430
X10180Y4930
X9180Y4430
X6180Y15680
X7180Y15680
X12680Y4180
X11680Y4180
T06
X20580Y6680
X12706Y6680
T07
X6680Y14180
X6680Y9680
T08
X6680Y7680
X6680Y3680
M30
