G75*
G70*
%OFA0B0*%
%FSLAX24Y24*%
%IPPOS*%
%LPD*%
%AMOC8*
5,1,8,0,0,1.08239X$1,22.5*
%
%ADD10C,0.0000*%
%ADD11C,0.0050*%
%ADD12C,0.0070*%
%ADD13R,0.4500X0.1200*%
%ADD14R,0.2700X1.1500*%
%ADD15C,0.0160*%
%ADD16C,0.0060*%
%ADD17R,0.0160X0.0230*%
%ADD18C,0.0080*%
D10*
X002680Y002680D02*
X021180Y002680D01*
X021224Y002682D01*
X021267Y002688D01*
X021309Y002697D01*
X021351Y002710D01*
X021391Y002727D01*
X021430Y002747D01*
X021467Y002770D01*
X021501Y002797D01*
X021534Y002826D01*
X021563Y002859D01*
X021590Y002893D01*
X021613Y002930D01*
X021633Y002969D01*
X021650Y003009D01*
X021663Y003051D01*
X021672Y003093D01*
X021678Y003136D01*
X021680Y003180D01*
X021680Y015930D01*
X021678Y015974D01*
X021672Y016017D01*
X021663Y016059D01*
X021650Y016101D01*
X021633Y016141D01*
X021613Y016180D01*
X021590Y016217D01*
X021563Y016251D01*
X021534Y016284D01*
X021501Y016313D01*
X021467Y016340D01*
X021430Y016363D01*
X021391Y016383D01*
X021351Y016400D01*
X021309Y016413D01*
X021267Y016422D01*
X021224Y016428D01*
X021180Y016430D01*
X018430Y016430D01*
X018386Y016432D01*
X018343Y016438D01*
X018301Y016447D01*
X018259Y016460D01*
X018219Y016477D01*
X018180Y016497D01*
X018143Y016520D01*
X018109Y016547D01*
X018076Y016576D01*
X018047Y016609D01*
X018020Y016643D01*
X017997Y016680D01*
X017977Y016719D01*
X017960Y016759D01*
X017947Y016801D01*
X017938Y016843D01*
X017932Y016886D01*
X017930Y016930D01*
X017930Y019680D01*
X017928Y019724D01*
X017922Y019767D01*
X017913Y019809D01*
X017900Y019851D01*
X017883Y019891D01*
X017863Y019930D01*
X017840Y019967D01*
X017813Y020001D01*
X017784Y020034D01*
X017751Y020063D01*
X017717Y020090D01*
X017680Y020113D01*
X017641Y020133D01*
X017601Y020150D01*
X017559Y020163D01*
X017517Y020172D01*
X017474Y020178D01*
X017430Y020180D01*
X016430Y020180D01*
X016386Y020182D01*
X016343Y020188D01*
X016301Y020197D01*
X016259Y020210D01*
X016219Y020227D01*
X016180Y020247D01*
X016143Y020270D01*
X016109Y020297D01*
X016076Y020326D01*
X016047Y020359D01*
X016020Y020393D01*
X015997Y020430D01*
X015977Y020469D01*
X015960Y020509D01*
X015947Y020551D01*
X015938Y020593D01*
X015932Y020636D01*
X015930Y020680D01*
X015930Y021680D01*
X015928Y021724D01*
X015922Y021767D01*
X015913Y021809D01*
X015900Y021851D01*
X015883Y021891D01*
X015863Y021930D01*
X015840Y021967D01*
X015813Y022001D01*
X015784Y022034D01*
X015751Y022063D01*
X015717Y022090D01*
X015680Y022113D01*
X015641Y022133D01*
X015601Y022150D01*
X015559Y022163D01*
X015517Y022172D01*
X015474Y022178D01*
X015430Y022180D01*
X002680Y022180D01*
X002636Y022178D01*
X002593Y022172D01*
X002551Y022163D01*
X002509Y022150D01*
X002469Y022133D01*
X002430Y022113D01*
X002393Y022090D01*
X002359Y022063D01*
X002326Y022034D01*
X002297Y022001D01*
X002270Y021967D01*
X002247Y021930D01*
X002227Y021891D01*
X002210Y021851D01*
X002197Y021809D01*
X002188Y021767D01*
X002182Y021724D01*
X002180Y021680D01*
X002180Y003180D01*
X002182Y003136D01*
X002188Y003093D01*
X002197Y003051D01*
X002210Y003009D01*
X002227Y002969D01*
X002247Y002930D01*
X002270Y002893D01*
X002297Y002859D01*
X002326Y002826D01*
X002359Y002797D01*
X002393Y002770D01*
X002430Y002747D01*
X002469Y002727D01*
X002509Y002710D01*
X002551Y002697D01*
X002593Y002688D01*
X002636Y002682D01*
X002680Y002680D01*
X006040Y003680D02*
X006042Y003730D01*
X006048Y003780D01*
X006058Y003829D01*
X006071Y003878D01*
X006089Y003925D01*
X006110Y003971D01*
X006134Y004014D01*
X006162Y004056D01*
X006193Y004096D01*
X006227Y004133D01*
X006264Y004167D01*
X006304Y004198D01*
X006346Y004226D01*
X006389Y004250D01*
X006435Y004271D01*
X006482Y004289D01*
X006531Y004302D01*
X006580Y004312D01*
X006630Y004318D01*
X006680Y004320D01*
X006730Y004318D01*
X006780Y004312D01*
X006829Y004302D01*
X006878Y004289D01*
X006925Y004271D01*
X006971Y004250D01*
X007014Y004226D01*
X007056Y004198D01*
X007096Y004167D01*
X007133Y004133D01*
X007167Y004096D01*
X007198Y004056D01*
X007226Y004014D01*
X007250Y003971D01*
X007271Y003925D01*
X007289Y003878D01*
X007302Y003829D01*
X007312Y003780D01*
X007318Y003730D01*
X007320Y003680D01*
X007318Y003630D01*
X007312Y003580D01*
X007302Y003531D01*
X007289Y003482D01*
X007271Y003435D01*
X007250Y003389D01*
X007226Y003346D01*
X007198Y003304D01*
X007167Y003264D01*
X007133Y003227D01*
X007096Y003193D01*
X007056Y003162D01*
X007014Y003134D01*
X006971Y003110D01*
X006925Y003089D01*
X006878Y003071D01*
X006829Y003058D01*
X006780Y003048D01*
X006730Y003042D01*
X006680Y003040D01*
X006630Y003042D01*
X006580Y003048D01*
X006531Y003058D01*
X006482Y003071D01*
X006435Y003089D01*
X006389Y003110D01*
X006346Y003134D01*
X006304Y003162D01*
X006264Y003193D01*
X006227Y003227D01*
X006193Y003264D01*
X006162Y003304D01*
X006134Y003346D01*
X006110Y003389D01*
X006089Y003435D01*
X006071Y003482D01*
X006058Y003531D01*
X006048Y003580D01*
X006042Y003630D01*
X006040Y003680D01*
X006040Y007680D02*
X006042Y007730D01*
X006048Y007780D01*
X006058Y007829D01*
X006071Y007878D01*
X006089Y007925D01*
X006110Y007971D01*
X006134Y008014D01*
X006162Y008056D01*
X006193Y008096D01*
X006227Y008133D01*
X006264Y008167D01*
X006304Y008198D01*
X006346Y008226D01*
X006389Y008250D01*
X006435Y008271D01*
X006482Y008289D01*
X006531Y008302D01*
X006580Y008312D01*
X006630Y008318D01*
X006680Y008320D01*
X006730Y008318D01*
X006780Y008312D01*
X006829Y008302D01*
X006878Y008289D01*
X006925Y008271D01*
X006971Y008250D01*
X007014Y008226D01*
X007056Y008198D01*
X007096Y008167D01*
X007133Y008133D01*
X007167Y008096D01*
X007198Y008056D01*
X007226Y008014D01*
X007250Y007971D01*
X007271Y007925D01*
X007289Y007878D01*
X007302Y007829D01*
X007312Y007780D01*
X007318Y007730D01*
X007320Y007680D01*
X007318Y007630D01*
X007312Y007580D01*
X007302Y007531D01*
X007289Y007482D01*
X007271Y007435D01*
X007250Y007389D01*
X007226Y007346D01*
X007198Y007304D01*
X007167Y007264D01*
X007133Y007227D01*
X007096Y007193D01*
X007056Y007162D01*
X007014Y007134D01*
X006971Y007110D01*
X006925Y007089D01*
X006878Y007071D01*
X006829Y007058D01*
X006780Y007048D01*
X006730Y007042D01*
X006680Y007040D01*
X006630Y007042D01*
X006580Y007048D01*
X006531Y007058D01*
X006482Y007071D01*
X006435Y007089D01*
X006389Y007110D01*
X006346Y007134D01*
X006304Y007162D01*
X006264Y007193D01*
X006227Y007227D01*
X006193Y007264D01*
X006162Y007304D01*
X006134Y007346D01*
X006110Y007389D01*
X006089Y007435D01*
X006071Y007482D01*
X006058Y007531D01*
X006048Y007580D01*
X006042Y007630D01*
X006040Y007680D01*
X006050Y009680D02*
X006052Y009730D01*
X006058Y009780D01*
X006068Y009829D01*
X006082Y009877D01*
X006099Y009924D01*
X006120Y009969D01*
X006145Y010013D01*
X006173Y010054D01*
X006205Y010093D01*
X006239Y010130D01*
X006276Y010164D01*
X006316Y010194D01*
X006358Y010221D01*
X006402Y010245D01*
X006448Y010266D01*
X006495Y010282D01*
X006543Y010295D01*
X006593Y010304D01*
X006642Y010309D01*
X006693Y010310D01*
X006743Y010307D01*
X006792Y010300D01*
X006841Y010289D01*
X006889Y010274D01*
X006935Y010256D01*
X006980Y010234D01*
X007023Y010208D01*
X007064Y010179D01*
X007103Y010147D01*
X007139Y010112D01*
X007171Y010074D01*
X007201Y010034D01*
X007228Y009991D01*
X007251Y009947D01*
X007270Y009901D01*
X007286Y009853D01*
X007298Y009804D01*
X007306Y009755D01*
X007310Y009705D01*
X007310Y009655D01*
X007306Y009605D01*
X007298Y009556D01*
X007286Y009507D01*
X007270Y009459D01*
X007251Y009413D01*
X007228Y009369D01*
X007201Y009326D01*
X007171Y009286D01*
X007139Y009248D01*
X007103Y009213D01*
X007064Y009181D01*
X007023Y009152D01*
X006980Y009126D01*
X006935Y009104D01*
X006889Y009086D01*
X006841Y009071D01*
X006792Y009060D01*
X006743Y009053D01*
X006693Y009050D01*
X006642Y009051D01*
X006593Y009056D01*
X006543Y009065D01*
X006495Y009078D01*
X006448Y009094D01*
X006402Y009115D01*
X006358Y009139D01*
X006316Y009166D01*
X006276Y009196D01*
X006239Y009230D01*
X006205Y009267D01*
X006173Y009306D01*
X006145Y009347D01*
X006120Y009391D01*
X006099Y009436D01*
X006082Y009483D01*
X006068Y009531D01*
X006058Y009580D01*
X006052Y009630D01*
X006050Y009680D01*
X006050Y014180D02*
X006052Y014230D01*
X006058Y014280D01*
X006068Y014329D01*
X006082Y014377D01*
X006099Y014424D01*
X006120Y014469D01*
X006145Y014513D01*
X006173Y014554D01*
X006205Y014593D01*
X006239Y014630D01*
X006276Y014664D01*
X006316Y014694D01*
X006358Y014721D01*
X006402Y014745D01*
X006448Y014766D01*
X006495Y014782D01*
X006543Y014795D01*
X006593Y014804D01*
X006642Y014809D01*
X006693Y014810D01*
X006743Y014807D01*
X006792Y014800D01*
X006841Y014789D01*
X006889Y014774D01*
X006935Y014756D01*
X006980Y014734D01*
X007023Y014708D01*
X007064Y014679D01*
X007103Y014647D01*
X007139Y014612D01*
X007171Y014574D01*
X007201Y014534D01*
X007228Y014491D01*
X007251Y014447D01*
X007270Y014401D01*
X007286Y014353D01*
X007298Y014304D01*
X007306Y014255D01*
X007310Y014205D01*
X007310Y014155D01*
X007306Y014105D01*
X007298Y014056D01*
X007286Y014007D01*
X007270Y013959D01*
X007251Y013913D01*
X007228Y013869D01*
X007201Y013826D01*
X007171Y013786D01*
X007139Y013748D01*
X007103Y013713D01*
X007064Y013681D01*
X007023Y013652D01*
X006980Y013626D01*
X006935Y013604D01*
X006889Y013586D01*
X006841Y013571D01*
X006792Y013560D01*
X006743Y013553D01*
X006693Y013550D01*
X006642Y013551D01*
X006593Y013556D01*
X006543Y013565D01*
X006495Y013578D01*
X006448Y013594D01*
X006402Y013615D01*
X006358Y013639D01*
X006316Y013666D01*
X006276Y013696D01*
X006239Y013730D01*
X006205Y013767D01*
X006173Y013806D01*
X006145Y013847D01*
X006120Y013891D01*
X006099Y013936D01*
X006082Y013983D01*
X006068Y014031D01*
X006058Y014080D01*
X006052Y014130D01*
X006050Y014180D01*
D11*
X006080Y016455D02*
X006155Y016530D01*
X006155Y016605D01*
X006080Y016680D01*
X005705Y016680D01*
X005705Y016605D02*
X005705Y016755D01*
X005705Y016915D02*
X005705Y017141D01*
X005780Y017216D01*
X005930Y017216D01*
X006005Y017141D01*
X006005Y016915D01*
X006155Y016915D02*
X005705Y016915D01*
X005855Y017376D02*
X005705Y017526D01*
X006155Y017526D01*
X006155Y017376D02*
X006155Y017676D01*
X006455Y017601D02*
X006455Y017451D01*
X006530Y017376D01*
X006455Y017216D02*
X006755Y017216D01*
X006905Y017066D01*
X006755Y016915D01*
X006455Y016915D01*
X006530Y016755D02*
X006605Y016755D01*
X006680Y016680D01*
X006755Y016755D01*
X006830Y016755D01*
X006905Y016680D01*
X006905Y016530D01*
X006830Y016455D01*
X006680Y016605D02*
X006680Y016680D01*
X006530Y016755D02*
X006455Y016680D01*
X006455Y016530D01*
X006530Y016455D01*
X007205Y016455D02*
X007355Y016605D01*
X007205Y016755D01*
X007655Y016755D01*
X007655Y016915D02*
X007355Y016915D01*
X007205Y017066D01*
X007355Y017216D01*
X007655Y017216D01*
X007580Y017376D02*
X007655Y017451D01*
X007655Y017601D01*
X007580Y017676D01*
X007430Y017676D01*
X007430Y017526D01*
X007280Y017376D02*
X007580Y017376D01*
X007430Y017216D02*
X007430Y016915D01*
X007280Y017376D02*
X007205Y017451D01*
X007205Y017601D01*
X007280Y017676D01*
X007280Y017836D02*
X007355Y017836D01*
X007430Y017911D01*
X007430Y018061D01*
X007505Y018136D01*
X007580Y018136D01*
X007655Y018061D01*
X007655Y017911D01*
X007580Y017836D01*
X007280Y017836D02*
X007205Y017911D01*
X007205Y018061D01*
X007280Y018136D01*
X006905Y018447D02*
X006455Y018447D01*
X006455Y018297D02*
X006455Y018597D01*
X006530Y018757D02*
X006830Y018757D01*
X006905Y018832D01*
X006905Y018982D01*
X006830Y019057D01*
X006530Y019057D01*
X006455Y018982D01*
X006455Y018832D01*
X006530Y018757D01*
X006530Y017676D02*
X006605Y017676D01*
X006680Y017601D01*
X006755Y017676D01*
X006830Y017676D01*
X006905Y017601D01*
X006905Y017451D01*
X006830Y017376D01*
X006680Y017526D02*
X006680Y017601D01*
X006530Y017676D02*
X006455Y017601D01*
X007205Y016455D02*
X007655Y016455D01*
X009594Y016330D02*
X009594Y016255D01*
X009669Y016180D01*
X009819Y016180D01*
X009894Y016105D01*
X009894Y016030D01*
X009819Y015955D01*
X009669Y015955D01*
X009594Y016030D01*
X009594Y016330D02*
X009669Y016405D01*
X009819Y016405D01*
X009894Y016330D01*
X010054Y015955D02*
X010354Y016405D01*
X010514Y016405D02*
X010815Y015955D01*
X010815Y016405D01*
X010975Y016255D02*
X010975Y016180D01*
X011050Y016180D01*
X011050Y016255D01*
X010975Y016255D01*
X010975Y016030D02*
X010975Y015955D01*
X011050Y015955D01*
X011050Y016030D01*
X010975Y016030D01*
X010514Y015955D02*
X010514Y016405D01*
X010955Y013886D02*
X010955Y013586D01*
X011180Y013586D01*
X011105Y013736D01*
X011105Y013811D01*
X011180Y013886D01*
X011330Y013886D01*
X011405Y013811D01*
X011405Y013661D01*
X011330Y013586D01*
X011180Y013426D02*
X011180Y013126D01*
X010955Y013351D01*
X011405Y013351D01*
X011330Y012891D02*
X010955Y012891D01*
X010955Y012816D02*
X010955Y012966D01*
X011330Y012891D02*
X011405Y012816D01*
X011405Y012740D01*
X011330Y012665D01*
X011405Y012505D02*
X011255Y012355D01*
X011255Y012430D02*
X011255Y012205D01*
X011405Y012205D02*
X010955Y012205D01*
X010955Y012430D01*
X011030Y012505D01*
X011180Y012505D01*
X011255Y012430D01*
X011844Y012455D02*
X011844Y012905D01*
X012069Y012905D01*
X012144Y012830D01*
X012144Y012680D01*
X012069Y012605D01*
X011844Y012605D01*
X011994Y012605D02*
X012144Y012455D01*
X012304Y012905D02*
X012604Y012905D01*
X012454Y012905D02*
X012454Y012455D01*
X012764Y012530D02*
X012764Y012830D01*
X012839Y012905D01*
X012990Y012905D01*
X013065Y012830D01*
X013225Y012755D02*
X013225Y012680D01*
X013300Y012680D01*
X013300Y012755D01*
X013225Y012755D01*
X013225Y012530D02*
X013225Y012455D01*
X013300Y012455D01*
X013300Y012530D01*
X013225Y012530D01*
X013065Y012530D02*
X012990Y012455D01*
X012839Y012455D01*
X012764Y012530D01*
X011405Y011295D02*
X011405Y010995D01*
X011105Y011295D01*
X011030Y011295D01*
X010955Y011220D01*
X010955Y011070D01*
X011030Y010995D01*
X010955Y010834D02*
X011405Y010534D01*
X011405Y010834D02*
X010955Y010534D01*
X011405Y008136D02*
X011405Y007836D01*
X011405Y007986D02*
X010955Y007986D01*
X011105Y007836D01*
X011405Y007676D02*
X011405Y007376D01*
X011405Y007526D02*
X010955Y007526D01*
X011105Y007376D01*
X010955Y007216D02*
X010955Y007066D01*
X010955Y007141D02*
X011330Y007141D01*
X011405Y007066D01*
X011405Y006990D01*
X011330Y006915D01*
X011405Y006755D02*
X011255Y006605D01*
X011255Y006680D02*
X011255Y006455D01*
X011405Y006455D02*
X010955Y006455D01*
X010955Y006680D01*
X011030Y006755D01*
X011180Y006755D01*
X011255Y006680D01*
X011255Y005545D02*
X011180Y005470D01*
X011180Y005395D01*
X011180Y005470D02*
X011105Y005545D01*
X011030Y005545D01*
X010955Y005470D01*
X010955Y005320D01*
X011030Y005245D01*
X010955Y005084D02*
X011405Y004784D01*
X011405Y005084D02*
X010955Y004784D01*
X011330Y005245D02*
X011405Y005320D01*
X011405Y005470D01*
X011330Y005545D01*
X011255Y005545D01*
X011180Y003555D02*
X011030Y003555D01*
X010955Y003480D01*
X010955Y003180D01*
X011030Y003105D01*
X011180Y003105D01*
X011255Y003180D01*
X011255Y003330D01*
X011105Y003330D01*
X011255Y003480D02*
X011180Y003555D01*
X011415Y003555D02*
X011716Y003105D01*
X011716Y003555D01*
X011876Y003555D02*
X012101Y003555D01*
X012176Y003480D01*
X012176Y003180D01*
X012101Y003105D01*
X011876Y003105D01*
X011876Y003555D01*
X011415Y003555D02*
X011415Y003105D01*
X012705Y003180D02*
X012780Y003105D01*
X012930Y003105D01*
X013005Y003180D01*
X013005Y003255D01*
X012930Y003330D01*
X012780Y003330D01*
X012705Y003405D01*
X012705Y003480D01*
X012780Y003555D01*
X012930Y003555D01*
X013005Y003480D01*
X013165Y003480D02*
X013165Y003180D01*
X013240Y003105D01*
X013391Y003105D01*
X013466Y003180D01*
X013466Y003480D01*
X013391Y003555D01*
X013240Y003555D01*
X013165Y003480D01*
X013316Y003255D02*
X013466Y003105D01*
X013626Y003105D02*
X013776Y003255D01*
X013926Y003105D01*
X013926Y003555D01*
X013626Y003555D02*
X013626Y003105D01*
X019855Y010205D02*
X019855Y010430D01*
X019930Y010505D01*
X020005Y010505D01*
X020080Y010430D01*
X020080Y010205D01*
X020305Y010205D02*
X020305Y010430D01*
X020230Y010505D01*
X020155Y010505D01*
X020080Y010430D01*
X020080Y010665D02*
X020080Y010966D01*
X020005Y010966D02*
X020305Y010966D01*
X020005Y010966D02*
X019855Y010816D01*
X020005Y010665D01*
X020305Y010665D01*
X020605Y010665D02*
X020605Y010891D01*
X020680Y010966D01*
X020830Y010966D01*
X020905Y010891D01*
X020905Y010665D01*
X021055Y010665D02*
X020605Y010665D01*
X020680Y010505D02*
X020605Y010430D01*
X020605Y010280D01*
X020680Y010205D01*
X020980Y010205D01*
X021055Y010280D01*
X021055Y010430D01*
X020980Y010505D01*
X020905Y010816D02*
X021055Y010966D01*
X021055Y011126D02*
X020755Y011426D01*
X020680Y011426D01*
X020605Y011351D01*
X020605Y011201D01*
X020680Y011126D01*
X020305Y011276D02*
X019855Y011276D01*
X019855Y011126D02*
X019855Y011426D01*
X020005Y011586D02*
X019855Y011736D01*
X020305Y011736D01*
X020305Y011586D02*
X020305Y011886D01*
X020605Y011811D02*
X020605Y011661D01*
X020680Y011586D01*
X020980Y011586D01*
X020680Y011886D01*
X020980Y011886D01*
X021055Y011811D01*
X021055Y011661D01*
X020980Y011586D01*
X021055Y011426D02*
X021055Y011126D01*
X020605Y011811D02*
X020680Y011886D01*
X020680Y012047D02*
X020605Y012122D01*
X020605Y012272D01*
X020680Y012347D01*
X020755Y012347D01*
X020830Y012272D01*
X020905Y012347D01*
X020980Y012347D01*
X021055Y012272D01*
X021055Y012122D01*
X020980Y012047D01*
X020830Y012197D02*
X020830Y012272D01*
X020680Y012507D02*
X020605Y012582D01*
X020605Y012732D01*
X020680Y012807D01*
X020755Y012807D01*
X021055Y012507D01*
X021055Y012807D01*
X018905Y012855D02*
X018680Y012855D01*
X018530Y013005D01*
X018455Y013005D01*
X018605Y013165D02*
X018455Y013316D01*
X018905Y013316D01*
X018905Y013466D02*
X018905Y013165D01*
X018680Y012855D02*
X018530Y012705D01*
X018455Y012705D01*
X019855Y010205D02*
X020305Y010205D01*
X017272Y017205D02*
X017122Y017205D01*
X017047Y017280D01*
X017347Y017580D01*
X017347Y017280D01*
X017272Y017205D01*
X017047Y017280D02*
X017047Y017580D01*
X017122Y017655D01*
X017272Y017655D01*
X017347Y017580D01*
X016891Y017280D02*
X016891Y017205D01*
X016816Y017205D01*
X016816Y017280D01*
X016891Y017280D01*
X016656Y017280D02*
X016581Y017205D01*
X016431Y017205D01*
X016356Y017280D01*
X016656Y017580D01*
X016656Y017280D01*
X016356Y017280D02*
X016356Y017580D01*
X016431Y017655D01*
X016581Y017655D01*
X016656Y017580D01*
X016201Y017280D02*
X016201Y017205D01*
X016126Y017205D01*
X016126Y017280D01*
X016201Y017280D01*
X015966Y017205D02*
X015665Y017205D01*
X015816Y017205D02*
X015816Y017655D01*
X015665Y017505D01*
X015505Y017505D02*
X015355Y017205D01*
X015205Y017505D01*
X003570Y019790D02*
X003570Y020570D01*
X002790Y020570D01*
X002790Y019790D01*
X003570Y019790D01*
X003530Y018597D02*
X003455Y018522D01*
X003455Y018372D01*
X003530Y018297D01*
X003830Y018297D01*
X003905Y018372D01*
X003905Y018522D01*
X003830Y018597D01*
X003530Y018597D01*
X003455Y018136D02*
X003455Y017836D01*
X003455Y017986D02*
X003905Y017986D01*
X004205Y018061D02*
X004205Y017911D01*
X004280Y017836D01*
X004355Y017836D01*
X004430Y017911D01*
X004430Y018061D01*
X004505Y018136D01*
X004580Y018136D01*
X004655Y018061D01*
X004655Y017911D01*
X004580Y017836D01*
X004580Y017676D02*
X004430Y017676D01*
X004430Y017526D01*
X004580Y017676D02*
X004655Y017601D01*
X004655Y017451D01*
X004580Y017376D01*
X004280Y017376D01*
X004205Y017451D01*
X004205Y017601D01*
X004280Y017676D01*
X004205Y018061D02*
X004280Y018136D01*
X004355Y017216D02*
X004655Y017216D01*
X004430Y017216D02*
X004430Y016915D01*
X004355Y016915D02*
X004205Y017066D01*
X004355Y017216D01*
X004355Y016915D02*
X004655Y016915D01*
X004655Y016755D02*
X004205Y016755D01*
X004355Y016605D01*
X004205Y016455D01*
X004655Y016455D01*
X003905Y016530D02*
X003830Y016455D01*
X003905Y016530D02*
X003905Y016680D01*
X003830Y016755D01*
X003680Y016755D01*
X003605Y016680D01*
X003605Y016605D01*
X003680Y016455D01*
X003455Y016455D01*
X003455Y016755D01*
X003455Y016915D02*
X003755Y016915D01*
X003905Y017066D01*
X003755Y017216D01*
X003455Y017216D01*
X003155Y017376D02*
X003155Y017676D01*
X003155Y017376D02*
X002855Y017676D01*
X002780Y017676D01*
X002705Y017601D01*
X002705Y017451D01*
X002780Y017376D01*
X002780Y017216D02*
X002930Y017216D01*
X003005Y017141D01*
X003005Y016915D01*
X003155Y016915D02*
X002705Y016915D01*
X002705Y017141D01*
X002780Y017216D01*
X002705Y016755D02*
X002705Y016605D01*
X002705Y016680D02*
X003080Y016680D01*
X003155Y016605D01*
X003155Y016530D01*
X003080Y016455D01*
D12*
X009215Y017197D02*
X009297Y017278D01*
X009542Y017278D01*
X009542Y017360D02*
X009542Y017115D01*
X009297Y017115D01*
X009215Y017197D01*
X009297Y017442D02*
X009460Y017442D01*
X009542Y017360D01*
X009731Y017442D02*
X009976Y017442D01*
X010058Y017360D01*
X010058Y017115D01*
X010246Y017197D02*
X010246Y017360D01*
X010328Y017442D01*
X010573Y017442D01*
X010573Y017605D02*
X010573Y017115D01*
X010328Y017115D01*
X010246Y017197D01*
X009731Y017115D02*
X009731Y017442D01*
X009812Y017955D02*
X009731Y018037D01*
X009812Y018118D01*
X010058Y018118D01*
X010058Y018200D02*
X010058Y017955D01*
X009812Y017955D01*
X009542Y017955D02*
X009542Y018200D01*
X009460Y018282D01*
X009378Y018200D01*
X009378Y017955D01*
X009215Y017955D02*
X009215Y018282D01*
X009297Y018282D01*
X009378Y018200D01*
X009812Y018282D02*
X009976Y018282D01*
X010058Y018200D01*
X010246Y018200D02*
X010328Y018282D01*
X010573Y018282D01*
X010573Y017873D01*
X010491Y017792D01*
X010410Y017792D01*
X010328Y017955D02*
X010573Y017955D01*
X010762Y017955D02*
X010762Y018282D01*
X011007Y018282D01*
X011089Y018200D01*
X011089Y017955D01*
X011278Y018037D02*
X011278Y018200D01*
X011359Y018282D01*
X011523Y018282D01*
X011605Y018200D01*
X011605Y018118D01*
X011278Y018118D01*
X011278Y018037D02*
X011359Y017955D01*
X011523Y017955D01*
X011875Y018037D02*
X011957Y017955D01*
X011875Y018037D02*
X011875Y018364D01*
X011793Y018282D02*
X011957Y018282D01*
X012137Y018200D02*
X012137Y018037D01*
X012219Y017955D01*
X012382Y017955D01*
X012464Y018037D01*
X012464Y018200D01*
X012382Y018282D01*
X012219Y018282D01*
X012137Y018200D01*
X012653Y018282D02*
X012653Y017955D01*
X012816Y017955D02*
X012816Y018200D01*
X012898Y018282D01*
X012980Y018200D01*
X012980Y017955D01*
X013168Y018037D02*
X013168Y018200D01*
X013250Y018282D01*
X013413Y018282D01*
X013495Y018200D01*
X013495Y018118D01*
X013168Y018118D01*
X013168Y018037D02*
X013250Y017955D01*
X013413Y017955D01*
X013766Y018037D02*
X013847Y017955D01*
X013766Y018037D02*
X013766Y018364D01*
X013684Y018282D02*
X013847Y018282D01*
X014028Y018200D02*
X014109Y018282D01*
X014273Y018282D01*
X014355Y018200D01*
X014355Y018118D01*
X014028Y018118D01*
X014028Y018037D02*
X014028Y018200D01*
X014028Y018037D02*
X014109Y017955D01*
X014273Y017955D01*
X014543Y017955D02*
X014543Y018282D01*
X014543Y018118D02*
X014707Y018282D01*
X014788Y018282D01*
X014797Y018795D02*
X014797Y019122D01*
X014715Y019122D01*
X014797Y019285D02*
X014797Y019367D01*
X014526Y019204D02*
X014526Y019040D01*
X014445Y018958D01*
X014200Y018958D01*
X014200Y018795D02*
X014200Y019285D01*
X014445Y019285D01*
X014526Y019204D01*
X014715Y018795D02*
X014879Y018795D01*
X013495Y018795D02*
X013250Y018795D01*
X013168Y018877D01*
X013168Y019122D01*
X012984Y019122D02*
X012902Y019122D01*
X012739Y018958D01*
X012739Y018795D02*
X012739Y019122D01*
X012554Y019122D02*
X012472Y019122D01*
X012309Y018958D01*
X012309Y018795D02*
X012309Y019122D01*
X012120Y019040D02*
X012120Y018958D01*
X011793Y018958D01*
X011793Y018877D02*
X011793Y019040D01*
X011875Y019122D01*
X012038Y019122D01*
X012120Y019040D01*
X012038Y018795D02*
X011875Y018795D01*
X011793Y018877D01*
X011605Y018877D02*
X011605Y019040D01*
X011523Y019122D01*
X011278Y019122D01*
X011278Y019285D02*
X011278Y018795D01*
X011523Y018795D01*
X011605Y018877D01*
X011089Y018877D02*
X011007Y018795D01*
X010762Y018795D01*
X010762Y018632D02*
X010762Y019122D01*
X011007Y019122D01*
X011089Y019040D01*
X011089Y018877D01*
X010573Y018877D02*
X010491Y018958D01*
X010328Y018958D01*
X010246Y019040D01*
X010328Y019122D01*
X010573Y019122D01*
X010573Y018877D02*
X010491Y018795D01*
X010246Y018795D01*
X010058Y018795D02*
X010058Y019040D01*
X009976Y019122D01*
X009812Y019122D01*
X009812Y018958D02*
X009731Y018877D01*
X009812Y018795D01*
X010058Y018795D01*
X010058Y018958D02*
X009812Y018958D01*
X009542Y019040D02*
X009460Y018958D01*
X009215Y018958D01*
X009215Y018795D02*
X009215Y019285D01*
X009460Y019285D01*
X009542Y019204D01*
X009542Y019040D01*
X009378Y018958D02*
X009542Y018795D01*
X010246Y018200D02*
X010246Y018037D01*
X010328Y017955D01*
X011278Y017360D02*
X011278Y017197D01*
X011359Y017115D01*
X011605Y017115D01*
X011793Y017115D02*
X011957Y017115D01*
X011875Y017115D02*
X011875Y017605D01*
X011793Y017605D01*
X011605Y017442D02*
X011359Y017442D01*
X011278Y017360D01*
X012137Y017360D02*
X012137Y017197D01*
X012219Y017115D01*
X012382Y017115D01*
X012464Y017197D01*
X012464Y017360D01*
X012382Y017442D01*
X012219Y017442D01*
X012137Y017360D01*
X012653Y017360D02*
X012653Y017197D01*
X012734Y017115D01*
X012980Y017115D01*
X013168Y017115D02*
X013168Y017605D01*
X012980Y017442D02*
X012734Y017442D01*
X012653Y017360D01*
X013168Y017278D02*
X013413Y017442D01*
X013168Y017278D02*
X013413Y017115D01*
X012816Y018200D02*
X012734Y018282D01*
X012653Y018282D01*
X013332Y018632D02*
X013413Y018632D01*
X013495Y018713D01*
X013495Y019122D01*
D13*
X013930Y016180D03*
X013930Y011680D03*
D14*
X004030Y008930D03*
D15*
X002350Y019430D02*
X002352Y019447D01*
X002357Y019464D01*
X002366Y019478D01*
X002378Y019491D01*
X002393Y019501D01*
X002409Y019507D01*
X002426Y019510D01*
X002443Y019509D01*
X002460Y019504D01*
X002475Y019496D01*
X002488Y019485D01*
X002499Y019471D01*
X002506Y019456D01*
X002510Y019439D01*
X002510Y019421D01*
X002506Y019404D01*
X002499Y019389D01*
X002488Y019375D01*
X002475Y019364D01*
X002460Y019356D01*
X002443Y019351D01*
X002426Y019350D01*
X002409Y019353D01*
X002393Y019359D01*
X002378Y019369D01*
X002366Y019382D01*
X002357Y019396D01*
X002352Y019413D01*
X002350Y019430D01*
X017230Y012180D02*
X017230Y012080D01*
X017630Y012080D02*
X017630Y012180D01*
D16*
X017980Y012330D02*
X017980Y012480D01*
X016880Y012480D01*
X016830Y012480D01*
X016830Y015480D01*
X016832Y015497D01*
X016836Y015514D01*
X016843Y015530D01*
X016853Y015544D01*
X016866Y015557D01*
X016880Y015567D01*
X016896Y015574D01*
X016913Y015578D01*
X016930Y015580D01*
X017930Y015580D01*
X017947Y015578D01*
X017964Y015574D01*
X017980Y015567D01*
X017994Y015557D01*
X018007Y015544D01*
X018017Y015530D01*
X018024Y015514D01*
X018028Y015497D01*
X018030Y015480D01*
X018030Y012480D01*
X017980Y012480D01*
X017980Y012330D02*
X016880Y012330D01*
X016880Y012480D01*
X017430Y013380D02*
X017430Y013580D01*
X017730Y013580D01*
X017730Y013730D02*
X017730Y013880D01*
X017130Y013880D01*
X017130Y013730D01*
X017730Y013730D01*
X017730Y014030D02*
X017430Y014030D01*
X017430Y014230D01*
X017430Y014030D02*
X017130Y014030D01*
X017130Y013580D02*
X017430Y013580D01*
D17*
X017230Y012195D03*
X017630Y012195D03*
D18*
X013100Y008255D02*
X011919Y008255D01*
X011919Y005105D01*
X013100Y005105D01*
X010780Y002980D02*
X010780Y008380D01*
X005499Y008380D01*
X005499Y002980D01*
X010780Y002980D01*
X010680Y008930D02*
X005499Y008930D01*
X005499Y014930D01*
X010680Y014930D01*
X010680Y008930D01*
X013100Y008255D02*
X013182Y008445D01*
X013273Y008631D01*
X013373Y008813D01*
X013481Y008989D01*
X013598Y009160D01*
X013723Y009325D01*
X013857Y009484D01*
X013997Y009636D01*
X014145Y009781D01*
X014300Y009919D01*
X014462Y010048D01*
X014629Y010170D01*
X014803Y010284D01*
X014981Y010388D01*
X015165Y010484D01*
X015353Y010571D01*
X015545Y010649D01*
X015741Y010717D01*
X015940Y010776D01*
X016141Y010824D01*
X016345Y010863D01*
X016550Y010892D01*
X016756Y010911D01*
X016963Y010919D01*
X017170Y010918D01*
X017377Y010906D01*
X017583Y010885D01*
X017788Y010853D01*
X017991Y010811D01*
X018192Y010760D01*
X018389Y010699D01*
X018584Y010628D01*
X018775Y010547D01*
X018962Y010458D01*
X019144Y010359D01*
X019321Y010252D01*
X019493Y010136D01*
X019659Y010012D01*
X019819Y009880D01*
X019972Y009740D01*
X020118Y009593D01*
X020256Y009439D01*
X020387Y009279D01*
X020510Y009112D01*
X020625Y008939D01*
X020731Y008761D01*
X020828Y008578D01*
X020916Y008391D01*
X020995Y008199D01*
X021065Y008004D01*
X021125Y007806D01*
X021175Y007605D01*
X021215Y007402D01*
X021245Y007197D01*
X021266Y006991D01*
X021276Y006784D01*
X021276Y006576D01*
X021266Y006369D01*
X021245Y006163D01*
X021215Y005958D01*
X021175Y005755D01*
X021125Y005554D01*
X021065Y005356D01*
X020995Y005161D01*
X020916Y004969D01*
X020828Y004782D01*
X020731Y004599D01*
X020625Y004421D01*
X020510Y004248D01*
X020387Y004081D01*
X020256Y003921D01*
X020118Y003767D01*
X019972Y003620D01*
X019819Y003480D01*
X019659Y003348D01*
X019493Y003224D01*
X019321Y003108D01*
X019144Y003001D01*
X018962Y002902D01*
X018775Y002813D01*
X018584Y002732D01*
X018389Y002661D01*
X018192Y002600D01*
X017991Y002549D01*
X017788Y002507D01*
X017583Y002475D01*
X017377Y002454D01*
X017170Y002442D01*
X016963Y002441D01*
X016756Y002449D01*
X016550Y002468D01*
X016345Y002497D01*
X016141Y002536D01*
X015940Y002584D01*
X015741Y002643D01*
X015545Y002711D01*
X015353Y002789D01*
X015165Y002876D01*
X014981Y002972D01*
X014803Y003076D01*
X014629Y003190D01*
X014462Y003312D01*
X014300Y003441D01*
X014145Y003579D01*
X013997Y003724D01*
X013857Y003876D01*
X013723Y004035D01*
X013598Y004200D01*
X013481Y004371D01*
X013373Y004547D01*
X013273Y004729D01*
X013182Y004915D01*
X013100Y005105D01*
X007430Y015180D02*
X006930Y015180D01*
X006680Y015430D01*
X006430Y015180D01*
X005930Y015180D01*
X005680Y015430D01*
X005680Y015930D01*
X005930Y016180D01*
X006430Y016180D01*
X006680Y015930D01*
X006930Y016180D01*
X007430Y016180D01*
X007680Y015930D01*
X007680Y015430D01*
X007430Y015180D01*
X004680Y015430D02*
X004680Y015930D01*
X004430Y016180D01*
X003930Y016180D01*
X003680Y015930D01*
X003430Y016180D01*
X002930Y016180D01*
X002680Y015930D01*
X002680Y015430D01*
X002930Y015180D01*
X003430Y015180D01*
X003680Y015430D01*
X003930Y015180D01*
X004430Y015180D01*
X004680Y015430D01*
M02*
