G75*
G70*
%OFA0B0*%
%FSLAX24Y24*%
%IPPOS*%
%LPD*%
%AMOC8*
5,1,8,0,0,1.08239X$1,22.5*
%
%ADD10C,0.0000*%
%ADD11R,0.0634X0.0634*%
%ADD12C,0.0660*%
%ADD13C,0.0634*%
%ADD14C,0.1000*%
%ADD15C,0.0740*%
%ADD16R,0.0740X0.0740*%
%ADD17C,0.0516*%
%ADD18C,0.0150*%
%ADD19C,0.0400*%
%ADD20C,0.0160*%
%ADD21C,0.0100*%
D10*
X002680Y002680D02*
X021180Y002680D01*
X021224Y002682D01*
X021267Y002688D01*
X021309Y002697D01*
X021351Y002710D01*
X021391Y002727D01*
X021430Y002747D01*
X021467Y002770D01*
X021501Y002797D01*
X021534Y002826D01*
X021563Y002859D01*
X021590Y002893D01*
X021613Y002930D01*
X021633Y002969D01*
X021650Y003009D01*
X021663Y003051D01*
X021672Y003093D01*
X021678Y003136D01*
X021680Y003180D01*
X021680Y015930D01*
X021678Y015974D01*
X021672Y016017D01*
X021663Y016059D01*
X021650Y016101D01*
X021633Y016141D01*
X021613Y016180D01*
X021590Y016217D01*
X021563Y016251D01*
X021534Y016284D01*
X021501Y016313D01*
X021467Y016340D01*
X021430Y016363D01*
X021391Y016383D01*
X021351Y016400D01*
X021309Y016413D01*
X021267Y016422D01*
X021224Y016428D01*
X021180Y016430D01*
X018430Y016430D01*
X018386Y016432D01*
X018343Y016438D01*
X018301Y016447D01*
X018259Y016460D01*
X018219Y016477D01*
X018180Y016497D01*
X018143Y016520D01*
X018109Y016547D01*
X018076Y016576D01*
X018047Y016609D01*
X018020Y016643D01*
X017997Y016680D01*
X017977Y016719D01*
X017960Y016759D01*
X017947Y016801D01*
X017938Y016843D01*
X017932Y016886D01*
X017930Y016930D01*
X017930Y019680D01*
X017928Y019724D01*
X017922Y019767D01*
X017913Y019809D01*
X017900Y019851D01*
X017883Y019891D01*
X017863Y019930D01*
X017840Y019967D01*
X017813Y020001D01*
X017784Y020034D01*
X017751Y020063D01*
X017717Y020090D01*
X017680Y020113D01*
X017641Y020133D01*
X017601Y020150D01*
X017559Y020163D01*
X017517Y020172D01*
X017474Y020178D01*
X017430Y020180D01*
X016430Y020180D01*
X016386Y020182D01*
X016343Y020188D01*
X016301Y020197D01*
X016259Y020210D01*
X016219Y020227D01*
X016180Y020247D01*
X016143Y020270D01*
X016109Y020297D01*
X016076Y020326D01*
X016047Y020359D01*
X016020Y020393D01*
X015997Y020430D01*
X015977Y020469D01*
X015960Y020509D01*
X015947Y020551D01*
X015938Y020593D01*
X015932Y020636D01*
X015930Y020680D01*
X015930Y021680D01*
X015928Y021724D01*
X015922Y021767D01*
X015913Y021809D01*
X015900Y021851D01*
X015883Y021891D01*
X015863Y021930D01*
X015840Y021967D01*
X015813Y022001D01*
X015784Y022034D01*
X015751Y022063D01*
X015717Y022090D01*
X015680Y022113D01*
X015641Y022133D01*
X015601Y022150D01*
X015559Y022163D01*
X015517Y022172D01*
X015474Y022178D01*
X015430Y022180D01*
X002680Y022180D01*
X002636Y022178D01*
X002593Y022172D01*
X002551Y022163D01*
X002509Y022150D01*
X002469Y022133D01*
X002430Y022113D01*
X002393Y022090D01*
X002359Y022063D01*
X002326Y022034D01*
X002297Y022001D01*
X002270Y021967D01*
X002247Y021930D01*
X002227Y021891D01*
X002210Y021851D01*
X002197Y021809D01*
X002188Y021767D01*
X002182Y021724D01*
X002180Y021680D01*
X002180Y003180D01*
X002182Y003136D01*
X002188Y003093D01*
X002197Y003051D01*
X002210Y003009D01*
X002227Y002969D01*
X002247Y002930D01*
X002270Y002893D01*
X002297Y002859D01*
X002326Y002826D01*
X002359Y002797D01*
X002393Y002770D01*
X002430Y002747D01*
X002469Y002727D01*
X002509Y002710D01*
X002551Y002697D01*
X002593Y002688D01*
X002636Y002682D01*
X002680Y002680D01*
X006040Y003680D02*
X006042Y003730D01*
X006048Y003780D01*
X006058Y003829D01*
X006071Y003878D01*
X006089Y003925D01*
X006110Y003971D01*
X006134Y004014D01*
X006162Y004056D01*
X006193Y004096D01*
X006227Y004133D01*
X006264Y004167D01*
X006304Y004198D01*
X006346Y004226D01*
X006389Y004250D01*
X006435Y004271D01*
X006482Y004289D01*
X006531Y004302D01*
X006580Y004312D01*
X006630Y004318D01*
X006680Y004320D01*
X006730Y004318D01*
X006780Y004312D01*
X006829Y004302D01*
X006878Y004289D01*
X006925Y004271D01*
X006971Y004250D01*
X007014Y004226D01*
X007056Y004198D01*
X007096Y004167D01*
X007133Y004133D01*
X007167Y004096D01*
X007198Y004056D01*
X007226Y004014D01*
X007250Y003971D01*
X007271Y003925D01*
X007289Y003878D01*
X007302Y003829D01*
X007312Y003780D01*
X007318Y003730D01*
X007320Y003680D01*
X007318Y003630D01*
X007312Y003580D01*
X007302Y003531D01*
X007289Y003482D01*
X007271Y003435D01*
X007250Y003389D01*
X007226Y003346D01*
X007198Y003304D01*
X007167Y003264D01*
X007133Y003227D01*
X007096Y003193D01*
X007056Y003162D01*
X007014Y003134D01*
X006971Y003110D01*
X006925Y003089D01*
X006878Y003071D01*
X006829Y003058D01*
X006780Y003048D01*
X006730Y003042D01*
X006680Y003040D01*
X006630Y003042D01*
X006580Y003048D01*
X006531Y003058D01*
X006482Y003071D01*
X006435Y003089D01*
X006389Y003110D01*
X006346Y003134D01*
X006304Y003162D01*
X006264Y003193D01*
X006227Y003227D01*
X006193Y003264D01*
X006162Y003304D01*
X006134Y003346D01*
X006110Y003389D01*
X006089Y003435D01*
X006071Y003482D01*
X006058Y003531D01*
X006048Y003580D01*
X006042Y003630D01*
X006040Y003680D01*
X006040Y007680D02*
X006042Y007730D01*
X006048Y007780D01*
X006058Y007829D01*
X006071Y007878D01*
X006089Y007925D01*
X006110Y007971D01*
X006134Y008014D01*
X006162Y008056D01*
X006193Y008096D01*
X006227Y008133D01*
X006264Y008167D01*
X006304Y008198D01*
X006346Y008226D01*
X006389Y008250D01*
X006435Y008271D01*
X006482Y008289D01*
X006531Y008302D01*
X006580Y008312D01*
X006630Y008318D01*
X006680Y008320D01*
X006730Y008318D01*
X006780Y008312D01*
X006829Y008302D01*
X006878Y008289D01*
X006925Y008271D01*
X006971Y008250D01*
X007014Y008226D01*
X007056Y008198D01*
X007096Y008167D01*
X007133Y008133D01*
X007167Y008096D01*
X007198Y008056D01*
X007226Y008014D01*
X007250Y007971D01*
X007271Y007925D01*
X007289Y007878D01*
X007302Y007829D01*
X007312Y007780D01*
X007318Y007730D01*
X007320Y007680D01*
X007318Y007630D01*
X007312Y007580D01*
X007302Y007531D01*
X007289Y007482D01*
X007271Y007435D01*
X007250Y007389D01*
X007226Y007346D01*
X007198Y007304D01*
X007167Y007264D01*
X007133Y007227D01*
X007096Y007193D01*
X007056Y007162D01*
X007014Y007134D01*
X006971Y007110D01*
X006925Y007089D01*
X006878Y007071D01*
X006829Y007058D01*
X006780Y007048D01*
X006730Y007042D01*
X006680Y007040D01*
X006630Y007042D01*
X006580Y007048D01*
X006531Y007058D01*
X006482Y007071D01*
X006435Y007089D01*
X006389Y007110D01*
X006346Y007134D01*
X006304Y007162D01*
X006264Y007193D01*
X006227Y007227D01*
X006193Y007264D01*
X006162Y007304D01*
X006134Y007346D01*
X006110Y007389D01*
X006089Y007435D01*
X006071Y007482D01*
X006058Y007531D01*
X006048Y007580D01*
X006042Y007630D01*
X006040Y007680D01*
X006050Y009680D02*
X006052Y009730D01*
X006058Y009780D01*
X006068Y009829D01*
X006082Y009877D01*
X006099Y009924D01*
X006120Y009969D01*
X006145Y010013D01*
X006173Y010054D01*
X006205Y010093D01*
X006239Y010130D01*
X006276Y010164D01*
X006316Y010194D01*
X006358Y010221D01*
X006402Y010245D01*
X006448Y010266D01*
X006495Y010282D01*
X006543Y010295D01*
X006593Y010304D01*
X006642Y010309D01*
X006693Y010310D01*
X006743Y010307D01*
X006792Y010300D01*
X006841Y010289D01*
X006889Y010274D01*
X006935Y010256D01*
X006980Y010234D01*
X007023Y010208D01*
X007064Y010179D01*
X007103Y010147D01*
X007139Y010112D01*
X007171Y010074D01*
X007201Y010034D01*
X007228Y009991D01*
X007251Y009947D01*
X007270Y009901D01*
X007286Y009853D01*
X007298Y009804D01*
X007306Y009755D01*
X007310Y009705D01*
X007310Y009655D01*
X007306Y009605D01*
X007298Y009556D01*
X007286Y009507D01*
X007270Y009459D01*
X007251Y009413D01*
X007228Y009369D01*
X007201Y009326D01*
X007171Y009286D01*
X007139Y009248D01*
X007103Y009213D01*
X007064Y009181D01*
X007023Y009152D01*
X006980Y009126D01*
X006935Y009104D01*
X006889Y009086D01*
X006841Y009071D01*
X006792Y009060D01*
X006743Y009053D01*
X006693Y009050D01*
X006642Y009051D01*
X006593Y009056D01*
X006543Y009065D01*
X006495Y009078D01*
X006448Y009094D01*
X006402Y009115D01*
X006358Y009139D01*
X006316Y009166D01*
X006276Y009196D01*
X006239Y009230D01*
X006205Y009267D01*
X006173Y009306D01*
X006145Y009347D01*
X006120Y009391D01*
X006099Y009436D01*
X006082Y009483D01*
X006068Y009531D01*
X006058Y009580D01*
X006052Y009630D01*
X006050Y009680D01*
X006050Y014180D02*
X006052Y014230D01*
X006058Y014280D01*
X006068Y014329D01*
X006082Y014377D01*
X006099Y014424D01*
X006120Y014469D01*
X006145Y014513D01*
X006173Y014554D01*
X006205Y014593D01*
X006239Y014630D01*
X006276Y014664D01*
X006316Y014694D01*
X006358Y014721D01*
X006402Y014745D01*
X006448Y014766D01*
X006495Y014782D01*
X006543Y014795D01*
X006593Y014804D01*
X006642Y014809D01*
X006693Y014810D01*
X006743Y014807D01*
X006792Y014800D01*
X006841Y014789D01*
X006889Y014774D01*
X006935Y014756D01*
X006980Y014734D01*
X007023Y014708D01*
X007064Y014679D01*
X007103Y014647D01*
X007139Y014612D01*
X007171Y014574D01*
X007201Y014534D01*
X007228Y014491D01*
X007251Y014447D01*
X007270Y014401D01*
X007286Y014353D01*
X007298Y014304D01*
X007306Y014255D01*
X007310Y014205D01*
X007310Y014155D01*
X007306Y014105D01*
X007298Y014056D01*
X007286Y014007D01*
X007270Y013959D01*
X007251Y013913D01*
X007228Y013869D01*
X007201Y013826D01*
X007171Y013786D01*
X007139Y013748D01*
X007103Y013713D01*
X007064Y013681D01*
X007023Y013652D01*
X006980Y013626D01*
X006935Y013604D01*
X006889Y013586D01*
X006841Y013571D01*
X006792Y013560D01*
X006743Y013553D01*
X006693Y013550D01*
X006642Y013551D01*
X006593Y013556D01*
X006543Y013565D01*
X006495Y013578D01*
X006448Y013594D01*
X006402Y013615D01*
X006358Y013639D01*
X006316Y013666D01*
X006276Y013696D01*
X006239Y013730D01*
X006205Y013767D01*
X006173Y013806D01*
X006145Y013847D01*
X006120Y013891D01*
X006099Y013936D01*
X006082Y013983D01*
X006068Y014031D01*
X006058Y014080D01*
X006052Y014130D01*
X006050Y014180D01*
D11*
X003180Y020180D03*
D12*
X003180Y021180D03*
X005180Y021180D03*
X016930Y011680D03*
X017930Y011680D03*
D13*
X015180Y020180D03*
X015180Y021180D03*
X014180Y021180D03*
X014180Y020180D03*
X013180Y020180D03*
X013180Y021180D03*
X012180Y021180D03*
X012180Y020180D03*
X011180Y020180D03*
X011180Y021180D03*
X010180Y021180D03*
X010180Y020180D03*
X009180Y020180D03*
X009180Y021180D03*
X008180Y021180D03*
X008180Y020180D03*
X007180Y020180D03*
X007180Y021180D03*
X006180Y021180D03*
X006180Y020180D03*
X005180Y020180D03*
X004180Y020180D03*
X004180Y021180D03*
D14*
X012706Y006680D03*
X020580Y006680D03*
D15*
X012680Y004180D03*
X011680Y004180D03*
X010180Y004930D03*
X010180Y005930D03*
X010180Y006930D03*
X009180Y006430D03*
X009180Y005430D03*
X009180Y004430D03*
X010180Y010180D03*
X010180Y011180D03*
X009180Y010680D03*
X009180Y011680D03*
X010180Y012180D03*
X010180Y013180D03*
X009180Y012680D03*
X007180Y015680D03*
X006180Y015680D03*
X004180Y015680D03*
X003180Y015680D03*
D16*
X009180Y013680D03*
D17*
X016430Y013930D03*
X018430Y013930D03*
D18*
X018180Y013930D02*
X017897Y013930D01*
X017897Y013888D01*
X017910Y013805D01*
X017936Y013725D01*
X017974Y013651D01*
X018024Y013583D01*
X018083Y013524D01*
X018151Y013474D01*
X018180Y013459D01*
X018180Y012680D01*
X016680Y012680D01*
X016680Y013459D01*
X016709Y013474D01*
X016777Y013524D01*
X016836Y013583D01*
X016886Y013651D01*
X016924Y013725D01*
X016950Y013805D01*
X016963Y013888D01*
X016963Y013930D01*
X016963Y013972D01*
X016950Y014055D01*
X016924Y014135D01*
X016886Y014209D01*
X016836Y014277D01*
X016777Y014336D01*
X016709Y014386D01*
X016680Y014401D01*
X016680Y015780D01*
X018180Y015780D01*
X018180Y014401D01*
X018151Y014386D01*
X018083Y014336D01*
X018024Y014277D01*
X017974Y014209D01*
X017936Y014135D01*
X017910Y014055D01*
X017897Y013972D01*
X017897Y013930D01*
X018180Y013930D01*
X018180Y013930D01*
X017897Y013966D02*
X016963Y013966D01*
X016963Y013930D02*
X016680Y013930D01*
X016680Y013930D01*
X016963Y013930D01*
X016952Y013818D02*
X017908Y013818D01*
X017965Y013669D02*
X016895Y013669D01*
X016773Y013521D02*
X018087Y013521D01*
X018180Y013372D02*
X016680Y013372D01*
X016680Y013224D02*
X018180Y013224D01*
X018180Y013075D02*
X016680Y013075D01*
X016680Y012927D02*
X018180Y012927D01*
X018180Y012778D02*
X016680Y012778D01*
X015680Y012930D02*
X015180Y012430D01*
X015180Y008430D01*
X016180Y007430D01*
X012180Y008680D02*
X011680Y008180D01*
X011680Y005930D01*
X011680Y005680D01*
X020580Y005680D01*
X020580Y006680D01*
X015680Y012930D02*
X015680Y013930D01*
X013930Y015680D01*
X007180Y015680D01*
X006180Y015680D02*
X005680Y015180D01*
X005680Y012930D01*
X008930Y009680D01*
X009680Y009680D01*
X010180Y010180D01*
X010180Y011180D02*
X011430Y011180D01*
X011430Y009430D01*
X010930Y008930D01*
X008930Y008930D01*
X004180Y013680D01*
X004180Y015680D01*
X003180Y015680D02*
X002580Y015680D01*
X002580Y021180D01*
X003180Y021180D01*
X010180Y012180D02*
X011680Y012180D01*
X012180Y011680D01*
X012180Y008680D01*
X011680Y005930D02*
X010180Y005930D01*
X011680Y005680D02*
X011680Y004180D01*
X016930Y014115D02*
X017930Y014115D01*
X018013Y014263D02*
X016847Y014263D01*
X016680Y014412D02*
X018180Y014412D01*
X018180Y014560D02*
X016680Y014560D01*
X016680Y014709D02*
X018180Y014709D01*
X018180Y014857D02*
X016680Y014857D01*
X016680Y015006D02*
X018180Y015006D01*
X018180Y015154D02*
X016680Y015154D01*
X016680Y015303D02*
X018180Y015303D01*
X018180Y015451D02*
X016680Y015451D01*
X016680Y015600D02*
X018180Y015600D01*
X018180Y015748D02*
X016680Y015748D01*
D19*
X019180Y015180D03*
X015930Y019430D03*
X014430Y018680D03*
X011430Y014930D03*
X010680Y014180D03*
X013930Y014180D03*
X008880Y018530D03*
X005180Y015680D03*
X003180Y014180D03*
X003180Y009680D03*
X003180Y007680D03*
X003180Y003680D03*
X007930Y005430D03*
X015180Y003680D03*
X017180Y005180D03*
X016180Y007430D03*
X020680Y003680D03*
D20*
X021360Y003631D02*
X013107Y003631D01*
X013071Y003595D02*
X013265Y003789D01*
X013274Y003810D01*
X014754Y003810D01*
X014890Y003866D01*
X014994Y003970D01*
X015833Y004810D01*
X016815Y004810D01*
X016885Y004739D01*
X017077Y004660D01*
X017283Y004660D01*
X017475Y004739D01*
X017621Y004885D01*
X017700Y005077D01*
X017700Y005283D01*
X017621Y005475D01*
X017475Y005621D01*
X017283Y005700D01*
X017077Y005700D01*
X016885Y005621D01*
X016815Y005550D01*
X015606Y005550D01*
X015470Y005494D01*
X015366Y005390D01*
X014527Y004550D01*
X013274Y004550D01*
X013265Y004571D01*
X013071Y004765D01*
X012817Y004870D01*
X012543Y004870D01*
X012289Y004765D01*
X012152Y004628D01*
X012109Y004670D01*
X012042Y004722D01*
X011968Y004764D01*
X011889Y004797D01*
X011807Y004819D01*
X011723Y004830D01*
X011700Y004830D01*
X011700Y004200D01*
X011660Y004200D01*
X011660Y004830D01*
X011637Y004830D01*
X011553Y004819D01*
X011471Y004797D01*
X011392Y004764D01*
X011318Y004722D01*
X011251Y004670D01*
X011190Y004609D01*
X011138Y004542D01*
X011096Y004468D01*
X011063Y004389D01*
X011041Y004307D01*
X011030Y004223D01*
X011030Y004200D01*
X011660Y004200D01*
X011660Y004160D01*
X011700Y004160D01*
X011700Y003530D01*
X011723Y003530D01*
X011807Y003541D01*
X011889Y003563D01*
X011968Y003596D01*
X012042Y003638D01*
X012109Y003690D01*
X012152Y003732D01*
X012289Y003595D01*
X012543Y003490D01*
X012817Y003490D01*
X013071Y003595D01*
X013265Y003790D02*
X021360Y003790D01*
X021360Y003948D02*
X014971Y003948D01*
X015130Y004107D02*
X021360Y004107D01*
X021360Y004265D02*
X015288Y004265D01*
X015447Y004424D02*
X021360Y004424D01*
X021360Y004582D02*
X015605Y004582D01*
X015764Y004741D02*
X016884Y004741D01*
X017476Y004741D02*
X021360Y004741D01*
X021360Y004899D02*
X017626Y004899D01*
X017692Y005058D02*
X021360Y005058D01*
X021360Y005216D02*
X017700Y005216D01*
X017662Y005375D02*
X021360Y005375D01*
X021360Y005533D02*
X017562Y005533D01*
X017304Y005692D02*
X021360Y005692D01*
X021360Y005850D02*
X010825Y005850D01*
X010830Y005887D02*
X010830Y005910D01*
X010200Y005910D01*
X010200Y005950D01*
X010830Y005950D01*
X010830Y005973D01*
X010819Y006057D01*
X010797Y006139D01*
X010764Y006218D01*
X010722Y006292D01*
X010670Y006359D01*
X010628Y006402D01*
X010765Y006539D01*
X010870Y006793D01*
X010870Y007067D01*
X010765Y007321D01*
X010571Y007515D01*
X010317Y007620D01*
X010043Y007620D01*
X009789Y007515D01*
X009595Y007321D01*
X009490Y007067D01*
X009490Y007002D01*
X009468Y007014D01*
X009389Y007047D01*
X009307Y007069D01*
X009223Y007080D01*
X009200Y007080D01*
X009200Y006450D01*
X009160Y006450D01*
X009160Y007080D01*
X009137Y007080D01*
X009053Y007069D01*
X008971Y007047D01*
X008892Y007014D01*
X008818Y006972D01*
X008751Y006920D01*
X008690Y006859D01*
X008638Y006792D01*
X008596Y006718D01*
X008563Y006639D01*
X008541Y006557D01*
X008530Y006473D01*
X008530Y006450D01*
X009160Y006450D01*
X009160Y006410D01*
X008530Y006410D01*
X008530Y006387D01*
X008541Y006303D01*
X008563Y006221D01*
X008596Y006142D01*
X008638Y006068D01*
X008690Y006001D01*
X008732Y005958D01*
X008595Y005821D01*
X008586Y005800D01*
X008295Y005800D01*
X008225Y005871D01*
X008033Y005950D01*
X007827Y005950D01*
X007635Y005871D01*
X007489Y005725D01*
X007410Y005533D01*
X002500Y005533D01*
X002500Y005375D02*
X007410Y005375D01*
X007410Y005327D02*
X007410Y005533D01*
X007475Y005692D02*
X002500Y005692D01*
X002500Y005850D02*
X007615Y005850D01*
X008245Y005850D02*
X008624Y005850D01*
X008684Y006009D02*
X002500Y006009D01*
X002500Y006167D02*
X008585Y006167D01*
X008538Y006326D02*
X002500Y006326D01*
X002500Y006484D02*
X008532Y006484D01*
X008564Y006643D02*
X002500Y006643D01*
X002500Y006801D02*
X006293Y006801D01*
X006136Y006866D02*
X006489Y006720D01*
X006871Y006720D01*
X007224Y006866D01*
X007494Y007136D01*
X007640Y007489D01*
X007640Y007871D01*
X007494Y008224D01*
X007224Y008494D01*
X006871Y008640D01*
X006489Y008640D01*
X006136Y008494D01*
X005866Y008224D01*
X005720Y007871D01*
X005720Y007489D01*
X005866Y007136D01*
X006136Y006866D01*
X006043Y006960D02*
X002500Y006960D01*
X002500Y007118D02*
X005884Y007118D01*
X005808Y007277D02*
X002500Y007277D01*
X002500Y007435D02*
X005742Y007435D01*
X005720Y007594D02*
X002500Y007594D01*
X002500Y007752D02*
X005720Y007752D01*
X005736Y007911D02*
X002500Y007911D01*
X002500Y008069D02*
X005802Y008069D01*
X005870Y008228D02*
X002500Y008228D01*
X002500Y008386D02*
X006028Y008386D01*
X006259Y008545D02*
X002500Y008545D01*
X002500Y008703D02*
X008598Y008703D01*
X008595Y008706D02*
X008706Y008595D01*
X008851Y008535D01*
X011009Y008535D01*
X011154Y008595D01*
X011765Y009206D01*
X011825Y009351D01*
X011825Y011259D01*
X011765Y011404D01*
X011654Y011515D01*
X011509Y011575D01*
X010761Y011575D01*
X010628Y011708D01*
X010670Y011751D01*
X010722Y011818D01*
X010764Y011892D01*
X010797Y011971D01*
X010819Y012053D01*
X010830Y012137D01*
X010830Y012162D01*
X010198Y012162D01*
X010198Y012198D01*
X010830Y012198D01*
X010830Y012223D01*
X010819Y012307D01*
X010797Y012389D01*
X010764Y012468D01*
X010722Y012542D01*
X010670Y012609D01*
X010628Y012652D01*
X010765Y012789D01*
X010870Y013043D01*
X010870Y013317D01*
X010765Y013571D01*
X010676Y013660D01*
X010783Y013660D01*
X010975Y013739D01*
X011045Y013810D01*
X013565Y013810D01*
X013635Y013739D01*
X013827Y013660D01*
X014033Y013660D01*
X014225Y013739D01*
X014371Y013885D01*
X014450Y014077D01*
X014450Y014283D01*
X014371Y014475D01*
X014225Y014621D01*
X014033Y014700D01*
X013827Y014700D01*
X013635Y014621D01*
X013565Y014550D01*
X011045Y014550D01*
X010975Y014621D01*
X010783Y014700D01*
X010683Y014700D01*
X010494Y014890D01*
X010390Y014994D01*
X010254Y015050D01*
X008106Y015050D01*
X007970Y014994D01*
X007866Y014890D01*
X007810Y014754D01*
X007810Y011606D01*
X007866Y011470D01*
X007970Y011366D01*
X008106Y011310D01*
X008586Y011310D01*
X008595Y011289D01*
X008704Y011180D01*
X008595Y011071D01*
X008490Y010817D01*
X008490Y010679D01*
X006075Y013094D01*
X006075Y013442D01*
X006142Y013375D01*
X006491Y013230D01*
X006869Y013230D01*
X007218Y013375D01*
X007485Y013642D01*
X007630Y013991D01*
X007630Y014369D01*
X007485Y014718D01*
X007218Y014985D01*
X007207Y014990D01*
X007317Y014990D01*
X007571Y015095D01*
X007761Y015285D01*
X013766Y015285D01*
X015285Y013766D01*
X015285Y013094D01*
X014956Y012765D01*
X014845Y012654D01*
X014785Y012509D01*
X014785Y008351D01*
X014845Y008206D01*
X015660Y007391D01*
X015660Y007327D01*
X015739Y007135D01*
X015885Y006989D01*
X016077Y006910D01*
X016283Y006910D01*
X016475Y006989D01*
X016621Y007135D01*
X016700Y007327D01*
X016700Y007533D01*
X016621Y007725D01*
X016475Y007871D01*
X016283Y007950D01*
X016219Y007950D01*
X015575Y008594D01*
X015575Y012266D01*
X016015Y012706D01*
X016075Y012851D01*
X016075Y013524D01*
X016080Y013520D01*
X016148Y013470D01*
X016224Y013432D01*
X016304Y013405D01*
X016388Y013392D01*
X016430Y013392D01*
X016430Y013930D01*
X016968Y013930D01*
X016430Y013930D01*
X016430Y013930D01*
X016430Y013930D01*
X016430Y014468D01*
X016472Y014468D01*
X016556Y014455D01*
X016636Y014428D01*
X016712Y014390D01*
X016780Y014340D01*
X016840Y014280D01*
X016890Y014212D01*
X016928Y014136D01*
X016955Y014056D01*
X016968Y013972D01*
X016968Y013930D01*
X016968Y013888D01*
X016955Y013804D01*
X016928Y013724D01*
X016890Y013648D01*
X016840Y013580D01*
X016780Y013520D01*
X016712Y013470D01*
X016636Y013432D01*
X016556Y013405D01*
X016472Y013392D01*
X016430Y013392D01*
X016430Y013930D01*
X016430Y013930D01*
X016430Y014468D01*
X016388Y014468D01*
X016304Y014455D01*
X016224Y014428D01*
X016148Y014390D01*
X016080Y014340D01*
X016020Y014280D01*
X015970Y014212D01*
X015966Y014203D01*
X015904Y014265D01*
X014265Y015904D01*
X014154Y016015D01*
X014009Y016075D01*
X007761Y016075D01*
X007571Y016265D01*
X007317Y016370D01*
X007043Y016370D01*
X006789Y016265D01*
X006680Y016156D01*
X006571Y016265D01*
X006317Y016370D01*
X006043Y016370D01*
X005789Y016265D01*
X005595Y016071D01*
X005490Y015817D01*
X005490Y015549D01*
X005345Y015404D01*
X005285Y015259D01*
X005285Y013134D01*
X004575Y013844D01*
X004575Y015099D01*
X004765Y015289D01*
X004870Y015543D01*
X004870Y015817D01*
X004765Y016071D01*
X004571Y016265D01*
X004317Y016370D01*
X004043Y016370D01*
X003789Y016265D01*
X003680Y016156D01*
X003571Y016265D01*
X003317Y016370D01*
X003043Y016370D01*
X002975Y016342D01*
X002975Y019543D01*
X003561Y019543D01*
X003678Y019592D01*
X003768Y019682D01*
X003771Y019688D01*
X003810Y019649D01*
X003810Y019306D01*
X003866Y019170D01*
X003970Y019066D01*
X004106Y019010D01*
X013577Y019010D01*
X013910Y018677D01*
X013910Y018577D01*
X013989Y018385D01*
X014135Y018239D01*
X014327Y018160D01*
X014533Y018160D01*
X014725Y018239D01*
X014871Y018385D01*
X014950Y018577D01*
X014950Y018783D01*
X014871Y018975D01*
X014725Y019121D01*
X014533Y019200D01*
X014433Y019200D01*
X014090Y019543D01*
X014307Y019543D01*
X014541Y019640D01*
X014680Y019779D01*
X014819Y019640D01*
X015053Y019543D01*
X015307Y019543D01*
X015541Y019640D01*
X015720Y019819D01*
X015817Y020053D01*
X015817Y020133D01*
X015966Y019985D01*
X016267Y019860D01*
X017430Y019860D01*
X017465Y019857D01*
X017530Y019830D01*
X017580Y019780D01*
X017607Y019715D01*
X017610Y019680D01*
X017610Y016767D01*
X017735Y016466D01*
X017735Y016466D01*
X017966Y016235D01*
X018267Y016110D01*
X021180Y016110D01*
X021215Y016107D01*
X021280Y016080D01*
X021330Y016030D01*
X021357Y015965D01*
X021360Y015930D01*
X021360Y003180D01*
X021357Y003145D01*
X021330Y003080D01*
X021280Y003030D01*
X021215Y003003D01*
X021180Y003000D01*
X007358Y003000D01*
X007494Y003136D01*
X007640Y003489D01*
X007640Y003871D01*
X007494Y004224D01*
X007224Y004494D01*
X006871Y004640D01*
X006489Y004640D01*
X006136Y004494D01*
X005866Y004224D01*
X005720Y003871D01*
X005720Y003489D01*
X005866Y003136D01*
X006002Y003000D01*
X002680Y003000D01*
X002645Y003003D01*
X002580Y003030D01*
X002530Y003080D01*
X002503Y003145D01*
X002500Y003180D01*
X002500Y015286D01*
X002501Y015285D01*
X002599Y015285D01*
X002789Y015095D01*
X003043Y014990D01*
X003317Y014990D01*
X003571Y015095D01*
X003680Y015204D01*
X003785Y015099D01*
X003785Y013601D01*
X003845Y013456D01*
X006671Y010630D01*
X006491Y010630D01*
X006142Y010485D01*
X005875Y010218D01*
X005730Y009869D01*
X005730Y009491D01*
X005875Y009142D01*
X006142Y008875D01*
X006491Y008730D01*
X006869Y008730D01*
X007218Y008875D01*
X007485Y009142D01*
X007630Y009491D01*
X007630Y009671D01*
X008595Y008706D01*
X008595Y008706D01*
X008440Y008862D02*
X007186Y008862D01*
X007363Y009020D02*
X008281Y009020D01*
X008123Y009179D02*
X007500Y009179D01*
X007566Y009337D02*
X007964Y009337D01*
X007806Y009496D02*
X007630Y009496D01*
X007630Y009654D02*
X007647Y009654D01*
X007101Y008545D02*
X008828Y008545D01*
X009979Y007594D02*
X007640Y007594D01*
X007640Y007752D02*
X015299Y007752D01*
X015141Y007911D02*
X007624Y007911D01*
X007558Y008069D02*
X014982Y008069D01*
X014836Y008228D02*
X007490Y008228D01*
X007332Y008386D02*
X014785Y008386D01*
X014785Y008545D02*
X011032Y008545D01*
X011262Y008703D02*
X014785Y008703D01*
X014785Y008862D02*
X011420Y008862D01*
X011579Y009020D02*
X014785Y009020D01*
X014785Y009179D02*
X011737Y009179D01*
X011819Y009337D02*
X014785Y009337D01*
X014785Y009496D02*
X011825Y009496D01*
X011825Y009654D02*
X014785Y009654D01*
X014785Y009813D02*
X011825Y009813D01*
X011825Y009971D02*
X014785Y009971D01*
X014785Y010130D02*
X011825Y010130D01*
X011825Y010288D02*
X014785Y010288D01*
X014785Y010447D02*
X011825Y010447D01*
X011825Y010605D02*
X014785Y010605D01*
X014785Y010764D02*
X011825Y010764D01*
X011825Y010922D02*
X014785Y010922D01*
X014785Y011081D02*
X011825Y011081D01*
X011825Y011239D02*
X014785Y011239D01*
X014785Y011398D02*
X011767Y011398D01*
X011554Y011556D02*
X014785Y011556D01*
X014785Y011715D02*
X010634Y011715D01*
X010753Y011873D02*
X014785Y011873D01*
X014785Y012032D02*
X010813Y012032D01*
X010808Y012349D02*
X014785Y012349D01*
X014785Y012507D02*
X010742Y012507D01*
X010641Y012666D02*
X014857Y012666D01*
X015015Y012824D02*
X010779Y012824D01*
X010845Y012983D02*
X015174Y012983D01*
X015285Y013141D02*
X010870Y013141D01*
X010870Y013300D02*
X015285Y013300D01*
X015285Y013458D02*
X010812Y013458D01*
X010719Y013617D02*
X015285Y013617D01*
X015276Y013775D02*
X014260Y013775D01*
X014391Y013934D02*
X015118Y013934D01*
X014959Y014092D02*
X014450Y014092D01*
X014450Y014251D02*
X014801Y014251D01*
X014642Y014409D02*
X014398Y014409D01*
X014484Y014568D02*
X014278Y014568D01*
X014325Y014726D02*
X010657Y014726D01*
X010499Y014885D02*
X014167Y014885D01*
X014008Y015043D02*
X010270Y015043D01*
X011028Y014568D02*
X013582Y014568D01*
X013850Y015202D02*
X007677Y015202D01*
X007445Y015043D02*
X008090Y015043D01*
X007864Y014885D02*
X007319Y014885D01*
X007477Y014726D02*
X007810Y014726D01*
X007810Y014568D02*
X007548Y014568D01*
X007613Y014409D02*
X007810Y014409D01*
X007810Y014251D02*
X007630Y014251D01*
X007630Y014092D02*
X007810Y014092D01*
X007810Y013934D02*
X007606Y013934D01*
X007540Y013775D02*
X007810Y013775D01*
X007810Y013617D02*
X007460Y013617D01*
X007301Y013458D02*
X007810Y013458D01*
X007810Y013300D02*
X007037Y013300D01*
X006345Y012824D02*
X007810Y012824D01*
X007810Y012666D02*
X006503Y012666D01*
X006662Y012507D02*
X007810Y012507D01*
X007810Y012349D02*
X006820Y012349D01*
X006979Y012190D02*
X007810Y012190D01*
X007810Y012032D02*
X007137Y012032D01*
X007296Y011873D02*
X007810Y011873D01*
X007810Y011715D02*
X007454Y011715D01*
X007613Y011556D02*
X007831Y011556D01*
X007771Y011398D02*
X007939Y011398D01*
X007930Y011239D02*
X008645Y011239D01*
X008605Y011081D02*
X008088Y011081D01*
X008247Y010922D02*
X008533Y010922D01*
X008490Y010764D02*
X008405Y010764D01*
X010198Y012190D02*
X014785Y012190D01*
X015575Y012190D02*
X016521Y012190D01*
X016562Y012231D02*
X016379Y012048D01*
X016280Y011809D01*
X016280Y011551D01*
X016379Y011312D01*
X016562Y011129D01*
X016801Y011030D01*
X017059Y011030D01*
X017298Y011129D01*
X017430Y011261D01*
X017562Y011129D01*
X017801Y011030D01*
X018059Y011030D01*
X018298Y011129D01*
X018481Y011312D01*
X018580Y011551D01*
X018580Y011809D01*
X018481Y012048D01*
X018298Y012231D01*
X018059Y012330D01*
X017801Y012330D01*
X017562Y012231D01*
X017430Y012099D01*
X017298Y012231D01*
X017059Y012330D01*
X016801Y012330D01*
X016562Y012231D01*
X016372Y012032D02*
X015575Y012032D01*
X015575Y011873D02*
X016306Y011873D01*
X016280Y011715D02*
X015575Y011715D01*
X015575Y011556D02*
X016280Y011556D01*
X016343Y011398D02*
X015575Y011398D01*
X015575Y011239D02*
X016452Y011239D01*
X016679Y011081D02*
X015575Y011081D01*
X015575Y010922D02*
X019310Y010922D01*
X019310Y010764D02*
X015575Y010764D01*
X015575Y010605D02*
X019310Y010605D01*
X019310Y010447D02*
X015575Y010447D01*
X015575Y010288D02*
X019310Y010288D01*
X019310Y010130D02*
X015575Y010130D01*
X015575Y009971D02*
X019310Y009971D01*
X019310Y009813D02*
X015575Y009813D01*
X015575Y009654D02*
X019310Y009654D01*
X019310Y009496D02*
X015575Y009496D01*
X015575Y009337D02*
X019310Y009337D01*
X019310Y009179D02*
X015575Y009179D01*
X015575Y009020D02*
X019310Y009020D01*
X019310Y008862D02*
X015575Y008862D01*
X015575Y008703D02*
X019310Y008703D01*
X019310Y008545D02*
X015624Y008545D01*
X015783Y008386D02*
X019310Y008386D01*
X019310Y008228D02*
X015941Y008228D01*
X016100Y008069D02*
X019310Y008069D01*
X019310Y007911D02*
X016379Y007911D01*
X016593Y007752D02*
X019229Y007752D01*
X019310Y007833D02*
X019310Y014527D01*
X019177Y014660D01*
X019077Y014660D01*
X018885Y014739D01*
X018739Y014885D01*
X018660Y015077D01*
X018660Y015283D01*
X018739Y015475D01*
X018885Y015621D01*
X019077Y015700D01*
X019283Y015700D01*
X019475Y015621D01*
X019621Y015475D01*
X019700Y015283D01*
X019700Y015183D01*
X019994Y014890D01*
X020050Y014754D01*
X020050Y007606D01*
X019994Y007470D01*
X018640Y006116D01*
X018504Y006060D01*
X013356Y006060D01*
X013278Y006092D01*
X013170Y005985D01*
X012869Y005860D01*
X012543Y005860D01*
X012241Y005985D01*
X012011Y006216D01*
X011886Y006517D01*
X011886Y006843D01*
X012011Y007144D01*
X012241Y007375D01*
X012543Y007500D01*
X012869Y007500D01*
X013170Y007375D01*
X013401Y007144D01*
X013516Y006867D01*
X013583Y006800D01*
X018277Y006800D01*
X019310Y007833D01*
X019070Y007594D02*
X016675Y007594D01*
X016700Y007435D02*
X018912Y007435D01*
X018753Y007277D02*
X016679Y007277D01*
X016603Y007118D02*
X018595Y007118D01*
X018436Y006960D02*
X016403Y006960D01*
X015957Y006960D02*
X013478Y006960D01*
X013412Y007118D02*
X015757Y007118D01*
X015681Y007277D02*
X013269Y007277D01*
X013026Y007435D02*
X015616Y007435D01*
X015458Y007594D02*
X010381Y007594D01*
X010651Y007435D02*
X012386Y007435D01*
X012143Y007277D02*
X010783Y007277D01*
X010849Y007118D02*
X012000Y007118D01*
X011934Y006960D02*
X010870Y006960D01*
X010870Y006801D02*
X011886Y006801D01*
X011886Y006643D02*
X010808Y006643D01*
X010710Y006484D02*
X011900Y006484D01*
X011965Y006326D02*
X010696Y006326D01*
X010785Y006167D02*
X012059Y006167D01*
X012218Y006009D02*
X010825Y006009D01*
X010830Y005887D02*
X010819Y005803D01*
X010797Y005721D01*
X010764Y005642D01*
X010722Y005568D01*
X010670Y005501D01*
X010628Y005458D01*
X010765Y005321D01*
X010870Y005067D01*
X010870Y004793D01*
X010765Y004539D01*
X010571Y004345D01*
X010317Y004240D01*
X010043Y004240D01*
X009870Y004312D01*
X009870Y004293D01*
X009765Y004039D01*
X009571Y003845D01*
X009317Y003740D01*
X009043Y003740D01*
X008789Y003845D01*
X008595Y004039D01*
X008490Y004293D01*
X008490Y004567D01*
X008595Y004821D01*
X008704Y004930D01*
X008595Y005039D01*
X008586Y005060D01*
X008295Y005060D01*
X008225Y004989D01*
X008033Y004910D01*
X007827Y004910D01*
X007635Y004989D01*
X007489Y005135D01*
X007410Y005327D01*
X007456Y005216D02*
X002500Y005216D01*
X002500Y005058D02*
X007567Y005058D01*
X007294Y004424D02*
X008490Y004424D01*
X008496Y004582D02*
X007011Y004582D01*
X007453Y004265D02*
X008501Y004265D01*
X008567Y004107D02*
X007542Y004107D01*
X007608Y003948D02*
X008686Y003948D01*
X008923Y003790D02*
X007640Y003790D01*
X007640Y003631D02*
X011331Y003631D01*
X011318Y003638D02*
X011392Y003596D01*
X011471Y003563D01*
X011553Y003541D01*
X011637Y003530D01*
X011660Y003530D01*
X011660Y004160D01*
X011030Y004160D01*
X011030Y004137D01*
X011041Y004053D01*
X011063Y003971D01*
X011096Y003892D01*
X011138Y003818D01*
X011190Y003751D01*
X011251Y003690D01*
X011318Y003638D01*
X011160Y003790D02*
X009437Y003790D01*
X009674Y003948D02*
X011073Y003948D01*
X011034Y004107D02*
X009793Y004107D01*
X009859Y004265D02*
X009982Y004265D01*
X010378Y004265D02*
X011036Y004265D01*
X011077Y004424D02*
X010649Y004424D01*
X010783Y004582D02*
X011169Y004582D01*
X011351Y004741D02*
X010848Y004741D01*
X010870Y004899D02*
X014876Y004899D01*
X015034Y005058D02*
X010870Y005058D01*
X010808Y005216D02*
X015193Y005216D01*
X015351Y005375D02*
X010711Y005375D01*
X010695Y005533D02*
X015565Y005533D01*
X014717Y004741D02*
X013095Y004741D01*
X013254Y004582D02*
X014559Y004582D01*
X013194Y006009D02*
X020183Y006009D01*
X020146Y006030D02*
X020234Y005979D01*
X020329Y005940D01*
X020428Y005913D01*
X020529Y005900D01*
X020532Y005900D01*
X020532Y006632D01*
X019800Y006632D01*
X019800Y006629D01*
X019813Y006528D01*
X019840Y006429D01*
X019879Y006334D01*
X019930Y006246D01*
X019992Y006165D01*
X020065Y006092D01*
X020146Y006030D01*
X019990Y006167D02*
X018690Y006167D01*
X018849Y006326D02*
X019884Y006326D01*
X019825Y006484D02*
X019007Y006484D01*
X019166Y006643D02*
X020532Y006643D01*
X020532Y006632D02*
X020532Y006728D01*
X020532Y007460D01*
X020529Y007460D01*
X020428Y007447D01*
X020329Y007420D01*
X020234Y007381D01*
X020146Y007330D01*
X020065Y007268D01*
X019992Y007195D01*
X019930Y007114D01*
X019879Y007026D01*
X019840Y006931D01*
X019813Y006832D01*
X019800Y006731D01*
X019800Y006728D01*
X020532Y006728D01*
X020628Y006728D01*
X020628Y007460D01*
X020631Y007460D01*
X020732Y007447D01*
X020831Y007420D01*
X020926Y007381D01*
X021014Y007330D01*
X021095Y007268D01*
X021168Y007195D01*
X021230Y007114D01*
X021281Y007026D01*
X021320Y006931D01*
X021347Y006832D01*
X021360Y006731D01*
X021360Y006728D01*
X020628Y006728D01*
X020628Y006632D01*
X021360Y006632D01*
X021360Y006629D01*
X021347Y006528D01*
X021320Y006429D01*
X021281Y006334D01*
X021230Y006246D01*
X021168Y006165D01*
X021095Y006092D01*
X021014Y006030D01*
X020926Y005979D01*
X020831Y005940D01*
X020732Y005913D01*
X020631Y005900D01*
X020628Y005900D01*
X020628Y006632D01*
X020532Y006632D01*
X020628Y006643D02*
X021360Y006643D01*
X021351Y006801D02*
X021360Y006801D01*
X021360Y006960D02*
X021308Y006960D01*
X021360Y007118D02*
X021227Y007118D01*
X021360Y007277D02*
X021084Y007277D01*
X021360Y007435D02*
X020776Y007435D01*
X020628Y007435D02*
X020532Y007435D01*
X020384Y007435D02*
X019958Y007435D01*
X020045Y007594D02*
X021360Y007594D01*
X021360Y007752D02*
X020050Y007752D01*
X020050Y007911D02*
X021360Y007911D01*
X021360Y008069D02*
X020050Y008069D01*
X020050Y008228D02*
X021360Y008228D01*
X021360Y008386D02*
X020050Y008386D01*
X020050Y008545D02*
X021360Y008545D01*
X021360Y008703D02*
X020050Y008703D01*
X020050Y008862D02*
X021360Y008862D01*
X021360Y009020D02*
X020050Y009020D01*
X020050Y009179D02*
X021360Y009179D01*
X021360Y009337D02*
X020050Y009337D01*
X020050Y009496D02*
X021360Y009496D01*
X021360Y009654D02*
X020050Y009654D01*
X020050Y009813D02*
X021360Y009813D01*
X021360Y009971D02*
X020050Y009971D01*
X020050Y010130D02*
X021360Y010130D01*
X021360Y010288D02*
X020050Y010288D01*
X020050Y010447D02*
X021360Y010447D01*
X021360Y010605D02*
X020050Y010605D01*
X020050Y010764D02*
X021360Y010764D01*
X021360Y010922D02*
X020050Y010922D01*
X020050Y011081D02*
X021360Y011081D01*
X021360Y011239D02*
X020050Y011239D01*
X020050Y011398D02*
X021360Y011398D01*
X021360Y011556D02*
X020050Y011556D01*
X020050Y011715D02*
X021360Y011715D01*
X021360Y011873D02*
X020050Y011873D01*
X020050Y012032D02*
X021360Y012032D01*
X021360Y012190D02*
X020050Y012190D01*
X020050Y012349D02*
X021360Y012349D01*
X021360Y012507D02*
X020050Y012507D01*
X020050Y012666D02*
X021360Y012666D01*
X021360Y012824D02*
X020050Y012824D01*
X020050Y012983D02*
X021360Y012983D01*
X021360Y013141D02*
X020050Y013141D01*
X020050Y013300D02*
X021360Y013300D01*
X021360Y013458D02*
X020050Y013458D01*
X020050Y013617D02*
X021360Y013617D01*
X021360Y013775D02*
X020050Y013775D01*
X020050Y013934D02*
X021360Y013934D01*
X021360Y014092D02*
X020050Y014092D01*
X020050Y014251D02*
X021360Y014251D01*
X021360Y014409D02*
X020050Y014409D01*
X020050Y014568D02*
X021360Y014568D01*
X021360Y014726D02*
X020050Y014726D01*
X019996Y014885D02*
X021360Y014885D01*
X021360Y015043D02*
X019840Y015043D01*
X019700Y015202D02*
X021360Y015202D01*
X021360Y015360D02*
X019668Y015360D01*
X019577Y015519D02*
X021360Y015519D01*
X021360Y015677D02*
X019339Y015677D01*
X019021Y015677D02*
X014492Y015677D01*
X014650Y015519D02*
X018783Y015519D01*
X018692Y015360D02*
X014809Y015360D01*
X014967Y015202D02*
X018660Y015202D01*
X018674Y015043D02*
X015126Y015043D01*
X015284Y014885D02*
X018740Y014885D01*
X018917Y014726D02*
X015443Y014726D01*
X015601Y014568D02*
X019269Y014568D01*
X019310Y014409D02*
X018674Y014409D01*
X018636Y014428D02*
X018556Y014455D01*
X018472Y014468D01*
X018430Y014468D01*
X018430Y013930D01*
X018968Y013930D01*
X018430Y013930D01*
X018430Y013930D01*
X018430Y013930D01*
X018430Y013392D01*
X018430Y013930D01*
X018430Y013930D01*
X018430Y013930D01*
X017892Y013930D01*
X017892Y013972D01*
X017905Y014056D01*
X017932Y014136D01*
X017970Y014212D01*
X018020Y014280D01*
X018080Y014340D01*
X018148Y014390D01*
X018224Y014428D01*
X018304Y014455D01*
X018388Y014468D01*
X018430Y014468D01*
X018430Y013930D01*
X017892Y013930D01*
X017892Y013888D01*
X017905Y013804D01*
X017932Y013724D01*
X017970Y013648D01*
X018020Y013580D01*
X018080Y013520D01*
X018148Y013470D01*
X018224Y013432D01*
X018304Y013405D01*
X018388Y013392D01*
X018430Y013392D01*
X018472Y013392D01*
X018556Y013405D01*
X018636Y013432D01*
X018712Y013470D01*
X018780Y013520D01*
X018840Y013580D01*
X018890Y013648D01*
X018928Y013724D01*
X018955Y013804D01*
X018968Y013888D01*
X018968Y013930D01*
X018968Y013972D01*
X018955Y014056D01*
X018928Y014136D01*
X018890Y014212D01*
X018840Y014280D01*
X018780Y014340D01*
X018712Y014390D01*
X018636Y014428D01*
X018430Y014409D02*
X018430Y014409D01*
X018430Y014251D02*
X018430Y014251D01*
X018430Y014092D02*
X018430Y014092D01*
X018430Y013934D02*
X018430Y013934D01*
X018430Y013775D02*
X018430Y013775D01*
X018430Y013617D02*
X018430Y013617D01*
X018430Y013458D02*
X018430Y013458D01*
X018688Y013458D02*
X019310Y013458D01*
X019310Y013300D02*
X016075Y013300D01*
X016075Y013458D02*
X016172Y013458D01*
X016430Y013458D02*
X016430Y013458D01*
X016430Y013617D02*
X016430Y013617D01*
X016430Y013775D02*
X016430Y013775D01*
X016430Y013934D02*
X016430Y013934D01*
X016430Y014092D02*
X016430Y014092D01*
X016430Y014251D02*
X016430Y014251D01*
X016430Y014409D02*
X016430Y014409D01*
X016186Y014409D02*
X015760Y014409D01*
X015918Y014251D02*
X015998Y014251D01*
X016674Y014409D02*
X018186Y014409D01*
X017998Y014251D02*
X016862Y014251D01*
X016943Y014092D02*
X017917Y014092D01*
X017892Y013934D02*
X016968Y013934D01*
X016945Y013775D02*
X017915Y013775D01*
X017993Y013617D02*
X016867Y013617D01*
X016688Y013458D02*
X018172Y013458D01*
X018867Y013617D02*
X019310Y013617D01*
X019310Y013775D02*
X018945Y013775D01*
X018968Y013934D02*
X019310Y013934D01*
X019310Y014092D02*
X018943Y014092D01*
X018862Y014251D02*
X019310Y014251D01*
X019310Y013141D02*
X016075Y013141D01*
X016075Y012983D02*
X019310Y012983D01*
X019310Y012824D02*
X016064Y012824D01*
X015974Y012666D02*
X019310Y012666D01*
X019310Y012507D02*
X015816Y012507D01*
X015657Y012349D02*
X019310Y012349D01*
X019310Y012190D02*
X018339Y012190D01*
X018488Y012032D02*
X019310Y012032D01*
X019310Y011873D02*
X018554Y011873D01*
X018580Y011715D02*
X019310Y011715D01*
X019310Y011556D02*
X018580Y011556D01*
X018517Y011398D02*
X019310Y011398D01*
X019310Y011239D02*
X018408Y011239D01*
X018181Y011081D02*
X019310Y011081D01*
X017679Y011081D02*
X017181Y011081D01*
X017408Y011239D02*
X017452Y011239D01*
X017521Y012190D02*
X017339Y012190D01*
X014333Y015836D02*
X021360Y015836D01*
X021345Y015994D02*
X014175Y015994D01*
X014265Y015904D02*
X014265Y015904D01*
X013600Y013775D02*
X011010Y013775D01*
X007810Y013141D02*
X006075Y013141D01*
X006075Y013300D02*
X006323Y013300D01*
X006186Y012983D02*
X007810Y012983D01*
X006062Y011239D02*
X002500Y011239D01*
X002500Y011081D02*
X006221Y011081D01*
X006379Y010922D02*
X002500Y010922D01*
X002500Y010764D02*
X006538Y010764D01*
X006431Y010605D02*
X002500Y010605D01*
X002500Y010447D02*
X006103Y010447D01*
X005945Y010288D02*
X002500Y010288D01*
X002500Y010130D02*
X005838Y010130D01*
X005772Y009971D02*
X002500Y009971D01*
X002500Y009813D02*
X005730Y009813D01*
X005730Y009654D02*
X002500Y009654D01*
X002500Y009496D02*
X005730Y009496D01*
X005794Y009337D02*
X002500Y009337D01*
X002500Y009179D02*
X005860Y009179D01*
X005997Y009020D02*
X002500Y009020D01*
X002500Y008862D02*
X006174Y008862D01*
X007618Y007435D02*
X009709Y007435D01*
X009577Y007277D02*
X007552Y007277D01*
X007476Y007118D02*
X009511Y007118D01*
X009200Y006960D02*
X009160Y006960D01*
X009160Y006801D02*
X009200Y006801D01*
X009200Y006643D02*
X009160Y006643D01*
X009160Y006484D02*
X009200Y006484D01*
X008802Y006960D02*
X007317Y006960D01*
X007067Y006801D02*
X008645Y006801D01*
X008587Y005058D02*
X008293Y005058D01*
X008673Y004899D02*
X002500Y004899D01*
X002500Y004741D02*
X008562Y004741D01*
X007633Y003473D02*
X021360Y003473D01*
X021360Y003314D02*
X007567Y003314D01*
X007502Y003156D02*
X021358Y003156D01*
X021360Y006009D02*
X020977Y006009D01*
X021170Y006167D02*
X021360Y006167D01*
X021360Y006326D02*
X021276Y006326D01*
X021335Y006484D02*
X021360Y006484D01*
X020628Y006484D02*
X020532Y006484D01*
X020532Y006326D02*
X020628Y006326D01*
X020628Y006167D02*
X020532Y006167D01*
X020532Y006009D02*
X020628Y006009D01*
X020628Y006801D02*
X020532Y006801D01*
X020532Y006960D02*
X020628Y006960D01*
X020628Y007118D02*
X020532Y007118D01*
X020532Y007277D02*
X020628Y007277D01*
X020076Y007277D02*
X019800Y007277D01*
X019933Y007118D02*
X019641Y007118D01*
X019483Y006960D02*
X019852Y006960D01*
X019809Y006801D02*
X019324Y006801D01*
X018278Y006801D02*
X013582Y006801D01*
X012265Y004741D02*
X012009Y004741D01*
X011700Y004741D02*
X011660Y004741D01*
X011660Y004582D02*
X011700Y004582D01*
X011700Y004424D02*
X011660Y004424D01*
X011660Y004265D02*
X011700Y004265D01*
X011700Y004107D02*
X011660Y004107D01*
X011660Y003948D02*
X011700Y003948D01*
X011700Y003790D02*
X011660Y003790D01*
X011660Y003631D02*
X011700Y003631D01*
X012029Y003631D02*
X012253Y003631D01*
X010785Y005692D02*
X017056Y005692D01*
X018164Y016153D02*
X007683Y016153D01*
X007460Y016311D02*
X017889Y016311D01*
X017966Y016235D02*
X017966Y016235D01*
X017733Y016470D02*
X002975Y016470D01*
X002975Y016628D02*
X017668Y016628D01*
X017610Y016787D02*
X002975Y016787D01*
X002975Y016945D02*
X017610Y016945D01*
X017610Y017104D02*
X002975Y017104D01*
X002975Y017262D02*
X017610Y017262D01*
X017610Y017421D02*
X002975Y017421D01*
X002975Y017579D02*
X017610Y017579D01*
X017610Y017738D02*
X002975Y017738D01*
X002975Y017896D02*
X017610Y017896D01*
X017610Y018055D02*
X002975Y018055D01*
X002975Y018213D02*
X014199Y018213D01*
X014003Y018372D02*
X002975Y018372D01*
X002975Y018530D02*
X013929Y018530D01*
X013898Y018689D02*
X002975Y018689D01*
X002975Y018847D02*
X013740Y018847D01*
X013581Y019006D02*
X002975Y019006D01*
X002975Y019164D02*
X003873Y019164D01*
X003810Y019323D02*
X002975Y019323D01*
X002975Y019481D02*
X003810Y019481D01*
X003810Y019640D02*
X003726Y019640D01*
X005162Y021198D02*
X005162Y021790D01*
X005132Y021790D01*
X005037Y021775D01*
X004946Y021745D01*
X004860Y021702D01*
X004783Y021645D01*
X004715Y021577D01*
X004701Y021559D01*
X004541Y021720D01*
X004307Y021817D01*
X004053Y021817D01*
X003819Y021720D01*
X003689Y021590D01*
X003548Y021731D01*
X003309Y021830D01*
X003051Y021830D01*
X002812Y021731D01*
X002656Y021575D01*
X002501Y021575D01*
X002500Y021574D01*
X002500Y021616D01*
X002500Y021680D01*
X002503Y021715D01*
X002530Y021780D01*
X002580Y021830D01*
X002645Y021857D01*
X002680Y021860D01*
X015430Y021860D01*
X015465Y021857D01*
X015530Y021830D01*
X015580Y021780D01*
X015607Y021715D01*
X015610Y021680D01*
X015610Y021651D01*
X015541Y021720D01*
X015307Y021817D01*
X015053Y021817D01*
X014819Y021720D01*
X014680Y021581D01*
X014541Y021720D01*
X014307Y021817D01*
X014053Y021817D01*
X013819Y021720D01*
X013680Y021581D01*
X013541Y021720D01*
X013307Y021817D01*
X013053Y021817D01*
X012819Y021720D01*
X012680Y021581D01*
X012541Y021720D01*
X012307Y021817D01*
X012053Y021817D01*
X011819Y021720D01*
X011680Y021581D01*
X011541Y021720D01*
X011307Y021817D01*
X011053Y021817D01*
X010819Y021720D01*
X010680Y021581D01*
X010541Y021720D01*
X010307Y021817D01*
X010053Y021817D01*
X009819Y021720D01*
X009680Y021581D01*
X009541Y021720D01*
X009307Y021817D01*
X009053Y021817D01*
X008819Y021720D01*
X008680Y021581D01*
X008541Y021720D01*
X008307Y021817D01*
X008053Y021817D01*
X007819Y021720D01*
X007680Y021581D01*
X007541Y021720D01*
X007307Y021817D01*
X007053Y021817D01*
X006819Y021720D01*
X006680Y021581D01*
X006541Y021720D01*
X006307Y021817D01*
X006053Y021817D01*
X005819Y021720D01*
X005659Y021559D01*
X005645Y021577D01*
X005577Y021645D01*
X005500Y021702D01*
X005414Y021745D01*
X005323Y021775D01*
X005228Y021790D01*
X005198Y021790D01*
X005198Y021198D01*
X005162Y021198D01*
X005162Y021225D02*
X005198Y021225D01*
X005198Y021383D02*
X005162Y021383D01*
X005162Y021542D02*
X005198Y021542D01*
X005198Y021700D02*
X005162Y021700D01*
X005502Y021700D02*
X005799Y021700D01*
X006561Y021700D02*
X006799Y021700D01*
X007561Y021700D02*
X007799Y021700D01*
X008561Y021700D02*
X008799Y021700D01*
X009561Y021700D02*
X009799Y021700D01*
X010561Y021700D02*
X010799Y021700D01*
X011561Y021700D02*
X011799Y021700D01*
X012561Y021700D02*
X012799Y021700D01*
X013561Y021700D02*
X013799Y021700D01*
X014561Y021700D02*
X014799Y021700D01*
X015445Y021859D02*
X002665Y021859D01*
X002781Y021700D02*
X002502Y021700D01*
X003579Y021700D02*
X003799Y021700D01*
X004561Y021700D02*
X004858Y021700D01*
X004460Y016311D02*
X005900Y016311D01*
X005677Y016153D02*
X004683Y016153D01*
X004797Y015994D02*
X005563Y015994D01*
X005498Y015836D02*
X004862Y015836D01*
X004870Y015677D02*
X005490Y015677D01*
X005460Y015519D02*
X004860Y015519D01*
X004794Y015360D02*
X005327Y015360D01*
X005285Y015202D02*
X004677Y015202D01*
X004575Y015043D02*
X005285Y015043D01*
X005285Y014885D02*
X004575Y014885D01*
X004575Y014726D02*
X005285Y014726D01*
X005285Y014568D02*
X004575Y014568D01*
X004575Y014409D02*
X005285Y014409D01*
X005285Y014251D02*
X004575Y014251D01*
X004575Y014092D02*
X005285Y014092D01*
X005285Y013934D02*
X004575Y013934D01*
X004644Y013775D02*
X005285Y013775D01*
X005285Y013617D02*
X004802Y013617D01*
X004961Y013458D02*
X005285Y013458D01*
X005285Y013300D02*
X005119Y013300D01*
X005278Y013141D02*
X005285Y013141D01*
X004794Y012507D02*
X002500Y012507D01*
X002500Y012349D02*
X004953Y012349D01*
X005111Y012190D02*
X002500Y012190D01*
X002500Y012032D02*
X005270Y012032D01*
X005428Y011873D02*
X002500Y011873D01*
X002500Y011715D02*
X005587Y011715D01*
X005745Y011556D02*
X002500Y011556D01*
X002500Y011398D02*
X005904Y011398D01*
X004636Y012666D02*
X002500Y012666D01*
X002500Y012824D02*
X004477Y012824D01*
X004319Y012983D02*
X002500Y012983D01*
X002500Y013141D02*
X004160Y013141D01*
X004002Y013300D02*
X002500Y013300D01*
X002500Y013458D02*
X003844Y013458D01*
X003785Y013617D02*
X002500Y013617D01*
X002500Y013775D02*
X003785Y013775D01*
X003785Y013934D02*
X002500Y013934D01*
X002500Y014092D02*
X003785Y014092D01*
X003785Y014251D02*
X002500Y014251D01*
X002500Y014409D02*
X003785Y014409D01*
X003785Y014568D02*
X002500Y014568D01*
X002500Y014726D02*
X003785Y014726D01*
X003785Y014885D02*
X002500Y014885D01*
X002500Y015043D02*
X002915Y015043D01*
X002683Y015202D02*
X002500Y015202D01*
X003445Y015043D02*
X003785Y015043D01*
X003683Y015202D02*
X003677Y015202D01*
X003460Y016311D02*
X003900Y016311D01*
X006460Y016311D02*
X006900Y016311D01*
X014152Y019481D02*
X017610Y019481D01*
X017610Y019323D02*
X014311Y019323D01*
X014539Y019640D02*
X014821Y019640D01*
X014620Y019164D02*
X017610Y019164D01*
X017610Y019006D02*
X014840Y019006D01*
X014924Y018847D02*
X017610Y018847D01*
X017610Y018689D02*
X014950Y018689D01*
X014931Y018530D02*
X017610Y018530D01*
X017610Y018372D02*
X014857Y018372D01*
X014661Y018213D02*
X017610Y018213D01*
X017610Y019640D02*
X015539Y019640D01*
X015699Y019798D02*
X017562Y019798D01*
X016034Y019957D02*
X015777Y019957D01*
X015817Y020115D02*
X015835Y020115D01*
X015966Y019985D02*
X015966Y019985D01*
X015608Y021700D02*
X015561Y021700D01*
X006349Y004582D02*
X002500Y004582D01*
X002500Y004424D02*
X006066Y004424D01*
X005907Y004265D02*
X002500Y004265D01*
X002500Y004107D02*
X005818Y004107D01*
X005752Y003948D02*
X002500Y003948D01*
X002500Y003790D02*
X005720Y003790D01*
X005720Y003631D02*
X002500Y003631D01*
X002500Y003473D02*
X005727Y003473D01*
X005793Y003314D02*
X002500Y003314D01*
X002502Y003156D02*
X005858Y003156D01*
D21*
X007930Y005430D02*
X009180Y005430D01*
X012680Y004180D02*
X014680Y004180D01*
X015680Y005180D01*
X017180Y005180D01*
X018430Y006430D02*
X019680Y007680D01*
X019680Y014680D01*
X019180Y015180D01*
X014430Y018680D02*
X013730Y019380D01*
X004180Y019380D01*
X004180Y020180D01*
X008180Y014680D02*
X008180Y011680D01*
X009180Y011680D01*
X010680Y014180D02*
X013930Y014180D01*
X010680Y014180D02*
X010180Y014680D01*
X008180Y014680D01*
X012706Y006680D02*
X013180Y006680D01*
X013430Y006430D01*
X018430Y006430D01*
M02*
