%
M48
M72
T01C0.0236
T02C0.0276
T03C0.0320
T04C0.0354
T05C0.0394
T06C0.0400
T07C0.1181
T08C0.1260
%
T01
X6175Y3175
X6175Y5175
X7275Y11175
X4675Y13925
X4875Y14675
X7925Y18425
X8925Y18175
X11425Y17925
X16275Y15175
X17175Y14175
X19675Y15175
X19675Y16675
X19675Y10175
T02
X13675Y15175
X13675Y16175
X13425Y13925
X13425Y12925
X11925Y12925
X11925Y13925
X10675Y12775
X9675Y12775
X8425Y9659
X8425Y7691
X13425Y8691
X13425Y10659
X7675Y16925
X6675Y16925
X14175Y3925
X15175Y3925
X17175Y3175
X17175Y2175
T03
X15175Y5175
X14425Y5675
X15175Y6175
X12425Y7675
X11425Y7675
X10425Y7675
X9425Y7675
X9425Y10675
X10425Y10675
X11425Y10675
X12425Y10675
X11675Y15175
X10925Y15675
X11675Y16175
T04
X8175Y12675
X8175Y11175
X4175Y11175
X4175Y12675
X8675Y6175
X8675Y3675
X8675Y2175
X12675Y2175
X12675Y3675
X12675Y6175
T05
X12675Y4925
X8675Y4925
X15925Y8925
X15925Y9925
X15925Y10925
X15925Y11925
X16925Y11425
X16925Y10425
X16925Y9425
X16925Y8425
T06
X19675Y6175
X19675Y5175
X19675Y4175
X19675Y3175
X19675Y2175
X7675Y2175
X6675Y2175
X2675Y5425
X2675Y6425
X2675Y7425
X2675Y8425
X2675Y9425
X2675Y10425
X2675Y11425
X2675Y12425
X2675Y13425
X2675Y14425
X2675Y15425
X2675Y16425
X5425Y19675
X6425Y19675
X7425Y19675
X8425Y19675
X9425Y19675
X10425Y19675
X11425Y19675
X12425Y19675
X13425Y19675
X14425Y19675
X15425Y19675
X16425Y19675
X7175Y9925
X7175Y8925
X7175Y7925
X6175Y7925
X6175Y8925
X6175Y9925
X6675Y6175
X7675Y6175
T07
X2925Y2925
X2925Y18925
X18925Y18925
T08
X19425Y12425
X19425Y7925
M30
