G75*
G70*
%OFA0B0*%
%FSLAX24Y24*%
%IPPOS*%
%LPD*%
%AMOC8*
5,1,8,0,0,1.08239X$1,22.5*
%
%ADD10C,0.0000*%
%ADD11R,0.1020X0.0220*%
%ADD12R,0.0709X0.0710*%
%ADD13R,0.0710X0.0709*%
D10*
X003392Y011175D02*
X023392Y011175D01*
X023436Y011173D01*
X023479Y011167D01*
X023521Y011158D01*
X023563Y011145D01*
X023603Y011128D01*
X023642Y011108D01*
X023679Y011085D01*
X023713Y011058D01*
X023746Y011029D01*
X023775Y010996D01*
X023802Y010962D01*
X023825Y010925D01*
X023845Y010886D01*
X023862Y010846D01*
X023875Y010804D01*
X023884Y010762D01*
X023890Y010719D01*
X023892Y010675D01*
X023892Y001675D01*
X023894Y001631D01*
X023900Y001588D01*
X023909Y001546D01*
X023922Y001504D01*
X023939Y001464D01*
X023959Y001425D01*
X023982Y001388D01*
X024009Y001354D01*
X024038Y001321D01*
X024071Y001292D01*
X024105Y001265D01*
X024142Y001242D01*
X024181Y001222D01*
X024221Y001205D01*
X024263Y001192D01*
X024305Y001183D01*
X024348Y001177D01*
X024392Y001175D01*
X041392Y001175D01*
X041436Y001177D01*
X041479Y001183D01*
X041521Y001192D01*
X041563Y001205D01*
X041603Y001222D01*
X041642Y001242D01*
X041679Y001265D01*
X041713Y001292D01*
X041746Y001321D01*
X041775Y001354D01*
X041802Y001388D01*
X041825Y001425D01*
X041845Y001464D01*
X041862Y001504D01*
X041875Y001546D01*
X041884Y001588D01*
X041890Y001631D01*
X041892Y001675D01*
X041892Y031675D01*
X041890Y031719D01*
X041884Y031762D01*
X041875Y031804D01*
X041862Y031846D01*
X041845Y031886D01*
X041825Y031925D01*
X041802Y031962D01*
X041775Y031996D01*
X041746Y032029D01*
X041713Y032058D01*
X041679Y032085D01*
X041642Y032108D01*
X041603Y032128D01*
X041563Y032145D01*
X041521Y032158D01*
X041479Y032167D01*
X041436Y032173D01*
X041392Y032175D01*
X003392Y032175D01*
X003348Y032173D01*
X003305Y032167D01*
X003263Y032158D01*
X003221Y032145D01*
X003181Y032128D01*
X003142Y032108D01*
X003105Y032085D01*
X003071Y032058D01*
X003038Y032029D01*
X003009Y031996D01*
X002982Y031962D01*
X002959Y031925D01*
X002939Y031886D01*
X002922Y031846D01*
X002909Y031804D01*
X002900Y031762D01*
X002894Y031719D01*
X002892Y031675D01*
X002892Y011675D01*
X002894Y011631D01*
X002900Y011588D01*
X002909Y011546D01*
X002922Y011504D01*
X002939Y011464D01*
X002959Y011425D01*
X002982Y011388D01*
X003009Y011354D01*
X003038Y011321D01*
X003071Y011292D01*
X003105Y011265D01*
X003142Y011242D01*
X003181Y011222D01*
X003221Y011205D01*
X003263Y011192D01*
X003305Y011183D01*
X003348Y011177D01*
X003392Y011175D01*
X003842Y014175D02*
X003844Y014225D01*
X003850Y014275D01*
X003860Y014325D01*
X003873Y014373D01*
X003890Y014421D01*
X003911Y014467D01*
X003935Y014511D01*
X003963Y014553D01*
X003994Y014593D01*
X004028Y014630D01*
X004065Y014665D01*
X004104Y014696D01*
X004145Y014725D01*
X004189Y014750D01*
X004235Y014772D01*
X004282Y014790D01*
X004330Y014804D01*
X004379Y014815D01*
X004429Y014822D01*
X004479Y014825D01*
X004530Y014824D01*
X004580Y014819D01*
X004630Y014810D01*
X004678Y014798D01*
X004726Y014781D01*
X004772Y014761D01*
X004817Y014738D01*
X004860Y014711D01*
X004900Y014681D01*
X004938Y014648D01*
X004973Y014612D01*
X005006Y014573D01*
X005035Y014532D01*
X005061Y014489D01*
X005084Y014444D01*
X005103Y014397D01*
X005118Y014349D01*
X005130Y014300D01*
X005138Y014250D01*
X005142Y014200D01*
X005142Y014150D01*
X005138Y014100D01*
X005130Y014050D01*
X005118Y014001D01*
X005103Y013953D01*
X005084Y013906D01*
X005061Y013861D01*
X005035Y013818D01*
X005006Y013777D01*
X004973Y013738D01*
X004938Y013702D01*
X004900Y013669D01*
X004860Y013639D01*
X004817Y013612D01*
X004772Y013589D01*
X004726Y013569D01*
X004678Y013552D01*
X004630Y013540D01*
X004580Y013531D01*
X004530Y013526D01*
X004479Y013525D01*
X004429Y013528D01*
X004379Y013535D01*
X004330Y013546D01*
X004282Y013560D01*
X004235Y013578D01*
X004189Y013600D01*
X004145Y013625D01*
X004104Y013654D01*
X004065Y013685D01*
X004028Y013720D01*
X003994Y013757D01*
X003963Y013797D01*
X003935Y013839D01*
X003911Y013883D01*
X003890Y013929D01*
X003873Y013977D01*
X003860Y014025D01*
X003850Y014075D01*
X003844Y014125D01*
X003842Y014175D01*
X003762Y019175D02*
X003764Y019225D01*
X003770Y019275D01*
X003780Y019324D01*
X003794Y019372D01*
X003811Y019419D01*
X003832Y019464D01*
X003857Y019508D01*
X003885Y019549D01*
X003917Y019588D01*
X003951Y019625D01*
X003988Y019659D01*
X004028Y019689D01*
X004070Y019716D01*
X004114Y019740D01*
X004160Y019761D01*
X004207Y019777D01*
X004255Y019790D01*
X004305Y019799D01*
X004354Y019804D01*
X004405Y019805D01*
X004455Y019802D01*
X004504Y019795D01*
X004553Y019784D01*
X004601Y019769D01*
X004647Y019751D01*
X004692Y019729D01*
X004735Y019703D01*
X004776Y019674D01*
X004815Y019642D01*
X004851Y019607D01*
X004883Y019569D01*
X004913Y019529D01*
X004940Y019486D01*
X004963Y019442D01*
X004982Y019396D01*
X004998Y019348D01*
X005010Y019299D01*
X005018Y019250D01*
X005022Y019200D01*
X005022Y019150D01*
X005018Y019100D01*
X005010Y019051D01*
X004998Y019002D01*
X004982Y018954D01*
X004963Y018908D01*
X004940Y018864D01*
X004913Y018821D01*
X004883Y018781D01*
X004851Y018743D01*
X004815Y018708D01*
X004776Y018676D01*
X004735Y018647D01*
X004692Y018621D01*
X004647Y018599D01*
X004601Y018581D01*
X004553Y018566D01*
X004504Y018555D01*
X004455Y018548D01*
X004405Y018545D01*
X004354Y018546D01*
X004305Y018551D01*
X004255Y018560D01*
X004207Y018573D01*
X004160Y018589D01*
X004114Y018610D01*
X004070Y018634D01*
X004028Y018661D01*
X003988Y018691D01*
X003951Y018725D01*
X003917Y018762D01*
X003885Y018801D01*
X003857Y018842D01*
X003832Y018886D01*
X003811Y018931D01*
X003794Y018978D01*
X003780Y019026D01*
X003770Y019075D01*
X003764Y019125D01*
X003762Y019175D01*
X003762Y023675D02*
X003764Y023725D01*
X003770Y023775D01*
X003780Y023824D01*
X003794Y023872D01*
X003811Y023919D01*
X003832Y023964D01*
X003857Y024008D01*
X003885Y024049D01*
X003917Y024088D01*
X003951Y024125D01*
X003988Y024159D01*
X004028Y024189D01*
X004070Y024216D01*
X004114Y024240D01*
X004160Y024261D01*
X004207Y024277D01*
X004255Y024290D01*
X004305Y024299D01*
X004354Y024304D01*
X004405Y024305D01*
X004455Y024302D01*
X004504Y024295D01*
X004553Y024284D01*
X004601Y024269D01*
X004647Y024251D01*
X004692Y024229D01*
X004735Y024203D01*
X004776Y024174D01*
X004815Y024142D01*
X004851Y024107D01*
X004883Y024069D01*
X004913Y024029D01*
X004940Y023986D01*
X004963Y023942D01*
X004982Y023896D01*
X004998Y023848D01*
X005010Y023799D01*
X005018Y023750D01*
X005022Y023700D01*
X005022Y023650D01*
X005018Y023600D01*
X005010Y023551D01*
X004998Y023502D01*
X004982Y023454D01*
X004963Y023408D01*
X004940Y023364D01*
X004913Y023321D01*
X004883Y023281D01*
X004851Y023243D01*
X004815Y023208D01*
X004776Y023176D01*
X004735Y023147D01*
X004692Y023121D01*
X004647Y023099D01*
X004601Y023081D01*
X004553Y023066D01*
X004504Y023055D01*
X004455Y023048D01*
X004405Y023045D01*
X004354Y023046D01*
X004305Y023051D01*
X004255Y023060D01*
X004207Y023073D01*
X004160Y023089D01*
X004114Y023110D01*
X004070Y023134D01*
X004028Y023161D01*
X003988Y023191D01*
X003951Y023225D01*
X003917Y023262D01*
X003885Y023301D01*
X003857Y023342D01*
X003832Y023386D01*
X003811Y023431D01*
X003794Y023478D01*
X003780Y023526D01*
X003770Y023575D01*
X003764Y023625D01*
X003762Y023675D01*
X003752Y025675D02*
X003754Y025725D01*
X003760Y025775D01*
X003770Y025824D01*
X003783Y025873D01*
X003801Y025920D01*
X003822Y025966D01*
X003846Y026009D01*
X003874Y026051D01*
X003905Y026091D01*
X003939Y026128D01*
X003976Y026162D01*
X004016Y026193D01*
X004058Y026221D01*
X004101Y026245D01*
X004147Y026266D01*
X004194Y026284D01*
X004243Y026297D01*
X004292Y026307D01*
X004342Y026313D01*
X004392Y026315D01*
X004442Y026313D01*
X004492Y026307D01*
X004541Y026297D01*
X004590Y026284D01*
X004637Y026266D01*
X004683Y026245D01*
X004726Y026221D01*
X004768Y026193D01*
X004808Y026162D01*
X004845Y026128D01*
X004879Y026091D01*
X004910Y026051D01*
X004938Y026009D01*
X004962Y025966D01*
X004983Y025920D01*
X005001Y025873D01*
X005014Y025824D01*
X005024Y025775D01*
X005030Y025725D01*
X005032Y025675D01*
X005030Y025625D01*
X005024Y025575D01*
X005014Y025526D01*
X005001Y025477D01*
X004983Y025430D01*
X004962Y025384D01*
X004938Y025341D01*
X004910Y025299D01*
X004879Y025259D01*
X004845Y025222D01*
X004808Y025188D01*
X004768Y025157D01*
X004726Y025129D01*
X004683Y025105D01*
X004637Y025084D01*
X004590Y025066D01*
X004541Y025053D01*
X004492Y025043D01*
X004442Y025037D01*
X004392Y025035D01*
X004342Y025037D01*
X004292Y025043D01*
X004243Y025053D01*
X004194Y025066D01*
X004147Y025084D01*
X004101Y025105D01*
X004058Y025129D01*
X004016Y025157D01*
X003976Y025188D01*
X003939Y025222D01*
X003905Y025259D01*
X003874Y025299D01*
X003846Y025341D01*
X003822Y025384D01*
X003801Y025430D01*
X003783Y025477D01*
X003770Y025526D01*
X003760Y025575D01*
X003754Y025625D01*
X003752Y025675D01*
X003752Y029675D02*
X003754Y029725D01*
X003760Y029775D01*
X003770Y029824D01*
X003783Y029873D01*
X003801Y029920D01*
X003822Y029966D01*
X003846Y030009D01*
X003874Y030051D01*
X003905Y030091D01*
X003939Y030128D01*
X003976Y030162D01*
X004016Y030193D01*
X004058Y030221D01*
X004101Y030245D01*
X004147Y030266D01*
X004194Y030284D01*
X004243Y030297D01*
X004292Y030307D01*
X004342Y030313D01*
X004392Y030315D01*
X004442Y030313D01*
X004492Y030307D01*
X004541Y030297D01*
X004590Y030284D01*
X004637Y030266D01*
X004683Y030245D01*
X004726Y030221D01*
X004768Y030193D01*
X004808Y030162D01*
X004845Y030128D01*
X004879Y030091D01*
X004910Y030051D01*
X004938Y030009D01*
X004962Y029966D01*
X004983Y029920D01*
X005001Y029873D01*
X005014Y029824D01*
X005024Y029775D01*
X005030Y029725D01*
X005032Y029675D01*
X005030Y029625D01*
X005024Y029575D01*
X005014Y029526D01*
X005001Y029477D01*
X004983Y029430D01*
X004962Y029384D01*
X004938Y029341D01*
X004910Y029299D01*
X004879Y029259D01*
X004845Y029222D01*
X004808Y029188D01*
X004768Y029157D01*
X004726Y029129D01*
X004683Y029105D01*
X004637Y029084D01*
X004590Y029066D01*
X004541Y029053D01*
X004492Y029043D01*
X004442Y029037D01*
X004392Y029035D01*
X004342Y029037D01*
X004292Y029043D01*
X004243Y029053D01*
X004194Y029066D01*
X004147Y029084D01*
X004101Y029105D01*
X004058Y029129D01*
X004016Y029157D01*
X003976Y029188D01*
X003939Y029222D01*
X003905Y029259D01*
X003874Y029299D01*
X003846Y029341D01*
X003822Y029384D01*
X003801Y029430D01*
X003783Y029477D01*
X003770Y029526D01*
X003760Y029575D01*
X003754Y029625D01*
X003752Y029675D01*
D11*
X025242Y004575D03*
X025242Y004175D03*
X025242Y003775D03*
X026542Y003775D03*
X026542Y004175D03*
X026542Y004575D03*
D12*
X026982Y006175D03*
X025802Y006175D03*
X025302Y002175D03*
X026482Y002175D03*
D13*
X026892Y007585D03*
X026892Y008765D03*
X028892Y008765D03*
X028892Y007585D03*
X024892Y007585D03*
X024892Y008765D03*
M02*
