G75*
G70*
%OFA0B0*%
%FSLAX24Y24*%
%IPPOS*%
%LPD*%
%AMOC8*
5,1,8,0,0,1.08239X$1,22.5*
%
%ADD10C,0.0000*%
%ADD11C,0.0040*%
%ADD12C,0.0090*%
%ADD13C,0.0100*%
D10*
X003392Y011175D02*
X023392Y011175D01*
X023436Y011173D01*
X023479Y011167D01*
X023521Y011158D01*
X023563Y011145D01*
X023603Y011128D01*
X023642Y011108D01*
X023679Y011085D01*
X023713Y011058D01*
X023746Y011029D01*
X023775Y010996D01*
X023802Y010962D01*
X023825Y010925D01*
X023845Y010886D01*
X023862Y010846D01*
X023875Y010804D01*
X023884Y010762D01*
X023890Y010719D01*
X023892Y010675D01*
X023892Y001675D01*
X023894Y001631D01*
X023900Y001588D01*
X023909Y001546D01*
X023922Y001504D01*
X023939Y001464D01*
X023959Y001425D01*
X023982Y001388D01*
X024009Y001354D01*
X024038Y001321D01*
X024071Y001292D01*
X024105Y001265D01*
X024142Y001242D01*
X024181Y001222D01*
X024221Y001205D01*
X024263Y001192D01*
X024305Y001183D01*
X024348Y001177D01*
X024392Y001175D01*
X041392Y001175D01*
X041436Y001177D01*
X041479Y001183D01*
X041521Y001192D01*
X041563Y001205D01*
X041603Y001222D01*
X041642Y001242D01*
X041679Y001265D01*
X041713Y001292D01*
X041746Y001321D01*
X041775Y001354D01*
X041802Y001388D01*
X041825Y001425D01*
X041845Y001464D01*
X041862Y001504D01*
X041875Y001546D01*
X041884Y001588D01*
X041890Y001631D01*
X041892Y001675D01*
X041892Y031675D01*
X041890Y031719D01*
X041884Y031762D01*
X041875Y031804D01*
X041862Y031846D01*
X041845Y031886D01*
X041825Y031925D01*
X041802Y031962D01*
X041775Y031996D01*
X041746Y032029D01*
X041713Y032058D01*
X041679Y032085D01*
X041642Y032108D01*
X041603Y032128D01*
X041563Y032145D01*
X041521Y032158D01*
X041479Y032167D01*
X041436Y032173D01*
X041392Y032175D01*
X003392Y032175D01*
X003348Y032173D01*
X003305Y032167D01*
X003263Y032158D01*
X003221Y032145D01*
X003181Y032128D01*
X003142Y032108D01*
X003105Y032085D01*
X003071Y032058D01*
X003038Y032029D01*
X003009Y031996D01*
X002982Y031962D01*
X002959Y031925D01*
X002939Y031886D01*
X002922Y031846D01*
X002909Y031804D01*
X002900Y031762D01*
X002894Y031719D01*
X002892Y031675D01*
X002892Y011675D01*
X002894Y011631D01*
X002900Y011588D01*
X002909Y011546D01*
X002922Y011504D01*
X002939Y011464D01*
X002959Y011425D01*
X002982Y011388D01*
X003009Y011354D01*
X003038Y011321D01*
X003071Y011292D01*
X003105Y011265D01*
X003142Y011242D01*
X003181Y011222D01*
X003221Y011205D01*
X003263Y011192D01*
X003305Y011183D01*
X003348Y011177D01*
X003392Y011175D01*
X003842Y014175D02*
X003844Y014225D01*
X003850Y014275D01*
X003860Y014325D01*
X003873Y014373D01*
X003890Y014421D01*
X003911Y014467D01*
X003935Y014511D01*
X003963Y014553D01*
X003994Y014593D01*
X004028Y014630D01*
X004065Y014665D01*
X004104Y014696D01*
X004145Y014725D01*
X004189Y014750D01*
X004235Y014772D01*
X004282Y014790D01*
X004330Y014804D01*
X004379Y014815D01*
X004429Y014822D01*
X004479Y014825D01*
X004530Y014824D01*
X004580Y014819D01*
X004630Y014810D01*
X004678Y014798D01*
X004726Y014781D01*
X004772Y014761D01*
X004817Y014738D01*
X004860Y014711D01*
X004900Y014681D01*
X004938Y014648D01*
X004973Y014612D01*
X005006Y014573D01*
X005035Y014532D01*
X005061Y014489D01*
X005084Y014444D01*
X005103Y014397D01*
X005118Y014349D01*
X005130Y014300D01*
X005138Y014250D01*
X005142Y014200D01*
X005142Y014150D01*
X005138Y014100D01*
X005130Y014050D01*
X005118Y014001D01*
X005103Y013953D01*
X005084Y013906D01*
X005061Y013861D01*
X005035Y013818D01*
X005006Y013777D01*
X004973Y013738D01*
X004938Y013702D01*
X004900Y013669D01*
X004860Y013639D01*
X004817Y013612D01*
X004772Y013589D01*
X004726Y013569D01*
X004678Y013552D01*
X004630Y013540D01*
X004580Y013531D01*
X004530Y013526D01*
X004479Y013525D01*
X004429Y013528D01*
X004379Y013535D01*
X004330Y013546D01*
X004282Y013560D01*
X004235Y013578D01*
X004189Y013600D01*
X004145Y013625D01*
X004104Y013654D01*
X004065Y013685D01*
X004028Y013720D01*
X003994Y013757D01*
X003963Y013797D01*
X003935Y013839D01*
X003911Y013883D01*
X003890Y013929D01*
X003873Y013977D01*
X003860Y014025D01*
X003850Y014075D01*
X003844Y014125D01*
X003842Y014175D01*
X003762Y019175D02*
X003764Y019225D01*
X003770Y019275D01*
X003780Y019324D01*
X003794Y019372D01*
X003811Y019419D01*
X003832Y019464D01*
X003857Y019508D01*
X003885Y019549D01*
X003917Y019588D01*
X003951Y019625D01*
X003988Y019659D01*
X004028Y019689D01*
X004070Y019716D01*
X004114Y019740D01*
X004160Y019761D01*
X004207Y019777D01*
X004255Y019790D01*
X004305Y019799D01*
X004354Y019804D01*
X004405Y019805D01*
X004455Y019802D01*
X004504Y019795D01*
X004553Y019784D01*
X004601Y019769D01*
X004647Y019751D01*
X004692Y019729D01*
X004735Y019703D01*
X004776Y019674D01*
X004815Y019642D01*
X004851Y019607D01*
X004883Y019569D01*
X004913Y019529D01*
X004940Y019486D01*
X004963Y019442D01*
X004982Y019396D01*
X004998Y019348D01*
X005010Y019299D01*
X005018Y019250D01*
X005022Y019200D01*
X005022Y019150D01*
X005018Y019100D01*
X005010Y019051D01*
X004998Y019002D01*
X004982Y018954D01*
X004963Y018908D01*
X004940Y018864D01*
X004913Y018821D01*
X004883Y018781D01*
X004851Y018743D01*
X004815Y018708D01*
X004776Y018676D01*
X004735Y018647D01*
X004692Y018621D01*
X004647Y018599D01*
X004601Y018581D01*
X004553Y018566D01*
X004504Y018555D01*
X004455Y018548D01*
X004405Y018545D01*
X004354Y018546D01*
X004305Y018551D01*
X004255Y018560D01*
X004207Y018573D01*
X004160Y018589D01*
X004114Y018610D01*
X004070Y018634D01*
X004028Y018661D01*
X003988Y018691D01*
X003951Y018725D01*
X003917Y018762D01*
X003885Y018801D01*
X003857Y018842D01*
X003832Y018886D01*
X003811Y018931D01*
X003794Y018978D01*
X003780Y019026D01*
X003770Y019075D01*
X003764Y019125D01*
X003762Y019175D01*
X003762Y023675D02*
X003764Y023725D01*
X003770Y023775D01*
X003780Y023824D01*
X003794Y023872D01*
X003811Y023919D01*
X003832Y023964D01*
X003857Y024008D01*
X003885Y024049D01*
X003917Y024088D01*
X003951Y024125D01*
X003988Y024159D01*
X004028Y024189D01*
X004070Y024216D01*
X004114Y024240D01*
X004160Y024261D01*
X004207Y024277D01*
X004255Y024290D01*
X004305Y024299D01*
X004354Y024304D01*
X004405Y024305D01*
X004455Y024302D01*
X004504Y024295D01*
X004553Y024284D01*
X004601Y024269D01*
X004647Y024251D01*
X004692Y024229D01*
X004735Y024203D01*
X004776Y024174D01*
X004815Y024142D01*
X004851Y024107D01*
X004883Y024069D01*
X004913Y024029D01*
X004940Y023986D01*
X004963Y023942D01*
X004982Y023896D01*
X004998Y023848D01*
X005010Y023799D01*
X005018Y023750D01*
X005022Y023700D01*
X005022Y023650D01*
X005018Y023600D01*
X005010Y023551D01*
X004998Y023502D01*
X004982Y023454D01*
X004963Y023408D01*
X004940Y023364D01*
X004913Y023321D01*
X004883Y023281D01*
X004851Y023243D01*
X004815Y023208D01*
X004776Y023176D01*
X004735Y023147D01*
X004692Y023121D01*
X004647Y023099D01*
X004601Y023081D01*
X004553Y023066D01*
X004504Y023055D01*
X004455Y023048D01*
X004405Y023045D01*
X004354Y023046D01*
X004305Y023051D01*
X004255Y023060D01*
X004207Y023073D01*
X004160Y023089D01*
X004114Y023110D01*
X004070Y023134D01*
X004028Y023161D01*
X003988Y023191D01*
X003951Y023225D01*
X003917Y023262D01*
X003885Y023301D01*
X003857Y023342D01*
X003832Y023386D01*
X003811Y023431D01*
X003794Y023478D01*
X003780Y023526D01*
X003770Y023575D01*
X003764Y023625D01*
X003762Y023675D01*
X003752Y025675D02*
X003754Y025725D01*
X003760Y025775D01*
X003770Y025824D01*
X003783Y025873D01*
X003801Y025920D01*
X003822Y025966D01*
X003846Y026009D01*
X003874Y026051D01*
X003905Y026091D01*
X003939Y026128D01*
X003976Y026162D01*
X004016Y026193D01*
X004058Y026221D01*
X004101Y026245D01*
X004147Y026266D01*
X004194Y026284D01*
X004243Y026297D01*
X004292Y026307D01*
X004342Y026313D01*
X004392Y026315D01*
X004442Y026313D01*
X004492Y026307D01*
X004541Y026297D01*
X004590Y026284D01*
X004637Y026266D01*
X004683Y026245D01*
X004726Y026221D01*
X004768Y026193D01*
X004808Y026162D01*
X004845Y026128D01*
X004879Y026091D01*
X004910Y026051D01*
X004938Y026009D01*
X004962Y025966D01*
X004983Y025920D01*
X005001Y025873D01*
X005014Y025824D01*
X005024Y025775D01*
X005030Y025725D01*
X005032Y025675D01*
X005030Y025625D01*
X005024Y025575D01*
X005014Y025526D01*
X005001Y025477D01*
X004983Y025430D01*
X004962Y025384D01*
X004938Y025341D01*
X004910Y025299D01*
X004879Y025259D01*
X004845Y025222D01*
X004808Y025188D01*
X004768Y025157D01*
X004726Y025129D01*
X004683Y025105D01*
X004637Y025084D01*
X004590Y025066D01*
X004541Y025053D01*
X004492Y025043D01*
X004442Y025037D01*
X004392Y025035D01*
X004342Y025037D01*
X004292Y025043D01*
X004243Y025053D01*
X004194Y025066D01*
X004147Y025084D01*
X004101Y025105D01*
X004058Y025129D01*
X004016Y025157D01*
X003976Y025188D01*
X003939Y025222D01*
X003905Y025259D01*
X003874Y025299D01*
X003846Y025341D01*
X003822Y025384D01*
X003801Y025430D01*
X003783Y025477D01*
X003770Y025526D01*
X003760Y025575D01*
X003754Y025625D01*
X003752Y025675D01*
X003752Y029675D02*
X003754Y029725D01*
X003760Y029775D01*
X003770Y029824D01*
X003783Y029873D01*
X003801Y029920D01*
X003822Y029966D01*
X003846Y030009D01*
X003874Y030051D01*
X003905Y030091D01*
X003939Y030128D01*
X003976Y030162D01*
X004016Y030193D01*
X004058Y030221D01*
X004101Y030245D01*
X004147Y030266D01*
X004194Y030284D01*
X004243Y030297D01*
X004292Y030307D01*
X004342Y030313D01*
X004392Y030315D01*
X004442Y030313D01*
X004492Y030307D01*
X004541Y030297D01*
X004590Y030284D01*
X004637Y030266D01*
X004683Y030245D01*
X004726Y030221D01*
X004768Y030193D01*
X004808Y030162D01*
X004845Y030128D01*
X004879Y030091D01*
X004910Y030051D01*
X004938Y030009D01*
X004962Y029966D01*
X004983Y029920D01*
X005001Y029873D01*
X005014Y029824D01*
X005024Y029775D01*
X005030Y029725D01*
X005032Y029675D01*
X005030Y029625D01*
X005024Y029575D01*
X005014Y029526D01*
X005001Y029477D01*
X004983Y029430D01*
X004962Y029384D01*
X004938Y029341D01*
X004910Y029299D01*
X004879Y029259D01*
X004845Y029222D01*
X004808Y029188D01*
X004768Y029157D01*
X004726Y029129D01*
X004683Y029105D01*
X004637Y029084D01*
X004590Y029066D01*
X004541Y029053D01*
X004492Y029043D01*
X004442Y029037D01*
X004392Y029035D01*
X004342Y029037D01*
X004292Y029043D01*
X004243Y029053D01*
X004194Y029066D01*
X004147Y029084D01*
X004101Y029105D01*
X004058Y029129D01*
X004016Y029157D01*
X003976Y029188D01*
X003939Y029222D01*
X003905Y029259D01*
X003874Y029299D01*
X003846Y029341D01*
X003822Y029384D01*
X003801Y029430D01*
X003783Y029477D01*
X003770Y029526D01*
X003760Y029575D01*
X003754Y029625D01*
X003752Y029675D01*
D11*
X005997Y016365D02*
X005997Y016305D01*
X005997Y016185D02*
X005997Y015945D01*
X006057Y015945D02*
X005937Y015945D01*
X005812Y016005D02*
X005812Y016125D01*
X005752Y016185D01*
X005631Y016185D01*
X005571Y016125D01*
X005571Y016065D01*
X005812Y016065D01*
X005812Y016005D02*
X005752Y015945D01*
X005631Y015945D01*
X005443Y015945D02*
X005323Y015945D01*
X005383Y015945D02*
X005383Y016305D01*
X005443Y016305D01*
X005198Y016125D02*
X005138Y016185D01*
X004958Y016185D01*
X004958Y016305D02*
X004958Y015945D01*
X005138Y015945D01*
X005198Y016005D01*
X005198Y016125D01*
X004829Y015885D02*
X004589Y015885D01*
X004341Y015945D02*
X004221Y016185D01*
X004093Y016245D02*
X004033Y016305D01*
X003913Y016305D01*
X003853Y016245D01*
X003853Y016185D01*
X004093Y015945D01*
X003853Y015945D01*
X003724Y015945D02*
X003664Y015945D01*
X003664Y016005D01*
X003724Y016005D01*
X003724Y015945D01*
X003540Y016005D02*
X003300Y016245D01*
X003300Y016005D01*
X003360Y015945D01*
X003480Y015945D01*
X003540Y016005D01*
X003540Y016245D01*
X003480Y016305D01*
X003360Y016305D01*
X003300Y016245D01*
X003791Y015555D02*
X003911Y015495D01*
X004031Y015375D01*
X003851Y015375D01*
X003791Y015315D01*
X003791Y015255D01*
X003851Y015195D01*
X003971Y015195D01*
X004031Y015255D01*
X004031Y015375D01*
X004160Y015315D02*
X004220Y015375D01*
X004280Y015375D01*
X004220Y015375D02*
X004160Y015435D01*
X004160Y015495D01*
X004220Y015555D01*
X004340Y015555D01*
X004400Y015495D01*
X004524Y015435D02*
X004524Y015375D01*
X004584Y015375D01*
X004584Y015435D01*
X004524Y015435D01*
X004524Y015255D02*
X004524Y015195D01*
X004584Y015195D01*
X004584Y015255D01*
X004524Y015255D01*
X004400Y015255D02*
X004340Y015195D01*
X004220Y015195D01*
X004160Y015255D01*
X004160Y015315D01*
X004712Y015195D02*
X004952Y015195D01*
X004832Y015195D02*
X004832Y015555D01*
X004952Y015435D01*
X005080Y015195D02*
X005321Y015195D01*
X005200Y015195D02*
X005200Y015555D01*
X005321Y015435D01*
X005817Y015375D02*
X006057Y015375D01*
X005877Y015555D01*
X005877Y015195D01*
X006185Y015195D02*
X006425Y015195D01*
X006305Y015195D02*
X006305Y015555D01*
X006425Y015435D01*
X006554Y015495D02*
X006794Y015255D01*
X006734Y015195D01*
X006614Y015195D01*
X006554Y015255D01*
X006554Y015495D01*
X006614Y015555D01*
X006734Y015555D01*
X006794Y015495D01*
X006794Y015255D01*
X006922Y015195D02*
X007162Y015195D01*
X006922Y015435D01*
X006922Y015495D01*
X006982Y015555D01*
X007102Y015555D01*
X007162Y015495D01*
X007290Y015555D02*
X007530Y015195D01*
X007659Y015195D02*
X007899Y015195D01*
X007659Y015435D01*
X007659Y015495D01*
X007719Y015555D01*
X007839Y015555D01*
X007899Y015495D01*
X008027Y015495D02*
X008267Y015255D01*
X008207Y015195D01*
X008087Y015195D01*
X008027Y015255D01*
X008027Y015495D01*
X008087Y015555D01*
X008207Y015555D01*
X008267Y015495D01*
X008267Y015255D01*
X008395Y015555D02*
X008635Y015195D01*
X008763Y015255D02*
X008824Y015195D01*
X008944Y015195D01*
X009004Y015255D01*
X008763Y015495D01*
X008763Y015255D01*
X008763Y015495D02*
X008824Y015555D01*
X008944Y015555D01*
X009004Y015495D01*
X009004Y015255D01*
X009132Y015195D02*
X009372Y015195D01*
X009252Y015195D02*
X009252Y015555D01*
X009372Y015435D01*
X009372Y015945D02*
X009372Y016305D01*
X009132Y016305D01*
X009004Y016305D02*
X009004Y015945D01*
X008763Y015945D01*
X008635Y016005D02*
X008575Y015945D01*
X008455Y015945D01*
X008395Y016005D01*
X008267Y015945D02*
X008027Y015945D01*
X008147Y015945D02*
X008147Y016305D01*
X008267Y016185D01*
X008395Y016245D02*
X008455Y016305D01*
X008575Y016305D01*
X008635Y016245D01*
X008635Y016005D01*
X009252Y016125D02*
X009372Y016125D01*
X007899Y016005D02*
X007659Y016245D01*
X007659Y016005D01*
X007719Y015945D01*
X007839Y015945D01*
X007899Y016005D01*
X007899Y016245D01*
X007839Y016305D01*
X007719Y016305D01*
X007659Y016245D01*
X007530Y016245D02*
X007470Y016305D01*
X007350Y016305D01*
X007290Y016245D01*
X007530Y016005D01*
X007470Y015945D01*
X007350Y015945D01*
X007290Y016005D01*
X007290Y016245D01*
X007530Y016245D02*
X007530Y016005D01*
X007162Y015885D02*
X006922Y015885D01*
X006794Y015945D02*
X006614Y015945D01*
X006554Y016005D01*
X006614Y016065D01*
X006734Y016065D01*
X006794Y016125D01*
X006734Y016185D01*
X006554Y016185D01*
X006425Y016125D02*
X006365Y016185D01*
X006245Y016185D01*
X006185Y016125D01*
X006185Y015945D01*
X006425Y015945D02*
X006425Y016305D01*
X006057Y016185D02*
X005997Y016185D01*
X004461Y016185D02*
X004341Y015945D01*
X026574Y007055D02*
X026574Y006695D01*
X026755Y006695D01*
X026815Y006755D01*
X026815Y006875D01*
X026755Y006935D01*
X026574Y006935D01*
X026940Y006695D02*
X027060Y006695D01*
X027000Y006695D02*
X027000Y007055D01*
X027060Y007055D01*
X027188Y006875D02*
X027188Y006815D01*
X027428Y006815D01*
X027428Y006755D02*
X027428Y006875D01*
X027368Y006935D01*
X027248Y006935D01*
X027188Y006875D01*
X027248Y006695D02*
X027368Y006695D01*
X027428Y006755D01*
X027554Y006695D02*
X027674Y006695D01*
X027614Y006695D02*
X027614Y006935D01*
X027674Y006935D01*
X027614Y007055D02*
X027614Y007115D01*
X027802Y006875D02*
X027802Y006695D01*
X027802Y006875D02*
X027862Y006935D01*
X027982Y006935D01*
X028042Y006875D01*
X028170Y006935D02*
X028351Y006935D01*
X028411Y006875D01*
X028351Y006815D01*
X028231Y006815D01*
X028170Y006755D01*
X028231Y006695D01*
X028411Y006695D01*
X028539Y006635D02*
X028779Y006635D01*
X028907Y006755D02*
X028967Y006695D01*
X029087Y006695D01*
X029147Y006755D01*
X028907Y006995D01*
X028907Y006755D01*
X028907Y006995D02*
X028967Y007055D01*
X029087Y007055D01*
X029147Y006995D01*
X029147Y006755D01*
X029275Y006755D02*
X029335Y006695D01*
X029456Y006695D01*
X029516Y006755D01*
X029275Y006995D01*
X029275Y006755D01*
X029275Y006995D02*
X029335Y007055D01*
X029456Y007055D01*
X029516Y006995D01*
X029516Y006755D01*
X029644Y006695D02*
X029884Y006695D01*
X029764Y006695D02*
X029764Y007055D01*
X029884Y006935D01*
X030012Y006995D02*
X030072Y007055D01*
X030192Y007055D01*
X030252Y006995D01*
X030252Y006755D01*
X030192Y006695D01*
X030072Y006695D01*
X030012Y006755D01*
X030380Y006695D02*
X030621Y006695D01*
X030621Y007055D01*
X030749Y007055D02*
X030989Y007055D01*
X030989Y006695D01*
X030989Y006875D02*
X030869Y006875D01*
X031117Y007055D02*
X031357Y006695D01*
X031485Y006815D02*
X031725Y006815D01*
X031725Y006755D02*
X031725Y006875D01*
X031665Y006935D01*
X031545Y006935D01*
X031485Y006875D01*
X031485Y006815D01*
X031545Y006695D02*
X031665Y006695D01*
X031725Y006755D01*
X031851Y006695D02*
X031971Y006695D01*
X031911Y006695D02*
X031911Y007055D01*
X031971Y007055D01*
X032099Y006875D02*
X032099Y006755D01*
X032159Y006695D01*
X032339Y006695D01*
X032339Y006575D02*
X032339Y006935D01*
X032159Y006935D01*
X032099Y006875D01*
X032466Y006935D02*
X032526Y006935D01*
X032646Y006815D01*
X032646Y006695D02*
X032646Y006935D01*
X032774Y006875D02*
X032774Y006695D01*
X032955Y006695D01*
X033015Y006755D01*
X032955Y006815D01*
X032774Y006815D01*
X032774Y006875D02*
X032834Y006935D01*
X032955Y006935D01*
X033143Y006875D02*
X033143Y006695D01*
X033263Y006695D02*
X033263Y006875D01*
X033203Y006935D01*
X033143Y006875D01*
X033263Y006875D02*
X033323Y006935D01*
X033383Y006935D01*
X033383Y006695D01*
X033511Y006815D02*
X033751Y006815D01*
X033751Y006755D02*
X033751Y006875D01*
X033691Y006935D01*
X033571Y006935D01*
X033511Y006875D01*
X033511Y006815D01*
X033571Y006695D02*
X033691Y006695D01*
X033751Y006755D01*
X033879Y006935D02*
X033999Y006695D01*
X034120Y006935D01*
X034248Y006875D02*
X034248Y006815D01*
X034488Y006815D01*
X034488Y006755D02*
X034488Y006875D01*
X034428Y006935D01*
X034308Y006935D01*
X034248Y006875D01*
X034308Y006695D02*
X034428Y006695D01*
X034488Y006755D01*
X034613Y006695D02*
X034673Y006755D01*
X034673Y006995D01*
X034733Y006935D02*
X034613Y006935D01*
X034862Y006935D02*
X035042Y006935D01*
X035102Y006875D01*
X035042Y006815D01*
X034922Y006815D01*
X034862Y006755D01*
X034922Y006695D01*
X035102Y006695D01*
X035470Y006695D02*
X035230Y007055D01*
X035598Y006875D02*
X035598Y006695D01*
X035718Y006695D02*
X035718Y006875D01*
X035658Y006935D01*
X035598Y006875D01*
X035718Y006875D02*
X035778Y006935D01*
X035838Y006935D01*
X035838Y006695D01*
X035966Y006755D02*
X035966Y006875D01*
X036026Y006935D01*
X036147Y006935D01*
X036207Y006875D01*
X036207Y006755D01*
X036147Y006695D01*
X036026Y006695D01*
X035966Y006755D01*
X036335Y006695D02*
X036515Y006695D01*
X036575Y006755D01*
X036575Y006875D01*
X036515Y006935D01*
X036335Y006935D01*
X036699Y006755D02*
X036699Y006695D01*
X036759Y006695D01*
X036759Y006755D01*
X036699Y006755D01*
X036887Y006755D02*
X036887Y006875D01*
X036947Y006935D01*
X037127Y006935D01*
X037127Y007055D02*
X037127Y006695D01*
X036947Y006695D01*
X036887Y006755D01*
X037256Y006695D02*
X037256Y006935D01*
X037496Y006935D02*
X037496Y006755D01*
X037436Y006695D01*
X037256Y006695D01*
X037624Y006695D02*
X037624Y006875D01*
X037684Y006935D01*
X037804Y006935D01*
X037864Y006875D01*
X037990Y006935D02*
X038110Y006935D01*
X038050Y006995D02*
X038050Y006755D01*
X037990Y006695D01*
X037864Y006695D02*
X037864Y007055D01*
X038295Y007055D02*
X038295Y007115D01*
X038295Y006935D02*
X038295Y006695D01*
X038355Y006695D02*
X038235Y006695D01*
X038295Y006935D02*
X038355Y006935D01*
X038483Y006935D02*
X038483Y006635D01*
X038543Y006575D01*
X038603Y006575D01*
X038663Y006695D02*
X038483Y006695D01*
X038663Y006695D02*
X038723Y006755D01*
X038723Y006875D01*
X038663Y006935D01*
X038483Y006935D01*
X038852Y007055D02*
X039092Y006695D01*
X039460Y006695D02*
X039220Y007055D01*
X039584Y006935D02*
X039584Y006875D01*
X039644Y006875D01*
X039644Y006935D01*
X039584Y006935D01*
X039584Y006755D02*
X039584Y006695D01*
X039644Y006695D01*
X039644Y006755D01*
X039584Y006755D01*
X039772Y006755D02*
X039832Y006695D01*
X040013Y006695D01*
X040013Y006575D02*
X040013Y006935D01*
X039832Y006935D01*
X039772Y006875D01*
X039772Y006755D01*
X040138Y006695D02*
X040198Y006755D01*
X040198Y006995D01*
X040258Y006935D02*
X040138Y006935D01*
X040384Y006935D02*
X040504Y006935D01*
X040444Y006995D02*
X040444Y006755D01*
X040384Y006695D01*
X040632Y006695D02*
X040632Y006875D01*
X040692Y006935D01*
X040812Y006935D01*
X040872Y006875D01*
X040872Y007055D02*
X040872Y006695D01*
X028042Y006695D02*
X028042Y007055D01*
D12*
X029320Y006279D02*
X029767Y005832D01*
X029655Y005720D01*
X029432Y005720D01*
X029320Y005832D01*
X029320Y006279D01*
X029432Y006391D01*
X029655Y006391D01*
X029767Y006279D01*
X029767Y005832D01*
X030005Y005832D02*
X030005Y005720D01*
X030117Y005720D01*
X030117Y005832D01*
X030005Y005832D01*
X030369Y005720D02*
X030817Y005720D01*
X030593Y005720D02*
X030593Y006391D01*
X030817Y006167D01*
X031069Y006167D02*
X031293Y005720D01*
X031516Y006167D01*
X032469Y006167D02*
X032804Y006167D01*
X032916Y006055D01*
X032916Y005832D01*
X032804Y005720D01*
X032469Y005720D01*
X032469Y006391D01*
X033271Y006391D02*
X033271Y005720D01*
X033382Y005720D02*
X033159Y005720D01*
X033635Y005944D02*
X033635Y006055D01*
X033747Y006167D01*
X033971Y006167D01*
X034082Y006055D01*
X034082Y005832D01*
X033971Y005720D01*
X033747Y005720D01*
X033635Y005944D02*
X034082Y005944D01*
X034325Y005720D02*
X034549Y005720D01*
X034437Y005720D02*
X034437Y006167D01*
X034549Y006167D01*
X034437Y006391D02*
X034437Y006502D01*
X034802Y006055D02*
X034802Y005720D01*
X034802Y006055D02*
X034913Y006167D01*
X035137Y006167D01*
X035249Y006055D01*
X035501Y006167D02*
X035837Y006167D01*
X035948Y006055D01*
X035837Y005944D01*
X035613Y005944D01*
X035501Y005832D01*
X035613Y005720D01*
X035948Y005720D01*
X035249Y005720D02*
X035249Y006391D01*
X036901Y006279D02*
X036901Y005832D01*
X037013Y005720D01*
X037236Y005720D01*
X037348Y005832D01*
X036901Y006279D01*
X037013Y006391D01*
X037236Y006391D01*
X037348Y006279D01*
X037348Y005832D01*
X037601Y005832D02*
X037601Y006279D01*
X038048Y005832D01*
X037936Y005720D01*
X037712Y005720D01*
X037601Y005832D01*
X038048Y005832D02*
X038048Y006279D01*
X037936Y006391D01*
X037712Y006391D01*
X037601Y006279D01*
X038301Y005720D02*
X038748Y005720D01*
X038524Y005720D02*
X038524Y006391D01*
X038748Y006167D01*
X039000Y006279D02*
X039112Y006391D01*
X039336Y006391D01*
X039447Y006279D01*
X039447Y005832D01*
X039336Y005720D01*
X039112Y005720D01*
X039000Y005832D01*
X039700Y005720D02*
X040147Y005720D01*
X040147Y006391D01*
X040400Y006391D02*
X040847Y006391D01*
X040847Y005720D01*
X040847Y006055D02*
X040623Y006055D01*
X033382Y006391D02*
X033271Y006391D01*
D13*
X033187Y011175D02*
X034456Y011175D01*
X035046Y011175D02*
X036315Y011175D01*
X036905Y011175D02*
X038174Y011175D01*
X038764Y011175D02*
X040033Y011175D01*
X040623Y011175D02*
X041892Y011175D01*
X032597Y011175D02*
X031328Y011175D01*
X030738Y011175D02*
X029469Y011175D01*
X028879Y011175D02*
X027610Y011175D01*
X027020Y011175D02*
X025751Y011175D01*
X025160Y011175D02*
X023892Y011175D01*
M02*
