G75*
G70*
%OFA0B0*%
%FSLAX24Y24*%
%IPPOS*%
%LPD*%
%AMOC8*
5,1,8,0,0,1.08239X$1,22.5*
%
%ADD10C,0.0000*%
%ADD11C,0.0050*%
%ADD12C,0.0200*%
%ADD13C,0.0040*%
%ADD14C,0.0070*%
%ADD15C,0.0100*%
%ADD16C,0.0080*%
%ADD17C,0.0300*%
%ADD18C,0.0060*%
%ADD19C,0.0020*%
%ADD20R,0.0350X0.0500*%
%ADD21C,0.0030*%
D10*
X003392Y011175D02*
X023392Y011175D01*
X023436Y011173D01*
X023479Y011167D01*
X023521Y011158D01*
X023563Y011145D01*
X023603Y011128D01*
X023642Y011108D01*
X023679Y011085D01*
X023713Y011058D01*
X023746Y011029D01*
X023775Y010996D01*
X023802Y010962D01*
X023825Y010925D01*
X023845Y010886D01*
X023862Y010846D01*
X023875Y010804D01*
X023884Y010762D01*
X023890Y010719D01*
X023892Y010675D01*
X023892Y001675D01*
X023894Y001631D01*
X023900Y001588D01*
X023909Y001546D01*
X023922Y001504D01*
X023939Y001464D01*
X023959Y001425D01*
X023982Y001388D01*
X024009Y001354D01*
X024038Y001321D01*
X024071Y001292D01*
X024105Y001265D01*
X024142Y001242D01*
X024181Y001222D01*
X024221Y001205D01*
X024263Y001192D01*
X024305Y001183D01*
X024348Y001177D01*
X024392Y001175D01*
X041392Y001175D01*
X041436Y001177D01*
X041479Y001183D01*
X041521Y001192D01*
X041563Y001205D01*
X041603Y001222D01*
X041642Y001242D01*
X041679Y001265D01*
X041713Y001292D01*
X041746Y001321D01*
X041775Y001354D01*
X041802Y001388D01*
X041825Y001425D01*
X041845Y001464D01*
X041862Y001504D01*
X041875Y001546D01*
X041884Y001588D01*
X041890Y001631D01*
X041892Y001675D01*
X041892Y031675D01*
X041890Y031719D01*
X041884Y031762D01*
X041875Y031804D01*
X041862Y031846D01*
X041845Y031886D01*
X041825Y031925D01*
X041802Y031962D01*
X041775Y031996D01*
X041746Y032029D01*
X041713Y032058D01*
X041679Y032085D01*
X041642Y032108D01*
X041603Y032128D01*
X041563Y032145D01*
X041521Y032158D01*
X041479Y032167D01*
X041436Y032173D01*
X041392Y032175D01*
X003392Y032175D01*
X003348Y032173D01*
X003305Y032167D01*
X003263Y032158D01*
X003221Y032145D01*
X003181Y032128D01*
X003142Y032108D01*
X003105Y032085D01*
X003071Y032058D01*
X003038Y032029D01*
X003009Y031996D01*
X002982Y031962D01*
X002959Y031925D01*
X002939Y031886D01*
X002922Y031846D01*
X002909Y031804D01*
X002900Y031762D01*
X002894Y031719D01*
X002892Y031675D01*
X002892Y011675D01*
X002894Y011631D01*
X002900Y011588D01*
X002909Y011546D01*
X002922Y011504D01*
X002939Y011464D01*
X002959Y011425D01*
X002982Y011388D01*
X003009Y011354D01*
X003038Y011321D01*
X003071Y011292D01*
X003105Y011265D01*
X003142Y011242D01*
X003181Y011222D01*
X003221Y011205D01*
X003263Y011192D01*
X003305Y011183D01*
X003348Y011177D01*
X003392Y011175D01*
X003842Y014175D02*
X003844Y014225D01*
X003850Y014275D01*
X003860Y014325D01*
X003873Y014373D01*
X003890Y014421D01*
X003911Y014467D01*
X003935Y014511D01*
X003963Y014553D01*
X003994Y014593D01*
X004028Y014630D01*
X004065Y014665D01*
X004104Y014696D01*
X004145Y014725D01*
X004189Y014750D01*
X004235Y014772D01*
X004282Y014790D01*
X004330Y014804D01*
X004379Y014815D01*
X004429Y014822D01*
X004479Y014825D01*
X004530Y014824D01*
X004580Y014819D01*
X004630Y014810D01*
X004678Y014798D01*
X004726Y014781D01*
X004772Y014761D01*
X004817Y014738D01*
X004860Y014711D01*
X004900Y014681D01*
X004938Y014648D01*
X004973Y014612D01*
X005006Y014573D01*
X005035Y014532D01*
X005061Y014489D01*
X005084Y014444D01*
X005103Y014397D01*
X005118Y014349D01*
X005130Y014300D01*
X005138Y014250D01*
X005142Y014200D01*
X005142Y014150D01*
X005138Y014100D01*
X005130Y014050D01*
X005118Y014001D01*
X005103Y013953D01*
X005084Y013906D01*
X005061Y013861D01*
X005035Y013818D01*
X005006Y013777D01*
X004973Y013738D01*
X004938Y013702D01*
X004900Y013669D01*
X004860Y013639D01*
X004817Y013612D01*
X004772Y013589D01*
X004726Y013569D01*
X004678Y013552D01*
X004630Y013540D01*
X004580Y013531D01*
X004530Y013526D01*
X004479Y013525D01*
X004429Y013528D01*
X004379Y013535D01*
X004330Y013546D01*
X004282Y013560D01*
X004235Y013578D01*
X004189Y013600D01*
X004145Y013625D01*
X004104Y013654D01*
X004065Y013685D01*
X004028Y013720D01*
X003994Y013757D01*
X003963Y013797D01*
X003935Y013839D01*
X003911Y013883D01*
X003890Y013929D01*
X003873Y013977D01*
X003860Y014025D01*
X003850Y014075D01*
X003844Y014125D01*
X003842Y014175D01*
X003762Y019175D02*
X003764Y019225D01*
X003770Y019275D01*
X003780Y019324D01*
X003794Y019372D01*
X003811Y019419D01*
X003832Y019464D01*
X003857Y019508D01*
X003885Y019549D01*
X003917Y019588D01*
X003951Y019625D01*
X003988Y019659D01*
X004028Y019689D01*
X004070Y019716D01*
X004114Y019740D01*
X004160Y019761D01*
X004207Y019777D01*
X004255Y019790D01*
X004305Y019799D01*
X004354Y019804D01*
X004405Y019805D01*
X004455Y019802D01*
X004504Y019795D01*
X004553Y019784D01*
X004601Y019769D01*
X004647Y019751D01*
X004692Y019729D01*
X004735Y019703D01*
X004776Y019674D01*
X004815Y019642D01*
X004851Y019607D01*
X004883Y019569D01*
X004913Y019529D01*
X004940Y019486D01*
X004963Y019442D01*
X004982Y019396D01*
X004998Y019348D01*
X005010Y019299D01*
X005018Y019250D01*
X005022Y019200D01*
X005022Y019150D01*
X005018Y019100D01*
X005010Y019051D01*
X004998Y019002D01*
X004982Y018954D01*
X004963Y018908D01*
X004940Y018864D01*
X004913Y018821D01*
X004883Y018781D01*
X004851Y018743D01*
X004815Y018708D01*
X004776Y018676D01*
X004735Y018647D01*
X004692Y018621D01*
X004647Y018599D01*
X004601Y018581D01*
X004553Y018566D01*
X004504Y018555D01*
X004455Y018548D01*
X004405Y018545D01*
X004354Y018546D01*
X004305Y018551D01*
X004255Y018560D01*
X004207Y018573D01*
X004160Y018589D01*
X004114Y018610D01*
X004070Y018634D01*
X004028Y018661D01*
X003988Y018691D01*
X003951Y018725D01*
X003917Y018762D01*
X003885Y018801D01*
X003857Y018842D01*
X003832Y018886D01*
X003811Y018931D01*
X003794Y018978D01*
X003780Y019026D01*
X003770Y019075D01*
X003764Y019125D01*
X003762Y019175D01*
X003762Y023675D02*
X003764Y023725D01*
X003770Y023775D01*
X003780Y023824D01*
X003794Y023872D01*
X003811Y023919D01*
X003832Y023964D01*
X003857Y024008D01*
X003885Y024049D01*
X003917Y024088D01*
X003951Y024125D01*
X003988Y024159D01*
X004028Y024189D01*
X004070Y024216D01*
X004114Y024240D01*
X004160Y024261D01*
X004207Y024277D01*
X004255Y024290D01*
X004305Y024299D01*
X004354Y024304D01*
X004405Y024305D01*
X004455Y024302D01*
X004504Y024295D01*
X004553Y024284D01*
X004601Y024269D01*
X004647Y024251D01*
X004692Y024229D01*
X004735Y024203D01*
X004776Y024174D01*
X004815Y024142D01*
X004851Y024107D01*
X004883Y024069D01*
X004913Y024029D01*
X004940Y023986D01*
X004963Y023942D01*
X004982Y023896D01*
X004998Y023848D01*
X005010Y023799D01*
X005018Y023750D01*
X005022Y023700D01*
X005022Y023650D01*
X005018Y023600D01*
X005010Y023551D01*
X004998Y023502D01*
X004982Y023454D01*
X004963Y023408D01*
X004940Y023364D01*
X004913Y023321D01*
X004883Y023281D01*
X004851Y023243D01*
X004815Y023208D01*
X004776Y023176D01*
X004735Y023147D01*
X004692Y023121D01*
X004647Y023099D01*
X004601Y023081D01*
X004553Y023066D01*
X004504Y023055D01*
X004455Y023048D01*
X004405Y023045D01*
X004354Y023046D01*
X004305Y023051D01*
X004255Y023060D01*
X004207Y023073D01*
X004160Y023089D01*
X004114Y023110D01*
X004070Y023134D01*
X004028Y023161D01*
X003988Y023191D01*
X003951Y023225D01*
X003917Y023262D01*
X003885Y023301D01*
X003857Y023342D01*
X003832Y023386D01*
X003811Y023431D01*
X003794Y023478D01*
X003780Y023526D01*
X003770Y023575D01*
X003764Y023625D01*
X003762Y023675D01*
X003752Y025675D02*
X003754Y025725D01*
X003760Y025775D01*
X003770Y025824D01*
X003783Y025873D01*
X003801Y025920D01*
X003822Y025966D01*
X003846Y026009D01*
X003874Y026051D01*
X003905Y026091D01*
X003939Y026128D01*
X003976Y026162D01*
X004016Y026193D01*
X004058Y026221D01*
X004101Y026245D01*
X004147Y026266D01*
X004194Y026284D01*
X004243Y026297D01*
X004292Y026307D01*
X004342Y026313D01*
X004392Y026315D01*
X004442Y026313D01*
X004492Y026307D01*
X004541Y026297D01*
X004590Y026284D01*
X004637Y026266D01*
X004683Y026245D01*
X004726Y026221D01*
X004768Y026193D01*
X004808Y026162D01*
X004845Y026128D01*
X004879Y026091D01*
X004910Y026051D01*
X004938Y026009D01*
X004962Y025966D01*
X004983Y025920D01*
X005001Y025873D01*
X005014Y025824D01*
X005024Y025775D01*
X005030Y025725D01*
X005032Y025675D01*
X005030Y025625D01*
X005024Y025575D01*
X005014Y025526D01*
X005001Y025477D01*
X004983Y025430D01*
X004962Y025384D01*
X004938Y025341D01*
X004910Y025299D01*
X004879Y025259D01*
X004845Y025222D01*
X004808Y025188D01*
X004768Y025157D01*
X004726Y025129D01*
X004683Y025105D01*
X004637Y025084D01*
X004590Y025066D01*
X004541Y025053D01*
X004492Y025043D01*
X004442Y025037D01*
X004392Y025035D01*
X004342Y025037D01*
X004292Y025043D01*
X004243Y025053D01*
X004194Y025066D01*
X004147Y025084D01*
X004101Y025105D01*
X004058Y025129D01*
X004016Y025157D01*
X003976Y025188D01*
X003939Y025222D01*
X003905Y025259D01*
X003874Y025299D01*
X003846Y025341D01*
X003822Y025384D01*
X003801Y025430D01*
X003783Y025477D01*
X003770Y025526D01*
X003760Y025575D01*
X003754Y025625D01*
X003752Y025675D01*
X003752Y029675D02*
X003754Y029725D01*
X003760Y029775D01*
X003770Y029824D01*
X003783Y029873D01*
X003801Y029920D01*
X003822Y029966D01*
X003846Y030009D01*
X003874Y030051D01*
X003905Y030091D01*
X003939Y030128D01*
X003976Y030162D01*
X004016Y030193D01*
X004058Y030221D01*
X004101Y030245D01*
X004147Y030266D01*
X004194Y030284D01*
X004243Y030297D01*
X004292Y030307D01*
X004342Y030313D01*
X004392Y030315D01*
X004442Y030313D01*
X004492Y030307D01*
X004541Y030297D01*
X004590Y030284D01*
X004637Y030266D01*
X004683Y030245D01*
X004726Y030221D01*
X004768Y030193D01*
X004808Y030162D01*
X004845Y030128D01*
X004879Y030091D01*
X004910Y030051D01*
X004938Y030009D01*
X004962Y029966D01*
X004983Y029920D01*
X005001Y029873D01*
X005014Y029824D01*
X005024Y029775D01*
X005030Y029725D01*
X005032Y029675D01*
X005030Y029625D01*
X005024Y029575D01*
X005014Y029526D01*
X005001Y029477D01*
X004983Y029430D01*
X004962Y029384D01*
X004938Y029341D01*
X004910Y029299D01*
X004879Y029259D01*
X004845Y029222D01*
X004808Y029188D01*
X004768Y029157D01*
X004726Y029129D01*
X004683Y029105D01*
X004637Y029084D01*
X004590Y029066D01*
X004541Y029053D01*
X004492Y029043D01*
X004442Y029037D01*
X004392Y029035D01*
X004342Y029037D01*
X004292Y029043D01*
X004243Y029053D01*
X004194Y029066D01*
X004147Y029084D01*
X004101Y029105D01*
X004058Y029129D01*
X004016Y029157D01*
X003976Y029188D01*
X003939Y029222D01*
X003905Y029259D01*
X003874Y029299D01*
X003846Y029341D01*
X003822Y029384D01*
X003801Y029430D01*
X003783Y029477D01*
X003770Y029526D01*
X003760Y029575D01*
X003754Y029625D01*
X003752Y029675D01*
D11*
X003952Y030950D02*
X003877Y031025D01*
X003952Y030950D02*
X004103Y030950D01*
X004178Y031025D01*
X004178Y031100D01*
X004103Y031175D01*
X004027Y031175D01*
X004103Y031175D02*
X004178Y031250D01*
X004178Y031325D01*
X004103Y031400D01*
X003952Y031400D01*
X003877Y031325D01*
X003717Y031175D02*
X003417Y031175D01*
X003567Y031325D02*
X003567Y031025D01*
X004338Y031100D02*
X004488Y030950D01*
X004638Y031100D01*
X004638Y031400D01*
X004798Y031325D02*
X004873Y031400D01*
X005023Y031400D01*
X005098Y031325D01*
X005098Y031250D01*
X005023Y031175D01*
X005098Y031100D01*
X005098Y031025D01*
X005023Y030950D01*
X004873Y030950D01*
X004798Y031025D01*
X004948Y031175D02*
X005023Y031175D01*
X004338Y031100D02*
X004338Y031400D01*
X008697Y031066D02*
X008697Y030916D01*
X008772Y030841D01*
X008772Y030681D02*
X008922Y030681D01*
X008997Y030606D01*
X008997Y030380D01*
X009147Y030380D02*
X008697Y030380D01*
X008697Y030606D01*
X008772Y030681D01*
X009072Y030841D02*
X009147Y030916D01*
X009147Y031066D01*
X009072Y031141D01*
X008997Y031141D01*
X008922Y031066D01*
X008922Y030991D01*
X008922Y031066D02*
X008847Y031141D01*
X008772Y031141D01*
X008697Y031066D01*
X008697Y030220D02*
X008697Y030070D01*
X008697Y030145D02*
X009072Y030145D01*
X009147Y030070D01*
X009147Y029995D01*
X009072Y029920D01*
X010717Y029975D02*
X010792Y029900D01*
X010867Y029900D01*
X010942Y029975D01*
X010942Y030350D01*
X010867Y030350D02*
X011017Y030350D01*
X011177Y030350D02*
X011403Y030350D01*
X011478Y030275D01*
X011478Y030125D01*
X011403Y030050D01*
X011177Y030050D01*
X011177Y029900D02*
X011177Y030350D01*
X011638Y030125D02*
X011938Y030125D01*
X011863Y029900D02*
X011863Y030350D01*
X011638Y030125D01*
X011638Y029650D02*
X011938Y029650D01*
X011788Y029650D02*
X011788Y029200D01*
X011478Y029200D02*
X011177Y029200D01*
X011177Y029650D01*
X011017Y029500D02*
X011017Y029200D01*
X011017Y029425D02*
X010717Y029425D01*
X010717Y029500D02*
X010867Y029650D01*
X011017Y029500D01*
X010717Y029500D02*
X010717Y029200D01*
X012559Y029200D02*
X012709Y029200D01*
X012634Y029200D02*
X012634Y029650D01*
X012559Y029650D02*
X012709Y029650D01*
X012865Y029575D02*
X012865Y029500D01*
X012941Y029425D01*
X013091Y029425D01*
X013166Y029350D01*
X013166Y029275D01*
X013091Y029200D01*
X012941Y029200D01*
X012865Y029275D01*
X012865Y029575D02*
X012941Y029650D01*
X013091Y029650D01*
X013166Y029575D01*
X013326Y029650D02*
X013551Y029650D01*
X013626Y029575D01*
X013626Y029425D01*
X013551Y029350D01*
X013326Y029350D01*
X013326Y029200D02*
X013326Y029650D01*
X013392Y027211D02*
X013317Y027136D01*
X013317Y027061D01*
X013392Y026910D01*
X013167Y026910D01*
X013167Y027211D01*
X013392Y027211D02*
X013542Y027211D01*
X013617Y027136D01*
X013617Y026985D01*
X013542Y026910D01*
X013617Y026750D02*
X013467Y026600D01*
X013467Y026675D02*
X013467Y026450D01*
X013617Y026450D02*
X013167Y026450D01*
X013167Y026675D01*
X013242Y026750D01*
X013392Y026750D01*
X013467Y026675D01*
X014417Y026675D02*
X014492Y026750D01*
X014642Y026750D01*
X014717Y026675D01*
X014717Y026450D01*
X014867Y026450D02*
X014417Y026450D01*
X014417Y026675D01*
X014492Y026910D02*
X014417Y026985D01*
X014417Y027136D01*
X014492Y027211D01*
X014567Y027211D01*
X014867Y026910D01*
X014867Y027211D01*
X014867Y026750D02*
X014717Y026600D01*
X015667Y026675D02*
X015742Y026750D01*
X015892Y026750D01*
X015967Y026675D01*
X015967Y026450D01*
X016117Y026450D02*
X015667Y026450D01*
X015667Y026675D01*
X015742Y026910D02*
X015667Y026985D01*
X015667Y027136D01*
X015742Y027211D01*
X015817Y027211D01*
X015892Y027136D01*
X015967Y027211D01*
X016042Y027211D01*
X016117Y027136D01*
X016117Y026985D01*
X016042Y026910D01*
X016117Y026750D02*
X015967Y026600D01*
X015892Y027061D02*
X015892Y027136D01*
X016917Y027061D02*
X017067Y026910D01*
X017142Y026750D02*
X017217Y026675D01*
X017217Y026450D01*
X017367Y026450D02*
X016917Y026450D01*
X016917Y026675D01*
X016992Y026750D01*
X017142Y026750D01*
X017217Y026600D02*
X017367Y026750D01*
X017367Y026910D02*
X017367Y027211D01*
X017367Y027061D02*
X016917Y027061D01*
X017167Y027700D02*
X017167Y028150D01*
X017392Y028150D01*
X017467Y028075D01*
X017467Y027925D01*
X017392Y027850D01*
X017167Y027850D01*
X017317Y027850D02*
X017467Y027700D01*
X017627Y027925D02*
X017928Y027925D01*
X017853Y027700D02*
X017853Y028150D01*
X017627Y027925D01*
X017702Y028950D02*
X017627Y029025D01*
X017627Y029100D01*
X017702Y029175D01*
X017853Y029175D01*
X017928Y029100D01*
X017928Y029025D01*
X017853Y028950D01*
X017702Y028950D01*
X017702Y029175D02*
X017627Y029250D01*
X017627Y029325D01*
X017702Y029400D01*
X017853Y029400D01*
X017928Y029325D01*
X017928Y029250D01*
X017853Y029175D01*
X017467Y029175D02*
X017392Y029100D01*
X017167Y029100D01*
X017167Y028950D02*
X017167Y029400D01*
X017392Y029400D01*
X017467Y029325D01*
X017467Y029175D01*
X017317Y029100D02*
X017467Y028950D01*
X019957Y028950D02*
X020257Y028950D01*
X020107Y028950D02*
X020107Y029400D01*
X019957Y029250D01*
X020417Y029400D02*
X020417Y028950D01*
X020717Y028950D02*
X020717Y029400D01*
X020567Y029250D01*
X020417Y029400D01*
X020455Y028150D02*
X020455Y027700D01*
X020455Y027850D02*
X020681Y028000D01*
X020455Y027850D02*
X020681Y027700D01*
X020295Y027700D02*
X019995Y027700D01*
X020145Y027700D02*
X020145Y028150D01*
X019995Y028000D01*
X019617Y024424D02*
X019467Y024199D01*
X019317Y024424D01*
X019167Y024199D02*
X019617Y024199D01*
X019542Y024039D02*
X019617Y023964D01*
X019617Y023813D01*
X019542Y023738D01*
X019242Y024039D01*
X019542Y024039D01*
X019242Y024039D02*
X019167Y023964D01*
X019167Y023813D01*
X019242Y023738D01*
X019542Y023738D01*
X019542Y023578D02*
X019242Y023578D01*
X019542Y023278D01*
X019617Y023353D01*
X019617Y023503D01*
X019542Y023578D01*
X019542Y023278D02*
X019242Y023278D01*
X019167Y023353D01*
X019167Y023503D01*
X019242Y023578D01*
X019617Y023118D02*
X019617Y022818D01*
X019617Y022968D02*
X019167Y022968D01*
X019317Y022818D01*
X020417Y023198D02*
X020867Y023198D01*
X020867Y023048D02*
X020867Y023348D01*
X020792Y023508D02*
X020492Y023808D01*
X020792Y023808D01*
X020867Y023733D01*
X020867Y023583D01*
X020792Y023508D01*
X020492Y023508D01*
X020417Y023583D01*
X020417Y023733D01*
X020492Y023808D01*
X020417Y023969D02*
X020867Y023969D01*
X020717Y023969D02*
X020567Y024194D01*
X020717Y023969D02*
X020867Y024194D01*
X021667Y023969D02*
X022117Y023969D01*
X021967Y023969D02*
X021817Y024194D01*
X021967Y023969D02*
X022117Y024194D01*
X022042Y023808D02*
X021742Y023808D01*
X022042Y023508D01*
X022117Y023583D01*
X022117Y023733D01*
X022042Y023808D01*
X022042Y023508D02*
X021742Y023508D01*
X021667Y023583D01*
X021667Y023733D01*
X021742Y023808D01*
X022117Y023348D02*
X022117Y023048D01*
X022117Y023198D02*
X021667Y023198D01*
X021817Y023048D01*
X022917Y022968D02*
X023367Y022968D01*
X023367Y022818D02*
X023367Y023118D01*
X023292Y023278D02*
X022992Y023578D01*
X023292Y023578D01*
X023367Y023503D01*
X023367Y023353D01*
X023292Y023278D01*
X022992Y023278D01*
X022917Y023353D01*
X022917Y023503D01*
X022992Y023578D01*
X022992Y023738D02*
X022917Y023813D01*
X022917Y023964D01*
X022992Y024039D01*
X023292Y023738D01*
X023367Y023813D01*
X023367Y023964D01*
X023292Y024039D01*
X022992Y024039D01*
X022917Y024199D02*
X023367Y024199D01*
X023217Y024199D02*
X023067Y024424D01*
X023217Y024199D02*
X023367Y024424D01*
X023292Y023738D02*
X022992Y023738D01*
X022917Y022968D02*
X023067Y022818D01*
X024167Y023198D02*
X024617Y023198D01*
X024617Y023048D02*
X024617Y023348D01*
X024542Y023508D02*
X024617Y023583D01*
X024617Y023733D01*
X024542Y023808D01*
X024242Y023808D01*
X024542Y023508D01*
X024242Y023508D01*
X024167Y023583D01*
X024167Y023733D01*
X024242Y023808D01*
X024167Y023969D02*
X024617Y023969D01*
X024467Y023969D02*
X024317Y024194D01*
X024467Y023969D02*
X024617Y024194D01*
X025417Y023969D02*
X025867Y023969D01*
X025717Y023969D02*
X025567Y024194D01*
X025717Y023969D02*
X025867Y024194D01*
X025792Y023808D02*
X025867Y023733D01*
X025867Y023583D01*
X025792Y023508D01*
X025492Y023808D01*
X025792Y023808D01*
X025792Y023508D02*
X025492Y023508D01*
X025417Y023583D01*
X025417Y023733D01*
X025492Y023808D01*
X025867Y023348D02*
X025867Y023048D01*
X025867Y023198D02*
X025417Y023198D01*
X025567Y023048D01*
X024317Y023048D02*
X024167Y023198D01*
X027396Y026025D02*
X027471Y025950D01*
X027621Y025950D01*
X027696Y026025D01*
X027696Y026175D01*
X027621Y026250D01*
X027546Y026250D01*
X027396Y026175D01*
X027396Y026400D01*
X027696Y026400D01*
X027857Y026400D02*
X027857Y026100D01*
X028007Y025950D01*
X028157Y026100D01*
X028157Y026400D01*
X027236Y026175D02*
X026936Y026175D01*
X027086Y026325D02*
X027086Y026025D01*
X025867Y026200D02*
X025417Y026200D01*
X025417Y026425D01*
X025492Y026500D01*
X025642Y026500D01*
X025717Y026425D01*
X025717Y026200D01*
X025717Y026350D02*
X025867Y026500D01*
X025792Y026660D02*
X025867Y026735D01*
X025867Y026886D01*
X025792Y026961D01*
X025492Y026961D01*
X025417Y026886D01*
X025417Y026735D01*
X025492Y026660D01*
X025567Y026660D01*
X025642Y026735D01*
X025642Y026961D01*
X026168Y027950D02*
X026319Y027950D01*
X026244Y027950D02*
X026244Y028400D01*
X026319Y028400D02*
X026168Y028400D01*
X026475Y028325D02*
X026475Y028025D01*
X026550Y027950D01*
X026701Y027950D01*
X026776Y028025D01*
X026776Y028325D01*
X026701Y028400D01*
X026550Y028400D01*
X026475Y028325D01*
X026936Y028400D02*
X026936Y027950D01*
X026936Y028100D02*
X027161Y028100D01*
X027236Y028175D01*
X027236Y028325D01*
X027161Y028400D01*
X026936Y028400D01*
X027086Y028100D02*
X027236Y027950D01*
X027396Y027950D02*
X027696Y027950D01*
X027857Y027950D02*
X027857Y028400D01*
X028157Y028400D01*
X028007Y028175D02*
X027857Y028175D01*
X027696Y028400D02*
X027396Y028400D01*
X027396Y027950D01*
X027396Y028175D02*
X027546Y028175D01*
X027917Y029200D02*
X028067Y029200D01*
X027992Y029200D02*
X027992Y029650D01*
X027917Y029650D02*
X028067Y029650D01*
X028224Y029575D02*
X028224Y029500D01*
X028299Y029425D01*
X028449Y029425D01*
X028524Y029350D01*
X028524Y029275D01*
X028449Y029200D01*
X028299Y029200D01*
X028224Y029275D01*
X028224Y029575D02*
X028299Y029650D01*
X028449Y029650D01*
X028524Y029575D01*
X028684Y029650D02*
X028909Y029650D01*
X028985Y029575D01*
X028985Y029425D01*
X028909Y029350D01*
X028684Y029350D01*
X028684Y029200D02*
X028684Y029650D01*
X028883Y029920D02*
X028808Y029995D01*
X028883Y029920D02*
X029033Y029920D01*
X029108Y029995D01*
X029108Y030145D01*
X029033Y030220D01*
X028958Y030220D01*
X028808Y030145D01*
X028808Y030370D01*
X029108Y030370D01*
X028648Y030295D02*
X028648Y030145D01*
X028573Y030070D01*
X028347Y030070D01*
X028347Y029920D02*
X028347Y030370D01*
X028573Y030370D01*
X028648Y030295D01*
X028187Y030370D02*
X028037Y030370D01*
X028112Y030370D02*
X028112Y029995D01*
X028037Y029920D01*
X027962Y029920D01*
X027887Y029995D01*
X029605Y029650D02*
X029605Y029350D01*
X029755Y029200D01*
X029905Y029350D01*
X029905Y029650D01*
X030065Y029575D02*
X030065Y029275D01*
X030141Y029200D01*
X030291Y029200D01*
X030366Y029275D01*
X030526Y029275D02*
X030601Y029200D01*
X030751Y029200D01*
X030826Y029275D01*
X030526Y029275D02*
X030526Y029575D01*
X030601Y029650D01*
X030751Y029650D01*
X030826Y029575D01*
X030366Y029575D02*
X030291Y029650D01*
X030141Y029650D01*
X030065Y029575D01*
X031642Y030425D02*
X031642Y020425D01*
X041642Y020425D01*
X041642Y030425D01*
X031642Y030425D01*
X037517Y026275D02*
X037592Y026350D01*
X037667Y026350D01*
X037742Y026275D01*
X037742Y026125D01*
X037667Y026050D01*
X037592Y026050D01*
X037517Y026125D01*
X037517Y026275D01*
X037742Y026275D02*
X037817Y026350D01*
X037892Y026350D01*
X037967Y026275D01*
X037967Y026125D01*
X037892Y026050D01*
X037817Y026050D01*
X037742Y026125D01*
X037117Y024000D02*
X037117Y023700D01*
X037117Y023850D02*
X036667Y023850D01*
X036817Y023700D01*
X036117Y023700D02*
X035817Y024000D01*
X035742Y024000D01*
X035667Y023925D01*
X035667Y023775D01*
X035742Y023700D01*
X036117Y023700D02*
X036117Y024000D01*
X034367Y023386D02*
X034367Y023235D01*
X034292Y023160D01*
X034367Y023000D02*
X033917Y022700D01*
X033917Y023000D02*
X034367Y022700D01*
X033992Y023160D02*
X033917Y023235D01*
X033917Y023386D01*
X033992Y023461D01*
X034067Y023461D01*
X034142Y023386D01*
X034217Y023461D01*
X034292Y023461D01*
X034367Y023386D01*
X034142Y023386D02*
X034142Y023311D01*
X031117Y023461D02*
X031117Y023160D01*
X030817Y023461D01*
X030742Y023461D01*
X030667Y023386D01*
X030667Y023235D01*
X030742Y023160D01*
X030742Y023000D02*
X030667Y022925D01*
X030667Y022700D01*
X031117Y022700D01*
X031117Y022925D01*
X031042Y023000D01*
X030742Y023000D01*
X030117Y022925D02*
X030042Y023000D01*
X029742Y023000D01*
X029667Y022925D01*
X029667Y022700D01*
X030117Y022700D01*
X030117Y022925D01*
X030117Y023160D02*
X030117Y023461D01*
X030117Y023311D02*
X029667Y023311D01*
X029817Y023160D01*
X029742Y022018D02*
X029892Y022018D01*
X029967Y021943D01*
X029967Y021717D01*
X030117Y021717D02*
X029667Y021717D01*
X029667Y021943D01*
X029742Y022018D01*
X029742Y021557D02*
X029667Y021482D01*
X029667Y021332D01*
X029742Y021257D01*
X029817Y021257D01*
X029892Y021332D01*
X029892Y021482D01*
X029967Y021557D01*
X030042Y021557D01*
X030117Y021482D01*
X030117Y021332D01*
X030042Y021257D01*
X030117Y021100D02*
X030117Y020950D01*
X030117Y021025D02*
X029667Y021025D01*
X029667Y020950D02*
X029667Y021100D01*
X030917Y021096D02*
X030917Y020871D01*
X031367Y020871D01*
X031367Y021096D01*
X031292Y021171D01*
X030992Y021171D01*
X030917Y021096D01*
X031067Y021331D02*
X030917Y021481D01*
X031367Y021481D01*
X031367Y021331D02*
X031367Y021631D01*
X031292Y020711D02*
X030992Y020711D01*
X030917Y020636D01*
X030917Y020485D01*
X030992Y020410D01*
X031292Y020410D01*
X031367Y020485D01*
X031367Y020636D01*
X031292Y020711D01*
X031367Y020250D02*
X030917Y020250D01*
X031067Y020100D01*
X030917Y019950D01*
X031367Y019950D01*
X031317Y017694D02*
X031467Y017469D01*
X031617Y017694D01*
X031617Y017469D02*
X031167Y017469D01*
X031242Y017308D02*
X031542Y017008D01*
X031617Y017083D01*
X031617Y017233D01*
X031542Y017308D01*
X031242Y017308D01*
X031167Y017233D01*
X031167Y017083D01*
X031242Y017008D01*
X031542Y017008D01*
X031617Y016848D02*
X031617Y016548D01*
X031617Y016698D02*
X031167Y016698D01*
X031317Y016548D01*
X032667Y016698D02*
X033117Y016698D01*
X033117Y016548D02*
X033117Y016848D01*
X033042Y017008D02*
X032742Y017308D01*
X033042Y017308D01*
X033117Y017233D01*
X033117Y017083D01*
X033042Y017008D01*
X032742Y017008D01*
X032667Y017083D01*
X032667Y017233D01*
X032742Y017308D01*
X032667Y017469D02*
X033117Y017469D01*
X032967Y017469D02*
X032817Y017694D01*
X032967Y017469D02*
X033117Y017694D01*
X032667Y016698D02*
X032817Y016548D01*
X033417Y015461D02*
X033417Y015160D01*
X033642Y015160D01*
X033567Y015311D01*
X033567Y015386D01*
X033642Y015461D01*
X033792Y015461D01*
X033867Y015386D01*
X033867Y015235D01*
X033792Y015160D01*
X033867Y015000D02*
X033417Y014700D01*
X033417Y015000D02*
X033867Y014700D01*
X032867Y014596D02*
X032792Y014671D01*
X032717Y014671D01*
X032642Y014596D01*
X032642Y014371D01*
X032792Y014371D01*
X032867Y014446D01*
X032867Y014596D01*
X032642Y014371D02*
X032492Y014521D01*
X032417Y014671D01*
X032417Y014061D02*
X032867Y014061D01*
X032867Y014211D02*
X032867Y013910D01*
X032867Y013750D02*
X032717Y013600D01*
X032717Y013675D02*
X032717Y013450D01*
X032867Y013450D02*
X032417Y013450D01*
X032417Y013675D01*
X032492Y013750D01*
X032642Y013750D01*
X032717Y013675D01*
X032567Y013910D02*
X032417Y014061D01*
X031367Y014061D02*
X030917Y014061D01*
X031067Y013910D01*
X031142Y013750D02*
X031217Y013675D01*
X031217Y013450D01*
X031367Y013450D02*
X030917Y013450D01*
X030917Y013675D01*
X030992Y013750D01*
X031142Y013750D01*
X031217Y013600D02*
X031367Y013750D01*
X031367Y013910D02*
X031367Y014211D01*
X031292Y014371D02*
X031367Y014446D01*
X031367Y014596D01*
X031292Y014671D01*
X031142Y014671D01*
X031067Y014596D01*
X031067Y014521D01*
X031142Y014371D01*
X030917Y014371D01*
X030917Y014671D01*
X030098Y014450D02*
X029798Y014450D01*
X029948Y014450D02*
X029948Y014900D01*
X029798Y014750D01*
X029638Y014600D02*
X029563Y014675D01*
X029338Y014675D01*
X029338Y014525D01*
X029413Y014450D01*
X029563Y014450D01*
X029638Y014525D01*
X029638Y014600D01*
X029488Y014825D02*
X029338Y014675D01*
X029488Y014825D02*
X029638Y014900D01*
X029523Y015200D02*
X029373Y015200D01*
X029298Y015275D01*
X029373Y015425D02*
X029298Y015500D01*
X029298Y015575D01*
X029373Y015650D01*
X029523Y015650D01*
X029598Y015575D01*
X029523Y015425D02*
X029598Y015350D01*
X029598Y015275D01*
X029523Y015200D01*
X029523Y015425D02*
X029373Y015425D01*
X029138Y015200D02*
X029138Y015650D01*
X028838Y015650D02*
X028838Y015200D01*
X028678Y015200D02*
X028377Y015200D01*
X028377Y015650D01*
X028678Y015650D01*
X028838Y015650D02*
X029138Y015200D01*
X029178Y014900D02*
X029178Y014450D01*
X028877Y014450D02*
X028877Y014900D01*
X029027Y014750D01*
X029178Y014900D01*
X028717Y014450D02*
X028417Y014450D01*
X028417Y014900D01*
X028142Y015200D02*
X027992Y015200D01*
X027917Y015275D01*
X027992Y015425D02*
X028142Y015425D01*
X028217Y015350D01*
X028217Y015275D01*
X028142Y015200D01*
X027992Y015425D02*
X027917Y015500D01*
X027917Y015575D01*
X027992Y015650D01*
X028142Y015650D01*
X028217Y015575D01*
X028377Y015425D02*
X028527Y015425D01*
X029759Y015500D02*
X029909Y015650D01*
X029909Y015200D01*
X029759Y015200D02*
X030059Y015200D01*
X026617Y016700D02*
X026617Y017000D01*
X026617Y016850D02*
X026167Y016850D01*
X026317Y016700D01*
X025867Y016775D02*
X025867Y016925D01*
X025792Y017000D01*
X025867Y017160D02*
X025867Y017461D01*
X025867Y017311D02*
X025417Y017311D01*
X025567Y017160D01*
X025492Y017000D02*
X025417Y016925D01*
X025417Y016775D01*
X025492Y016700D01*
X025792Y016700D01*
X025867Y016775D01*
X026242Y017160D02*
X026167Y017235D01*
X026167Y017386D01*
X026242Y017461D01*
X026542Y017160D01*
X026617Y017235D01*
X026617Y017386D01*
X026542Y017461D01*
X026242Y017461D01*
X026242Y017621D02*
X026167Y017696D01*
X026167Y017846D01*
X026242Y017921D01*
X026542Y017621D01*
X026617Y017696D01*
X026617Y017846D01*
X026542Y017921D01*
X026242Y017921D01*
X026317Y018081D02*
X026317Y018306D01*
X026392Y018381D01*
X026617Y018381D01*
X026617Y018081D02*
X026317Y018081D01*
X025678Y018100D02*
X025603Y018175D01*
X025377Y018175D01*
X025377Y018025D01*
X025452Y017950D01*
X025603Y017950D01*
X025678Y018025D01*
X025678Y018100D01*
X025527Y018325D02*
X025377Y018175D01*
X025527Y018325D02*
X025678Y018400D01*
X025217Y018325D02*
X025217Y018025D01*
X025142Y017950D01*
X024992Y017950D01*
X024917Y018025D01*
X024917Y018325D01*
X024992Y018400D01*
X025142Y018400D01*
X025217Y018325D01*
X025067Y018100D02*
X025217Y017950D01*
X026242Y017621D02*
X026542Y017621D01*
X026542Y017160D02*
X026242Y017160D01*
X024167Y016734D02*
X024167Y016584D01*
X024092Y016509D01*
X023792Y016509D01*
X023717Y016584D01*
X023717Y016734D01*
X023792Y016809D01*
X024092Y016809D02*
X024167Y016734D01*
X024092Y016349D02*
X023792Y016349D01*
X023717Y016274D01*
X023717Y016048D01*
X024167Y016048D01*
X024167Y016274D01*
X024092Y016349D01*
X024167Y015888D02*
X023867Y015888D01*
X023717Y015738D01*
X023867Y015588D01*
X024167Y015588D01*
X023942Y015588D02*
X023942Y015888D01*
X023567Y015121D02*
X023567Y014821D01*
X023267Y015121D01*
X023192Y015121D01*
X023117Y015046D01*
X023117Y014896D01*
X023192Y014821D01*
X023192Y014661D02*
X023342Y014661D01*
X023417Y014586D01*
X023417Y014360D01*
X023567Y014360D02*
X023117Y014360D01*
X023117Y014586D01*
X023192Y014661D01*
X023117Y014200D02*
X023117Y014050D01*
X023117Y014125D02*
X023492Y014125D01*
X023567Y014050D01*
X023567Y013975D01*
X023492Y013900D01*
X023717Y013900D02*
X024017Y013900D01*
X024167Y014050D01*
X024017Y014200D01*
X023717Y014200D01*
X023717Y014360D02*
X023717Y014511D01*
X023717Y014435D02*
X024167Y014435D01*
X024167Y014360D02*
X024167Y014511D01*
X024167Y014667D02*
X023717Y014667D01*
X024167Y014968D01*
X023717Y014968D01*
X022928Y013900D02*
X022777Y013825D01*
X022627Y013675D01*
X022853Y013675D01*
X022928Y013600D01*
X022928Y013525D01*
X022853Y013450D01*
X022702Y013450D01*
X022627Y013525D01*
X022627Y013675D01*
X022467Y013525D02*
X022392Y013450D01*
X022242Y013450D01*
X022167Y013525D01*
X022167Y013825D01*
X022242Y013900D01*
X022392Y013900D01*
X022467Y013825D01*
X022353Y013250D02*
X022428Y013175D01*
X022127Y012875D01*
X022202Y012800D01*
X022353Y012800D01*
X022428Y012875D01*
X022428Y013175D01*
X022353Y013250D02*
X022202Y013250D01*
X022127Y013175D01*
X022127Y012875D01*
X021967Y012800D02*
X021667Y012800D01*
X021817Y012800D02*
X021817Y013250D01*
X021667Y013100D01*
X022588Y013175D02*
X022588Y012875D01*
X022888Y013175D01*
X022888Y012875D01*
X022813Y012800D01*
X022663Y012800D01*
X022588Y012875D01*
X022588Y013175D02*
X022663Y013250D01*
X022813Y013250D01*
X022888Y013175D01*
X023048Y013100D02*
X023048Y012875D01*
X023123Y012800D01*
X023348Y012800D01*
X023348Y013100D01*
X023969Y013175D02*
X024044Y013250D01*
X024194Y013250D01*
X024269Y013175D01*
X024269Y013100D01*
X023969Y012800D01*
X024269Y012800D01*
X024429Y012875D02*
X024504Y012800D01*
X024655Y012800D01*
X024730Y012875D01*
X024730Y013025D01*
X024655Y013100D01*
X024579Y013100D01*
X024429Y013025D01*
X024429Y013250D01*
X024730Y013250D01*
X024890Y013250D02*
X024890Y012950D01*
X025040Y012800D01*
X025190Y012950D01*
X025190Y013250D01*
X028067Y011031D02*
X028367Y011031D01*
X028367Y010806D01*
X028292Y010731D01*
X028067Y010731D01*
X027992Y010571D02*
X028292Y010271D01*
X028367Y010346D01*
X028367Y010496D01*
X028292Y010571D01*
X027992Y010571D01*
X027917Y010496D01*
X027917Y010346D01*
X027992Y010271D01*
X028292Y010271D01*
X028292Y010111D02*
X028367Y010036D01*
X028367Y009885D01*
X028292Y009810D01*
X027992Y010111D01*
X028292Y010111D01*
X027992Y010111D02*
X027917Y010036D01*
X027917Y009885D01*
X027992Y009810D01*
X028292Y009810D01*
X028367Y009650D02*
X028367Y009350D01*
X028367Y009500D02*
X027917Y009500D01*
X028067Y009350D01*
X027717Y009775D02*
X027717Y009925D01*
X027642Y010000D01*
X027717Y010160D02*
X027417Y010461D01*
X027342Y010461D01*
X027267Y010386D01*
X027267Y010235D01*
X027342Y010160D01*
X027342Y010000D02*
X027267Y009925D01*
X027267Y009775D01*
X027342Y009700D01*
X027642Y009700D01*
X027717Y009775D01*
X027717Y010160D02*
X027717Y010461D01*
X030417Y006117D02*
X030867Y006117D01*
X030867Y005967D02*
X030867Y006268D01*
X030567Y005967D02*
X030417Y006117D01*
X030492Y005807D02*
X030417Y005732D01*
X030417Y005582D01*
X030492Y005507D01*
X030792Y005507D01*
X030867Y005582D01*
X030867Y005732D01*
X030792Y005807D01*
X030867Y005350D02*
X030867Y005200D01*
X030867Y005275D02*
X030417Y005275D01*
X030417Y005200D02*
X030417Y005350D01*
X030527Y004650D02*
X030527Y004200D01*
X030377Y004200D02*
X030678Y004200D01*
X030377Y004500D02*
X030527Y004650D01*
X030217Y004200D02*
X029917Y004200D01*
X029917Y004650D01*
X027408Y004175D02*
X027410Y004237D01*
X027416Y004300D01*
X027426Y004361D01*
X027440Y004422D01*
X027457Y004482D01*
X027478Y004541D01*
X027504Y004598D01*
X027532Y004653D01*
X027564Y004707D01*
X027600Y004758D01*
X027638Y004808D01*
X027680Y004854D01*
X027724Y004898D01*
X027772Y004939D01*
X027821Y004977D01*
X027873Y005011D01*
X027927Y005042D01*
X027983Y005070D01*
X028041Y005094D01*
X028100Y005115D01*
X028160Y005131D01*
X028221Y005144D01*
X028283Y005153D01*
X028345Y005158D01*
X028408Y005159D01*
X028470Y005156D01*
X028532Y005149D01*
X028594Y005138D01*
X028654Y005123D01*
X028714Y005105D01*
X028772Y005083D01*
X028829Y005057D01*
X028884Y005027D01*
X028937Y004994D01*
X028988Y004958D01*
X029036Y004919D01*
X029082Y004876D01*
X029125Y004831D01*
X029165Y004783D01*
X029202Y004733D01*
X029236Y004680D01*
X029267Y004626D01*
X029293Y004570D01*
X029317Y004512D01*
X029336Y004452D01*
X029352Y004392D01*
X029364Y004330D01*
X029372Y004269D01*
X029376Y004206D01*
X029376Y004144D01*
X029372Y004081D01*
X029364Y004020D01*
X029352Y003958D01*
X029336Y003898D01*
X029317Y003838D01*
X029293Y003780D01*
X029267Y003724D01*
X029236Y003670D01*
X029202Y003617D01*
X029165Y003567D01*
X029125Y003519D01*
X029082Y003474D01*
X029036Y003431D01*
X028988Y003392D01*
X028937Y003356D01*
X028884Y003323D01*
X028829Y003293D01*
X028772Y003267D01*
X028714Y003245D01*
X028654Y003227D01*
X028594Y003212D01*
X028532Y003201D01*
X028470Y003194D01*
X028408Y003191D01*
X028345Y003192D01*
X028283Y003197D01*
X028221Y003206D01*
X028160Y003219D01*
X028100Y003235D01*
X028041Y003256D01*
X027983Y003280D01*
X027927Y003308D01*
X027873Y003339D01*
X027821Y003373D01*
X027772Y003411D01*
X027724Y003452D01*
X027680Y003496D01*
X027638Y003542D01*
X027600Y003592D01*
X027564Y003643D01*
X027532Y003697D01*
X027504Y003752D01*
X027478Y003809D01*
X027457Y003868D01*
X027440Y003928D01*
X027426Y003989D01*
X027416Y004050D01*
X027410Y004113D01*
X027408Y004175D01*
X035242Y012950D02*
X035392Y012950D01*
X035467Y013025D01*
X035627Y012950D02*
X035928Y012950D01*
X036088Y013025D02*
X036163Y012950D01*
X036313Y012950D01*
X036388Y013025D01*
X036388Y013325D01*
X036313Y013400D01*
X036163Y013400D01*
X036088Y013325D01*
X036088Y013025D01*
X036548Y013025D02*
X036623Y012950D01*
X036773Y012950D01*
X036848Y013025D01*
X036848Y013400D01*
X037009Y013400D02*
X037234Y013400D01*
X037309Y013325D01*
X037309Y013025D01*
X037234Y012950D01*
X037009Y012950D01*
X037009Y013400D01*
X036548Y013400D02*
X036548Y013025D01*
X035627Y012950D02*
X035627Y013400D01*
X035467Y013325D02*
X035392Y013400D01*
X035242Y013400D01*
X035167Y013325D01*
X035167Y013025D01*
X035242Y012950D01*
X037637Y013745D02*
X037712Y013670D01*
X037787Y013670D01*
X037862Y013745D01*
X037862Y014120D01*
X037787Y014120D02*
X037937Y014120D01*
X038097Y014120D02*
X038323Y014120D01*
X038398Y014045D01*
X038398Y013895D01*
X038323Y013820D01*
X038097Y013820D01*
X038097Y013670D02*
X038097Y014120D01*
X038558Y013895D02*
X038783Y013895D01*
X038858Y013820D01*
X038858Y013745D01*
X038783Y013670D01*
X038633Y013670D01*
X038558Y013745D01*
X038558Y013895D01*
X038708Y014045D01*
X038858Y014120D01*
X038850Y013400D02*
X039075Y013400D01*
X039150Y013325D01*
X039150Y013175D01*
X039075Y013100D01*
X038850Y013100D01*
X038850Y012950D02*
X038850Y013400D01*
X038690Y013400D02*
X038390Y013400D01*
X038540Y013400D02*
X038540Y012950D01*
X038230Y013025D02*
X038155Y012950D01*
X038004Y012950D01*
X037929Y013025D01*
X037929Y013325D01*
X038004Y013400D01*
X038155Y013400D01*
X038230Y013325D01*
X039000Y013100D02*
X039150Y012950D01*
X039311Y012950D02*
X039611Y012950D01*
X039311Y012950D02*
X039311Y013400D01*
X040567Y012386D02*
X040642Y012461D01*
X040717Y012461D01*
X040792Y012386D01*
X040867Y012461D01*
X040942Y012461D01*
X041017Y012386D01*
X041017Y012235D01*
X040942Y012160D01*
X040942Y012000D02*
X041017Y011925D01*
X041017Y011775D01*
X040942Y011700D01*
X040642Y011700D01*
X040567Y011775D01*
X040567Y011925D01*
X040642Y012000D01*
X040642Y012160D02*
X040567Y012235D01*
X040567Y012386D01*
X040792Y012386D02*
X040792Y012311D01*
X041167Y012386D02*
X041242Y012461D01*
X041542Y012160D01*
X041617Y012235D01*
X041617Y012386D01*
X041542Y012461D01*
X041242Y012461D01*
X041167Y012386D02*
X041167Y012235D01*
X041242Y012160D01*
X041542Y012160D01*
X041617Y012000D02*
X041617Y011700D01*
X041617Y011850D02*
X041167Y011850D01*
X041317Y011700D01*
X041242Y012621D02*
X041167Y012696D01*
X041167Y012846D01*
X041242Y012921D01*
X041542Y012621D01*
X041617Y012696D01*
X041617Y012846D01*
X041542Y012921D01*
X041242Y012921D01*
X041317Y013081D02*
X041317Y013306D01*
X041392Y013381D01*
X041617Y013381D01*
X041617Y013081D02*
X041317Y013081D01*
X041242Y012621D02*
X041542Y012621D01*
X039638Y009900D02*
X039338Y009900D01*
X039338Y009450D01*
X039178Y009450D02*
X039027Y009600D01*
X039103Y009600D02*
X038877Y009600D01*
X038877Y009450D02*
X038877Y009900D01*
X039103Y009900D01*
X039178Y009825D01*
X039178Y009675D01*
X039103Y009600D01*
X039338Y009675D02*
X039488Y009675D01*
X038717Y009450D02*
X038417Y009900D01*
X038717Y009900D02*
X038417Y009450D01*
X037117Y016200D02*
X037117Y016500D01*
X037117Y016350D02*
X036667Y016350D01*
X036817Y016200D01*
X036117Y016200D02*
X035817Y016500D01*
X035742Y016500D01*
X035667Y016425D01*
X035667Y016275D01*
X035742Y016200D01*
X036117Y016200D02*
X036117Y016500D01*
X037592Y018550D02*
X037517Y018625D01*
X037517Y018775D01*
X037592Y018850D01*
X037667Y018850D01*
X037742Y018775D01*
X037742Y018625D01*
X037667Y018550D01*
X037592Y018550D01*
X037742Y018625D02*
X037817Y018550D01*
X037892Y018550D01*
X037967Y018625D01*
X037967Y018775D01*
X037892Y018850D01*
X037817Y018850D01*
X037742Y018775D01*
X028367Y018750D02*
X028367Y018450D01*
X028367Y018600D02*
X027917Y018600D01*
X028067Y018450D01*
X027992Y018910D02*
X027917Y018985D01*
X027917Y019136D01*
X027992Y019211D01*
X028292Y018910D01*
X028367Y018985D01*
X028367Y019136D01*
X028292Y019211D01*
X027992Y019211D01*
X027992Y019371D02*
X027917Y019446D01*
X027917Y019596D01*
X027992Y019671D01*
X028292Y019371D01*
X028367Y019446D01*
X028367Y019596D01*
X028292Y019671D01*
X027992Y019671D01*
X028067Y019831D02*
X028067Y020056D01*
X028142Y020131D01*
X028367Y020131D01*
X028367Y019831D02*
X028067Y019831D01*
X027992Y019371D02*
X028292Y019371D01*
X027617Y019435D02*
X027542Y019360D01*
X027467Y019360D01*
X027392Y019435D01*
X027392Y019586D01*
X027467Y019661D01*
X027542Y019661D01*
X027617Y019586D01*
X027617Y019435D01*
X027392Y019435D02*
X027317Y019360D01*
X027242Y019360D01*
X027167Y019435D01*
X027167Y019586D01*
X027242Y019661D01*
X027317Y019661D01*
X027392Y019586D01*
X027542Y019200D02*
X027617Y019125D01*
X027617Y018975D01*
X027542Y018900D01*
X027242Y018900D01*
X027167Y018975D01*
X027167Y019125D01*
X027242Y019200D01*
X027992Y018910D02*
X028292Y018910D01*
X023678Y018400D02*
X023678Y018325D01*
X023377Y018025D01*
X023377Y017950D01*
X023217Y017950D02*
X023067Y018100D01*
X022992Y017950D02*
X022917Y018025D01*
X022917Y018325D01*
X022992Y018400D01*
X023142Y018400D01*
X023217Y018325D01*
X023217Y018025D01*
X023142Y017950D01*
X022992Y017950D01*
X023377Y018400D02*
X023678Y018400D01*
X021678Y018325D02*
X021678Y018250D01*
X021603Y018175D01*
X021452Y018175D01*
X021377Y018250D01*
X021377Y018325D01*
X021452Y018400D01*
X021603Y018400D01*
X021678Y018325D01*
X021603Y018175D02*
X021678Y018100D01*
X021678Y018025D01*
X021603Y017950D01*
X021452Y017950D01*
X021377Y018025D01*
X021377Y018100D01*
X021452Y018175D01*
X021217Y018025D02*
X021142Y017950D01*
X020992Y017950D01*
X020917Y018025D01*
X020917Y018325D01*
X020992Y018400D01*
X021142Y018400D01*
X021217Y018325D01*
X021217Y018025D01*
X021217Y017950D02*
X021067Y018100D01*
X019678Y018025D02*
X019603Y017950D01*
X019452Y017950D01*
X019377Y018025D01*
X019217Y018025D02*
X019142Y017950D01*
X018992Y017950D01*
X018917Y018025D01*
X018917Y018325D01*
X018992Y018400D01*
X019142Y018400D01*
X019217Y018325D01*
X019217Y018025D01*
X019217Y017950D02*
X019067Y018100D01*
X019377Y018250D02*
X019452Y018175D01*
X019678Y018175D01*
X019678Y018025D02*
X019678Y018325D01*
X019603Y018400D01*
X019452Y018400D01*
X019377Y018325D01*
X019377Y018250D01*
X017178Y018000D02*
X016877Y018000D01*
X017027Y018000D02*
X017027Y018450D01*
X016877Y018300D01*
X016717Y018375D02*
X016717Y018075D01*
X016642Y018000D01*
X016492Y018000D01*
X016417Y018075D01*
X016417Y018375D01*
X016492Y018450D01*
X016642Y018450D01*
X016717Y018375D01*
X016567Y018150D02*
X016717Y018000D01*
X015178Y018000D02*
X014877Y018000D01*
X015178Y018300D01*
X015178Y018375D01*
X015103Y018450D01*
X014952Y018450D01*
X014877Y018375D01*
X014717Y018375D02*
X014717Y018075D01*
X014642Y018000D01*
X014492Y018000D01*
X014417Y018075D01*
X014417Y018375D01*
X014492Y018450D01*
X014642Y018450D01*
X014717Y018375D01*
X014567Y018150D02*
X014717Y018000D01*
X013178Y018075D02*
X013103Y018000D01*
X012952Y018000D01*
X012877Y018075D01*
X012717Y018075D02*
X012642Y018000D01*
X012492Y018000D01*
X012417Y018075D01*
X012417Y018375D01*
X012492Y018450D01*
X012642Y018450D01*
X012717Y018375D01*
X012717Y018075D01*
X012717Y018000D02*
X012567Y018150D01*
X012877Y018375D02*
X012952Y018450D01*
X013103Y018450D01*
X013178Y018375D01*
X013178Y018300D01*
X013103Y018225D01*
X013178Y018150D01*
X013178Y018075D01*
X013103Y018225D02*
X013027Y018225D01*
X012685Y017628D02*
X005599Y017628D01*
X005599Y011722D01*
X012685Y011722D01*
X012685Y017628D01*
X011178Y018225D02*
X010877Y018225D01*
X011103Y018450D01*
X011103Y018000D01*
X010717Y018000D02*
X010567Y018150D01*
X010492Y018000D02*
X010417Y018075D01*
X010417Y018375D01*
X010492Y018450D01*
X010642Y018450D01*
X010717Y018375D01*
X010717Y018075D01*
X010642Y018000D01*
X010492Y018000D01*
X010405Y017400D02*
X010254Y017400D01*
X010179Y017325D01*
X010179Y017025D01*
X010254Y016950D01*
X010405Y016950D01*
X010480Y017025D01*
X010480Y017325D01*
X010405Y017400D01*
X010640Y017400D02*
X010865Y017400D01*
X010940Y017325D01*
X010940Y017025D01*
X010865Y016950D01*
X010640Y016950D01*
X010640Y017400D01*
X010019Y017325D02*
X010019Y017175D01*
X009944Y017100D01*
X009719Y017100D01*
X009719Y016950D02*
X009719Y017400D01*
X009944Y017400D01*
X010019Y017325D01*
X009559Y017325D02*
X009559Y017175D01*
X009484Y017100D01*
X009259Y017100D01*
X009409Y017100D02*
X009559Y016950D01*
X009259Y016950D02*
X009259Y017400D01*
X009484Y017400D01*
X009559Y017325D01*
X009098Y017400D02*
X008798Y017400D01*
X008798Y016950D01*
X009098Y016950D01*
X008948Y017175D02*
X008798Y017175D01*
X008638Y016950D02*
X008638Y017400D01*
X008338Y017400D02*
X008338Y016950D01*
X008488Y017100D01*
X008638Y016950D01*
X008178Y017025D02*
X008103Y016950D01*
X007952Y016950D01*
X007877Y017025D01*
X007877Y017325D01*
X007952Y017400D01*
X008103Y017400D01*
X008178Y017325D01*
X008178Y017025D01*
X007717Y017175D02*
X007642Y017100D01*
X007417Y017100D01*
X007417Y016950D02*
X007417Y017400D01*
X007642Y017400D01*
X007717Y017325D01*
X007717Y017175D01*
X008667Y020450D02*
X009117Y020750D01*
X009117Y020910D02*
X009117Y021211D01*
X009117Y021061D02*
X008667Y021061D01*
X008817Y020910D01*
X008667Y020750D02*
X009117Y020450D01*
X009417Y020450D02*
X009417Y020675D01*
X009492Y020750D01*
X009642Y020750D01*
X009717Y020675D01*
X009717Y020450D01*
X009867Y020450D02*
X009417Y020450D01*
X009717Y020600D02*
X009867Y020750D01*
X009792Y020910D02*
X009867Y020985D01*
X009867Y021061D01*
X009792Y021136D01*
X009417Y021136D01*
X009417Y021061D02*
X009417Y021211D01*
X009642Y021371D02*
X009417Y021596D01*
X009867Y021596D01*
X009642Y021671D02*
X009642Y021371D01*
X009642Y021831D02*
X009417Y021831D01*
X009417Y022131D01*
X009567Y022056D02*
X009567Y021981D01*
X009642Y021831D01*
X009792Y021831D02*
X009867Y021906D01*
X009867Y022056D01*
X009792Y022131D01*
X009642Y022131D01*
X009567Y022056D01*
X010667Y022968D02*
X011117Y022968D01*
X011117Y022818D02*
X011117Y023118D01*
X011042Y023278D02*
X010742Y023578D01*
X011042Y023578D01*
X011117Y023503D01*
X011117Y023353D01*
X011042Y023278D01*
X010742Y023278D01*
X010667Y023353D01*
X010667Y023503D01*
X010742Y023578D01*
X010742Y023738D02*
X010667Y023813D01*
X010667Y023964D01*
X010742Y024039D01*
X011042Y023738D01*
X011117Y023813D01*
X011117Y023964D01*
X011042Y024039D01*
X010742Y024039D01*
X010667Y024199D02*
X011117Y024199D01*
X010967Y024199D02*
X010817Y024424D01*
X010967Y024199D02*
X011117Y024424D01*
X011042Y023738D02*
X010742Y023738D01*
X010667Y022968D02*
X010817Y022818D01*
X011917Y023198D02*
X012367Y023198D01*
X012367Y023048D02*
X012367Y023348D01*
X012292Y023508D02*
X011992Y023808D01*
X012292Y023808D01*
X012367Y023733D01*
X012367Y023583D01*
X012292Y023508D01*
X011992Y023508D01*
X011917Y023583D01*
X011917Y023733D01*
X011992Y023808D01*
X011917Y023969D02*
X012367Y023969D01*
X012217Y023969D02*
X012067Y024194D01*
X012217Y023969D02*
X012367Y024194D01*
X013167Y023969D02*
X013617Y023969D01*
X013467Y023969D02*
X013317Y024194D01*
X013467Y023969D02*
X013617Y024194D01*
X013542Y023808D02*
X013242Y023808D01*
X013542Y023508D01*
X013617Y023583D01*
X013617Y023733D01*
X013542Y023808D01*
X013542Y023508D02*
X013242Y023508D01*
X013167Y023583D01*
X013167Y023733D01*
X013242Y023808D01*
X013617Y023348D02*
X013617Y023048D01*
X013617Y023198D02*
X013167Y023198D01*
X013317Y023048D01*
X014417Y022968D02*
X014867Y022968D01*
X014867Y022818D02*
X014867Y023118D01*
X014792Y023278D02*
X014492Y023578D01*
X014792Y023578D01*
X014867Y023503D01*
X014867Y023353D01*
X014792Y023278D01*
X014492Y023278D01*
X014417Y023353D01*
X014417Y023503D01*
X014492Y023578D01*
X014492Y023738D02*
X014417Y023813D01*
X014417Y023964D01*
X014492Y024039D01*
X014792Y023738D01*
X014867Y023813D01*
X014867Y023964D01*
X014792Y024039D01*
X014492Y024039D01*
X014417Y024199D02*
X014867Y024199D01*
X014717Y024199D02*
X014567Y024424D01*
X014717Y024199D02*
X014867Y024424D01*
X014792Y023738D02*
X014492Y023738D01*
X014417Y022968D02*
X014567Y022818D01*
X015667Y023198D02*
X016117Y023198D01*
X016117Y023048D02*
X016117Y023348D01*
X016042Y023508D02*
X015742Y023808D01*
X016042Y023808D01*
X016117Y023733D01*
X016117Y023583D01*
X016042Y023508D01*
X015742Y023508D01*
X015667Y023583D01*
X015667Y023733D01*
X015742Y023808D01*
X015667Y023969D02*
X016117Y023969D01*
X015967Y023969D02*
X015817Y024194D01*
X015967Y023969D02*
X016117Y024194D01*
X016917Y023969D02*
X017367Y023969D01*
X017217Y023969D02*
X017067Y024194D01*
X017217Y023969D02*
X017367Y024194D01*
X017292Y023808D02*
X016992Y023808D01*
X017292Y023508D01*
X017367Y023583D01*
X017367Y023733D01*
X017292Y023808D01*
X017292Y023508D02*
X016992Y023508D01*
X016917Y023583D01*
X016917Y023733D01*
X016992Y023808D01*
X017367Y023348D02*
X017367Y023048D01*
X017367Y023198D02*
X016917Y023198D01*
X017067Y023048D01*
X015817Y023048D02*
X015667Y023198D01*
X012067Y023048D02*
X011917Y023198D01*
X009867Y025200D02*
X009417Y025200D01*
X009417Y025425D01*
X009492Y025500D01*
X009642Y025500D01*
X009717Y025425D01*
X009717Y025200D01*
X009717Y025350D02*
X009867Y025500D01*
X009792Y025660D02*
X009867Y025735D01*
X009867Y025811D01*
X009792Y025886D01*
X009417Y025886D01*
X009417Y025811D02*
X009417Y025961D01*
X009567Y026121D02*
X009417Y026271D01*
X009867Y026271D01*
X009867Y026121D02*
X009867Y026421D01*
X009867Y026581D02*
X009867Y026881D01*
X009867Y026731D02*
X009417Y026731D01*
X009567Y026581D01*
X009117Y025961D02*
X009117Y025660D01*
X008817Y025961D01*
X008742Y025961D01*
X008667Y025886D01*
X008667Y025735D01*
X008742Y025660D01*
X008667Y025500D02*
X009117Y025200D01*
X009117Y025500D02*
X008667Y025200D01*
X010667Y026450D02*
X010667Y026675D01*
X010742Y026750D01*
X010892Y026750D01*
X010967Y026675D01*
X010967Y026450D01*
X011117Y026450D02*
X010667Y026450D01*
X010967Y026600D02*
X011117Y026750D01*
X011042Y026910D02*
X011117Y026985D01*
X011117Y027136D01*
X011042Y027211D01*
X010967Y027211D01*
X010892Y027136D01*
X010892Y026910D01*
X011042Y026910D01*
X010892Y026910D02*
X010742Y027061D01*
X010667Y027211D01*
X011917Y027211D02*
X011917Y026910D01*
X011992Y026750D02*
X012142Y026750D01*
X012217Y026675D01*
X012217Y026450D01*
X012367Y026450D02*
X011917Y026450D01*
X011917Y026675D01*
X011992Y026750D01*
X012217Y026600D02*
X012367Y026750D01*
X012367Y026910D02*
X012292Y026910D01*
X011992Y027211D01*
X011917Y027211D01*
X020417Y023198D02*
X020567Y023048D01*
X024492Y029700D02*
X024417Y029775D01*
X024417Y030075D01*
X024492Y030150D01*
X024642Y030150D01*
X024717Y030075D01*
X024717Y029775D01*
X024642Y029700D01*
X024492Y029700D01*
X024567Y029850D02*
X024717Y029700D01*
X024877Y029775D02*
X024952Y029700D01*
X025103Y029700D01*
X025178Y029775D01*
X025178Y029925D01*
X025103Y030000D01*
X025027Y030000D01*
X024877Y029925D01*
X024877Y030150D01*
X025178Y030150D01*
X013367Y015671D02*
X013367Y015371D01*
X013367Y015521D02*
X012917Y015521D01*
X013067Y015371D01*
X013142Y015211D02*
X013217Y015136D01*
X013217Y014910D01*
X013367Y014910D02*
X012917Y014910D01*
X012917Y015136D01*
X012992Y015211D01*
X013142Y015211D01*
X012917Y014750D02*
X012917Y014600D01*
X012917Y014675D02*
X013292Y014675D01*
X013367Y014600D01*
X013367Y014525D01*
X013292Y014450D01*
X015317Y014386D02*
X015317Y014235D01*
X015392Y014160D01*
X015467Y014160D01*
X015542Y014235D01*
X015542Y014461D01*
X015692Y014461D02*
X015392Y014461D01*
X015317Y014386D01*
X015692Y014461D02*
X015767Y014386D01*
X015767Y014235D01*
X015692Y014160D01*
X015692Y014000D02*
X015767Y013925D01*
X015767Y013775D01*
X015692Y013700D01*
X015392Y013700D01*
X015317Y013775D01*
X015317Y013925D01*
X015392Y014000D01*
X015917Y013996D02*
X015992Y014071D01*
X016292Y013771D01*
X016367Y013846D01*
X016367Y013996D01*
X016292Y014071D01*
X015992Y014071D01*
X015917Y013996D02*
X015917Y013846D01*
X015992Y013771D01*
X016292Y013771D01*
X016292Y013611D02*
X016367Y013536D01*
X016367Y013385D01*
X016292Y013310D01*
X015992Y013611D01*
X016292Y013611D01*
X015992Y013611D02*
X015917Y013536D01*
X015917Y013385D01*
X015992Y013310D01*
X016292Y013310D01*
X016367Y013150D02*
X016367Y012850D01*
X016367Y013000D02*
X015917Y013000D01*
X016067Y012850D01*
X016067Y014231D02*
X016292Y014231D01*
X016367Y014306D01*
X016367Y014531D01*
X016067Y014531D01*
X017917Y014461D02*
X017917Y014160D01*
X017992Y014000D02*
X017917Y013925D01*
X017917Y013775D01*
X017992Y013700D01*
X018292Y013700D01*
X018367Y013775D01*
X018367Y013925D01*
X018292Y014000D01*
X018292Y014160D02*
X018367Y014160D01*
X018292Y014160D02*
X017992Y014461D01*
X017917Y014461D01*
X018567Y014421D02*
X018567Y014121D01*
X018717Y013961D02*
X019017Y013961D01*
X019017Y013735D01*
X018942Y013660D01*
X018717Y013660D01*
X018792Y013500D02*
X018792Y013200D01*
X018567Y013425D01*
X019017Y013425D01*
X019017Y014121D02*
X018942Y014121D01*
X018642Y014421D01*
X018567Y014421D01*
X006617Y013768D02*
X006617Y013467D01*
X006317Y013768D01*
X006242Y013768D01*
X006167Y013693D01*
X006167Y013542D01*
X006242Y013467D01*
X006242Y013307D02*
X006167Y013232D01*
X006167Y013082D01*
X006242Y013007D01*
X006542Y013007D01*
X006617Y013082D01*
X006617Y013232D01*
X006542Y013307D01*
X006617Y012850D02*
X006617Y012700D01*
X006617Y012775D02*
X006167Y012775D01*
X006167Y012700D02*
X006167Y012850D01*
D12*
X012652Y021675D02*
X012882Y021675D01*
X016402Y021675D02*
X016632Y021675D01*
X021152Y021675D02*
X021382Y021675D01*
X024902Y021675D02*
X025132Y021675D01*
D13*
X029712Y025545D02*
X029712Y025725D01*
X029772Y025785D01*
X029832Y025785D01*
X029892Y025725D01*
X029892Y025545D01*
X030072Y025545D02*
X030072Y025725D01*
X030012Y025785D01*
X029952Y025785D01*
X029892Y025725D01*
X029892Y025913D02*
X029892Y026154D01*
X029832Y026154D02*
X030072Y026154D01*
X029832Y026154D02*
X029712Y026033D01*
X029832Y025913D01*
X030072Y025913D01*
X030072Y025545D02*
X029712Y025545D01*
X029712Y026282D02*
X029712Y026522D01*
X029712Y026402D02*
X030072Y026402D01*
X030012Y026650D02*
X029952Y026650D01*
X029892Y026710D01*
X029892Y026830D01*
X029952Y026890D01*
X030012Y026890D01*
X030072Y026830D01*
X030072Y026710D01*
X030012Y026650D01*
X029892Y026710D02*
X029832Y026650D01*
X029772Y026650D01*
X029712Y026710D01*
X029712Y026830D01*
X029772Y026890D01*
X029832Y026890D01*
X029892Y026830D01*
X029892Y027018D02*
X029712Y027018D01*
X029712Y027258D01*
X029832Y027198D02*
X029892Y027258D01*
X030012Y027258D01*
X030072Y027198D01*
X030072Y027078D01*
X030012Y027018D01*
X029892Y027018D02*
X029832Y027138D01*
X029832Y027198D01*
X030712Y027258D02*
X030712Y027018D01*
X030892Y027018D01*
X030832Y027138D01*
X030832Y027198D01*
X030892Y027258D01*
X031012Y027258D01*
X031072Y027198D01*
X031072Y027078D01*
X031012Y027018D01*
X031012Y026890D02*
X031072Y026830D01*
X031072Y026710D01*
X031012Y026650D01*
X030952Y026650D01*
X030892Y026710D01*
X030892Y026830D01*
X030952Y026890D01*
X031012Y026890D01*
X030892Y026830D02*
X030832Y026890D01*
X030772Y026890D01*
X030712Y026830D01*
X030712Y026710D01*
X030772Y026650D01*
X030832Y026650D01*
X030892Y026710D01*
X030712Y026522D02*
X030712Y026282D01*
X030712Y026402D02*
X031072Y026402D01*
X031072Y026154D02*
X030832Y026154D01*
X030712Y026033D01*
X030832Y025913D01*
X031072Y025913D01*
X031012Y025785D02*
X031072Y025725D01*
X031072Y025545D01*
X030712Y025545D01*
X030712Y025725D01*
X030772Y025785D01*
X030832Y025785D01*
X030892Y025725D01*
X030892Y025545D01*
X030892Y025725D02*
X030952Y025785D01*
X031012Y025785D01*
X030892Y025913D02*
X030892Y026154D01*
X034012Y026050D02*
X034312Y026050D01*
X034372Y026110D01*
X034372Y026230D01*
X034312Y026290D01*
X034012Y026290D01*
X034012Y026418D02*
X034012Y026598D01*
X034072Y026658D01*
X034312Y026658D01*
X034372Y026598D01*
X034372Y026418D01*
X034012Y026418D01*
X034072Y025922D02*
X034012Y025862D01*
X034012Y025742D01*
X034072Y025682D01*
X034312Y025682D01*
X034372Y025742D01*
X034372Y025862D01*
X034312Y025922D01*
X034072Y025922D01*
X034372Y025554D02*
X034372Y025313D01*
X034012Y025313D01*
X034072Y025185D02*
X034012Y025125D01*
X034012Y025005D01*
X034072Y024945D01*
X034312Y024945D01*
X034372Y025005D01*
X034372Y025125D01*
X034312Y025185D01*
X034312Y027155D02*
X034372Y027215D01*
X034372Y027335D01*
X034312Y027395D01*
X034252Y027395D01*
X034192Y027335D01*
X034192Y027215D01*
X034132Y027155D01*
X034072Y027155D01*
X034012Y027215D01*
X034012Y027335D01*
X034072Y027395D01*
X034012Y027523D02*
X034372Y027523D01*
X034372Y027763D01*
X034372Y027892D02*
X034012Y027892D01*
X034372Y028132D01*
X034012Y028132D01*
X034072Y028260D02*
X034132Y028260D01*
X034192Y028320D01*
X034192Y028440D01*
X034252Y028500D01*
X034312Y028500D01*
X034372Y028440D01*
X034372Y028320D01*
X034312Y028260D01*
X034072Y028260D02*
X034012Y028320D01*
X034012Y028440D01*
X034072Y028500D01*
X034072Y028628D02*
X034312Y028628D01*
X034372Y028688D01*
X034372Y028808D01*
X034312Y028868D01*
X034072Y028868D01*
X034012Y028808D01*
X034012Y028688D01*
X034072Y028628D01*
X034012Y028996D02*
X034012Y029177D01*
X034072Y029237D01*
X034192Y029237D01*
X034252Y029177D01*
X034252Y028996D01*
X034372Y028996D02*
X034012Y028996D01*
X034252Y029117D02*
X034372Y029237D01*
X034012Y027763D02*
X034012Y027523D01*
X034192Y027523D02*
X034192Y027643D01*
X024622Y027172D02*
X024622Y026932D01*
X024622Y027052D02*
X024262Y027052D01*
X024382Y026932D01*
X024622Y026804D02*
X024622Y026563D01*
X024622Y026683D02*
X024262Y026683D01*
X024382Y026563D01*
X024442Y026435D02*
X024502Y026375D01*
X024502Y026195D01*
X024622Y026195D02*
X024262Y026195D01*
X024262Y026375D01*
X024322Y026435D01*
X024442Y026435D01*
X024502Y026315D02*
X024622Y026435D01*
X023272Y026435D02*
X023152Y026315D01*
X023152Y026375D02*
X023152Y026195D01*
X023272Y026195D02*
X022912Y026195D01*
X022912Y026375D01*
X022972Y026435D01*
X023092Y026435D01*
X023152Y026375D01*
X023272Y026563D02*
X023272Y026804D01*
X023272Y026683D02*
X022912Y026683D01*
X023032Y026563D01*
X022972Y026932D02*
X022912Y026992D01*
X022912Y027112D01*
X022972Y027172D01*
X023212Y026932D01*
X023272Y026992D01*
X023272Y027112D01*
X023212Y027172D01*
X022972Y027172D01*
X022972Y026932D02*
X023212Y026932D01*
X022122Y026932D02*
X021882Y027172D01*
X021822Y027172D01*
X021762Y027112D01*
X021762Y026992D01*
X021822Y026932D01*
X021762Y026683D02*
X022122Y026683D01*
X022122Y026563D02*
X022122Y026804D01*
X022122Y026932D02*
X022122Y027172D01*
X021762Y026683D02*
X021882Y026563D01*
X021942Y026435D02*
X022002Y026375D01*
X022002Y026195D01*
X022122Y026195D02*
X021762Y026195D01*
X021762Y026375D01*
X021822Y026435D01*
X021942Y026435D01*
X022002Y026315D02*
X022122Y026435D01*
X020772Y026435D02*
X020652Y026315D01*
X020652Y026375D02*
X020652Y026195D01*
X020772Y026195D02*
X020412Y026195D01*
X020412Y026375D01*
X020472Y026435D01*
X020592Y026435D01*
X020652Y026375D01*
X020772Y026563D02*
X020772Y026804D01*
X020772Y026683D02*
X020412Y026683D01*
X020532Y026563D01*
X020592Y026932D02*
X020592Y027172D01*
X020772Y027112D02*
X020412Y027112D01*
X020592Y026932D01*
X019622Y026992D02*
X019562Y026932D01*
X019622Y026992D02*
X019622Y027112D01*
X019562Y027172D01*
X019502Y027172D01*
X019442Y027112D01*
X019442Y027052D01*
X019442Y027112D02*
X019382Y027172D01*
X019322Y027172D01*
X019262Y027112D01*
X019262Y026992D01*
X019322Y026932D01*
X019262Y026683D02*
X019622Y026683D01*
X019622Y026563D02*
X019622Y026804D01*
X019382Y026563D02*
X019262Y026683D01*
X019322Y026435D02*
X019442Y026435D01*
X019502Y026375D01*
X019502Y026195D01*
X019622Y026195D02*
X019262Y026195D01*
X019262Y026375D01*
X019322Y026435D01*
X019502Y026315D02*
X019622Y026435D01*
X009622Y028695D02*
X009262Y028695D01*
X009382Y028815D01*
X009262Y028935D01*
X009622Y028935D01*
X009622Y029063D02*
X009382Y029063D01*
X009262Y029183D01*
X009382Y029304D01*
X009622Y029304D01*
X009562Y029432D02*
X009322Y029432D01*
X009262Y029492D01*
X009262Y029612D01*
X009322Y029672D01*
X009442Y029672D02*
X009442Y029552D01*
X009442Y029672D02*
X009562Y029672D01*
X009622Y029612D01*
X009622Y029492D01*
X009562Y029432D01*
X009442Y029304D02*
X009442Y029063D01*
X009502Y030168D02*
X009262Y030168D01*
X009502Y030168D02*
X009622Y030288D01*
X009502Y030408D01*
X009262Y030408D01*
X009322Y030537D02*
X009562Y030537D01*
X009622Y030597D01*
X009622Y030717D01*
X009562Y030777D01*
X009562Y030905D02*
X009622Y030965D01*
X009622Y031085D01*
X009562Y031145D01*
X009562Y030905D02*
X009322Y030905D01*
X009262Y030965D01*
X009262Y031085D01*
X009322Y031145D01*
X009276Y031445D02*
X009276Y031805D01*
X009516Y031445D01*
X009516Y031805D01*
X009150Y031805D02*
X009030Y031805D01*
X009090Y031805D02*
X009090Y031445D01*
X009030Y031445D02*
X009150Y031445D01*
X008902Y031565D02*
X008902Y031805D01*
X008902Y031565D02*
X008782Y031445D01*
X008662Y031565D01*
X008662Y031805D01*
X009322Y030777D02*
X009262Y030717D01*
X009262Y030597D01*
X009322Y030537D01*
X009314Y016805D02*
X009434Y016805D01*
X009494Y016745D01*
X009254Y016505D01*
X009314Y016445D01*
X009434Y016445D01*
X009494Y016505D01*
X009494Y016745D01*
X009622Y016745D02*
X009682Y016805D01*
X009802Y016805D01*
X009862Y016745D01*
X009862Y016685D01*
X009622Y016445D01*
X009862Y016445D01*
X009254Y016505D02*
X009254Y016745D01*
X009314Y016805D01*
X009065Y016805D02*
X008885Y016625D01*
X009125Y016625D01*
X009065Y016445D02*
X009065Y016805D01*
X008637Y016805D02*
X008637Y016445D01*
X008517Y016445D02*
X008757Y016445D01*
X008517Y016685D02*
X008637Y016805D01*
X008389Y016745D02*
X008389Y016625D01*
X008329Y016565D01*
X008149Y016565D01*
X008149Y016445D02*
X008149Y016805D01*
X008329Y016805D01*
X008389Y016745D01*
X008020Y016745D02*
X007960Y016805D01*
X007840Y016805D01*
X007780Y016745D01*
X007780Y016505D01*
X007840Y016445D01*
X007960Y016445D01*
X008020Y016505D01*
X007652Y016445D02*
X007652Y016805D01*
X007412Y016805D02*
X007652Y016445D01*
X007412Y016445D02*
X007412Y016805D01*
X007312Y015950D02*
X007372Y015890D01*
X007372Y015770D01*
X007312Y015710D01*
X007072Y015950D01*
X007312Y015950D01*
X007312Y015710D02*
X007072Y015710D01*
X007012Y015770D01*
X007012Y015890D01*
X007072Y015950D01*
X007012Y015582D02*
X007012Y015342D01*
X007192Y015342D01*
X007132Y015462D01*
X007132Y015522D01*
X007192Y015582D01*
X007312Y015582D01*
X007372Y015522D01*
X007372Y015402D01*
X007312Y015342D01*
X007192Y015213D02*
X007192Y014973D01*
X007012Y015153D01*
X007372Y015153D01*
X007372Y014845D02*
X007372Y014605D01*
X007132Y014845D01*
X007072Y014845D01*
X007012Y014785D01*
X007012Y014665D01*
X007072Y014605D01*
X007192Y014477D02*
X007192Y014237D01*
X007372Y014108D02*
X007372Y013868D01*
X007372Y013988D02*
X007012Y013988D01*
X007132Y013868D01*
X007192Y013372D02*
X007252Y013312D01*
X007252Y013132D01*
X007252Y013252D02*
X007372Y013372D01*
X007192Y013372D02*
X007072Y013372D01*
X007012Y013312D01*
X007012Y013132D01*
X007372Y013132D01*
X007312Y013004D02*
X007372Y012943D01*
X007372Y012823D01*
X007312Y012763D01*
X007192Y012823D02*
X007192Y012943D01*
X007252Y013004D01*
X007312Y013004D01*
X007192Y012823D02*
X007132Y012763D01*
X007072Y012763D01*
X007012Y012823D01*
X007012Y012943D01*
X007072Y013004D01*
X007012Y012635D02*
X007012Y012395D01*
X007012Y012515D02*
X007372Y012515D01*
X010419Y016445D02*
X010358Y016505D01*
X010419Y016445D02*
X010539Y016445D01*
X010599Y016505D01*
X010599Y016565D01*
X010539Y016625D01*
X010479Y016625D01*
X010539Y016625D02*
X010599Y016685D01*
X010599Y016745D01*
X010539Y016805D01*
X010419Y016805D01*
X010358Y016745D01*
X010727Y016805D02*
X010727Y016565D01*
X010847Y016445D01*
X010967Y016565D01*
X010967Y016805D01*
X011095Y016745D02*
X011155Y016805D01*
X011275Y016805D01*
X011335Y016745D01*
X011335Y016685D01*
X011275Y016625D01*
X011335Y016565D01*
X011335Y016505D01*
X011275Y016445D01*
X011155Y016445D01*
X011095Y016505D01*
X011215Y016625D02*
X011275Y016625D01*
X013512Y015522D02*
X013752Y015282D01*
X013692Y015342D02*
X013872Y015522D01*
X013872Y015282D02*
X013512Y015282D01*
X013512Y015154D02*
X013872Y015154D01*
X013512Y014914D01*
X013872Y014914D01*
X013872Y014788D02*
X013872Y014668D01*
X013872Y014728D02*
X013512Y014728D01*
X013512Y014668D02*
X013512Y014788D01*
X013872Y014540D02*
X013872Y014300D01*
X013512Y014300D01*
X013512Y013804D02*
X013752Y013804D01*
X013872Y013683D01*
X013752Y013563D01*
X013512Y013563D01*
X013512Y013435D02*
X013512Y013195D01*
X013692Y013195D01*
X013632Y013315D01*
X013632Y013375D01*
X013692Y013435D01*
X013812Y013435D01*
X013872Y013375D01*
X013872Y013255D01*
X013812Y013195D01*
X024012Y008362D02*
X024012Y008242D01*
X024072Y008182D01*
X024132Y008182D01*
X024192Y008242D01*
X024192Y008422D01*
X024312Y008422D02*
X024072Y008422D01*
X024012Y008362D01*
X024312Y008422D02*
X024372Y008362D01*
X024372Y008242D01*
X024312Y008182D01*
X024372Y008054D02*
X024372Y007813D01*
X024372Y007933D02*
X024012Y007933D01*
X024132Y007813D01*
X024072Y007685D02*
X024192Y007685D01*
X024252Y007625D01*
X024252Y007445D01*
X024372Y007445D02*
X024012Y007445D01*
X024012Y007625D01*
X024072Y007685D01*
X024252Y007565D02*
X024372Y007685D01*
X025662Y006995D02*
X025662Y006755D01*
X025722Y006695D01*
X025842Y006695D01*
X025902Y006755D01*
X026030Y006755D02*
X026090Y006695D01*
X026210Y006695D01*
X026270Y006755D01*
X026270Y006875D01*
X026210Y006935D01*
X026150Y006935D01*
X026030Y006875D01*
X026030Y007055D01*
X026270Y007055D01*
X025902Y006995D02*
X025842Y007055D01*
X025722Y007055D01*
X025662Y006995D01*
X026012Y007445D02*
X026012Y007625D01*
X026072Y007685D01*
X026192Y007685D01*
X026252Y007625D01*
X026252Y007445D01*
X026372Y007445D02*
X026012Y007445D01*
X026252Y007565D02*
X026372Y007685D01*
X026372Y007813D02*
X026372Y008054D01*
X026372Y007933D02*
X026012Y007933D01*
X026132Y007813D01*
X026132Y008182D02*
X026072Y008182D01*
X026012Y008242D01*
X026012Y008362D01*
X026072Y008422D01*
X026132Y008422D01*
X026192Y008362D01*
X026192Y008242D01*
X026132Y008182D01*
X026192Y008242D02*
X026252Y008182D01*
X026312Y008182D01*
X026372Y008242D01*
X026372Y008362D01*
X026312Y008422D01*
X026252Y008422D01*
X026192Y008362D01*
X028012Y008422D02*
X028012Y008182D01*
X028012Y008422D02*
X028072Y008422D01*
X028312Y008182D01*
X028372Y008182D01*
X028372Y008054D02*
X028372Y007813D01*
X028372Y007933D02*
X028012Y007933D01*
X028132Y007813D01*
X028192Y007685D02*
X028252Y007625D01*
X028252Y007445D01*
X028372Y007445D02*
X028012Y007445D01*
X028012Y007625D01*
X028072Y007685D01*
X028192Y007685D01*
X028252Y007565D02*
X028372Y007685D01*
X031162Y007727D02*
X031392Y007497D01*
X031392Y007804D01*
X031545Y007957D02*
X031238Y007957D01*
X031162Y008034D01*
X031162Y008188D01*
X031238Y008264D01*
X031545Y007957D01*
X031622Y008034D01*
X031622Y008188D01*
X031545Y008264D01*
X031238Y008264D01*
X031162Y007727D02*
X031622Y007727D01*
X031545Y007343D02*
X031469Y007343D01*
X031392Y007267D01*
X031392Y007037D01*
X031545Y007037D01*
X031622Y007113D01*
X031622Y007267D01*
X031545Y007343D01*
X031392Y007037D02*
X031238Y007190D01*
X031162Y007343D01*
X031162Y006730D02*
X031622Y006730D01*
X031622Y006883D02*
X031622Y006576D01*
X031469Y006346D02*
X031469Y006116D01*
X031622Y006116D02*
X031162Y006116D01*
X031162Y006346D01*
X031238Y006423D01*
X031392Y006423D01*
X031469Y006346D01*
X031315Y006576D02*
X031162Y006730D01*
X031238Y005962D02*
X031162Y005886D01*
X031162Y005732D01*
X031238Y005655D01*
X031545Y005655D01*
X031622Y005732D01*
X031622Y005886D01*
X031545Y005962D01*
X031622Y005502D02*
X031162Y005502D01*
X031315Y005348D01*
X031162Y005195D01*
X031622Y005195D01*
X031140Y003905D02*
X030833Y003905D01*
X030679Y003752D02*
X030679Y003445D01*
X030449Y003445D01*
X030372Y003522D01*
X030372Y003752D01*
X030219Y003675D02*
X029912Y003675D01*
X030142Y003905D01*
X030142Y003445D01*
X030833Y003445D02*
X030833Y003522D01*
X031140Y003829D01*
X031140Y003905D01*
X025770Y002875D02*
X025530Y002875D01*
X025710Y003055D01*
X025710Y002695D01*
X025402Y002755D02*
X025342Y002695D01*
X025222Y002695D01*
X025162Y002755D01*
X025162Y002995D01*
X025222Y003055D01*
X025342Y003055D01*
X025402Y002995D01*
X034012Y015195D02*
X034372Y015195D01*
X034192Y015195D02*
X034192Y015435D01*
X034312Y015563D02*
X034372Y015623D01*
X034372Y015743D01*
X034312Y015804D01*
X034012Y015804D01*
X034012Y015932D02*
X034132Y016052D01*
X034012Y016172D01*
X034372Y016172D01*
X034372Y016300D02*
X034372Y016420D01*
X034372Y016360D02*
X034012Y016360D01*
X034012Y016300D02*
X034012Y016420D01*
X034012Y016545D02*
X034012Y016726D01*
X034072Y016786D01*
X034312Y016786D01*
X034372Y016726D01*
X034372Y016545D01*
X034012Y016545D01*
X034012Y016914D02*
X034012Y017034D01*
X034012Y016974D02*
X034372Y016974D01*
X034372Y016914D02*
X034372Y017034D01*
X034372Y017279D02*
X034012Y017279D01*
X034012Y017159D02*
X034012Y017400D01*
X034012Y017528D02*
X034072Y017528D01*
X034192Y017648D01*
X034372Y017648D01*
X034192Y017648D02*
X034072Y017768D01*
X034012Y017768D01*
X034012Y015932D02*
X034372Y015932D01*
X034312Y015563D02*
X034012Y015563D01*
X034012Y015435D02*
X034372Y015435D01*
D14*
X038467Y020710D02*
X038467Y021037D01*
X038467Y021226D02*
X038957Y021226D01*
X038957Y021553D01*
X038875Y021741D02*
X038548Y021741D01*
X038467Y021823D01*
X038467Y021986D01*
X038548Y022068D01*
X038630Y022257D02*
X038467Y022420D01*
X038957Y022420D01*
X038957Y022257D02*
X038957Y022584D01*
X038875Y022773D02*
X038548Y022773D01*
X038467Y022854D01*
X038467Y023018D01*
X038548Y023100D01*
X038875Y022773D01*
X038957Y022854D01*
X038957Y023018D01*
X038875Y023100D01*
X038548Y023100D01*
X038548Y023288D02*
X038467Y023370D01*
X038467Y023533D01*
X038548Y023615D01*
X038875Y023288D01*
X038957Y023370D01*
X038957Y023533D01*
X038875Y023615D01*
X038548Y023615D01*
X038548Y023288D02*
X038875Y023288D01*
X038957Y024319D02*
X038957Y024565D01*
X038875Y024646D01*
X038793Y024565D01*
X038793Y024401D01*
X038712Y024319D01*
X038630Y024401D01*
X038630Y024646D01*
X038712Y024835D02*
X038630Y024917D01*
X038630Y025080D01*
X038712Y025162D01*
X038957Y025162D01*
X038957Y025351D02*
X038957Y025514D01*
X038957Y025432D02*
X038630Y025432D01*
X038630Y025351D01*
X038467Y025432D02*
X038385Y025432D01*
X038712Y025695D02*
X038630Y025776D01*
X038630Y025940D01*
X038712Y026021D01*
X038793Y026021D01*
X038793Y025695D01*
X038712Y025695D02*
X038875Y025695D01*
X038957Y025776D01*
X038957Y025940D01*
X038957Y026210D02*
X038957Y026374D01*
X038957Y026292D02*
X038467Y026292D01*
X038467Y026210D01*
X038712Y026554D02*
X038630Y026636D01*
X038630Y026881D01*
X038467Y026881D02*
X038957Y026881D01*
X038957Y026636D01*
X038875Y026554D01*
X038712Y026554D01*
X038630Y027585D02*
X038957Y027749D01*
X038630Y027912D01*
X038548Y028101D02*
X038467Y028183D01*
X038467Y028346D01*
X038548Y028428D01*
X038630Y028428D01*
X038957Y028101D01*
X038957Y028428D01*
X038957Y028616D02*
X038957Y028698D01*
X038875Y028698D01*
X038875Y028616D01*
X038957Y028616D01*
X038875Y028874D02*
X038548Y028874D01*
X038467Y028956D01*
X038467Y029120D01*
X038548Y029201D01*
X038875Y028874D01*
X038957Y028956D01*
X038957Y029120D01*
X038875Y029201D01*
X038548Y029201D01*
X038467Y024835D02*
X038957Y024835D01*
X038875Y022068D02*
X038957Y021986D01*
X038957Y021823D01*
X038875Y021741D01*
X038712Y020873D02*
X038712Y020710D01*
X038957Y020710D02*
X038467Y020710D01*
X024918Y017669D02*
X024918Y017342D01*
X024836Y017260D01*
X024673Y017260D01*
X024591Y017342D01*
X024591Y017669D01*
X024673Y017750D01*
X024836Y017750D01*
X024918Y017669D01*
X024591Y017342D01*
X024415Y017342D02*
X024415Y017260D01*
X024333Y017260D01*
X024333Y017342D01*
X024415Y017342D01*
X024145Y017260D02*
X023818Y017260D01*
X024145Y017587D01*
X024145Y017669D01*
X024063Y017750D01*
X023900Y017750D01*
X023818Y017669D01*
X023629Y017587D02*
X023466Y017260D01*
X023302Y017587D01*
X022598Y017587D02*
X022353Y017587D01*
X022271Y017505D01*
X022271Y017342D01*
X022353Y017260D01*
X022598Y017260D01*
X022598Y017750D01*
X022009Y017750D02*
X022009Y017260D01*
X021927Y017260D02*
X022091Y017260D01*
X021738Y017423D02*
X021411Y017423D01*
X021411Y017342D02*
X021411Y017505D01*
X021493Y017587D01*
X021657Y017587D01*
X021738Y017505D01*
X021738Y017423D01*
X021657Y017260D02*
X021493Y017260D01*
X021411Y017342D01*
X021231Y017260D02*
X021068Y017260D01*
X021149Y017260D02*
X021149Y017587D01*
X021068Y017587D01*
X021149Y017750D02*
X021149Y017832D01*
X020879Y017505D02*
X020879Y017260D01*
X020879Y017505D02*
X020797Y017587D01*
X020634Y017587D01*
X020552Y017505D01*
X020363Y017587D02*
X020118Y017587D01*
X020036Y017505D01*
X020118Y017423D01*
X020282Y017423D01*
X020363Y017342D01*
X020282Y017260D01*
X020036Y017260D01*
X020552Y017260D02*
X020552Y017750D01*
X019332Y017669D02*
X019005Y017342D01*
X019005Y017669D01*
X019087Y017750D01*
X019250Y017750D01*
X019332Y017669D01*
X019332Y017342D01*
X019250Y017260D01*
X019087Y017260D01*
X019005Y017342D01*
X018816Y017342D02*
X018735Y017260D01*
X018571Y017260D01*
X018490Y017342D01*
X018490Y017669D01*
X018571Y017750D01*
X018735Y017750D01*
X018816Y017669D01*
X018490Y017342D01*
X018301Y017260D02*
X017974Y017260D01*
X018137Y017260D02*
X018137Y017750D01*
X017974Y017587D01*
X017785Y017669D02*
X017703Y017750D01*
X017540Y017750D01*
X017458Y017669D01*
X017458Y017342D01*
X017540Y017260D01*
X017703Y017260D01*
X017785Y017342D01*
X017270Y017260D02*
X016943Y017260D01*
X016943Y017750D01*
X016754Y017750D02*
X016427Y017750D01*
X016427Y017260D01*
X016427Y017505D02*
X016590Y017505D01*
X018816Y017342D02*
X018816Y017669D01*
X021927Y017750D02*
X022009Y017750D01*
X032427Y006240D02*
X032781Y006240D01*
X032979Y006240D02*
X032979Y005710D01*
X033333Y005710D01*
X033532Y005798D02*
X033620Y005710D01*
X033797Y005710D01*
X033886Y005798D01*
X034084Y005710D02*
X034438Y005710D01*
X034261Y005710D02*
X034261Y006240D01*
X034084Y006064D01*
X033886Y006152D02*
X033797Y006240D01*
X033620Y006240D01*
X033532Y006152D01*
X033532Y005798D01*
X032604Y005975D02*
X032427Y005975D01*
X032427Y005710D02*
X032427Y006240D01*
X034637Y006152D02*
X034637Y005798D01*
X034990Y006152D01*
X034990Y005798D01*
X034902Y005710D01*
X034725Y005710D01*
X034637Y005798D01*
X034637Y006152D02*
X034725Y006240D01*
X034902Y006240D01*
X034990Y006152D01*
X035189Y006152D02*
X035278Y006240D01*
X035455Y006240D01*
X035543Y006152D01*
X035189Y005798D01*
X035278Y005710D01*
X035455Y005710D01*
X035543Y005798D01*
X035543Y006152D01*
X035189Y006152D02*
X035189Y005798D01*
X036294Y005710D02*
X036559Y005710D01*
X036648Y005798D01*
X036559Y005887D01*
X036383Y005887D01*
X036294Y005975D01*
X036383Y006064D01*
X036648Y006064D01*
X036847Y005975D02*
X036935Y006064D01*
X037112Y006064D01*
X037200Y005975D01*
X037200Y005710D01*
X037399Y005710D02*
X037576Y005710D01*
X037488Y005710D02*
X037488Y006064D01*
X037399Y006064D01*
X037488Y006240D02*
X037488Y006329D01*
X037768Y005975D02*
X037856Y006064D01*
X038033Y006064D01*
X038121Y005975D01*
X038121Y005887D01*
X037768Y005887D01*
X037768Y005975D02*
X037768Y005798D01*
X037856Y005710D01*
X038033Y005710D01*
X038320Y005710D02*
X038497Y005710D01*
X038408Y005710D02*
X038408Y006240D01*
X038320Y006240D01*
X038688Y005975D02*
X038777Y006064D01*
X039042Y006064D01*
X039042Y006240D02*
X039042Y005710D01*
X038777Y005710D01*
X038688Y005798D01*
X038688Y005975D01*
X039793Y006064D02*
X039970Y005710D01*
X040147Y006064D01*
X040346Y006152D02*
X040434Y006240D01*
X040611Y006240D01*
X040699Y006152D01*
X040699Y006064D01*
X040346Y005710D01*
X040699Y005710D01*
X040898Y005710D02*
X040987Y005710D01*
X040987Y005798D01*
X040898Y005798D01*
X040898Y005710D01*
X041174Y005798D02*
X041174Y006152D01*
X041263Y006240D01*
X041440Y006240D01*
X041528Y006152D01*
X041174Y005798D01*
X041263Y005710D01*
X041440Y005710D01*
X041528Y005798D01*
X041528Y006152D01*
X036847Y006240D02*
X036847Y005710D01*
D15*
X030142Y005425D02*
X026892Y005425D01*
X026392Y004925D01*
X026642Y005025D01*
X026492Y005175D02*
X026392Y004925D01*
X029892Y024675D02*
X029892Y024925D01*
X030392Y024925D01*
X030892Y024925D01*
X030892Y024675D01*
X030892Y024925D02*
X031392Y024925D01*
X031392Y025425D01*
X030392Y025425D01*
X030392Y024925D01*
X030392Y025425D01*
X030392Y027425D01*
X030892Y027425D01*
X030892Y027675D01*
X030892Y027425D02*
X031392Y027425D01*
X031392Y025425D01*
X030392Y025425D02*
X029392Y025425D01*
X029392Y024925D01*
X029892Y024925D01*
X030392Y025425D02*
X030392Y027425D01*
X029892Y027425D01*
X029892Y027675D01*
X029892Y027425D02*
X029392Y027425D01*
X029392Y025425D01*
D16*
X029142Y025675D02*
X029392Y025925D01*
X029392Y026425D01*
X029142Y026675D01*
X029392Y026925D01*
X029392Y027425D01*
X029142Y027675D01*
X029392Y027925D01*
X029392Y028425D01*
X029142Y028675D01*
X028642Y028675D01*
X028392Y028425D01*
X028392Y027925D01*
X028642Y027675D01*
X028392Y027425D01*
X028392Y026925D01*
X028642Y026675D01*
X028392Y026425D01*
X028392Y025925D01*
X028642Y025675D01*
X029142Y025675D01*
X026114Y024915D02*
X026114Y022435D01*
X025170Y022435D01*
X025170Y024915D01*
X026114Y024915D01*
X024864Y024915D02*
X024864Y022435D01*
X023920Y022435D01*
X023920Y024915D01*
X024864Y024915D01*
X023614Y024915D02*
X023614Y022435D01*
X022670Y022435D01*
X022670Y024915D01*
X023614Y024915D01*
X022364Y024915D02*
X022364Y022435D01*
X021420Y022435D01*
X021420Y024915D01*
X022364Y024915D01*
X021114Y024915D02*
X021114Y022435D01*
X020170Y022435D01*
X020170Y024915D01*
X021114Y024915D01*
X019864Y024915D02*
X019864Y022435D01*
X018920Y022435D01*
X018920Y024915D01*
X019864Y024915D01*
X017614Y024915D02*
X017614Y022435D01*
X016670Y022435D01*
X016670Y024915D01*
X017614Y024915D01*
X016364Y024915D02*
X016364Y022435D01*
X015420Y022435D01*
X015420Y024915D01*
X016364Y024915D01*
X015114Y024915D02*
X015114Y022435D01*
X014170Y022435D01*
X014170Y024915D01*
X015114Y024915D01*
X013864Y024915D02*
X013864Y022435D01*
X012920Y022435D01*
X012920Y024915D01*
X013864Y024915D01*
X012614Y024915D02*
X012614Y022435D01*
X011670Y022435D01*
X011670Y024915D01*
X012614Y024915D01*
X011364Y024915D02*
X011364Y022435D01*
X010420Y022435D01*
X010420Y024915D01*
X011364Y024915D01*
X008492Y024975D02*
X008492Y030375D01*
X003211Y030375D01*
X003211Y024975D01*
X008492Y024975D01*
X008329Y024425D02*
X003211Y024425D01*
X003211Y018425D01*
X008329Y018425D01*
X008329Y024425D01*
X010542Y020720D02*
X010542Y020625D01*
X009992Y020500D02*
X009992Y018850D01*
X010542Y018725D02*
X010542Y018630D01*
X010542Y019635D02*
X010542Y019715D01*
X009992Y020499D02*
X010041Y020538D01*
X010092Y020575D01*
X010145Y020608D01*
X010199Y020638D01*
X010256Y020664D01*
X010314Y020687D01*
X010373Y020707D01*
X010434Y020723D01*
X010495Y020735D01*
X010557Y020744D01*
X010619Y020749D01*
X010682Y020750D01*
X010744Y020747D01*
X010807Y020741D01*
X010868Y020731D01*
X010929Y020717D01*
X010989Y020700D01*
X011048Y020679D01*
X011106Y020655D01*
X011162Y020627D01*
X011216Y020596D01*
X011268Y020561D01*
X011318Y020524D01*
X011366Y020484D01*
X011411Y020440D01*
X011454Y020395D01*
X011494Y020346D01*
X011530Y020296D01*
X011564Y020243D01*
X011595Y020189D01*
X011622Y020132D01*
X011645Y020075D01*
X011992Y020500D02*
X011992Y018850D01*
X012542Y018725D02*
X012542Y018630D01*
X012542Y019635D02*
X012542Y019715D01*
X011992Y020499D02*
X012041Y020538D01*
X012092Y020575D01*
X012145Y020608D01*
X012199Y020638D01*
X012256Y020664D01*
X012314Y020687D01*
X012373Y020707D01*
X012434Y020723D01*
X012495Y020735D01*
X012557Y020744D01*
X012619Y020749D01*
X012682Y020750D01*
X012744Y020747D01*
X012807Y020741D01*
X012868Y020731D01*
X012929Y020717D01*
X012989Y020700D01*
X013048Y020679D01*
X013106Y020655D01*
X013162Y020627D01*
X013216Y020596D01*
X013268Y020561D01*
X013318Y020524D01*
X013366Y020484D01*
X013411Y020440D01*
X013454Y020395D01*
X013494Y020346D01*
X013530Y020296D01*
X013564Y020243D01*
X013595Y020189D01*
X013622Y020132D01*
X013645Y020075D01*
X013992Y020500D02*
X013992Y018850D01*
X014542Y018725D02*
X014542Y018630D01*
X014542Y019635D02*
X014542Y019715D01*
X013992Y020499D02*
X014041Y020538D01*
X014092Y020575D01*
X014145Y020608D01*
X014199Y020638D01*
X014256Y020664D01*
X014314Y020687D01*
X014373Y020707D01*
X014434Y020723D01*
X014495Y020735D01*
X014557Y020744D01*
X014619Y020749D01*
X014682Y020750D01*
X014744Y020747D01*
X014807Y020741D01*
X014868Y020731D01*
X014929Y020717D01*
X014989Y020700D01*
X015048Y020679D01*
X015106Y020655D01*
X015162Y020627D01*
X015216Y020596D01*
X015268Y020561D01*
X015318Y020524D01*
X015366Y020484D01*
X015411Y020440D01*
X015454Y020395D01*
X015494Y020346D01*
X015530Y020296D01*
X015564Y020243D01*
X015595Y020189D01*
X015622Y020132D01*
X015645Y020075D01*
X015992Y020500D02*
X015992Y018850D01*
X016542Y018725D02*
X016542Y018630D01*
X016542Y019635D02*
X016542Y019715D01*
X015992Y020499D02*
X016041Y020538D01*
X016092Y020575D01*
X016145Y020608D01*
X016199Y020638D01*
X016256Y020664D01*
X016314Y020687D01*
X016373Y020707D01*
X016434Y020723D01*
X016495Y020735D01*
X016557Y020744D01*
X016619Y020749D01*
X016682Y020750D01*
X016744Y020747D01*
X016807Y020741D01*
X016868Y020731D01*
X016929Y020717D01*
X016989Y020700D01*
X017048Y020679D01*
X017106Y020655D01*
X017162Y020627D01*
X017216Y020596D01*
X017268Y020561D01*
X017318Y020524D01*
X017366Y020484D01*
X017411Y020440D01*
X017454Y020395D01*
X017494Y020346D01*
X017530Y020296D01*
X017564Y020243D01*
X017595Y020189D01*
X017622Y020132D01*
X017645Y020075D01*
X018492Y020500D02*
X018492Y018850D01*
X019042Y018725D02*
X019042Y018630D01*
X019042Y019635D02*
X019042Y019715D01*
X018492Y020499D02*
X018541Y020538D01*
X018592Y020575D01*
X018645Y020608D01*
X018699Y020638D01*
X018756Y020664D01*
X018814Y020687D01*
X018873Y020707D01*
X018934Y020723D01*
X018995Y020735D01*
X019057Y020744D01*
X019119Y020749D01*
X019182Y020750D01*
X019244Y020747D01*
X019307Y020741D01*
X019368Y020731D01*
X019429Y020717D01*
X019489Y020700D01*
X019548Y020679D01*
X019606Y020655D01*
X019662Y020627D01*
X019716Y020596D01*
X019768Y020561D01*
X019818Y020524D01*
X019866Y020484D01*
X019911Y020440D01*
X019954Y020395D01*
X019994Y020346D01*
X020030Y020296D01*
X020064Y020243D01*
X020095Y020189D01*
X020122Y020132D01*
X020145Y020075D01*
X020492Y020500D02*
X020492Y018850D01*
X021042Y018725D02*
X021042Y018630D01*
X021042Y019635D02*
X021042Y019715D01*
X020492Y020499D02*
X020541Y020538D01*
X020592Y020575D01*
X020645Y020608D01*
X020699Y020638D01*
X020756Y020664D01*
X020814Y020687D01*
X020873Y020707D01*
X020934Y020723D01*
X020995Y020735D01*
X021057Y020744D01*
X021119Y020749D01*
X021182Y020750D01*
X021244Y020747D01*
X021307Y020741D01*
X021368Y020731D01*
X021429Y020717D01*
X021489Y020700D01*
X021548Y020679D01*
X021606Y020655D01*
X021662Y020627D01*
X021716Y020596D01*
X021768Y020561D01*
X021818Y020524D01*
X021866Y020484D01*
X021911Y020440D01*
X021954Y020395D01*
X021994Y020346D01*
X022030Y020296D01*
X022064Y020243D01*
X022095Y020189D01*
X022122Y020132D01*
X022145Y020075D01*
X022492Y020500D02*
X022492Y018850D01*
X023042Y018725D02*
X023042Y018630D01*
X023042Y019635D02*
X023042Y019715D01*
X022492Y020499D02*
X022541Y020538D01*
X022592Y020575D01*
X022645Y020608D01*
X022699Y020638D01*
X022756Y020664D01*
X022814Y020687D01*
X022873Y020707D01*
X022934Y020723D01*
X022995Y020735D01*
X023057Y020744D01*
X023119Y020749D01*
X023182Y020750D01*
X023244Y020747D01*
X023307Y020741D01*
X023368Y020731D01*
X023429Y020717D01*
X023489Y020700D01*
X023548Y020679D01*
X023606Y020655D01*
X023662Y020627D01*
X023716Y020596D01*
X023768Y020561D01*
X023818Y020524D01*
X023866Y020484D01*
X023911Y020440D01*
X023954Y020395D01*
X023994Y020346D01*
X024030Y020296D01*
X024064Y020243D01*
X024095Y020189D01*
X024122Y020132D01*
X024145Y020075D01*
X024492Y020500D02*
X024492Y018850D01*
X025042Y018725D02*
X025042Y018630D01*
X025042Y019635D02*
X025042Y019715D01*
X024492Y020499D02*
X024541Y020538D01*
X024592Y020575D01*
X024645Y020608D01*
X024699Y020638D01*
X024756Y020664D01*
X024814Y020687D01*
X024873Y020707D01*
X024934Y020723D01*
X024995Y020735D01*
X025057Y020744D01*
X025119Y020749D01*
X025182Y020750D01*
X025244Y020747D01*
X025307Y020741D01*
X025368Y020731D01*
X025429Y020717D01*
X025489Y020700D01*
X025548Y020679D01*
X025606Y020655D01*
X025662Y020627D01*
X025716Y020596D01*
X025768Y020561D01*
X025818Y020524D01*
X025866Y020484D01*
X025911Y020440D01*
X025954Y020395D01*
X025994Y020346D01*
X026030Y020296D01*
X026064Y020243D01*
X026095Y020189D01*
X026122Y020132D01*
X026145Y020075D01*
X026145Y019275D02*
X026122Y019218D01*
X026095Y019161D01*
X026064Y019107D01*
X026030Y019054D01*
X025994Y019004D01*
X025954Y018955D01*
X025911Y018910D01*
X025866Y018866D01*
X025818Y018826D01*
X025768Y018789D01*
X025716Y018754D01*
X025662Y018723D01*
X025606Y018695D01*
X025548Y018671D01*
X025489Y018650D01*
X025429Y018633D01*
X025368Y018619D01*
X025307Y018609D01*
X025244Y018603D01*
X025182Y018600D01*
X025119Y018601D01*
X025057Y018606D01*
X024995Y018615D01*
X024934Y018627D01*
X024873Y018643D01*
X024814Y018663D01*
X024756Y018686D01*
X024699Y018712D01*
X024645Y018742D01*
X024592Y018775D01*
X024541Y018812D01*
X024492Y018851D01*
X024145Y019275D02*
X024122Y019218D01*
X024095Y019161D01*
X024064Y019107D01*
X024030Y019054D01*
X023994Y019004D01*
X023954Y018955D01*
X023911Y018910D01*
X023866Y018866D01*
X023818Y018826D01*
X023768Y018789D01*
X023716Y018754D01*
X023662Y018723D01*
X023606Y018695D01*
X023548Y018671D01*
X023489Y018650D01*
X023429Y018633D01*
X023368Y018619D01*
X023307Y018609D01*
X023244Y018603D01*
X023182Y018600D01*
X023119Y018601D01*
X023057Y018606D01*
X022995Y018615D01*
X022934Y018627D01*
X022873Y018643D01*
X022814Y018663D01*
X022756Y018686D01*
X022699Y018712D01*
X022645Y018742D01*
X022592Y018775D01*
X022541Y018812D01*
X022492Y018851D01*
X022145Y019275D02*
X022122Y019218D01*
X022095Y019161D01*
X022064Y019107D01*
X022030Y019054D01*
X021994Y019004D01*
X021954Y018955D01*
X021911Y018910D01*
X021866Y018866D01*
X021818Y018826D01*
X021768Y018789D01*
X021716Y018754D01*
X021662Y018723D01*
X021606Y018695D01*
X021548Y018671D01*
X021489Y018650D01*
X021429Y018633D01*
X021368Y018619D01*
X021307Y018609D01*
X021244Y018603D01*
X021182Y018600D01*
X021119Y018601D01*
X021057Y018606D01*
X020995Y018615D01*
X020934Y018627D01*
X020873Y018643D01*
X020814Y018663D01*
X020756Y018686D01*
X020699Y018712D01*
X020645Y018742D01*
X020592Y018775D01*
X020541Y018812D01*
X020492Y018851D01*
X020145Y019275D02*
X020122Y019218D01*
X020095Y019161D01*
X020064Y019107D01*
X020030Y019054D01*
X019994Y019004D01*
X019954Y018955D01*
X019911Y018910D01*
X019866Y018866D01*
X019818Y018826D01*
X019768Y018789D01*
X019716Y018754D01*
X019662Y018723D01*
X019606Y018695D01*
X019548Y018671D01*
X019489Y018650D01*
X019429Y018633D01*
X019368Y018619D01*
X019307Y018609D01*
X019244Y018603D01*
X019182Y018600D01*
X019119Y018601D01*
X019057Y018606D01*
X018995Y018615D01*
X018934Y018627D01*
X018873Y018643D01*
X018814Y018663D01*
X018756Y018686D01*
X018699Y018712D01*
X018645Y018742D01*
X018592Y018775D01*
X018541Y018812D01*
X018492Y018851D01*
X017645Y019275D02*
X017622Y019218D01*
X017595Y019161D01*
X017564Y019107D01*
X017530Y019054D01*
X017494Y019004D01*
X017454Y018955D01*
X017411Y018910D01*
X017366Y018866D01*
X017318Y018826D01*
X017268Y018789D01*
X017216Y018754D01*
X017162Y018723D01*
X017106Y018695D01*
X017048Y018671D01*
X016989Y018650D01*
X016929Y018633D01*
X016868Y018619D01*
X016807Y018609D01*
X016744Y018603D01*
X016682Y018600D01*
X016619Y018601D01*
X016557Y018606D01*
X016495Y018615D01*
X016434Y018627D01*
X016373Y018643D01*
X016314Y018663D01*
X016256Y018686D01*
X016199Y018712D01*
X016145Y018742D01*
X016092Y018775D01*
X016041Y018812D01*
X015992Y018851D01*
X015645Y019275D02*
X015622Y019218D01*
X015595Y019161D01*
X015564Y019107D01*
X015530Y019054D01*
X015494Y019004D01*
X015454Y018955D01*
X015411Y018910D01*
X015366Y018866D01*
X015318Y018826D01*
X015268Y018789D01*
X015216Y018754D01*
X015162Y018723D01*
X015106Y018695D01*
X015048Y018671D01*
X014989Y018650D01*
X014929Y018633D01*
X014868Y018619D01*
X014807Y018609D01*
X014744Y018603D01*
X014682Y018600D01*
X014619Y018601D01*
X014557Y018606D01*
X014495Y018615D01*
X014434Y018627D01*
X014373Y018643D01*
X014314Y018663D01*
X014256Y018686D01*
X014199Y018712D01*
X014145Y018742D01*
X014092Y018775D01*
X014041Y018812D01*
X013992Y018851D01*
X013645Y019275D02*
X013622Y019218D01*
X013595Y019161D01*
X013564Y019107D01*
X013530Y019054D01*
X013494Y019004D01*
X013454Y018955D01*
X013411Y018910D01*
X013366Y018866D01*
X013318Y018826D01*
X013268Y018789D01*
X013216Y018754D01*
X013162Y018723D01*
X013106Y018695D01*
X013048Y018671D01*
X012989Y018650D01*
X012929Y018633D01*
X012868Y018619D01*
X012807Y018609D01*
X012744Y018603D01*
X012682Y018600D01*
X012619Y018601D01*
X012557Y018606D01*
X012495Y018615D01*
X012434Y018627D01*
X012373Y018643D01*
X012314Y018663D01*
X012256Y018686D01*
X012199Y018712D01*
X012145Y018742D01*
X012092Y018775D01*
X012041Y018812D01*
X011992Y018851D01*
X011645Y019275D02*
X011622Y019218D01*
X011595Y019161D01*
X011564Y019107D01*
X011530Y019054D01*
X011494Y019004D01*
X011454Y018955D01*
X011411Y018910D01*
X011366Y018866D01*
X011318Y018826D01*
X011268Y018789D01*
X011216Y018754D01*
X011162Y018723D01*
X011106Y018695D01*
X011048Y018671D01*
X010989Y018650D01*
X010929Y018633D01*
X010868Y018619D01*
X010807Y018609D01*
X010744Y018603D01*
X010682Y018600D01*
X010619Y018601D01*
X010557Y018606D01*
X010495Y018615D01*
X010434Y018627D01*
X010373Y018643D01*
X010314Y018663D01*
X010256Y018686D01*
X010199Y018712D01*
X010145Y018742D01*
X010092Y018775D01*
X010041Y018812D01*
X009992Y018851D01*
X012542Y020625D02*
X012542Y020720D01*
X014542Y020720D02*
X014542Y020625D01*
X016542Y020625D02*
X016542Y020720D01*
X019042Y020720D02*
X019042Y020625D01*
X021042Y020625D02*
X021042Y020720D01*
X023042Y020720D02*
X023042Y020625D01*
X025042Y020625D02*
X025042Y020720D01*
X028992Y017970D02*
X028992Y017875D01*
X029542Y017750D02*
X029542Y016100D01*
X028992Y015975D02*
X028992Y015880D01*
X028992Y016885D02*
X028992Y016965D01*
X029542Y017749D02*
X029493Y017788D01*
X029442Y017825D01*
X029389Y017858D01*
X029335Y017888D01*
X029278Y017914D01*
X029220Y017937D01*
X029161Y017957D01*
X029100Y017973D01*
X029039Y017985D01*
X028977Y017994D01*
X028915Y017999D01*
X028852Y018000D01*
X028790Y017997D01*
X028727Y017991D01*
X028666Y017981D01*
X028605Y017967D01*
X028545Y017950D01*
X028486Y017929D01*
X028428Y017905D01*
X028372Y017877D01*
X028318Y017846D01*
X028266Y017811D01*
X028216Y017774D01*
X028168Y017734D01*
X028123Y017690D01*
X028080Y017645D01*
X028040Y017596D01*
X028004Y017546D01*
X027970Y017493D01*
X027939Y017439D01*
X027912Y017382D01*
X027889Y017325D01*
X027392Y017425D02*
X026892Y017425D01*
X027889Y016525D02*
X027912Y016468D01*
X027939Y016411D01*
X027970Y016357D01*
X028004Y016304D01*
X028040Y016254D01*
X028080Y016205D01*
X028123Y016160D01*
X028168Y016116D01*
X028216Y016076D01*
X028266Y016039D01*
X028318Y016004D01*
X028372Y015973D01*
X028428Y015945D01*
X028486Y015921D01*
X028545Y015900D01*
X028605Y015883D01*
X028666Y015869D01*
X028727Y015859D01*
X028790Y015853D01*
X028852Y015850D01*
X028915Y015851D01*
X028977Y015856D01*
X029039Y015865D01*
X029100Y015877D01*
X029161Y015893D01*
X029220Y015913D01*
X029278Y015936D01*
X029335Y015962D01*
X029389Y015992D01*
X029442Y016025D01*
X029493Y016062D01*
X029542Y016101D01*
X030920Y015935D02*
X030920Y018415D01*
X031864Y018415D01*
X031864Y015935D01*
X030920Y015935D01*
X032420Y015935D02*
X032420Y018415D01*
X033364Y018415D01*
X033364Y015935D01*
X032420Y015935D01*
X035392Y014425D02*
X035392Y013925D01*
X035642Y013675D01*
X036142Y013675D01*
X036392Y013925D01*
X036642Y013675D01*
X037142Y013675D01*
X037392Y013925D01*
X037392Y014425D01*
X037142Y014675D01*
X036642Y014675D01*
X036392Y014425D01*
X036142Y014675D01*
X035642Y014675D01*
X035392Y014425D01*
X035642Y012675D02*
X036142Y012675D01*
X036392Y012425D01*
X036642Y012675D01*
X037142Y012675D01*
X037392Y012425D01*
X037642Y012675D01*
X038142Y012675D01*
X038392Y012425D01*
X038642Y012675D01*
X039142Y012675D01*
X039392Y012425D01*
X039392Y011925D01*
X039142Y011675D01*
X038642Y011675D01*
X038392Y011925D01*
X038142Y011675D01*
X037642Y011675D01*
X037392Y011925D01*
X037142Y011675D01*
X036642Y011675D01*
X036392Y011925D01*
X036142Y011675D01*
X035642Y011675D01*
X035392Y011925D01*
X035142Y011675D01*
X034642Y011675D01*
X034392Y011925D01*
X034142Y011675D01*
X033642Y011675D01*
X033392Y011925D01*
X033142Y011675D01*
X032642Y011675D01*
X032392Y011925D01*
X032142Y011675D01*
X031642Y011675D01*
X031392Y011925D01*
X031392Y012425D01*
X031642Y012675D01*
X032142Y012675D01*
X032392Y012425D01*
X032642Y012675D01*
X033142Y012675D01*
X033392Y012425D01*
X033642Y012675D01*
X034142Y012675D01*
X034392Y012425D01*
X034642Y012675D01*
X035142Y012675D01*
X035392Y012425D01*
X035642Y012675D01*
X032437Y011248D02*
X032437Y010264D01*
X040508Y010264D01*
X040508Y011248D01*
X032437Y011248D01*
X030392Y011925D02*
X030142Y011675D01*
X029642Y011675D01*
X029392Y011925D01*
X029142Y011675D01*
X028642Y011675D01*
X028392Y011925D01*
X028142Y011675D01*
X027642Y011675D01*
X027392Y011925D01*
X027142Y011675D01*
X026642Y011675D01*
X026392Y011925D01*
X026142Y011675D01*
X025642Y011675D01*
X025392Y011925D01*
X025142Y011675D01*
X024642Y011675D01*
X024392Y011925D01*
X024142Y011675D01*
X023642Y011675D01*
X023392Y011925D01*
X023142Y011675D01*
X022642Y011675D01*
X022392Y011925D01*
X022392Y012425D01*
X022642Y012675D01*
X023142Y012675D01*
X023392Y012425D01*
X023642Y012675D01*
X024142Y012675D01*
X024392Y012425D01*
X024642Y012675D01*
X025142Y012675D01*
X025392Y012425D01*
X025642Y012675D01*
X026142Y012675D01*
X026392Y012425D01*
X026642Y012675D01*
X027142Y012675D01*
X027392Y012425D01*
X027642Y012675D01*
X028142Y012675D01*
X028392Y012425D01*
X028642Y012675D01*
X029142Y012675D01*
X029392Y012425D01*
X029642Y012675D01*
X030142Y012675D01*
X030392Y012425D01*
X030392Y011925D01*
X025158Y010425D02*
X025160Y010487D01*
X025166Y010550D01*
X025176Y010611D01*
X025190Y010672D01*
X025207Y010732D01*
X025228Y010791D01*
X025254Y010848D01*
X025282Y010903D01*
X025314Y010957D01*
X025350Y011008D01*
X025388Y011058D01*
X025430Y011104D01*
X025474Y011148D01*
X025522Y011189D01*
X025571Y011227D01*
X025623Y011261D01*
X025677Y011292D01*
X025733Y011320D01*
X025791Y011344D01*
X025850Y011365D01*
X025910Y011381D01*
X025971Y011394D01*
X026033Y011403D01*
X026095Y011408D01*
X026158Y011409D01*
X026220Y011406D01*
X026282Y011399D01*
X026344Y011388D01*
X026404Y011373D01*
X026464Y011355D01*
X026522Y011333D01*
X026579Y011307D01*
X026634Y011277D01*
X026687Y011244D01*
X026738Y011208D01*
X026786Y011169D01*
X026832Y011126D01*
X026875Y011081D01*
X026915Y011033D01*
X026952Y010983D01*
X026986Y010930D01*
X027017Y010876D01*
X027043Y010820D01*
X027067Y010762D01*
X027086Y010702D01*
X027102Y010642D01*
X027114Y010580D01*
X027122Y010519D01*
X027126Y010456D01*
X027126Y010394D01*
X027122Y010331D01*
X027114Y010270D01*
X027102Y010208D01*
X027086Y010148D01*
X027067Y010088D01*
X027043Y010030D01*
X027017Y009974D01*
X026986Y009920D01*
X026952Y009867D01*
X026915Y009817D01*
X026875Y009769D01*
X026832Y009724D01*
X026786Y009681D01*
X026738Y009642D01*
X026687Y009606D01*
X026634Y009573D01*
X026579Y009543D01*
X026522Y009517D01*
X026464Y009495D01*
X026404Y009477D01*
X026344Y009462D01*
X026282Y009451D01*
X026220Y009444D01*
X026158Y009441D01*
X026095Y009442D01*
X026033Y009447D01*
X025971Y009456D01*
X025910Y009469D01*
X025850Y009485D01*
X025791Y009506D01*
X025733Y009530D01*
X025677Y009558D01*
X025623Y009589D01*
X025571Y009623D01*
X025522Y009661D01*
X025474Y009702D01*
X025430Y009746D01*
X025388Y009792D01*
X025350Y009842D01*
X025314Y009893D01*
X025282Y009947D01*
X025254Y010002D01*
X025228Y010059D01*
X025207Y010118D01*
X025190Y010178D01*
X025176Y010239D01*
X025166Y010300D01*
X025160Y010363D01*
X025158Y010425D01*
X025442Y010975D02*
X025842Y010975D01*
X025142Y013675D02*
X024642Y013675D01*
X024392Y013925D01*
X024392Y014425D01*
X024642Y014675D01*
X024392Y014925D01*
X024392Y015425D01*
X024642Y015675D01*
X025142Y015675D01*
X025392Y015425D01*
X025392Y014925D01*
X025142Y014675D01*
X025392Y014425D01*
X025392Y013925D01*
X025142Y013675D01*
X021942Y015725D02*
X021942Y016125D01*
X019817Y015425D02*
X019819Y015504D01*
X019825Y015583D01*
X019835Y015662D01*
X019849Y015740D01*
X019866Y015817D01*
X019888Y015893D01*
X019913Y015968D01*
X019943Y016041D01*
X019975Y016113D01*
X020012Y016184D01*
X020052Y016252D01*
X020095Y016318D01*
X020141Y016382D01*
X020191Y016444D01*
X020244Y016503D01*
X020299Y016559D01*
X020358Y016613D01*
X020419Y016663D01*
X020482Y016711D01*
X020548Y016755D01*
X020616Y016796D01*
X020686Y016833D01*
X020757Y016867D01*
X020831Y016897D01*
X020905Y016923D01*
X020981Y016945D01*
X021058Y016964D01*
X021136Y016979D01*
X021214Y016990D01*
X021293Y016997D01*
X021372Y017000D01*
X021451Y016999D01*
X021530Y016994D01*
X021609Y016985D01*
X021687Y016972D01*
X021764Y016955D01*
X021841Y016935D01*
X021916Y016910D01*
X021990Y016882D01*
X022063Y016850D01*
X022133Y016815D01*
X022202Y016776D01*
X022269Y016733D01*
X022334Y016687D01*
X022396Y016639D01*
X022456Y016587D01*
X022513Y016532D01*
X022567Y016474D01*
X022618Y016414D01*
X022666Y016351D01*
X022711Y016286D01*
X022753Y016218D01*
X022791Y016149D01*
X022825Y016078D01*
X022856Y016005D01*
X022884Y015930D01*
X022907Y015855D01*
X022927Y015778D01*
X022943Y015701D01*
X022955Y015622D01*
X022963Y015544D01*
X022967Y015465D01*
X022967Y015385D01*
X022963Y015306D01*
X022955Y015228D01*
X022943Y015149D01*
X022927Y015072D01*
X022907Y014995D01*
X022884Y014920D01*
X022856Y014845D01*
X022825Y014772D01*
X022791Y014701D01*
X022753Y014632D01*
X022711Y014564D01*
X022666Y014499D01*
X022618Y014436D01*
X022567Y014376D01*
X022513Y014318D01*
X022456Y014263D01*
X022396Y014211D01*
X022334Y014163D01*
X022269Y014117D01*
X022202Y014074D01*
X022133Y014035D01*
X022063Y014000D01*
X021990Y013968D01*
X021916Y013940D01*
X021841Y013915D01*
X021764Y013895D01*
X021687Y013878D01*
X021609Y013865D01*
X021530Y013856D01*
X021451Y013851D01*
X021372Y013850D01*
X021293Y013853D01*
X021214Y013860D01*
X021136Y013871D01*
X021058Y013886D01*
X020981Y013905D01*
X020905Y013927D01*
X020831Y013953D01*
X020757Y013983D01*
X020686Y014017D01*
X020616Y014054D01*
X020548Y014095D01*
X020482Y014139D01*
X020419Y014187D01*
X020358Y014237D01*
X020299Y014291D01*
X020244Y014347D01*
X020191Y014406D01*
X020141Y014468D01*
X020095Y014532D01*
X020052Y014598D01*
X020012Y014666D01*
X019975Y014737D01*
X019943Y014809D01*
X019913Y014882D01*
X019888Y014957D01*
X019866Y015033D01*
X019849Y015110D01*
X019835Y015188D01*
X019825Y015267D01*
X019819Y015346D01*
X019817Y015425D01*
X017408Y015675D02*
X017410Y015737D01*
X017416Y015800D01*
X017426Y015861D01*
X017440Y015922D01*
X017457Y015982D01*
X017478Y016041D01*
X017504Y016098D01*
X017532Y016153D01*
X017564Y016207D01*
X017600Y016258D01*
X017638Y016308D01*
X017680Y016354D01*
X017724Y016398D01*
X017772Y016439D01*
X017821Y016477D01*
X017873Y016511D01*
X017927Y016542D01*
X017983Y016570D01*
X018041Y016594D01*
X018100Y016615D01*
X018160Y016631D01*
X018221Y016644D01*
X018283Y016653D01*
X018345Y016658D01*
X018408Y016659D01*
X018470Y016656D01*
X018532Y016649D01*
X018594Y016638D01*
X018654Y016623D01*
X018714Y016605D01*
X018772Y016583D01*
X018829Y016557D01*
X018884Y016527D01*
X018937Y016494D01*
X018988Y016458D01*
X019036Y016419D01*
X019082Y016376D01*
X019125Y016331D01*
X019165Y016283D01*
X019202Y016233D01*
X019236Y016180D01*
X019267Y016126D01*
X019293Y016070D01*
X019317Y016012D01*
X019336Y015952D01*
X019352Y015892D01*
X019364Y015830D01*
X019372Y015769D01*
X019376Y015706D01*
X019376Y015644D01*
X019372Y015581D01*
X019364Y015520D01*
X019352Y015458D01*
X019336Y015398D01*
X019317Y015338D01*
X019293Y015280D01*
X019267Y015224D01*
X019236Y015170D01*
X019202Y015117D01*
X019165Y015067D01*
X019125Y015019D01*
X019082Y014974D01*
X019036Y014931D01*
X018988Y014892D01*
X018937Y014856D01*
X018884Y014823D01*
X018829Y014793D01*
X018772Y014767D01*
X018714Y014745D01*
X018654Y014727D01*
X018594Y014712D01*
X018532Y014701D01*
X018470Y014694D01*
X018408Y014691D01*
X018345Y014692D01*
X018283Y014697D01*
X018221Y014706D01*
X018160Y014719D01*
X018100Y014735D01*
X018041Y014756D01*
X017983Y014780D01*
X017927Y014808D01*
X017873Y014839D01*
X017821Y014873D01*
X017772Y014911D01*
X017724Y014952D01*
X017680Y014996D01*
X017638Y015042D01*
X017600Y015092D01*
X017564Y015143D01*
X017532Y015197D01*
X017504Y015252D01*
X017478Y015309D01*
X017457Y015368D01*
X017440Y015428D01*
X017426Y015489D01*
X017416Y015550D01*
X017410Y015613D01*
X017408Y015675D01*
X017842Y015375D02*
X017842Y014975D01*
X014908Y015675D02*
X014910Y015737D01*
X014916Y015800D01*
X014926Y015861D01*
X014940Y015922D01*
X014957Y015982D01*
X014978Y016041D01*
X015004Y016098D01*
X015032Y016153D01*
X015064Y016207D01*
X015100Y016258D01*
X015138Y016308D01*
X015180Y016354D01*
X015224Y016398D01*
X015272Y016439D01*
X015321Y016477D01*
X015373Y016511D01*
X015427Y016542D01*
X015483Y016570D01*
X015541Y016594D01*
X015600Y016615D01*
X015660Y016631D01*
X015721Y016644D01*
X015783Y016653D01*
X015845Y016658D01*
X015908Y016659D01*
X015970Y016656D01*
X016032Y016649D01*
X016094Y016638D01*
X016154Y016623D01*
X016214Y016605D01*
X016272Y016583D01*
X016329Y016557D01*
X016384Y016527D01*
X016437Y016494D01*
X016488Y016458D01*
X016536Y016419D01*
X016582Y016376D01*
X016625Y016331D01*
X016665Y016283D01*
X016702Y016233D01*
X016736Y016180D01*
X016767Y016126D01*
X016793Y016070D01*
X016817Y016012D01*
X016836Y015952D01*
X016852Y015892D01*
X016864Y015830D01*
X016872Y015769D01*
X016876Y015706D01*
X016876Y015644D01*
X016872Y015581D01*
X016864Y015520D01*
X016852Y015458D01*
X016836Y015398D01*
X016817Y015338D01*
X016793Y015280D01*
X016767Y015224D01*
X016736Y015170D01*
X016702Y015117D01*
X016665Y015067D01*
X016625Y015019D01*
X016582Y014974D01*
X016536Y014931D01*
X016488Y014892D01*
X016437Y014856D01*
X016384Y014823D01*
X016329Y014793D01*
X016272Y014767D01*
X016214Y014745D01*
X016154Y014727D01*
X016094Y014712D01*
X016032Y014701D01*
X015970Y014694D01*
X015908Y014691D01*
X015845Y014692D01*
X015783Y014697D01*
X015721Y014706D01*
X015660Y014719D01*
X015600Y014735D01*
X015541Y014756D01*
X015483Y014780D01*
X015427Y014808D01*
X015373Y014839D01*
X015321Y014873D01*
X015272Y014911D01*
X015224Y014952D01*
X015180Y014996D01*
X015138Y015042D01*
X015100Y015092D01*
X015064Y015143D01*
X015032Y015197D01*
X015004Y015252D01*
X014978Y015309D01*
X014957Y015368D01*
X014940Y015428D01*
X014926Y015489D01*
X014916Y015550D01*
X014910Y015613D01*
X014908Y015675D01*
X015342Y015375D02*
X015342Y014975D01*
X014392Y015925D02*
X014142Y015675D01*
X013642Y015675D01*
X013392Y015925D01*
X013392Y016425D01*
X013642Y016675D01*
X013392Y016925D01*
X013392Y017425D01*
X013642Y017675D01*
X014142Y017675D01*
X014392Y017425D01*
X014392Y016925D01*
X014142Y016675D01*
X014392Y016425D01*
X014392Y015925D01*
X014642Y012675D02*
X015142Y012675D01*
X015392Y012425D01*
X015642Y012675D01*
X016142Y012675D01*
X016392Y012425D01*
X016642Y012675D01*
X017142Y012675D01*
X017392Y012425D01*
X017642Y012675D01*
X018142Y012675D01*
X018392Y012425D01*
X018642Y012675D01*
X019142Y012675D01*
X019392Y012425D01*
X019642Y012675D01*
X020142Y012675D01*
X020392Y012425D01*
X020642Y012675D01*
X021142Y012675D01*
X021392Y012425D01*
X021392Y011925D01*
X021142Y011675D01*
X020642Y011675D01*
X020392Y011925D01*
X020142Y011675D01*
X019642Y011675D01*
X019392Y011925D01*
X019142Y011675D01*
X018642Y011675D01*
X018392Y011925D01*
X018142Y011675D01*
X017642Y011675D01*
X017392Y011925D01*
X017142Y011675D01*
X016642Y011675D01*
X016392Y011925D01*
X016142Y011675D01*
X015642Y011675D01*
X015392Y011925D01*
X015142Y011675D01*
X014642Y011675D01*
X014392Y011925D01*
X014142Y011675D01*
X013642Y011675D01*
X013392Y011925D01*
X013392Y012425D01*
X013642Y012675D01*
X014142Y012675D01*
X014392Y012425D01*
X014642Y012675D01*
X029392Y019175D02*
X029392Y019675D01*
X024292Y027380D02*
X024292Y027475D01*
X023742Y027600D02*
X023742Y029250D01*
X024292Y029375D02*
X024292Y029470D01*
X024292Y028465D02*
X024292Y028385D01*
X023742Y027601D02*
X023791Y027562D01*
X023842Y027525D01*
X023895Y027492D01*
X023949Y027462D01*
X024006Y027436D01*
X024064Y027413D01*
X024123Y027393D01*
X024184Y027377D01*
X024245Y027365D01*
X024307Y027356D01*
X024369Y027351D01*
X024432Y027350D01*
X024494Y027353D01*
X024557Y027359D01*
X024618Y027369D01*
X024679Y027383D01*
X024739Y027400D01*
X024798Y027421D01*
X024856Y027445D01*
X024912Y027473D01*
X024966Y027504D01*
X025018Y027539D01*
X025068Y027576D01*
X025116Y027616D01*
X025161Y027660D01*
X025204Y027705D01*
X025244Y027754D01*
X025280Y027804D01*
X025314Y027857D01*
X025345Y027911D01*
X025372Y027968D01*
X025395Y028025D01*
X025395Y028825D02*
X025372Y028882D01*
X025345Y028939D01*
X025314Y028993D01*
X025280Y029046D01*
X025244Y029096D01*
X025204Y029145D01*
X025161Y029190D01*
X025116Y029234D01*
X025068Y029274D01*
X025018Y029311D01*
X024966Y029346D01*
X024912Y029377D01*
X024856Y029405D01*
X024798Y029429D01*
X024739Y029450D01*
X024679Y029467D01*
X024618Y029481D01*
X024557Y029491D01*
X024494Y029497D01*
X024432Y029500D01*
X024369Y029499D01*
X024307Y029494D01*
X024245Y029485D01*
X024184Y029473D01*
X024123Y029457D01*
X024064Y029437D01*
X024006Y029414D01*
X023949Y029388D01*
X023895Y029358D01*
X023842Y029325D01*
X023791Y029288D01*
X023742Y029249D01*
X023642Y030675D02*
X024142Y030675D01*
X024392Y030925D01*
X024642Y030675D01*
X025142Y030675D01*
X025392Y030925D01*
X025642Y030675D01*
X026142Y030675D01*
X026392Y030925D01*
X026642Y030675D01*
X027142Y030675D01*
X027392Y030925D01*
X027642Y030675D01*
X028142Y030675D01*
X028392Y030925D01*
X028392Y031425D01*
X028142Y031675D01*
X027642Y031675D01*
X027392Y031425D01*
X027142Y031675D01*
X026642Y031675D01*
X026392Y031425D01*
X026142Y031675D01*
X025642Y031675D01*
X025392Y031425D01*
X025142Y031675D01*
X024642Y031675D01*
X024392Y031425D01*
X024142Y031675D01*
X023642Y031675D01*
X023392Y031425D01*
X023142Y031675D01*
X022642Y031675D01*
X022392Y031425D01*
X022142Y031675D01*
X021642Y031675D01*
X021392Y031425D01*
X021142Y031675D01*
X020642Y031675D01*
X020392Y031425D01*
X020392Y030925D01*
X020642Y030675D01*
X021142Y030675D01*
X021392Y030925D01*
X021642Y030675D01*
X022142Y030675D01*
X022392Y030925D01*
X022642Y030675D01*
X023142Y030675D01*
X023392Y030925D01*
X023642Y030675D01*
X021632Y029647D02*
X019152Y029647D01*
X019152Y028703D01*
X021632Y028703D01*
X021632Y029647D01*
X021632Y028397D02*
X021632Y027453D01*
X019152Y027453D01*
X019152Y028397D01*
X021632Y028397D01*
X019542Y030675D02*
X019042Y030675D01*
X018792Y030925D01*
X018542Y030675D01*
X018042Y030675D01*
X017792Y030925D01*
X017542Y030675D01*
X017042Y030675D01*
X016792Y030925D01*
X016542Y030675D01*
X016042Y030675D01*
X015792Y030925D01*
X015542Y030675D01*
X015042Y030675D01*
X014792Y030925D01*
X014542Y030675D01*
X014042Y030675D01*
X013792Y030925D01*
X013542Y030675D01*
X013042Y030675D01*
X012792Y030925D01*
X012542Y030675D01*
X012042Y030675D01*
X011792Y030925D01*
X011542Y030675D01*
X011042Y030675D01*
X010792Y030925D01*
X010542Y030675D01*
X010042Y030675D01*
X009792Y030925D01*
X009792Y031425D01*
X010042Y031675D01*
X010542Y031675D01*
X010792Y031425D01*
X011042Y031675D01*
X011542Y031675D01*
X011792Y031425D01*
X012042Y031675D01*
X012542Y031675D01*
X012792Y031425D01*
X013042Y031675D01*
X013542Y031675D01*
X013792Y031425D01*
X014042Y031675D01*
X014542Y031675D01*
X014792Y031425D01*
X015042Y031675D01*
X015542Y031675D01*
X015792Y031425D01*
X016042Y031675D01*
X016542Y031675D01*
X016792Y031425D01*
X017042Y031675D01*
X017542Y031675D01*
X017792Y031425D01*
X018042Y031675D01*
X018542Y031675D01*
X018792Y031425D01*
X019042Y031675D01*
X019542Y031675D01*
X019792Y031425D01*
X019792Y030925D01*
X019542Y030675D01*
X011042Y030675D02*
X010792Y030925D01*
X010792Y031425D02*
X011042Y031675D01*
X008392Y031425D02*
X008392Y030925D01*
X008142Y030675D01*
X007642Y030675D01*
X007392Y030925D01*
X007142Y030675D01*
X006642Y030675D01*
X006392Y030925D01*
X006142Y030675D01*
X005642Y030675D01*
X005392Y030925D01*
X005392Y031425D01*
X005642Y031675D01*
X006142Y031675D01*
X006392Y031425D01*
X006642Y031675D01*
X007142Y031675D01*
X007392Y031425D01*
X007642Y031675D01*
X008142Y031675D01*
X008392Y031425D01*
X029392Y031425D02*
X029392Y030925D01*
X029642Y030675D01*
X030142Y030675D01*
X030392Y030925D01*
X030642Y030675D01*
X031142Y030675D01*
X031392Y030925D01*
X031642Y030675D01*
X032142Y030675D01*
X032392Y030925D01*
X032642Y030675D01*
X033142Y030675D01*
X033392Y030925D01*
X033642Y030675D01*
X034142Y030675D01*
X034392Y030925D01*
X034642Y030675D01*
X035142Y030675D01*
X035392Y030925D01*
X035642Y030675D01*
X036142Y030675D01*
X036392Y030925D01*
X036642Y030675D01*
X037142Y030675D01*
X037392Y030925D01*
X037392Y031425D01*
X037142Y031675D01*
X036642Y031675D01*
X036392Y031425D01*
X036142Y031675D01*
X035642Y031675D01*
X035392Y031425D01*
X035142Y031675D01*
X034642Y031675D01*
X034392Y031425D01*
X034142Y031675D01*
X033642Y031675D01*
X033392Y031425D01*
X033142Y031675D01*
X032642Y031675D01*
X032392Y031425D01*
X032142Y031675D01*
X031642Y031675D01*
X031392Y031425D01*
X031142Y031675D01*
X030642Y031675D01*
X030392Y031425D01*
X030142Y031675D01*
X029642Y031675D01*
X029392Y031425D01*
X039892Y012425D02*
X040392Y012425D01*
X040508Y002586D02*
X032437Y002586D01*
X032437Y001602D01*
X040508Y001602D01*
X040508Y002586D01*
D17*
X027292Y023775D03*
D18*
X034542Y023675D02*
X034542Y023175D01*
X034642Y023175D01*
X034642Y022675D01*
X038142Y022675D01*
X038142Y024175D01*
X038092Y024175D01*
X038092Y024675D01*
X038142Y024675D01*
X038142Y025375D01*
X037742Y025375D01*
X037642Y025375D01*
X037642Y023175D01*
X035142Y023175D01*
X035142Y029175D01*
X037642Y029175D01*
X037642Y026975D01*
X037742Y026975D01*
X038142Y026975D01*
X038142Y025375D01*
X037642Y025375D02*
X037342Y025375D01*
X037342Y026975D01*
X037642Y026975D01*
X038142Y026975D02*
X038142Y029675D01*
X034642Y029675D01*
X034642Y029175D01*
X034542Y029175D01*
X034542Y028675D01*
X034642Y028675D01*
X034642Y026425D01*
X034542Y026425D01*
X034542Y025925D01*
X034642Y025925D01*
X034642Y023675D01*
X034542Y023675D01*
X034642Y022175D02*
X034642Y021675D01*
X034542Y021675D01*
X034542Y021175D01*
X034642Y021175D01*
X034642Y018925D01*
X034542Y018925D01*
X034542Y018425D01*
X034642Y018425D01*
X034642Y016175D01*
X034542Y016175D01*
X034542Y015675D01*
X034642Y015675D01*
X034642Y015175D01*
X038142Y015175D01*
X038142Y016675D01*
X038092Y016675D01*
X038092Y017175D01*
X038142Y017175D01*
X038142Y017875D01*
X037742Y017875D01*
X037642Y017875D01*
X037642Y015675D01*
X035142Y015675D01*
X035142Y021675D01*
X037642Y021675D01*
X037642Y019475D01*
X037742Y019475D01*
X038142Y019475D01*
X038142Y017875D01*
X037642Y017875D02*
X037342Y017875D01*
X037342Y019475D01*
X037642Y019475D01*
X038142Y019475D02*
X038142Y022175D01*
X034642Y022175D01*
X039392Y021925D02*
X039642Y021675D01*
X041142Y021675D01*
X041392Y021425D01*
X041392Y020925D01*
X041142Y020675D01*
X039642Y020675D01*
X039392Y020925D01*
X039392Y021425D01*
X039642Y021675D01*
X039392Y021925D02*
X039392Y022425D01*
X039642Y022675D01*
X041142Y022675D01*
X041392Y022425D01*
X041392Y021925D01*
X041142Y021675D01*
X041142Y020675D02*
X041392Y020425D01*
X041392Y019925D01*
X041142Y019675D01*
X039642Y019675D01*
X039392Y019925D01*
X039392Y020425D01*
X039642Y020675D01*
X039642Y019675D02*
X039392Y019425D01*
X039392Y018925D01*
X039642Y018675D01*
X041142Y018675D01*
X041392Y018425D01*
X041392Y017925D01*
X041142Y017675D01*
X039642Y017675D01*
X039392Y017925D01*
X039392Y018425D01*
X039642Y018675D01*
X039642Y017675D02*
X039392Y017425D01*
X039392Y016925D01*
X039642Y016675D01*
X041142Y016675D01*
X041392Y016425D01*
X041392Y015925D01*
X041142Y015675D01*
X039642Y015675D01*
X039392Y015925D01*
X039392Y016425D01*
X039642Y016675D01*
X039642Y015675D02*
X039392Y015425D01*
X039392Y014925D01*
X039642Y014675D01*
X041142Y014675D01*
X041392Y014425D01*
X041392Y013925D01*
X041142Y013675D01*
X039642Y013675D01*
X039392Y013925D01*
X039392Y014425D01*
X039642Y014675D01*
X041142Y014675D02*
X041392Y014925D01*
X041392Y015425D01*
X041142Y015675D01*
X041142Y016675D02*
X041392Y016925D01*
X041392Y017425D01*
X041142Y017675D01*
X041142Y018675D02*
X041392Y018925D01*
X041392Y019425D01*
X041142Y019675D01*
X041142Y022675D02*
X041392Y022925D01*
X041392Y023425D01*
X041142Y023675D01*
X039642Y023675D01*
X039392Y023925D01*
X039392Y024425D01*
X039642Y024675D01*
X041142Y024675D01*
X041392Y024425D01*
X041392Y023925D01*
X041142Y023675D01*
X041142Y024675D02*
X041392Y024925D01*
X041392Y025425D01*
X041142Y025675D01*
X039642Y025675D01*
X039392Y025425D01*
X039392Y024925D01*
X039642Y024675D01*
X039642Y023675D02*
X039392Y023425D01*
X039392Y022925D01*
X039642Y022675D01*
X039642Y025675D02*
X039392Y025925D01*
X039392Y026425D01*
X039642Y026675D01*
X041142Y026675D01*
X041392Y026425D01*
X041392Y025925D01*
X041142Y025675D01*
X041142Y026675D02*
X041392Y026925D01*
X041392Y027425D01*
X041142Y027675D01*
X039642Y027675D01*
X039392Y027425D01*
X039392Y026925D01*
X039642Y026675D01*
X039642Y027675D02*
X039392Y027925D01*
X039392Y028425D01*
X039642Y028675D01*
X041142Y028675D01*
X041392Y028425D01*
X041392Y027925D01*
X041142Y027675D01*
X041142Y028675D02*
X041392Y028925D01*
X041392Y029425D01*
X041142Y029675D01*
X039642Y029675D01*
X039392Y029425D01*
X039392Y028925D01*
X039642Y028675D01*
X039642Y029675D02*
X039392Y029925D01*
X039392Y030425D01*
X039642Y030675D01*
X041142Y030675D01*
X041392Y030425D01*
X041392Y029925D01*
X041142Y029675D01*
X041142Y030675D02*
X041392Y030925D01*
X041392Y031425D01*
X041142Y031675D01*
X039642Y031675D01*
X039392Y031425D01*
X039392Y030925D01*
X039642Y030675D01*
X016892Y029925D02*
X016892Y028425D01*
X016642Y028175D01*
X016142Y028175D01*
X015892Y028425D01*
X015892Y029925D01*
X015642Y030175D01*
X015142Y030175D01*
X014892Y029925D01*
X014642Y030175D01*
X014142Y030175D01*
X013892Y029925D01*
X013892Y028425D01*
X014142Y028175D01*
X014642Y028175D01*
X014892Y028425D01*
X014892Y029925D01*
X015892Y029925D02*
X016142Y030175D01*
X016642Y030175D01*
X016892Y029925D01*
X015892Y028425D02*
X015642Y028175D01*
X015142Y028175D01*
X014892Y028425D01*
X009392Y016225D02*
X004492Y016225D01*
X004492Y015875D01*
X003892Y015875D01*
X003892Y016225D01*
X003142Y016225D01*
X003142Y012125D01*
X003892Y012125D01*
X003892Y012475D01*
X004492Y012475D01*
X004492Y012125D01*
X009392Y012125D01*
X009392Y016225D01*
X003782Y014175D02*
X003784Y014228D01*
X003790Y014281D01*
X003800Y014333D01*
X003814Y014384D01*
X003831Y014434D01*
X003852Y014483D01*
X003877Y014530D01*
X003905Y014575D01*
X003937Y014618D01*
X003972Y014658D01*
X004009Y014695D01*
X004049Y014730D01*
X004092Y014762D01*
X004137Y014790D01*
X004184Y014815D01*
X004233Y014836D01*
X004283Y014853D01*
X004334Y014867D01*
X004386Y014877D01*
X004439Y014883D01*
X004492Y014885D01*
X004545Y014883D01*
X004598Y014877D01*
X004650Y014867D01*
X004701Y014853D01*
X004751Y014836D01*
X004800Y014815D01*
X004847Y014790D01*
X004892Y014762D01*
X004935Y014730D01*
X004975Y014695D01*
X005012Y014658D01*
X005047Y014618D01*
X005079Y014575D01*
X005107Y014530D01*
X005132Y014483D01*
X005153Y014434D01*
X005170Y014384D01*
X005184Y014333D01*
X005194Y014281D01*
X005200Y014228D01*
X005202Y014175D01*
X005200Y014122D01*
X005194Y014069D01*
X005184Y014017D01*
X005170Y013966D01*
X005153Y013916D01*
X005132Y013867D01*
X005107Y013820D01*
X005079Y013775D01*
X005047Y013732D01*
X005012Y013692D01*
X004975Y013655D01*
X004935Y013620D01*
X004892Y013588D01*
X004847Y013560D01*
X004800Y013535D01*
X004751Y013514D01*
X004701Y013497D01*
X004650Y013483D01*
X004598Y013473D01*
X004545Y013467D01*
X004492Y013465D01*
X004439Y013467D01*
X004386Y013473D01*
X004334Y013483D01*
X004283Y013497D01*
X004233Y013514D01*
X004184Y013535D01*
X004137Y013560D01*
X004092Y013588D01*
X004049Y013620D01*
X004009Y013655D01*
X003972Y013692D01*
X003937Y013732D01*
X003905Y013775D01*
X003877Y013820D01*
X003852Y013867D01*
X003831Y013916D01*
X003814Y013966D01*
X003800Y014017D01*
X003790Y014069D01*
X003784Y014122D01*
X003782Y014175D01*
X024542Y008335D02*
X024542Y008015D01*
X025242Y008015D02*
X025242Y008335D01*
X026542Y008335D02*
X026542Y008015D01*
X027242Y008015D02*
X027242Y008335D01*
X028542Y008335D02*
X028542Y008015D01*
X029242Y008015D02*
X029242Y008335D01*
X026552Y006525D02*
X026232Y006525D01*
X026232Y005825D02*
X026552Y005825D01*
X026172Y004795D02*
X025612Y004795D01*
X025612Y003555D02*
X026172Y003555D01*
X026052Y002525D02*
X025732Y002525D01*
X025732Y001825D02*
X026052Y001825D01*
D19*
X009142Y012375D02*
X005892Y012375D01*
X005892Y015975D01*
X009142Y015975D01*
X009142Y012375D01*
X035042Y015575D02*
X037742Y015575D01*
X037742Y017875D01*
X037742Y019475D02*
X037742Y021775D01*
X035042Y021775D01*
X035042Y015575D01*
X035042Y023075D02*
X037742Y023075D01*
X037742Y025375D01*
X037742Y026975D02*
X037742Y029275D01*
X035042Y029275D01*
X035042Y023075D01*
D20*
X009567Y015175D03*
X009567Y014175D03*
X009567Y013175D03*
D21*
X025407Y008545D02*
X025777Y008545D01*
X025654Y008545D02*
X025530Y008730D01*
X025654Y008545D02*
X025777Y008730D01*
X025715Y008424D02*
X025777Y008362D01*
X025777Y008238D01*
X025715Y008177D01*
X025468Y008424D01*
X025715Y008424D01*
X025468Y008424D02*
X025407Y008362D01*
X025407Y008238D01*
X025468Y008177D01*
X025715Y008177D01*
X025777Y008055D02*
X025777Y007808D01*
X025777Y007932D02*
X025407Y007932D01*
X025530Y007808D01*
X025592Y007687D02*
X025715Y007687D01*
X025777Y007625D01*
X025777Y007502D01*
X025715Y007440D01*
X025592Y007440D02*
X025530Y007563D01*
X025530Y007625D01*
X025592Y007687D01*
X025407Y007687D02*
X025407Y007440D01*
X025592Y007440D01*
X027407Y007563D02*
X027777Y007563D01*
X027777Y007440D02*
X027777Y007687D01*
X027715Y007808D02*
X027777Y007870D01*
X027777Y007993D01*
X027715Y008055D01*
X027592Y008055D01*
X027530Y007993D01*
X027530Y007932D01*
X027592Y007808D01*
X027407Y007808D01*
X027407Y008055D01*
X027407Y008177D02*
X027777Y008177D01*
X027654Y008177D02*
X027530Y008362D01*
X027654Y008177D02*
X027777Y008362D01*
X027407Y007563D02*
X027530Y007440D01*
X026390Y005537D02*
X026390Y005290D01*
X026205Y005290D01*
X026144Y005352D01*
X026144Y005537D01*
X026022Y005599D02*
X025775Y005352D01*
X025837Y005290D01*
X025960Y005290D01*
X026022Y005352D01*
X026022Y005599D01*
X025960Y005660D01*
X025837Y005660D01*
X025775Y005599D01*
X025775Y005352D01*
X025654Y005290D02*
X025407Y005290D01*
X025530Y005290D02*
X025530Y005660D01*
X025407Y005537D01*
X026293Y003512D02*
X026607Y003198D01*
X026607Y003355D02*
X026293Y003355D01*
X026293Y003198D02*
X026607Y003512D01*
X026450Y003512D02*
X026450Y003198D01*
X026140Y001660D02*
X026140Y001599D01*
X025894Y001352D01*
X025894Y001290D01*
X025772Y001290D02*
X025772Y001537D01*
X025894Y001660D02*
X026140Y001660D01*
X025772Y001290D02*
X025587Y001290D01*
X025525Y001352D01*
X025525Y001537D01*
X025404Y001475D02*
X025157Y001475D01*
X025342Y001660D01*
X025342Y001290D01*
X029868Y007690D02*
X029930Y007690D01*
X029992Y007752D01*
X029992Y007937D01*
X030115Y007937D02*
X029868Y007937D01*
X029807Y007875D01*
X029807Y007752D01*
X029868Y007690D01*
X030115Y007690D02*
X030177Y007752D01*
X030177Y007875D01*
X030115Y007937D01*
X030177Y008058D02*
X030177Y008305D01*
X030177Y008182D02*
X029807Y008182D01*
X029930Y008058D01*
X029868Y008427D02*
X029807Y008488D01*
X029807Y008612D01*
X029868Y008674D01*
X030115Y008427D01*
X030177Y008488D01*
X030177Y008612D01*
X030115Y008674D01*
X029868Y008674D01*
X029807Y008795D02*
X030177Y008795D01*
X030054Y008795D02*
X029930Y008980D01*
X030054Y008795D02*
X030177Y008980D01*
X030115Y008427D02*
X029868Y008427D01*
M02*
