%
M48
M72
T01C0.0200
T02C0.0236
T03C0.0276
T04C0.0315
T05C0.0320
T06C0.0354
T07C0.0360
T08C0.0394
T09C0.0400
T10C0.1260
T11C0.1280
T12C0.1300
%
T01
X3642Y11925
X4892Y11925
X4892Y16675
X6142Y16675
X6142Y17925
X4892Y17925
X3642Y17925
X3642Y16675
X9142Y21675
X9892Y22675
X14042Y24175
X16542Y26925
X20042Y23775
X18392Y23675
X18142Y22175
X23842Y20875
X26642Y22675
X27892Y20175
X31142Y18425
X29892Y17175
X30392Y16675
X30392Y15425
X27892Y14425
X27392Y14925
X26292Y14775
X26792Y13425
X28392Y13025
X31692Y13225
X33892Y14175
X37142Y15425
X34392Y17925
X33442Y17925
X26892Y16175
X31642Y10675
X30392Y10175
X33392Y7675
X35392Y7675
X37392Y7675
X36892Y9175
X39892Y7675
X41392Y7675
X41142Y9925
X41392Y5175
X39392Y5175
X37392Y5175
X35392Y5175
X33392Y5175
X31392Y4675
X33392Y3175
X35392Y3175
X37392Y3175
X39392Y3175
X30392Y7425
X27392Y4175
X24892Y6175
X11392Y12175
X11692Y18125
X10042Y27925
X13442Y30175
X33892Y26925
X33892Y24675
X34992Y23775
X34392Y29675
X35892Y30175
T02
X19392Y24675
X29892Y14175
T03
X27142Y16925
X27142Y17925
X28892Y19425
X29892Y19425
X21392Y16175
X21392Y14675
X18392Y15175
X18392Y16175
X15892Y16175
X15892Y15175
X25642Y10425
X26642Y10425
X40142Y11925
X40142Y12925
T04
X40016Y10756
X39229Y10756
X38441Y10756
X37654Y10756
X36866Y10756
X36079Y10756
X35292Y10756
X34504Y10756
X33717Y10756
X32929Y10756
X32929Y2094
X33717Y2094
X34504Y2094
X35292Y2094
X36079Y2094
X36866Y2094
X37654Y2094
X38441Y2094
X39229Y2094
X40016Y2094
T05
X28892Y16425
X28142Y16925
X28892Y17425
X25892Y19675
X25142Y20175
X25142Y19175
X23892Y19675
X23142Y20175
X23142Y19175
X21892Y19675
X21142Y20175
X19892Y19675
X19142Y20175
X19142Y19175
X17392Y19675
X16642Y20175
X16642Y19175
X15392Y19675
X14642Y20175
X13392Y19675
X12642Y20175
X12642Y19175
X11392Y19675
X10642Y20175
X10642Y19175
X14642Y19175
X21142Y19175
X24392Y27925
X25142Y28425
X24392Y28925
T06
X22392Y29175
X22392Y27925
X21892Y25675
X23142Y25675
X24392Y25675
X25642Y25675
X25642Y21675
X24392Y21675
X23142Y21675
X21892Y21675
X20642Y21675
X19392Y21675
X17142Y21675
X15892Y21675
X14642Y21675
X13392Y21675
X12142Y21675
X10892Y21675
X10892Y25675
X12142Y25675
X13392Y25675
X14642Y25675
X15892Y25675
X17142Y25675
X19392Y25675
X20642Y25675
X18392Y27925
X18392Y29175
X31392Y19175
X32892Y19175
X32892Y15175
X31392Y15175
T07
X35892Y17175
X36892Y17175
X36892Y18175
X35892Y18175
X35892Y19175
X36892Y19175
X36892Y20175
X35892Y20175
X35892Y24675
X36892Y24675
X36892Y25675
X35892Y25675
X35892Y26675
X36892Y26675
X36892Y27675
X35892Y27675
T08
X30892Y28175
X29892Y28175
X29892Y24175
X30892Y24175
X7892Y22675
X7892Y21675
X7892Y20675
X7892Y19675
X6892Y20175
X6892Y21175
X6892Y22175
X6892Y23175
X28392Y4569
X28392Y3781
T09
X27892Y2175
X27892Y6175
X34392Y9175
X35392Y9175
X35892Y12175
X36892Y12175
X37892Y12175
X38892Y12175
X39892Y14175
X40892Y14175
X40892Y15175
X39892Y15175
X39892Y16175
X40892Y16175
X40892Y17175
X39892Y17175
X39892Y18175
X40892Y18175
X40892Y19175
X39892Y19175
X39892Y20175
X40892Y20175
X40892Y21175
X39892Y21175
X39892Y22175
X40892Y22175
X40892Y23175
X39892Y23175
X39892Y24175
X40892Y24175
X40892Y25175
X39892Y25175
X39892Y26175
X40892Y26175
X40892Y27175
X39892Y27175
X39892Y28175
X40892Y28175
X40892Y29175
X39892Y29175
X39892Y30175
X40892Y30175
X40892Y31175
X39892Y31175
X36892Y31175
X35892Y31175
X34892Y31175
X33892Y31175
X32892Y31175
X31892Y31175
X30892Y31175
X29892Y31175
X27892Y31175
X26892Y31175
X25892Y31175
X24892Y31175
X23892Y31175
X22892Y31175
X21892Y31175
X20892Y31175
X19292Y31175
X18292Y31175
X17292Y31175
X16292Y31175
X15292Y31175
X14292Y31175
X13292Y31175
X12292Y31175
X11292Y31175
X10292Y31175
X7892Y31175
X6892Y31175
X5892Y31175
X7892Y28925
X7892Y27925
X7892Y26925
X6892Y26425
X6892Y27425
X6892Y28425
X14392Y28675
X15392Y28675
X16392Y28675
X16392Y29675
X15392Y29675
X14392Y29675
X27892Y23175
X28892Y23175
X28892Y22175
X27892Y22175
X27892Y21175
X28892Y21175
X32642Y21425
X32642Y22425
X32642Y23425
X32642Y24425
X32642Y25425
X32642Y26425
X32642Y27425
X28892Y27175
X28892Y26175
X28892Y28175
X33892Y19925
X38892Y18175
X36892Y14175
X35892Y14175
X34892Y12175
X33892Y12175
X32892Y12175
X31892Y12175
X29892Y12175
X28892Y12175
X27892Y12175
X26892Y12175
X25892Y12175
X24892Y12175
X23892Y12175
X22892Y12175
X20892Y12175
X19892Y12175
X19892Y13175
X20892Y13175
X18892Y12175
X17892Y12175
X16892Y12175
X16892Y13175
X17892Y13175
X15892Y12175
X14892Y12175
X13892Y12175
X14892Y13175
X11892Y13175
X11892Y14175
X11892Y15175
X11892Y16175
X10392Y15175
X10392Y14175
X10392Y13175
X13892Y16175
X13892Y17175
X24892Y15175
X24892Y14175
X40892Y4175
X40892Y3175
T10
X4392Y19175
X4392Y23675
T11
X4392Y25675
X4392Y29675
T12
X4492Y14175
M30
