G75*
G70*
%OFA0B0*%
%FSLAX24Y24*%
%IPPOS*%
%LPD*%
%AMOC8*
5,1,8,0,0,1.08239X$1,22.5*
%
%ADD10C,0.0000*%
%ADD11OC8,0.0600*%
%ADD12OC8,0.0640*%
%ADD13C,0.0740*%
%ADD14R,0.0870X0.0240*%
%ADD15C,0.0650*%
%ADD16R,0.0740X0.0740*%
%ADD17C,0.0150*%
%ADD18C,0.0476*%
%ADD19C,0.0120*%
D10*
X001675Y001175D02*
X001175Y001675D01*
X001175Y020175D01*
X001675Y020675D01*
X009675Y020675D01*
X010175Y020175D01*
X010175Y001675D01*
X009675Y001175D01*
X001675Y001175D01*
X001545Y002175D02*
X001547Y002225D01*
X001553Y002275D01*
X001563Y002324D01*
X001577Y002372D01*
X001594Y002419D01*
X001615Y002464D01*
X001640Y002508D01*
X001668Y002549D01*
X001700Y002588D01*
X001734Y002625D01*
X001771Y002659D01*
X001811Y002689D01*
X001853Y002716D01*
X001897Y002740D01*
X001943Y002761D01*
X001990Y002777D01*
X002038Y002790D01*
X002088Y002799D01*
X002137Y002804D01*
X002188Y002805D01*
X002238Y002802D01*
X002287Y002795D01*
X002336Y002784D01*
X002384Y002769D01*
X002430Y002751D01*
X002475Y002729D01*
X002518Y002703D01*
X002559Y002674D01*
X002598Y002642D01*
X002634Y002607D01*
X002666Y002569D01*
X002696Y002529D01*
X002723Y002486D01*
X002746Y002442D01*
X002765Y002396D01*
X002781Y002348D01*
X002793Y002299D01*
X002801Y002250D01*
X002805Y002200D01*
X002805Y002150D01*
X002801Y002100D01*
X002793Y002051D01*
X002781Y002002D01*
X002765Y001954D01*
X002746Y001908D01*
X002723Y001864D01*
X002696Y001821D01*
X002666Y001781D01*
X002634Y001743D01*
X002598Y001708D01*
X002559Y001676D01*
X002518Y001647D01*
X002475Y001621D01*
X002430Y001599D01*
X002384Y001581D01*
X002336Y001566D01*
X002287Y001555D01*
X002238Y001548D01*
X002188Y001545D01*
X002137Y001546D01*
X002088Y001551D01*
X002038Y001560D01*
X001990Y001573D01*
X001943Y001589D01*
X001897Y001610D01*
X001853Y001634D01*
X001811Y001661D01*
X001771Y001691D01*
X001734Y001725D01*
X001700Y001762D01*
X001668Y001801D01*
X001640Y001842D01*
X001615Y001886D01*
X001594Y001931D01*
X001577Y001978D01*
X001563Y002026D01*
X001553Y002075D01*
X001547Y002125D01*
X001545Y002175D01*
X001545Y012675D02*
X001547Y012725D01*
X001553Y012775D01*
X001563Y012824D01*
X001577Y012872D01*
X001594Y012919D01*
X001615Y012964D01*
X001640Y013008D01*
X001668Y013049D01*
X001700Y013088D01*
X001734Y013125D01*
X001771Y013159D01*
X001811Y013189D01*
X001853Y013216D01*
X001897Y013240D01*
X001943Y013261D01*
X001990Y013277D01*
X002038Y013290D01*
X002088Y013299D01*
X002137Y013304D01*
X002188Y013305D01*
X002238Y013302D01*
X002287Y013295D01*
X002336Y013284D01*
X002384Y013269D01*
X002430Y013251D01*
X002475Y013229D01*
X002518Y013203D01*
X002559Y013174D01*
X002598Y013142D01*
X002634Y013107D01*
X002666Y013069D01*
X002696Y013029D01*
X002723Y012986D01*
X002746Y012942D01*
X002765Y012896D01*
X002781Y012848D01*
X002793Y012799D01*
X002801Y012750D01*
X002805Y012700D01*
X002805Y012650D01*
X002801Y012600D01*
X002793Y012551D01*
X002781Y012502D01*
X002765Y012454D01*
X002746Y012408D01*
X002723Y012364D01*
X002696Y012321D01*
X002666Y012281D01*
X002634Y012243D01*
X002598Y012208D01*
X002559Y012176D01*
X002518Y012147D01*
X002475Y012121D01*
X002430Y012099D01*
X002384Y012081D01*
X002336Y012066D01*
X002287Y012055D01*
X002238Y012048D01*
X002188Y012045D01*
X002137Y012046D01*
X002088Y012051D01*
X002038Y012060D01*
X001990Y012073D01*
X001943Y012089D01*
X001897Y012110D01*
X001853Y012134D01*
X001811Y012161D01*
X001771Y012191D01*
X001734Y012225D01*
X001700Y012262D01*
X001668Y012301D01*
X001640Y012342D01*
X001615Y012386D01*
X001594Y012431D01*
X001577Y012478D01*
X001563Y012526D01*
X001553Y012575D01*
X001547Y012625D01*
X001545Y012675D01*
X001545Y019675D02*
X001547Y019725D01*
X001553Y019775D01*
X001563Y019824D01*
X001577Y019872D01*
X001594Y019919D01*
X001615Y019964D01*
X001640Y020008D01*
X001668Y020049D01*
X001700Y020088D01*
X001734Y020125D01*
X001771Y020159D01*
X001811Y020189D01*
X001853Y020216D01*
X001897Y020240D01*
X001943Y020261D01*
X001990Y020277D01*
X002038Y020290D01*
X002088Y020299D01*
X002137Y020304D01*
X002188Y020305D01*
X002238Y020302D01*
X002287Y020295D01*
X002336Y020284D01*
X002384Y020269D01*
X002430Y020251D01*
X002475Y020229D01*
X002518Y020203D01*
X002559Y020174D01*
X002598Y020142D01*
X002634Y020107D01*
X002666Y020069D01*
X002696Y020029D01*
X002723Y019986D01*
X002746Y019942D01*
X002765Y019896D01*
X002781Y019848D01*
X002793Y019799D01*
X002801Y019750D01*
X002805Y019700D01*
X002805Y019650D01*
X002801Y019600D01*
X002793Y019551D01*
X002781Y019502D01*
X002765Y019454D01*
X002746Y019408D01*
X002723Y019364D01*
X002696Y019321D01*
X002666Y019281D01*
X002634Y019243D01*
X002598Y019208D01*
X002559Y019176D01*
X002518Y019147D01*
X002475Y019121D01*
X002430Y019099D01*
X002384Y019081D01*
X002336Y019066D01*
X002287Y019055D01*
X002238Y019048D01*
X002188Y019045D01*
X002137Y019046D01*
X002088Y019051D01*
X002038Y019060D01*
X001990Y019073D01*
X001943Y019089D01*
X001897Y019110D01*
X001853Y019134D01*
X001811Y019161D01*
X001771Y019191D01*
X001734Y019225D01*
X001700Y019262D01*
X001668Y019301D01*
X001640Y019342D01*
X001615Y019386D01*
X001594Y019431D01*
X001577Y019478D01*
X001563Y019526D01*
X001553Y019575D01*
X001547Y019625D01*
X001545Y019675D01*
X008545Y019675D02*
X008547Y019725D01*
X008553Y019775D01*
X008563Y019824D01*
X008577Y019872D01*
X008594Y019919D01*
X008615Y019964D01*
X008640Y020008D01*
X008668Y020049D01*
X008700Y020088D01*
X008734Y020125D01*
X008771Y020159D01*
X008811Y020189D01*
X008853Y020216D01*
X008897Y020240D01*
X008943Y020261D01*
X008990Y020277D01*
X009038Y020290D01*
X009088Y020299D01*
X009137Y020304D01*
X009188Y020305D01*
X009238Y020302D01*
X009287Y020295D01*
X009336Y020284D01*
X009384Y020269D01*
X009430Y020251D01*
X009475Y020229D01*
X009518Y020203D01*
X009559Y020174D01*
X009598Y020142D01*
X009634Y020107D01*
X009666Y020069D01*
X009696Y020029D01*
X009723Y019986D01*
X009746Y019942D01*
X009765Y019896D01*
X009781Y019848D01*
X009793Y019799D01*
X009801Y019750D01*
X009805Y019700D01*
X009805Y019650D01*
X009801Y019600D01*
X009793Y019551D01*
X009781Y019502D01*
X009765Y019454D01*
X009746Y019408D01*
X009723Y019364D01*
X009696Y019321D01*
X009666Y019281D01*
X009634Y019243D01*
X009598Y019208D01*
X009559Y019176D01*
X009518Y019147D01*
X009475Y019121D01*
X009430Y019099D01*
X009384Y019081D01*
X009336Y019066D01*
X009287Y019055D01*
X009238Y019048D01*
X009188Y019045D01*
X009137Y019046D01*
X009088Y019051D01*
X009038Y019060D01*
X008990Y019073D01*
X008943Y019089D01*
X008897Y019110D01*
X008853Y019134D01*
X008811Y019161D01*
X008771Y019191D01*
X008734Y019225D01*
X008700Y019262D01*
X008668Y019301D01*
X008640Y019342D01*
X008615Y019386D01*
X008594Y019431D01*
X008577Y019478D01*
X008563Y019526D01*
X008553Y019575D01*
X008547Y019625D01*
X008545Y019675D01*
X008545Y012675D02*
X008547Y012725D01*
X008553Y012775D01*
X008563Y012824D01*
X008577Y012872D01*
X008594Y012919D01*
X008615Y012964D01*
X008640Y013008D01*
X008668Y013049D01*
X008700Y013088D01*
X008734Y013125D01*
X008771Y013159D01*
X008811Y013189D01*
X008853Y013216D01*
X008897Y013240D01*
X008943Y013261D01*
X008990Y013277D01*
X009038Y013290D01*
X009088Y013299D01*
X009137Y013304D01*
X009188Y013305D01*
X009238Y013302D01*
X009287Y013295D01*
X009336Y013284D01*
X009384Y013269D01*
X009430Y013251D01*
X009475Y013229D01*
X009518Y013203D01*
X009559Y013174D01*
X009598Y013142D01*
X009634Y013107D01*
X009666Y013069D01*
X009696Y013029D01*
X009723Y012986D01*
X009746Y012942D01*
X009765Y012896D01*
X009781Y012848D01*
X009793Y012799D01*
X009801Y012750D01*
X009805Y012700D01*
X009805Y012650D01*
X009801Y012600D01*
X009793Y012551D01*
X009781Y012502D01*
X009765Y012454D01*
X009746Y012408D01*
X009723Y012364D01*
X009696Y012321D01*
X009666Y012281D01*
X009634Y012243D01*
X009598Y012208D01*
X009559Y012176D01*
X009518Y012147D01*
X009475Y012121D01*
X009430Y012099D01*
X009384Y012081D01*
X009336Y012066D01*
X009287Y012055D01*
X009238Y012048D01*
X009188Y012045D01*
X009137Y012046D01*
X009088Y012051D01*
X009038Y012060D01*
X008990Y012073D01*
X008943Y012089D01*
X008897Y012110D01*
X008853Y012134D01*
X008811Y012161D01*
X008771Y012191D01*
X008734Y012225D01*
X008700Y012262D01*
X008668Y012301D01*
X008640Y012342D01*
X008615Y012386D01*
X008594Y012431D01*
X008577Y012478D01*
X008563Y012526D01*
X008553Y012575D01*
X008547Y012625D01*
X008545Y012675D01*
X008545Y002175D02*
X008547Y002225D01*
X008553Y002275D01*
X008563Y002324D01*
X008577Y002372D01*
X008594Y002419D01*
X008615Y002464D01*
X008640Y002508D01*
X008668Y002549D01*
X008700Y002588D01*
X008734Y002625D01*
X008771Y002659D01*
X008811Y002689D01*
X008853Y002716D01*
X008897Y002740D01*
X008943Y002761D01*
X008990Y002777D01*
X009038Y002790D01*
X009088Y002799D01*
X009137Y002804D01*
X009188Y002805D01*
X009238Y002802D01*
X009287Y002795D01*
X009336Y002784D01*
X009384Y002769D01*
X009430Y002751D01*
X009475Y002729D01*
X009518Y002703D01*
X009559Y002674D01*
X009598Y002642D01*
X009634Y002607D01*
X009666Y002569D01*
X009696Y002529D01*
X009723Y002486D01*
X009746Y002442D01*
X009765Y002396D01*
X009781Y002348D01*
X009793Y002299D01*
X009801Y002250D01*
X009805Y002200D01*
X009805Y002150D01*
X009801Y002100D01*
X009793Y002051D01*
X009781Y002002D01*
X009765Y001954D01*
X009746Y001908D01*
X009723Y001864D01*
X009696Y001821D01*
X009666Y001781D01*
X009634Y001743D01*
X009598Y001708D01*
X009559Y001676D01*
X009518Y001647D01*
X009475Y001621D01*
X009430Y001599D01*
X009384Y001581D01*
X009336Y001566D01*
X009287Y001555D01*
X009238Y001548D01*
X009188Y001545D01*
X009137Y001546D01*
X009088Y001551D01*
X009038Y001560D01*
X008990Y001573D01*
X008943Y001589D01*
X008897Y001610D01*
X008853Y001634D01*
X008811Y001661D01*
X008771Y001691D01*
X008734Y001725D01*
X008700Y001762D01*
X008668Y001801D01*
X008640Y001842D01*
X008615Y001886D01*
X008594Y001931D01*
X008577Y001978D01*
X008563Y002026D01*
X008553Y002075D01*
X008547Y002125D01*
X008545Y002175D01*
D11*
X005675Y003675D03*
X005675Y004675D03*
X005675Y005675D03*
X005675Y006675D03*
X004675Y006675D03*
X004675Y005675D03*
X004675Y004675D03*
X004675Y003675D03*
D12*
X008175Y003675D03*
X008175Y004675D03*
X008175Y005675D03*
X009175Y005675D03*
X009175Y004675D03*
X009175Y003675D03*
D13*
X007675Y010175D03*
X007675Y011675D03*
X005675Y014175D03*
X005675Y015175D03*
X005675Y016175D03*
X003675Y011675D03*
X003675Y010175D03*
D14*
X004645Y014925D03*
X004645Y015425D03*
X004645Y015925D03*
X004645Y016425D03*
X006705Y016425D03*
X006705Y015925D03*
X006705Y015425D03*
X006705Y014925D03*
D15*
X007175Y018175D03*
X007175Y019175D03*
X004175Y019175D03*
X004175Y018175D03*
D16*
X005675Y017175D03*
D17*
X005425Y017175D01*
X005325Y017075D01*
X005275Y017125D01*
X005225Y017125D01*
X004175Y018175D01*
X003903Y018755D02*
X003812Y018718D01*
X003632Y018538D01*
X003535Y018302D01*
X003535Y018048D01*
X003632Y017812D01*
X003812Y017632D01*
X004048Y017535D01*
X004263Y017535D01*
X004748Y017050D01*
X004558Y016860D01*
X004147Y016860D01*
X004032Y016812D01*
X003943Y016723D01*
X003942Y016721D01*
X003904Y016706D01*
X003454Y016256D01*
X003344Y016146D01*
X003285Y016003D01*
X003285Y012254D01*
X003094Y012063D01*
X002990Y011811D01*
X002990Y011539D01*
X003094Y011287D01*
X003287Y011094D01*
X003539Y010990D01*
X003811Y010990D01*
X004063Y011094D01*
X004256Y011287D01*
X004360Y011539D01*
X004360Y011811D01*
X004256Y012063D01*
X004065Y012254D01*
X004065Y014524D01*
X004147Y014490D01*
X005064Y014490D01*
X004990Y014311D01*
X004990Y014039D01*
X005094Y013787D01*
X005287Y013594D01*
X005539Y013490D01*
X005550Y013490D01*
X005550Y011650D01*
X005607Y011513D01*
X005713Y011407D01*
X005850Y011350D01*
X006750Y011350D01*
X006750Y008280D01*
X005760Y007290D01*
X005420Y007290D01*
X005175Y007045D01*
X004930Y007290D01*
X004420Y007290D01*
X004195Y007065D01*
X003597Y007065D01*
X003454Y007006D01*
X003344Y006896D01*
X003285Y006753D01*
X003285Y003097D01*
X003344Y002954D01*
X003594Y002704D01*
X003704Y002594D01*
X003847Y002535D01*
X007503Y002535D01*
X007646Y002594D01*
X008092Y003040D01*
X008438Y003040D01*
X008675Y003277D01*
X008877Y003075D01*
X008640Y002976D01*
X008374Y002710D01*
X008230Y002363D01*
X008230Y001987D01*
X008374Y001640D01*
X008524Y001490D01*
X002826Y001490D01*
X002976Y001640D01*
X003120Y001987D01*
X003120Y002363D01*
X002976Y002710D01*
X002710Y002976D01*
X002363Y003120D01*
X001987Y003120D01*
X001640Y002976D01*
X001490Y002826D01*
X001490Y012024D01*
X001640Y011874D01*
X001987Y011730D01*
X002363Y011730D01*
X002710Y011874D01*
X002976Y012140D01*
X003120Y012487D01*
X003120Y012863D01*
X002976Y013210D01*
X002710Y013476D01*
X002363Y013620D01*
X001987Y013620D01*
X001640Y013476D01*
X001490Y013326D01*
X001490Y019024D01*
X001640Y018874D01*
X001987Y018730D01*
X002363Y018730D01*
X002710Y018874D01*
X002976Y019140D01*
X003120Y019487D01*
X003120Y019863D01*
X002976Y020210D01*
X002826Y020360D01*
X008524Y020360D01*
X008374Y020210D01*
X008230Y019863D01*
X008230Y019487D01*
X008374Y019140D01*
X008640Y018874D01*
X008987Y018730D01*
X009363Y018730D01*
X009710Y018874D01*
X009860Y019024D01*
X009860Y013326D01*
X009710Y013476D01*
X009363Y013620D01*
X008987Y013620D01*
X008640Y013476D01*
X008374Y013210D01*
X008230Y012863D01*
X008230Y012487D01*
X008374Y012140D01*
X008640Y011874D01*
X008987Y011730D01*
X009363Y011730D01*
X009710Y011874D01*
X009860Y012024D01*
X009860Y002826D01*
X009710Y002976D01*
X009473Y003075D01*
X009810Y003412D01*
X009810Y003938D01*
X009573Y004175D01*
X009810Y004412D01*
X009810Y004938D01*
X009573Y005175D01*
X009810Y005412D01*
X009810Y005938D01*
X009565Y006183D01*
X009565Y006753D01*
X009506Y006896D01*
X009396Y007006D01*
X009253Y007065D01*
X006847Y007065D01*
X006704Y007006D01*
X006290Y006592D01*
X006290Y006760D01*
X007337Y007807D01*
X007443Y007913D01*
X007500Y008050D01*
X007500Y009506D01*
X007539Y009490D01*
X007811Y009490D01*
X008063Y009594D01*
X008256Y009787D01*
X008360Y010039D01*
X008360Y010311D01*
X008256Y010563D01*
X008063Y010756D01*
X007811Y010860D01*
X007539Y010860D01*
X007500Y010844D01*
X007500Y011006D01*
X007539Y010990D01*
X007811Y010990D01*
X008063Y011094D01*
X008256Y011287D01*
X008360Y011539D01*
X008360Y011811D01*
X008256Y012063D01*
X008063Y012256D01*
X007811Y012360D01*
X007539Y012360D01*
X007287Y012256D01*
X007131Y012100D01*
X006300Y012100D01*
X006300Y013894D01*
X006360Y014039D01*
X006360Y014080D01*
X006770Y014490D01*
X007203Y014490D01*
X007318Y014538D01*
X007407Y014627D01*
X007455Y014742D01*
X007455Y014908D01*
X007490Y014992D01*
X007490Y015358D01*
X007462Y015425D01*
X007490Y015492D01*
X007490Y015858D01*
X007462Y015925D01*
X007490Y015992D01*
X007490Y016358D01*
X007455Y016442D01*
X007455Y016608D01*
X007407Y016723D01*
X007318Y016812D01*
X007203Y016860D01*
X007100Y016860D01*
X007100Y017535D01*
X007302Y017535D01*
X007538Y017632D01*
X007718Y017812D01*
X007815Y018048D01*
X007815Y018302D01*
X007718Y018538D01*
X007538Y018718D01*
X007447Y018755D01*
X007501Y018794D01*
X007556Y018849D01*
X007603Y018913D01*
X007638Y018983D01*
X007663Y019058D01*
X007675Y019136D01*
X007675Y019175D01*
X007675Y019214D01*
X007663Y019292D01*
X008311Y019292D01*
X008372Y019144D02*
X007675Y019144D01*
X007675Y019175D02*
X007175Y019175D01*
X007675Y019175D01*
X007663Y019292D02*
X007638Y019367D01*
X007603Y019437D01*
X007556Y019501D01*
X007501Y019556D01*
X007437Y019603D01*
X007367Y019638D01*
X007292Y019663D01*
X007214Y019675D01*
X007175Y019675D01*
X007175Y019175D01*
X007175Y019175D01*
X007175Y019175D01*
X007175Y019175D01*
X006675Y019175D01*
X006675Y019214D01*
X006687Y019292D01*
X004663Y019292D01*
X004638Y019367D01*
X004603Y019437D01*
X004556Y019501D01*
X004501Y019556D01*
X004437Y019603D01*
X004367Y019638D01*
X004292Y019663D01*
X004214Y019675D01*
X004175Y019675D01*
X004175Y019175D01*
X004175Y019175D01*
X004675Y019175D01*
X004675Y019214D01*
X004663Y019292D01*
X004675Y019175D02*
X004175Y019175D01*
X004175Y019175D01*
X004175Y019175D01*
X003675Y019175D01*
X003675Y019214D01*
X003687Y019292D01*
X003039Y019292D01*
X002978Y019144D02*
X003675Y019144D01*
X003675Y019136D02*
X003687Y019058D01*
X003712Y018983D01*
X003747Y018913D01*
X003794Y018849D01*
X003849Y018794D01*
X003903Y018755D01*
X003793Y018698D02*
X001490Y018698D01*
X001490Y018550D02*
X003644Y018550D01*
X003576Y018401D02*
X001490Y018401D01*
X001490Y018253D02*
X003535Y018253D01*
X003535Y018104D02*
X001490Y018104D01*
X001490Y017956D02*
X003573Y017956D01*
X003638Y017807D02*
X001490Y017807D01*
X001490Y017659D02*
X003786Y017659D01*
X004288Y017510D02*
X001490Y017510D01*
X001490Y017362D02*
X004437Y017362D01*
X004585Y017213D02*
X001490Y017213D01*
X001490Y017065D02*
X004734Y017065D01*
X004614Y016916D02*
X001490Y016916D01*
X001490Y016768D02*
X003987Y016768D01*
X003817Y016619D02*
X001490Y016619D01*
X001490Y016471D02*
X003669Y016471D01*
X003520Y016322D02*
X001490Y016322D01*
X001490Y016174D02*
X003372Y016174D01*
X003454Y016256D02*
X003454Y016256D01*
X003294Y016025D02*
X001490Y016025D01*
X001490Y015877D02*
X003285Y015877D01*
X003285Y015728D02*
X001490Y015728D01*
X001490Y015580D02*
X003285Y015580D01*
X003285Y015431D02*
X001490Y015431D01*
X001490Y015283D02*
X003285Y015283D01*
X003285Y015134D02*
X001490Y015134D01*
X001490Y014986D02*
X003285Y014986D01*
X003285Y014837D02*
X001490Y014837D01*
X001490Y014689D02*
X003285Y014689D01*
X003285Y014540D02*
X001490Y014540D01*
X001490Y014392D02*
X003285Y014392D01*
X003285Y014243D02*
X001490Y014243D01*
X001490Y014095D02*
X003285Y014095D01*
X003285Y013946D02*
X001490Y013946D01*
X001490Y013798D02*
X003285Y013798D01*
X003285Y013649D02*
X001490Y013649D01*
X001490Y013501D02*
X001699Y013501D01*
X001516Y013352D02*
X001490Y013352D01*
X001490Y012016D02*
X001498Y012016D01*
X001490Y011867D02*
X001656Y011867D01*
X001490Y011719D02*
X002990Y011719D01*
X002990Y011570D02*
X001490Y011570D01*
X001490Y011422D02*
X003039Y011422D01*
X003108Y011273D02*
X001490Y011273D01*
X001490Y011125D02*
X003257Y011125D01*
X003287Y010756D02*
X003094Y010563D01*
X002990Y010311D01*
X002990Y010039D01*
X003094Y009787D01*
X003287Y009594D01*
X003539Y009490D01*
X003811Y009490D01*
X004063Y009594D01*
X004256Y009787D01*
X004360Y010039D01*
X004360Y010311D01*
X004256Y010563D01*
X004063Y010756D01*
X003811Y010860D01*
X003539Y010860D01*
X003287Y010756D01*
X003210Y010679D02*
X001490Y010679D01*
X001490Y010531D02*
X003081Y010531D01*
X003019Y010382D02*
X001490Y010382D01*
X001490Y010234D02*
X002990Y010234D01*
X002990Y010085D02*
X001490Y010085D01*
X001490Y009937D02*
X003032Y009937D01*
X003094Y009788D02*
X001490Y009788D01*
X001490Y009640D02*
X003242Y009640D01*
X003536Y009491D02*
X001490Y009491D01*
X001490Y009343D02*
X006750Y009343D01*
X006750Y009491D02*
X003814Y009491D01*
X004108Y009640D02*
X006750Y009640D01*
X006750Y009788D02*
X004256Y009788D01*
X004318Y009937D02*
X006750Y009937D01*
X006750Y010085D02*
X004360Y010085D01*
X004360Y010234D02*
X006750Y010234D01*
X006750Y010382D02*
X004331Y010382D01*
X004269Y010531D02*
X006750Y010531D01*
X006750Y010679D02*
X004140Y010679D01*
X003890Y010828D02*
X006750Y010828D01*
X006750Y010976D02*
X001490Y010976D01*
X001490Y010828D02*
X003460Y010828D01*
X003675Y011675D02*
X003675Y015925D01*
X004125Y016375D01*
X004525Y016375D01*
X004575Y016425D01*
X004645Y016425D01*
X004675Y016425D01*
X005325Y017075D01*
X005650Y016490D02*
X005650Y016200D01*
X005700Y016200D01*
X005960Y016200D01*
X005960Y016150D01*
X005700Y016150D01*
X005700Y016200D01*
X005700Y016490D01*
X005650Y016490D01*
X005650Y016471D02*
X005700Y016471D01*
X005700Y016322D02*
X005650Y016322D01*
X005650Y016200D02*
X005650Y016150D01*
X005390Y016150D01*
X005390Y016200D01*
X005650Y016200D01*
X005650Y016174D02*
X005390Y016174D01*
X005650Y016150D02*
X005650Y015860D01*
X005700Y015860D01*
X005700Y016150D01*
X005650Y016150D01*
X005675Y016175D02*
X005875Y015975D01*
X006675Y015975D01*
X006705Y015925D01*
X006725Y015925D01*
X007363Y016768D02*
X009860Y016768D01*
X009860Y016916D02*
X007100Y016916D01*
X007100Y017065D02*
X009860Y017065D01*
X009860Y017213D02*
X007100Y017213D01*
X007100Y017362D02*
X009860Y017362D01*
X009860Y017510D02*
X007100Y017510D01*
X007564Y017659D02*
X009860Y017659D01*
X009860Y017807D02*
X007712Y017807D01*
X007777Y017956D02*
X009860Y017956D01*
X009860Y018104D02*
X007815Y018104D01*
X007815Y018253D02*
X009860Y018253D01*
X009860Y018401D02*
X007774Y018401D01*
X007706Y018550D02*
X009860Y018550D01*
X009860Y018698D02*
X007557Y018698D01*
X007554Y018847D02*
X008706Y018847D01*
X008519Y018995D02*
X007642Y018995D01*
X007600Y019441D02*
X008249Y019441D01*
X008230Y019589D02*
X007456Y019589D01*
X007175Y019589D02*
X007175Y019589D01*
X007175Y019675D02*
X007136Y019675D01*
X007058Y019663D01*
X006983Y019638D01*
X006913Y019603D01*
X006849Y019556D01*
X006794Y019501D01*
X006747Y019437D01*
X006712Y019367D01*
X006687Y019292D01*
X006675Y019175D02*
X006675Y019136D01*
X006687Y019058D01*
X006712Y018983D01*
X006747Y018913D01*
X006794Y018849D01*
X006849Y018794D01*
X006903Y018755D01*
X006812Y018718D01*
X006641Y018546D01*
X006513Y018493D01*
X006407Y018387D01*
X006350Y018250D01*
X006350Y017632D01*
X006312Y017723D01*
X006223Y017812D01*
X006108Y017860D01*
X005242Y017860D01*
X005127Y017812D01*
X005108Y017794D01*
X004815Y018087D01*
X004815Y018302D01*
X004718Y018538D01*
X004538Y018718D01*
X004447Y018755D01*
X004501Y018794D01*
X004556Y018849D01*
X004603Y018913D01*
X004638Y018983D01*
X004663Y019058D01*
X004675Y019136D01*
X004675Y019175D01*
X004675Y019144D02*
X006675Y019144D01*
X006675Y019175D02*
X007175Y019175D01*
X007175Y019675D01*
X007175Y019441D02*
X007175Y019441D01*
X007175Y019292D02*
X007175Y019292D01*
X006894Y019589D02*
X004456Y019589D01*
X004600Y019441D02*
X006750Y019441D01*
X006708Y018995D02*
X004642Y018995D01*
X004554Y018847D02*
X006796Y018847D01*
X006793Y018698D02*
X004557Y018698D01*
X004706Y018550D02*
X006644Y018550D01*
X006421Y018401D02*
X004774Y018401D01*
X004815Y018253D02*
X006351Y018253D01*
X006350Y018104D02*
X004815Y018104D01*
X004946Y017956D02*
X006350Y017956D01*
X006350Y017807D02*
X006228Y017807D01*
X006339Y017659D02*
X006350Y017659D01*
X005960Y016174D02*
X005700Y016174D01*
X005700Y016025D02*
X005650Y016025D01*
X005650Y015877D02*
X005700Y015877D01*
X005023Y014392D02*
X004065Y014392D01*
X004065Y014243D02*
X004990Y014243D01*
X004990Y014095D02*
X004065Y014095D01*
X004065Y013946D02*
X005028Y013946D01*
X005090Y013798D02*
X004065Y013798D01*
X004065Y013649D02*
X005232Y013649D01*
X005513Y013501D02*
X004065Y013501D01*
X004065Y013352D02*
X005550Y013352D01*
X005550Y013204D02*
X004065Y013204D01*
X004065Y013055D02*
X005550Y013055D01*
X005550Y012907D02*
X004065Y012907D01*
X004065Y012758D02*
X005550Y012758D01*
X005550Y012610D02*
X004065Y012610D01*
X004065Y012461D02*
X005550Y012461D01*
X005550Y012313D02*
X004065Y012313D01*
X004155Y012164D02*
X005550Y012164D01*
X005550Y012016D02*
X004275Y012016D01*
X004337Y011867D02*
X005550Y011867D01*
X005550Y011719D02*
X004360Y011719D01*
X004360Y011570D02*
X005583Y011570D01*
X005698Y011422D02*
X004311Y011422D01*
X004242Y011273D02*
X006750Y011273D01*
X006750Y011125D02*
X004093Y011125D01*
X003195Y012164D02*
X002986Y012164D01*
X003048Y012313D02*
X003285Y012313D01*
X003285Y012461D02*
X003109Y012461D01*
X003120Y012610D02*
X003285Y012610D01*
X003285Y012758D02*
X003120Y012758D01*
X003102Y012907D02*
X003285Y012907D01*
X003285Y013055D02*
X003040Y013055D01*
X002979Y013204D02*
X003285Y013204D01*
X003285Y013352D02*
X002834Y013352D01*
X002651Y013501D02*
X003285Y013501D01*
X003075Y012016D02*
X002852Y012016D01*
X002694Y011867D02*
X003013Y011867D01*
X001490Y009194D02*
X006750Y009194D01*
X006750Y009046D02*
X001490Y009046D01*
X001490Y008897D02*
X006750Y008897D01*
X006750Y008749D02*
X001490Y008749D01*
X001490Y008600D02*
X006750Y008600D01*
X006750Y008452D02*
X001490Y008452D01*
X001490Y008303D02*
X006750Y008303D01*
X006624Y008155D02*
X001490Y008155D01*
X001490Y008006D02*
X006476Y008006D01*
X006327Y007858D02*
X001490Y007858D01*
X001490Y007709D02*
X006179Y007709D01*
X006030Y007561D02*
X001490Y007561D01*
X001490Y007412D02*
X005882Y007412D01*
X005394Y007264D02*
X004956Y007264D01*
X005105Y007115D02*
X005245Y007115D01*
X005175Y006175D02*
X004675Y005675D01*
X004404Y005076D02*
X004065Y005415D01*
X004065Y003935D01*
X004404Y004274D01*
X004200Y004478D01*
X004200Y004660D01*
X004660Y004660D01*
X004660Y004690D01*
X004200Y004690D01*
X004200Y004872D01*
X004404Y005076D01*
X004364Y005036D02*
X004065Y005036D01*
X004065Y004888D02*
X004216Y004888D01*
X004200Y004739D02*
X004065Y004739D01*
X004065Y004591D02*
X004200Y004591D01*
X004236Y004442D02*
X004065Y004442D01*
X004065Y004294D02*
X004385Y004294D01*
X004275Y004145D02*
X004065Y004145D01*
X004065Y003997D02*
X004127Y003997D01*
X003675Y003175D02*
X003925Y002925D01*
X007425Y002925D01*
X008175Y003675D01*
X008504Y003106D02*
X008846Y003106D01*
X008698Y003254D02*
X008652Y003254D01*
X008621Y002957D02*
X008009Y002957D01*
X007860Y002809D02*
X008472Y002809D01*
X008353Y002660D02*
X007712Y002660D01*
X008230Y002363D02*
X003120Y002363D01*
X003120Y002215D02*
X008230Y002215D01*
X008230Y002066D02*
X003120Y002066D01*
X003091Y001918D02*
X008259Y001918D01*
X008320Y001769D02*
X003030Y001769D01*
X002957Y001621D02*
X008393Y001621D01*
X008292Y002512D02*
X003058Y002512D01*
X002997Y002660D02*
X003638Y002660D01*
X003490Y002809D02*
X002878Y002809D01*
X002729Y002957D02*
X003343Y002957D01*
X003285Y003106D02*
X002398Y003106D01*
X001952Y003106D02*
X001490Y003106D01*
X001490Y003254D02*
X003285Y003254D01*
X003285Y003403D02*
X001490Y003403D01*
X001490Y003551D02*
X003285Y003551D01*
X003285Y003700D02*
X001490Y003700D01*
X001490Y003848D02*
X003285Y003848D01*
X003285Y003997D02*
X001490Y003997D01*
X001490Y004145D02*
X003285Y004145D01*
X003285Y004294D02*
X001490Y004294D01*
X001490Y004442D02*
X003285Y004442D01*
X003285Y004591D02*
X001490Y004591D01*
X001490Y004739D02*
X003285Y004739D01*
X003285Y004888D02*
X001490Y004888D01*
X001490Y005036D02*
X003285Y005036D01*
X003285Y005185D02*
X001490Y005185D01*
X001490Y005333D02*
X003285Y005333D01*
X003285Y005482D02*
X001490Y005482D01*
X001490Y005630D02*
X003285Y005630D01*
X003285Y005779D02*
X001490Y005779D01*
X001490Y005927D02*
X003285Y005927D01*
X003285Y006076D02*
X001490Y006076D01*
X001490Y006224D02*
X003285Y006224D01*
X003285Y006373D02*
X001490Y006373D01*
X001490Y006521D02*
X003285Y006521D01*
X003285Y006670D02*
X001490Y006670D01*
X001490Y006818D02*
X003312Y006818D01*
X003415Y006967D02*
X001490Y006967D01*
X001490Y007115D02*
X004245Y007115D01*
X004394Y007264D02*
X001490Y007264D01*
X003675Y006675D02*
X003675Y003175D01*
X004065Y005185D02*
X004296Y005185D01*
X004147Y005333D02*
X004065Y005333D01*
X003675Y006675D02*
X004675Y006675D01*
X005175Y006175D02*
X006425Y006175D01*
X006925Y006675D01*
X009175Y006675D01*
X009175Y005675D01*
X009583Y005185D02*
X009860Y005185D01*
X009860Y005333D02*
X009731Y005333D01*
X009810Y005482D02*
X009860Y005482D01*
X009860Y005630D02*
X009810Y005630D01*
X009810Y005779D02*
X009860Y005779D01*
X009860Y005927D02*
X009810Y005927D01*
X009860Y006076D02*
X009673Y006076D01*
X009565Y006224D02*
X009860Y006224D01*
X009860Y006373D02*
X009565Y006373D01*
X009565Y006521D02*
X009860Y006521D01*
X009860Y006670D02*
X009565Y006670D01*
X009538Y006818D02*
X009860Y006818D01*
X009860Y006967D02*
X009435Y006967D01*
X009860Y007115D02*
X006645Y007115D01*
X006665Y006967D02*
X006497Y006967D01*
X006516Y006818D02*
X006348Y006818D01*
X006368Y006670D02*
X006290Y006670D01*
X006794Y007264D02*
X009860Y007264D01*
X009860Y007412D02*
X006942Y007412D01*
X007091Y007561D02*
X009860Y007561D01*
X009860Y007709D02*
X007239Y007709D01*
X007388Y007858D02*
X009860Y007858D01*
X009860Y008006D02*
X007482Y008006D01*
X007500Y008155D02*
X009860Y008155D01*
X009860Y008303D02*
X007500Y008303D01*
X007500Y008452D02*
X009860Y008452D01*
X009860Y008600D02*
X007500Y008600D01*
X007500Y008749D02*
X009860Y008749D01*
X009860Y008897D02*
X007500Y008897D01*
X007500Y009046D02*
X009860Y009046D01*
X009860Y009194D02*
X007500Y009194D01*
X007500Y009343D02*
X009860Y009343D01*
X009860Y009491D02*
X007814Y009491D01*
X007536Y009491D02*
X007500Y009491D01*
X008108Y009640D02*
X009860Y009640D01*
X009860Y009788D02*
X008256Y009788D01*
X008318Y009937D02*
X009860Y009937D01*
X009860Y010085D02*
X008360Y010085D01*
X008360Y010234D02*
X009860Y010234D01*
X009860Y010382D02*
X008331Y010382D01*
X008269Y010531D02*
X009860Y010531D01*
X009860Y010679D02*
X008140Y010679D01*
X007890Y010828D02*
X009860Y010828D01*
X009860Y010976D02*
X007500Y010976D01*
X008093Y011125D02*
X009860Y011125D01*
X009860Y011273D02*
X008242Y011273D01*
X008311Y011422D02*
X009860Y011422D01*
X009860Y011570D02*
X008360Y011570D01*
X008360Y011719D02*
X009860Y011719D01*
X009860Y011867D02*
X009694Y011867D01*
X009852Y012016D02*
X009860Y012016D01*
X009834Y013352D02*
X009860Y013352D01*
X009860Y013501D02*
X009651Y013501D01*
X009860Y013649D02*
X006300Y013649D01*
X006300Y013501D02*
X008699Y013501D01*
X008516Y013352D02*
X006300Y013352D01*
X006300Y013204D02*
X008371Y013204D01*
X008310Y013055D02*
X006300Y013055D01*
X006300Y012907D02*
X008248Y012907D01*
X008230Y012758D02*
X006300Y012758D01*
X006300Y012610D02*
X008230Y012610D01*
X008241Y012461D02*
X006300Y012461D01*
X006300Y012313D02*
X007424Y012313D01*
X007195Y012164D02*
X006300Y012164D01*
X006300Y013798D02*
X009860Y013798D01*
X009860Y013946D02*
X006322Y013946D01*
X006375Y014095D02*
X009860Y014095D01*
X009860Y014243D02*
X006523Y014243D01*
X006672Y014392D02*
X009860Y014392D01*
X009860Y014540D02*
X007320Y014540D01*
X007433Y014689D02*
X009860Y014689D01*
X009860Y014837D02*
X007455Y014837D01*
X007487Y014986D02*
X009860Y014986D01*
X009860Y015134D02*
X007490Y015134D01*
X007490Y015283D02*
X009860Y015283D01*
X009860Y015431D02*
X007465Y015431D01*
X007490Y015580D02*
X009860Y015580D01*
X009860Y015728D02*
X007490Y015728D01*
X007482Y015877D02*
X009860Y015877D01*
X009860Y016025D02*
X007490Y016025D01*
X007490Y016174D02*
X009860Y016174D01*
X009860Y016322D02*
X007490Y016322D01*
X007455Y016471D02*
X009860Y016471D01*
X009860Y016619D02*
X007450Y016619D01*
X008230Y019738D02*
X003120Y019738D01*
X003110Y019886D02*
X008240Y019886D01*
X008301Y020035D02*
X003049Y020035D01*
X002987Y020183D02*
X008363Y020183D01*
X008495Y020332D02*
X002855Y020332D01*
X003120Y019589D02*
X003894Y019589D01*
X003913Y019603D02*
X003849Y019556D01*
X003794Y019501D01*
X003747Y019437D01*
X003712Y019367D01*
X003687Y019292D01*
X003675Y019175D02*
X003675Y019136D01*
X003675Y019175D02*
X004175Y019175D01*
X004175Y019675D01*
X004136Y019675D01*
X004058Y019663D01*
X003983Y019638D01*
X003913Y019603D01*
X003750Y019441D02*
X003101Y019441D01*
X002831Y018995D02*
X003708Y018995D01*
X003796Y018847D02*
X002644Y018847D01*
X001706Y018847D02*
X001490Y018847D01*
X001490Y018995D02*
X001519Y018995D01*
X004175Y019292D02*
X004175Y019292D01*
X004175Y019441D02*
X004175Y019441D01*
X004175Y019589D02*
X004175Y019589D01*
X005095Y017807D02*
X005122Y017807D01*
X007926Y012313D02*
X008302Y012313D01*
X008364Y012164D02*
X008155Y012164D01*
X008275Y012016D02*
X008498Y012016D01*
X008656Y011867D02*
X008337Y011867D01*
X009712Y005036D02*
X009860Y005036D01*
X009860Y004888D02*
X009810Y004888D01*
X009810Y004739D02*
X009860Y004739D01*
X009860Y004591D02*
X009810Y004591D01*
X009810Y004442D02*
X009860Y004442D01*
X009860Y004294D02*
X009692Y004294D01*
X009603Y004145D02*
X009860Y004145D01*
X009860Y003997D02*
X009752Y003997D01*
X009810Y003848D02*
X009860Y003848D01*
X009860Y003700D02*
X009810Y003700D01*
X009810Y003551D02*
X009860Y003551D01*
X009860Y003403D02*
X009801Y003403D01*
X009860Y003254D02*
X009652Y003254D01*
X009504Y003106D02*
X009860Y003106D01*
X009860Y002957D02*
X009729Y002957D01*
X001621Y002957D02*
X001490Y002957D01*
X009644Y018847D02*
X009860Y018847D01*
X009860Y018995D02*
X009831Y018995D01*
D18*
X008925Y016675D03*
X007675Y019925D03*
X003675Y019925D03*
X002425Y016675D03*
X002425Y009925D03*
X005175Y009175D03*
X008925Y010925D03*
D19*
X007675Y011675D02*
X007125Y011675D01*
X007125Y011725D01*
X005925Y011725D01*
X005925Y014125D01*
X005675Y014175D01*
X005925Y014175D01*
X006675Y014925D01*
X006705Y014925D01*
X006625Y015375D02*
X005875Y015375D01*
X005675Y015175D01*
X006625Y015375D02*
X006675Y015425D01*
X006705Y015425D01*
X006725Y016425D02*
X006705Y016425D01*
X006725Y016425D02*
X006725Y018175D01*
X007175Y018175D01*
X007125Y011675D02*
X007125Y008125D01*
X005675Y006675D01*
X005675Y004675D02*
X006425Y004675D01*
X007425Y005675D01*
X008175Y005675D01*
M02*
