%
M48
M72
T01C0.0236
T02C0.0276
T03C0.0354
T04C0.0360
T05C0.0400
T06C0.1260
%
T01
X2425Y9925
X5175Y9175
X8925Y10925
X8925Y16675
X7675Y19925
X3675Y19925
X2425Y16675
T02
X4175Y18175
X4175Y19175
X7175Y19175
X7175Y18175
T03
X7675Y11675
X7675Y10175
X3675Y10175
X3675Y11675
T04
X4675Y6675
X4675Y5675
X4675Y4675
X4675Y3675
X5675Y3675
X5675Y4675
X5675Y5675
X5675Y6675
T05
X8175Y5675
X8175Y4675
X8175Y3675
X9175Y3675
X9175Y4675
X9175Y5675
X5675Y14175
X5675Y15175
X5675Y16175
X5675Y17175
T06
X2175Y2175
X2175Y12675
X2175Y19675
X9175Y19675
X9175Y12675
X9175Y2175
M30
