G75*
G70*
%OFA0B0*%
%FSLAX24Y24*%
%IPPOS*%
%LPD*%
%AMOC8*
5,1,8,0,0,1.08239X$1,22.5*
%
%ADD10C,0.0000*%
%ADD11C,0.0040*%
%ADD12C,0.0060*%
%ADD13C,0.0080*%
%ADD14C,0.0300*%
D10*
X001675Y001175D02*
X001175Y001675D01*
X001175Y020175D01*
X001675Y020675D01*
X009675Y020675D01*
X010175Y020175D01*
X010175Y001675D01*
X009675Y001175D01*
X001675Y001175D01*
X001545Y002175D02*
X001547Y002225D01*
X001553Y002275D01*
X001563Y002324D01*
X001577Y002372D01*
X001594Y002419D01*
X001615Y002464D01*
X001640Y002508D01*
X001668Y002549D01*
X001700Y002588D01*
X001734Y002625D01*
X001771Y002659D01*
X001811Y002689D01*
X001853Y002716D01*
X001897Y002740D01*
X001943Y002761D01*
X001990Y002777D01*
X002038Y002790D01*
X002088Y002799D01*
X002137Y002804D01*
X002188Y002805D01*
X002238Y002802D01*
X002287Y002795D01*
X002336Y002784D01*
X002384Y002769D01*
X002430Y002751D01*
X002475Y002729D01*
X002518Y002703D01*
X002559Y002674D01*
X002598Y002642D01*
X002634Y002607D01*
X002666Y002569D01*
X002696Y002529D01*
X002723Y002486D01*
X002746Y002442D01*
X002765Y002396D01*
X002781Y002348D01*
X002793Y002299D01*
X002801Y002250D01*
X002805Y002200D01*
X002805Y002150D01*
X002801Y002100D01*
X002793Y002051D01*
X002781Y002002D01*
X002765Y001954D01*
X002746Y001908D01*
X002723Y001864D01*
X002696Y001821D01*
X002666Y001781D01*
X002634Y001743D01*
X002598Y001708D01*
X002559Y001676D01*
X002518Y001647D01*
X002475Y001621D01*
X002430Y001599D01*
X002384Y001581D01*
X002336Y001566D01*
X002287Y001555D01*
X002238Y001548D01*
X002188Y001545D01*
X002137Y001546D01*
X002088Y001551D01*
X002038Y001560D01*
X001990Y001573D01*
X001943Y001589D01*
X001897Y001610D01*
X001853Y001634D01*
X001811Y001661D01*
X001771Y001691D01*
X001734Y001725D01*
X001700Y001762D01*
X001668Y001801D01*
X001640Y001842D01*
X001615Y001886D01*
X001594Y001931D01*
X001577Y001978D01*
X001563Y002026D01*
X001553Y002075D01*
X001547Y002125D01*
X001545Y002175D01*
X001545Y012675D02*
X001547Y012725D01*
X001553Y012775D01*
X001563Y012824D01*
X001577Y012872D01*
X001594Y012919D01*
X001615Y012964D01*
X001640Y013008D01*
X001668Y013049D01*
X001700Y013088D01*
X001734Y013125D01*
X001771Y013159D01*
X001811Y013189D01*
X001853Y013216D01*
X001897Y013240D01*
X001943Y013261D01*
X001990Y013277D01*
X002038Y013290D01*
X002088Y013299D01*
X002137Y013304D01*
X002188Y013305D01*
X002238Y013302D01*
X002287Y013295D01*
X002336Y013284D01*
X002384Y013269D01*
X002430Y013251D01*
X002475Y013229D01*
X002518Y013203D01*
X002559Y013174D01*
X002598Y013142D01*
X002634Y013107D01*
X002666Y013069D01*
X002696Y013029D01*
X002723Y012986D01*
X002746Y012942D01*
X002765Y012896D01*
X002781Y012848D01*
X002793Y012799D01*
X002801Y012750D01*
X002805Y012700D01*
X002805Y012650D01*
X002801Y012600D01*
X002793Y012551D01*
X002781Y012502D01*
X002765Y012454D01*
X002746Y012408D01*
X002723Y012364D01*
X002696Y012321D01*
X002666Y012281D01*
X002634Y012243D01*
X002598Y012208D01*
X002559Y012176D01*
X002518Y012147D01*
X002475Y012121D01*
X002430Y012099D01*
X002384Y012081D01*
X002336Y012066D01*
X002287Y012055D01*
X002238Y012048D01*
X002188Y012045D01*
X002137Y012046D01*
X002088Y012051D01*
X002038Y012060D01*
X001990Y012073D01*
X001943Y012089D01*
X001897Y012110D01*
X001853Y012134D01*
X001811Y012161D01*
X001771Y012191D01*
X001734Y012225D01*
X001700Y012262D01*
X001668Y012301D01*
X001640Y012342D01*
X001615Y012386D01*
X001594Y012431D01*
X001577Y012478D01*
X001563Y012526D01*
X001553Y012575D01*
X001547Y012625D01*
X001545Y012675D01*
X001545Y019675D02*
X001547Y019725D01*
X001553Y019775D01*
X001563Y019824D01*
X001577Y019872D01*
X001594Y019919D01*
X001615Y019964D01*
X001640Y020008D01*
X001668Y020049D01*
X001700Y020088D01*
X001734Y020125D01*
X001771Y020159D01*
X001811Y020189D01*
X001853Y020216D01*
X001897Y020240D01*
X001943Y020261D01*
X001990Y020277D01*
X002038Y020290D01*
X002088Y020299D01*
X002137Y020304D01*
X002188Y020305D01*
X002238Y020302D01*
X002287Y020295D01*
X002336Y020284D01*
X002384Y020269D01*
X002430Y020251D01*
X002475Y020229D01*
X002518Y020203D01*
X002559Y020174D01*
X002598Y020142D01*
X002634Y020107D01*
X002666Y020069D01*
X002696Y020029D01*
X002723Y019986D01*
X002746Y019942D01*
X002765Y019896D01*
X002781Y019848D01*
X002793Y019799D01*
X002801Y019750D01*
X002805Y019700D01*
X002805Y019650D01*
X002801Y019600D01*
X002793Y019551D01*
X002781Y019502D01*
X002765Y019454D01*
X002746Y019408D01*
X002723Y019364D01*
X002696Y019321D01*
X002666Y019281D01*
X002634Y019243D01*
X002598Y019208D01*
X002559Y019176D01*
X002518Y019147D01*
X002475Y019121D01*
X002430Y019099D01*
X002384Y019081D01*
X002336Y019066D01*
X002287Y019055D01*
X002238Y019048D01*
X002188Y019045D01*
X002137Y019046D01*
X002088Y019051D01*
X002038Y019060D01*
X001990Y019073D01*
X001943Y019089D01*
X001897Y019110D01*
X001853Y019134D01*
X001811Y019161D01*
X001771Y019191D01*
X001734Y019225D01*
X001700Y019262D01*
X001668Y019301D01*
X001640Y019342D01*
X001615Y019386D01*
X001594Y019431D01*
X001577Y019478D01*
X001563Y019526D01*
X001553Y019575D01*
X001547Y019625D01*
X001545Y019675D01*
X008545Y019675D02*
X008547Y019725D01*
X008553Y019775D01*
X008563Y019824D01*
X008577Y019872D01*
X008594Y019919D01*
X008615Y019964D01*
X008640Y020008D01*
X008668Y020049D01*
X008700Y020088D01*
X008734Y020125D01*
X008771Y020159D01*
X008811Y020189D01*
X008853Y020216D01*
X008897Y020240D01*
X008943Y020261D01*
X008990Y020277D01*
X009038Y020290D01*
X009088Y020299D01*
X009137Y020304D01*
X009188Y020305D01*
X009238Y020302D01*
X009287Y020295D01*
X009336Y020284D01*
X009384Y020269D01*
X009430Y020251D01*
X009475Y020229D01*
X009518Y020203D01*
X009559Y020174D01*
X009598Y020142D01*
X009634Y020107D01*
X009666Y020069D01*
X009696Y020029D01*
X009723Y019986D01*
X009746Y019942D01*
X009765Y019896D01*
X009781Y019848D01*
X009793Y019799D01*
X009801Y019750D01*
X009805Y019700D01*
X009805Y019650D01*
X009801Y019600D01*
X009793Y019551D01*
X009781Y019502D01*
X009765Y019454D01*
X009746Y019408D01*
X009723Y019364D01*
X009696Y019321D01*
X009666Y019281D01*
X009634Y019243D01*
X009598Y019208D01*
X009559Y019176D01*
X009518Y019147D01*
X009475Y019121D01*
X009430Y019099D01*
X009384Y019081D01*
X009336Y019066D01*
X009287Y019055D01*
X009238Y019048D01*
X009188Y019045D01*
X009137Y019046D01*
X009088Y019051D01*
X009038Y019060D01*
X008990Y019073D01*
X008943Y019089D01*
X008897Y019110D01*
X008853Y019134D01*
X008811Y019161D01*
X008771Y019191D01*
X008734Y019225D01*
X008700Y019262D01*
X008668Y019301D01*
X008640Y019342D01*
X008615Y019386D01*
X008594Y019431D01*
X008577Y019478D01*
X008563Y019526D01*
X008553Y019575D01*
X008547Y019625D01*
X008545Y019675D01*
X008545Y012675D02*
X008547Y012725D01*
X008553Y012775D01*
X008563Y012824D01*
X008577Y012872D01*
X008594Y012919D01*
X008615Y012964D01*
X008640Y013008D01*
X008668Y013049D01*
X008700Y013088D01*
X008734Y013125D01*
X008771Y013159D01*
X008811Y013189D01*
X008853Y013216D01*
X008897Y013240D01*
X008943Y013261D01*
X008990Y013277D01*
X009038Y013290D01*
X009088Y013299D01*
X009137Y013304D01*
X009188Y013305D01*
X009238Y013302D01*
X009287Y013295D01*
X009336Y013284D01*
X009384Y013269D01*
X009430Y013251D01*
X009475Y013229D01*
X009518Y013203D01*
X009559Y013174D01*
X009598Y013142D01*
X009634Y013107D01*
X009666Y013069D01*
X009696Y013029D01*
X009723Y012986D01*
X009746Y012942D01*
X009765Y012896D01*
X009781Y012848D01*
X009793Y012799D01*
X009801Y012750D01*
X009805Y012700D01*
X009805Y012650D01*
X009801Y012600D01*
X009793Y012551D01*
X009781Y012502D01*
X009765Y012454D01*
X009746Y012408D01*
X009723Y012364D01*
X009696Y012321D01*
X009666Y012281D01*
X009634Y012243D01*
X009598Y012208D01*
X009559Y012176D01*
X009518Y012147D01*
X009475Y012121D01*
X009430Y012099D01*
X009384Y012081D01*
X009336Y012066D01*
X009287Y012055D01*
X009238Y012048D01*
X009188Y012045D01*
X009137Y012046D01*
X009088Y012051D01*
X009038Y012060D01*
X008990Y012073D01*
X008943Y012089D01*
X008897Y012110D01*
X008853Y012134D01*
X008811Y012161D01*
X008771Y012191D01*
X008734Y012225D01*
X008700Y012262D01*
X008668Y012301D01*
X008640Y012342D01*
X008615Y012386D01*
X008594Y012431D01*
X008577Y012478D01*
X008563Y012526D01*
X008553Y012575D01*
X008547Y012625D01*
X008545Y012675D01*
X008545Y002175D02*
X008547Y002225D01*
X008553Y002275D01*
X008563Y002324D01*
X008577Y002372D01*
X008594Y002419D01*
X008615Y002464D01*
X008640Y002508D01*
X008668Y002549D01*
X008700Y002588D01*
X008734Y002625D01*
X008771Y002659D01*
X008811Y002689D01*
X008853Y002716D01*
X008897Y002740D01*
X008943Y002761D01*
X008990Y002777D01*
X009038Y002790D01*
X009088Y002799D01*
X009137Y002804D01*
X009188Y002805D01*
X009238Y002802D01*
X009287Y002795D01*
X009336Y002784D01*
X009384Y002769D01*
X009430Y002751D01*
X009475Y002729D01*
X009518Y002703D01*
X009559Y002674D01*
X009598Y002642D01*
X009634Y002607D01*
X009666Y002569D01*
X009696Y002529D01*
X009723Y002486D01*
X009746Y002442D01*
X009765Y002396D01*
X009781Y002348D01*
X009793Y002299D01*
X009801Y002250D01*
X009805Y002200D01*
X009805Y002150D01*
X009801Y002100D01*
X009793Y002051D01*
X009781Y002002D01*
X009765Y001954D01*
X009746Y001908D01*
X009723Y001864D01*
X009696Y001821D01*
X009666Y001781D01*
X009634Y001743D01*
X009598Y001708D01*
X009559Y001676D01*
X009518Y001647D01*
X009475Y001621D01*
X009430Y001599D01*
X009384Y001581D01*
X009336Y001566D01*
X009287Y001555D01*
X009238Y001548D01*
X009188Y001545D01*
X009137Y001546D01*
X009088Y001551D01*
X009038Y001560D01*
X008990Y001573D01*
X008943Y001589D01*
X008897Y001610D01*
X008853Y001634D01*
X008811Y001661D01*
X008771Y001691D01*
X008734Y001725D01*
X008700Y001762D01*
X008668Y001801D01*
X008640Y001842D01*
X008615Y001886D01*
X008594Y001931D01*
X008577Y001978D01*
X008563Y002026D01*
X008553Y002075D01*
X008547Y002125D01*
X008545Y002175D01*
D11*
X006655Y012695D02*
X006655Y013055D01*
X006655Y012875D02*
X006415Y012875D01*
X006415Y013055D02*
X006415Y012695D01*
X006287Y012695D02*
X006167Y012695D01*
X006227Y012695D02*
X006227Y013055D01*
X006287Y013055D02*
X006167Y013055D01*
X006041Y013055D02*
X006041Y012695D01*
X006041Y012875D02*
X005801Y012875D01*
X005801Y013055D02*
X005801Y012695D01*
X005673Y012755D02*
X005613Y012695D01*
X005493Y012695D01*
X005433Y012755D01*
X005433Y012815D01*
X005493Y012875D01*
X005673Y012875D01*
X005673Y012755D01*
X005673Y012875D02*
X005553Y012995D01*
X005433Y013055D01*
X005305Y012935D02*
X005184Y013055D01*
X005184Y012695D01*
X005064Y012695D02*
X005305Y012695D01*
X005301Y013195D02*
X005541Y013195D01*
X005301Y013435D01*
X005301Y013495D01*
X005361Y013555D01*
X005481Y013555D01*
X005541Y013495D01*
X005669Y013495D02*
X005729Y013555D01*
X005849Y013555D01*
X005909Y013495D01*
X005909Y013255D01*
X005849Y013195D01*
X005729Y013195D01*
X005669Y013255D01*
X006035Y013195D02*
X006155Y013195D01*
X006095Y013195D02*
X006095Y013555D01*
X006155Y013555D02*
X006035Y013555D01*
X004936Y012995D02*
X004876Y013055D01*
X004756Y013055D01*
X004696Y012995D01*
X004696Y012935D01*
X004936Y012695D01*
X004696Y012695D01*
X004568Y012695D02*
X004328Y012935D01*
X004568Y012935D02*
X004328Y012695D01*
X003255Y013815D02*
X003135Y013695D01*
X003015Y013695D01*
X002895Y013815D01*
X002955Y013941D02*
X002895Y014001D01*
X002895Y014121D01*
X002955Y014181D01*
X002895Y014309D02*
X003015Y014429D01*
X003135Y014429D01*
X003255Y014309D01*
X003195Y014181D02*
X003255Y014121D01*
X003255Y014001D01*
X003195Y013941D01*
X002955Y013941D01*
X002655Y013875D02*
X002655Y013755D01*
X002595Y013695D01*
X002655Y013875D02*
X002595Y013935D01*
X002535Y013935D01*
X002295Y013695D01*
X002295Y013935D01*
X002355Y014063D02*
X002595Y014304D01*
X002355Y014304D01*
X002295Y014243D01*
X002295Y014123D01*
X002355Y014063D01*
X002595Y014063D01*
X002655Y014123D01*
X002655Y014243D01*
X002595Y014304D01*
X002535Y014432D02*
X002655Y014552D01*
X002295Y014552D01*
X002295Y014432D02*
X002295Y014672D01*
X002475Y014800D02*
X002475Y015040D01*
X002295Y014980D02*
X002655Y014980D01*
X002475Y014800D01*
X002055Y014800D02*
X002055Y014980D01*
X001995Y015040D01*
X001935Y015040D01*
X001875Y014980D01*
X001875Y014800D01*
X001875Y014672D02*
X001875Y014432D01*
X001755Y014304D02*
X001695Y014243D01*
X001695Y014123D01*
X001755Y014063D01*
X001995Y014063D01*
X002055Y014123D01*
X002055Y014243D01*
X001995Y014304D01*
X001995Y013935D02*
X002055Y013875D01*
X002055Y013755D01*
X001995Y013695D01*
X001755Y013695D01*
X001695Y013755D01*
X001695Y013875D01*
X001755Y013935D01*
X001695Y014800D02*
X001695Y014980D01*
X001755Y015040D01*
X001815Y015040D01*
X001875Y014980D01*
X001995Y015168D02*
X001875Y015288D01*
X001695Y015288D01*
X001875Y015288D02*
X001995Y015408D01*
X002055Y015408D01*
X002055Y015168D02*
X001995Y015168D01*
X002055Y014800D02*
X001695Y014800D01*
X001875Y015537D02*
X001875Y015777D01*
X001935Y015905D02*
X001875Y015965D01*
X001875Y016085D01*
X001815Y016145D01*
X001755Y016145D01*
X001695Y016085D01*
X001695Y015965D01*
X001755Y015905D01*
X001935Y015905D02*
X001995Y015905D01*
X002055Y015965D01*
X002055Y016085D01*
X001995Y016145D01*
X001935Y016273D02*
X002055Y016393D01*
X001935Y016513D01*
X001695Y016513D01*
X001695Y016273D02*
X001935Y016273D01*
X001875Y016273D02*
X001875Y016513D01*
X001875Y017010D02*
X001875Y017250D01*
X001755Y017378D02*
X001755Y017438D01*
X001695Y017438D01*
X001695Y017378D01*
X001755Y017378D01*
X001755Y017562D02*
X001695Y017622D01*
X001695Y017742D01*
X001755Y017803D01*
X001995Y017803D01*
X001755Y017562D01*
X001995Y017562D01*
X002055Y017622D01*
X002055Y017742D01*
X001995Y017803D01*
X002055Y017190D02*
X001695Y017190D01*
X001875Y017010D02*
X002055Y017190D01*
X002775Y018053D02*
X003135Y018053D01*
X003135Y018234D01*
X003075Y018294D01*
X002955Y018294D01*
X002895Y018234D01*
X002895Y018053D01*
X003135Y017867D02*
X003015Y017746D01*
X002895Y017746D02*
X003135Y017746D01*
X003135Y017867D02*
X003135Y017927D01*
X003075Y017618D02*
X002895Y017618D01*
X002895Y017438D01*
X002955Y017378D01*
X003015Y017438D01*
X003015Y017618D01*
X003075Y017618D02*
X003135Y017558D01*
X003135Y017438D01*
X003255Y017250D02*
X003135Y017130D01*
X003255Y017010D01*
X002895Y017010D01*
X002895Y017250D02*
X003255Y017250D01*
X003075Y016513D02*
X003015Y016513D01*
X003015Y016273D01*
X002955Y016273D02*
X003075Y016273D01*
X003135Y016333D01*
X003135Y016453D01*
X003075Y016513D01*
X002895Y016333D02*
X002955Y016273D01*
X002895Y016333D02*
X002895Y016453D01*
X003135Y016145D02*
X002895Y016025D01*
X003135Y015905D01*
X003075Y015777D02*
X003015Y015777D01*
X003015Y015537D01*
X002955Y015537D02*
X003075Y015537D01*
X003135Y015597D01*
X003135Y015717D01*
X003075Y015777D01*
X002895Y015597D02*
X002955Y015537D01*
X002895Y015597D02*
X002895Y015717D01*
X002895Y015411D02*
X002955Y015351D01*
X003195Y015351D01*
X003135Y015291D02*
X003135Y015411D01*
X003195Y015163D02*
X003255Y015103D01*
X003255Y014983D01*
X003195Y014923D01*
X003135Y014923D01*
X003075Y014983D01*
X003075Y015103D01*
X003015Y015163D01*
X002955Y015163D01*
X002895Y015103D01*
X002895Y014983D01*
X002955Y014923D01*
X002895Y018422D02*
X002895Y018542D01*
X002895Y018482D02*
X003255Y018482D01*
X003255Y018422D01*
X003075Y018667D02*
X003135Y018727D01*
X003135Y018847D01*
X003075Y018907D01*
X003015Y018907D01*
X003015Y018667D01*
X002955Y018667D02*
X003075Y018667D01*
X002955Y018667D02*
X002895Y018727D01*
X002895Y018847D01*
X007445Y017022D02*
X007685Y016782D01*
X007685Y016654D02*
X007625Y016594D01*
X007565Y016654D01*
X007505Y016654D01*
X007445Y016594D01*
X007445Y016474D01*
X007505Y016414D01*
X007445Y016286D02*
X007445Y016045D01*
X007445Y016166D02*
X007805Y016166D01*
X007685Y016045D01*
X007565Y015917D02*
X007625Y015857D01*
X007625Y015677D01*
X007505Y015677D01*
X007445Y015737D01*
X007445Y015857D01*
X007505Y015917D01*
X007565Y015917D01*
X007745Y015797D02*
X007625Y015677D01*
X007625Y015549D02*
X007625Y015309D01*
X007445Y015309D02*
X007805Y015309D01*
X007805Y015183D02*
X007805Y015063D01*
X007805Y015123D02*
X007445Y015123D01*
X007445Y015063D02*
X007445Y015183D01*
X007445Y014935D02*
X007805Y014935D01*
X007625Y014935D02*
X007625Y014695D01*
X007445Y014695D02*
X007805Y014695D01*
X007945Y014695D02*
X007945Y014815D01*
X007945Y014755D02*
X008305Y014755D01*
X008305Y014695D02*
X008305Y014815D01*
X008245Y014941D02*
X008005Y014941D01*
X007945Y015001D01*
X007945Y015121D01*
X008005Y015181D01*
X007945Y015309D02*
X007945Y015549D01*
X007945Y015429D02*
X008305Y015429D01*
X008185Y015309D01*
X008245Y015181D02*
X008305Y015121D01*
X008305Y015001D01*
X008245Y014941D01*
X007805Y015549D02*
X007445Y015549D01*
X007745Y015797D02*
X007805Y015917D01*
X007745Y016414D02*
X007805Y016474D01*
X007805Y016594D01*
X007745Y016654D01*
X007685Y016654D01*
X007625Y016594D02*
X007625Y016534D01*
X007445Y016782D02*
X007685Y017022D01*
D12*
X006385Y016605D02*
X004965Y016605D01*
X005175Y017675D02*
X005175Y013675D01*
X006175Y013675D01*
X006175Y017675D01*
X005175Y017675D01*
X004965Y014745D02*
X006385Y014745D01*
X002145Y011636D02*
X002145Y011489D01*
X002072Y011415D01*
X001778Y011415D01*
X002072Y011709D01*
X001778Y011709D01*
X001705Y011636D01*
X001705Y011489D01*
X001778Y011415D01*
X001778Y011259D02*
X001705Y011259D01*
X001705Y011185D01*
X001778Y011185D01*
X001778Y011259D01*
X001705Y011018D02*
X001705Y010725D01*
X001705Y010872D02*
X002145Y010872D01*
X001999Y010725D01*
X001999Y010558D02*
X001705Y010411D01*
X001999Y010264D01*
X002072Y009637D02*
X001925Y009637D01*
X001852Y009564D01*
X001852Y009344D01*
X001852Y009490D02*
X001705Y009637D01*
X001705Y009344D02*
X002145Y009344D01*
X002145Y009564D01*
X002072Y009637D01*
X002072Y009177D02*
X001778Y009177D01*
X001705Y009103D01*
X001705Y008957D01*
X001778Y008883D01*
X002072Y008883D01*
X002145Y008957D01*
X002145Y009103D01*
X002072Y009177D01*
X002072Y008716D02*
X002145Y008643D01*
X002145Y008496D01*
X002072Y008423D01*
X001999Y008423D01*
X001925Y008496D01*
X001925Y008643D01*
X001852Y008716D01*
X001778Y008716D01*
X001705Y008643D01*
X001705Y008496D01*
X001778Y008423D01*
X001705Y008256D02*
X002145Y008256D01*
X002145Y007962D02*
X001705Y008256D01*
X001705Y007962D02*
X002145Y007962D01*
X002145Y007796D02*
X002145Y007502D01*
X001705Y007502D01*
X001705Y007796D01*
X001925Y007649D02*
X001925Y007502D01*
X001852Y007335D02*
X001778Y007335D01*
X001705Y007262D01*
X001705Y007115D01*
X001778Y007042D01*
X001925Y007115D02*
X001925Y007262D01*
X001852Y007335D01*
X001925Y007115D02*
X001999Y007042D01*
X002072Y007042D01*
X002145Y007115D01*
X002145Y007262D01*
X002072Y007335D01*
X002072Y006414D02*
X002145Y006414D01*
X002072Y006414D02*
X001925Y006268D01*
X001705Y006268D01*
X001925Y006268D02*
X002072Y006121D01*
X002145Y006121D01*
X002145Y005954D02*
X002145Y005660D01*
X002145Y005807D02*
X001705Y005807D01*
X001705Y005500D02*
X001705Y005353D01*
X001705Y005427D02*
X002145Y005427D01*
X002145Y005500D02*
X002145Y005353D01*
X002072Y005187D02*
X002145Y005113D01*
X002145Y004893D01*
X001705Y004893D01*
X001705Y005113D01*
X001778Y005187D01*
X002072Y005187D01*
X002145Y004733D02*
X002145Y004586D01*
X002145Y004660D02*
X001705Y004660D01*
X001705Y004733D02*
X001705Y004586D01*
X001705Y004419D02*
X002145Y004419D01*
X001999Y004273D01*
X002145Y004126D01*
X001705Y004126D01*
X001778Y003959D02*
X002145Y003959D01*
X002145Y003665D02*
X001778Y003665D01*
X001705Y003739D01*
X001705Y003886D01*
X001778Y003959D01*
X001705Y003499D02*
X002145Y003499D01*
X001925Y003499D02*
X001925Y003205D01*
X001705Y003205D02*
X002145Y003205D01*
X002145Y011636D02*
X002072Y011709D01*
D13*
X006008Y016385D02*
X006010Y016400D01*
X006016Y016413D01*
X006025Y016425D01*
X006036Y016434D01*
X006050Y016440D01*
X006065Y016442D01*
X006080Y016440D01*
X006093Y016434D01*
X006105Y016425D01*
X006114Y016414D01*
X006120Y016400D01*
X006122Y016385D01*
X006120Y016370D01*
X006114Y016357D01*
X006105Y016345D01*
X006094Y016336D01*
X006080Y016330D01*
X006065Y016328D01*
X006050Y016330D01*
X006037Y016336D01*
X006025Y016345D01*
X006016Y016356D01*
X006010Y016370D01*
X006008Y016385D01*
D14*
X006175Y017675D03*
M02*
