G75*
G70*
%OFA0B0*%
%FSLAX24Y24*%
%IPPOS*%
%LPD*%
%AMOC8*
5,1,8,0,0,1.08239X$1,22.5*
%
%ADD10C,0.0000*%
%ADD11C,0.0060*%
%ADD12C,0.0040*%
%ADD13C,0.0020*%
%ADD14C,0.0050*%
%ADD15C,0.0080*%
D10*
X001675Y001175D02*
X001175Y001675D01*
X001175Y020175D01*
X001675Y020675D01*
X009675Y020675D01*
X010175Y020175D01*
X010175Y001675D01*
X009675Y001175D01*
X001675Y001175D01*
X001545Y002175D02*
X001547Y002225D01*
X001553Y002275D01*
X001563Y002324D01*
X001577Y002372D01*
X001594Y002419D01*
X001615Y002464D01*
X001640Y002508D01*
X001668Y002549D01*
X001700Y002588D01*
X001734Y002625D01*
X001771Y002659D01*
X001811Y002689D01*
X001853Y002716D01*
X001897Y002740D01*
X001943Y002761D01*
X001990Y002777D01*
X002038Y002790D01*
X002088Y002799D01*
X002137Y002804D01*
X002188Y002805D01*
X002238Y002802D01*
X002287Y002795D01*
X002336Y002784D01*
X002384Y002769D01*
X002430Y002751D01*
X002475Y002729D01*
X002518Y002703D01*
X002559Y002674D01*
X002598Y002642D01*
X002634Y002607D01*
X002666Y002569D01*
X002696Y002529D01*
X002723Y002486D01*
X002746Y002442D01*
X002765Y002396D01*
X002781Y002348D01*
X002793Y002299D01*
X002801Y002250D01*
X002805Y002200D01*
X002805Y002150D01*
X002801Y002100D01*
X002793Y002051D01*
X002781Y002002D01*
X002765Y001954D01*
X002746Y001908D01*
X002723Y001864D01*
X002696Y001821D01*
X002666Y001781D01*
X002634Y001743D01*
X002598Y001708D01*
X002559Y001676D01*
X002518Y001647D01*
X002475Y001621D01*
X002430Y001599D01*
X002384Y001581D01*
X002336Y001566D01*
X002287Y001555D01*
X002238Y001548D01*
X002188Y001545D01*
X002137Y001546D01*
X002088Y001551D01*
X002038Y001560D01*
X001990Y001573D01*
X001943Y001589D01*
X001897Y001610D01*
X001853Y001634D01*
X001811Y001661D01*
X001771Y001691D01*
X001734Y001725D01*
X001700Y001762D01*
X001668Y001801D01*
X001640Y001842D01*
X001615Y001886D01*
X001594Y001931D01*
X001577Y001978D01*
X001563Y002026D01*
X001553Y002075D01*
X001547Y002125D01*
X001545Y002175D01*
X001545Y012675D02*
X001547Y012725D01*
X001553Y012775D01*
X001563Y012824D01*
X001577Y012872D01*
X001594Y012919D01*
X001615Y012964D01*
X001640Y013008D01*
X001668Y013049D01*
X001700Y013088D01*
X001734Y013125D01*
X001771Y013159D01*
X001811Y013189D01*
X001853Y013216D01*
X001897Y013240D01*
X001943Y013261D01*
X001990Y013277D01*
X002038Y013290D01*
X002088Y013299D01*
X002137Y013304D01*
X002188Y013305D01*
X002238Y013302D01*
X002287Y013295D01*
X002336Y013284D01*
X002384Y013269D01*
X002430Y013251D01*
X002475Y013229D01*
X002518Y013203D01*
X002559Y013174D01*
X002598Y013142D01*
X002634Y013107D01*
X002666Y013069D01*
X002696Y013029D01*
X002723Y012986D01*
X002746Y012942D01*
X002765Y012896D01*
X002781Y012848D01*
X002793Y012799D01*
X002801Y012750D01*
X002805Y012700D01*
X002805Y012650D01*
X002801Y012600D01*
X002793Y012551D01*
X002781Y012502D01*
X002765Y012454D01*
X002746Y012408D01*
X002723Y012364D01*
X002696Y012321D01*
X002666Y012281D01*
X002634Y012243D01*
X002598Y012208D01*
X002559Y012176D01*
X002518Y012147D01*
X002475Y012121D01*
X002430Y012099D01*
X002384Y012081D01*
X002336Y012066D01*
X002287Y012055D01*
X002238Y012048D01*
X002188Y012045D01*
X002137Y012046D01*
X002088Y012051D01*
X002038Y012060D01*
X001990Y012073D01*
X001943Y012089D01*
X001897Y012110D01*
X001853Y012134D01*
X001811Y012161D01*
X001771Y012191D01*
X001734Y012225D01*
X001700Y012262D01*
X001668Y012301D01*
X001640Y012342D01*
X001615Y012386D01*
X001594Y012431D01*
X001577Y012478D01*
X001563Y012526D01*
X001553Y012575D01*
X001547Y012625D01*
X001545Y012675D01*
X001545Y019675D02*
X001547Y019725D01*
X001553Y019775D01*
X001563Y019824D01*
X001577Y019872D01*
X001594Y019919D01*
X001615Y019964D01*
X001640Y020008D01*
X001668Y020049D01*
X001700Y020088D01*
X001734Y020125D01*
X001771Y020159D01*
X001811Y020189D01*
X001853Y020216D01*
X001897Y020240D01*
X001943Y020261D01*
X001990Y020277D01*
X002038Y020290D01*
X002088Y020299D01*
X002137Y020304D01*
X002188Y020305D01*
X002238Y020302D01*
X002287Y020295D01*
X002336Y020284D01*
X002384Y020269D01*
X002430Y020251D01*
X002475Y020229D01*
X002518Y020203D01*
X002559Y020174D01*
X002598Y020142D01*
X002634Y020107D01*
X002666Y020069D01*
X002696Y020029D01*
X002723Y019986D01*
X002746Y019942D01*
X002765Y019896D01*
X002781Y019848D01*
X002793Y019799D01*
X002801Y019750D01*
X002805Y019700D01*
X002805Y019650D01*
X002801Y019600D01*
X002793Y019551D01*
X002781Y019502D01*
X002765Y019454D01*
X002746Y019408D01*
X002723Y019364D01*
X002696Y019321D01*
X002666Y019281D01*
X002634Y019243D01*
X002598Y019208D01*
X002559Y019176D01*
X002518Y019147D01*
X002475Y019121D01*
X002430Y019099D01*
X002384Y019081D01*
X002336Y019066D01*
X002287Y019055D01*
X002238Y019048D01*
X002188Y019045D01*
X002137Y019046D01*
X002088Y019051D01*
X002038Y019060D01*
X001990Y019073D01*
X001943Y019089D01*
X001897Y019110D01*
X001853Y019134D01*
X001811Y019161D01*
X001771Y019191D01*
X001734Y019225D01*
X001700Y019262D01*
X001668Y019301D01*
X001640Y019342D01*
X001615Y019386D01*
X001594Y019431D01*
X001577Y019478D01*
X001563Y019526D01*
X001553Y019575D01*
X001547Y019625D01*
X001545Y019675D01*
X008545Y019675D02*
X008547Y019725D01*
X008553Y019775D01*
X008563Y019824D01*
X008577Y019872D01*
X008594Y019919D01*
X008615Y019964D01*
X008640Y020008D01*
X008668Y020049D01*
X008700Y020088D01*
X008734Y020125D01*
X008771Y020159D01*
X008811Y020189D01*
X008853Y020216D01*
X008897Y020240D01*
X008943Y020261D01*
X008990Y020277D01*
X009038Y020290D01*
X009088Y020299D01*
X009137Y020304D01*
X009188Y020305D01*
X009238Y020302D01*
X009287Y020295D01*
X009336Y020284D01*
X009384Y020269D01*
X009430Y020251D01*
X009475Y020229D01*
X009518Y020203D01*
X009559Y020174D01*
X009598Y020142D01*
X009634Y020107D01*
X009666Y020069D01*
X009696Y020029D01*
X009723Y019986D01*
X009746Y019942D01*
X009765Y019896D01*
X009781Y019848D01*
X009793Y019799D01*
X009801Y019750D01*
X009805Y019700D01*
X009805Y019650D01*
X009801Y019600D01*
X009793Y019551D01*
X009781Y019502D01*
X009765Y019454D01*
X009746Y019408D01*
X009723Y019364D01*
X009696Y019321D01*
X009666Y019281D01*
X009634Y019243D01*
X009598Y019208D01*
X009559Y019176D01*
X009518Y019147D01*
X009475Y019121D01*
X009430Y019099D01*
X009384Y019081D01*
X009336Y019066D01*
X009287Y019055D01*
X009238Y019048D01*
X009188Y019045D01*
X009137Y019046D01*
X009088Y019051D01*
X009038Y019060D01*
X008990Y019073D01*
X008943Y019089D01*
X008897Y019110D01*
X008853Y019134D01*
X008811Y019161D01*
X008771Y019191D01*
X008734Y019225D01*
X008700Y019262D01*
X008668Y019301D01*
X008640Y019342D01*
X008615Y019386D01*
X008594Y019431D01*
X008577Y019478D01*
X008563Y019526D01*
X008553Y019575D01*
X008547Y019625D01*
X008545Y019675D01*
X008545Y012675D02*
X008547Y012725D01*
X008553Y012775D01*
X008563Y012824D01*
X008577Y012872D01*
X008594Y012919D01*
X008615Y012964D01*
X008640Y013008D01*
X008668Y013049D01*
X008700Y013088D01*
X008734Y013125D01*
X008771Y013159D01*
X008811Y013189D01*
X008853Y013216D01*
X008897Y013240D01*
X008943Y013261D01*
X008990Y013277D01*
X009038Y013290D01*
X009088Y013299D01*
X009137Y013304D01*
X009188Y013305D01*
X009238Y013302D01*
X009287Y013295D01*
X009336Y013284D01*
X009384Y013269D01*
X009430Y013251D01*
X009475Y013229D01*
X009518Y013203D01*
X009559Y013174D01*
X009598Y013142D01*
X009634Y013107D01*
X009666Y013069D01*
X009696Y013029D01*
X009723Y012986D01*
X009746Y012942D01*
X009765Y012896D01*
X009781Y012848D01*
X009793Y012799D01*
X009801Y012750D01*
X009805Y012700D01*
X009805Y012650D01*
X009801Y012600D01*
X009793Y012551D01*
X009781Y012502D01*
X009765Y012454D01*
X009746Y012408D01*
X009723Y012364D01*
X009696Y012321D01*
X009666Y012281D01*
X009634Y012243D01*
X009598Y012208D01*
X009559Y012176D01*
X009518Y012147D01*
X009475Y012121D01*
X009430Y012099D01*
X009384Y012081D01*
X009336Y012066D01*
X009287Y012055D01*
X009238Y012048D01*
X009188Y012045D01*
X009137Y012046D01*
X009088Y012051D01*
X009038Y012060D01*
X008990Y012073D01*
X008943Y012089D01*
X008897Y012110D01*
X008853Y012134D01*
X008811Y012161D01*
X008771Y012191D01*
X008734Y012225D01*
X008700Y012262D01*
X008668Y012301D01*
X008640Y012342D01*
X008615Y012386D01*
X008594Y012431D01*
X008577Y012478D01*
X008563Y012526D01*
X008553Y012575D01*
X008547Y012625D01*
X008545Y012675D01*
X008545Y002175D02*
X008547Y002225D01*
X008553Y002275D01*
X008563Y002324D01*
X008577Y002372D01*
X008594Y002419D01*
X008615Y002464D01*
X008640Y002508D01*
X008668Y002549D01*
X008700Y002588D01*
X008734Y002625D01*
X008771Y002659D01*
X008811Y002689D01*
X008853Y002716D01*
X008897Y002740D01*
X008943Y002761D01*
X008990Y002777D01*
X009038Y002790D01*
X009088Y002799D01*
X009137Y002804D01*
X009188Y002805D01*
X009238Y002802D01*
X009287Y002795D01*
X009336Y002784D01*
X009384Y002769D01*
X009430Y002751D01*
X009475Y002729D01*
X009518Y002703D01*
X009559Y002674D01*
X009598Y002642D01*
X009634Y002607D01*
X009666Y002569D01*
X009696Y002529D01*
X009723Y002486D01*
X009746Y002442D01*
X009765Y002396D01*
X009781Y002348D01*
X009793Y002299D01*
X009801Y002250D01*
X009805Y002200D01*
X009805Y002150D01*
X009801Y002100D01*
X009793Y002051D01*
X009781Y002002D01*
X009765Y001954D01*
X009746Y001908D01*
X009723Y001864D01*
X009696Y001821D01*
X009666Y001781D01*
X009634Y001743D01*
X009598Y001708D01*
X009559Y001676D01*
X009518Y001647D01*
X009475Y001621D01*
X009430Y001599D01*
X009384Y001581D01*
X009336Y001566D01*
X009287Y001555D01*
X009238Y001548D01*
X009188Y001545D01*
X009137Y001546D01*
X009088Y001551D01*
X009038Y001560D01*
X008990Y001573D01*
X008943Y001589D01*
X008897Y001610D01*
X008853Y001634D01*
X008811Y001661D01*
X008771Y001691D01*
X008734Y001725D01*
X008700Y001762D01*
X008668Y001801D01*
X008640Y001842D01*
X008615Y001886D01*
X008594Y001931D01*
X008577Y001978D01*
X008563Y002026D01*
X008553Y002075D01*
X008547Y002125D01*
X008545Y002175D01*
D11*
X007925Y003175D02*
X007675Y003425D01*
X007675Y003925D01*
X007925Y004175D01*
X009425Y004175D01*
X009675Y004425D01*
X009675Y004925D01*
X009425Y005175D01*
X009675Y005425D01*
X009675Y005925D01*
X009425Y006175D01*
X007925Y006175D01*
X007675Y005925D01*
X007675Y005425D01*
X007925Y005175D01*
X009425Y005175D01*
X009425Y004175D02*
X009675Y003925D01*
X009675Y003425D01*
X009425Y003175D01*
X007925Y003175D01*
X007925Y004175D02*
X007675Y004425D01*
X007675Y004925D01*
X007925Y005175D01*
X006925Y004375D02*
X006925Y003675D01*
X006875Y003675D01*
X006875Y003175D01*
X006925Y003175D01*
X006925Y001675D01*
X003425Y001675D01*
X003425Y002175D01*
X003325Y002175D01*
X003325Y002675D01*
X003425Y002675D01*
X003425Y004925D01*
X003325Y004925D01*
X003325Y005425D01*
X003425Y005425D01*
X003425Y007675D01*
X003325Y007675D01*
X003325Y008175D01*
X003425Y008175D01*
X003425Y008675D01*
X006925Y008675D01*
X006925Y005975D01*
X006525Y005975D01*
X006425Y005975D01*
X006425Y008175D01*
X003925Y008175D01*
X003925Y002175D01*
X006425Y002175D01*
X006425Y004375D01*
X006525Y004375D01*
X006925Y004375D01*
X006925Y005975D01*
X006425Y005975D02*
X006125Y005975D01*
X006125Y004375D01*
X006425Y004375D01*
X002145Y004419D02*
X001705Y004419D01*
X001851Y004273D01*
X001705Y004126D01*
X002145Y004126D01*
X002072Y003959D02*
X001705Y003959D01*
X001705Y003665D02*
X002072Y003665D01*
X002145Y003739D01*
X002145Y003886D01*
X002072Y003959D01*
X002145Y003499D02*
X001705Y003499D01*
X001925Y003499D02*
X001925Y003205D01*
X002145Y003205D02*
X001705Y003205D01*
X001705Y004586D02*
X001705Y004733D01*
X001705Y004660D02*
X002145Y004660D01*
X002145Y004733D02*
X002145Y004586D01*
X002145Y004893D02*
X002145Y005113D01*
X002072Y005187D01*
X001778Y005187D01*
X001705Y005113D01*
X001705Y004893D01*
X002145Y004893D01*
X002145Y005353D02*
X002145Y005500D01*
X002145Y005427D02*
X001705Y005427D01*
X001705Y005500D02*
X001705Y005353D01*
X001705Y005660D02*
X001705Y005954D01*
X001705Y005807D02*
X002145Y005807D01*
X002145Y006268D02*
X001925Y006268D01*
X001778Y006414D01*
X001705Y006414D01*
X001925Y006268D02*
X001778Y006121D01*
X001705Y006121D01*
X001778Y007042D02*
X001851Y007042D01*
X001925Y007115D01*
X001925Y007262D01*
X001998Y007335D01*
X002072Y007335D01*
X002145Y007262D01*
X002145Y007115D01*
X002072Y007042D01*
X002145Y007502D02*
X002145Y007796D01*
X002145Y007962D02*
X001705Y007962D01*
X002145Y008256D01*
X001705Y008256D01*
X001778Y008423D02*
X001851Y008423D01*
X001925Y008496D01*
X001925Y008643D01*
X001998Y008716D01*
X002072Y008716D01*
X002145Y008643D01*
X002145Y008496D01*
X002072Y008423D01*
X002072Y008883D02*
X002145Y008957D01*
X002145Y009103D01*
X002072Y009177D01*
X001778Y009177D01*
X001705Y009103D01*
X001705Y008957D01*
X001778Y008883D01*
X002072Y008883D01*
X002145Y009344D02*
X001705Y009344D01*
X001705Y009564D01*
X001778Y009637D01*
X001925Y009637D01*
X001998Y009564D01*
X001998Y009344D01*
X001998Y009490D02*
X002145Y009637D01*
X001851Y010264D02*
X002145Y010411D01*
X001851Y010558D01*
X001851Y010725D02*
X001705Y010872D01*
X002145Y010872D01*
X002145Y011018D02*
X002145Y010725D01*
X002145Y011185D02*
X002145Y011259D01*
X002072Y011259D01*
X002072Y011185D01*
X002145Y011185D01*
X002072Y011415D02*
X001778Y011709D01*
X002072Y011709D01*
X002145Y011636D01*
X002145Y011489D01*
X002072Y011415D01*
X001778Y011415D01*
X001705Y011489D01*
X001705Y011636D01*
X001778Y011709D01*
X001778Y008716D02*
X001705Y008643D01*
X001705Y008496D01*
X001778Y008423D01*
X001705Y007796D02*
X001705Y007502D01*
X002145Y007502D01*
X001925Y007502D02*
X001925Y007649D01*
X001778Y007335D02*
X001705Y007262D01*
X001705Y007115D01*
X001778Y007042D01*
D12*
X002795Y007132D02*
X003155Y007132D01*
X003155Y007260D02*
X003155Y007380D01*
X003155Y007320D02*
X002795Y007320D01*
X002795Y007260D02*
X002795Y007380D01*
X002795Y007505D02*
X003155Y007505D01*
X003155Y007746D01*
X003155Y007874D02*
X003155Y008114D01*
X003155Y008242D02*
X003155Y008422D01*
X003095Y008482D01*
X002855Y008482D01*
X002795Y008422D01*
X002795Y008242D01*
X003155Y008242D01*
X003155Y007874D02*
X002795Y007874D01*
X002795Y007746D02*
X002795Y007505D01*
X002975Y007505D02*
X002975Y007625D01*
X002975Y007132D02*
X002975Y006892D01*
X003035Y006763D02*
X003095Y006763D01*
X003155Y006703D01*
X003155Y006583D01*
X003095Y006523D01*
X002975Y006583D02*
X002975Y006703D01*
X003035Y006763D01*
X003155Y006892D02*
X002795Y006892D01*
X002855Y006763D02*
X002795Y006703D01*
X002795Y006583D01*
X002855Y006523D01*
X002915Y006523D01*
X002975Y006583D01*
X002855Y006027D02*
X003095Y006027D01*
X003155Y005967D01*
X003155Y005847D01*
X003095Y005787D01*
X002855Y006027D01*
X002795Y005967D01*
X002795Y005847D01*
X002855Y005787D01*
X003095Y005787D01*
X003095Y005658D02*
X003155Y005598D01*
X003155Y005478D01*
X003095Y005418D01*
X002855Y005658D01*
X003095Y005658D01*
X003095Y005418D02*
X002855Y005418D01*
X002795Y005478D01*
X002795Y005598D01*
X002855Y005658D01*
X003155Y005290D02*
X003155Y005050D01*
X003155Y005170D02*
X002795Y005170D01*
X002915Y005050D01*
X002855Y004922D02*
X002795Y004862D01*
X002795Y004742D01*
X002855Y004682D01*
X003095Y004682D01*
X003155Y004742D01*
X003155Y004862D01*
X003095Y004922D01*
X003155Y004554D02*
X003155Y004313D01*
X002795Y004313D01*
X002795Y004185D02*
X002795Y003945D01*
X003155Y003945D01*
X002975Y003945D02*
X002975Y004065D01*
X003155Y003304D02*
X003155Y003063D01*
X003155Y003183D02*
X002795Y003183D01*
X002915Y003063D01*
X002795Y002935D02*
X003155Y002695D01*
X003155Y002935D02*
X002795Y002695D01*
X005173Y009995D02*
X005413Y009995D01*
X005293Y009995D02*
X005293Y010355D01*
X005173Y010235D01*
X005542Y010295D02*
X005542Y010055D01*
X005782Y010295D01*
X005782Y010055D01*
X005722Y009995D01*
X005602Y009995D01*
X005542Y010055D01*
X005542Y010295D02*
X005602Y010355D01*
X005722Y010355D01*
X005782Y010295D01*
X005910Y010355D02*
X005910Y009995D01*
X005910Y010115D02*
X006090Y010235D01*
X005910Y010115D02*
X006090Y009995D01*
X006090Y011495D02*
X005910Y011615D01*
X006090Y011735D01*
X005910Y011855D02*
X005910Y011495D01*
X005782Y011555D02*
X005722Y011495D01*
X005602Y011495D01*
X005542Y011555D01*
X005782Y011795D01*
X005782Y011555D01*
X005782Y011795D02*
X005722Y011855D01*
X005602Y011855D01*
X005542Y011795D01*
X005542Y011555D01*
X005413Y011495D02*
X005173Y011495D01*
X005293Y011495D02*
X005293Y011855D01*
X005173Y011735D01*
X003155Y013755D02*
X003155Y013875D01*
X003095Y013935D01*
X003095Y014063D02*
X003155Y014123D01*
X003155Y014243D01*
X003095Y014304D01*
X002975Y014432D02*
X002975Y014672D01*
X002975Y014800D02*
X002975Y014980D01*
X003035Y015040D01*
X003095Y015040D01*
X003155Y014980D01*
X003155Y014800D01*
X002795Y014800D01*
X002795Y014980D01*
X002855Y015040D01*
X002915Y015040D01*
X002975Y014980D01*
X002855Y015168D02*
X002975Y015288D01*
X003155Y015288D01*
X002975Y015288D02*
X002855Y015408D01*
X002795Y015408D01*
X002795Y015168D02*
X002855Y015168D01*
X002975Y015537D02*
X002975Y015777D01*
X002915Y015905D02*
X002975Y015965D01*
X002975Y016085D01*
X003035Y016145D01*
X003095Y016145D01*
X003155Y016085D01*
X003155Y015965D01*
X003095Y015905D01*
X002915Y015905D02*
X002855Y015905D01*
X002795Y015965D01*
X002795Y016085D01*
X002855Y016145D01*
X002915Y016273D02*
X002795Y016393D01*
X002915Y016513D01*
X003155Y016513D01*
X002975Y016513D02*
X002975Y016273D01*
X002915Y016273D02*
X003155Y016273D01*
X002975Y017010D02*
X002975Y017250D01*
X003095Y017378D02*
X003095Y017438D01*
X003155Y017438D01*
X003155Y017378D01*
X003095Y017378D01*
X003095Y017562D02*
X002855Y017803D01*
X003095Y017803D01*
X003155Y017742D01*
X003155Y017622D01*
X003095Y017562D01*
X002855Y017562D01*
X002795Y017622D01*
X002795Y017742D01*
X002855Y017803D01*
X002795Y017190D02*
X002975Y017010D01*
X003155Y017190D02*
X002795Y017190D01*
X002075Y018053D02*
X001715Y018053D01*
X001715Y018234D01*
X001775Y018294D01*
X001895Y018294D01*
X001955Y018234D01*
X001955Y018053D01*
X001715Y017867D02*
X001835Y017746D01*
X001955Y017746D02*
X001715Y017746D01*
X001715Y017867D02*
X001715Y017927D01*
X001775Y017618D02*
X001955Y017618D01*
X001955Y017438D01*
X001895Y017378D01*
X001835Y017438D01*
X001835Y017618D01*
X001775Y017618D02*
X001715Y017558D01*
X001715Y017438D01*
X001595Y017250D02*
X001955Y017250D01*
X001955Y017010D02*
X001595Y017010D01*
X001715Y017130D01*
X001595Y017250D01*
X001775Y016513D02*
X001835Y016513D01*
X001835Y016273D01*
X001895Y016273D02*
X001775Y016273D01*
X001715Y016333D01*
X001715Y016453D01*
X001775Y016513D01*
X001955Y016333D02*
X001895Y016273D01*
X001955Y016333D02*
X001955Y016453D01*
X001715Y016145D02*
X001955Y016025D01*
X001715Y015905D01*
X001775Y015777D02*
X001835Y015777D01*
X001835Y015537D01*
X001895Y015537D02*
X001775Y015537D01*
X001715Y015597D01*
X001715Y015717D01*
X001775Y015777D01*
X001955Y015597D02*
X001895Y015537D01*
X001955Y015597D02*
X001955Y015717D01*
X001955Y015411D02*
X001895Y015351D01*
X001655Y015351D01*
X001715Y015291D02*
X001715Y015411D01*
X001655Y015163D02*
X001595Y015103D01*
X001595Y014983D01*
X001655Y014923D01*
X001715Y014923D01*
X001775Y014983D01*
X001775Y015103D01*
X001835Y015163D01*
X001895Y015163D01*
X001955Y015103D01*
X001955Y014983D01*
X001895Y014923D01*
X001835Y014429D02*
X001715Y014429D01*
X001595Y014309D01*
X001655Y014181D02*
X001595Y014121D01*
X001595Y014001D01*
X001655Y013941D01*
X001895Y013941D01*
X001955Y014001D01*
X001955Y014121D01*
X001895Y014181D01*
X001955Y014309D02*
X001835Y014429D01*
X002195Y014552D02*
X002555Y014552D01*
X002555Y014432D02*
X002555Y014672D01*
X002555Y014980D02*
X002195Y014980D01*
X002375Y014800D01*
X002375Y015040D01*
X002195Y014552D02*
X002315Y014432D01*
X002255Y014304D02*
X002495Y014063D01*
X002555Y014123D01*
X002555Y014243D01*
X002495Y014304D01*
X002255Y014304D01*
X002195Y014243D01*
X002195Y014123D01*
X002255Y014063D01*
X002495Y014063D01*
X002555Y013935D02*
X002555Y013695D01*
X002315Y013935D01*
X002255Y013935D01*
X002195Y013875D01*
X002195Y013755D01*
X002255Y013695D01*
X001955Y013815D02*
X001835Y013695D01*
X001715Y013695D01*
X001595Y013815D01*
X002795Y013755D02*
X002855Y013695D01*
X003095Y013695D01*
X003155Y013755D01*
X003095Y014063D02*
X002855Y014063D01*
X002795Y014123D01*
X002795Y014243D01*
X002855Y014304D01*
X002855Y013935D02*
X002795Y013875D01*
X002795Y013755D01*
X004855Y018195D02*
X005095Y018195D01*
X005155Y018255D01*
X005155Y018375D01*
X005095Y018435D01*
X005155Y018563D02*
X004915Y018804D01*
X004855Y018804D01*
X004795Y018743D01*
X004795Y018623D01*
X004855Y018563D01*
X004855Y018435D02*
X004795Y018375D01*
X004795Y018255D01*
X004855Y018195D01*
X005155Y018563D02*
X005155Y018804D01*
X005295Y018743D02*
X005295Y018623D01*
X005355Y018563D01*
X005355Y018435D02*
X005295Y018375D01*
X005295Y018255D01*
X005355Y018195D01*
X005355Y018435D02*
X005415Y018435D01*
X005655Y018195D01*
X005655Y018435D01*
X005655Y018563D02*
X005415Y018804D01*
X005355Y018804D01*
X005295Y018743D01*
X005355Y018932D02*
X005295Y018992D01*
X005295Y019112D01*
X005355Y019172D01*
X005595Y018932D01*
X005655Y018992D01*
X005655Y019112D01*
X005595Y019172D01*
X005355Y019172D01*
X005415Y019300D02*
X005415Y019480D01*
X005475Y019540D01*
X005655Y019540D01*
X005655Y019300D02*
X005415Y019300D01*
X005355Y018932D02*
X005595Y018932D01*
X005655Y018804D02*
X005655Y018563D01*
X007795Y018183D02*
X008155Y018183D01*
X008155Y018063D02*
X008155Y018304D01*
X008095Y017935D02*
X008155Y017875D01*
X008155Y017755D01*
X008095Y017695D01*
X007855Y017695D01*
X007795Y017755D01*
X007795Y017875D01*
X007855Y017935D01*
X007915Y018063D02*
X007795Y018183D01*
X008295Y018123D02*
X008295Y018243D01*
X008355Y018304D01*
X008595Y018063D01*
X008655Y018123D01*
X008655Y018243D01*
X008595Y018304D01*
X008355Y018304D01*
X008355Y018432D02*
X008295Y018492D01*
X008295Y018612D01*
X008355Y018672D01*
X008595Y018432D01*
X008655Y018492D01*
X008655Y018612D01*
X008595Y018672D01*
X008355Y018672D01*
X008415Y018800D02*
X008415Y018980D01*
X008475Y019040D01*
X008655Y019040D01*
X008655Y018800D02*
X008415Y018800D01*
X008355Y018432D02*
X008595Y018432D01*
X008595Y018063D02*
X008355Y018063D01*
X008295Y018123D01*
X008295Y017815D02*
X008655Y017815D01*
X008655Y017695D02*
X008655Y017935D01*
X008415Y017695D02*
X008295Y017815D01*
X008445Y011805D02*
X008625Y011805D01*
X008685Y011745D01*
X008685Y011625D01*
X008625Y011565D01*
X008445Y011565D01*
X008445Y011445D02*
X008445Y011805D01*
X008565Y011565D02*
X008685Y011445D01*
X008813Y011445D02*
X009054Y011445D01*
X008933Y011445D02*
X008933Y011805D01*
X008813Y011685D01*
X008873Y010305D02*
X008813Y010245D01*
X008873Y010305D02*
X008993Y010305D01*
X009054Y010245D01*
X009054Y010185D01*
X008813Y009945D01*
X009054Y009945D01*
X008685Y009945D02*
X008565Y010065D01*
X008625Y010065D02*
X008445Y010065D01*
X008445Y009945D02*
X008445Y010305D01*
X008625Y010305D01*
X008685Y010245D01*
X008685Y010125D01*
X008625Y010065D01*
X008302Y002805D02*
X008182Y002685D01*
X008302Y002805D02*
X008302Y002445D01*
X008182Y002445D02*
X008422Y002445D01*
X008362Y002305D02*
X008242Y002305D01*
X008182Y002245D01*
X008182Y002005D01*
X008242Y001945D01*
X008362Y001945D01*
X008422Y002005D01*
X008422Y002245D02*
X008362Y002305D01*
X008054Y002245D02*
X007993Y002305D01*
X007873Y002305D01*
X007813Y002245D01*
X007813Y002005D01*
X007873Y001945D01*
X007993Y001945D01*
X008054Y002005D01*
X007813Y002445D02*
X007813Y002805D01*
X007993Y002805D01*
X008054Y002745D01*
X008054Y002625D01*
X007993Y002565D01*
X007813Y002565D01*
X007625Y002505D02*
X007625Y002805D01*
X007565Y002805D02*
X007685Y002805D01*
X007625Y002505D02*
X007565Y002445D01*
X007505Y002445D01*
X007445Y002505D01*
X007445Y002305D02*
X007445Y002065D01*
X007565Y001945D01*
X007685Y002065D01*
X007685Y002305D01*
X001955Y018422D02*
X001955Y018542D01*
X001955Y018482D02*
X001595Y018482D01*
X001595Y018422D01*
X001775Y018667D02*
X001715Y018727D01*
X001715Y018847D01*
X001775Y018907D01*
X001835Y018907D01*
X001835Y018667D01*
X001895Y018667D02*
X001775Y018667D01*
X001895Y018667D02*
X001955Y018727D01*
X001955Y018847D01*
D13*
X003825Y008275D02*
X003825Y002075D01*
X006525Y002075D01*
X006525Y004375D01*
X006525Y005975D02*
X006525Y008275D01*
X003825Y008275D01*
D14*
X006375Y005350D02*
X006300Y005275D01*
X006300Y005125D01*
X006375Y005050D01*
X006450Y005050D01*
X006525Y005125D01*
X006525Y005275D01*
X006600Y005350D01*
X006675Y005350D01*
X006750Y005275D01*
X006750Y005125D01*
X006675Y005050D01*
X006600Y005050D01*
X006525Y005125D01*
X006525Y005275D02*
X006450Y005350D01*
X006375Y005350D01*
X005900Y003000D02*
X005900Y002700D01*
X005900Y002850D02*
X005450Y002850D01*
X005600Y002700D01*
X004900Y002700D02*
X004600Y003000D01*
X004525Y003000D01*
X004450Y002925D01*
X004450Y002775D01*
X004525Y002700D01*
X004900Y002700D02*
X004900Y003000D01*
D15*
X004435Y009703D02*
X004435Y010647D01*
X006915Y010647D01*
X006915Y009703D01*
X004435Y009703D01*
X004435Y011203D02*
X004435Y012147D01*
X006915Y012147D01*
X006915Y011203D01*
X004435Y011203D01*
X004425Y018675D02*
X003925Y018675D01*
X006925Y018675D02*
X007425Y018675D01*
M02*
