G75*
G70*
%OFA0B0*%
%FSLAX24Y24*%
%IPPOS*%
%LPD*%
%AMOC8*
5,1,8,0,0,1.08239X$1,22.5*
%
%ADD10C,0.0000*%
%ADD11OC8,0.0600*%
%ADD12OC8,0.0640*%
%ADD13C,0.0740*%
%ADD14C,0.0700*%
%ADD15C,0.0650*%
%ADD16C,0.0634*%
%ADD17C,0.0150*%
%ADD18C,0.0100*%
D10*
X001675Y001175D02*
X001175Y001675D01*
X001175Y020175D01*
X001675Y020675D01*
X009675Y020675D01*
X010175Y020175D01*
X010175Y001675D01*
X009675Y001175D01*
X001675Y001175D01*
X001545Y002175D02*
X001547Y002225D01*
X001553Y002275D01*
X001563Y002324D01*
X001577Y002372D01*
X001594Y002419D01*
X001615Y002464D01*
X001640Y002508D01*
X001668Y002549D01*
X001700Y002588D01*
X001734Y002625D01*
X001771Y002659D01*
X001811Y002689D01*
X001853Y002716D01*
X001897Y002740D01*
X001943Y002761D01*
X001990Y002777D01*
X002038Y002790D01*
X002088Y002799D01*
X002137Y002804D01*
X002188Y002805D01*
X002238Y002802D01*
X002287Y002795D01*
X002336Y002784D01*
X002384Y002769D01*
X002430Y002751D01*
X002475Y002729D01*
X002518Y002703D01*
X002559Y002674D01*
X002598Y002642D01*
X002634Y002607D01*
X002666Y002569D01*
X002696Y002529D01*
X002723Y002486D01*
X002746Y002442D01*
X002765Y002396D01*
X002781Y002348D01*
X002793Y002299D01*
X002801Y002250D01*
X002805Y002200D01*
X002805Y002150D01*
X002801Y002100D01*
X002793Y002051D01*
X002781Y002002D01*
X002765Y001954D01*
X002746Y001908D01*
X002723Y001864D01*
X002696Y001821D01*
X002666Y001781D01*
X002634Y001743D01*
X002598Y001708D01*
X002559Y001676D01*
X002518Y001647D01*
X002475Y001621D01*
X002430Y001599D01*
X002384Y001581D01*
X002336Y001566D01*
X002287Y001555D01*
X002238Y001548D01*
X002188Y001545D01*
X002137Y001546D01*
X002088Y001551D01*
X002038Y001560D01*
X001990Y001573D01*
X001943Y001589D01*
X001897Y001610D01*
X001853Y001634D01*
X001811Y001661D01*
X001771Y001691D01*
X001734Y001725D01*
X001700Y001762D01*
X001668Y001801D01*
X001640Y001842D01*
X001615Y001886D01*
X001594Y001931D01*
X001577Y001978D01*
X001563Y002026D01*
X001553Y002075D01*
X001547Y002125D01*
X001545Y002175D01*
X001545Y012675D02*
X001547Y012725D01*
X001553Y012775D01*
X001563Y012824D01*
X001577Y012872D01*
X001594Y012919D01*
X001615Y012964D01*
X001640Y013008D01*
X001668Y013049D01*
X001700Y013088D01*
X001734Y013125D01*
X001771Y013159D01*
X001811Y013189D01*
X001853Y013216D01*
X001897Y013240D01*
X001943Y013261D01*
X001990Y013277D01*
X002038Y013290D01*
X002088Y013299D01*
X002137Y013304D01*
X002188Y013305D01*
X002238Y013302D01*
X002287Y013295D01*
X002336Y013284D01*
X002384Y013269D01*
X002430Y013251D01*
X002475Y013229D01*
X002518Y013203D01*
X002559Y013174D01*
X002598Y013142D01*
X002634Y013107D01*
X002666Y013069D01*
X002696Y013029D01*
X002723Y012986D01*
X002746Y012942D01*
X002765Y012896D01*
X002781Y012848D01*
X002793Y012799D01*
X002801Y012750D01*
X002805Y012700D01*
X002805Y012650D01*
X002801Y012600D01*
X002793Y012551D01*
X002781Y012502D01*
X002765Y012454D01*
X002746Y012408D01*
X002723Y012364D01*
X002696Y012321D01*
X002666Y012281D01*
X002634Y012243D01*
X002598Y012208D01*
X002559Y012176D01*
X002518Y012147D01*
X002475Y012121D01*
X002430Y012099D01*
X002384Y012081D01*
X002336Y012066D01*
X002287Y012055D01*
X002238Y012048D01*
X002188Y012045D01*
X002137Y012046D01*
X002088Y012051D01*
X002038Y012060D01*
X001990Y012073D01*
X001943Y012089D01*
X001897Y012110D01*
X001853Y012134D01*
X001811Y012161D01*
X001771Y012191D01*
X001734Y012225D01*
X001700Y012262D01*
X001668Y012301D01*
X001640Y012342D01*
X001615Y012386D01*
X001594Y012431D01*
X001577Y012478D01*
X001563Y012526D01*
X001553Y012575D01*
X001547Y012625D01*
X001545Y012675D01*
X001545Y019675D02*
X001547Y019725D01*
X001553Y019775D01*
X001563Y019824D01*
X001577Y019872D01*
X001594Y019919D01*
X001615Y019964D01*
X001640Y020008D01*
X001668Y020049D01*
X001700Y020088D01*
X001734Y020125D01*
X001771Y020159D01*
X001811Y020189D01*
X001853Y020216D01*
X001897Y020240D01*
X001943Y020261D01*
X001990Y020277D01*
X002038Y020290D01*
X002088Y020299D01*
X002137Y020304D01*
X002188Y020305D01*
X002238Y020302D01*
X002287Y020295D01*
X002336Y020284D01*
X002384Y020269D01*
X002430Y020251D01*
X002475Y020229D01*
X002518Y020203D01*
X002559Y020174D01*
X002598Y020142D01*
X002634Y020107D01*
X002666Y020069D01*
X002696Y020029D01*
X002723Y019986D01*
X002746Y019942D01*
X002765Y019896D01*
X002781Y019848D01*
X002793Y019799D01*
X002801Y019750D01*
X002805Y019700D01*
X002805Y019650D01*
X002801Y019600D01*
X002793Y019551D01*
X002781Y019502D01*
X002765Y019454D01*
X002746Y019408D01*
X002723Y019364D01*
X002696Y019321D01*
X002666Y019281D01*
X002634Y019243D01*
X002598Y019208D01*
X002559Y019176D01*
X002518Y019147D01*
X002475Y019121D01*
X002430Y019099D01*
X002384Y019081D01*
X002336Y019066D01*
X002287Y019055D01*
X002238Y019048D01*
X002188Y019045D01*
X002137Y019046D01*
X002088Y019051D01*
X002038Y019060D01*
X001990Y019073D01*
X001943Y019089D01*
X001897Y019110D01*
X001853Y019134D01*
X001811Y019161D01*
X001771Y019191D01*
X001734Y019225D01*
X001700Y019262D01*
X001668Y019301D01*
X001640Y019342D01*
X001615Y019386D01*
X001594Y019431D01*
X001577Y019478D01*
X001563Y019526D01*
X001553Y019575D01*
X001547Y019625D01*
X001545Y019675D01*
X008545Y019675D02*
X008547Y019725D01*
X008553Y019775D01*
X008563Y019824D01*
X008577Y019872D01*
X008594Y019919D01*
X008615Y019964D01*
X008640Y020008D01*
X008668Y020049D01*
X008700Y020088D01*
X008734Y020125D01*
X008771Y020159D01*
X008811Y020189D01*
X008853Y020216D01*
X008897Y020240D01*
X008943Y020261D01*
X008990Y020277D01*
X009038Y020290D01*
X009088Y020299D01*
X009137Y020304D01*
X009188Y020305D01*
X009238Y020302D01*
X009287Y020295D01*
X009336Y020284D01*
X009384Y020269D01*
X009430Y020251D01*
X009475Y020229D01*
X009518Y020203D01*
X009559Y020174D01*
X009598Y020142D01*
X009634Y020107D01*
X009666Y020069D01*
X009696Y020029D01*
X009723Y019986D01*
X009746Y019942D01*
X009765Y019896D01*
X009781Y019848D01*
X009793Y019799D01*
X009801Y019750D01*
X009805Y019700D01*
X009805Y019650D01*
X009801Y019600D01*
X009793Y019551D01*
X009781Y019502D01*
X009765Y019454D01*
X009746Y019408D01*
X009723Y019364D01*
X009696Y019321D01*
X009666Y019281D01*
X009634Y019243D01*
X009598Y019208D01*
X009559Y019176D01*
X009518Y019147D01*
X009475Y019121D01*
X009430Y019099D01*
X009384Y019081D01*
X009336Y019066D01*
X009287Y019055D01*
X009238Y019048D01*
X009188Y019045D01*
X009137Y019046D01*
X009088Y019051D01*
X009038Y019060D01*
X008990Y019073D01*
X008943Y019089D01*
X008897Y019110D01*
X008853Y019134D01*
X008811Y019161D01*
X008771Y019191D01*
X008734Y019225D01*
X008700Y019262D01*
X008668Y019301D01*
X008640Y019342D01*
X008615Y019386D01*
X008594Y019431D01*
X008577Y019478D01*
X008563Y019526D01*
X008553Y019575D01*
X008547Y019625D01*
X008545Y019675D01*
X008545Y012675D02*
X008547Y012725D01*
X008553Y012775D01*
X008563Y012824D01*
X008577Y012872D01*
X008594Y012919D01*
X008615Y012964D01*
X008640Y013008D01*
X008668Y013049D01*
X008700Y013088D01*
X008734Y013125D01*
X008771Y013159D01*
X008811Y013189D01*
X008853Y013216D01*
X008897Y013240D01*
X008943Y013261D01*
X008990Y013277D01*
X009038Y013290D01*
X009088Y013299D01*
X009137Y013304D01*
X009188Y013305D01*
X009238Y013302D01*
X009287Y013295D01*
X009336Y013284D01*
X009384Y013269D01*
X009430Y013251D01*
X009475Y013229D01*
X009518Y013203D01*
X009559Y013174D01*
X009598Y013142D01*
X009634Y013107D01*
X009666Y013069D01*
X009696Y013029D01*
X009723Y012986D01*
X009746Y012942D01*
X009765Y012896D01*
X009781Y012848D01*
X009793Y012799D01*
X009801Y012750D01*
X009805Y012700D01*
X009805Y012650D01*
X009801Y012600D01*
X009793Y012551D01*
X009781Y012502D01*
X009765Y012454D01*
X009746Y012408D01*
X009723Y012364D01*
X009696Y012321D01*
X009666Y012281D01*
X009634Y012243D01*
X009598Y012208D01*
X009559Y012176D01*
X009518Y012147D01*
X009475Y012121D01*
X009430Y012099D01*
X009384Y012081D01*
X009336Y012066D01*
X009287Y012055D01*
X009238Y012048D01*
X009188Y012045D01*
X009137Y012046D01*
X009088Y012051D01*
X009038Y012060D01*
X008990Y012073D01*
X008943Y012089D01*
X008897Y012110D01*
X008853Y012134D01*
X008811Y012161D01*
X008771Y012191D01*
X008734Y012225D01*
X008700Y012262D01*
X008668Y012301D01*
X008640Y012342D01*
X008615Y012386D01*
X008594Y012431D01*
X008577Y012478D01*
X008563Y012526D01*
X008553Y012575D01*
X008547Y012625D01*
X008545Y012675D01*
X008545Y002175D02*
X008547Y002225D01*
X008553Y002275D01*
X008563Y002324D01*
X008577Y002372D01*
X008594Y002419D01*
X008615Y002464D01*
X008640Y002508D01*
X008668Y002549D01*
X008700Y002588D01*
X008734Y002625D01*
X008771Y002659D01*
X008811Y002689D01*
X008853Y002716D01*
X008897Y002740D01*
X008943Y002761D01*
X008990Y002777D01*
X009038Y002790D01*
X009088Y002799D01*
X009137Y002804D01*
X009188Y002805D01*
X009238Y002802D01*
X009287Y002795D01*
X009336Y002784D01*
X009384Y002769D01*
X009430Y002751D01*
X009475Y002729D01*
X009518Y002703D01*
X009559Y002674D01*
X009598Y002642D01*
X009634Y002607D01*
X009666Y002569D01*
X009696Y002529D01*
X009723Y002486D01*
X009746Y002442D01*
X009765Y002396D01*
X009781Y002348D01*
X009793Y002299D01*
X009801Y002250D01*
X009805Y002200D01*
X009805Y002150D01*
X009801Y002100D01*
X009793Y002051D01*
X009781Y002002D01*
X009765Y001954D01*
X009746Y001908D01*
X009723Y001864D01*
X009696Y001821D01*
X009666Y001781D01*
X009634Y001743D01*
X009598Y001708D01*
X009559Y001676D01*
X009518Y001647D01*
X009475Y001621D01*
X009430Y001599D01*
X009384Y001581D01*
X009336Y001566D01*
X009287Y001555D01*
X009238Y001548D01*
X009188Y001545D01*
X009137Y001546D01*
X009088Y001551D01*
X009038Y001560D01*
X008990Y001573D01*
X008943Y001589D01*
X008897Y001610D01*
X008853Y001634D01*
X008811Y001661D01*
X008771Y001691D01*
X008734Y001725D01*
X008700Y001762D01*
X008668Y001801D01*
X008640Y001842D01*
X008615Y001886D01*
X008594Y001931D01*
X008577Y001978D01*
X008563Y002026D01*
X008553Y002075D01*
X008547Y002125D01*
X008545Y002175D01*
D11*
X006175Y003175D03*
X006175Y004175D03*
X006175Y005175D03*
X006175Y006175D03*
X005175Y006175D03*
X005175Y005175D03*
X005175Y004175D03*
X005175Y003175D03*
D12*
X008175Y003675D03*
X008175Y004675D03*
X008175Y005675D03*
X008175Y007175D03*
X008175Y008175D03*
X008175Y009175D03*
X009175Y009175D03*
X009175Y008175D03*
X009175Y007175D03*
X009175Y005675D03*
X009175Y004675D03*
X009175Y003675D03*
D13*
X009175Y014175D03*
X009175Y018175D03*
X007675Y018675D03*
X007675Y019675D03*
X003675Y019675D03*
X003675Y018675D03*
X002175Y018175D03*
X002175Y014175D03*
X002175Y009175D03*
X002675Y008425D03*
X003175Y009175D03*
X002675Y007425D03*
X002675Y003425D03*
D14*
X005675Y015175D03*
X006675Y016175D03*
X005675Y017175D03*
X004675Y016175D03*
D15*
X008175Y016175D03*
X008175Y015175D03*
D16*
X008175Y011992D02*
X008175Y011358D01*
X007175Y011358D02*
X007175Y011992D01*
X006175Y011992D02*
X006175Y011358D01*
X005175Y011358D02*
X005175Y011992D01*
X004175Y011992D02*
X004175Y011358D01*
X003175Y011358D02*
X003175Y011992D01*
D17*
X002543Y011232D02*
X002639Y011000D01*
X002817Y010822D01*
X003049Y010726D01*
X003301Y010726D01*
X003533Y010822D01*
X003675Y010965D01*
X003810Y010830D01*
X003810Y009602D01*
X003866Y009468D01*
X005310Y008024D01*
X005310Y006790D01*
X004920Y006790D01*
X004560Y006430D01*
X004560Y005920D01*
X004805Y005675D01*
X004560Y005430D01*
X004560Y004920D01*
X004904Y004576D01*
X004700Y004372D01*
X004700Y004190D01*
X005160Y004190D01*
X005160Y004160D01*
X004700Y004160D01*
X004700Y003978D01*
X004904Y003774D01*
X004560Y003430D01*
X004560Y002920D01*
X004785Y002695D01*
X004785Y002347D01*
X004844Y002204D01*
X004954Y002094D01*
X005097Y002035D01*
X008230Y002035D01*
X008230Y001987D01*
X008374Y001640D01*
X008524Y001490D01*
X002826Y001490D01*
X002976Y001640D01*
X003120Y001987D01*
X003120Y002363D01*
X002976Y002710D01*
X002794Y002892D01*
X002803Y002893D01*
X002884Y002920D01*
X002961Y002959D01*
X003030Y003009D01*
X003091Y003070D01*
X003141Y003139D01*
X003180Y003216D01*
X003207Y003297D01*
X003220Y003382D01*
X003220Y003411D01*
X002689Y003411D01*
X002689Y003439D01*
X002661Y003439D01*
X002661Y003970D01*
X002632Y003970D01*
X002547Y003957D01*
X002466Y003930D01*
X002389Y003891D01*
X002320Y003841D01*
X002259Y003780D01*
X002209Y003711D01*
X002170Y003634D01*
X002143Y003553D01*
X002130Y003468D01*
X002130Y003439D01*
X002661Y003439D01*
X002661Y003411D01*
X002130Y003411D01*
X002130Y003382D01*
X002143Y003297D01*
X002170Y003216D01*
X002209Y003139D01*
X002223Y003120D01*
X001987Y003120D01*
X001640Y002976D01*
X001490Y002826D01*
X001490Y012024D01*
X001640Y011874D01*
X001987Y011730D01*
X002363Y011730D01*
X002543Y011805D01*
X002543Y011232D01*
X002543Y011273D02*
X001490Y011273D01*
X001490Y011125D02*
X002588Y011125D01*
X002664Y010976D02*
X001490Y010976D01*
X001490Y010828D02*
X002812Y010828D01*
X002543Y011422D02*
X001490Y011422D01*
X001490Y011570D02*
X002543Y011570D01*
X002543Y011719D02*
X001490Y011719D01*
X001490Y011867D02*
X001656Y011867D01*
X001498Y012016D02*
X001490Y012016D01*
X001490Y010679D02*
X003810Y010679D01*
X003810Y010531D02*
X001490Y010531D01*
X001490Y010382D02*
X003810Y010382D01*
X003810Y010234D02*
X001490Y010234D01*
X001490Y010085D02*
X003810Y010085D01*
X003810Y009937D02*
X001490Y009937D01*
X001490Y009788D02*
X001865Y009788D01*
X001787Y009756D02*
X002039Y009860D01*
X002311Y009860D01*
X002563Y009756D01*
X002756Y009563D01*
X002766Y009537D01*
X002820Y009591D01*
X002889Y009641D01*
X002966Y009680D01*
X003047Y009707D01*
X003132Y009720D01*
X003170Y009720D01*
X003170Y009180D01*
X003180Y009180D01*
X003720Y009180D01*
X003720Y009218D01*
X003707Y009303D01*
X003680Y009384D01*
X003641Y009461D01*
X003591Y009530D01*
X003530Y009591D01*
X003461Y009641D01*
X003384Y009680D01*
X003303Y009707D01*
X003218Y009720D01*
X003180Y009720D01*
X003180Y009180D01*
X003180Y009170D01*
X003720Y009170D01*
X003720Y009132D01*
X003707Y009047D01*
X003680Y008966D01*
X003641Y008889D01*
X003591Y008820D01*
X003530Y008759D01*
X003461Y008709D01*
X003384Y008670D01*
X003323Y008650D01*
X003360Y008561D01*
X003360Y008289D01*
X003256Y008037D01*
X003144Y007925D01*
X003256Y007813D01*
X003360Y007561D01*
X003360Y007289D01*
X003256Y007037D01*
X003063Y006844D01*
X002811Y006740D01*
X002539Y006740D01*
X002287Y006844D01*
X002094Y007037D01*
X001990Y007289D01*
X001990Y007561D01*
X002094Y007813D01*
X002206Y007925D01*
X002094Y008037D01*
X001990Y008289D01*
X001990Y008510D01*
X001787Y008594D01*
X001594Y008787D01*
X001490Y009039D01*
X001490Y009311D01*
X001594Y009563D01*
X001787Y009756D01*
X001671Y009640D02*
X001490Y009640D01*
X001490Y009491D02*
X001564Y009491D01*
X001503Y009343D02*
X001490Y009343D01*
X001490Y009194D02*
X001490Y009194D01*
X001490Y009046D02*
X001490Y009046D01*
X001490Y008897D02*
X001549Y008897D01*
X001490Y008749D02*
X001633Y008749D01*
X001490Y008600D02*
X001781Y008600D01*
X001990Y008452D02*
X001490Y008452D01*
X001490Y008303D02*
X001990Y008303D01*
X002046Y008155D02*
X001490Y008155D01*
X001490Y008006D02*
X002125Y008006D01*
X002139Y007858D02*
X001490Y007858D01*
X001490Y007709D02*
X002051Y007709D01*
X001990Y007561D02*
X001490Y007561D01*
X001490Y007412D02*
X001990Y007412D01*
X002000Y007264D02*
X001490Y007264D01*
X001490Y007115D02*
X002062Y007115D01*
X002165Y006967D02*
X001490Y006967D01*
X001490Y006818D02*
X002350Y006818D01*
X003000Y006818D02*
X005310Y006818D01*
X005310Y006967D02*
X003185Y006967D01*
X003288Y007115D02*
X005310Y007115D01*
X005310Y007264D02*
X003350Y007264D01*
X003360Y007412D02*
X005310Y007412D01*
X005310Y007561D02*
X003360Y007561D01*
X003299Y007709D02*
X005310Y007709D01*
X005310Y007858D02*
X003211Y007858D01*
X003225Y008006D02*
X005310Y008006D01*
X005179Y008155D02*
X003304Y008155D01*
X003360Y008303D02*
X005031Y008303D01*
X004882Y008452D02*
X003360Y008452D01*
X003344Y008600D02*
X004734Y008600D01*
X004585Y008749D02*
X003515Y008749D01*
X003675Y008675D02*
X003675Y004175D01*
X005175Y004175D01*
X003425Y004175D01*
X002675Y003425D01*
X002689Y003439D02*
X002689Y003970D01*
X002718Y003970D01*
X002803Y003957D01*
X002884Y003930D01*
X002961Y003891D01*
X003030Y003841D01*
X003091Y003780D01*
X003141Y003711D01*
X003180Y003634D01*
X003207Y003553D01*
X003220Y003468D01*
X003220Y003439D01*
X002689Y003439D01*
X002689Y003551D02*
X002661Y003551D01*
X002661Y003700D02*
X002689Y003700D01*
X002689Y003848D02*
X002661Y003848D01*
X002330Y003848D02*
X001490Y003848D01*
X001490Y003700D02*
X002203Y003700D01*
X002143Y003551D02*
X001490Y003551D01*
X001490Y003403D02*
X002130Y003403D01*
X002158Y003254D02*
X001490Y003254D01*
X001490Y003106D02*
X001952Y003106D01*
X001621Y002957D02*
X001490Y002957D01*
X001490Y003997D02*
X004700Y003997D01*
X004700Y004145D02*
X001490Y004145D01*
X001490Y004294D02*
X004700Y004294D01*
X004770Y004442D02*
X001490Y004442D01*
X001490Y004591D02*
X004890Y004591D01*
X004741Y004739D02*
X001490Y004739D01*
X001490Y004888D02*
X004593Y004888D01*
X004560Y005036D02*
X001490Y005036D01*
X001490Y005185D02*
X004560Y005185D01*
X004560Y005333D02*
X001490Y005333D01*
X001490Y005482D02*
X004612Y005482D01*
X004760Y005630D02*
X001490Y005630D01*
X001490Y005779D02*
X004702Y005779D01*
X004560Y005927D02*
X001490Y005927D01*
X001490Y006076D02*
X004560Y006076D01*
X004560Y006224D02*
X001490Y006224D01*
X001490Y006373D02*
X004560Y006373D01*
X004651Y006521D02*
X001490Y006521D01*
X001490Y006670D02*
X004800Y006670D01*
X004437Y008897D02*
X003645Y008897D01*
X003706Y009046D02*
X004288Y009046D01*
X004140Y009194D02*
X003720Y009194D01*
X003694Y009343D02*
X003991Y009343D01*
X003856Y009491D02*
X003619Y009491D01*
X003463Y009640D02*
X003810Y009640D01*
X003810Y009788D02*
X002485Y009788D01*
X002679Y009640D02*
X002887Y009640D01*
X003170Y009640D02*
X003180Y009640D01*
X003170Y009491D02*
X003180Y009491D01*
X003170Y009343D02*
X003180Y009343D01*
X003170Y009194D02*
X003180Y009194D01*
X003175Y009175D02*
X003675Y008675D01*
X003538Y010828D02*
X003810Y010828D01*
X005484Y013632D02*
X005290Y013826D01*
X005290Y014818D01*
X005333Y014775D01*
X005400Y014726D01*
X005473Y014688D01*
X005473Y014689D02*
X005290Y014689D01*
X005290Y014540D02*
X006285Y014540D01*
X006285Y014392D02*
X005290Y014392D01*
X005290Y014243D02*
X006285Y014243D01*
X006285Y014095D02*
X005290Y014095D01*
X005290Y013946D02*
X006285Y013946D01*
X006285Y013798D02*
X005319Y013798D01*
X005467Y013649D02*
X006285Y013649D01*
X006285Y013597D02*
X006344Y013454D01*
X006454Y013344D01*
X006785Y013013D01*
X006785Y012495D01*
X006639Y012350D01*
X006597Y012247D01*
X006596Y012250D01*
X006550Y012312D01*
X006495Y012367D01*
X006433Y012413D01*
X006364Y012448D01*
X006290Y012472D01*
X006214Y012484D01*
X006198Y012484D01*
X006198Y011698D01*
X006152Y011698D01*
X006152Y012484D01*
X006136Y012484D01*
X006060Y012472D01*
X005986Y012448D01*
X005917Y012413D01*
X005855Y012367D01*
X005800Y012312D01*
X005754Y012250D01*
X005753Y012247D01*
X005711Y012350D01*
X005540Y012520D01*
X005540Y013498D01*
X005484Y013632D01*
X005539Y013501D02*
X006325Y013501D01*
X006285Y013597D02*
X006285Y015625D01*
X006111Y015798D01*
X006013Y016036D01*
X005984Y015968D01*
X005882Y015866D01*
X005716Y015700D01*
X005716Y015700D01*
X005798Y015687D01*
X005877Y015662D01*
X005950Y015624D01*
X006017Y015575D01*
X006075Y015517D01*
X006124Y015450D01*
X006162Y015377D01*
X006187Y015298D01*
X006200Y015216D01*
X006200Y015180D01*
X005680Y015180D01*
X005680Y015664D01*
X005670Y015654D01*
X005670Y015180D01*
X005680Y015180D01*
X005680Y015170D01*
X006200Y015170D01*
X006200Y015134D01*
X006285Y015134D01*
X006200Y015134D02*
X006187Y015052D01*
X006162Y014973D01*
X006124Y014900D01*
X006075Y014833D01*
X006017Y014775D01*
X005950Y014726D01*
X005877Y014688D01*
X005877Y014689D02*
X006285Y014689D01*
X006285Y014837D02*
X006078Y014837D01*
X006165Y014986D02*
X006285Y014986D01*
X006285Y015283D02*
X006190Y015283D01*
X006134Y015431D02*
X006285Y015431D01*
X006285Y015580D02*
X006011Y015580D01*
X006079Y015877D02*
X005893Y015877D01*
X006008Y016025D02*
X006017Y016025D01*
X006182Y015728D02*
X005744Y015728D01*
X005680Y015580D02*
X005670Y015580D01*
X005670Y015431D02*
X005680Y015431D01*
X005670Y015283D02*
X005680Y015283D01*
X005670Y015180D02*
X005290Y015180D01*
X005290Y015170D01*
X005670Y015170D01*
X005670Y015180D01*
X005675Y015175D02*
X005675Y013675D01*
X006175Y013175D01*
X006175Y011675D01*
X006198Y011652D02*
X006198Y010866D01*
X006214Y010866D01*
X006290Y010878D01*
X006364Y010902D01*
X006433Y010937D01*
X006495Y010983D01*
X006550Y011038D01*
X006596Y011100D01*
X006597Y011103D01*
X006639Y011000D01*
X006817Y010822D01*
X007049Y010726D01*
X007301Y010726D01*
X007533Y010822D01*
X007675Y010965D01*
X007785Y010855D01*
X007785Y010347D01*
X007844Y010204D01*
X007954Y010094D01*
X008097Y010035D01*
X009013Y010035D01*
X009238Y009810D01*
X008912Y009810D01*
X008675Y009573D01*
X008438Y009810D01*
X007912Y009810D01*
X007540Y009438D01*
X007540Y008912D01*
X007777Y008675D01*
X007667Y008565D01*
X007097Y008565D01*
X006954Y008506D01*
X006844Y008396D01*
X006785Y008253D01*
X006785Y006435D01*
X006540Y006680D01*
X006540Y008748D01*
X006484Y008882D01*
X005540Y009826D01*
X005540Y010830D01*
X005711Y011000D01*
X005753Y011103D01*
X005754Y011100D01*
X005800Y011038D01*
X005855Y010983D01*
X005917Y010937D01*
X005986Y010902D01*
X006060Y010878D01*
X006136Y010866D01*
X006152Y010866D01*
X006152Y011652D01*
X006198Y011652D01*
X006198Y011719D02*
X006152Y011719D01*
X006152Y011867D02*
X006198Y011867D01*
X006198Y012016D02*
X006152Y012016D01*
X006152Y012164D02*
X006198Y012164D01*
X006198Y012313D02*
X006152Y012313D01*
X006152Y012461D02*
X006198Y012461D01*
X006323Y012461D02*
X006751Y012461D01*
X006785Y012610D02*
X005540Y012610D01*
X005540Y012758D02*
X006785Y012758D01*
X006785Y012907D02*
X005540Y012907D01*
X005540Y013055D02*
X006743Y013055D01*
X006595Y013204D02*
X005540Y013204D01*
X005540Y013352D02*
X006446Y013352D01*
X006454Y013344D02*
X006454Y013344D01*
X006675Y013675D02*
X006675Y016175D01*
X007675Y016175D01*
X007675Y018675D01*
X007675Y019675D01*
X009175Y018175D02*
X009175Y015175D01*
X008175Y014175D01*
X008175Y011675D01*
X008175Y010425D01*
X009175Y010425D01*
X009875Y009725D01*
X009875Y006375D01*
X009175Y005675D01*
X009175Y004675D01*
X009175Y003675D01*
X008175Y003675D02*
X008175Y002425D01*
X005175Y002425D01*
X005175Y003175D01*
X004830Y003700D02*
X003147Y003700D01*
X003207Y003551D02*
X004681Y003551D01*
X004560Y003403D02*
X003220Y003403D01*
X003192Y003254D02*
X004560Y003254D01*
X004560Y003106D02*
X003117Y003106D01*
X002957Y002957D02*
X004560Y002957D01*
X004672Y002809D02*
X002878Y002809D01*
X002997Y002660D02*
X004785Y002660D01*
X004785Y002512D02*
X003058Y002512D01*
X003120Y002363D02*
X004785Y002363D01*
X004840Y002215D02*
X003120Y002215D01*
X003120Y002066D02*
X005023Y002066D01*
X004830Y003848D02*
X003020Y003848D01*
X003091Y001918D02*
X008259Y001918D01*
X008320Y001769D02*
X003030Y001769D01*
X002957Y001621D02*
X008393Y001621D01*
X008175Y003675D02*
X008175Y003700D01*
X008175Y004675D02*
X007175Y004675D01*
X007175Y008175D01*
X008175Y008175D01*
X007702Y008600D02*
X006540Y008600D01*
X006540Y008452D02*
X006900Y008452D01*
X006806Y008303D02*
X006540Y008303D01*
X006540Y008155D02*
X006785Y008155D01*
X006785Y008006D02*
X006540Y008006D01*
X006540Y007858D02*
X006785Y007858D01*
X006785Y007709D02*
X006540Y007709D01*
X006540Y007561D02*
X006785Y007561D01*
X006785Y007412D02*
X006540Y007412D01*
X006540Y007264D02*
X006785Y007264D01*
X006785Y007115D02*
X006540Y007115D01*
X006540Y006967D02*
X006785Y006967D01*
X006785Y006818D02*
X006540Y006818D01*
X006550Y006670D02*
X006785Y006670D01*
X006785Y006521D02*
X006699Y006521D01*
X006540Y008749D02*
X007703Y008749D01*
X007555Y008897D02*
X006469Y008897D01*
X006321Y009046D02*
X007540Y009046D01*
X007540Y009194D02*
X006172Y009194D01*
X006024Y009343D02*
X007540Y009343D01*
X007593Y009491D02*
X005875Y009491D01*
X005727Y009640D02*
X007741Y009640D01*
X007890Y009788D02*
X005578Y009788D01*
X005540Y009937D02*
X009112Y009937D01*
X008890Y009788D02*
X008460Y009788D01*
X008609Y009640D02*
X008741Y009640D01*
X007977Y010085D02*
X005540Y010085D01*
X005540Y010234D02*
X007832Y010234D01*
X007785Y010382D02*
X005540Y010382D01*
X005540Y010531D02*
X007785Y010531D01*
X007785Y010679D02*
X005540Y010679D01*
X005540Y010828D02*
X006812Y010828D01*
X006664Y010976D02*
X006486Y010976D01*
X006198Y010976D02*
X006152Y010976D01*
X006152Y011125D02*
X006198Y011125D01*
X006198Y011273D02*
X006152Y011273D01*
X006152Y011422D02*
X006198Y011422D01*
X006198Y011570D02*
X006152Y011570D01*
X005864Y010976D02*
X005686Y010976D01*
X005726Y012313D02*
X005800Y012313D01*
X005599Y012461D02*
X006027Y012461D01*
X006550Y012313D02*
X006624Y012313D01*
X007175Y011675D02*
X007175Y013175D01*
X006675Y013675D01*
X007065Y013837D02*
X007065Y015625D01*
X007225Y015785D01*
X007660Y015785D01*
X007812Y015632D01*
X007903Y015595D01*
X007849Y015556D01*
X007794Y015501D01*
X007747Y015437D01*
X007712Y015367D01*
X007687Y015292D01*
X007675Y015214D01*
X007675Y015175D01*
X008175Y015175D01*
X008175Y015175D01*
X007675Y015175D01*
X007675Y015136D01*
X007687Y015058D01*
X007712Y014983D01*
X007747Y014913D01*
X007794Y014849D01*
X007849Y014794D01*
X007913Y014747D01*
X007983Y014712D01*
X008058Y014687D01*
X008125Y014677D01*
X007844Y014396D01*
X007785Y014253D01*
X007785Y014097D01*
X007785Y012495D01*
X007675Y012385D01*
X007565Y012495D01*
X007565Y013253D01*
X007506Y013396D01*
X007396Y013506D01*
X007065Y013837D01*
X007104Y013798D02*
X007785Y013798D01*
X007785Y013946D02*
X007065Y013946D01*
X007065Y014095D02*
X007785Y014095D01*
X007785Y014243D02*
X007065Y014243D01*
X007065Y014392D02*
X007843Y014392D01*
X007988Y014540D02*
X007065Y014540D01*
X007065Y014689D02*
X008054Y014689D01*
X007806Y014837D02*
X007065Y014837D01*
X007065Y014986D02*
X007711Y014986D01*
X007675Y015134D02*
X007065Y015134D01*
X007065Y015283D02*
X007686Y015283D01*
X007744Y015431D02*
X007065Y015431D01*
X007065Y015580D02*
X007881Y015580D01*
X007717Y015728D02*
X007168Y015728D01*
X007675Y016175D02*
X008175Y016175D01*
X007785Y013649D02*
X007253Y013649D01*
X007396Y013506D02*
X007396Y013506D01*
X007401Y013501D02*
X007785Y013501D01*
X007785Y013352D02*
X007524Y013352D01*
X007565Y013204D02*
X007785Y013204D01*
X007785Y013055D02*
X007565Y013055D01*
X007565Y012907D02*
X007785Y012907D01*
X007785Y012758D02*
X007565Y012758D01*
X007565Y012610D02*
X007785Y012610D01*
X007751Y012461D02*
X007599Y012461D01*
X007538Y010828D02*
X007785Y010828D01*
X008175Y007175D02*
X008175Y005675D01*
X005798Y014663D02*
X005716Y014650D01*
X005680Y014650D01*
X005680Y015170D01*
X005670Y015170D01*
X005670Y014650D01*
X005634Y014650D01*
X005552Y014663D01*
X005473Y014688D01*
X005670Y014689D02*
X005680Y014689D01*
X005798Y014663D02*
X005877Y014688D01*
X005680Y014837D02*
X005670Y014837D01*
X005670Y014986D02*
X005680Y014986D01*
X005670Y015134D02*
X005680Y015134D01*
D18*
X004925Y015425D02*
X005675Y016175D01*
X005675Y017175D01*
X005675Y017675D01*
X003675Y019675D01*
X003675Y018675D02*
X003675Y017175D01*
X004675Y016175D01*
X004175Y015675D01*
X004175Y011675D01*
X004175Y009675D01*
X005675Y008175D01*
X005675Y005675D01*
X006175Y005175D01*
X006175Y006175D02*
X006175Y008675D01*
X005175Y009675D01*
X005175Y011675D01*
X005175Y013425D01*
X004925Y013675D01*
X004925Y015425D01*
M02*
