%
M48
M72
T01C0.0276
T02C0.0320
T03C0.0354
T04C0.0360
T05C0.0394
T06C0.0400
T07C0.1260
%
T01
X8175Y15175
X8175Y16175
T02
X6675Y16175
X5675Y15175
X4675Y16175
X5675Y17175
X3175Y9175
X2675Y8425
X2175Y9175
T03
X2675Y7425
X2675Y3425
X2175Y14175
X2175Y18175
X3675Y18675
X3675Y19675
X7675Y19675
X7675Y18675
X9175Y18175
X9175Y14175
T04
X6175Y6175
X6175Y5175
X6175Y4175
X6175Y3175
X5175Y3175
X5175Y4175
X5175Y5175
X5175Y6175
T05
X5175Y11675
X4175Y11675
X3175Y11675
X6175Y11675
X7175Y11675
X8175Y11675
T06
X8175Y9175
X8175Y8175
X8175Y7175
X8175Y5675
X8175Y4675
X8175Y3675
X9175Y3675
X9175Y4675
X9175Y5675
X9175Y7175
X9175Y8175
X9175Y9175
T07
X2175Y2175
X2175Y12675
X2175Y19675
X9175Y19675
X9175Y12675
X9175Y2175
M30
