G75*
G70*
%OFA0B0*%
%FSLAX24Y24*%
%IPPOS*%
%LPD*%
%AMOC8*
5,1,8,0,0,1.08239X$1,22.5*
%
%ADD10C,0.0000*%
%ADD11OC8,0.0600*%
%ADD12OC8,0.0640*%
%ADD13C,0.0740*%
%ADD14C,0.0700*%
%ADD15C,0.0650*%
%ADD16C,0.0634*%
%ADD17C,0.0150*%
%ADD18C,0.0100*%
D10*
X001675Y001175D02*
X001175Y001675D01*
X001175Y020175D01*
X001675Y020675D01*
X009675Y020675D01*
X010175Y020175D01*
X010175Y001675D01*
X009675Y001175D01*
X001675Y001175D01*
X001545Y002175D02*
X001547Y002225D01*
X001553Y002275D01*
X001563Y002324D01*
X001577Y002372D01*
X001594Y002419D01*
X001615Y002464D01*
X001640Y002508D01*
X001668Y002549D01*
X001700Y002588D01*
X001734Y002625D01*
X001771Y002659D01*
X001811Y002689D01*
X001853Y002716D01*
X001897Y002740D01*
X001943Y002761D01*
X001990Y002777D01*
X002038Y002790D01*
X002088Y002799D01*
X002137Y002804D01*
X002188Y002805D01*
X002238Y002802D01*
X002287Y002795D01*
X002336Y002784D01*
X002384Y002769D01*
X002430Y002751D01*
X002475Y002729D01*
X002518Y002703D01*
X002559Y002674D01*
X002598Y002642D01*
X002634Y002607D01*
X002666Y002569D01*
X002696Y002529D01*
X002723Y002486D01*
X002746Y002442D01*
X002765Y002396D01*
X002781Y002348D01*
X002793Y002299D01*
X002801Y002250D01*
X002805Y002200D01*
X002805Y002150D01*
X002801Y002100D01*
X002793Y002051D01*
X002781Y002002D01*
X002765Y001954D01*
X002746Y001908D01*
X002723Y001864D01*
X002696Y001821D01*
X002666Y001781D01*
X002634Y001743D01*
X002598Y001708D01*
X002559Y001676D01*
X002518Y001647D01*
X002475Y001621D01*
X002430Y001599D01*
X002384Y001581D01*
X002336Y001566D01*
X002287Y001555D01*
X002238Y001548D01*
X002188Y001545D01*
X002137Y001546D01*
X002088Y001551D01*
X002038Y001560D01*
X001990Y001573D01*
X001943Y001589D01*
X001897Y001610D01*
X001853Y001634D01*
X001811Y001661D01*
X001771Y001691D01*
X001734Y001725D01*
X001700Y001762D01*
X001668Y001801D01*
X001640Y001842D01*
X001615Y001886D01*
X001594Y001931D01*
X001577Y001978D01*
X001563Y002026D01*
X001553Y002075D01*
X001547Y002125D01*
X001545Y002175D01*
X001545Y012675D02*
X001547Y012725D01*
X001553Y012775D01*
X001563Y012824D01*
X001577Y012872D01*
X001594Y012919D01*
X001615Y012964D01*
X001640Y013008D01*
X001668Y013049D01*
X001700Y013088D01*
X001734Y013125D01*
X001771Y013159D01*
X001811Y013189D01*
X001853Y013216D01*
X001897Y013240D01*
X001943Y013261D01*
X001990Y013277D01*
X002038Y013290D01*
X002088Y013299D01*
X002137Y013304D01*
X002188Y013305D01*
X002238Y013302D01*
X002287Y013295D01*
X002336Y013284D01*
X002384Y013269D01*
X002430Y013251D01*
X002475Y013229D01*
X002518Y013203D01*
X002559Y013174D01*
X002598Y013142D01*
X002634Y013107D01*
X002666Y013069D01*
X002696Y013029D01*
X002723Y012986D01*
X002746Y012942D01*
X002765Y012896D01*
X002781Y012848D01*
X002793Y012799D01*
X002801Y012750D01*
X002805Y012700D01*
X002805Y012650D01*
X002801Y012600D01*
X002793Y012551D01*
X002781Y012502D01*
X002765Y012454D01*
X002746Y012408D01*
X002723Y012364D01*
X002696Y012321D01*
X002666Y012281D01*
X002634Y012243D01*
X002598Y012208D01*
X002559Y012176D01*
X002518Y012147D01*
X002475Y012121D01*
X002430Y012099D01*
X002384Y012081D01*
X002336Y012066D01*
X002287Y012055D01*
X002238Y012048D01*
X002188Y012045D01*
X002137Y012046D01*
X002088Y012051D01*
X002038Y012060D01*
X001990Y012073D01*
X001943Y012089D01*
X001897Y012110D01*
X001853Y012134D01*
X001811Y012161D01*
X001771Y012191D01*
X001734Y012225D01*
X001700Y012262D01*
X001668Y012301D01*
X001640Y012342D01*
X001615Y012386D01*
X001594Y012431D01*
X001577Y012478D01*
X001563Y012526D01*
X001553Y012575D01*
X001547Y012625D01*
X001545Y012675D01*
X001545Y019675D02*
X001547Y019725D01*
X001553Y019775D01*
X001563Y019824D01*
X001577Y019872D01*
X001594Y019919D01*
X001615Y019964D01*
X001640Y020008D01*
X001668Y020049D01*
X001700Y020088D01*
X001734Y020125D01*
X001771Y020159D01*
X001811Y020189D01*
X001853Y020216D01*
X001897Y020240D01*
X001943Y020261D01*
X001990Y020277D01*
X002038Y020290D01*
X002088Y020299D01*
X002137Y020304D01*
X002188Y020305D01*
X002238Y020302D01*
X002287Y020295D01*
X002336Y020284D01*
X002384Y020269D01*
X002430Y020251D01*
X002475Y020229D01*
X002518Y020203D01*
X002559Y020174D01*
X002598Y020142D01*
X002634Y020107D01*
X002666Y020069D01*
X002696Y020029D01*
X002723Y019986D01*
X002746Y019942D01*
X002765Y019896D01*
X002781Y019848D01*
X002793Y019799D01*
X002801Y019750D01*
X002805Y019700D01*
X002805Y019650D01*
X002801Y019600D01*
X002793Y019551D01*
X002781Y019502D01*
X002765Y019454D01*
X002746Y019408D01*
X002723Y019364D01*
X002696Y019321D01*
X002666Y019281D01*
X002634Y019243D01*
X002598Y019208D01*
X002559Y019176D01*
X002518Y019147D01*
X002475Y019121D01*
X002430Y019099D01*
X002384Y019081D01*
X002336Y019066D01*
X002287Y019055D01*
X002238Y019048D01*
X002188Y019045D01*
X002137Y019046D01*
X002088Y019051D01*
X002038Y019060D01*
X001990Y019073D01*
X001943Y019089D01*
X001897Y019110D01*
X001853Y019134D01*
X001811Y019161D01*
X001771Y019191D01*
X001734Y019225D01*
X001700Y019262D01*
X001668Y019301D01*
X001640Y019342D01*
X001615Y019386D01*
X001594Y019431D01*
X001577Y019478D01*
X001563Y019526D01*
X001553Y019575D01*
X001547Y019625D01*
X001545Y019675D01*
X008545Y019675D02*
X008547Y019725D01*
X008553Y019775D01*
X008563Y019824D01*
X008577Y019872D01*
X008594Y019919D01*
X008615Y019964D01*
X008640Y020008D01*
X008668Y020049D01*
X008700Y020088D01*
X008734Y020125D01*
X008771Y020159D01*
X008811Y020189D01*
X008853Y020216D01*
X008897Y020240D01*
X008943Y020261D01*
X008990Y020277D01*
X009038Y020290D01*
X009088Y020299D01*
X009137Y020304D01*
X009188Y020305D01*
X009238Y020302D01*
X009287Y020295D01*
X009336Y020284D01*
X009384Y020269D01*
X009430Y020251D01*
X009475Y020229D01*
X009518Y020203D01*
X009559Y020174D01*
X009598Y020142D01*
X009634Y020107D01*
X009666Y020069D01*
X009696Y020029D01*
X009723Y019986D01*
X009746Y019942D01*
X009765Y019896D01*
X009781Y019848D01*
X009793Y019799D01*
X009801Y019750D01*
X009805Y019700D01*
X009805Y019650D01*
X009801Y019600D01*
X009793Y019551D01*
X009781Y019502D01*
X009765Y019454D01*
X009746Y019408D01*
X009723Y019364D01*
X009696Y019321D01*
X009666Y019281D01*
X009634Y019243D01*
X009598Y019208D01*
X009559Y019176D01*
X009518Y019147D01*
X009475Y019121D01*
X009430Y019099D01*
X009384Y019081D01*
X009336Y019066D01*
X009287Y019055D01*
X009238Y019048D01*
X009188Y019045D01*
X009137Y019046D01*
X009088Y019051D01*
X009038Y019060D01*
X008990Y019073D01*
X008943Y019089D01*
X008897Y019110D01*
X008853Y019134D01*
X008811Y019161D01*
X008771Y019191D01*
X008734Y019225D01*
X008700Y019262D01*
X008668Y019301D01*
X008640Y019342D01*
X008615Y019386D01*
X008594Y019431D01*
X008577Y019478D01*
X008563Y019526D01*
X008553Y019575D01*
X008547Y019625D01*
X008545Y019675D01*
X008545Y012675D02*
X008547Y012725D01*
X008553Y012775D01*
X008563Y012824D01*
X008577Y012872D01*
X008594Y012919D01*
X008615Y012964D01*
X008640Y013008D01*
X008668Y013049D01*
X008700Y013088D01*
X008734Y013125D01*
X008771Y013159D01*
X008811Y013189D01*
X008853Y013216D01*
X008897Y013240D01*
X008943Y013261D01*
X008990Y013277D01*
X009038Y013290D01*
X009088Y013299D01*
X009137Y013304D01*
X009188Y013305D01*
X009238Y013302D01*
X009287Y013295D01*
X009336Y013284D01*
X009384Y013269D01*
X009430Y013251D01*
X009475Y013229D01*
X009518Y013203D01*
X009559Y013174D01*
X009598Y013142D01*
X009634Y013107D01*
X009666Y013069D01*
X009696Y013029D01*
X009723Y012986D01*
X009746Y012942D01*
X009765Y012896D01*
X009781Y012848D01*
X009793Y012799D01*
X009801Y012750D01*
X009805Y012700D01*
X009805Y012650D01*
X009801Y012600D01*
X009793Y012551D01*
X009781Y012502D01*
X009765Y012454D01*
X009746Y012408D01*
X009723Y012364D01*
X009696Y012321D01*
X009666Y012281D01*
X009634Y012243D01*
X009598Y012208D01*
X009559Y012176D01*
X009518Y012147D01*
X009475Y012121D01*
X009430Y012099D01*
X009384Y012081D01*
X009336Y012066D01*
X009287Y012055D01*
X009238Y012048D01*
X009188Y012045D01*
X009137Y012046D01*
X009088Y012051D01*
X009038Y012060D01*
X008990Y012073D01*
X008943Y012089D01*
X008897Y012110D01*
X008853Y012134D01*
X008811Y012161D01*
X008771Y012191D01*
X008734Y012225D01*
X008700Y012262D01*
X008668Y012301D01*
X008640Y012342D01*
X008615Y012386D01*
X008594Y012431D01*
X008577Y012478D01*
X008563Y012526D01*
X008553Y012575D01*
X008547Y012625D01*
X008545Y012675D01*
X008545Y002175D02*
X008547Y002225D01*
X008553Y002275D01*
X008563Y002324D01*
X008577Y002372D01*
X008594Y002419D01*
X008615Y002464D01*
X008640Y002508D01*
X008668Y002549D01*
X008700Y002588D01*
X008734Y002625D01*
X008771Y002659D01*
X008811Y002689D01*
X008853Y002716D01*
X008897Y002740D01*
X008943Y002761D01*
X008990Y002777D01*
X009038Y002790D01*
X009088Y002799D01*
X009137Y002804D01*
X009188Y002805D01*
X009238Y002802D01*
X009287Y002795D01*
X009336Y002784D01*
X009384Y002769D01*
X009430Y002751D01*
X009475Y002729D01*
X009518Y002703D01*
X009559Y002674D01*
X009598Y002642D01*
X009634Y002607D01*
X009666Y002569D01*
X009696Y002529D01*
X009723Y002486D01*
X009746Y002442D01*
X009765Y002396D01*
X009781Y002348D01*
X009793Y002299D01*
X009801Y002250D01*
X009805Y002200D01*
X009805Y002150D01*
X009801Y002100D01*
X009793Y002051D01*
X009781Y002002D01*
X009765Y001954D01*
X009746Y001908D01*
X009723Y001864D01*
X009696Y001821D01*
X009666Y001781D01*
X009634Y001743D01*
X009598Y001708D01*
X009559Y001676D01*
X009518Y001647D01*
X009475Y001621D01*
X009430Y001599D01*
X009384Y001581D01*
X009336Y001566D01*
X009287Y001555D01*
X009238Y001548D01*
X009188Y001545D01*
X009137Y001546D01*
X009088Y001551D01*
X009038Y001560D01*
X008990Y001573D01*
X008943Y001589D01*
X008897Y001610D01*
X008853Y001634D01*
X008811Y001661D01*
X008771Y001691D01*
X008734Y001725D01*
X008700Y001762D01*
X008668Y001801D01*
X008640Y001842D01*
X008615Y001886D01*
X008594Y001931D01*
X008577Y001978D01*
X008563Y002026D01*
X008553Y002075D01*
X008547Y002125D01*
X008545Y002175D01*
D11*
X006175Y003175D03*
X006175Y004175D03*
X006175Y005175D03*
X006175Y006175D03*
X005175Y006175D03*
X005175Y005175D03*
X005175Y004175D03*
X005175Y003175D03*
D12*
X008175Y003675D03*
X008175Y004675D03*
X008175Y005675D03*
X008175Y007175D03*
X008175Y008175D03*
X008175Y009175D03*
X009175Y009175D03*
X009175Y008175D03*
X009175Y007175D03*
X009175Y005675D03*
X009175Y004675D03*
X009175Y003675D03*
D13*
X009175Y014175D03*
X009175Y018175D03*
X007675Y018675D03*
X007675Y019675D03*
X003675Y019675D03*
X003675Y018675D03*
X002175Y018175D03*
X002175Y014175D03*
X002175Y009175D03*
X002675Y008425D03*
X003175Y009175D03*
X002675Y007425D03*
X002675Y003425D03*
D14*
X005675Y015175D03*
X006675Y016175D03*
X005675Y017175D03*
X004675Y016175D03*
D15*
X008175Y016175D03*
X008175Y015175D03*
D16*
X008175Y011992D02*
X008175Y011358D01*
X007175Y011358D02*
X007175Y011992D01*
X006175Y011992D02*
X006175Y011358D01*
X005175Y011358D02*
X005175Y011992D01*
X004175Y011992D02*
X004175Y011358D01*
X003175Y011358D02*
X003175Y011992D01*
D17*
X003175Y011675D02*
X003175Y014175D01*
X009175Y014175D01*
X008856Y013566D02*
X008640Y013476D01*
X008374Y013210D01*
X008230Y012863D01*
X008230Y012624D01*
X008049Y012624D01*
X007817Y012528D01*
X007675Y012385D01*
X007533Y012528D01*
X007301Y012624D01*
X007049Y012624D01*
X006817Y012528D01*
X006639Y012350D01*
X006597Y012247D01*
X006596Y012250D01*
X006550Y012312D01*
X006495Y012367D01*
X006433Y012413D01*
X006364Y012448D01*
X006290Y012472D01*
X006214Y012484D01*
X006198Y012484D01*
X006198Y011698D01*
X006152Y011698D01*
X006152Y012484D01*
X006136Y012484D01*
X006060Y012472D01*
X005986Y012448D01*
X005917Y012413D01*
X005855Y012367D01*
X005800Y012312D01*
X005754Y012250D01*
X005753Y012247D01*
X005711Y012350D01*
X005533Y012528D01*
X005301Y012624D01*
X005049Y012624D01*
X004817Y012528D01*
X004675Y012385D01*
X004533Y012528D01*
X004301Y012624D01*
X004049Y012624D01*
X003817Y012528D01*
X003675Y012385D01*
X003565Y012495D01*
X003565Y013785D01*
X008596Y013785D01*
X008787Y013594D01*
X008856Y013566D01*
X008732Y013649D02*
X003565Y013649D01*
X003565Y013501D02*
X008699Y013501D01*
X008516Y013352D02*
X003565Y013352D01*
X003565Y013204D02*
X008371Y013204D01*
X008310Y013055D02*
X003565Y013055D01*
X003565Y012907D02*
X008248Y012907D01*
X008230Y012758D02*
X003565Y012758D01*
X003565Y012610D02*
X004015Y012610D01*
X003751Y012461D02*
X003599Y012461D01*
X003175Y011675D02*
X003175Y010675D01*
X002175Y009675D01*
X002175Y009175D01*
X001990Y008510D02*
X001990Y008289D01*
X002094Y008037D01*
X002206Y007925D01*
X002094Y007813D01*
X001990Y007561D01*
X001990Y007289D01*
X002094Y007037D01*
X002287Y006844D01*
X002310Y006835D01*
X002310Y006102D01*
X002366Y005968D01*
X002468Y005866D01*
X003968Y004366D01*
X004102Y004310D01*
X004700Y004310D01*
X004700Y004190D01*
X005160Y004190D01*
X005160Y004160D01*
X004700Y004160D01*
X004700Y003978D01*
X004904Y003774D01*
X004560Y003430D01*
X004560Y002920D01*
X004920Y002560D01*
X005430Y002560D01*
X005675Y002805D01*
X005920Y002560D01*
X006430Y002560D01*
X006655Y002785D01*
X007253Y002785D01*
X007396Y002844D01*
X007506Y002954D01*
X007565Y003097D01*
X007565Y003387D01*
X007912Y003040D01*
X008438Y003040D01*
X008675Y003277D01*
X008877Y003075D01*
X008640Y002976D01*
X008374Y002710D01*
X008230Y002363D01*
X008230Y001987D01*
X008374Y001640D01*
X008524Y001490D01*
X002826Y001490D01*
X002976Y001640D01*
X003120Y001987D01*
X003120Y002363D01*
X002976Y002710D01*
X002794Y002892D01*
X002803Y002893D01*
X002884Y002920D01*
X002961Y002959D01*
X003030Y003009D01*
X003091Y003070D01*
X003141Y003139D01*
X003180Y003216D01*
X003207Y003297D01*
X003220Y003382D01*
X003220Y003411D01*
X002689Y003411D01*
X002689Y003439D01*
X002661Y003439D01*
X002661Y003970D01*
X002632Y003970D01*
X002547Y003957D01*
X002466Y003930D01*
X002389Y003891D01*
X002320Y003841D01*
X002259Y003780D01*
X002209Y003711D01*
X002170Y003634D01*
X002143Y003553D01*
X002130Y003468D01*
X002130Y003439D01*
X002661Y003439D01*
X002661Y003411D01*
X002130Y003411D01*
X002130Y003382D01*
X002143Y003297D01*
X002170Y003216D01*
X002209Y003139D01*
X002223Y003120D01*
X001987Y003120D01*
X001640Y002976D01*
X001490Y002826D01*
X001490Y012024D01*
X001640Y011874D01*
X001987Y011730D01*
X002363Y011730D01*
X002543Y011805D01*
X002543Y011232D01*
X002639Y011000D01*
X002785Y010855D01*
X002785Y010837D01*
X001954Y010006D01*
X001844Y009896D01*
X001786Y009755D01*
X001594Y009563D01*
X001490Y009311D01*
X001490Y009039D01*
X001594Y008787D01*
X001787Y008594D01*
X001990Y008510D01*
X001990Y008452D02*
X001490Y008452D01*
X001490Y008600D02*
X001781Y008600D01*
X001633Y008749D02*
X001490Y008749D01*
X001490Y008897D02*
X001549Y008897D01*
X001490Y009046D02*
X001490Y009046D01*
X001490Y009194D02*
X001490Y009194D01*
X001490Y009343D02*
X001503Y009343D01*
X001490Y009491D02*
X001564Y009491D01*
X001490Y009640D02*
X001671Y009640D01*
X001800Y009788D02*
X001490Y009788D01*
X001490Y009937D02*
X001885Y009937D01*
X002033Y010085D02*
X001490Y010085D01*
X001490Y010234D02*
X002182Y010234D01*
X002330Y010382D02*
X001490Y010382D01*
X001490Y010531D02*
X002479Y010531D01*
X002627Y010679D02*
X001490Y010679D01*
X001490Y010828D02*
X002776Y010828D01*
X002664Y010976D02*
X001490Y010976D01*
X001490Y011125D02*
X002588Y011125D01*
X002543Y011273D02*
X001490Y011273D01*
X001490Y011422D02*
X002543Y011422D01*
X002543Y011570D02*
X001490Y011570D01*
X001490Y011719D02*
X002543Y011719D01*
X003285Y010234D02*
X006785Y010234D01*
X006785Y010097D02*
X006844Y009954D01*
X006954Y009844D01*
X007097Y009785D01*
X007887Y009785D01*
X007642Y009540D01*
X007102Y009540D01*
X006968Y009484D01*
X006866Y009382D01*
X006274Y008790D01*
X003561Y008790D01*
X003591Y008820D01*
X003641Y008889D01*
X003680Y008966D01*
X003707Y009047D01*
X003720Y009132D01*
X003720Y009170D01*
X003180Y009170D01*
X003180Y009180D01*
X003720Y009180D01*
X003720Y009218D01*
X003707Y009303D01*
X003680Y009384D01*
X003641Y009461D01*
X003591Y009530D01*
X003530Y009591D01*
X003461Y009641D01*
X003384Y009680D01*
X003303Y009707D01*
X003218Y009720D01*
X003180Y009720D01*
X003180Y009180D01*
X003170Y009180D01*
X003170Y009720D01*
X003132Y009720D01*
X003047Y009707D01*
X002966Y009680D01*
X002889Y009641D01*
X002820Y009591D01*
X002766Y009537D01*
X002756Y009563D01*
X002685Y009634D01*
X003506Y010454D01*
X003565Y010597D01*
X003565Y010855D01*
X003675Y010965D01*
X003817Y010822D01*
X004049Y010726D01*
X004301Y010726D01*
X004533Y010822D01*
X004675Y010965D01*
X004817Y010822D01*
X005049Y010726D01*
X005301Y010726D01*
X005533Y010822D01*
X005711Y011000D01*
X005753Y011103D01*
X005754Y011100D01*
X005800Y011038D01*
X005855Y010983D01*
X005917Y010937D01*
X005986Y010902D01*
X006060Y010878D01*
X006136Y010866D01*
X006152Y010866D01*
X006152Y011652D01*
X006198Y011652D01*
X006198Y010866D01*
X006214Y010866D01*
X006290Y010878D01*
X006364Y010902D01*
X006433Y010937D01*
X006495Y010983D01*
X006550Y011038D01*
X006596Y011100D01*
X006597Y011103D01*
X006639Y011000D01*
X006785Y010855D01*
X006785Y010097D01*
X006790Y010085D02*
X003137Y010085D01*
X002988Y009937D02*
X006862Y009937D01*
X007090Y009788D02*
X002840Y009788D01*
X002887Y009640D02*
X002691Y009640D01*
X003170Y009640D02*
X003180Y009640D01*
X003170Y009491D02*
X003180Y009491D01*
X003170Y009343D02*
X003180Y009343D01*
X003170Y009194D02*
X003180Y009194D01*
X003175Y009175D02*
X005175Y009175D01*
X006175Y010175D01*
X006175Y011675D01*
X006152Y011719D02*
X006198Y011719D01*
X006198Y011867D02*
X006152Y011867D01*
X006152Y012016D02*
X006198Y012016D01*
X006198Y012164D02*
X006152Y012164D01*
X006152Y012313D02*
X006198Y012313D01*
X006198Y012461D02*
X006152Y012461D01*
X006027Y012461D02*
X005599Y012461D01*
X005726Y012313D02*
X005800Y012313D01*
X006323Y012461D02*
X006751Y012461D01*
X006624Y012313D02*
X006550Y012313D01*
X007015Y012610D02*
X005335Y012610D01*
X005015Y012610D02*
X004335Y012610D01*
X004599Y012461D02*
X004751Y012461D01*
X004812Y010828D02*
X004538Y010828D01*
X003812Y010828D02*
X003565Y010828D01*
X003565Y010679D02*
X006785Y010679D01*
X006785Y010531D02*
X003537Y010531D01*
X003434Y010382D02*
X006785Y010382D01*
X006785Y010828D02*
X005538Y010828D01*
X005686Y010976D02*
X005864Y010976D01*
X006152Y010976D02*
X006198Y010976D01*
X006198Y011125D02*
X006152Y011125D01*
X006152Y011273D02*
X006198Y011273D01*
X006198Y011422D02*
X006152Y011422D01*
X006152Y011570D02*
X006198Y011570D01*
X006486Y010976D02*
X006664Y010976D01*
X007175Y011675D02*
X007175Y010175D01*
X008675Y010175D01*
X009175Y009675D01*
X009175Y009175D01*
X009175Y008175D01*
X009175Y007175D01*
X009175Y006425D01*
X007425Y006425D01*
X006675Y005675D01*
X005675Y005675D01*
X005175Y005175D01*
X004700Y004294D02*
X001490Y004294D01*
X001490Y004442D02*
X003892Y004442D01*
X003743Y004591D02*
X001490Y004591D01*
X001490Y004739D02*
X003595Y004739D01*
X003446Y004888D02*
X001490Y004888D01*
X001490Y005036D02*
X003298Y005036D01*
X003149Y005185D02*
X001490Y005185D01*
X001490Y005333D02*
X003001Y005333D01*
X002852Y005482D02*
X001490Y005482D01*
X001490Y005630D02*
X002704Y005630D01*
X002555Y005779D02*
X001490Y005779D01*
X001490Y005927D02*
X002407Y005927D01*
X002321Y006076D02*
X001490Y006076D01*
X001490Y006224D02*
X002310Y006224D01*
X002310Y006373D02*
X001490Y006373D01*
X001490Y006521D02*
X002310Y006521D01*
X002310Y006670D02*
X001490Y006670D01*
X001490Y006818D02*
X002310Y006818D01*
X002165Y006967D02*
X001490Y006967D01*
X001490Y007115D02*
X002062Y007115D01*
X002000Y007264D02*
X001490Y007264D01*
X001490Y007412D02*
X001990Y007412D01*
X001990Y007561D02*
X001490Y007561D01*
X001490Y007709D02*
X002051Y007709D01*
X002139Y007858D02*
X001490Y007858D01*
X001490Y008006D02*
X002125Y008006D01*
X002046Y008155D02*
X001490Y008155D01*
X001490Y008303D02*
X001990Y008303D01*
X003463Y009640D02*
X007741Y009640D01*
X006984Y009491D02*
X003619Y009491D01*
X003694Y009343D02*
X006826Y009343D01*
X006678Y009194D02*
X003720Y009194D01*
X003706Y009046D02*
X006529Y009046D01*
X006381Y008897D02*
X003645Y008897D01*
X005175Y007175D02*
X005175Y006175D01*
X005175Y007175D02*
X008175Y007175D01*
X008175Y004675D02*
X007175Y004675D01*
X007175Y003175D01*
X006175Y003175D01*
X005820Y002660D02*
X005530Y002660D01*
X004820Y002660D02*
X002997Y002660D01*
X003058Y002512D02*
X008292Y002512D01*
X008353Y002660D02*
X006530Y002660D01*
X007309Y002809D02*
X008472Y002809D01*
X008621Y002957D02*
X007507Y002957D01*
X007565Y003106D02*
X007846Y003106D01*
X007698Y003254D02*
X007565Y003254D01*
X008230Y002363D02*
X003120Y002363D01*
X003120Y002215D02*
X008230Y002215D01*
X008230Y002066D02*
X003120Y002066D01*
X003091Y001918D02*
X008259Y001918D01*
X008320Y001769D02*
X003030Y001769D01*
X002957Y001621D02*
X008393Y001621D01*
X008504Y003106D02*
X008846Y003106D01*
X008698Y003254D02*
X008652Y003254D01*
X004830Y003700D02*
X003147Y003700D01*
X003141Y003711D02*
X003091Y003780D01*
X003030Y003841D01*
X002961Y003891D01*
X002884Y003930D01*
X002803Y003957D01*
X002718Y003970D01*
X002689Y003970D01*
X002689Y003439D01*
X003220Y003439D01*
X003220Y003468D01*
X003207Y003553D01*
X003180Y003634D01*
X003141Y003711D01*
X003207Y003551D02*
X004681Y003551D01*
X004560Y003403D02*
X003220Y003403D01*
X003192Y003254D02*
X004560Y003254D01*
X004560Y003106D02*
X003117Y003106D01*
X002957Y002957D02*
X004560Y002957D01*
X004672Y002809D02*
X002878Y002809D01*
X002689Y003551D02*
X002661Y003551D01*
X002661Y003700D02*
X002689Y003700D01*
X002689Y003848D02*
X002661Y003848D01*
X002330Y003848D02*
X001490Y003848D01*
X001490Y003700D02*
X002203Y003700D01*
X002143Y003551D02*
X001490Y003551D01*
X001490Y003403D02*
X002130Y003403D01*
X002158Y003254D02*
X001490Y003254D01*
X001490Y003106D02*
X001952Y003106D01*
X001621Y002957D02*
X001490Y002957D01*
X001490Y003997D02*
X004700Y003997D01*
X004700Y004145D02*
X001490Y004145D01*
X003020Y003848D02*
X004830Y003848D01*
X001656Y011867D02*
X001490Y011867D01*
X001490Y012016D02*
X001498Y012016D01*
X001490Y013326D02*
X001490Y019024D01*
X001640Y018874D01*
X001856Y018784D01*
X001787Y018756D01*
X001594Y018563D01*
X001490Y018311D01*
X001490Y018039D01*
X001594Y017787D01*
X001787Y017594D01*
X002039Y017490D01*
X002308Y017490D01*
X002704Y017094D01*
X002847Y017035D01*
X004003Y017035D01*
X004146Y017094D01*
X004256Y017204D01*
X005087Y018035D01*
X006263Y018035D01*
X007094Y017204D01*
X007204Y017094D01*
X007347Y017035D01*
X008503Y017035D01*
X008646Y017094D01*
X008756Y017204D01*
X009042Y017490D01*
X009311Y017490D01*
X009563Y017594D01*
X009756Y017787D01*
X009860Y018039D01*
X009860Y018311D01*
X009756Y018563D01*
X009563Y018756D01*
X009494Y018784D01*
X009710Y018874D01*
X009860Y019024D01*
X009860Y013326D01*
X009710Y013476D01*
X009494Y013566D01*
X009563Y013594D01*
X009756Y013787D01*
X009860Y014039D01*
X009860Y014311D01*
X009756Y014563D01*
X009563Y014756D01*
X009311Y014860D01*
X009039Y014860D01*
X008787Y014756D01*
X008596Y014565D01*
X003097Y014565D01*
X002754Y014565D01*
X002563Y014756D01*
X002311Y014860D01*
X002039Y014860D01*
X001787Y014756D01*
X001594Y014563D01*
X001490Y014311D01*
X001490Y014039D01*
X001594Y013787D01*
X001787Y013594D01*
X001856Y013566D01*
X001640Y013476D01*
X001490Y013326D01*
X001490Y013352D02*
X001516Y013352D01*
X001490Y013501D02*
X001699Y013501D01*
X001732Y013649D02*
X001490Y013649D01*
X001490Y013798D02*
X001590Y013798D01*
X001528Y013946D02*
X001490Y013946D01*
X001490Y014095D02*
X001490Y014095D01*
X001490Y014243D02*
X001490Y014243D01*
X001490Y014392D02*
X001523Y014392D01*
X001490Y014540D02*
X001585Y014540D01*
X001490Y014689D02*
X001720Y014689D01*
X001490Y014837D02*
X001983Y014837D01*
X002367Y014837D02*
X005272Y014837D01*
X005275Y014833D02*
X005333Y014775D01*
X005400Y014726D01*
X005473Y014688D01*
X005473Y014689D02*
X002630Y014689D01*
X002175Y014175D02*
X003175Y014175D01*
X004079Y015877D02*
X001490Y015877D01*
X001490Y016025D02*
X004017Y016025D01*
X004010Y016043D02*
X004111Y015798D01*
X004298Y015611D01*
X004543Y015510D01*
X004807Y015510D01*
X005052Y015611D01*
X005239Y015798D01*
X005340Y016043D01*
X005340Y016307D01*
X005239Y016552D01*
X005052Y016739D01*
X004807Y016840D01*
X004543Y016840D01*
X004298Y016739D01*
X004111Y016552D01*
X004010Y016307D01*
X004010Y016043D01*
X004010Y016174D02*
X001490Y016174D01*
X001490Y016322D02*
X004016Y016322D01*
X004078Y016471D02*
X001490Y016471D01*
X001490Y016619D02*
X004179Y016619D01*
X004368Y016768D02*
X001490Y016768D01*
X001490Y016916D02*
X005062Y016916D01*
X005111Y016798D02*
X005010Y017043D01*
X005010Y017307D01*
X005111Y017552D01*
X005298Y017739D01*
X005543Y017840D01*
X005807Y017840D01*
X006052Y017739D01*
X006239Y017552D01*
X006340Y017307D01*
X006340Y017043D01*
X006239Y016798D01*
X006052Y016611D01*
X005807Y016510D01*
X005543Y016510D01*
X005298Y016611D01*
X005111Y016798D01*
X005142Y016768D02*
X004982Y016768D01*
X005171Y016619D02*
X005291Y016619D01*
X005272Y016471D02*
X006078Y016471D01*
X006111Y016552D02*
X006010Y016307D01*
X006010Y016043D01*
X006111Y015798D01*
X006298Y015611D01*
X006543Y015510D01*
X006807Y015510D01*
X007052Y015611D01*
X007239Y015798D01*
X007340Y016043D01*
X007340Y016307D01*
X007239Y016552D01*
X007052Y016739D01*
X006807Y016840D01*
X006543Y016840D01*
X006298Y016739D01*
X006111Y016552D01*
X006059Y016619D02*
X006179Y016619D01*
X006208Y016768D02*
X006368Y016768D01*
X006288Y016916D02*
X009860Y016916D01*
X009860Y016768D02*
X008417Y016768D01*
X008302Y016815D02*
X008048Y016815D01*
X007812Y016718D01*
X007632Y016538D01*
X007535Y016302D01*
X007535Y016048D01*
X007632Y015812D01*
X007812Y015632D01*
X007903Y015595D01*
X007849Y015556D01*
X007794Y015501D01*
X007747Y015437D01*
X007712Y015367D01*
X007687Y015292D01*
X007675Y015214D01*
X007675Y015175D01*
X008175Y015175D01*
X005675Y015175D01*
X005680Y015180D02*
X005670Y015180D01*
X005670Y015700D01*
X005634Y015700D01*
X005552Y015687D01*
X005473Y015662D01*
X005400Y015624D01*
X005333Y015575D01*
X005275Y015517D01*
X005226Y015450D01*
X005188Y015377D01*
X005163Y015298D01*
X005150Y015216D01*
X005150Y015180D01*
X005670Y015180D01*
X005670Y015170D01*
X005150Y015170D01*
X005150Y015134D01*
X001490Y015134D01*
X001490Y014986D02*
X005185Y014986D01*
X005188Y014973D02*
X005226Y014900D01*
X005275Y014833D01*
X005188Y014973D02*
X005163Y015052D01*
X005150Y015134D01*
X005160Y015283D02*
X001490Y015283D01*
X001490Y015431D02*
X005216Y015431D01*
X005168Y015728D02*
X006182Y015728D01*
X006079Y015877D02*
X005271Y015877D01*
X005333Y016025D02*
X006017Y016025D01*
X006010Y016174D02*
X005340Y016174D01*
X005334Y016322D02*
X006016Y016322D01*
X005798Y015687D02*
X005716Y015700D01*
X005680Y015700D01*
X005680Y015180D01*
X006200Y015180D01*
X006200Y015216D01*
X006187Y015298D01*
X006162Y015377D01*
X006124Y015450D01*
X006075Y015517D01*
X006017Y015575D01*
X005950Y015624D01*
X005877Y015662D01*
X005798Y015687D01*
X005680Y015580D02*
X005670Y015580D01*
X005670Y015431D02*
X005680Y015431D01*
X005670Y015283D02*
X005680Y015283D01*
X005680Y015180D02*
X005680Y015170D01*
X006200Y015170D01*
X006200Y015134D01*
X007675Y015134D01*
X007675Y015136D02*
X007687Y015058D01*
X007712Y014983D01*
X007747Y014913D01*
X007794Y014849D01*
X007849Y014794D01*
X007913Y014747D01*
X007983Y014712D01*
X008058Y014687D01*
X008136Y014675D01*
X008175Y014675D01*
X008214Y014675D01*
X008292Y014687D01*
X008367Y014712D01*
X008437Y014747D01*
X008501Y014794D01*
X008556Y014849D01*
X008603Y014913D01*
X008638Y014983D01*
X008663Y015058D01*
X008675Y015136D01*
X008675Y015175D01*
X008675Y015214D01*
X008663Y015292D01*
X008638Y015367D01*
X008603Y015437D01*
X008556Y015501D01*
X008501Y015556D01*
X008447Y015595D01*
X008538Y015632D01*
X008718Y015812D01*
X008815Y016048D01*
X008815Y016302D01*
X008718Y016538D01*
X008538Y016718D01*
X008302Y016815D01*
X008574Y017065D02*
X009860Y017065D01*
X009860Y017213D02*
X008765Y017213D01*
X008756Y017204D02*
X008756Y017204D01*
X008913Y017362D02*
X009860Y017362D01*
X009860Y017510D02*
X009360Y017510D01*
X009627Y017659D02*
X009860Y017659D01*
X009860Y017807D02*
X009764Y017807D01*
X009826Y017956D02*
X009860Y017956D01*
X009860Y018104D02*
X009860Y018104D01*
X009860Y018253D02*
X009860Y018253D01*
X009860Y018401D02*
X009823Y018401D01*
X009860Y018550D02*
X009761Y018550D01*
X009860Y018698D02*
X009621Y018698D01*
X009644Y018847D02*
X009860Y018847D01*
X009860Y018995D02*
X009831Y018995D01*
X009175Y018175D02*
X008425Y017425D01*
X007425Y017425D01*
X006425Y018425D01*
X004925Y018425D01*
X003925Y017425D01*
X002925Y017425D01*
X002175Y018175D01*
X001990Y017510D02*
X001490Y017510D01*
X001490Y017362D02*
X002437Y017362D01*
X002585Y017213D02*
X001490Y017213D01*
X001490Y017065D02*
X002776Y017065D01*
X001723Y017659D02*
X001490Y017659D01*
X001490Y017807D02*
X001586Y017807D01*
X001524Y017956D02*
X001490Y017956D01*
X001490Y018104D02*
X001490Y018104D01*
X001490Y018253D02*
X001490Y018253D01*
X001490Y018401D02*
X001527Y018401D01*
X001490Y018550D02*
X001589Y018550D01*
X001490Y018698D02*
X001729Y018698D01*
X001706Y018847D02*
X001490Y018847D01*
X001490Y018995D02*
X001519Y018995D01*
X001490Y015728D02*
X004182Y015728D01*
X004375Y015580D02*
X001490Y015580D01*
X004074Y017065D02*
X005010Y017065D01*
X005010Y017213D02*
X004265Y017213D01*
X004256Y017204D02*
X004256Y017204D01*
X004413Y017362D02*
X005032Y017362D01*
X005094Y017510D02*
X004562Y017510D01*
X004710Y017659D02*
X005218Y017659D01*
X005007Y017956D02*
X006343Y017956D01*
X006491Y017807D02*
X005887Y017807D01*
X006132Y017659D02*
X006640Y017659D01*
X006788Y017510D02*
X006256Y017510D01*
X006318Y017362D02*
X006937Y017362D01*
X007085Y017213D02*
X006340Y017213D01*
X006340Y017065D02*
X007276Y017065D01*
X007094Y017204D02*
X007094Y017204D01*
X006982Y016768D02*
X007933Y016768D01*
X007714Y016619D02*
X007171Y016619D01*
X007272Y016471D02*
X007605Y016471D01*
X007543Y016322D02*
X007334Y016322D01*
X007340Y016174D02*
X007535Y016174D01*
X007544Y016025D02*
X007333Y016025D01*
X007271Y015877D02*
X007606Y015877D01*
X007717Y015728D02*
X007168Y015728D01*
X006975Y015580D02*
X007881Y015580D01*
X007744Y015431D02*
X006134Y015431D01*
X006190Y015283D02*
X007686Y015283D01*
X007675Y015175D02*
X007675Y015136D01*
X007675Y015175D02*
X008175Y015175D01*
X008675Y015175D01*
X008175Y015175D01*
X008175Y015175D01*
X008175Y015175D01*
X008175Y014675D01*
X008175Y015175D01*
X008175Y015175D01*
X008175Y015134D02*
X008175Y015134D01*
X008175Y014986D02*
X008175Y014986D01*
X008175Y014837D02*
X008175Y014837D01*
X008175Y014689D02*
X008175Y014689D01*
X008296Y014689D02*
X008720Y014689D01*
X008544Y014837D02*
X008983Y014837D01*
X008639Y014986D02*
X009860Y014986D01*
X009860Y015134D02*
X008675Y015134D01*
X008664Y015283D02*
X009860Y015283D01*
X009860Y015431D02*
X008606Y015431D01*
X008469Y015580D02*
X009860Y015580D01*
X009860Y015728D02*
X008633Y015728D01*
X008744Y015877D02*
X009860Y015877D01*
X009860Y016025D02*
X008806Y016025D01*
X008815Y016174D02*
X009860Y016174D01*
X009860Y016322D02*
X008807Y016322D01*
X008745Y016471D02*
X009860Y016471D01*
X009860Y016619D02*
X008636Y016619D01*
X007711Y014986D02*
X006165Y014986D01*
X006162Y014973D02*
X006187Y015052D01*
X006200Y015134D01*
X006162Y014973D02*
X006124Y014900D01*
X006075Y014833D01*
X006017Y014775D01*
X005950Y014726D01*
X005877Y014688D01*
X005877Y014689D02*
X008054Y014689D01*
X007806Y014837D02*
X006078Y014837D01*
X005877Y014688D02*
X005798Y014663D01*
X005716Y014650D01*
X005680Y014650D01*
X005680Y015170D01*
X005670Y015170D01*
X005670Y014650D01*
X005634Y014650D01*
X005552Y014663D01*
X005473Y014688D01*
X005670Y014689D02*
X005680Y014689D01*
X005670Y014837D02*
X005680Y014837D01*
X005670Y014986D02*
X005680Y014986D01*
X005670Y015134D02*
X005680Y015134D01*
X006011Y015580D02*
X006375Y015580D01*
X005339Y015580D02*
X004975Y015580D01*
X004859Y017807D02*
X005463Y017807D01*
X007335Y012610D02*
X008015Y012610D01*
X007751Y012461D02*
X007599Y012461D01*
X009367Y014837D02*
X009860Y014837D01*
X009860Y014689D02*
X009630Y014689D01*
X009765Y014540D02*
X009860Y014540D01*
X009860Y014392D02*
X009827Y014392D01*
X009860Y014243D02*
X009860Y014243D01*
X009860Y014095D02*
X009860Y014095D01*
X009860Y013946D02*
X009822Y013946D01*
X009860Y013798D02*
X009760Y013798D01*
X009860Y013649D02*
X009618Y013649D01*
X009651Y013501D02*
X009860Y013501D01*
X009860Y013352D02*
X009834Y013352D01*
D18*
X008175Y009175D02*
X007175Y009175D01*
X006425Y008425D01*
X002675Y008425D01*
X002675Y007425D01*
X002675Y006175D01*
X004175Y004675D01*
X005675Y004675D01*
X006175Y004175D01*
M02*
