G75*
G70*
%OFA0B0*%
%FSLAX24Y24*%
%IPPOS*%
%LPD*%
%AMOC8*
5,1,8,0,0,1.08239X$1,22.5*
%
%ADD10C,0.0000*%
%ADD11C,0.0030*%
%ADD12C,0.0060*%
%ADD13C,0.0040*%
%ADD14C,0.0020*%
D10*
X001675Y001175D02*
X001175Y001675D01*
X001175Y020175D01*
X001675Y020675D01*
X009675Y020675D01*
X010175Y020175D01*
X010175Y001675D01*
X009675Y001175D01*
X001675Y001175D01*
X001545Y002175D02*
X001547Y002225D01*
X001553Y002275D01*
X001563Y002324D01*
X001577Y002372D01*
X001594Y002419D01*
X001615Y002464D01*
X001640Y002508D01*
X001668Y002549D01*
X001700Y002588D01*
X001734Y002625D01*
X001771Y002659D01*
X001811Y002689D01*
X001853Y002716D01*
X001897Y002740D01*
X001943Y002761D01*
X001990Y002777D01*
X002038Y002790D01*
X002088Y002799D01*
X002137Y002804D01*
X002188Y002805D01*
X002238Y002802D01*
X002287Y002795D01*
X002336Y002784D01*
X002384Y002769D01*
X002430Y002751D01*
X002475Y002729D01*
X002518Y002703D01*
X002559Y002674D01*
X002598Y002642D01*
X002634Y002607D01*
X002666Y002569D01*
X002696Y002529D01*
X002723Y002486D01*
X002746Y002442D01*
X002765Y002396D01*
X002781Y002348D01*
X002793Y002299D01*
X002801Y002250D01*
X002805Y002200D01*
X002805Y002150D01*
X002801Y002100D01*
X002793Y002051D01*
X002781Y002002D01*
X002765Y001954D01*
X002746Y001908D01*
X002723Y001864D01*
X002696Y001821D01*
X002666Y001781D01*
X002634Y001743D01*
X002598Y001708D01*
X002559Y001676D01*
X002518Y001647D01*
X002475Y001621D01*
X002430Y001599D01*
X002384Y001581D01*
X002336Y001566D01*
X002287Y001555D01*
X002238Y001548D01*
X002188Y001545D01*
X002137Y001546D01*
X002088Y001551D01*
X002038Y001560D01*
X001990Y001573D01*
X001943Y001589D01*
X001897Y001610D01*
X001853Y001634D01*
X001811Y001661D01*
X001771Y001691D01*
X001734Y001725D01*
X001700Y001762D01*
X001668Y001801D01*
X001640Y001842D01*
X001615Y001886D01*
X001594Y001931D01*
X001577Y001978D01*
X001563Y002026D01*
X001553Y002075D01*
X001547Y002125D01*
X001545Y002175D01*
X001545Y012675D02*
X001547Y012725D01*
X001553Y012775D01*
X001563Y012824D01*
X001577Y012872D01*
X001594Y012919D01*
X001615Y012964D01*
X001640Y013008D01*
X001668Y013049D01*
X001700Y013088D01*
X001734Y013125D01*
X001771Y013159D01*
X001811Y013189D01*
X001853Y013216D01*
X001897Y013240D01*
X001943Y013261D01*
X001990Y013277D01*
X002038Y013290D01*
X002088Y013299D01*
X002137Y013304D01*
X002188Y013305D01*
X002238Y013302D01*
X002287Y013295D01*
X002336Y013284D01*
X002384Y013269D01*
X002430Y013251D01*
X002475Y013229D01*
X002518Y013203D01*
X002559Y013174D01*
X002598Y013142D01*
X002634Y013107D01*
X002666Y013069D01*
X002696Y013029D01*
X002723Y012986D01*
X002746Y012942D01*
X002765Y012896D01*
X002781Y012848D01*
X002793Y012799D01*
X002801Y012750D01*
X002805Y012700D01*
X002805Y012650D01*
X002801Y012600D01*
X002793Y012551D01*
X002781Y012502D01*
X002765Y012454D01*
X002746Y012408D01*
X002723Y012364D01*
X002696Y012321D01*
X002666Y012281D01*
X002634Y012243D01*
X002598Y012208D01*
X002559Y012176D01*
X002518Y012147D01*
X002475Y012121D01*
X002430Y012099D01*
X002384Y012081D01*
X002336Y012066D01*
X002287Y012055D01*
X002238Y012048D01*
X002188Y012045D01*
X002137Y012046D01*
X002088Y012051D01*
X002038Y012060D01*
X001990Y012073D01*
X001943Y012089D01*
X001897Y012110D01*
X001853Y012134D01*
X001811Y012161D01*
X001771Y012191D01*
X001734Y012225D01*
X001700Y012262D01*
X001668Y012301D01*
X001640Y012342D01*
X001615Y012386D01*
X001594Y012431D01*
X001577Y012478D01*
X001563Y012526D01*
X001553Y012575D01*
X001547Y012625D01*
X001545Y012675D01*
X001545Y019675D02*
X001547Y019725D01*
X001553Y019775D01*
X001563Y019824D01*
X001577Y019872D01*
X001594Y019919D01*
X001615Y019964D01*
X001640Y020008D01*
X001668Y020049D01*
X001700Y020088D01*
X001734Y020125D01*
X001771Y020159D01*
X001811Y020189D01*
X001853Y020216D01*
X001897Y020240D01*
X001943Y020261D01*
X001990Y020277D01*
X002038Y020290D01*
X002088Y020299D01*
X002137Y020304D01*
X002188Y020305D01*
X002238Y020302D01*
X002287Y020295D01*
X002336Y020284D01*
X002384Y020269D01*
X002430Y020251D01*
X002475Y020229D01*
X002518Y020203D01*
X002559Y020174D01*
X002598Y020142D01*
X002634Y020107D01*
X002666Y020069D01*
X002696Y020029D01*
X002723Y019986D01*
X002746Y019942D01*
X002765Y019896D01*
X002781Y019848D01*
X002793Y019799D01*
X002801Y019750D01*
X002805Y019700D01*
X002805Y019650D01*
X002801Y019600D01*
X002793Y019551D01*
X002781Y019502D01*
X002765Y019454D01*
X002746Y019408D01*
X002723Y019364D01*
X002696Y019321D01*
X002666Y019281D01*
X002634Y019243D01*
X002598Y019208D01*
X002559Y019176D01*
X002518Y019147D01*
X002475Y019121D01*
X002430Y019099D01*
X002384Y019081D01*
X002336Y019066D01*
X002287Y019055D01*
X002238Y019048D01*
X002188Y019045D01*
X002137Y019046D01*
X002088Y019051D01*
X002038Y019060D01*
X001990Y019073D01*
X001943Y019089D01*
X001897Y019110D01*
X001853Y019134D01*
X001811Y019161D01*
X001771Y019191D01*
X001734Y019225D01*
X001700Y019262D01*
X001668Y019301D01*
X001640Y019342D01*
X001615Y019386D01*
X001594Y019431D01*
X001577Y019478D01*
X001563Y019526D01*
X001553Y019575D01*
X001547Y019625D01*
X001545Y019675D01*
X008545Y019675D02*
X008547Y019725D01*
X008553Y019775D01*
X008563Y019824D01*
X008577Y019872D01*
X008594Y019919D01*
X008615Y019964D01*
X008640Y020008D01*
X008668Y020049D01*
X008700Y020088D01*
X008734Y020125D01*
X008771Y020159D01*
X008811Y020189D01*
X008853Y020216D01*
X008897Y020240D01*
X008943Y020261D01*
X008990Y020277D01*
X009038Y020290D01*
X009088Y020299D01*
X009137Y020304D01*
X009188Y020305D01*
X009238Y020302D01*
X009287Y020295D01*
X009336Y020284D01*
X009384Y020269D01*
X009430Y020251D01*
X009475Y020229D01*
X009518Y020203D01*
X009559Y020174D01*
X009598Y020142D01*
X009634Y020107D01*
X009666Y020069D01*
X009696Y020029D01*
X009723Y019986D01*
X009746Y019942D01*
X009765Y019896D01*
X009781Y019848D01*
X009793Y019799D01*
X009801Y019750D01*
X009805Y019700D01*
X009805Y019650D01*
X009801Y019600D01*
X009793Y019551D01*
X009781Y019502D01*
X009765Y019454D01*
X009746Y019408D01*
X009723Y019364D01*
X009696Y019321D01*
X009666Y019281D01*
X009634Y019243D01*
X009598Y019208D01*
X009559Y019176D01*
X009518Y019147D01*
X009475Y019121D01*
X009430Y019099D01*
X009384Y019081D01*
X009336Y019066D01*
X009287Y019055D01*
X009238Y019048D01*
X009188Y019045D01*
X009137Y019046D01*
X009088Y019051D01*
X009038Y019060D01*
X008990Y019073D01*
X008943Y019089D01*
X008897Y019110D01*
X008853Y019134D01*
X008811Y019161D01*
X008771Y019191D01*
X008734Y019225D01*
X008700Y019262D01*
X008668Y019301D01*
X008640Y019342D01*
X008615Y019386D01*
X008594Y019431D01*
X008577Y019478D01*
X008563Y019526D01*
X008553Y019575D01*
X008547Y019625D01*
X008545Y019675D01*
X008545Y012675D02*
X008547Y012725D01*
X008553Y012775D01*
X008563Y012824D01*
X008577Y012872D01*
X008594Y012919D01*
X008615Y012964D01*
X008640Y013008D01*
X008668Y013049D01*
X008700Y013088D01*
X008734Y013125D01*
X008771Y013159D01*
X008811Y013189D01*
X008853Y013216D01*
X008897Y013240D01*
X008943Y013261D01*
X008990Y013277D01*
X009038Y013290D01*
X009088Y013299D01*
X009137Y013304D01*
X009188Y013305D01*
X009238Y013302D01*
X009287Y013295D01*
X009336Y013284D01*
X009384Y013269D01*
X009430Y013251D01*
X009475Y013229D01*
X009518Y013203D01*
X009559Y013174D01*
X009598Y013142D01*
X009634Y013107D01*
X009666Y013069D01*
X009696Y013029D01*
X009723Y012986D01*
X009746Y012942D01*
X009765Y012896D01*
X009781Y012848D01*
X009793Y012799D01*
X009801Y012750D01*
X009805Y012700D01*
X009805Y012650D01*
X009801Y012600D01*
X009793Y012551D01*
X009781Y012502D01*
X009765Y012454D01*
X009746Y012408D01*
X009723Y012364D01*
X009696Y012321D01*
X009666Y012281D01*
X009634Y012243D01*
X009598Y012208D01*
X009559Y012176D01*
X009518Y012147D01*
X009475Y012121D01*
X009430Y012099D01*
X009384Y012081D01*
X009336Y012066D01*
X009287Y012055D01*
X009238Y012048D01*
X009188Y012045D01*
X009137Y012046D01*
X009088Y012051D01*
X009038Y012060D01*
X008990Y012073D01*
X008943Y012089D01*
X008897Y012110D01*
X008853Y012134D01*
X008811Y012161D01*
X008771Y012191D01*
X008734Y012225D01*
X008700Y012262D01*
X008668Y012301D01*
X008640Y012342D01*
X008615Y012386D01*
X008594Y012431D01*
X008577Y012478D01*
X008563Y012526D01*
X008553Y012575D01*
X008547Y012625D01*
X008545Y012675D01*
X008545Y002175D02*
X008547Y002225D01*
X008553Y002275D01*
X008563Y002324D01*
X008577Y002372D01*
X008594Y002419D01*
X008615Y002464D01*
X008640Y002508D01*
X008668Y002549D01*
X008700Y002588D01*
X008734Y002625D01*
X008771Y002659D01*
X008811Y002689D01*
X008853Y002716D01*
X008897Y002740D01*
X008943Y002761D01*
X008990Y002777D01*
X009038Y002790D01*
X009088Y002799D01*
X009137Y002804D01*
X009188Y002805D01*
X009238Y002802D01*
X009287Y002795D01*
X009336Y002784D01*
X009384Y002769D01*
X009430Y002751D01*
X009475Y002729D01*
X009518Y002703D01*
X009559Y002674D01*
X009598Y002642D01*
X009634Y002607D01*
X009666Y002569D01*
X009696Y002529D01*
X009723Y002486D01*
X009746Y002442D01*
X009765Y002396D01*
X009781Y002348D01*
X009793Y002299D01*
X009801Y002250D01*
X009805Y002200D01*
X009805Y002150D01*
X009801Y002100D01*
X009793Y002051D01*
X009781Y002002D01*
X009765Y001954D01*
X009746Y001908D01*
X009723Y001864D01*
X009696Y001821D01*
X009666Y001781D01*
X009634Y001743D01*
X009598Y001708D01*
X009559Y001676D01*
X009518Y001647D01*
X009475Y001621D01*
X009430Y001599D01*
X009384Y001581D01*
X009336Y001566D01*
X009287Y001555D01*
X009238Y001548D01*
X009188Y001545D01*
X009137Y001546D01*
X009088Y001551D01*
X009038Y001560D01*
X008990Y001573D01*
X008943Y001589D01*
X008897Y001610D01*
X008853Y001634D01*
X008811Y001661D01*
X008771Y001691D01*
X008734Y001725D01*
X008700Y001762D01*
X008668Y001801D01*
X008640Y001842D01*
X008615Y001886D01*
X008594Y001931D01*
X008577Y001978D01*
X008563Y002026D01*
X008553Y002075D01*
X008547Y002125D01*
X008545Y002175D01*
D11*
X007612Y009190D02*
X007515Y009190D01*
X007467Y009238D01*
X007365Y009238D02*
X007365Y009432D01*
X007317Y009480D01*
X007220Y009480D01*
X007172Y009432D01*
X007071Y009335D02*
X006877Y009335D01*
X006776Y009335D02*
X006631Y009335D01*
X006583Y009287D01*
X006583Y009238D01*
X006631Y009190D01*
X006776Y009190D01*
X006776Y009480D01*
X006631Y009480D01*
X006583Y009432D01*
X006583Y009383D01*
X006631Y009335D01*
X006481Y009432D02*
X006385Y009335D01*
X006385Y009190D01*
X006385Y009335D02*
X006288Y009432D01*
X006288Y009480D01*
X006187Y009335D02*
X005993Y009335D01*
X005892Y009383D02*
X005892Y009432D01*
X005844Y009480D01*
X005747Y009480D01*
X005699Y009432D01*
X005747Y009335D02*
X005699Y009287D01*
X005699Y009238D01*
X005747Y009190D01*
X005844Y009190D01*
X005892Y009238D01*
X005844Y009335D02*
X005747Y009335D01*
X005844Y009335D02*
X005892Y009383D01*
X005597Y009383D02*
X005501Y009480D01*
X005404Y009383D01*
X005404Y009190D01*
X005404Y009335D02*
X005597Y009335D01*
X005597Y009383D02*
X005597Y009190D01*
X005549Y009670D02*
X005597Y009718D01*
X005597Y009815D01*
X005549Y009863D01*
X005452Y009863D01*
X005404Y009815D01*
X005404Y009767D01*
X005597Y009767D01*
X005549Y009670D02*
X005452Y009670D01*
X005699Y009863D02*
X005795Y009670D01*
X005892Y009863D01*
X005993Y009815D02*
X005993Y009767D01*
X006187Y009767D01*
X006187Y009815D02*
X006138Y009863D01*
X006042Y009863D01*
X005993Y009815D01*
X006042Y009670D02*
X006138Y009670D01*
X006187Y009718D01*
X006187Y009815D01*
X006286Y009863D02*
X006383Y009863D01*
X006335Y009912D02*
X006335Y009718D01*
X006286Y009670D01*
X006484Y009718D02*
X006533Y009670D01*
X006629Y009670D01*
X006678Y009718D01*
X006629Y009815D02*
X006533Y009815D01*
X006484Y009767D01*
X006484Y009718D01*
X006629Y009815D02*
X006678Y009863D01*
X006678Y009912D01*
X006629Y009960D01*
X006533Y009960D01*
X006484Y009912D01*
X006481Y009480D02*
X006481Y009432D01*
X007072Y009767D02*
X007072Y009863D01*
X007169Y009960D01*
X007270Y009912D02*
X007318Y009960D01*
X007415Y009960D01*
X007464Y009912D01*
X007464Y009718D01*
X007415Y009670D01*
X007318Y009670D01*
X007270Y009718D01*
X007169Y009670D02*
X007072Y009767D01*
X007172Y009238D02*
X007220Y009190D01*
X007317Y009190D01*
X007365Y009238D01*
X007467Y009432D02*
X007515Y009480D01*
X007612Y009480D01*
X007660Y009432D01*
X007660Y009238D01*
X007612Y009190D01*
X007563Y009670D02*
X007660Y009767D01*
X007660Y009863D01*
X007563Y009960D01*
X005008Y009960D02*
X005008Y009670D01*
X004911Y009863D02*
X004815Y009960D01*
X004815Y009670D01*
X004713Y009718D02*
X004665Y009767D01*
X004520Y009767D01*
X004520Y009815D02*
X004520Y009670D01*
X004665Y009670D01*
X004713Y009718D01*
X004665Y009863D02*
X004568Y009863D01*
X004520Y009815D01*
X004419Y009767D02*
X004322Y009863D01*
X004274Y009863D01*
X004173Y009863D02*
X004028Y009863D01*
X003980Y009815D01*
X003980Y009718D01*
X004028Y009670D01*
X004173Y009670D01*
X004173Y009573D02*
X004173Y009863D01*
X004419Y009863D02*
X004419Y009670D01*
X004421Y009480D02*
X004373Y009432D01*
X004566Y009238D01*
X004518Y009190D01*
X004421Y009190D01*
X004373Y009238D01*
X004373Y009432D01*
X004421Y009480D02*
X004518Y009480D01*
X004566Y009432D01*
X004566Y009238D01*
X004665Y009238D02*
X004665Y009190D01*
X004713Y009190D01*
X004713Y009238D01*
X004665Y009238D01*
X004815Y009335D02*
X005008Y009335D01*
X004863Y009480D01*
X004863Y009190D01*
X004911Y009863D02*
X005008Y009960D01*
X003879Y009960D02*
X003830Y009960D01*
X003830Y009670D01*
X003782Y009670D02*
X003879Y009670D01*
X003682Y009718D02*
X003682Y009815D01*
X003634Y009863D01*
X003537Y009863D01*
X003489Y009815D01*
X003489Y009767D01*
X003682Y009767D01*
X003682Y009718D02*
X003634Y009670D01*
X003537Y009670D01*
X003093Y009670D02*
X002899Y009863D01*
X002899Y009912D01*
X002948Y009960D01*
X003045Y009960D01*
X003093Y009912D01*
X003093Y009670D02*
X002899Y009670D01*
X002798Y009718D02*
X002798Y009912D01*
X002750Y009960D01*
X002653Y009960D01*
X002605Y009912D01*
X002798Y009718D01*
X002750Y009670D01*
X002653Y009670D01*
X002605Y009718D01*
X002605Y009912D01*
X002504Y009863D02*
X002407Y009960D01*
X002407Y009670D01*
X002504Y009670D02*
X002310Y009670D01*
X002209Y009815D02*
X002015Y009815D01*
X002064Y009670D02*
X002064Y009960D01*
X002209Y009815D01*
D12*
X002186Y010205D02*
X002039Y010205D01*
X001965Y010278D01*
X001965Y010572D01*
X002259Y010278D01*
X002186Y010205D01*
X002259Y010278D02*
X002259Y010572D01*
X002186Y010645D01*
X002039Y010645D01*
X001965Y010572D01*
X002416Y010278D02*
X002416Y010205D01*
X002489Y010205D01*
X002489Y010278D01*
X002416Y010278D01*
X002656Y010205D02*
X002950Y010205D01*
X002803Y010205D02*
X002803Y010645D01*
X002950Y010499D01*
X003116Y010499D02*
X003263Y010205D01*
X003410Y010499D01*
X004037Y010572D02*
X004037Y010425D01*
X004110Y010352D01*
X004331Y010352D01*
X004331Y010205D02*
X004331Y010645D01*
X004110Y010645D01*
X004037Y010572D01*
X004184Y010352D02*
X004037Y010205D01*
X004497Y010278D02*
X004497Y010572D01*
X004571Y010645D01*
X004718Y010645D01*
X004791Y010572D01*
X004791Y010278D01*
X004718Y010205D01*
X004571Y010205D01*
X004497Y010278D01*
X004958Y010278D02*
X005031Y010205D01*
X005178Y010205D01*
X005251Y010278D01*
X005178Y010425D02*
X005251Y010499D01*
X005251Y010572D01*
X005178Y010645D01*
X005031Y010645D01*
X004958Y010572D01*
X005031Y010425D02*
X004958Y010352D01*
X004958Y010278D01*
X005031Y010425D02*
X005178Y010425D01*
X005418Y010205D02*
X005418Y010645D01*
X005712Y010645D02*
X005418Y010205D01*
X005712Y010205D02*
X005712Y010645D01*
X005879Y010645D02*
X006172Y010645D01*
X006172Y010205D01*
X005879Y010205D01*
X006025Y010425D02*
X006172Y010425D01*
X006339Y010352D02*
X006339Y010278D01*
X006412Y010205D01*
X006559Y010205D01*
X006633Y010278D01*
X006559Y010425D02*
X006633Y010499D01*
X006633Y010572D01*
X006559Y010645D01*
X006412Y010645D01*
X006339Y010572D01*
X006412Y010425D02*
X006339Y010352D01*
X006412Y010425D02*
X006559Y010425D01*
X007260Y010278D02*
X007260Y010572D01*
X007333Y010645D01*
X007553Y010645D01*
X007553Y010205D01*
X007333Y010205D01*
X007260Y010278D01*
X007720Y010278D02*
X007794Y010205D01*
X007940Y010205D01*
X008014Y010278D01*
X008014Y010645D01*
X008181Y010572D02*
X008181Y010278D01*
X008254Y010205D01*
X008401Y010205D01*
X008474Y010278D01*
X008474Y010572D01*
X008401Y010645D01*
X008254Y010645D01*
X008181Y010572D01*
X007720Y010645D02*
X007720Y010278D01*
X008641Y010205D02*
X008935Y010205D01*
X008935Y010645D01*
X009101Y010572D02*
X009175Y010645D01*
X009322Y010645D01*
X009395Y010572D01*
X009395Y010278D01*
X009322Y010205D01*
X009175Y010205D01*
X009101Y010278D01*
X003875Y016175D02*
X003877Y016263D01*
X003884Y016351D01*
X003894Y016439D01*
X003910Y016526D01*
X003929Y016612D01*
X003953Y016698D01*
X003980Y016781D01*
X004012Y016864D01*
X004048Y016945D01*
X004088Y017024D01*
X004131Y017100D01*
X004178Y017175D01*
X004229Y017247D01*
X004284Y017317D01*
X004341Y017384D01*
X004402Y017448D01*
X004466Y017509D01*
X004533Y017566D01*
X004603Y017621D01*
X004675Y017672D01*
X004750Y017719D01*
X004826Y017762D01*
X004905Y017802D01*
X004986Y017838D01*
X005069Y017870D01*
X005152Y017897D01*
X005238Y017921D01*
X005324Y017940D01*
X005411Y017956D01*
X005499Y017966D01*
X005587Y017973D01*
X005675Y017975D01*
X005763Y017973D01*
X005851Y017966D01*
X005939Y017956D01*
X006026Y017940D01*
X006112Y017921D01*
X006198Y017897D01*
X006281Y017870D01*
X006364Y017838D01*
X006445Y017802D01*
X006524Y017762D01*
X006600Y017719D01*
X006675Y017672D01*
X006747Y017621D01*
X006817Y017566D01*
X006884Y017509D01*
X006948Y017448D01*
X007009Y017384D01*
X007066Y017317D01*
X007121Y017247D01*
X007172Y017175D01*
X007219Y017100D01*
X007262Y017024D01*
X007302Y016945D01*
X007338Y016864D01*
X007370Y016781D01*
X007397Y016698D01*
X007421Y016612D01*
X007440Y016526D01*
X007456Y016439D01*
X007466Y016351D01*
X007473Y016263D01*
X007475Y016175D01*
X007473Y016087D01*
X007466Y015999D01*
X007456Y015911D01*
X007440Y015824D01*
X007421Y015738D01*
X007397Y015652D01*
X007370Y015569D01*
X007338Y015486D01*
X007302Y015405D01*
X007262Y015326D01*
X007219Y015250D01*
X007172Y015175D01*
X007121Y015103D01*
X007066Y015033D01*
X007009Y014966D01*
X006948Y014902D01*
X006884Y014841D01*
X006817Y014784D01*
X006747Y014729D01*
X006675Y014678D01*
X006600Y014631D01*
X006524Y014588D01*
X006445Y014548D01*
X006364Y014512D01*
X006281Y014480D01*
X006198Y014453D01*
X006112Y014429D01*
X006026Y014410D01*
X005939Y014394D01*
X005851Y014384D01*
X005763Y014377D01*
X005675Y014375D01*
X005587Y014377D01*
X005499Y014384D01*
X005411Y014394D01*
X005324Y014410D01*
X005238Y014429D01*
X005152Y014453D01*
X005069Y014480D01*
X004986Y014512D01*
X004905Y014548D01*
X004826Y014588D01*
X004750Y014631D01*
X004675Y014678D01*
X004603Y014729D01*
X004533Y014784D01*
X004466Y014841D01*
X004402Y014902D01*
X004341Y014966D01*
X004284Y015033D01*
X004229Y015103D01*
X004178Y015175D01*
X004131Y015250D01*
X004088Y015326D01*
X004048Y015405D01*
X004012Y015486D01*
X003980Y015569D01*
X003953Y015652D01*
X003929Y015738D01*
X003910Y015824D01*
X003894Y015911D01*
X003884Y015999D01*
X003877Y016087D01*
X003875Y016175D01*
X004285Y015005D02*
X004075Y014795D01*
X004285Y014585D01*
X004495Y014795D01*
D13*
X004546Y014995D02*
X004546Y015355D01*
X004418Y015355D02*
X004418Y014995D01*
X004238Y014995D01*
X004178Y015055D01*
X004178Y015295D01*
X004238Y015355D01*
X004418Y015355D01*
X004787Y015355D02*
X004546Y014995D01*
X004787Y014995D02*
X004787Y015355D01*
X004915Y015295D02*
X004975Y015355D01*
X005095Y015355D01*
X005155Y015295D01*
X005155Y015055D01*
X005095Y014995D01*
X004975Y014995D01*
X004915Y015055D01*
X004915Y015175D01*
X005035Y015175D01*
X005073Y013805D02*
X005193Y013745D01*
X005313Y013625D01*
X005133Y013625D01*
X005073Y013565D01*
X005073Y013505D01*
X005133Y013445D01*
X005253Y013445D01*
X005313Y013505D01*
X005313Y013625D01*
X005442Y013505D02*
X005502Y013445D01*
X005622Y013445D01*
X005682Y013505D01*
X005442Y013745D01*
X005442Y013505D01*
X005442Y013745D02*
X005502Y013805D01*
X005622Y013805D01*
X005682Y013745D01*
X005682Y013505D01*
X005810Y013505D02*
X005810Y013745D01*
X005870Y013805D01*
X005990Y013805D01*
X006050Y013745D01*
X006050Y013685D01*
X005990Y013625D01*
X005810Y013625D01*
X005810Y013505D02*
X005870Y013445D01*
X005990Y013445D01*
X006050Y013505D01*
X006178Y013445D02*
X006418Y013805D01*
X006421Y013945D02*
X006421Y014305D01*
X006541Y014185D01*
X006669Y014245D02*
X006729Y014305D01*
X006849Y014305D01*
X006909Y014245D01*
X006909Y014005D01*
X006849Y013945D01*
X006729Y013945D01*
X006669Y014005D01*
X006541Y013945D02*
X006301Y013945D01*
X006178Y013805D02*
X006418Y013445D01*
X006546Y013445D02*
X006787Y013445D01*
X006787Y013805D01*
X006915Y013805D02*
X006915Y013445D01*
X007035Y013685D02*
X006915Y013805D01*
X007035Y013685D02*
X007155Y013805D01*
X007155Y013445D01*
X007155Y013945D02*
X007035Y013945D01*
X007095Y013945D02*
X007095Y014305D01*
X007155Y014305D02*
X007035Y014305D01*
X007105Y016695D02*
X006865Y016695D01*
X006745Y016815D01*
X006865Y016935D01*
X007105Y016935D01*
X007045Y017063D02*
X006805Y017063D01*
X006745Y017123D01*
X006745Y017243D01*
X006805Y017304D01*
X006805Y017432D02*
X006745Y017492D01*
X006745Y017612D01*
X006805Y017672D01*
X006805Y017432D02*
X007045Y017432D01*
X007105Y017492D01*
X007105Y017612D01*
X007045Y017672D01*
X007045Y017304D02*
X007105Y017243D01*
X007105Y017123D01*
X007045Y017063D01*
X005155Y017055D02*
X005095Y016995D01*
X004975Y016995D01*
X004915Y017055D01*
X004915Y017115D01*
X004975Y017175D01*
X005095Y017175D01*
X005155Y017235D01*
X005155Y017295D01*
X005095Y017355D01*
X004975Y017355D01*
X004915Y017295D01*
X004787Y017355D02*
X004607Y017355D01*
X004546Y017295D01*
X004546Y017055D01*
X004607Y016995D01*
X004787Y016995D01*
X004787Y017355D01*
X004418Y017235D02*
X004418Y016995D01*
X004418Y017175D02*
X004178Y017175D01*
X004178Y017235D02*
X004178Y016995D01*
X004178Y017235D02*
X004298Y017355D01*
X004418Y017235D01*
X003845Y016355D02*
X003905Y016295D01*
X003905Y016235D01*
X003845Y016175D01*
X003725Y016175D01*
X003665Y016115D01*
X003665Y016055D01*
X003725Y015995D01*
X003845Y015995D01*
X003905Y016055D01*
X003845Y016355D02*
X003725Y016355D01*
X003665Y016295D01*
X003537Y016295D02*
X003537Y016055D01*
X003477Y015995D01*
X003357Y015995D01*
X003296Y016055D01*
X003296Y016295D02*
X003357Y016355D01*
X003477Y016355D01*
X003537Y016295D01*
X003168Y016355D02*
X003168Y015995D01*
X002928Y015995D01*
X004397Y013805D02*
X004397Y013445D01*
X004337Y013625D02*
X004577Y013625D01*
X004397Y013805D01*
X004705Y013445D02*
X004945Y013445D01*
X004825Y013445D02*
X004825Y013805D01*
X004945Y013685D01*
D14*
X004155Y016175D02*
X004157Y016253D01*
X004163Y016330D01*
X004173Y016407D01*
X004187Y016483D01*
X004204Y016559D01*
X004226Y016634D01*
X004251Y016707D01*
X004280Y016779D01*
X004313Y016849D01*
X004349Y016918D01*
X004389Y016985D01*
X004432Y017049D01*
X004478Y017112D01*
X004527Y017172D01*
X004580Y017229D01*
X004635Y017284D01*
X004693Y017335D01*
X004754Y017384D01*
X004816Y017429D01*
X004882Y017472D01*
X004949Y017510D01*
X005018Y017546D01*
X005089Y017577D01*
X005161Y017606D01*
X005235Y017630D01*
X005310Y017650D01*
X005386Y017667D01*
X005462Y017680D01*
X005539Y017689D01*
X005617Y017694D01*
X005694Y017695D01*
X005772Y017692D01*
X005849Y017685D01*
X005926Y017674D01*
X006002Y017659D01*
X006078Y017641D01*
X006152Y017618D01*
X006225Y017592D01*
X006297Y017562D01*
X006367Y017528D01*
X006435Y017491D01*
X006501Y017451D01*
X006565Y017407D01*
X006627Y017360D01*
X006686Y017310D01*
X006743Y017257D01*
X006797Y017201D01*
X006848Y017142D01*
X006896Y017081D01*
X006940Y017017D01*
X006982Y016952D01*
X007020Y016884D01*
X007054Y016814D01*
X007085Y016743D01*
X007112Y016670D01*
X007135Y016596D01*
X007155Y016521D01*
X007171Y016445D01*
X007183Y016369D01*
X007191Y016291D01*
X007195Y016214D01*
X007195Y016136D01*
X007191Y016059D01*
X007183Y015981D01*
X007171Y015905D01*
X007155Y015829D01*
X007135Y015754D01*
X007112Y015680D01*
X007085Y015607D01*
X007054Y015536D01*
X007020Y015466D01*
X006982Y015398D01*
X006940Y015333D01*
X006896Y015269D01*
X006848Y015208D01*
X006797Y015149D01*
X006743Y015093D01*
X006686Y015040D01*
X006627Y014990D01*
X006565Y014943D01*
X006501Y014899D01*
X006435Y014859D01*
X006367Y014822D01*
X006297Y014788D01*
X006225Y014758D01*
X006152Y014732D01*
X006078Y014709D01*
X006002Y014691D01*
X005926Y014676D01*
X005849Y014665D01*
X005772Y014658D01*
X005694Y014655D01*
X005617Y014656D01*
X005539Y014661D01*
X005462Y014670D01*
X005386Y014683D01*
X005310Y014700D01*
X005235Y014720D01*
X005161Y014744D01*
X005089Y014773D01*
X005018Y014804D01*
X004949Y014840D01*
X004882Y014878D01*
X004816Y014921D01*
X004754Y014966D01*
X004693Y015015D01*
X004635Y015066D01*
X004580Y015121D01*
X004527Y015178D01*
X004478Y015238D01*
X004432Y015301D01*
X004389Y015365D01*
X004349Y015432D01*
X004313Y015501D01*
X004280Y015571D01*
X004251Y015643D01*
X004226Y015716D01*
X004204Y015791D01*
X004187Y015867D01*
X004173Y015943D01*
X004163Y016020D01*
X004157Y016097D01*
X004155Y016175D01*
M02*
