G75*
G70*
%OFA0B0*%
%FSLAX24Y24*%
%IPPOS*%
%LPD*%
%AMOC8*
5,1,8,0,0,1.08239X$1,22.5*
%
%ADD10C,0.0000*%
%ADD11C,0.0740*%
%ADD12R,0.0220X0.0780*%
%ADD13OC8,0.0630*%
%ADD14R,0.0240X0.0870*%
%ADD15C,0.0160*%
%ADD16C,0.0650*%
%ADD17R,0.0650X0.0650*%
%ADD18R,0.0740X0.0740*%
%ADD19C,0.0600*%
%ADD20C,0.0780*%
%ADD21C,0.0768*%
%ADD22C,0.2300*%
%ADD23R,0.0520X0.0220*%
%ADD24R,0.0709X0.0710*%
%ADD25R,0.0710X0.0709*%
%ADD26C,0.0634*%
%ADD27C,0.0120*%
%ADD28C,0.0440*%
D10*
X001200Y010700D02*
X021200Y010700D01*
X021244Y010698D01*
X021287Y010692D01*
X021329Y010683D01*
X021371Y010670D01*
X021411Y010653D01*
X021450Y010633D01*
X021487Y010610D01*
X021521Y010583D01*
X021554Y010554D01*
X021583Y010521D01*
X021610Y010487D01*
X021633Y010450D01*
X021653Y010411D01*
X021670Y010371D01*
X021683Y010329D01*
X021692Y010287D01*
X021698Y010244D01*
X021700Y010200D01*
X021700Y001200D01*
X021702Y001156D01*
X021708Y001113D01*
X021717Y001071D01*
X021730Y001029D01*
X021747Y000989D01*
X021767Y000950D01*
X021790Y000913D01*
X021817Y000879D01*
X021846Y000846D01*
X021879Y000817D01*
X021913Y000790D01*
X021950Y000767D01*
X021989Y000747D01*
X022029Y000730D01*
X022071Y000717D01*
X022113Y000708D01*
X022156Y000702D01*
X022200Y000700D01*
X037950Y000700D01*
X038033Y000702D01*
X038116Y000708D01*
X038199Y000718D01*
X038281Y000732D01*
X038363Y000749D01*
X038443Y000771D01*
X038522Y000796D01*
X038600Y000825D01*
X038677Y000858D01*
X038752Y000895D01*
X038825Y000934D01*
X038896Y000978D01*
X038965Y001024D01*
X039032Y001074D01*
X039096Y001127D01*
X039158Y001183D01*
X039217Y001242D01*
X039273Y001304D01*
X039326Y001368D01*
X039376Y001435D01*
X039422Y001504D01*
X039466Y001575D01*
X039505Y001648D01*
X039542Y001723D01*
X039575Y001800D01*
X039604Y001878D01*
X039629Y001957D01*
X039651Y002037D01*
X039668Y002119D01*
X039682Y002201D01*
X039692Y002284D01*
X039698Y002367D01*
X039700Y002450D01*
X039700Y029950D01*
X039698Y030033D01*
X039692Y030116D01*
X039682Y030199D01*
X039668Y030281D01*
X039651Y030363D01*
X039629Y030443D01*
X039604Y030522D01*
X039575Y030600D01*
X039542Y030677D01*
X039505Y030752D01*
X039466Y030825D01*
X039422Y030896D01*
X039376Y030965D01*
X039326Y031032D01*
X039273Y031096D01*
X039217Y031158D01*
X039158Y031217D01*
X039096Y031273D01*
X039032Y031326D01*
X038965Y031376D01*
X038896Y031422D01*
X038825Y031466D01*
X038752Y031505D01*
X038677Y031542D01*
X038600Y031575D01*
X038522Y031604D01*
X038443Y031629D01*
X038363Y031651D01*
X038281Y031668D01*
X038199Y031682D01*
X038116Y031692D01*
X038033Y031698D01*
X037950Y031700D01*
X002450Y031700D01*
X002367Y031698D01*
X002284Y031692D01*
X002201Y031682D01*
X002119Y031668D01*
X002037Y031651D01*
X001957Y031629D01*
X001878Y031604D01*
X001800Y031575D01*
X001723Y031542D01*
X001648Y031505D01*
X001575Y031466D01*
X001504Y031422D01*
X001435Y031376D01*
X001368Y031326D01*
X001304Y031273D01*
X001242Y031217D01*
X001183Y031158D01*
X001127Y031096D01*
X001074Y031032D01*
X001024Y030965D01*
X000978Y030896D01*
X000934Y030825D01*
X000895Y030752D01*
X000858Y030677D01*
X000825Y030600D01*
X000796Y030522D01*
X000771Y030443D01*
X000749Y030363D01*
X000732Y030281D01*
X000718Y030199D01*
X000708Y030116D01*
X000702Y030033D01*
X000700Y029950D01*
X000700Y011200D01*
X000702Y011156D01*
X000708Y011113D01*
X000717Y011071D01*
X000730Y011029D01*
X000747Y010989D01*
X000767Y010950D01*
X000790Y010913D01*
X000817Y010879D01*
X000846Y010846D01*
X000879Y010817D01*
X000913Y010790D01*
X000950Y010767D01*
X000989Y010747D01*
X001029Y010730D01*
X001071Y010717D01*
X001113Y010708D01*
X001156Y010702D01*
X001200Y010700D01*
X004070Y012200D02*
X004072Y012250D01*
X004078Y012300D01*
X004088Y012349D01*
X004102Y012397D01*
X004119Y012444D01*
X004140Y012489D01*
X004165Y012533D01*
X004193Y012574D01*
X004225Y012613D01*
X004259Y012650D01*
X004296Y012684D01*
X004336Y012714D01*
X004378Y012741D01*
X004422Y012765D01*
X004468Y012786D01*
X004515Y012802D01*
X004563Y012815D01*
X004613Y012824D01*
X004662Y012829D01*
X004713Y012830D01*
X004763Y012827D01*
X004812Y012820D01*
X004861Y012809D01*
X004909Y012794D01*
X004955Y012776D01*
X005000Y012754D01*
X005043Y012728D01*
X005084Y012699D01*
X005123Y012667D01*
X005159Y012632D01*
X005191Y012594D01*
X005221Y012554D01*
X005248Y012511D01*
X005271Y012467D01*
X005290Y012421D01*
X005306Y012373D01*
X005318Y012324D01*
X005326Y012275D01*
X005330Y012225D01*
X005330Y012175D01*
X005326Y012125D01*
X005318Y012076D01*
X005306Y012027D01*
X005290Y011979D01*
X005271Y011933D01*
X005248Y011889D01*
X005221Y011846D01*
X005191Y011806D01*
X005159Y011768D01*
X005123Y011733D01*
X005084Y011701D01*
X005043Y011672D01*
X005000Y011646D01*
X004955Y011624D01*
X004909Y011606D01*
X004861Y011591D01*
X004812Y011580D01*
X004763Y011573D01*
X004713Y011570D01*
X004662Y011571D01*
X004613Y011576D01*
X004563Y011585D01*
X004515Y011598D01*
X004468Y011614D01*
X004422Y011635D01*
X004378Y011659D01*
X004336Y011686D01*
X004296Y011716D01*
X004259Y011750D01*
X004225Y011787D01*
X004193Y011826D01*
X004165Y011867D01*
X004140Y011911D01*
X004119Y011956D01*
X004102Y012003D01*
X004088Y012051D01*
X004078Y012100D01*
X004072Y012150D01*
X004070Y012200D01*
X004070Y016700D02*
X004072Y016750D01*
X004078Y016800D01*
X004088Y016849D01*
X004102Y016897D01*
X004119Y016944D01*
X004140Y016989D01*
X004165Y017033D01*
X004193Y017074D01*
X004225Y017113D01*
X004259Y017150D01*
X004296Y017184D01*
X004336Y017214D01*
X004378Y017241D01*
X004422Y017265D01*
X004468Y017286D01*
X004515Y017302D01*
X004563Y017315D01*
X004613Y017324D01*
X004662Y017329D01*
X004713Y017330D01*
X004763Y017327D01*
X004812Y017320D01*
X004861Y017309D01*
X004909Y017294D01*
X004955Y017276D01*
X005000Y017254D01*
X005043Y017228D01*
X005084Y017199D01*
X005123Y017167D01*
X005159Y017132D01*
X005191Y017094D01*
X005221Y017054D01*
X005248Y017011D01*
X005271Y016967D01*
X005290Y016921D01*
X005306Y016873D01*
X005318Y016824D01*
X005326Y016775D01*
X005330Y016725D01*
X005330Y016675D01*
X005326Y016625D01*
X005318Y016576D01*
X005306Y016527D01*
X005290Y016479D01*
X005271Y016433D01*
X005248Y016389D01*
X005221Y016346D01*
X005191Y016306D01*
X005159Y016268D01*
X005123Y016233D01*
X005084Y016201D01*
X005043Y016172D01*
X005000Y016146D01*
X004955Y016124D01*
X004909Y016106D01*
X004861Y016091D01*
X004812Y016080D01*
X004763Y016073D01*
X004713Y016070D01*
X004662Y016071D01*
X004613Y016076D01*
X004563Y016085D01*
X004515Y016098D01*
X004468Y016114D01*
X004422Y016135D01*
X004378Y016159D01*
X004336Y016186D01*
X004296Y016216D01*
X004259Y016250D01*
X004225Y016287D01*
X004193Y016326D01*
X004165Y016367D01*
X004140Y016411D01*
X004119Y016456D01*
X004102Y016503D01*
X004088Y016551D01*
X004078Y016600D01*
X004072Y016650D01*
X004070Y016700D01*
X004070Y018700D02*
X004072Y018750D01*
X004078Y018800D01*
X004088Y018849D01*
X004102Y018897D01*
X004119Y018944D01*
X004140Y018989D01*
X004165Y019033D01*
X004193Y019074D01*
X004225Y019113D01*
X004259Y019150D01*
X004296Y019184D01*
X004336Y019214D01*
X004378Y019241D01*
X004422Y019265D01*
X004468Y019286D01*
X004515Y019302D01*
X004563Y019315D01*
X004613Y019324D01*
X004662Y019329D01*
X004713Y019330D01*
X004763Y019327D01*
X004812Y019320D01*
X004861Y019309D01*
X004909Y019294D01*
X004955Y019276D01*
X005000Y019254D01*
X005043Y019228D01*
X005084Y019199D01*
X005123Y019167D01*
X005159Y019132D01*
X005191Y019094D01*
X005221Y019054D01*
X005248Y019011D01*
X005271Y018967D01*
X005290Y018921D01*
X005306Y018873D01*
X005318Y018824D01*
X005326Y018775D01*
X005330Y018725D01*
X005330Y018675D01*
X005326Y018625D01*
X005318Y018576D01*
X005306Y018527D01*
X005290Y018479D01*
X005271Y018433D01*
X005248Y018389D01*
X005221Y018346D01*
X005191Y018306D01*
X005159Y018268D01*
X005123Y018233D01*
X005084Y018201D01*
X005043Y018172D01*
X005000Y018146D01*
X004955Y018124D01*
X004909Y018106D01*
X004861Y018091D01*
X004812Y018080D01*
X004763Y018073D01*
X004713Y018070D01*
X004662Y018071D01*
X004613Y018076D01*
X004563Y018085D01*
X004515Y018098D01*
X004468Y018114D01*
X004422Y018135D01*
X004378Y018159D01*
X004336Y018186D01*
X004296Y018216D01*
X004259Y018250D01*
X004225Y018287D01*
X004193Y018326D01*
X004165Y018367D01*
X004140Y018411D01*
X004119Y018456D01*
X004102Y018503D01*
X004088Y018551D01*
X004078Y018600D01*
X004072Y018650D01*
X004070Y018700D01*
X004070Y023200D02*
X004072Y023250D01*
X004078Y023300D01*
X004088Y023349D01*
X004102Y023397D01*
X004119Y023444D01*
X004140Y023489D01*
X004165Y023533D01*
X004193Y023574D01*
X004225Y023613D01*
X004259Y023650D01*
X004296Y023684D01*
X004336Y023714D01*
X004378Y023741D01*
X004422Y023765D01*
X004468Y023786D01*
X004515Y023802D01*
X004563Y023815D01*
X004613Y023824D01*
X004662Y023829D01*
X004713Y023830D01*
X004763Y023827D01*
X004812Y023820D01*
X004861Y023809D01*
X004909Y023794D01*
X004955Y023776D01*
X005000Y023754D01*
X005043Y023728D01*
X005084Y023699D01*
X005123Y023667D01*
X005159Y023632D01*
X005191Y023594D01*
X005221Y023554D01*
X005248Y023511D01*
X005271Y023467D01*
X005290Y023421D01*
X005306Y023373D01*
X005318Y023324D01*
X005326Y023275D01*
X005330Y023225D01*
X005330Y023175D01*
X005326Y023125D01*
X005318Y023076D01*
X005306Y023027D01*
X005290Y022979D01*
X005271Y022933D01*
X005248Y022889D01*
X005221Y022846D01*
X005191Y022806D01*
X005159Y022768D01*
X005123Y022733D01*
X005084Y022701D01*
X005043Y022672D01*
X005000Y022646D01*
X004955Y022624D01*
X004909Y022606D01*
X004861Y022591D01*
X004812Y022580D01*
X004763Y022573D01*
X004713Y022570D01*
X004662Y022571D01*
X004613Y022576D01*
X004563Y022585D01*
X004515Y022598D01*
X004468Y022614D01*
X004422Y022635D01*
X004378Y022659D01*
X004336Y022686D01*
X004296Y022716D01*
X004259Y022750D01*
X004225Y022787D01*
X004193Y022826D01*
X004165Y022867D01*
X004140Y022911D01*
X004119Y022956D01*
X004102Y023003D01*
X004088Y023051D01*
X004078Y023100D01*
X004072Y023150D01*
X004070Y023200D01*
D11*
X007200Y021700D03*
X008200Y022200D03*
X008200Y021200D03*
X007200Y020700D03*
X008200Y020200D03*
X007200Y019700D03*
X008200Y019200D03*
X012200Y022200D03*
X013200Y022200D03*
X013200Y023200D03*
X012200Y023200D03*
X012200Y024200D03*
X013200Y024200D03*
X015200Y022700D03*
X017200Y020700D03*
X017700Y019950D03*
X018200Y020700D03*
X019700Y020450D03*
X019700Y019200D03*
X019700Y017950D03*
X019700Y016700D03*
X019700Y015450D03*
X019700Y014200D03*
X018200Y014700D03*
X017700Y013950D03*
X017200Y014700D03*
X017700Y015950D03*
X017200Y016700D03*
X018200Y016700D03*
X017700Y017950D03*
X017200Y018700D03*
X018200Y018700D03*
X015700Y017700D03*
X015700Y016200D03*
X015700Y015200D03*
X015700Y014200D03*
X015700Y012700D03*
X014700Y012700D03*
X014700Y011700D03*
X015700Y011700D03*
X016700Y011700D03*
X017700Y011700D03*
X018700Y011700D03*
X018700Y012700D03*
X020700Y011700D03*
X021700Y011700D03*
X022700Y011700D03*
X023700Y011700D03*
X024700Y011700D03*
X025700Y011700D03*
X026700Y011700D03*
X027700Y011700D03*
X027700Y010450D03*
X027200Y009700D03*
X028200Y009700D03*
X029700Y011700D03*
X030700Y011700D03*
X030700Y012700D03*
X029700Y012700D03*
X031700Y012700D03*
X032700Y012700D03*
X033700Y012700D03*
X033700Y011700D03*
X032700Y011700D03*
X031700Y011700D03*
X031700Y009700D03*
X034700Y011700D03*
X035700Y011700D03*
X036700Y011700D03*
X036700Y012700D03*
X035700Y012700D03*
X034700Y012700D03*
X037700Y012700D03*
X038700Y012700D03*
X038700Y010700D03*
X038700Y015200D03*
X037700Y015200D03*
X037700Y020200D03*
X038700Y020200D03*
X036700Y020200D03*
X035700Y020200D03*
X034700Y020200D03*
X033700Y020200D03*
X032700Y020200D03*
X031700Y020200D03*
X030700Y020200D03*
X029700Y020200D03*
X026700Y020700D03*
X026700Y021700D03*
X025700Y021700D03*
X025700Y020700D03*
X023700Y020450D03*
X023700Y019200D03*
X023700Y017950D03*
X023700Y016700D03*
X023700Y015450D03*
X023700Y014200D03*
X025700Y014700D03*
X025700Y015700D03*
X025700Y016700D03*
X026700Y016700D03*
X026700Y015700D03*
X026700Y014700D03*
X024200Y009700D03*
X023200Y009700D03*
X013700Y011700D03*
X012700Y011700D03*
X011700Y011700D03*
X012700Y012700D03*
X008200Y012700D03*
X007200Y013200D03*
X008200Y013700D03*
X007200Y014200D03*
X008200Y014700D03*
X007200Y015200D03*
X008200Y015700D03*
X005700Y014700D03*
X005700Y013700D03*
X001700Y013700D03*
X001700Y014700D03*
X001700Y026700D03*
X002700Y026700D03*
X003700Y026700D03*
X004700Y026700D03*
X005700Y026700D03*
X008200Y028950D03*
X008100Y030700D03*
X009100Y030700D03*
X010100Y030700D03*
X011100Y030700D03*
X012100Y030700D03*
X013100Y030700D03*
X014100Y030700D03*
X015100Y030700D03*
X016100Y030700D03*
X017100Y030700D03*
X018700Y030700D03*
X019700Y030700D03*
X020700Y030700D03*
X021700Y030700D03*
X022700Y030700D03*
X023700Y030700D03*
X024700Y030700D03*
X025700Y030700D03*
X027700Y030700D03*
X028700Y030700D03*
X029700Y030700D03*
X030700Y030700D03*
X031700Y030700D03*
X032700Y030700D03*
X033700Y030700D03*
X034700Y030700D03*
X027450Y027700D03*
X025700Y027700D03*
X024700Y027700D03*
X024700Y026700D03*
X025700Y026700D03*
X025700Y028700D03*
X024700Y028700D03*
X021700Y028700D03*
X020700Y028700D03*
X019700Y028700D03*
X018700Y028700D03*
X016200Y028200D03*
X015700Y028950D03*
X015200Y028200D03*
X015200Y026700D03*
X012200Y028950D03*
X005700Y030700D03*
X004700Y030700D03*
X026700Y022700D03*
X027450Y023700D03*
X029700Y023200D03*
X030700Y023200D03*
X031700Y023200D03*
X032700Y023200D03*
X033700Y023200D03*
X034700Y023200D03*
X035700Y023200D03*
X036700Y023200D03*
X037700Y023200D03*
X038700Y023200D03*
D12*
X014200Y018630D03*
X013700Y018630D03*
X013200Y018630D03*
X012700Y018630D03*
X012200Y018630D03*
X011700Y018630D03*
X011200Y018630D03*
X011200Y016770D03*
X011700Y016770D03*
X012200Y016770D03*
X012700Y016770D03*
X013200Y016770D03*
X013700Y016770D03*
X014200Y016770D03*
D13*
X017200Y023700D03*
X018200Y023700D03*
X019200Y023700D03*
X020200Y023700D03*
X020200Y026700D03*
X019200Y026700D03*
X018200Y026700D03*
X017200Y026700D03*
X032200Y008700D03*
X033200Y008700D03*
X034200Y008700D03*
X035200Y008700D03*
X035200Y005700D03*
X034200Y005700D03*
X033200Y005700D03*
X032200Y005700D03*
D14*
X032950Y007670D03*
X033450Y007670D03*
X033950Y007670D03*
X034450Y007670D03*
X034450Y009730D03*
X033950Y009730D03*
X033450Y009730D03*
X032950Y009730D03*
X019450Y022670D03*
X018950Y022670D03*
X018450Y022670D03*
X017950Y022670D03*
X017950Y024730D03*
X018450Y024730D03*
X018950Y024730D03*
X019450Y024730D03*
D15*
X019450Y024700D02*
X019450Y025950D01*
X020200Y026700D01*
X020500Y027300D02*
X019800Y027300D01*
X019200Y026700D01*
X019100Y026700D01*
X018400Y027400D01*
X016000Y027400D01*
X015200Y028200D01*
X017200Y026700D02*
X017950Y025950D01*
X017950Y024700D01*
X018450Y024700D02*
X018450Y026450D01*
X018200Y026700D01*
X018950Y026450D02*
X019200Y026700D01*
X018950Y026450D02*
X018950Y024700D01*
X018950Y024730D01*
X018950Y024800D01*
X019200Y023700D02*
X018950Y023450D01*
X018950Y022700D01*
X018450Y022670D02*
X018450Y022700D01*
X018450Y023450D01*
X018200Y023700D01*
X017200Y023700D02*
X017200Y022700D01*
X017950Y022700D01*
X018450Y022670D02*
X018450Y022000D01*
X015900Y022000D01*
X015200Y022700D01*
X013200Y022200D02*
X012200Y022200D01*
X012200Y020700D02*
X009700Y020700D01*
X009200Y021200D01*
X008200Y021200D01*
X009600Y019700D02*
X009200Y019200D01*
X008200Y019200D01*
X009600Y019700D02*
X014400Y019700D01*
X013200Y016770D02*
X013200Y016200D01*
X013100Y016100D01*
X013100Y014700D01*
X013700Y014700D01*
X016700Y011700D02*
X017700Y011700D01*
X022700Y007110D02*
X022700Y005790D01*
X022700Y005700D01*
X028200Y005700D01*
X028200Y009700D01*
X028700Y009700D01*
X028700Y012700D01*
X028700Y013700D01*
X037700Y013700D01*
X037700Y012700D01*
X038700Y012700D01*
X035200Y009700D02*
X034450Y009700D01*
X034500Y009700D01*
X034450Y009730D01*
X034400Y009700D01*
X034000Y009700D01*
X033950Y009730D01*
X033950Y008950D01*
X034200Y008700D01*
X033950Y008950D02*
X033950Y009700D01*
X033950Y009730D02*
X033950Y009750D01*
X033450Y009730D02*
X033450Y009700D01*
X033450Y008950D01*
X033200Y008700D01*
X032200Y008700D02*
X032200Y009700D01*
X032950Y009700D01*
X033450Y009730D02*
X033450Y009800D01*
X033450Y010700D01*
X031200Y010700D01*
X030200Y009700D01*
X030200Y008200D01*
X030200Y007200D02*
X030200Y005700D01*
X028200Y005700D01*
X028200Y004600D02*
X027200Y004600D01*
X027200Y004684D01*
X027200Y004600D02*
X026500Y004600D01*
X026500Y004100D01*
X026450Y004094D01*
X026500Y004600D02*
X025100Y004600D01*
X024600Y004100D01*
X024600Y003700D02*
X025300Y003700D01*
X023800Y003300D02*
X023800Y002400D01*
X025600Y002400D01*
X026000Y002000D01*
X027800Y002000D01*
X028200Y002400D01*
X028200Y004600D01*
X030200Y005700D02*
X030500Y005700D01*
X031200Y005000D01*
X034200Y005000D01*
X034200Y005100D01*
X037100Y005100D01*
X037200Y005200D01*
X035200Y005700D02*
X034450Y006450D01*
X034450Y007700D01*
X033950Y007700D02*
X033950Y005950D01*
X033950Y007670D01*
X033450Y007700D02*
X033450Y005950D01*
X033200Y005700D01*
X032950Y006450D02*
X032950Y007670D01*
X032950Y007700D02*
X032950Y006450D01*
X032200Y005700D01*
X031200Y005000D02*
X031200Y003900D01*
X028900Y001600D01*
X025000Y001600D01*
X024700Y001700D01*
X024900Y001800D01*
X024800Y001700D01*
X024790Y001700D01*
X023800Y001700D02*
X023800Y002400D01*
X023800Y001700D02*
X023610Y001700D01*
X033950Y005950D02*
X034200Y005700D01*
X034200Y005100D01*
X034200Y005000D02*
X034200Y004200D01*
X035200Y008700D02*
X036716Y008700D01*
X035200Y008700D02*
X035200Y009700D01*
X027200Y020700D02*
X026700Y020700D01*
X027200Y020700D02*
X029700Y023200D01*
X031000Y025600D02*
X031400Y026000D01*
X031487Y026031D01*
X031500Y026000D01*
X031000Y025600D02*
X021300Y025600D01*
X021200Y025700D01*
X021200Y026600D01*
X020500Y027300D01*
X020200Y023700D02*
X020200Y022700D01*
X019450Y022700D01*
X005700Y030700D02*
X004700Y030700D01*
X003200Y030700D01*
X002450Y029950D01*
X004700Y028200D02*
X004700Y026700D01*
D16*
X004700Y028200D03*
X005700Y028200D03*
X016200Y026169D03*
X016200Y024200D03*
X021200Y024700D03*
X021200Y025700D03*
X022200Y026184D03*
X022200Y024216D03*
X026700Y018700D03*
X027700Y012700D03*
X028700Y012700D03*
X030200Y008200D03*
X030200Y007200D03*
X030200Y005700D03*
X033200Y004200D03*
X034200Y004200D03*
X037200Y005200D03*
X036200Y016200D03*
X035200Y016200D03*
X037700Y027200D03*
X038700Y027200D03*
X036200Y028200D03*
X013700Y015700D03*
X013700Y014700D03*
D17*
X025700Y018700D03*
X036200Y027200D03*
X037200Y006200D03*
X030200Y004700D03*
D18*
X007200Y016200D03*
X007200Y022700D03*
X025700Y022700D03*
D19*
X031487Y026031D03*
X032275Y026031D03*
X033062Y026031D03*
X033850Y026031D03*
X034637Y026031D03*
X035424Y026031D03*
X036212Y026031D03*
X036999Y026031D03*
X037787Y026031D03*
X038574Y026031D03*
X038574Y017369D03*
X037787Y017369D03*
X036999Y017369D03*
X036212Y017369D03*
X035424Y017369D03*
X034637Y017369D03*
X033850Y017369D03*
X033062Y017369D03*
X032275Y017369D03*
X031487Y017369D03*
D20*
X031700Y002700D03*
X035700Y002700D03*
D21*
X036716Y008700D03*
X038684Y008700D03*
X027200Y004684D03*
X027200Y002716D03*
D22*
X037950Y002450D03*
X037950Y029950D03*
X002450Y029950D03*
D23*
X023800Y004100D03*
X023800Y003700D03*
X023800Y003300D03*
X024600Y003300D03*
X024600Y003700D03*
X024600Y004100D03*
D24*
X024790Y001700D03*
X023610Y001700D03*
D25*
X022700Y004610D03*
X022700Y005790D03*
X022700Y007110D03*
X022700Y008290D03*
X024700Y008290D03*
X024700Y007110D03*
X026700Y007110D03*
X026700Y008290D03*
D26*
X026450Y004094D03*
X026450Y003306D03*
D27*
X026500Y003300D01*
X026700Y003300D01*
X027200Y002800D01*
X027200Y002716D01*
X026450Y003306D02*
X026400Y003300D01*
X024600Y003300D01*
X023800Y003700D02*
X023700Y003800D01*
X023400Y003800D01*
X022700Y004500D01*
X022700Y004610D01*
X022700Y004700D01*
X022900Y004900D01*
X023150Y004900D01*
X023550Y005300D01*
X029600Y005300D01*
X030200Y004700D01*
X031700Y002700D02*
X033200Y004200D01*
X033450Y005950D02*
X033450Y007670D01*
X034450Y007670D02*
X034450Y006450D01*
X034500Y007600D02*
X034450Y007670D01*
X034500Y007700D01*
X037600Y007700D01*
X038600Y008700D01*
X038684Y008700D01*
X036700Y011700D02*
X036700Y012700D01*
X035700Y012700D02*
X035700Y011700D01*
X034700Y011700D02*
X034700Y012700D01*
X033700Y012700D02*
X033700Y011700D01*
X032700Y011700D02*
X032700Y012700D01*
X031700Y012700D02*
X031700Y011700D01*
X030700Y011700D02*
X030700Y012700D01*
X029700Y012700D02*
X029700Y011700D01*
X027700Y011700D02*
X027700Y010450D01*
X027700Y011700D02*
X027700Y012700D01*
X026200Y012600D02*
X030300Y016700D01*
X027300Y019700D01*
X025700Y019700D01*
X025700Y020700D01*
X025200Y019200D02*
X023700Y019200D01*
X023700Y020450D01*
X025200Y019200D02*
X025700Y018700D01*
X023700Y018000D02*
X023700Y017950D01*
X023700Y018000D02*
X023000Y018700D01*
X023000Y024700D01*
X037200Y024700D01*
X038700Y023200D01*
X037700Y023200D02*
X036700Y024200D01*
X028000Y024200D01*
X027500Y023700D01*
X027450Y023700D01*
X030300Y026100D02*
X031050Y026850D01*
X031800Y026850D01*
X032200Y026450D01*
X032200Y026100D01*
X032275Y026031D01*
X030300Y026100D02*
X023250Y026100D01*
X022400Y026950D01*
X021450Y026950D01*
X019700Y028700D01*
X020700Y028700D02*
X020700Y030700D01*
X018700Y030700D02*
X018700Y028700D01*
X018700Y027700D02*
X019100Y027700D01*
X018700Y027700D02*
X016700Y029700D01*
X009100Y029700D01*
X008100Y030700D01*
X012200Y028950D02*
X015700Y028950D01*
X015200Y026700D02*
X015200Y026500D01*
X013800Y025100D01*
X006400Y025100D01*
X006400Y021700D01*
X007200Y021700D01*
X007200Y020700D02*
X006000Y020700D01*
X006000Y025700D01*
X012700Y025700D01*
X012200Y024200D02*
X007200Y024200D01*
X011200Y023200D02*
X011200Y021200D01*
X013500Y021200D01*
X014200Y020200D02*
X014200Y023200D01*
X013200Y024200D01*
X012200Y024200D01*
X012200Y023200D02*
X011200Y023200D01*
X014200Y020200D02*
X008200Y020200D01*
X007200Y019700D02*
X007200Y017700D01*
X006500Y017000D01*
X006500Y012100D01*
X010400Y012100D01*
X011700Y013400D01*
X016700Y013400D01*
X016900Y013200D01*
X018100Y013200D01*
X018400Y013500D01*
X018900Y013500D01*
X019600Y012800D01*
X019500Y013400D02*
X022900Y013400D01*
X023700Y014200D01*
X024800Y014800D02*
X020300Y014800D01*
X019700Y014200D01*
X019200Y014700D01*
X018200Y014700D01*
X017900Y015400D02*
X019700Y015400D01*
X019700Y015450D01*
X019700Y016700D02*
X018200Y016700D01*
X017600Y017300D01*
X016700Y017300D01*
X016200Y016800D01*
X014200Y016800D01*
X014200Y016770D01*
X013700Y016770D02*
X013700Y017100D01*
X016550Y019950D01*
X016550Y020200D01*
X016550Y021500D01*
X018950Y021500D01*
X018950Y022670D01*
X019000Y022700D01*
X018950Y022700D01*
X019450Y022700D02*
X019500Y022700D01*
X019450Y022670D01*
X018000Y022700D02*
X017950Y022670D01*
X018000Y022700D02*
X017200Y022700D01*
X017200Y023700D02*
X016700Y024200D01*
X016200Y024200D01*
X017950Y024700D02*
X018000Y024800D01*
X017950Y024730D01*
X018450Y024730D02*
X018500Y024800D01*
X018450Y024700D01*
X019450Y024700D02*
X019500Y024800D01*
X019450Y024730D01*
X019600Y024100D02*
X019800Y024100D01*
X020400Y024700D01*
X021200Y024700D01*
X020600Y024100D02*
X022100Y024100D01*
X022200Y024200D01*
X022200Y024216D01*
X020600Y024100D02*
X020200Y023700D01*
X019600Y024100D02*
X019200Y023700D01*
X016800Y026200D02*
X016200Y026200D01*
X016200Y026169D01*
X016800Y026200D02*
X017200Y026600D01*
X017200Y026700D01*
X021700Y028700D02*
X022700Y029700D01*
X035800Y029700D01*
X037450Y028050D01*
X038900Y028050D01*
X039300Y027650D01*
X039300Y025800D01*
X038800Y025200D01*
X035900Y025200D01*
X035400Y025700D01*
X035424Y026031D01*
X035550Y026600D02*
X036600Y026600D01*
X037000Y026200D01*
X036999Y026031D01*
X037700Y027200D02*
X036200Y027200D01*
X035550Y026600D02*
X032850Y029300D01*
X024300Y029300D01*
X023950Y028950D01*
X023950Y027950D01*
X024200Y027700D01*
X024700Y027700D01*
X025700Y027700D02*
X027450Y027700D01*
X019700Y020500D02*
X019500Y020700D01*
X018200Y020700D01*
X017700Y019950D02*
X016550Y019950D01*
X016550Y020200D02*
X014200Y020200D01*
X015200Y019700D02*
X014200Y018700D01*
X014200Y018630D01*
X013700Y018630D02*
X013700Y019300D01*
X010900Y019300D01*
X010600Y019000D01*
X011200Y018630D02*
X011200Y017900D01*
X011700Y017600D02*
X011700Y018630D01*
X012200Y018630D02*
X012200Y017900D01*
X012700Y017600D02*
X012700Y018630D01*
X013200Y018630D02*
X013200Y017800D01*
X013700Y017800D01*
X013700Y016770D02*
X013700Y015700D01*
X015700Y015700D01*
X015700Y015200D01*
X015700Y015700D02*
X015700Y016200D01*
X015700Y015700D02*
X016950Y015700D01*
X017200Y015950D01*
X017700Y015950D01*
X017900Y015400D02*
X017200Y014700D01*
X017700Y013950D02*
X018950Y013950D01*
X019500Y013400D01*
X020300Y012600D02*
X019800Y012100D01*
X019800Y011500D01*
X019300Y011000D01*
X014400Y011000D01*
X013700Y011700D01*
X011200Y013700D02*
X008200Y013700D01*
X008200Y014700D02*
X009700Y014700D01*
X011200Y014700D02*
X012200Y015700D01*
X012200Y016770D01*
X011700Y016770D02*
X011700Y016200D01*
X011200Y015700D01*
X008200Y015700D01*
X007300Y016300D02*
X007200Y016200D01*
X007300Y016300D02*
X010800Y016300D01*
X011200Y016700D01*
X011200Y016770D01*
X012700Y016770D02*
X012700Y015200D01*
X011200Y013700D01*
X015700Y017700D02*
X017450Y017700D01*
X017700Y017950D01*
X017200Y018700D02*
X017800Y019300D01*
X019600Y019300D01*
X019700Y019200D01*
X019700Y017950D02*
X018950Y017950D01*
X018200Y018700D01*
X019700Y017950D02*
X020350Y017300D01*
X028800Y017300D01*
X029200Y016900D01*
X029200Y016450D01*
X028450Y015700D01*
X026700Y015700D01*
X026700Y016700D02*
X028500Y016700D01*
X030300Y016700D02*
X034700Y016700D01*
X035200Y016200D01*
X036200Y016200D02*
X036200Y017300D01*
X036212Y017369D01*
X036200Y018700D01*
X035700Y019200D01*
X035700Y020200D01*
X034700Y020200D02*
X034700Y019200D01*
X035400Y018500D01*
X035400Y017500D01*
X035424Y017369D01*
X034637Y017369D02*
X034600Y017400D01*
X034600Y018300D01*
X033700Y019200D01*
X033700Y020200D01*
X032700Y020200D02*
X032700Y019200D01*
X033800Y018100D01*
X033800Y017500D01*
X033850Y017369D01*
X033062Y017369D02*
X033000Y017500D01*
X033000Y017900D01*
X031700Y019200D01*
X031700Y020200D01*
X030700Y020200D02*
X030700Y019200D01*
X032200Y017700D01*
X032200Y017450D01*
X032275Y017369D01*
X031487Y017369D02*
X031400Y017400D01*
X031400Y017500D01*
X031450Y017450D01*
X031400Y017500D02*
X029700Y019200D01*
X029700Y020200D01*
X025700Y015700D02*
X024800Y014800D01*
X023700Y015450D02*
X023700Y016700D01*
X019700Y020450D02*
X019700Y020500D01*
X020300Y012600D02*
X026200Y012600D01*
X022700Y011700D02*
X022700Y010200D01*
X023200Y009700D01*
X022100Y008900D02*
X022100Y004700D01*
X022700Y004700D01*
X023800Y004700D02*
X023800Y004100D01*
X024100Y006500D02*
X024700Y007100D01*
X024700Y007110D01*
X024700Y007200D01*
X026700Y007200D01*
X026700Y007110D01*
X026700Y008290D02*
X026700Y008300D01*
X026100Y008900D01*
X022100Y008900D01*
X022700Y008300D02*
X022700Y008290D01*
X022700Y008300D02*
X024700Y008300D01*
X024700Y008290D01*
X031700Y009700D02*
X032200Y009700D01*
X033000Y009700D01*
X032950Y009730D01*
X033450Y009730D02*
X033500Y009700D01*
X033450Y009730D02*
X033500Y009800D01*
X033450Y009800D01*
X037700Y015200D02*
X037700Y017300D01*
X037787Y017369D01*
X037700Y017400D01*
X037700Y020200D01*
X038600Y020100D02*
X038600Y017400D01*
X038574Y017369D01*
X038600Y017300D01*
X038700Y017200D01*
X038700Y015200D01*
X036999Y017369D02*
X037000Y018900D01*
X036700Y019200D01*
X036700Y020200D01*
X038600Y020100D02*
X038700Y020200D01*
D28*
X028500Y016700D03*
X019600Y012800D03*
X013700Y017800D03*
X012700Y017600D03*
X012200Y017900D03*
X011700Y017600D03*
X011200Y017900D03*
X010600Y019000D03*
X012200Y020700D03*
X013500Y021200D03*
X014400Y019700D03*
X015200Y019700D03*
X011200Y014700D03*
X009700Y014700D03*
X007200Y024200D03*
X012700Y025700D03*
X019100Y027700D03*
X024100Y006500D03*
X023800Y004700D03*
X025300Y003700D03*
M02*
