G75*
G70*
%OFA0B0*%
%FSLAX24Y24*%
%IPPOS*%
%LPD*%
%AMOC8*
5,1,8,0,0,1.08239X$1,22.5*
%
%ADD10C,0.0000*%
%ADD11C,0.0100*%
%ADD12C,0.0050*%
%ADD13C,0.0080*%
%ADD14C,0.0040*%
%ADD15C,0.0060*%
%ADD16C,0.0030*%
D10*
X001200Y010700D02*
X021200Y010700D01*
X021244Y010698D01*
X021287Y010692D01*
X021329Y010683D01*
X021371Y010670D01*
X021411Y010653D01*
X021450Y010633D01*
X021487Y010610D01*
X021521Y010583D01*
X021554Y010554D01*
X021583Y010521D01*
X021610Y010487D01*
X021633Y010450D01*
X021653Y010411D01*
X021670Y010371D01*
X021683Y010329D01*
X021692Y010287D01*
X021698Y010244D01*
X021700Y010200D01*
X021700Y001200D01*
X021702Y001156D01*
X021708Y001113D01*
X021717Y001071D01*
X021730Y001029D01*
X021747Y000989D01*
X021767Y000950D01*
X021790Y000913D01*
X021817Y000879D01*
X021846Y000846D01*
X021879Y000817D01*
X021913Y000790D01*
X021950Y000767D01*
X021989Y000747D01*
X022029Y000730D01*
X022071Y000717D01*
X022113Y000708D01*
X022156Y000702D01*
X022200Y000700D01*
X037950Y000700D01*
X038033Y000702D01*
X038116Y000708D01*
X038199Y000718D01*
X038281Y000732D01*
X038363Y000749D01*
X038443Y000771D01*
X038522Y000796D01*
X038600Y000825D01*
X038677Y000858D01*
X038752Y000895D01*
X038825Y000934D01*
X038896Y000978D01*
X038965Y001024D01*
X039032Y001074D01*
X039096Y001127D01*
X039158Y001183D01*
X039217Y001242D01*
X039273Y001304D01*
X039326Y001368D01*
X039376Y001435D01*
X039422Y001504D01*
X039466Y001575D01*
X039505Y001648D01*
X039542Y001723D01*
X039575Y001800D01*
X039604Y001878D01*
X039629Y001957D01*
X039651Y002037D01*
X039668Y002119D01*
X039682Y002201D01*
X039692Y002284D01*
X039698Y002367D01*
X039700Y002450D01*
X039700Y029950D01*
X039698Y030033D01*
X039692Y030116D01*
X039682Y030199D01*
X039668Y030281D01*
X039651Y030363D01*
X039629Y030443D01*
X039604Y030522D01*
X039575Y030600D01*
X039542Y030677D01*
X039505Y030752D01*
X039466Y030825D01*
X039422Y030896D01*
X039376Y030965D01*
X039326Y031032D01*
X039273Y031096D01*
X039217Y031158D01*
X039158Y031217D01*
X039096Y031273D01*
X039032Y031326D01*
X038965Y031376D01*
X038896Y031422D01*
X038825Y031466D01*
X038752Y031505D01*
X038677Y031542D01*
X038600Y031575D01*
X038522Y031604D01*
X038443Y031629D01*
X038363Y031651D01*
X038281Y031668D01*
X038199Y031682D01*
X038116Y031692D01*
X038033Y031698D01*
X037950Y031700D01*
X002450Y031700D01*
X002367Y031698D01*
X002284Y031692D01*
X002201Y031682D01*
X002119Y031668D01*
X002037Y031651D01*
X001957Y031629D01*
X001878Y031604D01*
X001800Y031575D01*
X001723Y031542D01*
X001648Y031505D01*
X001575Y031466D01*
X001504Y031422D01*
X001435Y031376D01*
X001368Y031326D01*
X001304Y031273D01*
X001242Y031217D01*
X001183Y031158D01*
X001127Y031096D01*
X001074Y031032D01*
X001024Y030965D01*
X000978Y030896D01*
X000934Y030825D01*
X000895Y030752D01*
X000858Y030677D01*
X000825Y030600D01*
X000796Y030522D01*
X000771Y030443D01*
X000749Y030363D01*
X000732Y030281D01*
X000718Y030199D01*
X000708Y030116D01*
X000702Y030033D01*
X000700Y029950D01*
X000700Y011200D01*
X000702Y011156D01*
X000708Y011113D01*
X000717Y011071D01*
X000730Y011029D01*
X000747Y010989D01*
X000767Y010950D01*
X000790Y010913D01*
X000817Y010879D01*
X000846Y010846D01*
X000879Y010817D01*
X000913Y010790D01*
X000950Y010767D01*
X000989Y010747D01*
X001029Y010730D01*
X001071Y010717D01*
X001113Y010708D01*
X001156Y010702D01*
X001200Y010700D01*
X004070Y012200D02*
X004072Y012250D01*
X004078Y012300D01*
X004088Y012349D01*
X004102Y012397D01*
X004119Y012444D01*
X004140Y012489D01*
X004165Y012533D01*
X004193Y012574D01*
X004225Y012613D01*
X004259Y012650D01*
X004296Y012684D01*
X004336Y012714D01*
X004378Y012741D01*
X004422Y012765D01*
X004468Y012786D01*
X004515Y012802D01*
X004563Y012815D01*
X004613Y012824D01*
X004662Y012829D01*
X004713Y012830D01*
X004763Y012827D01*
X004812Y012820D01*
X004861Y012809D01*
X004909Y012794D01*
X004955Y012776D01*
X005000Y012754D01*
X005043Y012728D01*
X005084Y012699D01*
X005123Y012667D01*
X005159Y012632D01*
X005191Y012594D01*
X005221Y012554D01*
X005248Y012511D01*
X005271Y012467D01*
X005290Y012421D01*
X005306Y012373D01*
X005318Y012324D01*
X005326Y012275D01*
X005330Y012225D01*
X005330Y012175D01*
X005326Y012125D01*
X005318Y012076D01*
X005306Y012027D01*
X005290Y011979D01*
X005271Y011933D01*
X005248Y011889D01*
X005221Y011846D01*
X005191Y011806D01*
X005159Y011768D01*
X005123Y011733D01*
X005084Y011701D01*
X005043Y011672D01*
X005000Y011646D01*
X004955Y011624D01*
X004909Y011606D01*
X004861Y011591D01*
X004812Y011580D01*
X004763Y011573D01*
X004713Y011570D01*
X004662Y011571D01*
X004613Y011576D01*
X004563Y011585D01*
X004515Y011598D01*
X004468Y011614D01*
X004422Y011635D01*
X004378Y011659D01*
X004336Y011686D01*
X004296Y011716D01*
X004259Y011750D01*
X004225Y011787D01*
X004193Y011826D01*
X004165Y011867D01*
X004140Y011911D01*
X004119Y011956D01*
X004102Y012003D01*
X004088Y012051D01*
X004078Y012100D01*
X004072Y012150D01*
X004070Y012200D01*
X004070Y016700D02*
X004072Y016750D01*
X004078Y016800D01*
X004088Y016849D01*
X004102Y016897D01*
X004119Y016944D01*
X004140Y016989D01*
X004165Y017033D01*
X004193Y017074D01*
X004225Y017113D01*
X004259Y017150D01*
X004296Y017184D01*
X004336Y017214D01*
X004378Y017241D01*
X004422Y017265D01*
X004468Y017286D01*
X004515Y017302D01*
X004563Y017315D01*
X004613Y017324D01*
X004662Y017329D01*
X004713Y017330D01*
X004763Y017327D01*
X004812Y017320D01*
X004861Y017309D01*
X004909Y017294D01*
X004955Y017276D01*
X005000Y017254D01*
X005043Y017228D01*
X005084Y017199D01*
X005123Y017167D01*
X005159Y017132D01*
X005191Y017094D01*
X005221Y017054D01*
X005248Y017011D01*
X005271Y016967D01*
X005290Y016921D01*
X005306Y016873D01*
X005318Y016824D01*
X005326Y016775D01*
X005330Y016725D01*
X005330Y016675D01*
X005326Y016625D01*
X005318Y016576D01*
X005306Y016527D01*
X005290Y016479D01*
X005271Y016433D01*
X005248Y016389D01*
X005221Y016346D01*
X005191Y016306D01*
X005159Y016268D01*
X005123Y016233D01*
X005084Y016201D01*
X005043Y016172D01*
X005000Y016146D01*
X004955Y016124D01*
X004909Y016106D01*
X004861Y016091D01*
X004812Y016080D01*
X004763Y016073D01*
X004713Y016070D01*
X004662Y016071D01*
X004613Y016076D01*
X004563Y016085D01*
X004515Y016098D01*
X004468Y016114D01*
X004422Y016135D01*
X004378Y016159D01*
X004336Y016186D01*
X004296Y016216D01*
X004259Y016250D01*
X004225Y016287D01*
X004193Y016326D01*
X004165Y016367D01*
X004140Y016411D01*
X004119Y016456D01*
X004102Y016503D01*
X004088Y016551D01*
X004078Y016600D01*
X004072Y016650D01*
X004070Y016700D01*
X004070Y018700D02*
X004072Y018750D01*
X004078Y018800D01*
X004088Y018849D01*
X004102Y018897D01*
X004119Y018944D01*
X004140Y018989D01*
X004165Y019033D01*
X004193Y019074D01*
X004225Y019113D01*
X004259Y019150D01*
X004296Y019184D01*
X004336Y019214D01*
X004378Y019241D01*
X004422Y019265D01*
X004468Y019286D01*
X004515Y019302D01*
X004563Y019315D01*
X004613Y019324D01*
X004662Y019329D01*
X004713Y019330D01*
X004763Y019327D01*
X004812Y019320D01*
X004861Y019309D01*
X004909Y019294D01*
X004955Y019276D01*
X005000Y019254D01*
X005043Y019228D01*
X005084Y019199D01*
X005123Y019167D01*
X005159Y019132D01*
X005191Y019094D01*
X005221Y019054D01*
X005248Y019011D01*
X005271Y018967D01*
X005290Y018921D01*
X005306Y018873D01*
X005318Y018824D01*
X005326Y018775D01*
X005330Y018725D01*
X005330Y018675D01*
X005326Y018625D01*
X005318Y018576D01*
X005306Y018527D01*
X005290Y018479D01*
X005271Y018433D01*
X005248Y018389D01*
X005221Y018346D01*
X005191Y018306D01*
X005159Y018268D01*
X005123Y018233D01*
X005084Y018201D01*
X005043Y018172D01*
X005000Y018146D01*
X004955Y018124D01*
X004909Y018106D01*
X004861Y018091D01*
X004812Y018080D01*
X004763Y018073D01*
X004713Y018070D01*
X004662Y018071D01*
X004613Y018076D01*
X004563Y018085D01*
X004515Y018098D01*
X004468Y018114D01*
X004422Y018135D01*
X004378Y018159D01*
X004336Y018186D01*
X004296Y018216D01*
X004259Y018250D01*
X004225Y018287D01*
X004193Y018326D01*
X004165Y018367D01*
X004140Y018411D01*
X004119Y018456D01*
X004102Y018503D01*
X004088Y018551D01*
X004078Y018600D01*
X004072Y018650D01*
X004070Y018700D01*
X004070Y023200D02*
X004072Y023250D01*
X004078Y023300D01*
X004088Y023349D01*
X004102Y023397D01*
X004119Y023444D01*
X004140Y023489D01*
X004165Y023533D01*
X004193Y023574D01*
X004225Y023613D01*
X004259Y023650D01*
X004296Y023684D01*
X004336Y023714D01*
X004378Y023741D01*
X004422Y023765D01*
X004468Y023786D01*
X004515Y023802D01*
X004563Y023815D01*
X004613Y023824D01*
X004662Y023829D01*
X004713Y023830D01*
X004763Y023827D01*
X004812Y023820D01*
X004861Y023809D01*
X004909Y023794D01*
X004955Y023776D01*
X005000Y023754D01*
X005043Y023728D01*
X005084Y023699D01*
X005123Y023667D01*
X005159Y023632D01*
X005191Y023594D01*
X005221Y023554D01*
X005248Y023511D01*
X005271Y023467D01*
X005290Y023421D01*
X005306Y023373D01*
X005318Y023324D01*
X005326Y023275D01*
X005330Y023225D01*
X005330Y023175D01*
X005326Y023125D01*
X005318Y023076D01*
X005306Y023027D01*
X005290Y022979D01*
X005271Y022933D01*
X005248Y022889D01*
X005221Y022846D01*
X005191Y022806D01*
X005159Y022768D01*
X005123Y022733D01*
X005084Y022701D01*
X005043Y022672D01*
X005000Y022646D01*
X004955Y022624D01*
X004909Y022606D01*
X004861Y022591D01*
X004812Y022580D01*
X004763Y022573D01*
X004713Y022570D01*
X004662Y022571D01*
X004613Y022576D01*
X004563Y022585D01*
X004515Y022598D01*
X004468Y022614D01*
X004422Y022635D01*
X004378Y022659D01*
X004336Y022686D01*
X004296Y022716D01*
X004259Y022750D01*
X004225Y022787D01*
X004193Y022826D01*
X004165Y022867D01*
X004140Y022911D01*
X004119Y022956D01*
X004102Y023003D01*
X004088Y023051D01*
X004078Y023100D01*
X004072Y023150D01*
X004070Y023200D01*
D11*
X006450Y027800D02*
X006600Y028050D01*
X006450Y027800D02*
X006300Y028050D01*
X006450Y027800D02*
X006450Y028700D01*
X011700Y026200D02*
X013200Y026200D01*
X013200Y024800D01*
X013350Y025050D01*
X013200Y024800D02*
X013050Y025050D01*
X012350Y025050D02*
X012200Y024800D01*
X012050Y025050D01*
X012200Y024800D02*
X012200Y025450D01*
X011700Y025450D01*
X013450Y026950D02*
X014200Y026950D01*
X014200Y029700D01*
X019200Y029700D01*
X019200Y029200D01*
X019350Y029450D01*
X019200Y029200D02*
X019050Y029450D01*
X021050Y029450D02*
X021200Y029200D01*
X021350Y029450D01*
X021200Y029200D02*
X021200Y029950D01*
X013700Y029950D01*
X013700Y027700D01*
X013450Y027700D01*
X016200Y023700D02*
X016200Y021700D01*
X021200Y023450D02*
X021200Y024200D01*
X021050Y023950D01*
X021200Y024200D02*
X021350Y023950D01*
X022700Y022950D02*
X022700Y021200D01*
X022850Y021450D01*
X022700Y021200D02*
X022550Y021450D01*
X023450Y021200D02*
X023450Y022950D01*
X022700Y022950D01*
X023450Y022950D02*
X023450Y024450D01*
X024700Y024450D01*
X024700Y021200D01*
X023450Y021200D01*
X027300Y015700D02*
X027550Y015550D01*
X027300Y015700D02*
X027550Y015850D01*
X027300Y015700D02*
X028450Y015700D01*
X028450Y014950D02*
X028200Y014950D01*
X026700Y013450D01*
X025700Y013450D01*
X025700Y014100D01*
X025550Y013850D01*
X025700Y014100D02*
X025850Y013850D01*
X026200Y012700D02*
X027200Y012700D01*
X026950Y012850D01*
X027200Y012700D02*
X026950Y012550D01*
X036700Y014200D02*
X038200Y014200D01*
X038200Y014700D01*
X038050Y014450D01*
X038200Y014700D02*
X038350Y014450D01*
X034950Y003200D02*
X032950Y003200D01*
X032950Y002200D01*
X034950Y002200D01*
X034950Y002700D01*
X035200Y002700D01*
X034950Y002700D02*
X034950Y003200D01*
X032950Y003200D02*
X032450Y003200D01*
X032450Y002700D01*
X032200Y002700D01*
X032450Y002700D02*
X032450Y002200D01*
X032950Y002200D01*
X015200Y014700D02*
X014950Y014850D01*
X014700Y014700D02*
X015200Y014700D01*
X014950Y014550D01*
X014700Y014700D02*
X014700Y013450D01*
X014200Y013450D01*
X026300Y028450D02*
X026550Y028300D01*
X026300Y028450D02*
X026560Y028600D01*
X026300Y028450D02*
X028450Y028450D01*
X028450Y029200D02*
X027200Y029200D01*
X026450Y029950D01*
X024700Y029950D01*
X024700Y029300D01*
X024850Y029550D01*
X024700Y029300D02*
X024550Y029550D01*
D12*
X004881Y009842D02*
X002519Y009842D01*
X000944Y011417D01*
X000944Y027558D01*
X006456Y027558D01*
X006456Y011417D01*
X004881Y009842D01*
X004175Y013475D02*
X003725Y013775D01*
X003875Y013935D02*
X003725Y014086D01*
X004175Y014086D01*
X004175Y014236D02*
X004175Y013935D01*
X004175Y013775D02*
X003725Y013475D01*
X011975Y014800D02*
X012050Y014725D01*
X012350Y014725D01*
X012425Y014800D01*
X012425Y014950D01*
X012350Y015025D01*
X012425Y015185D02*
X012125Y015486D01*
X012050Y015486D01*
X011975Y015411D01*
X011975Y015260D01*
X012050Y015185D01*
X012050Y015025D02*
X011975Y014950D01*
X011975Y014800D01*
X012425Y015185D02*
X012425Y015486D01*
X015554Y016800D02*
X015629Y016725D01*
X015779Y016725D01*
X015854Y016800D01*
X015854Y017100D01*
X015779Y017175D01*
X015629Y017175D01*
X015554Y017100D01*
X015554Y016800D01*
X015704Y016875D02*
X015854Y016725D01*
X016015Y016725D02*
X016315Y017025D01*
X016315Y017100D01*
X016240Y017175D01*
X016090Y017175D01*
X016015Y017100D01*
X016015Y016725D02*
X016315Y016725D01*
X016240Y018475D02*
X016090Y018475D01*
X016015Y018550D01*
X015854Y018550D02*
X015779Y018475D01*
X015629Y018475D01*
X015554Y018550D01*
X015554Y018850D01*
X015629Y018925D01*
X015779Y018925D01*
X015854Y018850D01*
X015854Y018550D01*
X015854Y018475D02*
X015704Y018625D01*
X016015Y018850D02*
X016090Y018925D01*
X016240Y018925D01*
X016315Y018850D01*
X016315Y018775D01*
X016240Y018700D01*
X016315Y018625D01*
X016315Y018550D01*
X016240Y018475D01*
X016240Y018700D02*
X016165Y018700D01*
X016240Y019975D02*
X016240Y020425D01*
X016015Y020200D01*
X016315Y020200D01*
X015854Y020050D02*
X015779Y019975D01*
X015629Y019975D01*
X015554Y020050D01*
X015554Y020350D01*
X015629Y020425D01*
X015779Y020425D01*
X015854Y020350D01*
X015854Y020050D01*
X015854Y019975D02*
X015704Y020125D01*
X015621Y021725D02*
X015471Y021725D01*
X015396Y021800D01*
X015236Y021725D02*
X014935Y021725D01*
X015086Y021725D02*
X015086Y022175D01*
X014935Y022025D01*
X014775Y022100D02*
X014700Y022175D01*
X014550Y022175D01*
X014475Y022100D01*
X014475Y021800D01*
X014550Y021725D01*
X014700Y021725D01*
X014775Y021800D01*
X015396Y022100D02*
X015471Y022175D01*
X015621Y022175D01*
X015696Y022100D01*
X015696Y022025D01*
X015621Y021950D01*
X015696Y021875D01*
X015696Y021800D01*
X015621Y021725D01*
X015621Y021950D02*
X015546Y021950D01*
X014425Y023475D02*
X013975Y023475D01*
X013975Y023700D01*
X014050Y023775D01*
X014200Y023775D01*
X014275Y023700D01*
X014275Y023475D01*
X014275Y023625D02*
X014425Y023775D01*
X014350Y023935D02*
X014425Y024010D01*
X014425Y024161D01*
X014350Y024236D01*
X014050Y024236D01*
X013975Y024161D01*
X013975Y024010D01*
X014050Y023935D01*
X014125Y023935D01*
X014200Y024010D01*
X014200Y024236D01*
X017475Y027475D02*
X017625Y027475D01*
X017550Y027475D02*
X017550Y027925D01*
X017475Y027925D02*
X017625Y027925D01*
X017782Y027850D02*
X017857Y027925D01*
X018007Y027925D01*
X018082Y027850D01*
X018242Y027850D02*
X018317Y027925D01*
X018468Y027925D01*
X018543Y027850D01*
X018543Y027775D01*
X018468Y027700D01*
X018543Y027625D01*
X018543Y027550D01*
X018468Y027475D01*
X018317Y027475D01*
X018242Y027550D01*
X018082Y027550D02*
X018007Y027475D01*
X017857Y027475D01*
X017782Y027550D01*
X017782Y027850D01*
X018392Y027700D02*
X018468Y027700D01*
X019475Y027475D02*
X019475Y027925D01*
X019625Y027775D01*
X019775Y027925D01*
X019775Y027475D01*
X019935Y027475D02*
X019935Y027775D01*
X020086Y027925D01*
X020236Y027775D01*
X020236Y027475D01*
X020396Y027475D02*
X020696Y027925D01*
X020856Y027700D02*
X021081Y027700D01*
X021156Y027625D01*
X021156Y027550D01*
X021081Y027475D01*
X020931Y027475D01*
X020856Y027550D01*
X020856Y027700D01*
X021006Y027850D01*
X021156Y027925D01*
X021317Y027775D02*
X021467Y027925D01*
X021467Y027475D01*
X021317Y027475D02*
X021617Y027475D01*
X021777Y027550D02*
X021852Y027475D01*
X022002Y027475D01*
X022077Y027550D01*
X022077Y027850D01*
X022002Y027925D01*
X021852Y027925D01*
X021777Y027850D01*
X021777Y027775D01*
X021852Y027700D01*
X022077Y027700D01*
X020696Y027475D02*
X020396Y027925D01*
X020236Y027700D02*
X019935Y027700D01*
X017736Y028550D02*
X017661Y028475D01*
X017510Y028475D01*
X017435Y028550D01*
X017435Y028700D02*
X017586Y028775D01*
X017661Y028775D01*
X017736Y028700D01*
X017736Y028550D01*
X017435Y028700D02*
X017435Y028925D01*
X017736Y028925D01*
X017275Y028850D02*
X017275Y028550D01*
X017200Y028475D01*
X017050Y028475D01*
X016975Y028550D01*
X016975Y028850D01*
X017050Y028925D01*
X017200Y028925D01*
X017275Y028850D01*
X017125Y028625D02*
X017275Y028475D01*
X022725Y025850D02*
X022725Y025550D01*
X022800Y025475D01*
X022950Y025475D01*
X023025Y025550D01*
X023185Y025475D02*
X023486Y025475D01*
X023336Y025475D02*
X023336Y025925D01*
X023185Y025775D01*
X023025Y025850D02*
X022950Y025925D01*
X022800Y025925D01*
X022725Y025850D01*
X023646Y025700D02*
X023946Y025700D01*
X023871Y025475D02*
X023871Y025925D01*
X023646Y025700D01*
X026225Y025161D02*
X026300Y025236D01*
X026375Y025236D01*
X026450Y025161D01*
X026450Y025010D01*
X026375Y024935D01*
X026300Y024935D01*
X026225Y025010D01*
X026225Y025161D01*
X026450Y025161D02*
X026525Y025236D01*
X026600Y025236D01*
X026675Y025161D01*
X026675Y025010D01*
X026600Y024935D01*
X026525Y024935D01*
X026450Y025010D01*
X026450Y024775D02*
X026525Y024700D01*
X026525Y024475D01*
X026675Y024475D02*
X026225Y024475D01*
X026225Y024700D01*
X026300Y024775D01*
X026450Y024775D01*
X026525Y024625D02*
X026675Y024775D01*
X027550Y022503D02*
X027475Y022428D01*
X027475Y022203D01*
X027925Y022203D01*
X027775Y022203D02*
X027775Y022428D01*
X027700Y022503D01*
X027550Y022503D01*
X027550Y022043D02*
X027475Y021968D01*
X027475Y021817D01*
X027550Y021742D01*
X027625Y021742D01*
X027700Y021817D01*
X027700Y021968D01*
X027775Y022043D01*
X027850Y022043D01*
X027925Y021968D01*
X027925Y021817D01*
X027850Y021742D01*
X027850Y021582D02*
X027925Y021507D01*
X027925Y021357D01*
X027850Y021282D01*
X027550Y021282D01*
X027475Y021357D01*
X027475Y021507D01*
X027550Y021582D01*
X027475Y021125D02*
X027475Y020975D01*
X027475Y021050D02*
X027925Y021050D01*
X027925Y020975D02*
X027925Y021125D01*
X024925Y019371D02*
X024925Y019221D01*
X024850Y019146D01*
X024550Y019446D01*
X024850Y019446D01*
X024925Y019371D01*
X024850Y019146D02*
X024550Y019146D01*
X024475Y019221D01*
X024475Y019371D01*
X024550Y019446D01*
X024925Y018986D02*
X024925Y018685D01*
X024925Y018836D02*
X024475Y018836D01*
X024625Y018685D01*
X024550Y018525D02*
X024475Y018450D01*
X024475Y018300D01*
X024550Y018225D01*
X024850Y018225D01*
X024925Y018300D01*
X024925Y018450D01*
X024850Y018525D01*
X021350Y021975D02*
X021050Y021975D01*
X020975Y022050D01*
X020975Y022200D01*
X021050Y022275D01*
X021125Y022435D02*
X020975Y022586D01*
X021425Y022586D01*
X021425Y022736D02*
X021425Y022435D01*
X021350Y022275D02*
X021425Y022200D01*
X021425Y022050D01*
X021350Y021975D01*
X021425Y022896D02*
X021425Y023196D01*
X021425Y023046D02*
X020975Y023046D01*
X021125Y022896D01*
X012043Y019975D02*
X011742Y019975D01*
X011892Y019975D02*
X011892Y020425D01*
X011742Y020275D01*
X011582Y020350D02*
X011507Y020425D01*
X011357Y020425D01*
X011282Y020350D01*
X011282Y020050D01*
X011357Y019975D01*
X011507Y019975D01*
X011582Y020050D01*
X011125Y019975D02*
X010975Y019975D01*
X011050Y019975D02*
X011050Y020425D01*
X010975Y020425D02*
X011125Y020425D01*
X004175Y020525D02*
X003725Y020225D01*
X003725Y020525D02*
X004175Y020225D01*
X004175Y020685D02*
X003875Y020986D01*
X003800Y020986D01*
X003725Y020911D01*
X003725Y020760D01*
X003800Y020685D01*
X004175Y020685D02*
X004175Y020986D01*
X001986Y027975D02*
X001685Y027975D01*
X001836Y027975D02*
X001836Y028425D01*
X001685Y028275D01*
X001525Y028350D02*
X001450Y028425D01*
X001300Y028425D01*
X001225Y028350D01*
X001225Y028050D01*
X001300Y027975D01*
X001450Y027975D01*
X001525Y028050D01*
X004475Y029800D02*
X004550Y029725D01*
X004700Y029725D01*
X004775Y029800D01*
X004775Y029875D01*
X004700Y029950D01*
X004550Y029950D01*
X004475Y030025D01*
X004475Y030100D01*
X004550Y030175D01*
X004700Y030175D01*
X004775Y030100D01*
X004935Y030175D02*
X004935Y029725D01*
X005236Y029725D01*
X005396Y029725D02*
X005396Y030175D01*
X005696Y029725D01*
X005696Y030175D01*
X005856Y030100D02*
X005856Y030025D01*
X005931Y029950D01*
X006081Y029950D01*
X006156Y029875D01*
X006156Y029800D01*
X006081Y029725D01*
X005931Y029725D01*
X005856Y029800D01*
X005856Y030100D02*
X005931Y030175D01*
X006081Y030175D01*
X006156Y030100D01*
X006317Y030025D02*
X006467Y030175D01*
X006467Y029725D01*
X006317Y029725D02*
X006617Y029725D01*
X005236Y030175D02*
X004935Y030175D01*
X004935Y029950D02*
X005086Y029950D01*
X008975Y030075D02*
X008975Y029625D01*
X008975Y029775D02*
X009200Y029775D01*
X009275Y029850D01*
X009275Y030000D01*
X009200Y030075D01*
X008975Y030075D01*
X009125Y029775D02*
X009275Y029625D01*
X009435Y029625D02*
X009435Y029700D01*
X009736Y030000D01*
X009736Y030075D01*
X009435Y030075D01*
X016379Y013425D02*
X016529Y013425D01*
X016604Y013350D01*
X016604Y013050D01*
X016529Y012975D01*
X016379Y012975D01*
X016304Y013050D01*
X016304Y013350D01*
X016379Y013425D01*
X016454Y013125D02*
X016604Y012975D01*
X016765Y012975D02*
X017065Y012975D01*
X016915Y012975D02*
X016915Y013425D01*
X016765Y013275D01*
X020475Y013125D02*
X020700Y013125D01*
X020775Y013200D01*
X020775Y013350D01*
X020700Y013425D01*
X020475Y013425D01*
X020475Y012975D01*
X020625Y013125D02*
X020775Y012975D01*
X020935Y012975D02*
X021236Y012975D01*
X021086Y012975D02*
X021086Y013425D01*
X020935Y013275D01*
X022975Y013100D02*
X022975Y012800D01*
X023050Y012725D01*
X023200Y012725D01*
X023275Y012800D01*
X023435Y012800D02*
X023736Y013100D01*
X023736Y013175D01*
X023435Y013175D01*
X023275Y013100D02*
X023200Y013175D01*
X023050Y013175D01*
X022975Y013100D01*
X023435Y012800D02*
X023435Y012725D01*
X023341Y010895D02*
X023416Y010820D01*
X023416Y010745D01*
X023341Y010670D01*
X023416Y010595D01*
X023416Y010520D01*
X023341Y010445D01*
X023191Y010445D01*
X023116Y010520D01*
X023266Y010670D02*
X023341Y010670D01*
X023341Y010895D02*
X023191Y010895D01*
X023116Y010820D01*
X022956Y010820D02*
X022956Y010670D01*
X022881Y010595D01*
X022655Y010595D01*
X022655Y010445D02*
X022655Y010895D01*
X022881Y010895D01*
X022956Y010820D01*
X022495Y010895D02*
X022345Y010895D01*
X022420Y010895D02*
X022420Y010520D01*
X022345Y010445D01*
X022270Y010445D01*
X022195Y010520D01*
X024450Y005543D02*
X024450Y005242D01*
X024225Y005468D01*
X024675Y005468D01*
X024600Y005082D02*
X024675Y005007D01*
X024675Y004857D01*
X024600Y004782D01*
X024300Y004782D01*
X024225Y004857D01*
X024225Y005007D01*
X024300Y005082D01*
X024225Y004625D02*
X024225Y004475D01*
X024225Y004550D02*
X024675Y004550D01*
X024675Y004475D02*
X024675Y004625D01*
X025466Y003700D02*
X025468Y003762D01*
X025474Y003825D01*
X025484Y003886D01*
X025498Y003947D01*
X025515Y004007D01*
X025536Y004066D01*
X025562Y004123D01*
X025590Y004178D01*
X025622Y004232D01*
X025658Y004283D01*
X025696Y004333D01*
X025738Y004379D01*
X025782Y004423D01*
X025830Y004464D01*
X025879Y004502D01*
X025931Y004536D01*
X025985Y004567D01*
X026041Y004595D01*
X026099Y004619D01*
X026158Y004640D01*
X026218Y004656D01*
X026279Y004669D01*
X026341Y004678D01*
X026403Y004683D01*
X026466Y004684D01*
X026528Y004681D01*
X026590Y004674D01*
X026652Y004663D01*
X026712Y004648D01*
X026772Y004630D01*
X026830Y004608D01*
X026887Y004582D01*
X026942Y004552D01*
X026995Y004519D01*
X027046Y004483D01*
X027094Y004444D01*
X027140Y004401D01*
X027183Y004356D01*
X027223Y004308D01*
X027260Y004258D01*
X027294Y004205D01*
X027325Y004151D01*
X027351Y004095D01*
X027375Y004037D01*
X027394Y003977D01*
X027410Y003917D01*
X027422Y003855D01*
X027430Y003794D01*
X027434Y003731D01*
X027434Y003669D01*
X027430Y003606D01*
X027422Y003545D01*
X027410Y003483D01*
X027394Y003423D01*
X027375Y003363D01*
X027351Y003305D01*
X027325Y003249D01*
X027294Y003195D01*
X027260Y003142D01*
X027223Y003092D01*
X027183Y003044D01*
X027140Y002999D01*
X027094Y002956D01*
X027046Y002917D01*
X026995Y002881D01*
X026942Y002848D01*
X026887Y002818D01*
X026830Y002792D01*
X026772Y002770D01*
X026712Y002752D01*
X026652Y002737D01*
X026590Y002726D01*
X026528Y002719D01*
X026466Y002716D01*
X026403Y002717D01*
X026341Y002722D01*
X026279Y002731D01*
X026218Y002744D01*
X026158Y002760D01*
X026099Y002781D01*
X026041Y002805D01*
X025985Y002833D01*
X025931Y002864D01*
X025879Y002898D01*
X025830Y002936D01*
X025782Y002977D01*
X025738Y003021D01*
X025696Y003067D01*
X025658Y003117D01*
X025622Y003168D01*
X025590Y003222D01*
X025562Y003277D01*
X025536Y003334D01*
X025515Y003393D01*
X025498Y003453D01*
X025484Y003514D01*
X025474Y003575D01*
X025468Y003638D01*
X025466Y003700D01*
X025527Y003700D02*
X025529Y003782D01*
X025535Y003864D01*
X025545Y003945D01*
X025559Y004026D01*
X025577Y004107D01*
X025599Y004186D01*
X025625Y004264D01*
X025654Y004340D01*
X025688Y004415D01*
X025725Y004489D01*
X025765Y004560D01*
X025809Y004629D01*
X025856Y004697D01*
X025907Y004761D01*
X025960Y004824D01*
X026017Y004883D01*
X026076Y004940D01*
X026139Y004993D01*
X026203Y005044D01*
X026271Y005091D01*
X026340Y005135D01*
X026411Y005175D01*
X026485Y005212D01*
X026560Y005246D01*
X026636Y005275D01*
X026714Y005301D01*
X026793Y005323D01*
X026874Y005341D01*
X026955Y005355D01*
X027036Y005365D01*
X027118Y005371D01*
X027200Y005373D01*
X027282Y005371D01*
X027364Y005365D01*
X027445Y005355D01*
X027526Y005341D01*
X027607Y005323D01*
X027686Y005301D01*
X027764Y005275D01*
X027840Y005246D01*
X027915Y005212D01*
X027989Y005175D01*
X028060Y005135D01*
X028129Y005091D01*
X028197Y005044D01*
X028261Y004993D01*
X028324Y004940D01*
X028383Y004883D01*
X028440Y004824D01*
X028493Y004761D01*
X028544Y004697D01*
X028591Y004629D01*
X028635Y004560D01*
X028675Y004489D01*
X028712Y004415D01*
X028746Y004340D01*
X028775Y004264D01*
X028801Y004186D01*
X028823Y004107D01*
X028841Y004026D01*
X028855Y003945D01*
X028865Y003864D01*
X028871Y003782D01*
X028873Y003700D01*
X028871Y003618D01*
X028865Y003536D01*
X028855Y003455D01*
X028841Y003374D01*
X028823Y003293D01*
X028801Y003214D01*
X028775Y003136D01*
X028746Y003060D01*
X028712Y002985D01*
X028675Y002911D01*
X028635Y002840D01*
X028591Y002771D01*
X028544Y002703D01*
X028493Y002639D01*
X028440Y002576D01*
X028383Y002517D01*
X028324Y002460D01*
X028261Y002407D01*
X028197Y002356D01*
X028129Y002309D01*
X028060Y002265D01*
X027989Y002225D01*
X027915Y002188D01*
X027840Y002154D01*
X027764Y002125D01*
X027686Y002099D01*
X027607Y002077D01*
X027526Y002059D01*
X027445Y002045D01*
X027364Y002035D01*
X027282Y002029D01*
X027200Y002027D01*
X027118Y002029D01*
X027036Y002035D01*
X026955Y002045D01*
X026874Y002059D01*
X026793Y002077D01*
X026714Y002099D01*
X026636Y002125D01*
X026560Y002154D01*
X026485Y002188D01*
X026411Y002225D01*
X026340Y002265D01*
X026271Y002309D01*
X026203Y002356D01*
X026139Y002407D01*
X026076Y002460D01*
X026017Y002517D01*
X025960Y002576D01*
X025907Y002639D01*
X025856Y002703D01*
X025809Y002771D01*
X025765Y002840D01*
X025725Y002911D01*
X025688Y002985D01*
X025654Y003060D01*
X025625Y003136D01*
X025599Y003214D01*
X025577Y003293D01*
X025559Y003374D01*
X025545Y003455D01*
X025535Y003536D01*
X025529Y003618D01*
X025527Y003700D01*
X027725Y003825D02*
X028025Y003825D01*
X028185Y003825D02*
X028486Y004125D01*
X028486Y004200D01*
X028411Y004275D01*
X028260Y004275D01*
X028185Y004200D01*
X028185Y003825D02*
X028486Y003825D01*
X027725Y003825D02*
X027725Y004275D01*
X029475Y003411D02*
X029700Y003185D01*
X029700Y003486D01*
X029925Y003411D02*
X029475Y003411D01*
X029550Y003025D02*
X029475Y002950D01*
X029475Y002800D01*
X029550Y002725D01*
X029850Y002725D01*
X029925Y002800D01*
X029925Y002950D01*
X029850Y003025D01*
X028986Y002200D02*
X028911Y002275D01*
X028760Y002275D01*
X028685Y002200D01*
X028836Y002050D02*
X028911Y002050D01*
X028986Y001975D01*
X028986Y001900D01*
X028911Y001825D01*
X028760Y001825D01*
X028685Y001900D01*
X028525Y001825D02*
X028225Y001825D01*
X028225Y002275D01*
X028911Y002050D02*
X028986Y002125D01*
X028986Y002200D01*
X031975Y001925D02*
X031975Y001475D01*
X032200Y001475D01*
X032275Y001550D01*
X032275Y001850D01*
X032200Y001925D01*
X031975Y001925D01*
X032435Y001775D02*
X032586Y001925D01*
X032586Y001475D01*
X032736Y001475D02*
X032435Y001475D01*
X035050Y004475D02*
X035200Y004475D01*
X035275Y004550D01*
X035435Y004550D02*
X035510Y004475D01*
X035661Y004475D01*
X035736Y004550D01*
X035736Y004700D01*
X035661Y004775D01*
X035586Y004775D01*
X035435Y004700D01*
X035435Y004925D01*
X035736Y004925D01*
X035275Y004850D02*
X035200Y004925D01*
X035050Y004925D01*
X034975Y004850D01*
X034975Y004550D01*
X035050Y004475D01*
X038325Y005300D02*
X038400Y005225D01*
X038700Y005225D01*
X038775Y005300D01*
X038775Y005450D01*
X038700Y005525D01*
X038700Y005685D02*
X038775Y005760D01*
X038775Y005911D01*
X038700Y005986D01*
X038625Y005986D01*
X038550Y005911D01*
X038550Y005836D01*
X038550Y005911D02*
X038475Y005986D01*
X038400Y005986D01*
X038325Y005911D01*
X038325Y005760D01*
X038400Y005685D01*
X038400Y005525D02*
X038325Y005450D01*
X038325Y005300D01*
X036027Y008700D02*
X036029Y008782D01*
X036035Y008864D01*
X036045Y008945D01*
X036059Y009026D01*
X036077Y009107D01*
X036099Y009186D01*
X036125Y009264D01*
X036154Y009340D01*
X036188Y009415D01*
X036225Y009489D01*
X036265Y009560D01*
X036309Y009629D01*
X036356Y009697D01*
X036407Y009761D01*
X036460Y009824D01*
X036517Y009883D01*
X036576Y009940D01*
X036639Y009993D01*
X036703Y010044D01*
X036771Y010091D01*
X036840Y010135D01*
X036911Y010175D01*
X036985Y010212D01*
X037060Y010246D01*
X037136Y010275D01*
X037214Y010301D01*
X037293Y010323D01*
X037374Y010341D01*
X037455Y010355D01*
X037536Y010365D01*
X037618Y010371D01*
X037700Y010373D01*
X037782Y010371D01*
X037864Y010365D01*
X037945Y010355D01*
X038026Y010341D01*
X038107Y010323D01*
X038186Y010301D01*
X038264Y010275D01*
X038340Y010246D01*
X038415Y010212D01*
X038489Y010175D01*
X038560Y010135D01*
X038629Y010091D01*
X038697Y010044D01*
X038761Y009993D01*
X038824Y009940D01*
X038883Y009883D01*
X038940Y009824D01*
X038993Y009761D01*
X039044Y009697D01*
X039091Y009629D01*
X039135Y009560D01*
X039175Y009489D01*
X039212Y009415D01*
X039246Y009340D01*
X039275Y009264D01*
X039301Y009186D01*
X039323Y009107D01*
X039341Y009026D01*
X039355Y008945D01*
X039365Y008864D01*
X039371Y008782D01*
X039373Y008700D01*
X039371Y008618D01*
X039365Y008536D01*
X039355Y008455D01*
X039341Y008374D01*
X039323Y008293D01*
X039301Y008214D01*
X039275Y008136D01*
X039246Y008060D01*
X039212Y007985D01*
X039175Y007911D01*
X039135Y007840D01*
X039091Y007771D01*
X039044Y007703D01*
X038993Y007639D01*
X038940Y007576D01*
X038883Y007517D01*
X038824Y007460D01*
X038761Y007407D01*
X038697Y007356D01*
X038629Y007309D01*
X038560Y007265D01*
X038489Y007225D01*
X038415Y007188D01*
X038340Y007154D01*
X038264Y007125D01*
X038186Y007099D01*
X038107Y007077D01*
X038026Y007059D01*
X037945Y007045D01*
X037864Y007035D01*
X037782Y007029D01*
X037700Y007027D01*
X037618Y007029D01*
X037536Y007035D01*
X037455Y007045D01*
X037374Y007059D01*
X037293Y007077D01*
X037214Y007099D01*
X037136Y007125D01*
X037060Y007154D01*
X036985Y007188D01*
X036911Y007225D01*
X036840Y007265D01*
X036771Y007309D01*
X036703Y007356D01*
X036639Y007407D01*
X036576Y007460D01*
X036517Y007517D01*
X036460Y007576D01*
X036407Y007639D01*
X036356Y007703D01*
X036309Y007771D01*
X036265Y007840D01*
X036225Y007911D01*
X036188Y007985D01*
X036154Y008060D01*
X036125Y008136D01*
X036099Y008214D01*
X036077Y008293D01*
X036059Y008374D01*
X036045Y008455D01*
X036035Y008536D01*
X036029Y008618D01*
X036027Y008700D01*
X036725Y009225D02*
X037025Y009225D01*
X037185Y009225D02*
X037486Y009225D01*
X037336Y009225D02*
X037336Y009675D01*
X037185Y009525D01*
X036725Y009675D02*
X036725Y009225D01*
X033293Y010475D02*
X032992Y010475D01*
X033293Y010775D01*
X033293Y010850D01*
X033218Y010925D01*
X033067Y010925D01*
X032992Y010850D01*
X032832Y010850D02*
X032757Y010925D01*
X032607Y010925D01*
X032532Y010850D01*
X032532Y010550D01*
X032607Y010475D01*
X032757Y010475D01*
X032832Y010550D01*
X032375Y010475D02*
X032225Y010475D01*
X032300Y010475D02*
X032300Y010925D01*
X032225Y010925D02*
X032375Y010925D01*
X031117Y010350D02*
X031042Y010425D01*
X030892Y010425D01*
X030817Y010350D01*
X030656Y010350D02*
X030581Y010425D01*
X030431Y010425D01*
X030356Y010350D01*
X030356Y010275D01*
X030431Y010200D01*
X030581Y010200D01*
X030656Y010125D01*
X030656Y010050D01*
X030581Y009975D01*
X030431Y009975D01*
X030356Y010050D01*
X030196Y009975D02*
X029896Y010425D01*
X029896Y009975D01*
X029736Y009975D02*
X029435Y009975D01*
X029435Y010425D01*
X029736Y010425D01*
X029586Y010200D02*
X029435Y010200D01*
X029275Y010125D02*
X029275Y010050D01*
X029200Y009975D01*
X029050Y009975D01*
X028975Y010050D01*
X029050Y010200D02*
X029200Y010200D01*
X029275Y010125D01*
X029275Y010350D02*
X029200Y010425D01*
X029050Y010425D01*
X028975Y010350D01*
X028975Y010275D01*
X029050Y010200D01*
X030196Y009975D02*
X030196Y010425D01*
X030817Y009975D02*
X031117Y010275D01*
X031117Y010350D01*
X031117Y009975D02*
X030817Y009975D01*
X028850Y007736D02*
X028775Y007736D01*
X028700Y007661D01*
X028700Y007435D01*
X028850Y007435D01*
X028925Y007510D01*
X028925Y007661D01*
X028850Y007736D01*
X028550Y007586D02*
X028700Y007435D01*
X028550Y007586D02*
X028475Y007736D01*
X028550Y007275D02*
X028475Y007200D01*
X028475Y007050D01*
X028550Y006975D01*
X028850Y006975D01*
X028925Y007050D01*
X028925Y007200D01*
X028850Y007275D01*
X033550Y015975D02*
X033700Y015975D01*
X033775Y016050D01*
X033935Y015975D02*
X034236Y015975D01*
X034086Y015975D02*
X034086Y016425D01*
X033935Y016275D01*
X033775Y016350D02*
X033700Y016425D01*
X033550Y016425D01*
X033475Y016350D01*
X033475Y016050D01*
X033550Y015975D01*
X034396Y015975D02*
X034696Y016275D01*
X034696Y016350D01*
X034621Y016425D01*
X034471Y016425D01*
X034396Y016350D01*
X034396Y015975D02*
X034696Y015975D01*
X033446Y021975D02*
X033146Y021975D01*
X033296Y021975D02*
X033296Y022425D01*
X033146Y022275D01*
X032986Y022425D02*
X032685Y022425D01*
X032685Y021975D01*
X032525Y021975D02*
X032375Y022125D01*
X032450Y022125D02*
X032225Y022125D01*
X032225Y021975D02*
X032225Y022425D01*
X032450Y022425D01*
X032525Y022350D01*
X032525Y022200D01*
X032450Y022125D01*
X032685Y022200D02*
X032836Y022200D01*
X035300Y028975D02*
X035600Y028975D01*
X035675Y029050D01*
X035675Y029200D01*
X035600Y029275D01*
X035600Y029435D02*
X035525Y029435D01*
X035450Y029510D01*
X035450Y029661D01*
X035525Y029736D01*
X035600Y029736D01*
X035675Y029661D01*
X035675Y029510D01*
X035600Y029435D01*
X035450Y029510D02*
X035375Y029435D01*
X035300Y029435D01*
X035225Y029510D01*
X035225Y029661D01*
X035300Y029736D01*
X035375Y029736D01*
X035450Y029661D01*
X035300Y029275D02*
X035225Y029200D01*
X035225Y029050D01*
X035300Y028975D01*
D13*
X034950Y030200D02*
X034450Y030200D01*
X034200Y030450D01*
X033950Y030200D01*
X033450Y030200D01*
X033200Y030450D01*
X032950Y030200D01*
X032450Y030200D01*
X032200Y030450D01*
X031950Y030200D01*
X031450Y030200D01*
X031200Y030450D01*
X030950Y030200D01*
X030450Y030200D01*
X030200Y030450D01*
X029950Y030200D01*
X029450Y030200D01*
X029200Y030450D01*
X028950Y030200D01*
X028450Y030200D01*
X028200Y030450D01*
X027950Y030200D01*
X027450Y030200D01*
X027200Y030450D01*
X027200Y030950D01*
X027450Y031200D01*
X027950Y031200D01*
X028200Y030950D01*
X028450Y031200D01*
X028950Y031200D01*
X029200Y030950D01*
X029450Y031200D01*
X029950Y031200D01*
X030200Y030950D01*
X030450Y031200D01*
X030950Y031200D01*
X031200Y030950D01*
X031450Y031200D01*
X031950Y031200D01*
X032200Y030950D01*
X032450Y031200D01*
X032950Y031200D01*
X033200Y030950D01*
X033450Y031200D01*
X033950Y031200D01*
X034200Y030950D01*
X034450Y031200D01*
X034950Y031200D01*
X035200Y030950D01*
X035200Y030450D01*
X034950Y030200D01*
X036750Y028400D02*
X036750Y028000D01*
X035216Y027700D02*
X035218Y027762D01*
X035224Y027825D01*
X035234Y027886D01*
X035248Y027947D01*
X035265Y028007D01*
X035286Y028066D01*
X035312Y028123D01*
X035340Y028178D01*
X035372Y028232D01*
X035408Y028283D01*
X035446Y028333D01*
X035488Y028379D01*
X035532Y028423D01*
X035580Y028464D01*
X035629Y028502D01*
X035681Y028536D01*
X035735Y028567D01*
X035791Y028595D01*
X035849Y028619D01*
X035908Y028640D01*
X035968Y028656D01*
X036029Y028669D01*
X036091Y028678D01*
X036153Y028683D01*
X036216Y028684D01*
X036278Y028681D01*
X036340Y028674D01*
X036402Y028663D01*
X036462Y028648D01*
X036522Y028630D01*
X036580Y028608D01*
X036637Y028582D01*
X036692Y028552D01*
X036745Y028519D01*
X036796Y028483D01*
X036844Y028444D01*
X036890Y028401D01*
X036933Y028356D01*
X036973Y028308D01*
X037010Y028258D01*
X037044Y028205D01*
X037075Y028151D01*
X037101Y028095D01*
X037125Y028037D01*
X037144Y027977D01*
X037160Y027917D01*
X037172Y027855D01*
X037180Y027794D01*
X037184Y027731D01*
X037184Y027669D01*
X037180Y027606D01*
X037172Y027545D01*
X037160Y027483D01*
X037144Y027423D01*
X037125Y027363D01*
X037101Y027305D01*
X037075Y027249D01*
X037044Y027195D01*
X037010Y027142D01*
X036973Y027092D01*
X036933Y027044D01*
X036890Y026999D01*
X036844Y026956D01*
X036796Y026917D01*
X036745Y026881D01*
X036692Y026848D01*
X036637Y026818D01*
X036580Y026792D01*
X036522Y026770D01*
X036462Y026752D01*
X036402Y026737D01*
X036340Y026726D01*
X036278Y026719D01*
X036216Y026716D01*
X036153Y026717D01*
X036091Y026722D01*
X036029Y026731D01*
X035968Y026744D01*
X035908Y026760D01*
X035849Y026781D01*
X035791Y026805D01*
X035735Y026833D01*
X035681Y026864D01*
X035629Y026898D01*
X035580Y026936D01*
X035532Y026977D01*
X035488Y027021D01*
X035446Y027067D01*
X035408Y027117D01*
X035372Y027168D01*
X035340Y027222D01*
X035312Y027277D01*
X035286Y027334D01*
X035265Y027393D01*
X035248Y027453D01*
X035234Y027514D01*
X035224Y027575D01*
X035218Y027638D01*
X035216Y027700D01*
X038200Y027450D02*
X038200Y026950D01*
X039066Y026523D02*
X030995Y026523D01*
X030995Y025539D01*
X039066Y025539D01*
X039066Y026523D01*
X037320Y029950D02*
X037322Y030000D01*
X037328Y030050D01*
X037338Y030099D01*
X037352Y030147D01*
X037369Y030194D01*
X037390Y030239D01*
X037415Y030283D01*
X037443Y030324D01*
X037475Y030363D01*
X037509Y030400D01*
X037546Y030434D01*
X037586Y030464D01*
X037628Y030491D01*
X037672Y030515D01*
X037718Y030536D01*
X037765Y030552D01*
X037813Y030565D01*
X037863Y030574D01*
X037912Y030579D01*
X037963Y030580D01*
X038013Y030577D01*
X038062Y030570D01*
X038111Y030559D01*
X038159Y030544D01*
X038205Y030526D01*
X038250Y030504D01*
X038293Y030478D01*
X038334Y030449D01*
X038373Y030417D01*
X038409Y030382D01*
X038441Y030344D01*
X038471Y030304D01*
X038498Y030261D01*
X038521Y030217D01*
X038540Y030171D01*
X038556Y030123D01*
X038568Y030074D01*
X038576Y030025D01*
X038580Y029975D01*
X038580Y029925D01*
X038576Y029875D01*
X038568Y029826D01*
X038556Y029777D01*
X038540Y029729D01*
X038521Y029683D01*
X038498Y029639D01*
X038471Y029596D01*
X038441Y029556D01*
X038409Y029518D01*
X038373Y029483D01*
X038334Y029451D01*
X038293Y029422D01*
X038250Y029396D01*
X038205Y029374D01*
X038159Y029356D01*
X038111Y029341D01*
X038062Y029330D01*
X038013Y029323D01*
X037963Y029320D01*
X037912Y029321D01*
X037863Y029326D01*
X037813Y029335D01*
X037765Y029348D01*
X037718Y029364D01*
X037672Y029385D01*
X037628Y029409D01*
X037586Y029436D01*
X037546Y029466D01*
X037509Y029500D01*
X037475Y029537D01*
X037443Y029576D01*
X037415Y029617D01*
X037390Y029661D01*
X037369Y029706D01*
X037352Y029753D01*
X037338Y029801D01*
X037328Y029850D01*
X037322Y029900D01*
X037320Y029950D01*
X027922Y026940D02*
X027922Y024460D01*
X026978Y024460D01*
X026978Y026940D01*
X027922Y026940D01*
X026200Y026950D02*
X026200Y026450D01*
X025950Y026200D01*
X025450Y026200D01*
X025200Y026450D01*
X024950Y026200D01*
X024450Y026200D01*
X024200Y026450D01*
X024200Y026950D01*
X024450Y027200D01*
X024200Y027450D01*
X024200Y027950D01*
X024450Y028200D01*
X024200Y028450D01*
X024200Y028950D01*
X024450Y029200D01*
X024950Y029200D01*
X025200Y028950D01*
X025200Y028450D01*
X024950Y028200D01*
X025200Y027950D01*
X025200Y027450D01*
X024950Y027200D01*
X025200Y026950D01*
X025200Y026450D01*
X025200Y026950D01*
X025450Y027200D01*
X025200Y027450D01*
X025200Y027950D01*
X025450Y028200D01*
X025200Y028450D01*
X025200Y028950D01*
X025450Y029200D01*
X025950Y029200D01*
X026200Y028950D01*
X026200Y028450D01*
X025950Y028200D01*
X026200Y027950D01*
X026200Y027450D01*
X025950Y027200D01*
X026200Y026950D01*
X022450Y025200D02*
X021950Y025200D01*
X021450Y025200D02*
X020950Y025200D01*
X017543Y023000D02*
X017545Y023015D01*
X017551Y023028D01*
X017560Y023040D01*
X017571Y023049D01*
X017585Y023055D01*
X017600Y023057D01*
X017615Y023055D01*
X017628Y023049D01*
X017640Y023040D01*
X017649Y023029D01*
X017655Y023015D01*
X017657Y023000D01*
X017655Y022985D01*
X017649Y022972D01*
X017640Y022960D01*
X017629Y022951D01*
X017615Y022945D01*
X017600Y022943D01*
X017585Y022945D01*
X017572Y022951D01*
X017560Y022960D01*
X017551Y022971D01*
X017545Y022985D01*
X017543Y023000D01*
X016875Y021350D02*
X018525Y021350D01*
X018650Y020800D02*
X018745Y020800D01*
X017740Y020800D02*
X017660Y020800D01*
X016876Y021350D02*
X016837Y021301D01*
X016800Y021250D01*
X016767Y021197D01*
X016737Y021143D01*
X016711Y021086D01*
X016688Y021028D01*
X016668Y020969D01*
X016652Y020908D01*
X016640Y020847D01*
X016631Y020785D01*
X016626Y020723D01*
X016625Y020660D01*
X016628Y020598D01*
X016634Y020535D01*
X016644Y020474D01*
X016658Y020413D01*
X016675Y020353D01*
X016696Y020294D01*
X016720Y020236D01*
X016748Y020180D01*
X016779Y020126D01*
X016814Y020074D01*
X016851Y020024D01*
X016891Y019976D01*
X016935Y019931D01*
X016980Y019888D01*
X017029Y019848D01*
X017079Y019812D01*
X017132Y019778D01*
X017186Y019747D01*
X017243Y019720D01*
X017300Y019697D01*
X016875Y019350D02*
X018525Y019350D01*
X018650Y018800D02*
X018745Y018800D01*
X017740Y018800D02*
X017660Y018800D01*
X016876Y019350D02*
X016837Y019301D01*
X016800Y019250D01*
X016767Y019197D01*
X016737Y019143D01*
X016711Y019086D01*
X016688Y019028D01*
X016668Y018969D01*
X016652Y018908D01*
X016640Y018847D01*
X016631Y018785D01*
X016626Y018723D01*
X016625Y018660D01*
X016628Y018598D01*
X016634Y018535D01*
X016644Y018474D01*
X016658Y018413D01*
X016675Y018353D01*
X016696Y018294D01*
X016720Y018236D01*
X016748Y018180D01*
X016779Y018126D01*
X016814Y018074D01*
X016851Y018024D01*
X016891Y017976D01*
X016935Y017931D01*
X016980Y017888D01*
X017029Y017848D01*
X017079Y017812D01*
X017132Y017778D01*
X017186Y017747D01*
X017243Y017720D01*
X017300Y017697D01*
X016875Y017350D02*
X018525Y017350D01*
X018650Y016800D02*
X018745Y016800D01*
X017740Y016800D02*
X017660Y016800D01*
X016876Y017350D02*
X016837Y017301D01*
X016800Y017250D01*
X016767Y017197D01*
X016737Y017143D01*
X016711Y017086D01*
X016688Y017028D01*
X016668Y016969D01*
X016652Y016908D01*
X016640Y016847D01*
X016631Y016785D01*
X016626Y016723D01*
X016625Y016660D01*
X016628Y016598D01*
X016634Y016535D01*
X016644Y016474D01*
X016658Y016413D01*
X016675Y016353D01*
X016696Y016294D01*
X016720Y016236D01*
X016748Y016180D01*
X016779Y016126D01*
X016814Y016074D01*
X016851Y016024D01*
X016891Y015976D01*
X016935Y015931D01*
X016980Y015888D01*
X017029Y015848D01*
X017079Y015812D01*
X017132Y015778D01*
X017186Y015747D01*
X017243Y015720D01*
X017300Y015697D01*
X016875Y015350D02*
X018525Y015350D01*
X018650Y014800D02*
X018745Y014800D01*
X017740Y014800D02*
X017660Y014800D01*
X016876Y015350D02*
X016837Y015301D01*
X016800Y015250D01*
X016767Y015197D01*
X016737Y015143D01*
X016711Y015086D01*
X016688Y015028D01*
X016668Y014969D01*
X016652Y014908D01*
X016640Y014847D01*
X016631Y014785D01*
X016626Y014723D01*
X016625Y014660D01*
X016628Y014598D01*
X016634Y014535D01*
X016644Y014474D01*
X016658Y014413D01*
X016675Y014353D01*
X016696Y014294D01*
X016720Y014236D01*
X016748Y014180D01*
X016779Y014126D01*
X016814Y014074D01*
X016851Y014024D01*
X016891Y013976D01*
X016935Y013931D01*
X016980Y013888D01*
X017029Y013848D01*
X017079Y013812D01*
X017132Y013778D01*
X017186Y013747D01*
X017243Y013720D01*
X017300Y013697D01*
X018100Y013697D02*
X018157Y013720D01*
X018214Y013747D01*
X018268Y013778D01*
X018321Y013812D01*
X018371Y013848D01*
X018420Y013888D01*
X018465Y013931D01*
X018509Y013976D01*
X018549Y014024D01*
X018586Y014074D01*
X018621Y014126D01*
X018652Y014180D01*
X018680Y014236D01*
X018704Y014294D01*
X018725Y014353D01*
X018742Y014413D01*
X018756Y014474D01*
X018766Y014535D01*
X018772Y014598D01*
X018775Y014660D01*
X018774Y014723D01*
X018769Y014785D01*
X018760Y014847D01*
X018748Y014908D01*
X018732Y014969D01*
X018712Y015028D01*
X018689Y015086D01*
X018663Y015143D01*
X018633Y015197D01*
X018600Y015250D01*
X018563Y015301D01*
X018524Y015350D01*
X018100Y015697D02*
X018157Y015720D01*
X018214Y015747D01*
X018268Y015778D01*
X018321Y015812D01*
X018371Y015848D01*
X018420Y015888D01*
X018465Y015931D01*
X018509Y015976D01*
X018549Y016024D01*
X018586Y016074D01*
X018621Y016126D01*
X018652Y016180D01*
X018680Y016236D01*
X018704Y016294D01*
X018725Y016353D01*
X018742Y016413D01*
X018756Y016474D01*
X018766Y016535D01*
X018772Y016598D01*
X018775Y016660D01*
X018774Y016723D01*
X018769Y016785D01*
X018760Y016847D01*
X018748Y016908D01*
X018732Y016969D01*
X018712Y017028D01*
X018689Y017086D01*
X018663Y017143D01*
X018633Y017197D01*
X018600Y017250D01*
X018563Y017301D01*
X018524Y017350D01*
X018100Y017697D02*
X018157Y017720D01*
X018214Y017747D01*
X018268Y017778D01*
X018321Y017812D01*
X018371Y017848D01*
X018420Y017888D01*
X018465Y017931D01*
X018509Y017976D01*
X018549Y018024D01*
X018586Y018074D01*
X018621Y018126D01*
X018652Y018180D01*
X018680Y018236D01*
X018704Y018294D01*
X018725Y018353D01*
X018742Y018413D01*
X018756Y018474D01*
X018766Y018535D01*
X018772Y018598D01*
X018775Y018660D01*
X018774Y018723D01*
X018769Y018785D01*
X018760Y018847D01*
X018748Y018908D01*
X018732Y018969D01*
X018712Y019028D01*
X018689Y019086D01*
X018663Y019143D01*
X018633Y019197D01*
X018600Y019250D01*
X018563Y019301D01*
X018524Y019350D01*
X018100Y019697D02*
X018157Y019720D01*
X018214Y019747D01*
X018268Y019778D01*
X018321Y019812D01*
X018371Y019848D01*
X018420Y019888D01*
X018465Y019931D01*
X018509Y019976D01*
X018549Y020024D01*
X018586Y020074D01*
X018621Y020126D01*
X018652Y020180D01*
X018680Y020236D01*
X018704Y020294D01*
X018725Y020353D01*
X018742Y020413D01*
X018756Y020474D01*
X018766Y020535D01*
X018772Y020598D01*
X018775Y020660D01*
X018774Y020723D01*
X018769Y020785D01*
X018760Y020847D01*
X018748Y020908D01*
X018732Y020969D01*
X018712Y021028D01*
X018689Y021086D01*
X018663Y021143D01*
X018633Y021197D01*
X018600Y021250D01*
X018563Y021301D01*
X018524Y021350D01*
X016750Y020800D02*
X016655Y020800D01*
X016655Y018800D02*
X016750Y018800D01*
X016750Y016800D02*
X016655Y016800D01*
X015950Y015700D02*
X015450Y015700D01*
X015200Y015450D01*
X015200Y014950D01*
X015450Y014700D01*
X015200Y014450D01*
X015200Y013950D01*
X015450Y013700D01*
X015950Y013700D01*
X016200Y013950D01*
X016200Y014450D01*
X015950Y014700D01*
X016200Y014950D01*
X016200Y015450D01*
X015950Y015700D01*
X016655Y014800D02*
X016750Y014800D01*
X013950Y015200D02*
X013450Y015200D01*
X013450Y012200D02*
X013200Y011950D01*
X012950Y012200D01*
X012450Y012200D01*
X012200Y011950D01*
X011950Y012200D01*
X011450Y012200D01*
X011200Y011950D01*
X011200Y011450D01*
X011450Y011200D01*
X011950Y011200D01*
X012200Y011450D01*
X012450Y011200D01*
X012950Y011200D01*
X013200Y011450D01*
X013450Y011200D01*
X013950Y011200D01*
X014200Y011450D01*
X014450Y011200D01*
X014950Y011200D01*
X015200Y011450D01*
X015450Y011200D01*
X015950Y011200D01*
X016200Y011450D01*
X016450Y011200D01*
X016950Y011200D01*
X017200Y011450D01*
X017450Y011200D01*
X017950Y011200D01*
X018200Y011450D01*
X018450Y011200D01*
X018950Y011200D01*
X019200Y011450D01*
X019200Y011950D01*
X018950Y012200D01*
X018450Y012200D01*
X018200Y011950D01*
X017950Y012200D01*
X017450Y012200D01*
X017200Y011950D01*
X016950Y012200D01*
X016450Y012200D01*
X016200Y011950D01*
X015950Y012200D01*
X015450Y012200D01*
X015200Y011950D01*
X014950Y012200D01*
X014450Y012200D01*
X014200Y011950D01*
X013950Y012200D01*
X013450Y012200D01*
X008637Y011450D02*
X003519Y011450D01*
X003519Y017450D01*
X008637Y017450D01*
X008637Y011450D01*
X008637Y017950D02*
X003519Y017950D01*
X003519Y023950D01*
X008637Y023950D01*
X008637Y017950D01*
X011950Y021700D02*
X011700Y021950D01*
X011700Y022450D01*
X011950Y022700D01*
X011700Y022950D01*
X011700Y023450D01*
X011950Y023700D01*
X011700Y023950D01*
X011700Y024450D01*
X011950Y024700D01*
X012450Y024700D01*
X012700Y024450D01*
X012700Y023950D01*
X012450Y023700D01*
X012700Y023450D01*
X012700Y022950D01*
X012450Y022700D01*
X012700Y022450D01*
X012700Y021950D01*
X012450Y021700D01*
X011950Y021700D01*
X012700Y021950D02*
X012950Y021700D01*
X013450Y021700D01*
X013700Y021950D01*
X013700Y022450D01*
X013450Y022700D01*
X013700Y022950D01*
X013700Y023450D01*
X013450Y023700D01*
X013700Y023950D01*
X013700Y024450D01*
X013450Y024700D01*
X012950Y024700D01*
X012700Y024450D01*
X012700Y023950D01*
X012950Y023700D01*
X012700Y023450D01*
X012700Y022950D01*
X012950Y022700D01*
X012700Y022450D01*
X012700Y021950D01*
X014728Y023460D02*
X014728Y025940D01*
X015672Y025940D01*
X015672Y023460D01*
X014728Y023460D01*
X015950Y025184D02*
X016450Y025184D01*
X016700Y025600D02*
X016700Y026200D01*
X016525Y027550D02*
X014875Y027550D01*
X014750Y028100D02*
X014655Y028100D01*
X015660Y028100D02*
X015740Y028100D01*
X016524Y027550D02*
X016563Y027599D01*
X016600Y027650D01*
X016633Y027703D01*
X016663Y027757D01*
X016689Y027814D01*
X016712Y027872D01*
X016732Y027931D01*
X016748Y027992D01*
X016760Y028053D01*
X016769Y028115D01*
X016774Y028177D01*
X016775Y028240D01*
X016772Y028302D01*
X016766Y028365D01*
X016756Y028426D01*
X016742Y028487D01*
X016725Y028547D01*
X016704Y028606D01*
X016680Y028664D01*
X016652Y028720D01*
X016621Y028774D01*
X016586Y028826D01*
X016549Y028876D01*
X016509Y028924D01*
X016465Y028969D01*
X016420Y029012D01*
X016371Y029052D01*
X016321Y029088D01*
X016268Y029122D01*
X016214Y029153D01*
X016157Y029180D01*
X016100Y029203D01*
X015850Y030200D02*
X015600Y030450D01*
X015350Y030200D01*
X014850Y030200D01*
X014600Y030450D01*
X014350Y030200D01*
X013850Y030200D01*
X013600Y030450D01*
X013350Y030200D01*
X012850Y030200D01*
X012600Y030450D01*
X012350Y030200D01*
X011850Y030200D01*
X011600Y030450D01*
X011350Y030200D01*
X010850Y030200D01*
X010600Y030450D01*
X010350Y030200D01*
X009850Y030200D01*
X009600Y030450D01*
X009350Y030200D01*
X008850Y030200D01*
X008600Y030450D01*
X008350Y030200D01*
X007850Y030200D01*
X007600Y030450D01*
X007600Y030950D01*
X007850Y031200D01*
X008350Y031200D01*
X008600Y030950D01*
X008850Y031200D01*
X009350Y031200D01*
X009600Y030950D01*
X009850Y031200D01*
X010350Y031200D01*
X010600Y030950D01*
X010850Y031200D01*
X011350Y031200D01*
X011600Y030950D01*
X011850Y031200D01*
X012350Y031200D01*
X012600Y030950D01*
X012850Y031200D01*
X013350Y031200D01*
X013600Y030950D01*
X013850Y031200D01*
X014350Y031200D01*
X014600Y030950D01*
X014850Y031200D01*
X015350Y031200D01*
X015600Y030950D01*
X015850Y031200D01*
X016350Y031200D01*
X016600Y030950D01*
X016850Y031200D01*
X017350Y031200D01*
X017600Y030950D01*
X017600Y030450D01*
X017350Y030200D01*
X016850Y030200D01*
X016600Y030450D01*
X016350Y030200D01*
X015850Y030200D01*
X018200Y030450D02*
X018450Y030200D01*
X018950Y030200D01*
X019200Y030450D01*
X019450Y030200D01*
X019950Y030200D01*
X020200Y030450D01*
X020450Y030200D01*
X020950Y030200D01*
X021200Y030450D01*
X021450Y030200D01*
X021950Y030200D01*
X022200Y030450D01*
X022450Y030200D01*
X022950Y030200D01*
X023200Y030450D01*
X023450Y030200D01*
X023950Y030200D01*
X024200Y030450D01*
X024450Y030200D01*
X024950Y030200D01*
X025200Y030450D01*
X025450Y030200D01*
X025950Y030200D01*
X026200Y030450D01*
X026200Y030950D01*
X025950Y031200D01*
X025450Y031200D01*
X025200Y030950D01*
X024950Y031200D01*
X024450Y031200D01*
X024200Y030950D01*
X023950Y031200D01*
X023450Y031200D01*
X023200Y030950D01*
X022950Y031200D01*
X022450Y031200D01*
X022200Y030950D01*
X021950Y031200D01*
X021450Y031200D01*
X021200Y030950D01*
X020950Y031200D01*
X020450Y031200D01*
X020200Y030950D01*
X019950Y031200D01*
X019450Y031200D01*
X019200Y030950D01*
X018950Y031200D01*
X018450Y031200D01*
X018200Y030950D01*
X018200Y030450D01*
X018450Y029200D02*
X018200Y028950D01*
X018200Y028450D01*
X018450Y028200D01*
X018950Y028200D01*
X019200Y028450D01*
X019450Y028200D01*
X019950Y028200D01*
X020200Y028450D01*
X020200Y028950D01*
X019950Y029200D01*
X019450Y029200D01*
X019200Y028950D01*
X018950Y029200D01*
X018450Y029200D01*
X020200Y028950D02*
X020200Y028450D01*
X020450Y028200D01*
X020950Y028200D01*
X021200Y028450D01*
X021450Y028200D01*
X021950Y028200D01*
X022200Y028450D01*
X022200Y028950D01*
X021950Y029200D01*
X021450Y029200D01*
X021200Y028950D01*
X020950Y029200D01*
X020450Y029200D01*
X020200Y028950D01*
X016745Y028100D02*
X016650Y028100D01*
X015300Y029203D02*
X015243Y029180D01*
X015186Y029153D01*
X015132Y029122D01*
X015079Y029088D01*
X015029Y029052D01*
X014980Y029012D01*
X014935Y028969D01*
X014891Y028924D01*
X014851Y028876D01*
X014814Y028826D01*
X014779Y028774D01*
X014748Y028720D01*
X014720Y028664D01*
X014696Y028606D01*
X014675Y028547D01*
X014658Y028487D01*
X014644Y028426D01*
X014634Y028365D01*
X014628Y028302D01*
X014625Y028240D01*
X014626Y028177D01*
X014631Y028115D01*
X014640Y028053D01*
X014652Y027992D01*
X014668Y027931D01*
X014688Y027872D01*
X014711Y027814D01*
X014737Y027757D01*
X014767Y027703D01*
X014800Y027650D01*
X014837Y027599D01*
X014876Y027550D01*
X011440Y028478D02*
X008960Y028478D01*
X008960Y029422D01*
X011440Y029422D01*
X011440Y028478D01*
X008850Y030200D02*
X008600Y030450D01*
X008600Y030950D02*
X008850Y031200D01*
X005200Y028450D02*
X005200Y027950D01*
X001820Y029950D02*
X001822Y030000D01*
X001828Y030050D01*
X001838Y030099D01*
X001852Y030147D01*
X001869Y030194D01*
X001890Y030239D01*
X001915Y030283D01*
X001943Y030324D01*
X001975Y030363D01*
X002009Y030400D01*
X002046Y030434D01*
X002086Y030464D01*
X002128Y030491D01*
X002172Y030515D01*
X002218Y030536D01*
X002265Y030552D01*
X002313Y030565D01*
X002363Y030574D01*
X002412Y030579D01*
X002463Y030580D01*
X002513Y030577D01*
X002562Y030570D01*
X002611Y030559D01*
X002659Y030544D01*
X002705Y030526D01*
X002750Y030504D01*
X002793Y030478D01*
X002834Y030449D01*
X002873Y030417D01*
X002909Y030382D01*
X002941Y030344D01*
X002971Y030304D01*
X002998Y030261D01*
X003021Y030217D01*
X003040Y030171D01*
X003056Y030123D01*
X003068Y030074D01*
X003076Y030025D01*
X003080Y029975D01*
X003080Y029925D01*
X003076Y029875D01*
X003068Y029826D01*
X003056Y029777D01*
X003040Y029729D01*
X003021Y029683D01*
X002998Y029639D01*
X002971Y029596D01*
X002941Y029556D01*
X002909Y029518D01*
X002873Y029483D01*
X002834Y029451D01*
X002793Y029422D01*
X002750Y029396D01*
X002705Y029374D01*
X002659Y029356D01*
X002611Y029341D01*
X002562Y029330D01*
X002513Y029323D01*
X002463Y029320D01*
X002412Y029321D01*
X002363Y029326D01*
X002313Y029335D01*
X002265Y029348D01*
X002218Y029364D01*
X002172Y029385D01*
X002128Y029409D01*
X002086Y029436D01*
X002046Y029466D01*
X002009Y029500D01*
X001975Y029537D01*
X001943Y029576D01*
X001915Y029617D01*
X001890Y029661D01*
X001869Y029706D01*
X001852Y029753D01*
X001838Y029801D01*
X001828Y029850D01*
X001822Y029900D01*
X001820Y029950D01*
X020460Y020922D02*
X020460Y019978D01*
X022940Y019978D01*
X022940Y020922D01*
X020460Y020922D01*
X020460Y019672D02*
X022940Y019672D01*
X022940Y018728D01*
X020460Y018728D01*
X020460Y019672D01*
X020460Y018422D02*
X022940Y018422D01*
X022940Y017478D01*
X020460Y017478D01*
X020460Y018422D01*
X020460Y017172D02*
X022940Y017172D01*
X022940Y016228D01*
X020460Y016228D01*
X020460Y017172D01*
X020460Y015922D02*
X022940Y015922D01*
X022940Y014978D01*
X020460Y014978D01*
X020460Y015922D01*
X020460Y014672D02*
X022940Y014672D01*
X022940Y013728D01*
X020460Y013728D01*
X020460Y014672D01*
X020450Y012200D02*
X020200Y011950D01*
X020200Y011450D01*
X020450Y011200D01*
X020950Y011200D01*
X021200Y011450D01*
X021450Y011200D01*
X021950Y011200D01*
X022200Y011450D01*
X022450Y011200D01*
X022950Y011200D01*
X023200Y011450D01*
X023450Y011200D01*
X023950Y011200D01*
X024200Y011450D01*
X024450Y011200D01*
X024950Y011200D01*
X025200Y011450D01*
X025450Y011200D01*
X025950Y011200D01*
X026200Y011450D01*
X026450Y011200D01*
X026950Y011200D01*
X027200Y011450D01*
X027450Y011200D01*
X027950Y011200D01*
X028200Y011450D01*
X028200Y011950D01*
X027950Y012200D01*
X027450Y012200D01*
X027200Y011950D01*
X026950Y012200D01*
X026450Y012200D01*
X026200Y011950D01*
X025950Y012200D01*
X025450Y012200D01*
X025200Y011950D01*
X024950Y012200D01*
X024450Y012200D01*
X024200Y011950D01*
X023950Y012200D01*
X023450Y012200D01*
X023200Y011950D01*
X022950Y012200D01*
X022450Y012200D01*
X022200Y011950D01*
X021950Y012200D01*
X021450Y012200D01*
X021200Y011950D01*
X020950Y012200D01*
X020450Y012200D01*
X022700Y009950D02*
X022950Y010200D01*
X023450Y010200D01*
X023700Y009950D01*
X023950Y010200D01*
X024450Y010200D01*
X024700Y009950D01*
X024700Y009450D01*
X024450Y009200D01*
X023950Y009200D01*
X023700Y009450D01*
X023450Y009200D01*
X022950Y009200D01*
X022700Y009450D01*
X022700Y009950D01*
X026655Y009600D02*
X026750Y009600D01*
X026875Y009050D02*
X028525Y009050D01*
X028650Y009600D02*
X028745Y009600D01*
X027740Y009600D02*
X027660Y009600D01*
X026876Y009050D02*
X026837Y009099D01*
X026800Y009150D01*
X026767Y009203D01*
X026737Y009257D01*
X026711Y009314D01*
X026688Y009372D01*
X026668Y009431D01*
X026652Y009492D01*
X026640Y009553D01*
X026631Y009615D01*
X026626Y009677D01*
X026625Y009740D01*
X026628Y009802D01*
X026634Y009865D01*
X026644Y009926D01*
X026658Y009987D01*
X026675Y010047D01*
X026696Y010106D01*
X026720Y010164D01*
X026748Y010220D01*
X026779Y010274D01*
X026814Y010326D01*
X026851Y010376D01*
X026891Y010424D01*
X026935Y010469D01*
X026980Y010512D01*
X027029Y010552D01*
X027079Y010588D01*
X027132Y010622D01*
X027186Y010653D01*
X027243Y010680D01*
X027300Y010703D01*
X028100Y010703D02*
X028157Y010680D01*
X028214Y010653D01*
X028268Y010622D01*
X028321Y010588D01*
X028371Y010552D01*
X028420Y010512D01*
X028465Y010469D01*
X028509Y010424D01*
X028549Y010376D01*
X028586Y010326D01*
X028621Y010274D01*
X028652Y010220D01*
X028680Y010164D01*
X028704Y010106D01*
X028725Y010047D01*
X028742Y009987D01*
X028756Y009926D01*
X028766Y009865D01*
X028772Y009802D01*
X028775Y009740D01*
X028774Y009677D01*
X028769Y009615D01*
X028760Y009553D01*
X028748Y009492D01*
X028732Y009431D01*
X028712Y009372D01*
X028689Y009314D01*
X028663Y009257D01*
X028633Y009203D01*
X028600Y009150D01*
X028563Y009099D01*
X028524Y009050D01*
X029950Y007700D02*
X030450Y007700D01*
X030750Y005900D02*
X030750Y005500D01*
X029216Y005200D02*
X029218Y005262D01*
X029224Y005325D01*
X029234Y005386D01*
X029248Y005447D01*
X029265Y005507D01*
X029286Y005566D01*
X029312Y005623D01*
X029340Y005678D01*
X029372Y005732D01*
X029408Y005783D01*
X029446Y005833D01*
X029488Y005879D01*
X029532Y005923D01*
X029580Y005964D01*
X029629Y006002D01*
X029681Y006036D01*
X029735Y006067D01*
X029791Y006095D01*
X029849Y006119D01*
X029908Y006140D01*
X029968Y006156D01*
X030029Y006169D01*
X030091Y006178D01*
X030153Y006183D01*
X030216Y006184D01*
X030278Y006181D01*
X030340Y006174D01*
X030402Y006163D01*
X030462Y006148D01*
X030522Y006130D01*
X030580Y006108D01*
X030637Y006082D01*
X030692Y006052D01*
X030745Y006019D01*
X030796Y005983D01*
X030844Y005944D01*
X030890Y005901D01*
X030933Y005856D01*
X030973Y005808D01*
X031010Y005758D01*
X031044Y005705D01*
X031075Y005651D01*
X031101Y005595D01*
X031125Y005537D01*
X031144Y005477D01*
X031160Y005417D01*
X031172Y005355D01*
X031180Y005294D01*
X031184Y005231D01*
X031184Y005169D01*
X031180Y005106D01*
X031172Y005045D01*
X031160Y004983D01*
X031144Y004923D01*
X031125Y004863D01*
X031101Y004805D01*
X031075Y004749D01*
X031044Y004695D01*
X031010Y004642D01*
X030973Y004592D01*
X030933Y004544D01*
X030890Y004499D01*
X030844Y004456D01*
X030796Y004417D01*
X030745Y004381D01*
X030692Y004348D01*
X030637Y004318D01*
X030580Y004292D01*
X030522Y004270D01*
X030462Y004252D01*
X030402Y004237D01*
X030340Y004226D01*
X030278Y004219D01*
X030216Y004216D01*
X030153Y004217D01*
X030091Y004222D01*
X030029Y004231D01*
X029968Y004244D01*
X029908Y004260D01*
X029849Y004281D01*
X029791Y004305D01*
X029735Y004333D01*
X029681Y004364D01*
X029629Y004398D01*
X029580Y004436D01*
X029532Y004477D01*
X029488Y004521D01*
X029446Y004567D01*
X029408Y004617D01*
X029372Y004668D01*
X029340Y004722D01*
X029312Y004777D01*
X029286Y004834D01*
X029265Y004893D01*
X029248Y004953D01*
X029234Y005014D01*
X029224Y005075D01*
X029218Y005138D01*
X029216Y005200D01*
X033700Y004450D02*
X033700Y003950D01*
X035700Y006200D02*
X035700Y006800D01*
X036650Y005400D02*
X036650Y005000D01*
X036216Y005700D02*
X036218Y005762D01*
X036224Y005825D01*
X036234Y005886D01*
X036248Y005947D01*
X036265Y006007D01*
X036286Y006066D01*
X036312Y006123D01*
X036340Y006178D01*
X036372Y006232D01*
X036408Y006283D01*
X036446Y006333D01*
X036488Y006379D01*
X036532Y006423D01*
X036580Y006464D01*
X036629Y006502D01*
X036681Y006536D01*
X036735Y006567D01*
X036791Y006595D01*
X036849Y006619D01*
X036908Y006640D01*
X036968Y006656D01*
X037029Y006669D01*
X037091Y006678D01*
X037153Y006683D01*
X037216Y006684D01*
X037278Y006681D01*
X037340Y006674D01*
X037402Y006663D01*
X037462Y006648D01*
X037522Y006630D01*
X037580Y006608D01*
X037637Y006582D01*
X037692Y006552D01*
X037745Y006519D01*
X037796Y006483D01*
X037844Y006444D01*
X037890Y006401D01*
X037933Y006356D01*
X037973Y006308D01*
X038010Y006258D01*
X038044Y006205D01*
X038075Y006151D01*
X038101Y006095D01*
X038125Y006037D01*
X038144Y005977D01*
X038160Y005917D01*
X038172Y005855D01*
X038180Y005794D01*
X038184Y005731D01*
X038184Y005669D01*
X038180Y005606D01*
X038172Y005545D01*
X038160Y005483D01*
X038144Y005423D01*
X038125Y005363D01*
X038101Y005305D01*
X038075Y005249D01*
X038044Y005195D01*
X038010Y005142D01*
X037973Y005092D01*
X037933Y005044D01*
X037890Y004999D01*
X037844Y004956D01*
X037796Y004917D01*
X037745Y004881D01*
X037692Y004848D01*
X037637Y004818D01*
X037580Y004792D01*
X037522Y004770D01*
X037462Y004752D01*
X037402Y004737D01*
X037340Y004726D01*
X037278Y004719D01*
X037216Y004716D01*
X037153Y004717D01*
X037091Y004722D01*
X037029Y004731D01*
X036968Y004744D01*
X036908Y004760D01*
X036849Y004781D01*
X036791Y004805D01*
X036735Y004833D01*
X036681Y004864D01*
X036629Y004898D01*
X036580Y004936D01*
X036532Y004977D01*
X036488Y005021D01*
X036446Y005067D01*
X036408Y005117D01*
X036372Y005168D01*
X036340Y005222D01*
X036312Y005277D01*
X036286Y005334D01*
X036265Y005393D01*
X036248Y005453D01*
X036234Y005514D01*
X036224Y005575D01*
X036218Y005638D01*
X036216Y005700D01*
X037320Y002450D02*
X037322Y002500D01*
X037328Y002550D01*
X037338Y002599D01*
X037352Y002647D01*
X037369Y002694D01*
X037390Y002739D01*
X037415Y002783D01*
X037443Y002824D01*
X037475Y002863D01*
X037509Y002900D01*
X037546Y002934D01*
X037586Y002964D01*
X037628Y002991D01*
X037672Y003015D01*
X037718Y003036D01*
X037765Y003052D01*
X037813Y003065D01*
X037863Y003074D01*
X037912Y003079D01*
X037963Y003080D01*
X038013Y003077D01*
X038062Y003070D01*
X038111Y003059D01*
X038159Y003044D01*
X038205Y003026D01*
X038250Y003004D01*
X038293Y002978D01*
X038334Y002949D01*
X038373Y002917D01*
X038409Y002882D01*
X038441Y002844D01*
X038471Y002804D01*
X038498Y002761D01*
X038521Y002717D01*
X038540Y002671D01*
X038556Y002623D01*
X038568Y002574D01*
X038576Y002525D01*
X038580Y002475D01*
X038580Y002425D01*
X038576Y002375D01*
X038568Y002326D01*
X038556Y002277D01*
X038540Y002229D01*
X038521Y002183D01*
X038498Y002139D01*
X038471Y002096D01*
X038441Y002056D01*
X038409Y002018D01*
X038373Y001983D01*
X038334Y001951D01*
X038293Y001922D01*
X038250Y001896D01*
X038205Y001874D01*
X038159Y001856D01*
X038111Y001841D01*
X038062Y001830D01*
X038013Y001823D01*
X037963Y001820D01*
X037912Y001821D01*
X037863Y001826D01*
X037813Y001835D01*
X037765Y001848D01*
X037718Y001864D01*
X037672Y001885D01*
X037628Y001909D01*
X037586Y001936D01*
X037546Y001966D01*
X037509Y002000D01*
X037475Y002037D01*
X037443Y002076D01*
X037415Y002117D01*
X037390Y002161D01*
X037369Y002206D01*
X037352Y002253D01*
X037338Y002301D01*
X037328Y002350D01*
X037322Y002400D01*
X037320Y002450D01*
X034743Y009400D02*
X034745Y009415D01*
X034751Y009428D01*
X034760Y009440D01*
X034771Y009449D01*
X034785Y009455D01*
X034800Y009457D01*
X034815Y009455D01*
X034828Y009449D01*
X034840Y009440D01*
X034849Y009429D01*
X034855Y009415D01*
X034857Y009400D01*
X034855Y009385D01*
X034849Y009372D01*
X034840Y009360D01*
X034829Y009351D01*
X034815Y009345D01*
X034800Y009343D01*
X034785Y009345D01*
X034772Y009351D01*
X034760Y009360D01*
X034751Y009371D01*
X034745Y009385D01*
X034743Y009400D01*
X034950Y011200D02*
X034450Y011200D01*
X034200Y011450D01*
X033950Y011200D01*
X033450Y011200D01*
X033200Y011450D01*
X032950Y011200D01*
X032450Y011200D01*
X032200Y011450D01*
X031950Y011200D01*
X031450Y011200D01*
X031200Y011450D01*
X030950Y011200D01*
X030450Y011200D01*
X030200Y011450D01*
X029950Y011200D01*
X029450Y011200D01*
X029200Y011450D01*
X029200Y011950D01*
X029450Y012200D01*
X029950Y012200D01*
X030200Y011950D01*
X030450Y012200D01*
X030950Y012200D01*
X031200Y011950D01*
X031450Y012200D01*
X031950Y012200D01*
X032200Y011950D01*
X032450Y012200D01*
X032950Y012200D01*
X033200Y011950D01*
X033450Y012200D01*
X033950Y012200D01*
X034200Y011950D01*
X034450Y012200D01*
X034950Y012200D01*
X035200Y011950D01*
X035450Y012200D01*
X035950Y012200D01*
X036200Y011950D01*
X036450Y012200D01*
X036950Y012200D01*
X037200Y011950D01*
X037200Y011450D01*
X036950Y011200D01*
X036450Y011200D01*
X036200Y011450D01*
X035950Y011200D01*
X035450Y011200D01*
X035200Y011450D01*
X034950Y011200D01*
X037450Y014700D02*
X037200Y014950D01*
X037200Y015450D01*
X037450Y015700D01*
X037950Y015700D01*
X038200Y015450D01*
X038450Y015700D01*
X038950Y015700D01*
X039200Y015450D01*
X039200Y014950D01*
X038950Y014700D01*
X038450Y014700D01*
X038200Y014950D01*
X037950Y014700D01*
X037450Y014700D01*
X035700Y015950D02*
X035700Y016450D01*
X039066Y016877D02*
X030995Y016877D01*
X030995Y017861D01*
X039066Y017861D01*
X039066Y016877D01*
X028200Y012950D02*
X028200Y012450D01*
X026950Y014200D02*
X026450Y014200D01*
X026200Y014450D01*
X026200Y014950D01*
X026450Y015200D01*
X026200Y015450D01*
X026200Y015950D01*
X026450Y016200D01*
X026200Y016450D01*
X026200Y016950D01*
X026450Y017200D01*
X026950Y017200D01*
X027200Y016950D01*
X027200Y016450D01*
X026950Y016200D01*
X027200Y015950D01*
X027200Y015450D01*
X026950Y015200D01*
X027200Y014950D01*
X027200Y014450D01*
X026950Y014200D01*
X026200Y014450D02*
X025950Y014200D01*
X025450Y014200D01*
X025200Y014450D01*
X025200Y014950D01*
X025450Y015200D01*
X025200Y015450D01*
X025200Y015950D01*
X025450Y016200D01*
X025200Y016450D01*
X025200Y016950D01*
X025450Y017200D01*
X025950Y017200D01*
X026200Y016950D01*
X026200Y016450D01*
X025950Y016200D01*
X026200Y015950D01*
X026200Y015450D01*
X025950Y015200D01*
X026200Y014950D01*
X026200Y014450D01*
X026500Y018150D02*
X026900Y018150D01*
X025216Y018700D02*
X025218Y018762D01*
X025224Y018825D01*
X025234Y018886D01*
X025248Y018947D01*
X025265Y019007D01*
X025286Y019066D01*
X025312Y019123D01*
X025340Y019178D01*
X025372Y019232D01*
X025408Y019283D01*
X025446Y019333D01*
X025488Y019379D01*
X025532Y019423D01*
X025580Y019464D01*
X025629Y019502D01*
X025681Y019536D01*
X025735Y019567D01*
X025791Y019595D01*
X025849Y019619D01*
X025908Y019640D01*
X025968Y019656D01*
X026029Y019669D01*
X026091Y019678D01*
X026153Y019683D01*
X026216Y019684D01*
X026278Y019681D01*
X026340Y019674D01*
X026402Y019663D01*
X026462Y019648D01*
X026522Y019630D01*
X026580Y019608D01*
X026637Y019582D01*
X026692Y019552D01*
X026745Y019519D01*
X026796Y019483D01*
X026844Y019444D01*
X026890Y019401D01*
X026933Y019356D01*
X026973Y019308D01*
X027010Y019258D01*
X027044Y019205D01*
X027075Y019151D01*
X027101Y019095D01*
X027125Y019037D01*
X027144Y018977D01*
X027160Y018917D01*
X027172Y018855D01*
X027180Y018794D01*
X027184Y018731D01*
X027184Y018669D01*
X027180Y018606D01*
X027172Y018545D01*
X027160Y018483D01*
X027144Y018423D01*
X027125Y018363D01*
X027101Y018305D01*
X027075Y018249D01*
X027044Y018195D01*
X027010Y018142D01*
X026973Y018092D01*
X026933Y018044D01*
X026890Y017999D01*
X026844Y017956D01*
X026796Y017917D01*
X026745Y017881D01*
X026692Y017848D01*
X026637Y017818D01*
X026580Y017792D01*
X026522Y017770D01*
X026462Y017752D01*
X026402Y017737D01*
X026340Y017726D01*
X026278Y017719D01*
X026216Y017716D01*
X026153Y017717D01*
X026091Y017722D01*
X026029Y017731D01*
X025968Y017744D01*
X025908Y017760D01*
X025849Y017781D01*
X025791Y017805D01*
X025735Y017833D01*
X025681Y017864D01*
X025629Y017898D01*
X025580Y017936D01*
X025532Y017977D01*
X025488Y018021D01*
X025446Y018067D01*
X025408Y018117D01*
X025372Y018168D01*
X025340Y018222D01*
X025312Y018277D01*
X025286Y018334D01*
X025265Y018393D01*
X025248Y018453D01*
X025234Y018514D01*
X025224Y018575D01*
X025218Y018638D01*
X025216Y018700D01*
D14*
X027470Y018450D02*
X027700Y018220D01*
X027700Y018527D01*
X027623Y018680D02*
X027853Y018680D01*
X027930Y018757D01*
X027930Y018987D01*
X027623Y018987D01*
X027470Y019141D02*
X027470Y019448D01*
X027546Y019448D01*
X027853Y019141D01*
X027930Y019141D01*
X027930Y018450D02*
X027470Y018450D01*
X024329Y021470D02*
X024088Y021470D01*
X024329Y021710D01*
X024329Y021770D01*
X024268Y021830D01*
X024148Y021830D01*
X024088Y021770D01*
X023960Y021770D02*
X023960Y021650D01*
X023900Y021590D01*
X023720Y021590D01*
X023720Y021470D02*
X023720Y021830D01*
X023900Y021830D01*
X023960Y021770D01*
X023840Y021590D02*
X023960Y021470D01*
X023960Y022070D02*
X023840Y022190D01*
X023900Y022190D02*
X023720Y022190D01*
X023720Y022070D02*
X023720Y022430D01*
X023900Y022430D01*
X023960Y022370D01*
X023960Y022250D01*
X023900Y022190D01*
X024088Y022130D02*
X024148Y022070D01*
X024268Y022070D01*
X024329Y022130D01*
X024329Y022190D01*
X024268Y022250D01*
X024208Y022250D01*
X024268Y022250D02*
X024329Y022310D01*
X024329Y022370D01*
X024268Y022430D01*
X024148Y022430D01*
X024088Y022370D01*
X023960Y022670D02*
X023840Y022790D01*
X023900Y022790D02*
X023720Y022790D01*
X023720Y022670D02*
X023720Y023030D01*
X023900Y023030D01*
X023960Y022970D01*
X023960Y022850D01*
X023900Y022790D01*
X024088Y022850D02*
X024329Y022850D01*
X024268Y022670D02*
X024268Y023030D01*
X024088Y022850D01*
X024148Y023270D02*
X024088Y023330D01*
X024148Y023270D02*
X024268Y023270D01*
X024329Y023330D01*
X024329Y023450D01*
X024268Y023510D01*
X024208Y023510D01*
X024088Y023450D01*
X024088Y023630D01*
X024329Y023630D01*
X024268Y023870D02*
X024148Y023870D01*
X024088Y023930D01*
X024088Y024050D01*
X024268Y024050D01*
X024329Y023990D01*
X024329Y023930D01*
X024268Y023870D01*
X024088Y024050D02*
X024208Y024170D01*
X024329Y024230D01*
X023960Y024170D02*
X023960Y024050D01*
X023900Y023990D01*
X023720Y023990D01*
X023720Y023870D02*
X023720Y024230D01*
X023900Y024230D01*
X023960Y024170D01*
X023840Y023990D02*
X023960Y023870D01*
X023900Y023630D02*
X023720Y023630D01*
X023720Y023270D01*
X023720Y023390D02*
X023900Y023390D01*
X023960Y023450D01*
X023960Y023570D01*
X023900Y023630D01*
X023840Y023390D02*
X023960Y023270D01*
X022180Y023351D02*
X021873Y023351D01*
X021873Y023581D01*
X021950Y023658D01*
X022180Y023658D01*
X022103Y023198D02*
X022180Y023121D01*
X022180Y022968D01*
X022103Y022891D01*
X021796Y023198D01*
X022103Y023198D01*
X021796Y023198D02*
X021720Y023121D01*
X021720Y022968D01*
X021796Y022891D01*
X022103Y022891D01*
X022103Y022737D02*
X022180Y022661D01*
X022180Y022507D01*
X022103Y022430D01*
X021796Y022737D01*
X022103Y022737D01*
X022103Y022430D02*
X021796Y022430D01*
X021720Y022507D01*
X021720Y022661D01*
X021796Y022737D01*
X022180Y022277D02*
X022180Y021970D01*
X022180Y022123D02*
X021720Y022123D01*
X021873Y021970D01*
X021758Y020680D02*
X021605Y020680D01*
X021528Y020604D01*
X021528Y020297D01*
X021835Y020604D01*
X021835Y020297D01*
X021758Y020220D01*
X021605Y020220D01*
X021528Y020297D01*
X021375Y020220D02*
X021068Y020220D01*
X021221Y020220D02*
X021221Y020680D01*
X021068Y020527D01*
X021758Y020680D02*
X021835Y020604D01*
X021989Y020680D02*
X021989Y020220D01*
X021989Y020373D02*
X022219Y020527D01*
X021989Y020373D02*
X022219Y020220D01*
X022219Y019430D02*
X022219Y018970D01*
X022219Y019123D02*
X022449Y018970D01*
X022219Y019123D02*
X022449Y019277D01*
X022065Y019354D02*
X021758Y019047D01*
X021835Y018970D01*
X021989Y018970D01*
X022065Y019047D01*
X022065Y019354D01*
X021989Y019430D01*
X021835Y019430D01*
X021758Y019354D01*
X021758Y019047D01*
X021605Y019047D02*
X021605Y019354D01*
X021298Y019047D01*
X021375Y018970D01*
X021528Y018970D01*
X021605Y019047D01*
X021605Y019354D02*
X021528Y019430D01*
X021375Y019430D01*
X021298Y019354D01*
X021298Y019047D01*
X021145Y018970D02*
X020838Y018970D01*
X020991Y018970D02*
X020991Y019430D01*
X020838Y019277D01*
X021221Y018180D02*
X021221Y017720D01*
X021068Y017720D02*
X021375Y017720D01*
X021528Y017797D02*
X021835Y018104D01*
X021835Y017797D01*
X021758Y017720D01*
X021605Y017720D01*
X021528Y017797D01*
X021528Y018104D01*
X021605Y018180D01*
X021758Y018180D01*
X021835Y018104D01*
X021989Y018180D02*
X021989Y017720D01*
X021989Y017873D02*
X022219Y018027D01*
X021989Y017873D02*
X022219Y017720D01*
X021989Y016930D02*
X021989Y016470D01*
X021989Y016623D02*
X022219Y016777D01*
X021989Y016623D02*
X022219Y016470D01*
X021835Y016547D02*
X021758Y016470D01*
X021605Y016470D01*
X021528Y016547D01*
X021835Y016854D01*
X021835Y016547D01*
X021835Y016854D02*
X021758Y016930D01*
X021605Y016930D01*
X021528Y016854D01*
X021528Y016547D01*
X021375Y016470D02*
X021068Y016470D01*
X021221Y016470D02*
X021221Y016930D01*
X021068Y016777D01*
X020991Y015680D02*
X020991Y015220D01*
X020838Y015220D02*
X021145Y015220D01*
X021298Y015297D02*
X021605Y015604D01*
X021605Y015297D01*
X021528Y015220D01*
X021375Y015220D01*
X021298Y015297D01*
X021298Y015604D01*
X021375Y015680D01*
X021528Y015680D01*
X021605Y015604D01*
X021758Y015604D02*
X021758Y015297D01*
X022065Y015604D01*
X022065Y015297D01*
X021989Y015220D01*
X021835Y015220D01*
X021758Y015297D01*
X021758Y015604D02*
X021835Y015680D01*
X021989Y015680D01*
X022065Y015604D01*
X022219Y015680D02*
X022219Y015220D01*
X022219Y015373D02*
X022449Y015220D01*
X022219Y015373D02*
X022449Y015527D01*
X021989Y014430D02*
X021989Y013970D01*
X021989Y014123D02*
X022219Y014277D01*
X021989Y014123D02*
X022219Y013970D01*
X021835Y014047D02*
X021835Y014354D01*
X021528Y014047D01*
X021605Y013970D01*
X021758Y013970D01*
X021835Y014047D01*
X021835Y014354D02*
X021758Y014430D01*
X021605Y014430D01*
X021528Y014354D01*
X021528Y014047D01*
X021375Y013970D02*
X021068Y013970D01*
X021221Y013970D02*
X021221Y014430D01*
X021068Y014277D01*
X020838Y015527D02*
X020991Y015680D01*
X021068Y018027D02*
X021221Y018180D01*
X016158Y020970D02*
X016158Y021200D01*
X016081Y021277D01*
X015851Y021277D01*
X015851Y020970D01*
X015698Y021047D02*
X015698Y021354D01*
X015391Y021047D01*
X015468Y020970D01*
X015621Y020970D01*
X015698Y021047D01*
X015698Y021354D02*
X015621Y021430D01*
X015468Y021430D01*
X015391Y021354D01*
X015391Y021047D01*
X015237Y020970D02*
X014930Y020970D01*
X015237Y021277D01*
X015237Y021354D01*
X015161Y021430D01*
X015007Y021430D01*
X014930Y021354D01*
X014777Y021354D02*
X014700Y021430D01*
X014547Y021430D01*
X014470Y021354D01*
X014777Y021354D02*
X014777Y021277D01*
X014470Y020970D01*
X014777Y020970D01*
X013963Y019680D02*
X013732Y019450D01*
X014039Y019450D01*
X013963Y019220D02*
X013963Y019680D01*
X013579Y019604D02*
X013502Y019680D01*
X013349Y019680D01*
X013272Y019604D01*
X013118Y019450D02*
X012812Y019450D01*
X013042Y019680D01*
X013042Y019220D01*
X013272Y019220D02*
X013579Y019527D01*
X013579Y019604D01*
X013579Y019220D02*
X013272Y019220D01*
X012658Y019297D02*
X012581Y019220D01*
X012428Y019220D01*
X012351Y019297D01*
X012198Y019450D02*
X012121Y019373D01*
X011891Y019373D01*
X011891Y019220D02*
X011891Y019680D01*
X012121Y019680D01*
X012198Y019604D01*
X012198Y019450D01*
X012351Y019604D02*
X012428Y019680D01*
X012581Y019680D01*
X012658Y019604D01*
X012658Y019527D01*
X012581Y019450D01*
X012658Y019373D01*
X012658Y019297D01*
X012581Y019450D02*
X012505Y019450D01*
X011737Y019297D02*
X011661Y019220D01*
X011507Y019220D01*
X011430Y019297D01*
X011430Y019604D01*
X011507Y019680D01*
X011661Y019680D01*
X011737Y019604D01*
X011277Y019680D02*
X011277Y019220D01*
X010970Y019220D02*
X010970Y019680D01*
X011123Y019527D01*
X011277Y019680D01*
X012950Y015908D02*
X013180Y015908D01*
X012950Y015908D02*
X012873Y015831D01*
X012873Y015601D01*
X013180Y015601D01*
X013103Y015448D02*
X012796Y015448D01*
X013103Y015141D01*
X013180Y015218D01*
X013180Y015371D01*
X013103Y015448D01*
X012796Y015448D02*
X012720Y015371D01*
X012720Y015218D01*
X012796Y015141D01*
X013103Y015141D01*
X013103Y014987D02*
X013180Y014911D01*
X013180Y014757D01*
X013103Y014680D01*
X012796Y014987D01*
X013103Y014987D01*
X013103Y014680D02*
X012796Y014680D01*
X012720Y014757D01*
X012720Y014911D01*
X012796Y014987D01*
X013180Y014527D02*
X013180Y014220D01*
X013180Y014373D02*
X012720Y014373D01*
X012873Y014220D01*
X004930Y014084D02*
X004853Y014161D01*
X004470Y014161D01*
X004470Y014237D02*
X004470Y014084D01*
X004546Y013777D02*
X004700Y013777D01*
X004777Y013700D01*
X004777Y013470D01*
X004930Y013470D02*
X004470Y013470D01*
X004470Y013700D01*
X004546Y013777D01*
X004777Y013623D02*
X004930Y013777D01*
X004853Y013930D02*
X004930Y014007D01*
X004930Y014084D01*
X004700Y014391D02*
X004700Y014698D01*
X004700Y014851D02*
X004623Y015005D01*
X004623Y015081D01*
X004700Y015158D01*
X004853Y015158D01*
X004930Y015081D01*
X004930Y014928D01*
X004853Y014851D01*
X004700Y014851D02*
X004470Y014851D01*
X004470Y015158D01*
X004470Y014621D02*
X004700Y014391D01*
X004930Y014621D02*
X004470Y014621D01*
X004470Y020220D02*
X004470Y020450D01*
X004546Y020527D01*
X004700Y020527D01*
X004777Y020450D01*
X004777Y020220D01*
X004930Y020220D02*
X004470Y020220D01*
X004777Y020373D02*
X004930Y020527D01*
X004853Y020680D02*
X004930Y020757D01*
X004930Y020834D01*
X004853Y020911D01*
X004470Y020911D01*
X004470Y020987D02*
X004470Y020834D01*
X004700Y021141D02*
X004470Y021371D01*
X004930Y021371D01*
X004853Y021601D02*
X004930Y021678D01*
X004930Y021831D01*
X004853Y021908D01*
X004700Y021908D01*
X004623Y021831D01*
X004623Y021755D01*
X004700Y021601D01*
X004470Y021601D01*
X004470Y021908D01*
X004700Y021448D02*
X004700Y021141D01*
X003853Y024128D02*
X003930Y024205D01*
X003930Y024359D01*
X003853Y024435D01*
X003777Y024435D01*
X003700Y024359D01*
X003700Y024205D01*
X003623Y024128D01*
X003546Y024128D01*
X003470Y024205D01*
X003470Y024359D01*
X003546Y024435D01*
X003546Y024589D02*
X003700Y024742D01*
X003930Y024742D01*
X003700Y024742D02*
X003546Y024896D01*
X003470Y024896D01*
X003470Y025049D02*
X003930Y025356D01*
X003470Y025356D01*
X003546Y025510D02*
X003853Y025510D01*
X003930Y025586D01*
X003930Y025740D01*
X003853Y025817D01*
X003546Y025817D02*
X003470Y025740D01*
X003470Y025586D01*
X003546Y025510D01*
X003470Y025049D02*
X003930Y025049D01*
X004470Y025049D02*
X004470Y025356D01*
X004470Y025510D02*
X004777Y025510D01*
X004930Y025663D01*
X004777Y025817D01*
X004470Y025817D01*
X004700Y025356D02*
X004853Y025356D01*
X004930Y025279D01*
X004930Y025126D01*
X004853Y025049D01*
X004700Y025049D02*
X004623Y025203D01*
X004623Y025279D01*
X004700Y025356D01*
X004700Y025049D02*
X004470Y025049D01*
X004700Y024896D02*
X004700Y024589D01*
X004853Y024742D02*
X004546Y024742D01*
X003546Y024589D02*
X003470Y024589D01*
X002930Y024666D02*
X002930Y024819D01*
X002853Y024896D01*
X002470Y024896D01*
X002470Y025049D02*
X002470Y025356D01*
X002470Y025203D02*
X002930Y025203D01*
X002700Y025510D02*
X002700Y025817D01*
X001853Y025663D02*
X001546Y025663D01*
X001700Y025510D02*
X001700Y025817D01*
X001470Y025356D02*
X001470Y025049D01*
X001470Y024896D02*
X001853Y024896D01*
X001930Y024819D01*
X001930Y024666D01*
X001853Y024589D01*
X001470Y024589D01*
X001546Y024435D02*
X001470Y024359D01*
X001470Y024205D01*
X001546Y024128D01*
X001853Y024128D01*
X001930Y024205D01*
X001930Y024359D01*
X001853Y024435D01*
X001546Y024435D01*
X001470Y025203D02*
X001930Y025203D01*
X002470Y024589D02*
X002853Y024589D01*
X002930Y024666D01*
X002853Y024435D02*
X002546Y024435D01*
X002470Y024359D01*
X002470Y024205D01*
X002546Y024128D01*
X002853Y024128D01*
X002930Y024205D01*
X002930Y024359D01*
X002853Y024435D01*
X005470Y025126D02*
X005470Y025279D01*
X005546Y025356D01*
X005853Y025049D01*
X005930Y025126D01*
X005930Y025279D01*
X005853Y025356D01*
X005546Y025356D01*
X005470Y025510D02*
X005777Y025510D01*
X005930Y025663D01*
X005777Y025817D01*
X005470Y025817D01*
X005470Y025126D02*
X005546Y025049D01*
X005853Y025049D01*
X004258Y027970D02*
X004258Y028200D01*
X004181Y028277D01*
X003951Y028277D01*
X003951Y027970D01*
X003798Y028047D02*
X003721Y027970D01*
X003568Y027970D01*
X003491Y028047D01*
X003798Y028354D01*
X003798Y028047D01*
X003798Y028354D02*
X003721Y028430D01*
X003568Y028430D01*
X003491Y028354D01*
X003491Y028047D01*
X003337Y028047D02*
X003261Y027970D01*
X003107Y027970D01*
X003030Y028047D01*
X003337Y028354D01*
X003337Y028047D01*
X003030Y028047D02*
X003030Y028354D01*
X003107Y028430D01*
X003261Y028430D01*
X003337Y028354D01*
X002877Y027970D02*
X002570Y027970D01*
X002723Y027970D02*
X002723Y028430D01*
X002570Y028277D01*
X004470Y028970D02*
X004470Y029430D01*
X004777Y029430D01*
X004930Y029430D02*
X004930Y028970D01*
X005237Y028970D01*
X005391Y029047D02*
X005468Y028970D01*
X005621Y028970D01*
X005698Y029047D01*
X005851Y028970D02*
X006158Y028970D01*
X006005Y028970D02*
X006005Y029430D01*
X005851Y029277D01*
X005698Y029354D02*
X005621Y029430D01*
X005468Y029430D01*
X005391Y029354D01*
X005391Y029047D01*
X004623Y029200D02*
X004470Y029200D01*
X006312Y029047D02*
X006618Y029354D01*
X006618Y029047D01*
X006542Y028970D01*
X006388Y028970D01*
X006312Y029047D01*
X006312Y029354D01*
X006388Y029430D01*
X006542Y029430D01*
X006618Y029354D01*
X006772Y029354D02*
X006772Y029047D01*
X007079Y029354D01*
X007079Y029047D01*
X007002Y028970D01*
X006849Y028970D01*
X006772Y029047D01*
X006772Y029354D02*
X006849Y029430D01*
X007002Y029430D01*
X007079Y029354D01*
X009338Y029027D02*
X009491Y029180D01*
X009491Y028720D01*
X009338Y028720D02*
X009645Y028720D01*
X009798Y028797D02*
X010105Y029104D01*
X010105Y028797D01*
X010028Y028720D01*
X009875Y028720D01*
X009798Y028797D01*
X009798Y029104D01*
X009875Y029180D01*
X010028Y029180D01*
X010105Y029104D01*
X010258Y029104D02*
X010335Y029180D01*
X010489Y029180D01*
X010565Y029104D01*
X010258Y028797D01*
X010335Y028720D01*
X010489Y028720D01*
X010565Y028797D01*
X010565Y029104D01*
X010719Y029180D02*
X010719Y028720D01*
X010719Y028873D02*
X010949Y029027D01*
X010719Y028873D02*
X010949Y028720D01*
X010258Y028797D02*
X010258Y029104D01*
X015123Y025449D02*
X015277Y025219D01*
X015430Y025449D01*
X015430Y025219D02*
X014970Y025219D01*
X015046Y025065D02*
X014970Y024989D01*
X014970Y024835D01*
X015046Y024758D01*
X015353Y024758D01*
X015046Y025065D01*
X015353Y025065D01*
X015430Y024989D01*
X015430Y024835D01*
X015353Y024758D01*
X015353Y024605D02*
X015430Y024528D01*
X015430Y024375D01*
X015353Y024298D01*
X015046Y024605D01*
X015353Y024605D01*
X015046Y024605D02*
X014970Y024528D01*
X014970Y024375D01*
X015046Y024298D01*
X015353Y024298D01*
X015430Y024145D02*
X015430Y023838D01*
X015430Y023991D02*
X014970Y023991D01*
X015123Y023838D01*
X022720Y024720D02*
X023027Y025027D01*
X023027Y025104D01*
X022950Y025180D01*
X022797Y025180D01*
X022720Y025104D01*
X022720Y024720D02*
X023027Y024720D01*
X023180Y024720D02*
X023487Y025027D01*
X023487Y025104D01*
X023411Y025180D01*
X023257Y025180D01*
X023180Y025104D01*
X023180Y024720D02*
X023487Y024720D01*
X023641Y024797D02*
X023948Y025104D01*
X023948Y024797D01*
X023871Y024720D01*
X023718Y024720D01*
X023641Y024797D01*
X023641Y025104D01*
X023718Y025180D01*
X023871Y025180D01*
X023948Y025104D01*
X024101Y025027D02*
X024331Y025027D01*
X024408Y024950D01*
X024408Y024720D01*
X024101Y024720D02*
X024101Y025027D01*
X027220Y025221D02*
X027680Y025221D01*
X027680Y025068D02*
X027680Y025375D01*
X027603Y025528D02*
X027296Y025835D01*
X027603Y025835D01*
X027680Y025758D01*
X027680Y025605D01*
X027603Y025528D01*
X027296Y025528D01*
X027220Y025605D01*
X027220Y025758D01*
X027296Y025835D01*
X027220Y025989D02*
X027680Y025989D01*
X027527Y025989D02*
X027373Y026219D01*
X027527Y025989D02*
X027680Y026219D01*
X027220Y025221D02*
X027373Y025068D01*
X032220Y021680D02*
X032527Y021220D01*
X032680Y021220D02*
X032680Y021680D01*
X032911Y021680D01*
X032987Y021604D01*
X032987Y021450D01*
X032911Y021373D01*
X032680Y021373D01*
X032834Y021373D02*
X032987Y021220D01*
X033141Y021220D02*
X033141Y021680D01*
X033448Y021680D01*
X033294Y021450D02*
X033141Y021450D01*
X032527Y021680D02*
X032220Y021220D01*
X033623Y015680D02*
X033623Y015220D01*
X033470Y015220D02*
X033777Y015220D01*
X033930Y015297D02*
X034237Y015604D01*
X034237Y015297D01*
X034161Y015220D01*
X034007Y015220D01*
X033930Y015297D01*
X033930Y015604D01*
X034007Y015680D01*
X034161Y015680D01*
X034237Y015604D01*
X034391Y015604D02*
X034468Y015680D01*
X034621Y015680D01*
X034698Y015604D01*
X034391Y015297D01*
X034468Y015220D01*
X034621Y015220D01*
X034698Y015297D01*
X034698Y015604D01*
X034851Y015527D02*
X035081Y015527D01*
X035158Y015450D01*
X035158Y015220D01*
X034851Y015220D02*
X034851Y015527D01*
X034391Y015604D02*
X034391Y015297D01*
X033623Y015680D02*
X033470Y015527D01*
X033970Y010930D02*
X034123Y010777D01*
X034277Y010930D01*
X034277Y010470D01*
X034430Y010470D02*
X034430Y010777D01*
X034584Y010930D01*
X034737Y010777D01*
X034737Y010470D01*
X034891Y010470D02*
X035198Y010930D01*
X035351Y010930D02*
X035658Y010930D01*
X035658Y010854D01*
X035351Y010547D01*
X035351Y010470D01*
X035198Y010470D02*
X034891Y010930D01*
X034737Y010700D02*
X034430Y010700D01*
X033970Y010470D02*
X033970Y010930D01*
X035812Y010930D02*
X035812Y010700D01*
X035965Y010777D01*
X036042Y010777D01*
X036118Y010700D01*
X036118Y010547D01*
X036042Y010470D01*
X035888Y010470D01*
X035812Y010547D01*
X035812Y010930D02*
X036118Y010930D01*
X036272Y010700D02*
X036502Y010700D01*
X036579Y010623D01*
X036579Y010547D01*
X036502Y010470D01*
X036349Y010470D01*
X036272Y010547D01*
X036272Y010700D01*
X036425Y010854D01*
X036579Y010930D01*
X036797Y008180D02*
X036720Y008104D01*
X036797Y008180D02*
X036950Y008180D01*
X037027Y008104D01*
X037027Y008027D01*
X036720Y007720D01*
X037027Y007720D01*
X037180Y007720D02*
X037487Y008027D01*
X037487Y008104D01*
X037411Y008180D01*
X037257Y008180D01*
X037180Y008104D01*
X037641Y008027D02*
X037641Y007797D01*
X037718Y007720D01*
X037948Y007720D01*
X037948Y008027D01*
X038101Y007950D02*
X038408Y007950D01*
X038408Y008180D02*
X038408Y007720D01*
X038101Y007720D02*
X038101Y008180D01*
X037487Y007720D02*
X037180Y007720D01*
X038970Y006448D02*
X039046Y006448D01*
X039353Y006141D01*
X039430Y006141D01*
X039430Y005987D02*
X039123Y005987D01*
X038970Y006141D02*
X038970Y006448D01*
X039430Y005987D02*
X039430Y005757D01*
X039353Y005680D01*
X039123Y005680D01*
X039200Y005527D02*
X039200Y005220D01*
X038970Y005450D01*
X039430Y005450D01*
X036658Y003950D02*
X036658Y003720D01*
X036658Y003950D02*
X036581Y004027D01*
X036351Y004027D01*
X036351Y003720D01*
X036198Y003797D02*
X036198Y004104D01*
X035891Y003797D01*
X035968Y003720D01*
X036121Y003720D01*
X036198Y003797D01*
X036198Y004104D02*
X036121Y004180D01*
X035968Y004180D01*
X035891Y004104D01*
X035891Y003797D01*
X035737Y003797D02*
X035737Y004104D01*
X035430Y003797D01*
X035507Y003720D01*
X035661Y003720D01*
X035737Y003797D01*
X035430Y003797D02*
X035430Y004104D01*
X035507Y004180D01*
X035661Y004180D01*
X035737Y004104D01*
X035277Y003720D02*
X034970Y003720D01*
X035123Y003720D02*
X035123Y004180D01*
X034970Y004027D01*
X034928Y001930D02*
X035081Y001930D01*
X035158Y001854D01*
X035158Y001777D01*
X035081Y001700D01*
X034928Y001700D01*
X034851Y001777D01*
X034851Y001854D01*
X034928Y001930D01*
X034928Y001700D02*
X034851Y001623D01*
X034851Y001547D01*
X034928Y001470D01*
X035081Y001470D01*
X035158Y001547D01*
X035158Y001623D01*
X035081Y001700D01*
X035312Y001777D02*
X035465Y001930D01*
X035465Y001470D01*
X035312Y001470D02*
X035618Y001470D01*
X035772Y001470D02*
X035772Y001547D01*
X036079Y001854D01*
X036079Y001930D01*
X035772Y001930D01*
X034698Y001930D02*
X034391Y001930D01*
X034391Y001700D01*
X034544Y001777D01*
X034621Y001777D01*
X034698Y001700D01*
X034698Y001547D01*
X034621Y001470D01*
X034468Y001470D01*
X034391Y001547D01*
X034237Y001470D02*
X034237Y001930D01*
X033930Y001930D02*
X033930Y001470D01*
X033777Y001470D02*
X033470Y001470D01*
X033623Y001470D02*
X033623Y001930D01*
X033470Y001777D01*
X033930Y001930D02*
X034237Y001470D01*
X030680Y002950D02*
X030220Y002950D01*
X030450Y002720D01*
X030450Y003027D01*
X030373Y003180D02*
X030603Y003180D01*
X030680Y003257D01*
X030680Y003487D01*
X030373Y003487D01*
X030220Y003641D02*
X030220Y003948D01*
X030296Y003948D01*
X030603Y003641D01*
X030680Y003641D01*
X028948Y003604D02*
X028641Y003297D01*
X028641Y003220D01*
X028487Y003220D02*
X028487Y003527D01*
X028641Y003680D02*
X028948Y003680D01*
X028948Y003604D01*
X028487Y003220D02*
X028257Y003220D01*
X028180Y003297D01*
X028180Y003527D01*
X028027Y003450D02*
X027720Y003450D01*
X027950Y003680D01*
X027950Y003220D01*
X026697Y002080D02*
X026457Y002080D01*
X026457Y001900D01*
X026577Y001960D01*
X026637Y001960D01*
X026697Y001900D01*
X026697Y001780D01*
X026637Y001720D01*
X026517Y001720D01*
X026457Y001780D01*
X026329Y001720D02*
X026088Y001720D01*
X026208Y001720D02*
X026208Y002080D01*
X026088Y001960D01*
X025960Y002020D02*
X025900Y002080D01*
X025780Y002080D01*
X025720Y002020D01*
X025720Y001780D01*
X025780Y001720D01*
X025900Y001720D01*
X025960Y001780D01*
X028220Y001450D02*
X028527Y001450D01*
X028680Y001527D02*
X028680Y001297D01*
X028757Y001220D01*
X028987Y001220D01*
X028987Y001527D01*
X029141Y001680D02*
X029448Y001680D01*
X029448Y001604D01*
X029141Y001297D01*
X029141Y001220D01*
X028450Y001220D02*
X028450Y001680D01*
X028220Y001450D01*
X022180Y004780D02*
X022180Y004900D01*
X022120Y004960D01*
X022180Y005088D02*
X022180Y005329D01*
X022180Y005208D02*
X021820Y005208D01*
X021940Y005088D01*
X021880Y004960D02*
X021820Y004900D01*
X021820Y004780D01*
X021880Y004720D01*
X022120Y004720D01*
X022180Y004780D01*
X022120Y005457D02*
X022000Y005457D01*
X022000Y005637D01*
X022060Y005697D01*
X022120Y005697D01*
X022180Y005637D01*
X022180Y005517D01*
X022120Y005457D01*
X022000Y005457D02*
X021880Y005577D01*
X021820Y005697D01*
X021820Y006970D02*
X021820Y007150D01*
X021880Y007210D01*
X022000Y007210D01*
X022060Y007150D01*
X022060Y006970D01*
X022180Y006970D02*
X021820Y006970D01*
X022060Y007090D02*
X022180Y007210D01*
X022180Y007338D02*
X022180Y007579D01*
X022180Y007458D02*
X021820Y007458D01*
X021940Y007338D01*
X021880Y007707D02*
X021820Y007767D01*
X021820Y007887D01*
X021880Y007947D01*
X021940Y007947D01*
X022180Y007707D01*
X022180Y007947D01*
X024123Y010470D02*
X024277Y010623D01*
X024277Y010930D01*
X024430Y010930D02*
X024584Y010930D01*
X024507Y010930D02*
X024507Y010470D01*
X024430Y010470D02*
X024584Y010470D01*
X024737Y010470D02*
X024737Y010930D01*
X025044Y010470D01*
X025044Y010930D01*
X025658Y010777D02*
X025658Y010470D01*
X025658Y010700D02*
X025965Y010700D01*
X025965Y010777D02*
X025965Y010470D01*
X026118Y010470D02*
X026349Y010470D01*
X026425Y010547D01*
X026425Y010854D01*
X026349Y010930D01*
X026118Y010930D01*
X026118Y010470D01*
X025965Y010777D02*
X025812Y010930D01*
X025658Y010777D01*
X026579Y010854D02*
X026579Y010547D01*
X026656Y010470D01*
X026809Y010470D01*
X026886Y010547D01*
X026886Y010854D02*
X026809Y010930D01*
X026656Y010930D01*
X026579Y010854D01*
X025908Y012720D02*
X025908Y012950D01*
X025831Y013027D01*
X025601Y013027D01*
X025601Y012720D01*
X025448Y012797D02*
X025371Y012720D01*
X025218Y012720D01*
X025141Y012797D01*
X025448Y013104D01*
X025448Y012797D01*
X025448Y013104D02*
X025371Y013180D01*
X025218Y013180D01*
X025141Y013104D01*
X025141Y012797D01*
X024987Y012797D02*
X024987Y013104D01*
X024680Y012797D01*
X024757Y012720D01*
X024911Y012720D01*
X024987Y012797D01*
X024680Y012797D02*
X024680Y013104D01*
X024757Y013180D01*
X024911Y013180D01*
X024987Y013104D01*
X024527Y012720D02*
X024220Y012720D01*
X024373Y012720D02*
X024373Y013180D01*
X024220Y013027D01*
X023970Y010930D02*
X023970Y010623D01*
X024123Y010470D01*
X025880Y007947D02*
X025820Y007887D01*
X025820Y007767D01*
X025880Y007707D01*
X026120Y007707D01*
X025880Y007947D01*
X026120Y007947D01*
X026180Y007887D01*
X026180Y007767D01*
X026120Y007707D01*
X026180Y007579D02*
X026180Y007338D01*
X026180Y007458D02*
X025820Y007458D01*
X025940Y007338D01*
X026000Y007210D02*
X026060Y007150D01*
X026060Y006970D01*
X026180Y006970D02*
X025820Y006970D01*
X025820Y007150D01*
X025880Y007210D01*
X026000Y007210D01*
X026060Y007090D02*
X026180Y007210D01*
X028970Y009220D02*
X028970Y009680D01*
X028970Y009220D02*
X029277Y009220D01*
X029430Y009220D02*
X029430Y009680D01*
X029584Y009527D01*
X029737Y009680D01*
X029737Y009220D01*
X029891Y009297D02*
X029968Y009220D01*
X030121Y009220D01*
X030198Y009297D01*
X030198Y009373D01*
X030121Y009450D01*
X029891Y009450D01*
X029891Y009297D01*
X029891Y009450D02*
X030044Y009604D01*
X030198Y009680D01*
X030351Y009527D02*
X030505Y009680D01*
X030505Y009220D01*
X030658Y009220D02*
X030351Y009220D01*
X029680Y008658D02*
X029450Y008658D01*
X029373Y008581D01*
X029373Y008351D01*
X029680Y008351D01*
X029603Y008198D02*
X029680Y008121D01*
X029680Y007968D01*
X029603Y007891D01*
X029296Y008198D01*
X029603Y008198D01*
X029296Y008198D02*
X029220Y008121D01*
X029220Y007968D01*
X029296Y007891D01*
X029603Y007891D01*
X029603Y007737D02*
X029680Y007661D01*
X029680Y007507D01*
X029603Y007430D01*
X029296Y007737D01*
X029603Y007737D01*
X029603Y007430D02*
X029296Y007430D01*
X029220Y007507D01*
X029220Y007661D01*
X029296Y007737D01*
X029680Y007277D02*
X029680Y006970D01*
X029680Y007123D02*
X029220Y007123D01*
X029373Y006970D01*
X038130Y027720D02*
X038370Y027720D01*
X038430Y027780D01*
X038430Y027900D01*
X038370Y027960D01*
X038370Y028088D02*
X038430Y028148D01*
X038430Y028268D01*
X038370Y028329D01*
X038130Y028329D01*
X038070Y028268D01*
X038070Y028148D01*
X038130Y028088D01*
X038190Y028088D01*
X038250Y028148D01*
X038250Y028329D01*
X038130Y027960D02*
X038070Y027900D01*
X038070Y027780D01*
X038130Y027720D01*
X036430Y028970D02*
X036430Y029277D01*
X036430Y029123D02*
X035970Y029123D01*
X036123Y028970D01*
X036046Y029430D02*
X035970Y029507D01*
X035970Y029661D01*
X036046Y029737D01*
X036353Y029430D01*
X036430Y029507D01*
X036430Y029661D01*
X036353Y029737D01*
X036046Y029737D01*
X036046Y029891D02*
X035970Y029968D01*
X035970Y030121D01*
X036046Y030198D01*
X036353Y029891D01*
X036430Y029968D01*
X036430Y030121D01*
X036353Y030198D01*
X036046Y030198D01*
X036123Y030351D02*
X036353Y030351D01*
X036430Y030428D01*
X036430Y030658D01*
X036123Y030658D01*
X036046Y029891D02*
X036353Y029891D01*
X036353Y029430D02*
X036046Y029430D01*
D15*
X036600Y029950D02*
X036602Y030023D01*
X036608Y030096D01*
X036618Y030168D01*
X036632Y030240D01*
X036649Y030311D01*
X036671Y030381D01*
X036696Y030450D01*
X036725Y030517D01*
X036757Y030582D01*
X036793Y030646D01*
X036833Y030708D01*
X036875Y030767D01*
X036921Y030824D01*
X036970Y030878D01*
X037022Y030930D01*
X037076Y030979D01*
X037133Y031025D01*
X037192Y031067D01*
X037254Y031107D01*
X037318Y031143D01*
X037383Y031175D01*
X037450Y031204D01*
X037519Y031229D01*
X037589Y031251D01*
X037660Y031268D01*
X037732Y031282D01*
X037804Y031292D01*
X037877Y031298D01*
X037950Y031300D01*
X038023Y031298D01*
X038096Y031292D01*
X038168Y031282D01*
X038240Y031268D01*
X038311Y031251D01*
X038381Y031229D01*
X038450Y031204D01*
X038517Y031175D01*
X038582Y031143D01*
X038646Y031107D01*
X038708Y031067D01*
X038767Y031025D01*
X038824Y030979D01*
X038878Y030930D01*
X038930Y030878D01*
X038979Y030824D01*
X039025Y030767D01*
X039067Y030708D01*
X039107Y030646D01*
X039143Y030582D01*
X039175Y030517D01*
X039204Y030450D01*
X039229Y030381D01*
X039251Y030311D01*
X039268Y030240D01*
X039282Y030168D01*
X039292Y030096D01*
X039298Y030023D01*
X039300Y029950D01*
X039298Y029877D01*
X039292Y029804D01*
X039282Y029732D01*
X039268Y029660D01*
X039251Y029589D01*
X039229Y029519D01*
X039204Y029450D01*
X039175Y029383D01*
X039143Y029318D01*
X039107Y029254D01*
X039067Y029192D01*
X039025Y029133D01*
X038979Y029076D01*
X038930Y029022D01*
X038878Y028970D01*
X038824Y028921D01*
X038767Y028875D01*
X038708Y028833D01*
X038646Y028793D01*
X038582Y028757D01*
X038517Y028725D01*
X038450Y028696D01*
X038381Y028671D01*
X038311Y028649D01*
X038240Y028632D01*
X038168Y028618D01*
X038096Y028608D01*
X038023Y028602D01*
X037950Y028600D01*
X037877Y028602D01*
X037804Y028608D01*
X037732Y028618D01*
X037660Y028632D01*
X037589Y028649D01*
X037519Y028671D01*
X037450Y028696D01*
X037383Y028725D01*
X037318Y028757D01*
X037254Y028793D01*
X037192Y028833D01*
X037133Y028875D01*
X037076Y028921D01*
X037022Y028970D01*
X036970Y029022D01*
X036921Y029076D01*
X036875Y029133D01*
X036833Y029192D01*
X036793Y029254D01*
X036757Y029318D01*
X036725Y029383D01*
X036696Y029450D01*
X036671Y029519D01*
X036649Y029589D01*
X036632Y029660D01*
X036618Y029732D01*
X036608Y029804D01*
X036602Y029877D01*
X036600Y029950D01*
X033576Y029420D02*
X033282Y028980D01*
X033115Y028980D02*
X032968Y029127D01*
X033042Y029127D02*
X032822Y029127D01*
X032822Y028980D02*
X032822Y029420D01*
X033042Y029420D01*
X033115Y029347D01*
X033115Y029200D01*
X033042Y029127D01*
X033282Y029420D02*
X033576Y028980D01*
X033576Y028670D02*
X033282Y028230D01*
X033576Y028230D02*
X033282Y028670D01*
X033115Y028670D02*
X032822Y028670D01*
X032968Y028670D02*
X032968Y028230D01*
X032194Y028670D02*
X031901Y028670D01*
X031901Y028230D01*
X031734Y028230D02*
X031587Y028377D01*
X031661Y028377D02*
X031440Y028377D01*
X031440Y028230D02*
X031440Y028670D01*
X031661Y028670D01*
X031734Y028597D01*
X031734Y028450D01*
X031661Y028377D01*
X031901Y028450D02*
X032048Y028450D01*
X031901Y028980D02*
X031901Y029420D01*
X032194Y029420D01*
X032048Y029200D02*
X031901Y029200D01*
X031734Y029200D02*
X031661Y029127D01*
X031440Y029127D01*
X031440Y028980D02*
X031440Y029420D01*
X031661Y029420D01*
X031734Y029347D01*
X031734Y029200D01*
X031587Y029127D02*
X031734Y028980D01*
X031274Y028980D02*
X030980Y029420D01*
X031274Y029420D02*
X030980Y028980D01*
X030980Y028670D02*
X031274Y028230D01*
X030980Y028230D02*
X031274Y028670D01*
X029944Y028670D02*
X029944Y028597D01*
X029651Y028303D01*
X029651Y028230D01*
X029484Y028450D02*
X029484Y028597D01*
X029411Y028670D01*
X029190Y028670D01*
X029190Y028230D01*
X029190Y028377D02*
X029411Y028377D01*
X029484Y028450D01*
X029651Y028670D02*
X029944Y028670D01*
X029871Y028980D02*
X029944Y029053D01*
X029944Y029347D01*
X029871Y029420D01*
X029724Y029420D01*
X029651Y029347D01*
X029651Y029274D01*
X029724Y029200D01*
X029944Y029200D01*
X029871Y028980D02*
X029724Y028980D01*
X029651Y029053D01*
X029484Y029200D02*
X029411Y029127D01*
X029190Y029127D01*
X029190Y028980D02*
X029190Y029420D01*
X029411Y029420D01*
X029484Y029347D01*
X029484Y029200D01*
X029024Y029420D02*
X028877Y029420D01*
X028950Y029420D02*
X028950Y029053D01*
X028877Y028980D01*
X028803Y028980D01*
X028730Y029053D01*
X028877Y028670D02*
X029024Y028670D01*
X028950Y028670D02*
X028950Y028303D01*
X028877Y028230D01*
X028803Y028230D01*
X028730Y028303D01*
X020700Y027200D02*
X020700Y026200D01*
X020700Y024200D01*
X020700Y023200D01*
X016700Y023200D01*
X016700Y024200D01*
X016700Y024800D01*
X016739Y024802D01*
X016778Y024808D01*
X016816Y024817D01*
X016853Y024830D01*
X016889Y024847D01*
X016922Y024867D01*
X016954Y024891D01*
X016983Y024917D01*
X017009Y024946D01*
X017033Y024978D01*
X017053Y025011D01*
X017070Y025047D01*
X017083Y025084D01*
X017092Y025122D01*
X017098Y025161D01*
X017100Y025200D01*
X017098Y025239D01*
X017092Y025278D01*
X017083Y025316D01*
X017070Y025353D01*
X017053Y025389D01*
X017033Y025422D01*
X017009Y025454D01*
X016983Y025483D01*
X016954Y025509D01*
X016922Y025533D01*
X016889Y025553D01*
X016853Y025570D01*
X016816Y025583D01*
X016778Y025592D01*
X016739Y025598D01*
X016700Y025600D01*
X016700Y026200D02*
X020700Y026200D01*
X020700Y027200D02*
X016700Y027200D01*
X016700Y026200D01*
X017750Y024410D02*
X017750Y022990D01*
X016700Y024200D02*
X020700Y024200D01*
X019650Y024410D02*
X019650Y022990D01*
X014400Y018150D02*
X014400Y017250D01*
X011000Y017250D02*
X011000Y017580D01*
X011000Y017820D01*
X011000Y018150D01*
X011000Y017820D02*
X011021Y017818D01*
X011041Y017813D01*
X011060Y017804D01*
X011077Y017792D01*
X011092Y017777D01*
X011104Y017760D01*
X011113Y017741D01*
X011118Y017721D01*
X011120Y017700D01*
X011118Y017679D01*
X011113Y017659D01*
X011104Y017640D01*
X011092Y017623D01*
X011077Y017608D01*
X011060Y017596D01*
X011041Y017587D01*
X011021Y017582D01*
X011000Y017580D01*
X011627Y013670D02*
X011774Y013670D01*
X011700Y013670D02*
X011700Y013303D01*
X011627Y013230D01*
X011553Y013230D01*
X011480Y013303D01*
X011940Y013230D02*
X011940Y013670D01*
X012161Y013670D01*
X012234Y013597D01*
X012234Y013450D01*
X012161Y013377D01*
X011940Y013377D01*
X012401Y013230D02*
X012694Y013524D01*
X012694Y013597D01*
X012621Y013670D01*
X012474Y013670D01*
X012401Y013597D01*
X012401Y013230D02*
X012694Y013230D01*
X013230Y013303D02*
X013303Y013230D01*
X013450Y013230D01*
X013524Y013303D01*
X013524Y013450D01*
X013450Y013524D01*
X013377Y013524D01*
X013230Y013450D01*
X013230Y013670D01*
X013524Y013670D01*
X013690Y013670D02*
X013690Y013377D01*
X013837Y013230D01*
X013984Y013377D01*
X013984Y013670D01*
X022350Y007860D02*
X022350Y007540D01*
X023050Y007540D02*
X023050Y007860D01*
X024350Y007860D02*
X024350Y007540D01*
X025050Y007540D02*
X025050Y007860D01*
X026350Y007860D02*
X026350Y007540D01*
X027050Y007540D02*
X027050Y007860D01*
X023050Y005360D02*
X023050Y005040D01*
X022350Y005040D02*
X022350Y005360D01*
X023920Y004320D02*
X024480Y004320D01*
X024480Y003080D02*
X023920Y003080D01*
X024040Y002050D02*
X024360Y002050D01*
X024360Y001350D02*
X024040Y001350D01*
X031700Y005200D02*
X031700Y006200D01*
X031700Y008200D01*
X031700Y009200D01*
X035700Y009200D01*
X035700Y008200D01*
X035700Y007600D01*
X035661Y007598D01*
X035622Y007592D01*
X035584Y007583D01*
X035547Y007570D01*
X035511Y007553D01*
X035478Y007533D01*
X035446Y007509D01*
X035417Y007483D01*
X035391Y007454D01*
X035367Y007422D01*
X035347Y007389D01*
X035330Y007353D01*
X035317Y007316D01*
X035308Y007278D01*
X035302Y007239D01*
X035300Y007200D01*
X035302Y007161D01*
X035308Y007122D01*
X035317Y007084D01*
X035330Y007047D01*
X035347Y007011D01*
X035367Y006978D01*
X035391Y006946D01*
X035417Y006917D01*
X035446Y006891D01*
X035478Y006867D01*
X035511Y006847D01*
X035547Y006830D01*
X035584Y006817D01*
X035622Y006808D01*
X035661Y006802D01*
X035700Y006800D01*
X035700Y006200D02*
X031700Y006200D01*
X031700Y005200D02*
X035700Y005200D01*
X035700Y006200D01*
X034650Y007990D02*
X034650Y009410D01*
X035700Y008200D02*
X031700Y008200D01*
X032750Y007990D02*
X032750Y009410D01*
X032792Y013980D02*
X032865Y014053D01*
X032865Y014347D01*
X032792Y014420D01*
X032645Y014420D01*
X032572Y014347D01*
X032572Y014053D01*
X032645Y013980D01*
X032792Y013980D01*
X033032Y013980D02*
X033032Y014420D01*
X033252Y014420D01*
X033326Y014347D01*
X033326Y014200D01*
X033252Y014127D01*
X033032Y014127D01*
X033179Y014127D02*
X033326Y013980D01*
X033639Y013980D02*
X033639Y014200D01*
X033786Y014347D01*
X033786Y014420D01*
X033639Y014200D02*
X033492Y014347D01*
X033492Y014420D01*
X034413Y014420D02*
X034413Y013980D01*
X034413Y014127D02*
X034633Y014127D01*
X034707Y014200D01*
X034707Y014347D01*
X034633Y014420D01*
X034413Y014420D01*
X034560Y014127D02*
X034707Y013980D01*
X034874Y013980D02*
X035167Y013980D01*
X035334Y014053D02*
X035407Y013980D01*
X035554Y013980D01*
X035628Y014053D01*
X035628Y014127D01*
X035554Y014200D01*
X035407Y014200D01*
X035334Y014274D01*
X035334Y014347D01*
X035407Y014420D01*
X035554Y014420D01*
X035628Y014347D01*
X035794Y014420D02*
X035794Y013980D01*
X036088Y013980D01*
X035941Y014200D02*
X035794Y014200D01*
X035794Y014420D02*
X036088Y014420D01*
X036255Y014420D02*
X036548Y014420D01*
X036402Y014420D02*
X036402Y013980D01*
X035167Y014420D02*
X034874Y014420D01*
X034874Y013980D01*
X034874Y014200D02*
X035020Y014200D01*
X032405Y014420D02*
X032111Y014420D01*
X032258Y014420D02*
X032258Y013980D01*
X031944Y014053D02*
X031871Y013980D01*
X031724Y013980D01*
X031651Y014053D01*
X031651Y014347D01*
X031724Y014420D01*
X031871Y014420D01*
X031944Y014347D01*
X031944Y014730D02*
X031944Y015024D01*
X031798Y015170D01*
X031651Y015024D01*
X031651Y014730D01*
X031484Y014803D02*
X031484Y015097D01*
X031411Y015170D01*
X031190Y015170D01*
X031190Y014730D01*
X031411Y014730D01*
X031484Y014803D01*
X031651Y014950D02*
X031944Y014950D01*
X031944Y015480D02*
X031651Y015480D01*
X031651Y015920D01*
X031484Y015847D02*
X031411Y015920D01*
X031264Y015920D01*
X031190Y015847D01*
X031190Y015553D01*
X031264Y015480D01*
X031411Y015480D01*
X031484Y015553D01*
X031024Y015553D02*
X030950Y015480D01*
X030803Y015480D01*
X030730Y015553D01*
X030803Y015700D02*
X030950Y015700D01*
X031024Y015627D01*
X031024Y015553D01*
X030803Y015700D02*
X030730Y015774D01*
X030730Y015847D01*
X030803Y015920D01*
X030950Y015920D01*
X031024Y015847D01*
X030950Y015170D02*
X030803Y015170D01*
X030730Y015097D01*
X030730Y015024D01*
X030803Y014950D01*
X030950Y014950D01*
X031024Y014877D01*
X031024Y014803D01*
X030950Y014730D01*
X030803Y014730D01*
X030730Y014803D01*
X030730Y014420D02*
X031024Y014420D01*
X031190Y014274D02*
X031337Y014420D01*
X031484Y014274D01*
X031484Y013980D01*
X031484Y014200D02*
X031190Y014200D01*
X031190Y014274D02*
X031190Y013980D01*
X030877Y014200D02*
X030730Y014200D01*
X030730Y013980D02*
X030730Y014420D01*
X031024Y015097D02*
X030950Y015170D01*
X029944Y014730D02*
X029651Y014730D01*
X029798Y014730D02*
X029798Y015170D01*
X029651Y015024D01*
X029484Y015097D02*
X029484Y014950D01*
X029411Y014877D01*
X029190Y014877D01*
X029190Y014730D02*
X029190Y015170D01*
X029411Y015170D01*
X029484Y015097D01*
X029024Y015170D02*
X028877Y015170D01*
X028950Y015170D02*
X028950Y014803D01*
X028877Y014730D01*
X028803Y014730D01*
X028730Y014803D01*
X028877Y014420D02*
X029024Y014420D01*
X028950Y014420D02*
X028950Y014053D01*
X028877Y013980D01*
X028803Y013980D01*
X028730Y014053D01*
X029190Y013980D02*
X029190Y014420D01*
X029411Y014420D01*
X029484Y014347D01*
X029484Y014200D01*
X029411Y014127D01*
X029190Y014127D01*
X029651Y014127D02*
X029724Y014200D01*
X029871Y014200D01*
X029944Y014127D01*
X029944Y014053D01*
X029871Y013980D01*
X029724Y013980D01*
X029651Y014053D01*
X029651Y014127D01*
X029724Y014200D02*
X029651Y014274D01*
X029651Y014347D01*
X029724Y014420D01*
X029871Y014420D01*
X029944Y014347D01*
X029944Y014274D01*
X029871Y014200D01*
X029871Y015480D02*
X029871Y015920D01*
X029651Y015700D01*
X029944Y015700D01*
X029484Y015700D02*
X029411Y015627D01*
X029190Y015627D01*
X029190Y015480D02*
X029190Y015920D01*
X029411Y015920D01*
X029484Y015847D01*
X029484Y015700D01*
X029024Y015920D02*
X028877Y015920D01*
X028950Y015920D02*
X028950Y015553D01*
X028877Y015480D01*
X028803Y015480D01*
X028730Y015553D01*
X013207Y026950D02*
X013133Y026877D01*
X012913Y026877D01*
X012913Y026730D02*
X012913Y027170D01*
X013133Y027170D01*
X013207Y027097D01*
X013207Y026950D01*
X012746Y026730D02*
X012453Y026730D01*
X012453Y027170D01*
X012746Y027170D01*
X012600Y026950D02*
X012453Y026950D01*
X012286Y026730D02*
X011992Y026730D01*
X011992Y027170D01*
X012286Y027170D01*
X012139Y026950D02*
X011992Y026950D01*
X011826Y026730D02*
X011532Y026730D01*
X011532Y027170D01*
X011365Y027097D02*
X011292Y027170D01*
X011145Y027170D01*
X011072Y027097D01*
X011072Y027024D01*
X011145Y026950D01*
X011292Y026950D01*
X011365Y026877D01*
X011365Y026803D01*
X011292Y026730D01*
X011145Y026730D01*
X011072Y026803D01*
X011145Y026420D02*
X011292Y026420D01*
X011365Y026347D01*
X011072Y026053D01*
X011145Y025980D01*
X011292Y025980D01*
X011365Y026053D01*
X011365Y026347D01*
X011145Y026420D02*
X011072Y026347D01*
X011072Y026053D01*
X010905Y025980D02*
X010758Y026127D01*
X010831Y026127D02*
X010611Y026127D01*
X010611Y025980D02*
X010611Y026420D01*
X010831Y026420D01*
X010905Y026347D01*
X010905Y026200D01*
X010831Y026127D01*
X010444Y026053D02*
X010444Y026347D01*
X010371Y026420D01*
X010151Y026420D01*
X010151Y025980D01*
X010371Y025980D01*
X010444Y026053D01*
X010371Y025670D02*
X010151Y025670D01*
X010151Y025230D01*
X010371Y025230D01*
X010444Y025303D01*
X010444Y025597D01*
X010371Y025670D01*
X010611Y025670D02*
X010831Y025670D01*
X010905Y025597D01*
X010905Y025450D01*
X010831Y025377D01*
X010611Y025377D01*
X010758Y025377D02*
X010905Y025230D01*
X011072Y025230D02*
X011365Y025230D01*
X011218Y025230D02*
X011218Y025670D01*
X011072Y025524D01*
X010611Y025670D02*
X010611Y025230D01*
X009984Y025303D02*
X009984Y025597D01*
X009911Y025670D01*
X009690Y025670D01*
X009690Y025230D01*
X009911Y025230D01*
X009984Y025303D01*
X009524Y025230D02*
X009524Y025524D01*
X009377Y025670D01*
X009230Y025524D01*
X009230Y025230D01*
X009230Y025450D02*
X009524Y025450D01*
X009524Y025980D02*
X009524Y026274D01*
X009377Y026420D01*
X009230Y026274D01*
X009230Y025980D01*
X009230Y026200D02*
X009524Y026200D01*
X009690Y026420D02*
X009690Y025980D01*
X009911Y025980D01*
X009984Y026053D01*
X009984Y026347D01*
X009911Y026420D01*
X009690Y026420D01*
X009690Y026730D02*
X009690Y027170D01*
X009911Y027170D01*
X009984Y027097D01*
X009984Y026950D01*
X009911Y026877D01*
X009690Y026877D01*
X009837Y026877D02*
X009984Y026730D01*
X010151Y026730D02*
X010151Y027170D01*
X010444Y027170D01*
X010298Y026950D02*
X010151Y026950D01*
X010151Y027480D02*
X010151Y027920D01*
X010444Y027920D01*
X010298Y027700D02*
X010151Y027700D01*
X009984Y027700D02*
X009911Y027627D01*
X009690Y027627D01*
X009690Y027480D02*
X009690Y027920D01*
X009911Y027920D01*
X009984Y027847D01*
X009984Y027700D01*
X009837Y027627D02*
X009984Y027480D01*
X009524Y027480D02*
X009230Y027920D01*
X009524Y027920D02*
X009230Y027480D01*
X009230Y027170D02*
X009524Y026730D01*
X009230Y026730D02*
X009524Y027170D01*
X008655Y027553D02*
X008581Y027480D01*
X008435Y027480D01*
X008361Y027553D01*
X008655Y027847D01*
X008655Y027553D01*
X008361Y027553D02*
X008361Y027847D01*
X008435Y027920D01*
X008581Y027920D01*
X008655Y027847D01*
X008194Y027480D02*
X007901Y027480D01*
X008048Y027480D02*
X008048Y027920D01*
X007901Y027774D01*
X007734Y027847D02*
X007734Y027700D01*
X007661Y027627D01*
X007440Y027627D01*
X007440Y027480D02*
X007440Y027920D01*
X007661Y027920D01*
X007734Y027847D01*
X007274Y027920D02*
X007127Y027920D01*
X007200Y027920D02*
X007200Y027553D01*
X007127Y027480D01*
X007053Y027480D01*
X006980Y027553D01*
X007127Y027170D02*
X007274Y027170D01*
X007200Y027170D02*
X007200Y026803D01*
X007127Y026730D01*
X007053Y026730D01*
X006980Y026803D01*
X007097Y026390D02*
X007244Y026390D01*
X007170Y026390D02*
X007170Y026023D01*
X007097Y025950D01*
X007023Y025950D01*
X006950Y026023D01*
X007127Y025670D02*
X007274Y025670D01*
X007200Y025670D02*
X007200Y025303D01*
X007127Y025230D01*
X007053Y025230D01*
X006980Y025303D01*
X007440Y025230D02*
X007440Y025670D01*
X007661Y025670D01*
X007734Y025597D01*
X007734Y025450D01*
X007661Y025377D01*
X007440Y025377D01*
X007901Y025450D02*
X008121Y025450D01*
X008194Y025377D01*
X008194Y025303D01*
X008121Y025230D01*
X007974Y025230D01*
X007901Y025303D01*
X007901Y025450D01*
X008048Y025597D01*
X008194Y025670D01*
X008091Y025950D02*
X007944Y025950D01*
X007871Y026023D01*
X007871Y026170D02*
X008018Y026244D01*
X008091Y026244D01*
X008164Y026170D01*
X008164Y026023D01*
X008091Y025950D01*
X007871Y026170D02*
X007871Y026390D01*
X008164Y026390D01*
X008194Y026730D02*
X007901Y026730D01*
X008048Y026730D02*
X008048Y027170D01*
X007901Y027024D01*
X007734Y027097D02*
X007734Y026950D01*
X007661Y026877D01*
X007440Y026877D01*
X007440Y026730D02*
X007440Y027170D01*
X007661Y027170D01*
X007734Y027097D01*
X008361Y027024D02*
X008508Y027170D01*
X008508Y026730D01*
X008361Y026730D02*
X008655Y026730D01*
X007704Y026317D02*
X007704Y026170D01*
X007631Y026097D01*
X007410Y026097D01*
X007410Y025950D02*
X007410Y026390D01*
X007631Y026390D01*
X007704Y026317D01*
X011072Y027480D02*
X011072Y027920D01*
X011292Y027920D01*
X011365Y027847D01*
X011365Y027700D01*
X011292Y027627D01*
X011072Y027627D01*
X011218Y027627D02*
X011365Y027480D01*
X011532Y027480D02*
X011826Y027480D01*
X011992Y027553D02*
X012066Y027480D01*
X012213Y027480D01*
X012286Y027553D01*
X012286Y027627D01*
X012213Y027700D01*
X012066Y027700D01*
X011992Y027774D01*
X011992Y027847D01*
X012066Y027920D01*
X012213Y027920D01*
X012286Y027847D01*
X012453Y027920D02*
X012453Y027480D01*
X012746Y027480D01*
X012600Y027700D02*
X012453Y027700D01*
X012453Y027920D02*
X012746Y027920D01*
X012913Y027920D02*
X013207Y027920D01*
X013060Y027920D02*
X013060Y027480D01*
X013344Y028040D02*
X011042Y028040D01*
X011532Y027920D02*
X011532Y027480D01*
X011532Y027700D02*
X011679Y027700D01*
X011826Y027920D02*
X011532Y027920D01*
X001100Y029950D02*
X001102Y030023D01*
X001108Y030096D01*
X001118Y030168D01*
X001132Y030240D01*
X001149Y030311D01*
X001171Y030381D01*
X001196Y030450D01*
X001225Y030517D01*
X001257Y030582D01*
X001293Y030646D01*
X001333Y030708D01*
X001375Y030767D01*
X001421Y030824D01*
X001470Y030878D01*
X001522Y030930D01*
X001576Y030979D01*
X001633Y031025D01*
X001692Y031067D01*
X001754Y031107D01*
X001818Y031143D01*
X001883Y031175D01*
X001950Y031204D01*
X002019Y031229D01*
X002089Y031251D01*
X002160Y031268D01*
X002232Y031282D01*
X002304Y031292D01*
X002377Y031298D01*
X002450Y031300D01*
X002523Y031298D01*
X002596Y031292D01*
X002668Y031282D01*
X002740Y031268D01*
X002811Y031251D01*
X002881Y031229D01*
X002950Y031204D01*
X003017Y031175D01*
X003082Y031143D01*
X003146Y031107D01*
X003208Y031067D01*
X003267Y031025D01*
X003324Y030979D01*
X003378Y030930D01*
X003430Y030878D01*
X003479Y030824D01*
X003525Y030767D01*
X003567Y030708D01*
X003607Y030646D01*
X003643Y030582D01*
X003675Y030517D01*
X003704Y030450D01*
X003729Y030381D01*
X003751Y030311D01*
X003768Y030240D01*
X003782Y030168D01*
X003792Y030096D01*
X003798Y030023D01*
X003800Y029950D01*
X003798Y029877D01*
X003792Y029804D01*
X003782Y029732D01*
X003768Y029660D01*
X003751Y029589D01*
X003729Y029519D01*
X003704Y029450D01*
X003675Y029383D01*
X003643Y029318D01*
X003607Y029254D01*
X003567Y029192D01*
X003525Y029133D01*
X003479Y029076D01*
X003430Y029022D01*
X003378Y028970D01*
X003324Y028921D01*
X003267Y028875D01*
X003208Y028833D01*
X003146Y028793D01*
X003082Y028757D01*
X003017Y028725D01*
X002950Y028696D01*
X002881Y028671D01*
X002811Y028649D01*
X002740Y028632D01*
X002668Y028618D01*
X002596Y028608D01*
X002523Y028602D01*
X002450Y028600D01*
X002377Y028602D01*
X002304Y028608D01*
X002232Y028618D01*
X002160Y028632D01*
X002089Y028649D01*
X002019Y028671D01*
X001950Y028696D01*
X001883Y028725D01*
X001818Y028757D01*
X001754Y028793D01*
X001692Y028833D01*
X001633Y028875D01*
X001576Y028921D01*
X001522Y028970D01*
X001470Y029022D01*
X001421Y029076D01*
X001375Y029133D01*
X001333Y029192D01*
X001293Y029254D01*
X001257Y029318D01*
X001225Y029383D01*
X001196Y029450D01*
X001171Y029519D01*
X001149Y029589D01*
X001132Y029660D01*
X001118Y029732D01*
X001108Y029804D01*
X001102Y029877D01*
X001100Y029950D01*
X036600Y002450D02*
X036602Y002523D01*
X036608Y002596D01*
X036618Y002668D01*
X036632Y002740D01*
X036649Y002811D01*
X036671Y002881D01*
X036696Y002950D01*
X036725Y003017D01*
X036757Y003082D01*
X036793Y003146D01*
X036833Y003208D01*
X036875Y003267D01*
X036921Y003324D01*
X036970Y003378D01*
X037022Y003430D01*
X037076Y003479D01*
X037133Y003525D01*
X037192Y003567D01*
X037254Y003607D01*
X037318Y003643D01*
X037383Y003675D01*
X037450Y003704D01*
X037519Y003729D01*
X037589Y003751D01*
X037660Y003768D01*
X037732Y003782D01*
X037804Y003792D01*
X037877Y003798D01*
X037950Y003800D01*
X038023Y003798D01*
X038096Y003792D01*
X038168Y003782D01*
X038240Y003768D01*
X038311Y003751D01*
X038381Y003729D01*
X038450Y003704D01*
X038517Y003675D01*
X038582Y003643D01*
X038646Y003607D01*
X038708Y003567D01*
X038767Y003525D01*
X038824Y003479D01*
X038878Y003430D01*
X038930Y003378D01*
X038979Y003324D01*
X039025Y003267D01*
X039067Y003208D01*
X039107Y003146D01*
X039143Y003082D01*
X039175Y003017D01*
X039204Y002950D01*
X039229Y002881D01*
X039251Y002811D01*
X039268Y002740D01*
X039282Y002668D01*
X039292Y002596D01*
X039298Y002523D01*
X039300Y002450D01*
X039298Y002377D01*
X039292Y002304D01*
X039282Y002232D01*
X039268Y002160D01*
X039251Y002089D01*
X039229Y002019D01*
X039204Y001950D01*
X039175Y001883D01*
X039143Y001818D01*
X039107Y001754D01*
X039067Y001692D01*
X039025Y001633D01*
X038979Y001576D01*
X038930Y001522D01*
X038878Y001470D01*
X038824Y001421D01*
X038767Y001375D01*
X038708Y001333D01*
X038646Y001293D01*
X038582Y001257D01*
X038517Y001225D01*
X038450Y001196D01*
X038381Y001171D01*
X038311Y001149D01*
X038240Y001132D01*
X038168Y001118D01*
X038096Y001108D01*
X038023Y001102D01*
X037950Y001100D01*
X037877Y001102D01*
X037804Y001108D01*
X037732Y001118D01*
X037660Y001132D01*
X037589Y001149D01*
X037519Y001171D01*
X037450Y001196D01*
X037383Y001225D01*
X037318Y001257D01*
X037254Y001293D01*
X037192Y001333D01*
X037133Y001375D01*
X037076Y001421D01*
X037022Y001470D01*
X036970Y001522D01*
X036921Y001576D01*
X036875Y001633D01*
X036833Y001692D01*
X036793Y001754D01*
X036757Y001818D01*
X036725Y001883D01*
X036696Y001950D01*
X036671Y002019D01*
X036649Y002089D01*
X036632Y002160D01*
X036618Y002232D01*
X036608Y002304D01*
X036602Y002377D01*
X036600Y002450D01*
D16*
X027585Y007027D02*
X027585Y007150D01*
X027523Y007212D01*
X027276Y007212D01*
X027215Y007150D01*
X027215Y007027D01*
X027276Y006965D01*
X027338Y006965D01*
X027400Y007027D01*
X027400Y007212D01*
X027338Y007333D02*
X027215Y007457D01*
X027585Y007457D01*
X027585Y007580D02*
X027585Y007333D01*
X027585Y007027D02*
X027523Y006965D01*
X027523Y007702D02*
X027276Y007949D01*
X027523Y007949D01*
X027585Y007887D01*
X027585Y007763D01*
X027523Y007702D01*
X027276Y007702D01*
X027215Y007763D01*
X027215Y007887D01*
X027276Y007949D01*
X027215Y008070D02*
X027585Y008070D01*
X027462Y008070D02*
X027338Y008255D01*
X027462Y008070D02*
X027585Y008255D01*
X025585Y007887D02*
X025462Y007702D01*
X025338Y007887D01*
X025215Y007702D02*
X025585Y007702D01*
X025523Y007580D02*
X025585Y007518D01*
X025585Y007395D01*
X025523Y007333D01*
X025400Y007333D02*
X025338Y007457D01*
X025338Y007518D01*
X025400Y007580D01*
X025523Y007580D01*
X025400Y007333D02*
X025215Y007333D01*
X025215Y007580D01*
X025585Y007212D02*
X025585Y006965D01*
X025585Y007088D02*
X025215Y007088D01*
X025338Y006965D01*
X025137Y006426D02*
X024943Y006426D01*
X025137Y006233D01*
X025185Y006281D01*
X025185Y006378D01*
X025137Y006426D01*
X025137Y006233D02*
X024943Y006233D01*
X024895Y006281D01*
X024895Y006378D01*
X024943Y006426D01*
X025040Y006132D02*
X025040Y005938D01*
X024895Y006083D01*
X025185Y006083D01*
X025137Y005837D02*
X025088Y005837D01*
X025040Y005789D01*
X025040Y005644D01*
X025137Y005644D01*
X025185Y005692D01*
X025185Y005789D01*
X025137Y005837D01*
X024943Y005740D02*
X025040Y005644D01*
X024943Y005740D02*
X024895Y005837D01*
X025185Y005542D02*
X025185Y005349D01*
X025185Y005446D02*
X024895Y005446D01*
X024992Y005349D01*
X025040Y005248D02*
X024943Y005248D01*
X024895Y005199D01*
X024895Y005054D01*
X025185Y005054D01*
X025088Y005054D02*
X025088Y005199D01*
X025040Y005248D01*
X025137Y004953D02*
X025185Y004905D01*
X025185Y004808D01*
X025137Y004760D01*
X024943Y004760D01*
X024895Y004808D01*
X024895Y004905D01*
X024943Y004953D01*
X024895Y004658D02*
X025185Y004658D01*
X025185Y004465D02*
X024895Y004465D01*
X024992Y004562D01*
X024895Y004658D01*
X023585Y004712D02*
X023585Y004465D01*
X023585Y004588D02*
X023215Y004588D01*
X023338Y004465D01*
X023276Y004833D02*
X023215Y004895D01*
X023215Y005018D01*
X023276Y005080D01*
X023523Y004833D01*
X023585Y004895D01*
X023585Y005018D01*
X023523Y005080D01*
X023276Y005080D01*
X023338Y005202D02*
X023523Y005202D01*
X023585Y005263D01*
X023585Y005449D01*
X023338Y005449D01*
X023276Y004833D02*
X023523Y004833D01*
X024601Y003037D02*
X024915Y002723D01*
X024758Y002723D02*
X024758Y003037D01*
X024915Y003037D02*
X024601Y002723D01*
X024601Y002880D02*
X024915Y002880D01*
X025900Y001585D02*
X025715Y001400D01*
X025962Y001400D01*
X026083Y001462D02*
X026083Y001277D01*
X026145Y001215D01*
X026330Y001215D01*
X026330Y001462D01*
X026452Y001585D02*
X026699Y001585D01*
X026699Y001524D01*
X026452Y001277D01*
X026452Y001215D01*
X025900Y001215D02*
X025900Y001585D01*
X024185Y006965D02*
X023815Y006965D01*
X023815Y007150D01*
X023876Y007212D01*
X024000Y007212D01*
X024062Y007150D01*
X024062Y006965D01*
X024062Y007088D02*
X024185Y007212D01*
X024185Y007333D02*
X024185Y007580D01*
X024185Y007702D02*
X024185Y007949D01*
X024185Y007825D02*
X023815Y007825D01*
X023938Y007702D01*
X023815Y007457D02*
X024185Y007457D01*
X023938Y007333D02*
X023815Y007457D01*
X023585Y007457D02*
X023215Y007457D01*
X023338Y007333D01*
X023400Y007212D02*
X023338Y007150D01*
X023338Y007088D01*
X023400Y006965D01*
X023215Y006965D01*
X023215Y007212D01*
X023400Y007212D02*
X023523Y007212D01*
X023585Y007150D01*
X023585Y007027D01*
X023523Y006965D01*
X023585Y007333D02*
X023585Y007580D01*
X023523Y007702D02*
X023276Y007949D01*
X023523Y007949D01*
X023585Y007887D01*
X023585Y007763D01*
X023523Y007702D01*
X023276Y007702D01*
X023215Y007763D01*
X023215Y007887D01*
X023276Y007949D01*
X023215Y008070D02*
X023585Y008070D01*
X023462Y008070D02*
X023338Y008255D01*
X023462Y008070D02*
X023585Y008255D01*
X010937Y016455D02*
X010623Y016769D01*
X010780Y016769D02*
X010780Y016455D01*
X010623Y016455D02*
X010937Y016769D01*
X010937Y016612D02*
X010623Y016612D01*
X038815Y027838D02*
X039185Y027838D01*
X039185Y027715D02*
X039185Y027962D01*
X039123Y028083D02*
X038876Y028330D01*
X039123Y028330D01*
X039185Y028268D01*
X039185Y028145D01*
X039123Y028083D01*
X038876Y028083D01*
X038815Y028145D01*
X038815Y028268D01*
X038876Y028330D01*
X038876Y028452D02*
X038815Y028513D01*
X038815Y028637D01*
X038876Y028699D01*
X039123Y028452D01*
X039185Y028513D01*
X039185Y028637D01*
X039123Y028699D01*
X038876Y028699D01*
X038938Y028820D02*
X038938Y029005D01*
X039000Y029067D01*
X039185Y029067D01*
X039185Y028820D02*
X038938Y028820D01*
X038876Y028452D02*
X039123Y028452D01*
X038815Y027838D02*
X038938Y027715D01*
M02*
