%
M48
M72
T01C0.0200
T02C0.0276
T03C0.0315
T04C0.0320
T05C0.0354
T06C0.0394
T07C0.0400
T08C0.0512
T09C0.1181
T10C0.1260
%
T01
X9700Y14700
X11200Y14700
X11700Y17600
X12200Y17900
X12700Y17600
X13700Y17800
X14400Y19700
X15200Y19700
X13500Y21200
X12200Y20700
X10600Y19000
X11200Y17900
X7200Y24200
X12700Y25700
X19100Y27700
X28500Y16700
X19600Y12800
X24100Y6500
X23800Y4700
X25300Y3700
T02
X30200Y4700
X30200Y5700
X30200Y7200
X30200Y8200
X33200Y4200
X34200Y4200
X37200Y5200
X37200Y6200
X28700Y12700
X27700Y12700
X26700Y18700
X25700Y18700
X22200Y24216
X21200Y24700
X21200Y25700
X22200Y26184
X16200Y26169
X16200Y24200
X5700Y28200
X4700Y28200
X13700Y15700
X13700Y14700
X35200Y16200
X36200Y16200
X36200Y27200
X36200Y28200
X37700Y27200
X38700Y27200
T03
X38574Y26031
X37787Y26031
X36999Y26031
X36212Y26031
X35424Y26031
X34637Y26031
X33850Y26031
X33062Y26031
X32275Y26031
X31487Y26031
X31487Y17369
X32275Y17369
X33062Y17369
X33850Y17369
X34637Y17369
X35424Y17369
X36212Y17369
X36999Y17369
X37787Y17369
X38574Y17369
T04
X28200Y9700
X27200Y9700
X27700Y10450
X32200Y8700
X33200Y8700
X34200Y8700
X35200Y8700
X35200Y5700
X34200Y5700
X33200Y5700
X32200Y5700
X18200Y14700
X17700Y13950
X17200Y14700
X17700Y15950
X17200Y16700
X18200Y16700
X17700Y17950
X17200Y18700
X18200Y18700
X17700Y19950
X17200Y20700
X18200Y20700
X18200Y23700
X17200Y23700
X19200Y23700
X20200Y23700
X20200Y26700
X19200Y26700
X18200Y26700
X17200Y26700
X16200Y28200
X15700Y28950
X15200Y28200
T05
X15200Y26700
X12200Y28950
X8200Y28950
X15200Y22700
X19700Y20450
X19700Y19200
X19700Y17950
X19700Y16700
X19700Y15450
X19700Y14200
X23700Y14200
X23700Y15450
X23700Y16700
X23700Y17950
X23700Y19200
X23700Y20450
X27450Y23700
X27450Y27700
T06
X8200Y22200
X7200Y21700
X8200Y21200
X7200Y20700
X8200Y20200
X7200Y19700
X8200Y19200
X7200Y16200
X8200Y15700
X7200Y15200
X8200Y14700
X7200Y14200
X8200Y13700
X7200Y13200
X8200Y12700
X7200Y22700
X26450Y4094
X26450Y3306
X31700Y2700
X35700Y2700
T07
X11700Y11700
X12700Y11700
X13700Y11700
X14700Y11700
X15700Y11700
X15700Y12700
X14700Y12700
X15700Y14200
X15700Y15200
X15700Y16200
X15700Y17700
X13200Y22200
X12200Y22200
X12200Y23200
X13200Y23200
X13200Y24200
X12200Y24200
X18700Y28700
X19700Y28700
X20700Y28700
X21700Y28700
X21700Y30700
X22700Y30700
X23700Y30700
X24700Y30700
X25700Y30700
X27700Y30700
X28700Y30700
X29700Y30700
X30700Y30700
X31700Y30700
X32700Y30700
X33700Y30700
X34700Y30700
X25700Y28700
X24700Y28700
X24700Y27700
X25700Y27700
X25700Y26700
X24700Y26700
X25700Y22700
X26700Y22700
X26700Y21700
X26700Y20700
X25700Y20700
X25700Y21700
X29700Y20200
X30700Y20200
X31700Y20200
X32700Y20200
X33700Y20200
X34700Y20200
X35700Y20200
X36700Y20200
X37700Y20200
X38700Y20200
X38700Y23200
X37700Y23200
X36700Y23200
X35700Y23200
X34700Y23200
X33700Y23200
X32700Y23200
X31700Y23200
X30700Y23200
X29700Y23200
X26700Y16700
X26700Y15700
X26700Y14700
X25700Y14700
X25700Y15700
X25700Y16700
X29700Y12700
X30700Y12700
X30700Y11700
X29700Y11700
X27700Y11700
X26700Y11700
X25700Y11700
X24700Y11700
X23700Y11700
X22700Y11700
X21700Y11700
X20700Y11700
X18700Y11700
X17700Y11700
X16700Y11700
X18700Y12700
X23200Y9700
X24200Y9700
X31700Y9700
X31700Y11700
X32700Y11700
X33700Y11700
X33700Y12700
X32700Y12700
X31700Y12700
X34700Y12700
X35700Y12700
X36700Y12700
X36700Y11700
X35700Y11700
X34700Y11700
X37700Y12700
X38700Y12700
X38700Y10700
X38700Y15200
X37700Y15200
X20700Y30700
X19700Y30700
X18700Y30700
X17100Y30700
X16100Y30700
X15100Y30700
X14100Y30700
X13100Y30700
X12100Y30700
X11100Y30700
X10100Y30700
X9100Y30700
X8100Y30700
X5700Y30700
X4700Y30700
X4700Y26700
X5700Y26700
X3700Y26700
X2700Y26700
X1700Y26700
X1700Y14700
X1700Y13700
X5700Y13700
X5700Y14700
X12700Y12700
T08
X27200Y4684
X27200Y2716
X36716Y8700
X38684Y8700
T09
X37950Y2450
X37950Y29950
X2450Y29950
T10
X4700Y23200
X4700Y18700
X4700Y16700
X4700Y12200
M30
