G75*
G70*
%OFA0B0*%
%FSLAX24Y24*%
%IPPOS*%
%LPD*%
%AMOC8*
5,1,8,0,0,1.08239X$1,22.5*
%
%ADD10C,0.0000*%
%ADD11C,0.0040*%
%ADD12R,0.3500X0.1000*%
%ADD13C,0.0060*%
%ADD14C,0.0030*%
%ADD15C,0.0100*%
%ADD16C,0.0050*%
%ADD17C,0.0080*%
D10*
X002925Y001175D02*
X020175Y001175D01*
X020219Y001177D01*
X020262Y001183D01*
X020304Y001192D01*
X020346Y001205D01*
X020386Y001222D01*
X020425Y001242D01*
X020462Y001265D01*
X020496Y001292D01*
X020529Y001321D01*
X020558Y001354D01*
X020585Y001388D01*
X020608Y001425D01*
X020628Y001464D01*
X020645Y001504D01*
X020658Y001546D01*
X020667Y001588D01*
X020673Y001631D01*
X020675Y001675D01*
X020675Y018925D01*
X020673Y019008D01*
X020667Y019091D01*
X020657Y019174D01*
X020643Y019256D01*
X020626Y019338D01*
X020604Y019418D01*
X020579Y019497D01*
X020550Y019575D01*
X020517Y019652D01*
X020480Y019727D01*
X020441Y019800D01*
X020397Y019871D01*
X020351Y019940D01*
X020301Y020007D01*
X020248Y020071D01*
X020192Y020133D01*
X020133Y020192D01*
X020071Y020248D01*
X020007Y020301D01*
X019940Y020351D01*
X019871Y020397D01*
X019800Y020441D01*
X019727Y020480D01*
X019652Y020517D01*
X019575Y020550D01*
X019497Y020579D01*
X019418Y020604D01*
X019338Y020626D01*
X019256Y020643D01*
X019174Y020657D01*
X019091Y020667D01*
X019008Y020673D01*
X018925Y020675D01*
X002925Y020675D01*
X002842Y020673D01*
X002759Y020667D01*
X002676Y020657D01*
X002594Y020643D01*
X002512Y020626D01*
X002432Y020604D01*
X002353Y020579D01*
X002275Y020550D01*
X002198Y020517D01*
X002123Y020480D01*
X002050Y020441D01*
X001979Y020397D01*
X001910Y020351D01*
X001843Y020301D01*
X001779Y020248D01*
X001717Y020192D01*
X001658Y020133D01*
X001602Y020071D01*
X001549Y020007D01*
X001499Y019940D01*
X001453Y019871D01*
X001409Y019800D01*
X001370Y019727D01*
X001333Y019652D01*
X001300Y019575D01*
X001271Y019497D01*
X001246Y019418D01*
X001224Y019338D01*
X001207Y019256D01*
X001193Y019174D01*
X001183Y019091D01*
X001177Y019008D01*
X001175Y018925D01*
X001175Y002925D01*
X001177Y002842D01*
X001183Y002759D01*
X001193Y002676D01*
X001207Y002594D01*
X001224Y002512D01*
X001246Y002432D01*
X001271Y002353D01*
X001300Y002275D01*
X001333Y002198D01*
X001370Y002123D01*
X001409Y002050D01*
X001453Y001979D01*
X001499Y001910D01*
X001549Y001843D01*
X001602Y001779D01*
X001658Y001717D01*
X001717Y001658D01*
X001779Y001602D01*
X001843Y001549D01*
X001910Y001499D01*
X001979Y001453D01*
X002050Y001409D01*
X002123Y001370D01*
X002198Y001333D01*
X002275Y001300D01*
X002353Y001271D01*
X002432Y001246D01*
X002512Y001224D01*
X002594Y001207D01*
X002676Y001193D01*
X002759Y001183D01*
X002842Y001177D01*
X002925Y001175D01*
X018795Y007925D02*
X018797Y007975D01*
X018803Y008025D01*
X018813Y008074D01*
X018827Y008122D01*
X018844Y008169D01*
X018865Y008214D01*
X018890Y008258D01*
X018918Y008299D01*
X018950Y008338D01*
X018984Y008375D01*
X019021Y008409D01*
X019061Y008439D01*
X019103Y008466D01*
X019147Y008490D01*
X019193Y008511D01*
X019240Y008527D01*
X019288Y008540D01*
X019338Y008549D01*
X019387Y008554D01*
X019438Y008555D01*
X019488Y008552D01*
X019537Y008545D01*
X019586Y008534D01*
X019634Y008519D01*
X019680Y008501D01*
X019725Y008479D01*
X019768Y008453D01*
X019809Y008424D01*
X019848Y008392D01*
X019884Y008357D01*
X019916Y008319D01*
X019946Y008279D01*
X019973Y008236D01*
X019996Y008192D01*
X020015Y008146D01*
X020031Y008098D01*
X020043Y008049D01*
X020051Y008000D01*
X020055Y007950D01*
X020055Y007900D01*
X020051Y007850D01*
X020043Y007801D01*
X020031Y007752D01*
X020015Y007704D01*
X019996Y007658D01*
X019973Y007614D01*
X019946Y007571D01*
X019916Y007531D01*
X019884Y007493D01*
X019848Y007458D01*
X019809Y007426D01*
X019768Y007397D01*
X019725Y007371D01*
X019680Y007349D01*
X019634Y007331D01*
X019586Y007316D01*
X019537Y007305D01*
X019488Y007298D01*
X019438Y007295D01*
X019387Y007296D01*
X019338Y007301D01*
X019288Y007310D01*
X019240Y007323D01*
X019193Y007339D01*
X019147Y007360D01*
X019103Y007384D01*
X019061Y007411D01*
X019021Y007441D01*
X018984Y007475D01*
X018950Y007512D01*
X018918Y007551D01*
X018890Y007592D01*
X018865Y007636D01*
X018844Y007681D01*
X018827Y007728D01*
X018813Y007776D01*
X018803Y007825D01*
X018797Y007875D01*
X018795Y007925D01*
X018795Y012425D02*
X018797Y012475D01*
X018803Y012525D01*
X018813Y012574D01*
X018827Y012622D01*
X018844Y012669D01*
X018865Y012714D01*
X018890Y012758D01*
X018918Y012799D01*
X018950Y012838D01*
X018984Y012875D01*
X019021Y012909D01*
X019061Y012939D01*
X019103Y012966D01*
X019147Y012990D01*
X019193Y013011D01*
X019240Y013027D01*
X019288Y013040D01*
X019338Y013049D01*
X019387Y013054D01*
X019438Y013055D01*
X019488Y013052D01*
X019537Y013045D01*
X019586Y013034D01*
X019634Y013019D01*
X019680Y013001D01*
X019725Y012979D01*
X019768Y012953D01*
X019809Y012924D01*
X019848Y012892D01*
X019884Y012857D01*
X019916Y012819D01*
X019946Y012779D01*
X019973Y012736D01*
X019996Y012692D01*
X020015Y012646D01*
X020031Y012598D01*
X020043Y012549D01*
X020051Y012500D01*
X020055Y012450D01*
X020055Y012400D01*
X020051Y012350D01*
X020043Y012301D01*
X020031Y012252D01*
X020015Y012204D01*
X019996Y012158D01*
X019973Y012114D01*
X019946Y012071D01*
X019916Y012031D01*
X019884Y011993D01*
X019848Y011958D01*
X019809Y011926D01*
X019768Y011897D01*
X019725Y011871D01*
X019680Y011849D01*
X019634Y011831D01*
X019586Y011816D01*
X019537Y011805D01*
X019488Y011798D01*
X019438Y011795D01*
X019387Y011796D01*
X019338Y011801D01*
X019288Y011810D01*
X019240Y011823D01*
X019193Y011839D01*
X019147Y011860D01*
X019103Y011884D01*
X019061Y011911D01*
X019021Y011941D01*
X018984Y011975D01*
X018950Y012012D01*
X018918Y012051D01*
X018890Y012092D01*
X018865Y012136D01*
X018844Y012181D01*
X018827Y012228D01*
X018813Y012276D01*
X018803Y012325D01*
X018797Y012375D01*
X018795Y012425D01*
D11*
X018743Y014695D02*
X018623Y014695D01*
X018563Y014755D01*
X018563Y014875D02*
X018683Y014935D01*
X018743Y014935D01*
X018804Y014875D01*
X018804Y014755D01*
X018743Y014695D01*
X018563Y014875D02*
X018563Y015055D01*
X018804Y015055D01*
X018435Y014995D02*
X018375Y015055D01*
X018255Y015055D01*
X018195Y014995D01*
X018195Y014755D01*
X018255Y014695D01*
X018375Y014695D01*
X018435Y014755D01*
X015817Y016745D02*
X015817Y017105D01*
X015577Y017105D02*
X015817Y016745D01*
X015577Y016745D02*
X015577Y017105D01*
X015449Y017105D02*
X015208Y016745D01*
X015080Y016805D02*
X015020Y016745D01*
X014900Y016745D01*
X014840Y016805D01*
X014900Y016925D02*
X015020Y016925D01*
X015080Y016865D01*
X015080Y016805D01*
X014900Y016925D02*
X014840Y016985D01*
X014840Y017045D01*
X014900Y017105D01*
X015020Y017105D01*
X015080Y017045D01*
X015125Y016305D02*
X015005Y016305D01*
X014945Y016245D01*
X014945Y016005D01*
X015005Y015945D01*
X015125Y015945D01*
X015185Y016005D01*
X015313Y016005D02*
X015373Y015945D01*
X015493Y015945D01*
X015554Y016005D01*
X015554Y016065D01*
X015493Y016125D01*
X015433Y016125D01*
X015493Y016125D02*
X015554Y016185D01*
X015554Y016245D01*
X015493Y016305D01*
X015373Y016305D01*
X015313Y016245D01*
X015185Y016245D02*
X015125Y016305D01*
X013408Y017445D02*
X013168Y017445D01*
X013408Y017685D01*
X013408Y017745D01*
X013348Y017805D01*
X013228Y017805D01*
X013168Y017745D01*
X013040Y017745D02*
X012980Y017805D01*
X012860Y017805D01*
X012800Y017745D01*
X012800Y017685D01*
X012860Y017625D01*
X012980Y017625D01*
X013040Y017565D01*
X013040Y017505D01*
X012980Y017445D01*
X012860Y017445D01*
X012800Y017505D01*
X012672Y017445D02*
X012432Y017805D01*
X012432Y017445D01*
X012304Y017445D02*
X012063Y017445D01*
X012063Y017805D01*
X012304Y017805D01*
X012183Y017625D02*
X012063Y017625D01*
X011935Y017565D02*
X011935Y017505D01*
X011875Y017445D01*
X011755Y017445D01*
X011695Y017505D01*
X011755Y017625D02*
X011875Y017625D01*
X011935Y017565D01*
X011935Y017745D02*
X011875Y017805D01*
X011755Y017805D01*
X011695Y017745D01*
X011695Y017685D01*
X011755Y017625D01*
X012672Y017445D02*
X012672Y017805D01*
X014605Y014355D02*
X014545Y014295D01*
X014545Y014055D01*
X014605Y013995D01*
X014725Y013995D01*
X014785Y014055D01*
X014913Y014175D02*
X015154Y014175D01*
X015093Y013995D02*
X015093Y014355D01*
X014913Y014175D01*
X014785Y014295D02*
X014725Y014355D01*
X014605Y014355D01*
X014145Y011049D02*
X014205Y010989D01*
X014205Y010869D01*
X014145Y010809D01*
X014145Y010681D02*
X014205Y010621D01*
X014205Y010501D01*
X014145Y010441D01*
X013905Y010441D01*
X013845Y010501D01*
X013845Y010621D01*
X013905Y010681D01*
X013905Y010809D02*
X013845Y010869D01*
X013845Y010989D01*
X013905Y011049D01*
X013965Y011049D01*
X014025Y010989D01*
X014085Y011049D01*
X014145Y011049D01*
X014025Y010989D02*
X014025Y010929D01*
X014205Y010315D02*
X014205Y010195D01*
X014205Y010255D02*
X013845Y010255D01*
X013845Y010195D02*
X013845Y010315D01*
X014255Y008305D02*
X014195Y008245D01*
X014195Y008005D01*
X014255Y007945D01*
X014375Y007945D01*
X014435Y008005D01*
X014563Y007945D02*
X014804Y007945D01*
X014683Y007945D02*
X014683Y008305D01*
X014563Y008185D01*
X014435Y008245D02*
X014375Y008305D01*
X014255Y008305D01*
X014932Y008245D02*
X014932Y008005D01*
X015172Y008245D01*
X015172Y008005D01*
X015112Y007945D01*
X014992Y007945D01*
X014932Y008005D01*
X014932Y008245D02*
X014992Y008305D01*
X015112Y008305D01*
X015172Y008245D01*
X017103Y006329D02*
X017103Y006022D01*
X017180Y005945D01*
X017334Y005945D01*
X017410Y006022D01*
X017410Y006329D01*
X017334Y006405D01*
X017180Y006405D01*
X017103Y006329D01*
X017564Y006405D02*
X017564Y006022D01*
X017641Y005945D01*
X017794Y005945D01*
X017871Y006022D01*
X017871Y006405D01*
X018024Y006405D02*
X018331Y006405D01*
X018178Y006405D02*
X018178Y005945D01*
X018485Y006175D02*
X018792Y006175D01*
X018638Y006329D02*
X018638Y006022D01*
X018331Y005405D02*
X018024Y005405D01*
X017871Y005405D02*
X017871Y005022D01*
X017794Y004945D01*
X017641Y004945D01*
X017564Y005022D01*
X017564Y005405D01*
X017410Y005329D02*
X017334Y005405D01*
X017180Y005405D01*
X017103Y005329D01*
X017103Y005022D01*
X017180Y004945D01*
X017334Y004945D01*
X017410Y005022D01*
X017410Y005329D01*
X018178Y005405D02*
X018178Y004945D01*
X018485Y005175D02*
X018792Y005175D01*
X018715Y004405D02*
X018561Y004405D01*
X018485Y004329D01*
X018485Y004022D01*
X018561Y003945D01*
X018715Y003945D01*
X018792Y004022D01*
X018792Y004329D02*
X018715Y004405D01*
X018331Y004405D02*
X018331Y003945D01*
X018024Y004405D01*
X018024Y003945D01*
X017717Y003945D02*
X017717Y004175D01*
X017871Y004329D01*
X017871Y004405D01*
X017717Y004175D02*
X017564Y004329D01*
X017564Y004405D01*
X017410Y004329D02*
X017334Y004405D01*
X017180Y004405D01*
X017103Y004329D01*
X017103Y004252D01*
X017180Y004175D01*
X017334Y004175D01*
X017410Y004098D01*
X017410Y004022D01*
X017334Y003945D01*
X017180Y003945D01*
X017103Y004022D01*
X017717Y003329D02*
X017717Y003022D01*
X017564Y003175D02*
X017871Y003175D01*
X018024Y003175D02*
X018178Y003252D01*
X018254Y003252D01*
X018331Y003175D01*
X018331Y003022D01*
X018254Y002945D01*
X018101Y002945D01*
X018024Y003022D01*
X018024Y003175D02*
X018024Y003405D01*
X018331Y003405D01*
X018485Y003405D02*
X018485Y003098D01*
X018638Y002945D01*
X018792Y003098D01*
X018792Y003405D01*
X018792Y002405D02*
X018792Y002098D01*
X018638Y001945D01*
X018485Y002098D01*
X018485Y002405D01*
X018331Y002329D02*
X018024Y002022D01*
X018101Y001945D01*
X018254Y001945D01*
X018331Y002022D01*
X018331Y002329D01*
X018254Y002405D01*
X018101Y002405D01*
X018024Y002329D01*
X018024Y002022D01*
X016155Y002063D02*
X015915Y002304D01*
X015855Y002304D01*
X015795Y002243D01*
X015795Y002123D01*
X015855Y002063D01*
X015855Y001935D02*
X015795Y001875D01*
X015795Y001755D01*
X015855Y001695D01*
X016095Y001695D01*
X016155Y001755D01*
X016155Y001875D01*
X016095Y001935D01*
X016155Y002063D02*
X016155Y002304D01*
X015054Y003055D02*
X015054Y003295D01*
X014993Y003355D01*
X014873Y003355D01*
X014813Y003295D01*
X014813Y003235D01*
X014873Y003175D01*
X015054Y003175D01*
X015054Y003055D02*
X014993Y002995D01*
X014873Y002995D01*
X014813Y003055D01*
X014685Y003055D02*
X014625Y002995D01*
X014505Y002995D01*
X014445Y003055D01*
X014445Y003295D01*
X014505Y003355D01*
X014625Y003355D01*
X014685Y003295D01*
X015795Y004255D02*
X015795Y004375D01*
X015855Y004435D01*
X016095Y004435D01*
X016155Y004375D01*
X016155Y004255D01*
X016095Y004195D01*
X015855Y004195D01*
X015795Y004255D01*
X016035Y004315D02*
X016155Y004435D01*
X016155Y004563D02*
X016155Y004804D01*
X016155Y004683D02*
X015795Y004683D01*
X015915Y004563D01*
X018045Y008945D02*
X018405Y009185D01*
X018405Y009313D02*
X018405Y009554D01*
X018405Y009433D02*
X018045Y009433D01*
X018165Y009313D01*
X018045Y009185D02*
X018405Y008945D01*
X010955Y010355D02*
X010955Y010475D01*
X010895Y010535D01*
X010895Y010663D02*
X010955Y010723D01*
X010955Y010843D01*
X010895Y010904D01*
X010835Y010904D01*
X010775Y010843D01*
X010775Y010663D01*
X010895Y010663D01*
X010775Y010663D02*
X010655Y010783D01*
X010595Y010904D01*
X010655Y010535D02*
X010595Y010475D01*
X010595Y010355D01*
X010655Y010295D01*
X010895Y010295D01*
X010955Y010355D01*
X009405Y010345D02*
X009405Y010465D01*
X009405Y010405D02*
X009045Y010405D01*
X009045Y010345D02*
X009045Y010465D01*
X009105Y010591D02*
X009045Y010651D01*
X009045Y010771D01*
X009105Y010831D01*
X009105Y010959D02*
X009045Y011019D01*
X009045Y011139D01*
X009105Y011199D01*
X009165Y011199D01*
X009405Y010959D01*
X009405Y011199D01*
X009345Y010831D02*
X009405Y010771D01*
X009405Y010651D01*
X009345Y010591D01*
X009105Y010591D01*
X008005Y008154D02*
X008245Y007913D01*
X008305Y007913D01*
X008245Y007785D02*
X008305Y007725D01*
X008305Y007605D01*
X008245Y007545D01*
X008005Y007545D01*
X007945Y007605D01*
X007945Y007725D01*
X008005Y007785D01*
X007945Y007913D02*
X007945Y008154D01*
X008005Y008154D01*
X005288Y006055D02*
X005288Y005695D01*
X005168Y005695D02*
X005408Y005695D01*
X005168Y005935D02*
X005288Y006055D01*
X005040Y005995D02*
X004980Y006055D01*
X004860Y006055D01*
X004800Y005995D01*
X004800Y005935D01*
X004860Y005875D01*
X004980Y005875D01*
X005040Y005815D01*
X005040Y005755D01*
X004980Y005695D01*
X004860Y005695D01*
X004800Y005755D01*
X004672Y005695D02*
X004672Y006055D01*
X004432Y006055D02*
X004432Y005695D01*
X004304Y005695D02*
X004063Y005695D01*
X004063Y006055D01*
X004304Y006055D01*
X004432Y006055D02*
X004672Y005695D01*
X004183Y005875D02*
X004063Y005875D01*
X003935Y005815D02*
X003935Y005755D01*
X003875Y005695D01*
X003755Y005695D01*
X003695Y005755D01*
X003755Y005875D02*
X003875Y005875D01*
X003935Y005815D01*
X003935Y005995D02*
X003875Y006055D01*
X003755Y006055D01*
X003695Y005995D01*
X003695Y005935D01*
X003755Y005875D01*
X003663Y008945D02*
X003663Y009305D01*
X003843Y009305D01*
X003904Y009245D01*
X003904Y009125D01*
X003843Y009065D01*
X003663Y009065D01*
X003475Y009005D02*
X003415Y008945D01*
X003355Y008945D01*
X003295Y009005D01*
X003475Y009005D02*
X003475Y009305D01*
X003415Y009305D02*
X003535Y009305D01*
X004032Y009305D02*
X004272Y009305D01*
X004272Y009245D01*
X004032Y009005D01*
X004032Y008945D01*
X004092Y010195D02*
X004032Y010255D01*
X004092Y010195D02*
X004212Y010195D01*
X004272Y010255D01*
X004272Y010375D01*
X004212Y010435D01*
X004152Y010435D01*
X004032Y010375D01*
X004032Y010555D01*
X004272Y010555D01*
X003904Y010495D02*
X003904Y010375D01*
X003843Y010315D01*
X003663Y010315D01*
X003663Y010195D02*
X003663Y010555D01*
X003843Y010555D01*
X003904Y010495D01*
X003535Y010555D02*
X003415Y010555D01*
X003475Y010555D02*
X003475Y010255D01*
X003415Y010195D01*
X003355Y010195D01*
X003295Y010255D01*
X004195Y011695D02*
X004195Y012055D01*
X004375Y012055D01*
X004435Y011995D01*
X004435Y011875D01*
X004375Y011815D01*
X004195Y011815D01*
X004315Y011815D02*
X004435Y011695D01*
X004563Y011695D02*
X004804Y011935D01*
X004804Y011995D01*
X004743Y012055D01*
X004623Y012055D01*
X004563Y011995D01*
X004563Y011695D02*
X004804Y011695D01*
X004804Y013195D02*
X004563Y013195D01*
X004683Y013195D02*
X004683Y013555D01*
X004563Y013435D01*
X004435Y013375D02*
X004375Y013315D01*
X004195Y013315D01*
X004195Y013195D02*
X004195Y013555D01*
X004375Y013555D01*
X004435Y013495D01*
X004435Y013375D01*
X004315Y013315D02*
X004435Y013195D01*
X005295Y013945D02*
X005295Y014065D01*
X005295Y014005D02*
X005655Y014005D01*
X005655Y013945D02*
X005655Y014065D01*
X005595Y014191D02*
X005655Y014251D01*
X005655Y014371D01*
X005595Y014431D01*
X005655Y014559D02*
X005655Y014799D01*
X005655Y014679D02*
X005295Y014679D01*
X005415Y014559D01*
X005355Y014431D02*
X005295Y014371D01*
X005295Y014251D01*
X005355Y014191D01*
X005595Y014191D01*
X006505Y017945D02*
X006625Y017945D01*
X006685Y018005D01*
X006813Y017945D02*
X007054Y017945D01*
X006933Y017945D02*
X006933Y018305D01*
X006813Y018185D01*
X006685Y018245D02*
X006625Y018305D01*
X006505Y018305D01*
X006445Y018245D01*
X006445Y018005D01*
X006505Y017945D01*
X010155Y013904D02*
X010215Y013904D01*
X010275Y013843D01*
X010275Y013723D01*
X010215Y013663D01*
X010155Y013663D01*
X010095Y013723D01*
X010095Y013843D01*
X010155Y013904D01*
X010275Y013843D02*
X010335Y013904D01*
X010395Y013904D01*
X010455Y013843D01*
X010455Y013723D01*
X010395Y013663D01*
X010335Y013663D01*
X010275Y013723D01*
X010395Y013535D02*
X010455Y013475D01*
X010455Y013355D01*
X010395Y013295D01*
X010155Y013295D01*
X010095Y013355D01*
X010095Y013475D01*
X010155Y013535D01*
X007993Y005555D02*
X008054Y005495D01*
X008054Y005435D01*
X007993Y005375D01*
X008054Y005315D01*
X008054Y005255D01*
X007993Y005195D01*
X007873Y005195D01*
X007813Y005255D01*
X007685Y005195D02*
X007565Y005315D01*
X007625Y005315D02*
X007445Y005315D01*
X007445Y005195D02*
X007445Y005555D01*
X007625Y005555D01*
X007685Y005495D01*
X007685Y005375D01*
X007625Y005315D01*
X007813Y005495D02*
X007873Y005555D01*
X007993Y005555D01*
X007993Y005375D02*
X007933Y005375D01*
X007933Y004805D02*
X007813Y004685D01*
X007685Y004745D02*
X007625Y004805D01*
X007445Y004805D01*
X007445Y004445D01*
X007625Y004445D01*
X007685Y004505D01*
X007685Y004745D01*
X007933Y004805D02*
X007933Y004445D01*
X007813Y004445D02*
X008054Y004445D01*
X007993Y004055D02*
X007813Y003875D01*
X008054Y003875D01*
X007993Y003695D02*
X007993Y004055D01*
X007685Y003995D02*
X007685Y003875D01*
X007625Y003815D01*
X007445Y003815D01*
X007445Y003695D02*
X007445Y004055D01*
X007625Y004055D01*
X007685Y003995D01*
X007565Y003815D02*
X007685Y003695D01*
X007625Y003305D02*
X007445Y003305D01*
X007445Y002945D01*
X007445Y003065D02*
X007625Y003065D01*
X007685Y003125D01*
X007685Y003245D01*
X007625Y003305D01*
X007813Y003305D02*
X007813Y003125D01*
X007933Y003185D01*
X007993Y003185D01*
X008054Y003125D01*
X008054Y003005D01*
X007993Y002945D01*
X007873Y002945D01*
X007813Y003005D01*
X007685Y002945D02*
X007565Y003065D01*
X007813Y003305D02*
X008054Y003305D01*
D12*
X017675Y016925D03*
D13*
X016791Y018455D02*
X016645Y018455D01*
X016571Y018528D01*
X016865Y018822D01*
X016865Y018528D01*
X016791Y018455D01*
X016571Y018528D02*
X016571Y018822D01*
X016645Y018895D01*
X016791Y018895D01*
X016865Y018822D01*
X016414Y018528D02*
X016414Y018455D01*
X016341Y018455D01*
X016341Y018528D01*
X016414Y018528D01*
X016174Y018455D02*
X015881Y018455D01*
X016174Y018749D01*
X016174Y018822D01*
X016101Y018895D01*
X015954Y018895D01*
X015881Y018822D01*
X015714Y018749D02*
X015567Y018455D01*
X015420Y018749D01*
X014793Y018675D02*
X014793Y018602D01*
X014500Y018602D01*
X014500Y018675D02*
X014573Y018749D01*
X014720Y018749D01*
X014793Y018675D01*
X014720Y018455D02*
X014573Y018455D01*
X014500Y018528D01*
X014500Y018675D01*
X014339Y018749D02*
X014193Y018749D01*
X014266Y018822D02*
X014266Y018528D01*
X014339Y018455D01*
X014026Y018528D02*
X014026Y018675D01*
X013952Y018749D01*
X013806Y018749D01*
X013732Y018675D01*
X013732Y018528D01*
X013806Y018455D01*
X013952Y018455D01*
X014026Y018528D01*
X013565Y018455D02*
X013565Y018675D01*
X013492Y018749D01*
X013419Y018675D01*
X013419Y018455D01*
X013272Y018455D02*
X013272Y018749D01*
X013345Y018749D01*
X013419Y018675D01*
X013105Y018675D02*
X013105Y018602D01*
X012811Y018602D01*
X012811Y018675D02*
X012885Y018749D01*
X013032Y018749D01*
X013105Y018675D01*
X013032Y018455D02*
X012885Y018455D01*
X012811Y018528D01*
X012811Y018675D01*
X012648Y018749D02*
X012575Y018749D01*
X012428Y018602D01*
X012428Y018455D02*
X012428Y018749D01*
X011801Y018822D02*
X011801Y018528D01*
X011727Y018455D01*
X011580Y018455D01*
X011507Y018528D01*
X011801Y018822D01*
X011727Y018895D01*
X011580Y018895D01*
X011507Y018822D01*
X011507Y018528D01*
X011340Y018528D02*
X011267Y018455D01*
X011120Y018455D01*
X011047Y018528D01*
X011340Y018822D01*
X011340Y018528D01*
X011047Y018528D02*
X011047Y018822D01*
X011120Y018895D01*
X011267Y018895D01*
X011340Y018822D01*
X010880Y018455D02*
X010586Y018455D01*
X010733Y018455D02*
X010733Y018895D01*
X010586Y018749D01*
X010419Y018822D02*
X010346Y018895D01*
X010199Y018895D01*
X010126Y018822D01*
X010126Y018528D01*
X010199Y018455D01*
X010346Y018455D01*
X010419Y018528D01*
X009959Y018455D02*
X009665Y018455D01*
X009665Y018895D01*
X009499Y018895D02*
X009205Y018895D01*
X009205Y018455D01*
X009205Y018675D02*
X009352Y018675D01*
X009925Y015425D02*
X006425Y015425D01*
X006425Y014425D01*
X009925Y014425D01*
X009925Y014725D01*
X009925Y015125D01*
X009925Y015425D01*
X008995Y009385D02*
X008995Y007965D01*
X010855Y007965D02*
X010855Y009385D01*
X001575Y002925D02*
X001577Y002998D01*
X001583Y003071D01*
X001593Y003143D01*
X001607Y003215D01*
X001624Y003286D01*
X001646Y003356D01*
X001671Y003425D01*
X001700Y003492D01*
X001732Y003557D01*
X001768Y003621D01*
X001808Y003683D01*
X001850Y003742D01*
X001896Y003799D01*
X001945Y003853D01*
X001997Y003905D01*
X002051Y003954D01*
X002108Y004000D01*
X002167Y004042D01*
X002229Y004082D01*
X002293Y004118D01*
X002358Y004150D01*
X002425Y004179D01*
X002494Y004204D01*
X002564Y004226D01*
X002635Y004243D01*
X002707Y004257D01*
X002779Y004267D01*
X002852Y004273D01*
X002925Y004275D01*
X002998Y004273D01*
X003071Y004267D01*
X003143Y004257D01*
X003215Y004243D01*
X003286Y004226D01*
X003356Y004204D01*
X003425Y004179D01*
X003492Y004150D01*
X003557Y004118D01*
X003621Y004082D01*
X003683Y004042D01*
X003742Y004000D01*
X003799Y003954D01*
X003853Y003905D01*
X003905Y003853D01*
X003954Y003799D01*
X004000Y003742D01*
X004042Y003683D01*
X004082Y003621D01*
X004118Y003557D01*
X004150Y003492D01*
X004179Y003425D01*
X004204Y003356D01*
X004226Y003286D01*
X004243Y003215D01*
X004257Y003143D01*
X004267Y003071D01*
X004273Y002998D01*
X004275Y002925D01*
X004273Y002852D01*
X004267Y002779D01*
X004257Y002707D01*
X004243Y002635D01*
X004226Y002564D01*
X004204Y002494D01*
X004179Y002425D01*
X004150Y002358D01*
X004118Y002293D01*
X004082Y002229D01*
X004042Y002167D01*
X004000Y002108D01*
X003954Y002051D01*
X003905Y001997D01*
X003853Y001945D01*
X003799Y001896D01*
X003742Y001850D01*
X003683Y001808D01*
X003621Y001768D01*
X003557Y001732D01*
X003492Y001700D01*
X003425Y001671D01*
X003356Y001646D01*
X003286Y001624D01*
X003215Y001607D01*
X003143Y001593D01*
X003071Y001583D01*
X002998Y001577D01*
X002925Y001575D01*
X002852Y001577D01*
X002779Y001583D01*
X002707Y001593D01*
X002635Y001607D01*
X002564Y001624D01*
X002494Y001646D01*
X002425Y001671D01*
X002358Y001700D01*
X002293Y001732D01*
X002229Y001768D01*
X002167Y001808D01*
X002108Y001850D01*
X002051Y001896D01*
X001997Y001945D01*
X001945Y001997D01*
X001896Y002051D01*
X001850Y002108D01*
X001808Y002167D01*
X001768Y002229D01*
X001732Y002293D01*
X001700Y002358D01*
X001671Y002425D01*
X001646Y002494D01*
X001624Y002564D01*
X001607Y002635D01*
X001593Y002707D01*
X001583Y002779D01*
X001577Y002852D01*
X001575Y002925D01*
X001575Y018925D02*
X001577Y018998D01*
X001583Y019071D01*
X001593Y019143D01*
X001607Y019215D01*
X001624Y019286D01*
X001646Y019356D01*
X001671Y019425D01*
X001700Y019492D01*
X001732Y019557D01*
X001768Y019621D01*
X001808Y019683D01*
X001850Y019742D01*
X001896Y019799D01*
X001945Y019853D01*
X001997Y019905D01*
X002051Y019954D01*
X002108Y020000D01*
X002167Y020042D01*
X002229Y020082D01*
X002293Y020118D01*
X002358Y020150D01*
X002425Y020179D01*
X002494Y020204D01*
X002564Y020226D01*
X002635Y020243D01*
X002707Y020257D01*
X002779Y020267D01*
X002852Y020273D01*
X002925Y020275D01*
X002998Y020273D01*
X003071Y020267D01*
X003143Y020257D01*
X003215Y020243D01*
X003286Y020226D01*
X003356Y020204D01*
X003425Y020179D01*
X003492Y020150D01*
X003557Y020118D01*
X003621Y020082D01*
X003683Y020042D01*
X003742Y020000D01*
X003799Y019954D01*
X003853Y019905D01*
X003905Y019853D01*
X003954Y019799D01*
X004000Y019742D01*
X004042Y019683D01*
X004082Y019621D01*
X004118Y019557D01*
X004150Y019492D01*
X004179Y019425D01*
X004204Y019356D01*
X004226Y019286D01*
X004243Y019215D01*
X004257Y019143D01*
X004267Y019071D01*
X004273Y018998D01*
X004275Y018925D01*
X004273Y018852D01*
X004267Y018779D01*
X004257Y018707D01*
X004243Y018635D01*
X004226Y018564D01*
X004204Y018494D01*
X004179Y018425D01*
X004150Y018358D01*
X004118Y018293D01*
X004082Y018229D01*
X004042Y018167D01*
X004000Y018108D01*
X003954Y018051D01*
X003905Y017997D01*
X003853Y017945D01*
X003799Y017896D01*
X003742Y017850D01*
X003683Y017808D01*
X003621Y017768D01*
X003557Y017732D01*
X003492Y017700D01*
X003425Y017671D01*
X003356Y017646D01*
X003286Y017624D01*
X003215Y017607D01*
X003143Y017593D01*
X003071Y017583D01*
X002998Y017577D01*
X002925Y017575D01*
X002852Y017577D01*
X002779Y017583D01*
X002707Y017593D01*
X002635Y017607D01*
X002564Y017624D01*
X002494Y017646D01*
X002425Y017671D01*
X002358Y017700D01*
X002293Y017732D01*
X002229Y017768D01*
X002167Y017808D01*
X002108Y017850D01*
X002051Y017896D01*
X001997Y017945D01*
X001945Y017997D01*
X001896Y018051D01*
X001850Y018108D01*
X001808Y018167D01*
X001768Y018229D01*
X001732Y018293D01*
X001700Y018358D01*
X001671Y018425D01*
X001646Y018494D01*
X001624Y018564D01*
X001607Y018635D01*
X001593Y018707D01*
X001583Y018779D01*
X001577Y018852D01*
X001575Y018925D01*
X017575Y018925D02*
X017577Y018998D01*
X017583Y019071D01*
X017593Y019143D01*
X017607Y019215D01*
X017624Y019286D01*
X017646Y019356D01*
X017671Y019425D01*
X017700Y019492D01*
X017732Y019557D01*
X017768Y019621D01*
X017808Y019683D01*
X017850Y019742D01*
X017896Y019799D01*
X017945Y019853D01*
X017997Y019905D01*
X018051Y019954D01*
X018108Y020000D01*
X018167Y020042D01*
X018229Y020082D01*
X018293Y020118D01*
X018358Y020150D01*
X018425Y020179D01*
X018494Y020204D01*
X018564Y020226D01*
X018635Y020243D01*
X018707Y020257D01*
X018779Y020267D01*
X018852Y020273D01*
X018925Y020275D01*
X018998Y020273D01*
X019071Y020267D01*
X019143Y020257D01*
X019215Y020243D01*
X019286Y020226D01*
X019356Y020204D01*
X019425Y020179D01*
X019492Y020150D01*
X019557Y020118D01*
X019621Y020082D01*
X019683Y020042D01*
X019742Y020000D01*
X019799Y019954D01*
X019853Y019905D01*
X019905Y019853D01*
X019954Y019799D01*
X020000Y019742D01*
X020042Y019683D01*
X020082Y019621D01*
X020118Y019557D01*
X020150Y019492D01*
X020179Y019425D01*
X020204Y019356D01*
X020226Y019286D01*
X020243Y019215D01*
X020257Y019143D01*
X020267Y019071D01*
X020273Y018998D01*
X020275Y018925D01*
X020273Y018852D01*
X020267Y018779D01*
X020257Y018707D01*
X020243Y018635D01*
X020226Y018564D01*
X020204Y018494D01*
X020179Y018425D01*
X020150Y018358D01*
X020118Y018293D01*
X020082Y018229D01*
X020042Y018167D01*
X020000Y018108D01*
X019954Y018051D01*
X019905Y017997D01*
X019853Y017945D01*
X019799Y017896D01*
X019742Y017850D01*
X019683Y017808D01*
X019621Y017768D01*
X019557Y017732D01*
X019492Y017700D01*
X019425Y017671D01*
X019356Y017646D01*
X019286Y017624D01*
X019215Y017607D01*
X019143Y017593D01*
X019071Y017583D01*
X018998Y017577D01*
X018925Y017575D01*
X018852Y017577D01*
X018779Y017583D01*
X018707Y017593D01*
X018635Y017607D01*
X018564Y017624D01*
X018494Y017646D01*
X018425Y017671D01*
X018358Y017700D01*
X018293Y017732D01*
X018229Y017768D01*
X018167Y017808D01*
X018108Y017850D01*
X018051Y017896D01*
X017997Y017945D01*
X017945Y017997D01*
X017896Y018051D01*
X017850Y018108D01*
X017808Y018167D01*
X017768Y018229D01*
X017732Y018293D01*
X017700Y018358D01*
X017671Y018425D01*
X017646Y018494D01*
X017624Y018564D01*
X017607Y018635D01*
X017593Y018707D01*
X017583Y018779D01*
X017577Y018852D01*
X017575Y018925D01*
D14*
X011260Y005110D02*
X011013Y005110D01*
X011013Y004925D01*
X011137Y004987D01*
X011198Y004987D01*
X011260Y004925D01*
X011260Y004802D01*
X011198Y004740D01*
X011075Y004740D01*
X011013Y004802D01*
X010892Y004802D02*
X010892Y004863D01*
X010830Y004925D01*
X010707Y004925D01*
X010645Y004987D01*
X010645Y005049D01*
X010707Y005110D01*
X010830Y005110D01*
X010892Y005049D01*
X010892Y004987D01*
X010830Y004925D01*
X010707Y004925D02*
X010645Y004863D01*
X010645Y004802D01*
X010707Y004740D01*
X010830Y004740D01*
X010892Y004802D01*
X010524Y005110D02*
X010277Y005110D01*
X010400Y005110D02*
X010400Y004740D01*
X010155Y004740D02*
X010155Y004987D01*
X010032Y005110D01*
X009908Y004987D01*
X009908Y004740D01*
X009787Y004802D02*
X009725Y004740D01*
X009540Y004740D01*
X009540Y005110D01*
X009725Y005110D01*
X009787Y005049D01*
X009787Y004987D01*
X009725Y004925D01*
X009540Y004925D01*
X009725Y004925D02*
X009787Y004863D01*
X009787Y004802D01*
X009908Y004925D02*
X010155Y004925D01*
X001910Y004808D02*
X001910Y005055D01*
X001848Y005177D02*
X001910Y005238D01*
X001910Y005362D01*
X001848Y005424D01*
X001910Y005545D02*
X001910Y005792D01*
X001910Y005668D02*
X001540Y005668D01*
X001663Y005545D01*
X001601Y005424D02*
X001540Y005362D01*
X001540Y005238D01*
X001601Y005177D01*
X001848Y005177D01*
X001910Y004808D02*
X001540Y004808D01*
X001540Y004687D02*
X001540Y004440D01*
X001910Y004440D01*
X001725Y004440D02*
X001725Y004563D01*
X001848Y005913D02*
X001601Y005913D01*
X001540Y005975D01*
X001540Y006098D01*
X001601Y006160D01*
X001848Y005913D01*
X001910Y005975D01*
X001910Y006098D01*
X001848Y006160D01*
X001601Y006160D01*
X001601Y006282D02*
X001540Y006343D01*
X001540Y006467D01*
X001601Y006528D01*
X001848Y006282D01*
X001910Y006343D01*
X001910Y006467D01*
X001848Y006528D01*
X001601Y006528D01*
X001601Y006282D02*
X001848Y006282D01*
X001972Y006650D02*
X001972Y006897D01*
X001910Y007018D02*
X001663Y007018D01*
X001787Y007018D02*
X001663Y007142D01*
X001663Y007203D01*
X001725Y007325D02*
X001663Y007387D01*
X001663Y007510D01*
X001725Y007572D01*
X001787Y007572D01*
X001787Y007325D01*
X001848Y007325D02*
X001725Y007325D01*
X001848Y007325D02*
X001910Y007387D01*
X001910Y007510D01*
X001910Y007693D02*
X001663Y007693D01*
X001663Y007755D01*
X001725Y007817D01*
X001663Y007879D01*
X001725Y007940D01*
X001910Y007940D01*
X001910Y007817D02*
X001725Y007817D01*
X001725Y008062D02*
X001848Y008062D01*
X001910Y008123D01*
X001910Y008247D01*
X001848Y008309D01*
X001725Y008309D01*
X001663Y008247D01*
X001663Y008123D01*
X001725Y008062D01*
X001663Y008430D02*
X001663Y008554D01*
X001601Y008492D02*
X001848Y008492D01*
X001910Y008554D01*
X001848Y008676D02*
X001910Y008737D01*
X001910Y008861D01*
X001787Y008922D02*
X001787Y008676D01*
X001848Y008676D02*
X001725Y008676D01*
X001663Y008737D01*
X001663Y008861D01*
X001725Y008922D01*
X001787Y008922D01*
X001972Y009044D02*
X001972Y009291D01*
X001910Y009536D02*
X001663Y009659D01*
X001601Y009781D02*
X001540Y009842D01*
X001540Y009966D01*
X001601Y010027D01*
X001663Y010027D01*
X001910Y009781D01*
X001910Y010027D01*
X001910Y009536D02*
X001663Y009412D01*
X001601Y011440D02*
X001540Y011502D01*
X001540Y011625D01*
X001601Y011687D01*
X001848Y011440D01*
X001910Y011502D01*
X001910Y011625D01*
X001848Y011687D01*
X001601Y011687D01*
X001601Y011808D02*
X001663Y011808D01*
X001725Y011870D01*
X001725Y012055D01*
X001848Y012055D02*
X001601Y012055D01*
X001540Y011993D01*
X001540Y011870D01*
X001601Y011808D01*
X001848Y011808D02*
X001910Y011870D01*
X001910Y011993D01*
X001848Y012055D01*
X001910Y012177D02*
X001540Y012424D01*
X001601Y012545D02*
X001540Y012607D01*
X001540Y012730D01*
X001601Y012792D01*
X001848Y012545D01*
X001910Y012607D01*
X001910Y012730D01*
X001848Y012792D01*
X001601Y012792D01*
X001601Y012913D02*
X001540Y012975D01*
X001540Y013098D01*
X001601Y013160D01*
X001663Y013160D01*
X001910Y012913D01*
X001910Y013160D01*
X001910Y013282D02*
X001540Y013528D01*
X001601Y013650D02*
X001540Y013712D01*
X001540Y013835D01*
X001601Y013897D01*
X001663Y013897D01*
X001910Y013650D01*
X001910Y013897D01*
X001848Y014018D02*
X001601Y014265D01*
X001848Y014265D01*
X001910Y014203D01*
X001910Y014080D01*
X001848Y014018D01*
X001601Y014018D01*
X001540Y014080D01*
X001540Y014203D01*
X001601Y014265D01*
X001663Y014387D02*
X001540Y014510D01*
X001910Y014510D01*
X001910Y014387D02*
X001910Y014633D01*
X001725Y014755D02*
X001725Y015002D01*
X001910Y014940D02*
X001540Y014940D01*
X001725Y014755D01*
X001601Y015491D02*
X001540Y015553D01*
X001540Y015677D01*
X001601Y015738D01*
X001663Y015738D01*
X001910Y015491D01*
X001910Y015738D01*
X001910Y015860D02*
X001910Y016107D01*
X001910Y016228D02*
X001848Y016228D01*
X001848Y016290D01*
X001910Y016290D01*
X001910Y016228D01*
X001725Y016228D02*
X001663Y016228D01*
X001663Y016290D01*
X001725Y016290D01*
X001725Y016228D01*
X001725Y016412D02*
X001540Y016597D01*
X001910Y016597D01*
X001910Y016781D02*
X001663Y017027D01*
X001601Y017027D01*
X001540Y016966D01*
X001540Y016842D01*
X001601Y016781D01*
X001725Y016659D02*
X001725Y016412D01*
X001910Y016781D02*
X001910Y017027D01*
X001910Y015983D02*
X001540Y015983D01*
X001663Y015860D01*
X001601Y012545D02*
X001848Y012545D01*
X001848Y011440D02*
X001601Y011440D01*
D15*
X004975Y010175D02*
X005575Y010175D01*
X005325Y010325D01*
X005575Y010175D02*
X005325Y010025D01*
X005425Y008925D02*
X004975Y008925D01*
X005425Y008925D02*
X005425Y007275D01*
X006575Y007275D01*
X006782Y007482D01*
X006499Y007411D01*
X006782Y007482D02*
X006711Y007199D01*
X009175Y004925D02*
X009425Y004925D01*
X009425Y004425D01*
X011425Y004425D01*
X011425Y005425D01*
X009425Y005425D01*
X009425Y004925D01*
X011425Y004425D02*
X011925Y004425D01*
X011925Y004925D01*
X012175Y004925D01*
X011925Y004925D02*
X011925Y005425D01*
X011425Y005425D01*
X012275Y014275D02*
X012575Y014375D01*
X012575Y014575D02*
X012275Y014275D01*
X012375Y014575D01*
X012575Y014575D02*
X018075Y014575D01*
D16*
X009925Y014725D02*
X009900Y014738D01*
X009877Y014754D01*
X009855Y014772D01*
X009837Y014794D01*
X009821Y014817D01*
X009808Y014842D01*
X009799Y014869D01*
X009794Y014897D01*
X009792Y014925D01*
X009794Y014953D01*
X009799Y014981D01*
X009808Y015008D01*
X009821Y015033D01*
X009837Y015056D01*
X009855Y015078D01*
X009877Y015096D01*
X009900Y015112D01*
X009925Y015125D01*
X004392Y006931D02*
X002817Y005356D01*
X002817Y002994D01*
X004392Y001419D01*
X020533Y001419D01*
X020533Y006931D01*
X004392Y006931D01*
D17*
X005675Y007675D02*
X005925Y007425D01*
X006425Y007425D01*
X006675Y007675D01*
X006925Y007425D01*
X007425Y007425D01*
X007675Y007675D01*
X007675Y008175D01*
X007425Y008425D01*
X007675Y008675D01*
X007675Y009175D01*
X007425Y009425D01*
X007675Y009675D01*
X007675Y010175D01*
X007425Y010425D01*
X006925Y010425D01*
X006675Y010175D01*
X006675Y009675D01*
X006925Y009425D01*
X006675Y009175D01*
X006675Y008675D01*
X006925Y008425D01*
X006675Y008175D01*
X006675Y007675D01*
X006675Y008175D01*
X006425Y008425D01*
X006675Y008675D01*
X006675Y009175D01*
X006425Y009425D01*
X006675Y009675D01*
X006675Y010175D01*
X006425Y010425D01*
X005925Y010425D01*
X005675Y010175D01*
X005675Y009675D01*
X005925Y009425D01*
X005675Y009175D01*
X005675Y008675D01*
X005925Y008425D01*
X005675Y008175D01*
X005675Y007675D01*
X008175Y009175D02*
X008675Y009175D01*
X007415Y010703D02*
X004935Y010703D01*
X004935Y011647D01*
X007415Y011647D01*
X007415Y010703D01*
X007415Y012203D02*
X004935Y012203D01*
X004935Y013147D01*
X007415Y013147D01*
X007415Y012203D01*
X010175Y012525D02*
X010175Y013025D01*
X011675Y013425D02*
X012175Y013425D01*
X012441Y013425D02*
X012443Y013487D01*
X012449Y013550D01*
X012459Y013611D01*
X012473Y013672D01*
X012490Y013732D01*
X012511Y013791D01*
X012537Y013848D01*
X012565Y013903D01*
X012597Y013957D01*
X012633Y014008D01*
X012671Y014058D01*
X012713Y014104D01*
X012757Y014148D01*
X012805Y014189D01*
X012854Y014227D01*
X012906Y014261D01*
X012960Y014292D01*
X013016Y014320D01*
X013074Y014344D01*
X013133Y014365D01*
X013193Y014381D01*
X013254Y014394D01*
X013316Y014403D01*
X013378Y014408D01*
X013441Y014409D01*
X013503Y014406D01*
X013565Y014399D01*
X013627Y014388D01*
X013687Y014373D01*
X013747Y014355D01*
X013805Y014333D01*
X013862Y014307D01*
X013917Y014277D01*
X013970Y014244D01*
X014021Y014208D01*
X014069Y014169D01*
X014115Y014126D01*
X014158Y014081D01*
X014198Y014033D01*
X014235Y013983D01*
X014269Y013930D01*
X014300Y013876D01*
X014326Y013820D01*
X014350Y013762D01*
X014369Y013702D01*
X014385Y013642D01*
X014397Y013580D01*
X014405Y013519D01*
X014409Y013456D01*
X014409Y013394D01*
X014405Y013331D01*
X014397Y013270D01*
X014385Y013208D01*
X014369Y013148D01*
X014350Y013088D01*
X014326Y013030D01*
X014300Y012974D01*
X014269Y012920D01*
X014235Y012867D01*
X014198Y012817D01*
X014158Y012769D01*
X014115Y012724D01*
X014069Y012681D01*
X014021Y012642D01*
X013970Y012606D01*
X013917Y012573D01*
X013862Y012543D01*
X013805Y012517D01*
X013747Y012495D01*
X013687Y012477D01*
X013627Y012462D01*
X013565Y012451D01*
X013503Y012444D01*
X013441Y012441D01*
X013378Y012442D01*
X013316Y012447D01*
X013254Y012456D01*
X013193Y012469D01*
X013133Y012485D01*
X013074Y012506D01*
X013016Y012530D01*
X012960Y012558D01*
X012906Y012589D01*
X012854Y012623D01*
X012805Y012661D01*
X012757Y012702D01*
X012713Y012746D01*
X012671Y012792D01*
X012633Y012842D01*
X012597Y012893D01*
X012565Y012947D01*
X012537Y013002D01*
X012511Y013059D01*
X012490Y013118D01*
X012473Y013178D01*
X012459Y013239D01*
X012449Y013300D01*
X012443Y013363D01*
X012441Y013425D01*
X011775Y014630D02*
X011775Y014725D01*
X012325Y014850D02*
X012325Y016500D01*
X011775Y016625D02*
X011775Y016720D01*
X011775Y015715D02*
X011775Y015635D01*
X012325Y014851D02*
X012276Y014812D01*
X012225Y014775D01*
X012172Y014742D01*
X012118Y014712D01*
X012061Y014686D01*
X012003Y014663D01*
X011944Y014643D01*
X011883Y014627D01*
X011822Y014615D01*
X011760Y014606D01*
X011698Y014601D01*
X011635Y014600D01*
X011573Y014603D01*
X011510Y014609D01*
X011449Y014619D01*
X011388Y014633D01*
X011328Y014650D01*
X011269Y014671D01*
X011211Y014695D01*
X011155Y014723D01*
X011101Y014754D01*
X011049Y014789D01*
X010999Y014826D01*
X010951Y014866D01*
X010906Y014910D01*
X010863Y014955D01*
X010823Y015004D01*
X010787Y015054D01*
X010753Y015107D01*
X010722Y015161D01*
X010695Y015218D01*
X010672Y015275D01*
X009968Y015565D02*
X009970Y015580D01*
X009976Y015593D01*
X009985Y015605D01*
X009996Y015614D01*
X010010Y015620D01*
X010025Y015622D01*
X010040Y015620D01*
X010053Y015614D01*
X010065Y015605D01*
X010074Y015594D01*
X010080Y015580D01*
X010082Y015565D01*
X010080Y015550D01*
X010074Y015537D01*
X010065Y015525D01*
X010054Y015516D01*
X010040Y015510D01*
X010025Y015508D01*
X010010Y015510D01*
X009997Y015516D01*
X009985Y015525D01*
X009976Y015536D01*
X009970Y015550D01*
X009968Y015565D01*
X010672Y016075D02*
X010695Y016132D01*
X010722Y016189D01*
X010753Y016243D01*
X010787Y016296D01*
X010823Y016346D01*
X010863Y016395D01*
X010906Y016440D01*
X010951Y016484D01*
X010999Y016524D01*
X011049Y016561D01*
X011101Y016596D01*
X011155Y016627D01*
X011211Y016655D01*
X011269Y016679D01*
X011328Y016700D01*
X011388Y016717D01*
X011449Y016731D01*
X011510Y016741D01*
X011573Y016747D01*
X011635Y016750D01*
X011698Y016749D01*
X011760Y016744D01*
X011822Y016735D01*
X011883Y016723D01*
X011944Y016707D01*
X012003Y016687D01*
X012061Y016664D01*
X012118Y016638D01*
X012172Y016608D01*
X012225Y016575D01*
X012276Y016538D01*
X012325Y016499D01*
X012691Y015675D02*
X012693Y015737D01*
X012699Y015800D01*
X012709Y015861D01*
X012723Y015922D01*
X012740Y015982D01*
X012761Y016041D01*
X012787Y016098D01*
X012815Y016153D01*
X012847Y016207D01*
X012883Y016258D01*
X012921Y016308D01*
X012963Y016354D01*
X013007Y016398D01*
X013055Y016439D01*
X013104Y016477D01*
X013156Y016511D01*
X013210Y016542D01*
X013266Y016570D01*
X013324Y016594D01*
X013383Y016615D01*
X013443Y016631D01*
X013504Y016644D01*
X013566Y016653D01*
X013628Y016658D01*
X013691Y016659D01*
X013753Y016656D01*
X013815Y016649D01*
X013877Y016638D01*
X013937Y016623D01*
X013997Y016605D01*
X014055Y016583D01*
X014112Y016557D01*
X014167Y016527D01*
X014220Y016494D01*
X014271Y016458D01*
X014319Y016419D01*
X014365Y016376D01*
X014408Y016331D01*
X014448Y016283D01*
X014485Y016233D01*
X014519Y016180D01*
X014550Y016126D01*
X014576Y016070D01*
X014600Y016012D01*
X014619Y015952D01*
X014635Y015892D01*
X014647Y015830D01*
X014655Y015769D01*
X014659Y015706D01*
X014659Y015644D01*
X014655Y015581D01*
X014647Y015520D01*
X014635Y015458D01*
X014619Y015398D01*
X014600Y015338D01*
X014576Y015280D01*
X014550Y015224D01*
X014519Y015170D01*
X014485Y015117D01*
X014448Y015067D01*
X014408Y015019D01*
X014365Y014974D01*
X014319Y014931D01*
X014271Y014892D01*
X014220Y014856D01*
X014167Y014823D01*
X014112Y014793D01*
X014055Y014767D01*
X013997Y014745D01*
X013937Y014727D01*
X013877Y014712D01*
X013815Y014701D01*
X013753Y014694D01*
X013691Y014691D01*
X013628Y014692D01*
X013566Y014697D01*
X013504Y014706D01*
X013443Y014719D01*
X013383Y014735D01*
X013324Y014756D01*
X013266Y014780D01*
X013210Y014808D01*
X013156Y014839D01*
X013104Y014873D01*
X013055Y014911D01*
X013007Y014952D01*
X012963Y014996D01*
X012921Y015042D01*
X012883Y015092D01*
X012847Y015143D01*
X012815Y015197D01*
X012787Y015252D01*
X012761Y015309D01*
X012740Y015368D01*
X012723Y015428D01*
X012709Y015489D01*
X012699Y015550D01*
X012693Y015613D01*
X012691Y015675D01*
X014225Y015975D02*
X014225Y016375D01*
X013975Y014125D02*
X013975Y013725D01*
X015488Y013175D02*
X020606Y013175D01*
X020606Y007175D01*
X015488Y007175D01*
X015488Y013175D01*
X013500Y011825D02*
X011850Y011825D01*
X011725Y011275D02*
X011630Y011275D01*
X012635Y011275D02*
X012715Y011275D01*
X013499Y011825D02*
X013538Y011776D01*
X013575Y011725D01*
X013608Y011672D01*
X013638Y011618D01*
X013664Y011561D01*
X013687Y011503D01*
X013707Y011444D01*
X013723Y011383D01*
X013735Y011322D01*
X013744Y011260D01*
X013749Y011198D01*
X013750Y011135D01*
X013747Y011073D01*
X013741Y011010D01*
X013731Y010949D01*
X013717Y010888D01*
X013700Y010828D01*
X013679Y010769D01*
X013655Y010711D01*
X013627Y010655D01*
X013596Y010601D01*
X013561Y010549D01*
X013524Y010499D01*
X013484Y010451D01*
X013440Y010406D01*
X013395Y010363D01*
X013346Y010323D01*
X013296Y010287D01*
X013243Y010253D01*
X013189Y010222D01*
X013132Y010195D01*
X013075Y010172D01*
X012275Y010172D02*
X012218Y010195D01*
X012161Y010222D01*
X012107Y010253D01*
X012054Y010287D01*
X012004Y010323D01*
X011955Y010363D01*
X011910Y010406D01*
X011866Y010451D01*
X011826Y010499D01*
X011789Y010549D01*
X011754Y010601D01*
X011723Y010655D01*
X011695Y010711D01*
X011671Y010769D01*
X011650Y010828D01*
X011633Y010888D01*
X011619Y010949D01*
X011609Y011010D01*
X011603Y011073D01*
X011600Y011135D01*
X011601Y011198D01*
X011606Y011260D01*
X011615Y011322D01*
X011627Y011383D01*
X011643Y011444D01*
X011663Y011503D01*
X011686Y011561D01*
X011712Y011618D01*
X011742Y011672D01*
X011775Y011725D01*
X011812Y011776D01*
X011851Y011825D01*
X013625Y011275D02*
X013720Y011275D01*
X011675Y009175D02*
X011175Y009175D01*
X010578Y009065D02*
X010580Y009080D01*
X010586Y009093D01*
X010595Y009105D01*
X010606Y009114D01*
X010620Y009120D01*
X010635Y009122D01*
X010650Y009120D01*
X010663Y009114D01*
X010675Y009105D01*
X010684Y009094D01*
X010690Y009080D01*
X010692Y009065D01*
X010690Y009050D01*
X010684Y009037D01*
X010675Y009025D01*
X010664Y009016D01*
X010650Y009010D01*
X010635Y009008D01*
X010620Y009010D01*
X010607Y009016D01*
X010595Y009025D01*
X010586Y009036D01*
X010580Y009050D01*
X010578Y009065D01*
X012375Y007875D02*
X012375Y007475D01*
X011941Y008175D02*
X011943Y008237D01*
X011949Y008300D01*
X011959Y008361D01*
X011973Y008422D01*
X011990Y008482D01*
X012011Y008541D01*
X012037Y008598D01*
X012065Y008653D01*
X012097Y008707D01*
X012133Y008758D01*
X012171Y008808D01*
X012213Y008854D01*
X012257Y008898D01*
X012305Y008939D01*
X012354Y008977D01*
X012406Y009011D01*
X012460Y009042D01*
X012516Y009070D01*
X012574Y009094D01*
X012633Y009115D01*
X012693Y009131D01*
X012754Y009144D01*
X012816Y009153D01*
X012878Y009158D01*
X012941Y009159D01*
X013003Y009156D01*
X013065Y009149D01*
X013127Y009138D01*
X013187Y009123D01*
X013247Y009105D01*
X013305Y009083D01*
X013362Y009057D01*
X013417Y009027D01*
X013470Y008994D01*
X013521Y008958D01*
X013569Y008919D01*
X013615Y008876D01*
X013658Y008831D01*
X013698Y008783D01*
X013735Y008733D01*
X013769Y008680D01*
X013800Y008626D01*
X013826Y008570D01*
X013850Y008512D01*
X013869Y008452D01*
X013885Y008392D01*
X013897Y008330D01*
X013905Y008269D01*
X013909Y008206D01*
X013909Y008144D01*
X013905Y008081D01*
X013897Y008020D01*
X013885Y007958D01*
X013869Y007898D01*
X013850Y007838D01*
X013826Y007780D01*
X013800Y007724D01*
X013769Y007670D01*
X013735Y007617D01*
X013698Y007567D01*
X013658Y007519D01*
X013615Y007474D01*
X013569Y007431D01*
X013521Y007392D01*
X013470Y007356D01*
X013417Y007323D01*
X013362Y007293D01*
X013305Y007267D01*
X013247Y007245D01*
X013187Y007227D01*
X013127Y007212D01*
X013065Y007201D01*
X013003Y007194D01*
X012941Y007191D01*
X012878Y007192D01*
X012816Y007197D01*
X012754Y007206D01*
X012693Y007219D01*
X012633Y007235D01*
X012574Y007256D01*
X012516Y007280D01*
X012460Y007308D01*
X012406Y007339D01*
X012354Y007373D01*
X012305Y007411D01*
X012257Y007452D01*
X012213Y007496D01*
X012171Y007542D01*
X012133Y007592D01*
X012097Y007643D01*
X012065Y007697D01*
X012037Y007752D01*
X012011Y007809D01*
X011990Y007868D01*
X011973Y007928D01*
X011959Y007989D01*
X011949Y008050D01*
X011943Y008113D01*
X011941Y008175D01*
X011915Y006647D02*
X011915Y005703D01*
X009435Y005703D01*
X009435Y006647D01*
X011915Y006647D01*
X014725Y004175D02*
X014725Y003675D01*
X015325Y004730D02*
X015325Y004825D01*
X015875Y004950D02*
X015875Y006600D01*
X015325Y006725D02*
X015325Y006820D01*
X015325Y005815D02*
X015325Y005735D01*
X015875Y004951D02*
X015826Y004912D01*
X015775Y004875D01*
X015722Y004842D01*
X015668Y004812D01*
X015611Y004786D01*
X015553Y004763D01*
X015494Y004743D01*
X015433Y004727D01*
X015372Y004715D01*
X015310Y004706D01*
X015248Y004701D01*
X015185Y004700D01*
X015123Y004703D01*
X015060Y004709D01*
X014999Y004719D01*
X014938Y004733D01*
X014878Y004750D01*
X014819Y004771D01*
X014761Y004795D01*
X014705Y004823D01*
X014651Y004854D01*
X014599Y004889D01*
X014549Y004926D01*
X014501Y004966D01*
X014456Y005010D01*
X014413Y005055D01*
X014373Y005104D01*
X014337Y005154D01*
X014303Y005207D01*
X014272Y005261D01*
X014245Y005318D01*
X014222Y005375D01*
X014222Y006175D02*
X014245Y006232D01*
X014272Y006289D01*
X014303Y006343D01*
X014337Y006396D01*
X014373Y006446D01*
X014413Y006495D01*
X014456Y006540D01*
X014501Y006584D01*
X014549Y006624D01*
X014599Y006661D01*
X014651Y006696D01*
X014705Y006727D01*
X014761Y006755D01*
X014819Y006779D01*
X014878Y006800D01*
X014938Y006817D01*
X014999Y006831D01*
X015060Y006841D01*
X015123Y006847D01*
X015185Y006850D01*
X015248Y006849D01*
X015310Y006844D01*
X015372Y006835D01*
X015433Y006823D01*
X015494Y006807D01*
X015553Y006787D01*
X015611Y006764D01*
X015668Y006738D01*
X015722Y006708D01*
X015775Y006675D01*
X015826Y006638D01*
X015875Y006599D01*
X011915Y004147D02*
X011915Y003203D01*
X009435Y003203D01*
X009435Y004147D01*
X011915Y004147D01*
X011915Y002647D02*
X011915Y001703D01*
X009435Y001703D01*
X009435Y002647D01*
X011915Y002647D01*
X016925Y002675D02*
X017425Y002675D01*
X003175Y004925D02*
X003175Y010925D01*
X002175Y010925D01*
X002175Y004925D01*
X003175Y004925D01*
X002295Y002925D02*
X002297Y002975D01*
X002303Y003025D01*
X002313Y003074D01*
X002327Y003122D01*
X002344Y003169D01*
X002365Y003214D01*
X002390Y003258D01*
X002418Y003299D01*
X002450Y003338D01*
X002484Y003375D01*
X002521Y003409D01*
X002561Y003439D01*
X002603Y003466D01*
X002647Y003490D01*
X002693Y003511D01*
X002740Y003527D01*
X002788Y003540D01*
X002838Y003549D01*
X002887Y003554D01*
X002938Y003555D01*
X002988Y003552D01*
X003037Y003545D01*
X003086Y003534D01*
X003134Y003519D01*
X003180Y003501D01*
X003225Y003479D01*
X003268Y003453D01*
X003309Y003424D01*
X003348Y003392D01*
X003384Y003357D01*
X003416Y003319D01*
X003446Y003279D01*
X003473Y003236D01*
X003496Y003192D01*
X003515Y003146D01*
X003531Y003098D01*
X003543Y003049D01*
X003551Y003000D01*
X003555Y002950D01*
X003555Y002900D01*
X003551Y002850D01*
X003543Y002801D01*
X003531Y002752D01*
X003515Y002704D01*
X003496Y002658D01*
X003473Y002614D01*
X003446Y002571D01*
X003416Y002531D01*
X003384Y002493D01*
X003348Y002458D01*
X003309Y002426D01*
X003268Y002397D01*
X003225Y002371D01*
X003180Y002349D01*
X003134Y002331D01*
X003086Y002316D01*
X003037Y002305D01*
X002988Y002298D01*
X002938Y002295D01*
X002887Y002296D01*
X002838Y002301D01*
X002788Y002310D01*
X002740Y002323D01*
X002693Y002339D01*
X002647Y002360D01*
X002603Y002384D01*
X002561Y002411D01*
X002521Y002441D01*
X002484Y002475D01*
X002450Y002512D01*
X002418Y002551D01*
X002390Y002592D01*
X002365Y002636D01*
X002344Y002681D01*
X002327Y002728D01*
X002313Y002776D01*
X002303Y002825D01*
X002297Y002875D01*
X002295Y002925D01*
X002175Y010925D02*
X002175Y016925D01*
X003175Y016925D01*
X003175Y010925D01*
X002175Y010925D01*
X007175Y016675D02*
X007175Y017175D01*
X004925Y019175D02*
X004925Y020175D01*
X010925Y020175D01*
X010925Y019175D01*
X016925Y019175D01*
X016925Y020175D01*
X010925Y020175D01*
X010925Y019175D01*
X004925Y019175D01*
X002295Y018925D02*
X002297Y018975D01*
X002303Y019025D01*
X002313Y019074D01*
X002327Y019122D01*
X002344Y019169D01*
X002365Y019214D01*
X002390Y019258D01*
X002418Y019299D01*
X002450Y019338D01*
X002484Y019375D01*
X002521Y019409D01*
X002561Y019439D01*
X002603Y019466D01*
X002647Y019490D01*
X002693Y019511D01*
X002740Y019527D01*
X002788Y019540D01*
X002838Y019549D01*
X002887Y019554D01*
X002938Y019555D01*
X002988Y019552D01*
X003037Y019545D01*
X003086Y019534D01*
X003134Y019519D01*
X003180Y019501D01*
X003225Y019479D01*
X003268Y019453D01*
X003309Y019424D01*
X003348Y019392D01*
X003384Y019357D01*
X003416Y019319D01*
X003446Y019279D01*
X003473Y019236D01*
X003496Y019192D01*
X003515Y019146D01*
X003531Y019098D01*
X003543Y019049D01*
X003551Y019000D01*
X003555Y018950D01*
X003555Y018900D01*
X003551Y018850D01*
X003543Y018801D01*
X003531Y018752D01*
X003515Y018704D01*
X003496Y018658D01*
X003473Y018614D01*
X003446Y018571D01*
X003416Y018531D01*
X003384Y018493D01*
X003348Y018458D01*
X003309Y018426D01*
X003268Y018397D01*
X003225Y018371D01*
X003180Y018349D01*
X003134Y018331D01*
X003086Y018316D01*
X003037Y018305D01*
X002988Y018298D01*
X002938Y018295D01*
X002887Y018296D01*
X002838Y018301D01*
X002788Y018310D01*
X002740Y018323D01*
X002693Y018339D01*
X002647Y018360D01*
X002603Y018384D01*
X002561Y018411D01*
X002521Y018441D01*
X002484Y018475D01*
X002450Y018512D01*
X002418Y018551D01*
X002390Y018592D01*
X002365Y018636D01*
X002344Y018681D01*
X002327Y018728D01*
X002313Y018776D01*
X002303Y018825D01*
X002297Y018875D01*
X002295Y018925D01*
X018295Y018925D02*
X018297Y018975D01*
X018303Y019025D01*
X018313Y019074D01*
X018327Y019122D01*
X018344Y019169D01*
X018365Y019214D01*
X018390Y019258D01*
X018418Y019299D01*
X018450Y019338D01*
X018484Y019375D01*
X018521Y019409D01*
X018561Y019439D01*
X018603Y019466D01*
X018647Y019490D01*
X018693Y019511D01*
X018740Y019527D01*
X018788Y019540D01*
X018838Y019549D01*
X018887Y019554D01*
X018938Y019555D01*
X018988Y019552D01*
X019037Y019545D01*
X019086Y019534D01*
X019134Y019519D01*
X019180Y019501D01*
X019225Y019479D01*
X019268Y019453D01*
X019309Y019424D01*
X019348Y019392D01*
X019384Y019357D01*
X019416Y019319D01*
X019446Y019279D01*
X019473Y019236D01*
X019496Y019192D01*
X019515Y019146D01*
X019531Y019098D01*
X019543Y019049D01*
X019551Y019000D01*
X019555Y018950D01*
X019555Y018900D01*
X019551Y018850D01*
X019543Y018801D01*
X019531Y018752D01*
X019515Y018704D01*
X019496Y018658D01*
X019473Y018614D01*
X019446Y018571D01*
X019416Y018531D01*
X019384Y018493D01*
X019348Y018458D01*
X019309Y018426D01*
X019268Y018397D01*
X019225Y018371D01*
X019180Y018349D01*
X019134Y018331D01*
X019086Y018316D01*
X019037Y018305D01*
X018988Y018298D01*
X018938Y018295D01*
X018887Y018296D01*
X018838Y018301D01*
X018788Y018310D01*
X018740Y018323D01*
X018693Y018339D01*
X018647Y018360D01*
X018603Y018384D01*
X018561Y018411D01*
X018521Y018441D01*
X018484Y018475D01*
X018450Y018512D01*
X018418Y018551D01*
X018390Y018592D01*
X018365Y018636D01*
X018344Y018681D01*
X018327Y018728D01*
X018313Y018776D01*
X018303Y018825D01*
X018297Y018875D01*
X018295Y018925D01*
M02*
