G75*
G70*
%OFA0B0*%
%FSLAX24Y24*%
%IPPOS*%
%LPD*%
%AMOC8*
5,1,8,0,0,1.08239X$1,22.5*
%
%ADD10C,0.0000*%
%ADD11C,0.0740*%
%ADD12R,0.0240X0.0870*%
%ADD13R,0.0740X0.0740*%
%ADD14C,0.0650*%
%ADD15C,0.2300*%
%ADD16R,0.0650X0.0650*%
%ADD17C,0.0780*%
%ADD18C,0.0150*%
%ADD19C,0.0436*%
%ADD20C,0.0400*%
%ADD21C,0.0120*%
%ADD22C,0.0100*%
D10*
X002925Y001175D02*
X020175Y001175D01*
X020219Y001177D01*
X020262Y001183D01*
X020304Y001192D01*
X020346Y001205D01*
X020386Y001222D01*
X020425Y001242D01*
X020462Y001265D01*
X020496Y001292D01*
X020529Y001321D01*
X020558Y001354D01*
X020585Y001388D01*
X020608Y001425D01*
X020628Y001464D01*
X020645Y001504D01*
X020658Y001546D01*
X020667Y001588D01*
X020673Y001631D01*
X020675Y001675D01*
X020675Y018925D01*
X020673Y019008D01*
X020667Y019091D01*
X020657Y019174D01*
X020643Y019256D01*
X020626Y019338D01*
X020604Y019418D01*
X020579Y019497D01*
X020550Y019575D01*
X020517Y019652D01*
X020480Y019727D01*
X020441Y019800D01*
X020397Y019871D01*
X020351Y019940D01*
X020301Y020007D01*
X020248Y020071D01*
X020192Y020133D01*
X020133Y020192D01*
X020071Y020248D01*
X020007Y020301D01*
X019940Y020351D01*
X019871Y020397D01*
X019800Y020441D01*
X019727Y020480D01*
X019652Y020517D01*
X019575Y020550D01*
X019497Y020579D01*
X019418Y020604D01*
X019338Y020626D01*
X019256Y020643D01*
X019174Y020657D01*
X019091Y020667D01*
X019008Y020673D01*
X018925Y020675D01*
X002925Y020675D01*
X002842Y020673D01*
X002759Y020667D01*
X002676Y020657D01*
X002594Y020643D01*
X002512Y020626D01*
X002432Y020604D01*
X002353Y020579D01*
X002275Y020550D01*
X002198Y020517D01*
X002123Y020480D01*
X002050Y020441D01*
X001979Y020397D01*
X001910Y020351D01*
X001843Y020301D01*
X001779Y020248D01*
X001717Y020192D01*
X001658Y020133D01*
X001602Y020071D01*
X001549Y020007D01*
X001499Y019940D01*
X001453Y019871D01*
X001409Y019800D01*
X001370Y019727D01*
X001333Y019652D01*
X001300Y019575D01*
X001271Y019497D01*
X001246Y019418D01*
X001224Y019338D01*
X001207Y019256D01*
X001193Y019174D01*
X001183Y019091D01*
X001177Y019008D01*
X001175Y018925D01*
X001175Y002925D01*
X001177Y002842D01*
X001183Y002759D01*
X001193Y002676D01*
X001207Y002594D01*
X001224Y002512D01*
X001246Y002432D01*
X001271Y002353D01*
X001300Y002275D01*
X001333Y002198D01*
X001370Y002123D01*
X001409Y002050D01*
X001453Y001979D01*
X001499Y001910D01*
X001549Y001843D01*
X001602Y001779D01*
X001658Y001717D01*
X001717Y001658D01*
X001779Y001602D01*
X001843Y001549D01*
X001910Y001499D01*
X001979Y001453D01*
X002050Y001409D01*
X002123Y001370D01*
X002198Y001333D01*
X002275Y001300D01*
X002353Y001271D01*
X002432Y001246D01*
X002512Y001224D01*
X002594Y001207D01*
X002676Y001193D01*
X002759Y001183D01*
X002842Y001177D01*
X002925Y001175D01*
X018795Y007925D02*
X018797Y007975D01*
X018803Y008025D01*
X018813Y008074D01*
X018827Y008122D01*
X018844Y008169D01*
X018865Y008214D01*
X018890Y008258D01*
X018918Y008299D01*
X018950Y008338D01*
X018984Y008375D01*
X019021Y008409D01*
X019061Y008439D01*
X019103Y008466D01*
X019147Y008490D01*
X019193Y008511D01*
X019240Y008527D01*
X019288Y008540D01*
X019338Y008549D01*
X019387Y008554D01*
X019438Y008555D01*
X019488Y008552D01*
X019537Y008545D01*
X019586Y008534D01*
X019634Y008519D01*
X019680Y008501D01*
X019725Y008479D01*
X019768Y008453D01*
X019809Y008424D01*
X019848Y008392D01*
X019884Y008357D01*
X019916Y008319D01*
X019946Y008279D01*
X019973Y008236D01*
X019996Y008192D01*
X020015Y008146D01*
X020031Y008098D01*
X020043Y008049D01*
X020051Y008000D01*
X020055Y007950D01*
X020055Y007900D01*
X020051Y007850D01*
X020043Y007801D01*
X020031Y007752D01*
X020015Y007704D01*
X019996Y007658D01*
X019973Y007614D01*
X019946Y007571D01*
X019916Y007531D01*
X019884Y007493D01*
X019848Y007458D01*
X019809Y007426D01*
X019768Y007397D01*
X019725Y007371D01*
X019680Y007349D01*
X019634Y007331D01*
X019586Y007316D01*
X019537Y007305D01*
X019488Y007298D01*
X019438Y007295D01*
X019387Y007296D01*
X019338Y007301D01*
X019288Y007310D01*
X019240Y007323D01*
X019193Y007339D01*
X019147Y007360D01*
X019103Y007384D01*
X019061Y007411D01*
X019021Y007441D01*
X018984Y007475D01*
X018950Y007512D01*
X018918Y007551D01*
X018890Y007592D01*
X018865Y007636D01*
X018844Y007681D01*
X018827Y007728D01*
X018813Y007776D01*
X018803Y007825D01*
X018797Y007875D01*
X018795Y007925D01*
X018795Y012425D02*
X018797Y012475D01*
X018803Y012525D01*
X018813Y012574D01*
X018827Y012622D01*
X018844Y012669D01*
X018865Y012714D01*
X018890Y012758D01*
X018918Y012799D01*
X018950Y012838D01*
X018984Y012875D01*
X019021Y012909D01*
X019061Y012939D01*
X019103Y012966D01*
X019147Y012990D01*
X019193Y013011D01*
X019240Y013027D01*
X019288Y013040D01*
X019338Y013049D01*
X019387Y013054D01*
X019438Y013055D01*
X019488Y013052D01*
X019537Y013045D01*
X019586Y013034D01*
X019634Y013019D01*
X019680Y013001D01*
X019725Y012979D01*
X019768Y012953D01*
X019809Y012924D01*
X019848Y012892D01*
X019884Y012857D01*
X019916Y012819D01*
X019946Y012779D01*
X019973Y012736D01*
X019996Y012692D01*
X020015Y012646D01*
X020031Y012598D01*
X020043Y012549D01*
X020051Y012500D01*
X020055Y012450D01*
X020055Y012400D01*
X020051Y012350D01*
X020043Y012301D01*
X020031Y012252D01*
X020015Y012204D01*
X019996Y012158D01*
X019973Y012114D01*
X019946Y012071D01*
X019916Y012031D01*
X019884Y011993D01*
X019848Y011958D01*
X019809Y011926D01*
X019768Y011897D01*
X019725Y011871D01*
X019680Y011849D01*
X019634Y011831D01*
X019586Y011816D01*
X019537Y011805D01*
X019488Y011798D01*
X019438Y011795D01*
X019387Y011796D01*
X019338Y011801D01*
X019288Y011810D01*
X019240Y011823D01*
X019193Y011839D01*
X019147Y011860D01*
X019103Y011884D01*
X019061Y011911D01*
X019021Y011941D01*
X018984Y011975D01*
X018950Y012012D01*
X018918Y012051D01*
X018890Y012092D01*
X018865Y012136D01*
X018844Y012181D01*
X018827Y012228D01*
X018813Y012276D01*
X018803Y012325D01*
X018797Y012375D01*
X018795Y012425D01*
D11*
X016925Y011425D03*
X016925Y010425D03*
X016925Y009425D03*
X015925Y008925D03*
X015925Y009925D03*
X015925Y010925D03*
X015925Y011925D03*
X013175Y011175D03*
X012675Y010425D03*
X012175Y011175D03*
X008175Y011175D03*
X007175Y009925D03*
X007175Y008925D03*
X007175Y007925D03*
X006175Y007925D03*
X006175Y008925D03*
X006175Y009925D03*
X004175Y011175D03*
X002675Y011425D03*
X002675Y012425D03*
X002675Y013425D03*
X002675Y014425D03*
X002675Y015425D03*
X002675Y016425D03*
X005425Y019675D03*
X006425Y019675D03*
X007425Y019675D03*
X008425Y019675D03*
X009425Y019675D03*
X010425Y019675D03*
X011425Y019675D03*
X012425Y019675D03*
X013425Y019675D03*
X014425Y019675D03*
X015425Y019675D03*
X016425Y019675D03*
X011675Y016175D03*
X010925Y015675D03*
X011675Y015175D03*
X008175Y012675D03*
X004175Y012675D03*
X002675Y010425D03*
X002675Y009425D03*
X002675Y008425D03*
X002675Y007425D03*
X002675Y006425D03*
X002675Y005425D03*
X006675Y006175D03*
X007675Y006175D03*
X008675Y006175D03*
X008675Y003675D03*
X008675Y002175D03*
X007675Y002175D03*
X006675Y002175D03*
X012675Y002175D03*
X012675Y003675D03*
X014475Y005775D03*
X015225Y005275D03*
X015225Y006275D03*
X012675Y006175D03*
X019675Y006175D03*
X019675Y005175D03*
X019675Y004175D03*
X019675Y003175D03*
X019675Y002175D03*
D12*
X010675Y007645D03*
X010175Y007645D03*
X009675Y007645D03*
X009175Y007645D03*
X009175Y009705D03*
X009675Y009705D03*
X010175Y009705D03*
X010675Y009705D03*
X009675Y013895D03*
X009175Y013895D03*
X008675Y013895D03*
X008175Y013895D03*
X007675Y013895D03*
X007175Y013895D03*
X006675Y013895D03*
X006675Y015955D03*
X007175Y015955D03*
X007675Y015955D03*
X008175Y015955D03*
X008675Y015955D03*
X009175Y015955D03*
X009675Y015955D03*
D13*
X016925Y008425D03*
D14*
X012925Y007675D03*
X011425Y008675D03*
X011425Y009675D03*
X008425Y009675D03*
X008425Y008675D03*
X009675Y012775D03*
X010675Y012775D03*
X011925Y012925D03*
X011925Y013925D03*
X013425Y013925D03*
X013675Y016175D03*
X007675Y016925D03*
X006675Y016925D03*
X014225Y003925D03*
X015225Y003925D03*
X017175Y003175D03*
X017175Y002175D03*
D15*
X002925Y002925D03*
X002925Y018925D03*
X018925Y018925D03*
D16*
X013675Y015175D03*
X013425Y012925D03*
X012925Y008675D03*
D17*
X012675Y004925D03*
X008675Y004925D03*
D18*
X002064Y001918D02*
X001860Y001918D01*
X001942Y002034D02*
X001859Y002135D01*
X001787Y002243D01*
X001726Y002358D01*
X001676Y002478D01*
X001638Y002603D01*
X001613Y002730D01*
X001601Y002850D01*
X002850Y002850D01*
X003000Y002850D01*
X003000Y003000D01*
X004249Y003000D01*
X004237Y003120D01*
X004212Y003247D01*
X004174Y003372D01*
X004124Y003492D01*
X004063Y003607D01*
X003991Y003715D01*
X003908Y003816D01*
X003816Y003908D01*
X003715Y003991D01*
X003607Y004063D01*
X003492Y004124D01*
X003372Y004174D01*
X003247Y004212D01*
X003120Y004237D01*
X003000Y004249D01*
X003000Y003000D01*
X002850Y003000D01*
X002850Y004249D01*
X002730Y004237D01*
X002603Y004212D01*
X002478Y004174D01*
X002358Y004124D01*
X002243Y004063D01*
X002135Y003991D01*
X002034Y003908D01*
X001942Y003816D01*
X001859Y003715D01*
X001787Y003607D01*
X001726Y003492D01*
X001676Y003372D01*
X001638Y003247D01*
X001613Y003120D01*
X001601Y003000D01*
X002850Y003000D01*
X002850Y002850D01*
X002850Y001601D01*
X002730Y001613D01*
X002603Y001638D01*
X002478Y001676D01*
X002358Y001726D01*
X002243Y001787D01*
X002135Y001859D01*
X002034Y001942D01*
X001942Y002034D01*
X001916Y002066D02*
X001729Y002066D01*
X001752Y002025D02*
X001559Y002359D01*
X001459Y002732D01*
X001447Y002925D01*
X001447Y004486D01*
X001508Y004425D01*
X001616Y004380D01*
X003803Y004380D01*
X004630Y003553D01*
X004630Y002366D01*
X004675Y002258D01*
X004758Y002175D01*
X005486Y001447D01*
X002925Y001447D01*
X002732Y001459D01*
X002359Y001559D01*
X002025Y001752D01*
X001752Y002025D01*
X001806Y002215D02*
X001643Y002215D01*
X001724Y002363D02*
X001558Y002363D01*
X001519Y002512D02*
X001666Y002512D01*
X001627Y002660D02*
X001479Y002660D01*
X001454Y002809D02*
X001605Y002809D01*
X001447Y002957D02*
X002850Y002957D01*
X002850Y002809D02*
X003000Y002809D01*
X003000Y002850D02*
X003000Y001601D01*
X003120Y001613D01*
X003247Y001638D01*
X003372Y001676D01*
X003492Y001726D01*
X003607Y001787D01*
X003715Y001859D01*
X003816Y001942D01*
X003908Y002034D01*
X003991Y002135D01*
X004063Y002243D01*
X004124Y002358D01*
X004174Y002478D01*
X004212Y002603D01*
X004237Y002730D01*
X004249Y002850D01*
X003000Y002850D01*
X003000Y002957D02*
X004630Y002957D01*
X004630Y002809D02*
X004245Y002809D01*
X004223Y002660D02*
X004630Y002660D01*
X004630Y002512D02*
X004184Y002512D01*
X004126Y002363D02*
X004631Y002363D01*
X004718Y002215D02*
X004044Y002215D01*
X003934Y002066D02*
X004867Y002066D01*
X005015Y001918D02*
X003786Y001918D01*
X003573Y001769D02*
X005164Y001769D01*
X005312Y001621D02*
X003159Y001621D01*
X003000Y001621D02*
X002850Y001621D01*
X002850Y001769D02*
X003000Y001769D01*
X003000Y001918D02*
X002850Y001918D01*
X002850Y002066D02*
X003000Y002066D01*
X003000Y002215D02*
X002850Y002215D01*
X002850Y002363D02*
X003000Y002363D01*
X003000Y002512D02*
X002850Y002512D01*
X002850Y002660D02*
X003000Y002660D01*
X003000Y003106D02*
X002850Y003106D01*
X002850Y003254D02*
X003000Y003254D01*
X003000Y003403D02*
X002850Y003403D01*
X002850Y003551D02*
X003000Y003551D01*
X003000Y003700D02*
X002850Y003700D01*
X002850Y003848D02*
X003000Y003848D01*
X003000Y003997D02*
X002850Y003997D01*
X002850Y004145D02*
X003000Y004145D01*
X003442Y004145D02*
X004038Y004145D01*
X004186Y003997D02*
X003706Y003997D01*
X003876Y003848D02*
X004335Y003848D01*
X004483Y003700D02*
X004001Y003700D01*
X004093Y003551D02*
X004630Y003551D01*
X004630Y003403D02*
X004161Y003403D01*
X004210Y003254D02*
X004630Y003254D01*
X004630Y003106D02*
X004239Y003106D01*
X005220Y003106D02*
X008469Y003106D01*
X008555Y003070D02*
X008795Y003070D01*
X009018Y003162D01*
X009188Y003332D01*
X009280Y003555D01*
X009280Y003795D01*
X009188Y004018D01*
X009018Y004188D01*
X008970Y004208D01*
X008970Y004371D01*
X009029Y004395D01*
X009205Y004571D01*
X009300Y004801D01*
X009300Y005049D01*
X009205Y005279D01*
X009029Y005455D01*
X008970Y005479D01*
X008970Y005642D01*
X009018Y005662D01*
X009188Y005832D01*
X009212Y005890D01*
X010232Y005890D01*
X010336Y005933D01*
X010417Y006014D01*
X010460Y006118D01*
X010460Y006975D01*
X010892Y006975D01*
X011030Y007113D01*
X011030Y007842D01*
X011306Y008118D01*
X011314Y008115D01*
X011536Y008115D01*
X011742Y008200D01*
X011900Y008358D01*
X011985Y008564D01*
X011985Y008786D01*
X011900Y008992D01*
X011742Y009150D01*
X011681Y009175D01*
X011742Y009200D01*
X011900Y009358D01*
X011985Y009564D01*
X011985Y009786D01*
X011900Y009992D01*
X011742Y010150D01*
X011536Y010235D01*
X011314Y010235D01*
X011108Y010150D01*
X011030Y010072D01*
X011030Y010237D01*
X010892Y010375D01*
X010485Y010375D01*
X010485Y011047D01*
X011806Y012368D01*
X011814Y012365D01*
X012036Y012365D01*
X012242Y012450D01*
X012400Y012608D01*
X012485Y012814D01*
X012485Y013036D01*
X012400Y013242D01*
X012242Y013400D01*
X012103Y013457D01*
X012117Y013462D01*
X012187Y013497D01*
X012251Y013544D01*
X012306Y013599D01*
X012353Y013663D01*
X012388Y013733D01*
X012413Y013808D01*
X012425Y013886D01*
X012425Y013925D01*
X012425Y013964D01*
X012413Y014042D01*
X012388Y014117D01*
X012353Y014187D01*
X012306Y014251D01*
X012251Y014306D01*
X012187Y014353D01*
X012117Y014388D01*
X012042Y014413D01*
X011964Y014425D01*
X011925Y014425D01*
X011925Y013925D01*
X010675Y013925D01*
X010675Y012775D01*
X010675Y012775D01*
X010675Y013275D01*
X010714Y013275D01*
X010792Y013263D01*
X010867Y013238D01*
X010937Y013203D01*
X011001Y013156D01*
X011056Y013101D01*
X011103Y013037D01*
X011138Y012967D01*
X011163Y012892D01*
X011175Y012814D01*
X011175Y012775D01*
X010675Y012775D01*
X010675Y012775D01*
X010675Y013275D01*
X010636Y013275D01*
X010558Y013263D01*
X010483Y013238D01*
X010413Y013203D01*
X010349Y013156D01*
X010294Y013101D01*
X010247Y013037D01*
X010212Y012967D01*
X010207Y012953D01*
X010150Y013092D01*
X009992Y013250D01*
X009869Y013301D01*
X009902Y013320D01*
X009935Y013353D01*
X009958Y013392D01*
X009970Y013437D01*
X009970Y013895D01*
X009970Y014353D01*
X009958Y014398D01*
X009935Y014437D01*
X009902Y014470D01*
X009885Y014480D01*
X010984Y014480D01*
X011092Y014525D01*
X011175Y014608D01*
X011220Y014716D01*
X011220Y014774D01*
X011332Y014662D01*
X011555Y014570D01*
X011795Y014570D01*
X012018Y014662D01*
X012188Y014832D01*
X012280Y015055D01*
X012280Y015295D01*
X012188Y015518D01*
X012018Y015688D01*
X011963Y015711D01*
X012030Y015759D01*
X012091Y015820D01*
X012141Y015889D01*
X012180Y015966D01*
X012207Y016047D01*
X012220Y016132D01*
X012220Y016170D01*
X011680Y016170D01*
X011680Y016180D01*
X012220Y016180D01*
X012220Y016218D01*
X012207Y016303D01*
X012180Y016384D01*
X012141Y016461D01*
X012091Y016530D01*
X012030Y016591D01*
X011976Y016630D01*
X013467Y016630D01*
X013413Y016603D01*
X013349Y016556D01*
X013294Y016501D01*
X013247Y016437D01*
X013212Y016367D01*
X013187Y016292D01*
X013175Y016214D01*
X013175Y016175D01*
X013675Y016175D01*
X014175Y016175D01*
X014175Y016214D01*
X014163Y016292D01*
X014138Y016367D01*
X014103Y016437D01*
X014056Y016501D01*
X014001Y016556D01*
X013937Y016603D01*
X013883Y016630D01*
X014303Y016630D01*
X014380Y016553D01*
X014380Y007866D01*
X014425Y007758D01*
X015303Y006880D01*
X015105Y006880D01*
X014882Y006788D01*
X014712Y006618D01*
X014620Y006395D01*
X014620Y006370D01*
X014595Y006380D01*
X014355Y006380D01*
X014132Y006288D01*
X013962Y006118D01*
X013870Y005895D01*
X013870Y005655D01*
X013930Y005510D01*
X013930Y004409D01*
X013908Y004400D01*
X013750Y004242D01*
X013741Y004220D01*
X012970Y004220D01*
X012970Y004371D01*
X013029Y004395D01*
X013205Y004571D01*
X013300Y004801D01*
X013300Y005049D01*
X013205Y005279D01*
X013029Y005455D01*
X012799Y005550D01*
X012551Y005550D01*
X012321Y005455D01*
X012145Y005279D01*
X012050Y005049D01*
X012050Y004801D01*
X012145Y004571D01*
X012321Y004395D01*
X012380Y004371D01*
X012380Y004208D01*
X012332Y004188D01*
X012162Y004018D01*
X012070Y003795D01*
X012070Y003555D01*
X012162Y003332D01*
X012274Y003220D01*
X009366Y003220D01*
X009258Y003175D01*
X009175Y003092D01*
X008843Y002760D01*
X008795Y002780D01*
X008555Y002780D01*
X008332Y002688D01*
X008175Y002531D01*
X008018Y002688D01*
X007795Y002780D01*
X007555Y002780D01*
X007332Y002688D01*
X007175Y002531D01*
X007018Y002688D01*
X006795Y002780D01*
X006555Y002780D01*
X006332Y002688D01*
X006162Y002518D01*
X006070Y002295D01*
X006070Y002055D01*
X006162Y001832D01*
X006224Y001770D01*
X005997Y001770D01*
X005220Y002547D01*
X005220Y003734D01*
X005175Y003842D01*
X005092Y003925D01*
X004175Y004842D01*
X004092Y004925D01*
X003984Y004970D01*
X003076Y004970D01*
X003188Y005082D01*
X003280Y005305D01*
X003280Y005545D01*
X003260Y005593D01*
X004342Y006675D01*
X004425Y006758D01*
X004470Y006866D01*
X004470Y010642D01*
X004518Y010662D01*
X004688Y010832D01*
X004780Y011055D01*
X004780Y011295D01*
X004760Y011343D01*
X005130Y011713D01*
X005130Y009116D01*
X005175Y009008D01*
X005258Y008925D01*
X005508Y008675D01*
X005616Y008630D01*
X005642Y008630D01*
X005662Y008582D01*
X005832Y008412D01*
X005887Y008389D01*
X005820Y008341D01*
X005759Y008280D01*
X005709Y008211D01*
X005670Y008134D01*
X005643Y008053D01*
X005630Y007968D01*
X005630Y007950D01*
X006150Y007950D01*
X006150Y007900D01*
X006200Y007900D01*
X006200Y007950D01*
X007150Y007950D01*
X007150Y007900D01*
X007200Y007900D01*
X007200Y007950D01*
X007720Y007950D01*
X007720Y007968D01*
X007707Y008053D01*
X007680Y008134D01*
X007641Y008211D01*
X007591Y008280D01*
X007530Y008341D01*
X007463Y008389D01*
X007518Y008412D01*
X007688Y008582D01*
X007780Y008805D01*
X007780Y009045D01*
X007760Y009093D01*
X007988Y009320D01*
X008108Y009200D01*
X008169Y009175D01*
X008108Y009150D01*
X007950Y008992D01*
X007865Y008786D01*
X007865Y008564D01*
X007950Y008358D01*
X008108Y008200D01*
X008314Y008115D01*
X008536Y008115D01*
X008544Y008118D01*
X008820Y007842D01*
X008820Y007113D01*
X008958Y006975D01*
X009392Y006975D01*
X009473Y007055D01*
X009487Y007047D01*
X009532Y007035D01*
X009675Y007035D01*
X009818Y007035D01*
X009863Y007047D01*
X009877Y007055D01*
X009890Y007043D01*
X009890Y006460D01*
X009212Y006460D01*
X009188Y006518D01*
X009018Y006688D01*
X008795Y006780D01*
X008555Y006780D01*
X008332Y006688D01*
X008175Y006531D01*
X008018Y006688D01*
X007795Y006780D01*
X007555Y006780D01*
X007332Y006688D01*
X007175Y006531D01*
X007018Y006688D01*
X006795Y006780D01*
X006555Y006780D01*
X006332Y006688D01*
X006162Y006518D01*
X006070Y006295D01*
X006070Y006055D01*
X006162Y005832D01*
X006332Y005662D01*
X006555Y005570D01*
X006795Y005570D01*
X007018Y005662D01*
X007175Y005819D01*
X007332Y005662D01*
X007555Y005570D01*
X007795Y005570D01*
X008018Y005662D01*
X008175Y005819D01*
X008332Y005662D01*
X008380Y005642D01*
X008380Y005479D01*
X008321Y005455D01*
X008145Y005279D01*
X008050Y005049D01*
X008050Y004801D01*
X008145Y004571D01*
X008321Y004395D01*
X008380Y004371D01*
X008380Y004208D01*
X008332Y004188D01*
X008162Y004018D01*
X008070Y003795D01*
X008070Y003555D01*
X008162Y003332D01*
X008332Y003162D01*
X008555Y003070D01*
X008240Y003254D02*
X005220Y003254D01*
X005220Y003403D02*
X008133Y003403D01*
X008072Y003551D02*
X005220Y003551D01*
X005220Y003700D02*
X008070Y003700D01*
X008092Y003848D02*
X005169Y003848D01*
X005092Y003925D02*
X005092Y003925D01*
X005021Y003997D02*
X008153Y003997D01*
X008289Y004145D02*
X004872Y004145D01*
X004724Y004294D02*
X008380Y004294D01*
X008274Y004442D02*
X004575Y004442D01*
X004427Y004591D02*
X008137Y004591D01*
X008076Y004739D02*
X004278Y004739D01*
X004175Y004842D02*
X004175Y004842D01*
X004130Y004888D02*
X008050Y004888D01*
X008050Y005036D02*
X003142Y005036D01*
X003230Y005185D02*
X008106Y005185D01*
X008199Y005333D02*
X003280Y005333D01*
X003280Y005482D02*
X008380Y005482D01*
X008380Y005630D02*
X007940Y005630D01*
X008134Y005779D02*
X008216Y005779D01*
X008970Y005630D02*
X012410Y005630D01*
X012332Y005662D02*
X012555Y005570D01*
X012795Y005570D01*
X013018Y005662D01*
X013188Y005832D01*
X013280Y006055D01*
X013280Y006295D01*
X013266Y006328D01*
X014201Y007262D01*
X014288Y007349D01*
X014335Y007463D01*
X014335Y012387D01*
X014288Y012501D01*
X013985Y012803D01*
X013985Y013347D01*
X013847Y013485D01*
X013663Y013485D01*
X013687Y013497D01*
X013751Y013544D01*
X013806Y013599D01*
X013853Y013663D01*
X013888Y013733D01*
X013913Y013808D01*
X013925Y013886D01*
X013925Y013925D01*
X013425Y013925D01*
X012675Y014675D01*
X012675Y015675D01*
X012175Y016175D01*
X011675Y016175D01*
X011680Y016174D02*
X013175Y016174D01*
X013175Y016175D02*
X013175Y016136D01*
X013187Y016058D01*
X013212Y015983D01*
X013247Y015913D01*
X013294Y015849D01*
X013349Y015794D01*
X013413Y015747D01*
X013437Y015735D01*
X013253Y015735D01*
X013115Y015597D01*
X013115Y014753D01*
X013253Y014615D01*
X014097Y014615D01*
X014235Y014753D01*
X014235Y015597D01*
X014097Y015735D01*
X013913Y015735D01*
X013937Y015747D01*
X014001Y015794D01*
X014056Y015849D01*
X014103Y015913D01*
X014138Y015983D01*
X014163Y016058D01*
X014175Y016136D01*
X014175Y016175D01*
X013675Y016175D01*
X013675Y016175D01*
X013675Y016175D01*
X013175Y016175D01*
X013197Y016322D02*
X012200Y016322D01*
X012134Y016471D02*
X013272Y016471D01*
X013445Y016619D02*
X011991Y016619D01*
X012199Y016025D02*
X013198Y016025D01*
X013274Y015877D02*
X012132Y015877D01*
X011987Y015728D02*
X013246Y015728D01*
X013115Y015580D02*
X012126Y015580D01*
X012224Y015431D02*
X013115Y015431D01*
X013115Y015283D02*
X012280Y015283D01*
X012280Y015134D02*
X013115Y015134D01*
X013115Y014986D02*
X012251Y014986D01*
X012190Y014837D02*
X013115Y014837D01*
X013179Y014689D02*
X012044Y014689D01*
X011925Y014425D02*
X011886Y014425D01*
X011808Y014413D01*
X011733Y014388D01*
X011663Y014353D01*
X011599Y014306D01*
X011544Y014251D01*
X011497Y014187D01*
X011462Y014117D01*
X011437Y014042D01*
X011425Y013964D01*
X011425Y013925D01*
X011925Y013925D01*
X011925Y013925D01*
X012425Y013925D01*
X011925Y013925D01*
X011925Y013925D01*
X011925Y013925D01*
X011925Y014425D01*
X011925Y014392D02*
X011925Y014392D01*
X011925Y014243D02*
X011925Y014243D01*
X011925Y014095D02*
X011925Y014095D01*
X011925Y013946D02*
X011925Y013946D01*
X011925Y013925D02*
X011425Y013925D01*
X011425Y013886D01*
X011437Y013808D01*
X011462Y013733D01*
X011497Y013663D01*
X011544Y013599D01*
X011599Y013544D01*
X011663Y013497D01*
X011733Y013462D01*
X011747Y013457D01*
X011608Y013400D01*
X011450Y013242D01*
X011365Y013036D01*
X011365Y012814D01*
X011368Y012806D01*
X011132Y012570D01*
X011138Y012583D01*
X011163Y012658D01*
X011175Y012736D01*
X011175Y012775D01*
X010675Y012775D01*
X010675Y012275D01*
X010714Y012275D01*
X010792Y012287D01*
X010867Y012312D01*
X010880Y012318D01*
X010013Y011452D01*
X009921Y011544D01*
X009762Y011610D01*
X009588Y011610D01*
X009429Y011544D01*
X009306Y011421D01*
X009240Y011262D01*
X009240Y011088D01*
X009306Y010929D01*
X009365Y010870D01*
X009365Y010375D01*
X008958Y010375D01*
X008820Y010237D01*
X008820Y010072D01*
X008742Y010150D01*
X008601Y010208D01*
X008642Y010225D01*
X009092Y010675D01*
X009175Y010758D01*
X009220Y010866D01*
X009220Y012438D01*
X009358Y012300D01*
X009564Y012215D01*
X009786Y012215D01*
X009992Y012300D01*
X010150Y012458D01*
X010207Y012597D01*
X010212Y012583D01*
X010247Y012513D01*
X010294Y012449D01*
X010349Y012394D01*
X010413Y012347D01*
X010483Y012312D01*
X010558Y012287D01*
X010636Y012275D01*
X010675Y012275D01*
X010675Y012775D01*
X010675Y012775D01*
X010675Y012758D02*
X010675Y012758D01*
X010675Y012610D02*
X010675Y012610D01*
X010675Y012461D02*
X010675Y012461D01*
X010675Y012313D02*
X010675Y012313D01*
X010726Y012164D02*
X009220Y012164D01*
X009220Y012016D02*
X010577Y012016D01*
X010429Y011867D02*
X009220Y011867D01*
X009220Y011719D02*
X010280Y011719D01*
X010132Y011570D02*
X009858Y011570D01*
X009675Y011175D02*
X009675Y009705D01*
X009175Y009705D02*
X009145Y009675D01*
X008425Y009675D01*
X008820Y009278D02*
X008742Y009200D01*
X008681Y009175D01*
X008742Y009150D01*
X008900Y008992D01*
X008985Y008786D01*
X008985Y008564D01*
X008982Y008556D01*
X009223Y008315D01*
X009392Y008315D01*
X009473Y008235D01*
X009487Y008243D01*
X009532Y008255D01*
X009675Y008255D01*
X009675Y007645D01*
X009675Y006925D01*
X008175Y006925D01*
X007175Y007925D01*
X007200Y007900D02*
X007200Y007380D01*
X007218Y007380D01*
X007303Y007393D01*
X007384Y007420D01*
X007461Y007459D01*
X007530Y007509D01*
X007591Y007570D01*
X007641Y007639D01*
X007680Y007716D01*
X007707Y007797D01*
X007720Y007882D01*
X007720Y007900D01*
X007200Y007900D01*
X007200Y007858D02*
X007150Y007858D01*
X007150Y007900D02*
X007150Y007380D01*
X007132Y007380D01*
X007047Y007393D01*
X006966Y007420D01*
X006889Y007459D01*
X006820Y007509D01*
X006759Y007570D01*
X006709Y007639D01*
X006675Y007706D01*
X006641Y007639D01*
X006591Y007570D01*
X006530Y007509D01*
X006461Y007459D01*
X006384Y007420D01*
X006303Y007393D01*
X006218Y007380D01*
X006200Y007380D01*
X006200Y007900D01*
X006630Y007900D01*
X007150Y007900D01*
X007150Y007709D02*
X007200Y007709D01*
X007200Y007561D02*
X007150Y007561D01*
X007150Y007412D02*
X007200Y007412D01*
X007360Y007412D02*
X008820Y007412D01*
X008820Y007264D02*
X004470Y007264D01*
X004470Y007412D02*
X005990Y007412D01*
X005966Y007420D02*
X006047Y007393D01*
X006132Y007380D01*
X006150Y007380D01*
X006150Y007900D01*
X005630Y007900D01*
X005630Y007882D01*
X005643Y007797D01*
X005670Y007716D01*
X005709Y007639D01*
X005759Y007570D01*
X005820Y007509D01*
X005889Y007459D01*
X005966Y007420D01*
X006150Y007412D02*
X006200Y007412D01*
X006200Y007561D02*
X006150Y007561D01*
X006150Y007709D02*
X006200Y007709D01*
X006200Y007858D02*
X006150Y007858D01*
X005769Y007561D02*
X004470Y007561D01*
X004470Y007709D02*
X005673Y007709D01*
X005634Y007858D02*
X004470Y007858D01*
X004470Y008006D02*
X005636Y008006D01*
X005680Y008155D02*
X004470Y008155D01*
X004470Y008303D02*
X005782Y008303D01*
X005793Y008452D02*
X004470Y008452D01*
X004470Y008600D02*
X005655Y008600D01*
X005434Y008749D02*
X004470Y008749D01*
X004470Y008897D02*
X005286Y008897D01*
X005159Y009046D02*
X004470Y009046D01*
X004470Y009194D02*
X005130Y009194D01*
X005130Y009343D02*
X004470Y009343D01*
X004470Y009491D02*
X005130Y009491D01*
X005130Y009640D02*
X004470Y009640D01*
X004470Y009788D02*
X005130Y009788D01*
X005130Y009937D02*
X004470Y009937D01*
X004470Y010085D02*
X005130Y010085D01*
X005130Y010234D02*
X004470Y010234D01*
X004470Y010382D02*
X005130Y010382D01*
X005130Y010531D02*
X004470Y010531D01*
X004535Y010679D02*
X005130Y010679D01*
X005130Y010828D02*
X004683Y010828D01*
X004747Y010976D02*
X005130Y010976D01*
X005130Y011125D02*
X004780Y011125D01*
X004780Y011273D02*
X005130Y011273D01*
X005130Y011422D02*
X004839Y011422D01*
X004987Y011570D02*
X005130Y011570D01*
X003880Y010642D02*
X003880Y007047D01*
X003220Y006387D01*
X003220Y006400D01*
X002700Y006400D01*
X002700Y006450D01*
X003220Y006450D01*
X003220Y006468D01*
X003207Y006553D01*
X003180Y006634D01*
X003141Y006711D01*
X003091Y006780D01*
X003030Y006841D01*
X002963Y006889D01*
X003018Y006912D01*
X003188Y007082D01*
X003280Y007305D01*
X003280Y007545D01*
X003260Y007593D01*
X003675Y008008D01*
X003720Y008116D01*
X003720Y010774D01*
X003832Y010662D01*
X003880Y010642D01*
X003815Y010679D02*
X003720Y010679D01*
X003720Y010531D02*
X003880Y010531D01*
X003880Y010382D02*
X003720Y010382D01*
X003720Y010234D02*
X003880Y010234D01*
X003880Y010085D02*
X003720Y010085D01*
X003720Y009937D02*
X003880Y009937D01*
X003880Y009788D02*
X003720Y009788D01*
X003720Y009640D02*
X003880Y009640D01*
X003880Y009491D02*
X003720Y009491D01*
X003720Y009343D02*
X003880Y009343D01*
X003880Y009194D02*
X003720Y009194D01*
X003720Y009046D02*
X003880Y009046D01*
X003880Y008897D02*
X003720Y008897D01*
X003720Y008749D02*
X003880Y008749D01*
X003880Y008600D02*
X003720Y008600D01*
X003720Y008452D02*
X003880Y008452D01*
X003880Y008303D02*
X003720Y008303D01*
X003720Y008155D02*
X003880Y008155D01*
X003880Y008006D02*
X003673Y008006D01*
X003525Y007858D02*
X003880Y007858D01*
X003880Y007709D02*
X003376Y007709D01*
X003274Y007561D02*
X003880Y007561D01*
X003880Y007412D02*
X003280Y007412D01*
X003263Y007264D02*
X003880Y007264D01*
X003880Y007115D02*
X003201Y007115D01*
X003072Y006967D02*
X003799Y006967D01*
X003651Y006818D02*
X003053Y006818D01*
X003162Y006670D02*
X003502Y006670D01*
X003354Y006521D02*
X003212Y006521D01*
X002650Y006450D02*
X002650Y006400D01*
X002130Y006400D01*
X002130Y006382D01*
X002143Y006297D01*
X002170Y006216D01*
X002209Y006139D01*
X002259Y006070D01*
X002320Y006009D01*
X002387Y005961D01*
X002332Y005938D01*
X002162Y005768D01*
X002070Y005545D01*
X002070Y005305D01*
X002162Y005082D01*
X002274Y004970D01*
X001970Y004970D01*
X001970Y010130D01*
X002142Y010130D01*
X002162Y010082D01*
X002319Y009925D01*
X002162Y009768D01*
X002070Y009545D01*
X002070Y009305D01*
X002162Y009082D01*
X002319Y008925D01*
X002162Y008768D01*
X002070Y008545D01*
X002070Y008305D01*
X002162Y008082D01*
X002319Y007925D01*
X002162Y007768D01*
X002070Y007545D01*
X002070Y007305D01*
X002162Y007082D01*
X002332Y006912D01*
X002387Y006889D01*
X002320Y006841D01*
X002259Y006780D01*
X002209Y006711D01*
X002170Y006634D01*
X002143Y006553D01*
X002130Y006468D01*
X002130Y006450D01*
X002650Y006450D01*
X002297Y006818D02*
X001970Y006818D01*
X001970Y006670D02*
X002188Y006670D01*
X002138Y006521D02*
X001970Y006521D01*
X001970Y006373D02*
X002132Y006373D01*
X002167Y006224D02*
X001970Y006224D01*
X001970Y006076D02*
X002255Y006076D01*
X002321Y005927D02*
X001970Y005927D01*
X001970Y005779D02*
X002173Y005779D01*
X002105Y005630D02*
X001970Y005630D01*
X001970Y005482D02*
X002070Y005482D01*
X002070Y005333D02*
X001970Y005333D01*
X001970Y005185D02*
X002120Y005185D01*
X002208Y005036D02*
X001970Y005036D01*
X001491Y004442D02*
X001447Y004442D01*
X001447Y004294D02*
X003889Y004294D01*
X003297Y005630D02*
X006410Y005630D01*
X006216Y005779D02*
X003446Y005779D01*
X003594Y005927D02*
X006123Y005927D01*
X006070Y006076D02*
X003743Y006076D01*
X003891Y006224D02*
X006070Y006224D01*
X006102Y006373D02*
X004040Y006373D01*
X004188Y006521D02*
X006165Y006521D01*
X006314Y006670D02*
X004337Y006670D01*
X004450Y006818D02*
X009890Y006818D01*
X009890Y006670D02*
X009036Y006670D01*
X009185Y006521D02*
X009890Y006521D01*
X009890Y006967D02*
X004470Y006967D01*
X004470Y007115D02*
X008820Y007115D01*
X008820Y007561D02*
X007581Y007561D01*
X007677Y007709D02*
X008820Y007709D01*
X008804Y007858D02*
X007716Y007858D01*
X007714Y008006D02*
X008656Y008006D01*
X008218Y008155D02*
X007670Y008155D01*
X007568Y008303D02*
X008005Y008303D01*
X007911Y008452D02*
X007557Y008452D01*
X007695Y008600D02*
X007865Y008600D01*
X007865Y008749D02*
X007757Y008749D01*
X007780Y008897D02*
X007911Y008897D01*
X008004Y009046D02*
X007780Y009046D01*
X007861Y009194D02*
X008123Y009194D01*
X008727Y009194D02*
X008820Y009194D01*
X008820Y009173D02*
X008820Y009278D01*
X008820Y009173D02*
X008958Y009035D01*
X009392Y009035D01*
X009425Y009068D01*
X009458Y009035D01*
X009892Y009035D01*
X009925Y009068D01*
X009958Y009035D01*
X010392Y009035D01*
X010425Y009068D01*
X010458Y009035D01*
X010892Y009035D01*
X011030Y009173D01*
X011030Y009278D01*
X011108Y009200D01*
X011169Y009175D01*
X011108Y009150D01*
X010950Y008992D01*
X010865Y008786D01*
X010865Y008564D01*
X010868Y008556D01*
X010627Y008315D01*
X010458Y008315D01*
X010425Y008282D01*
X010392Y008315D01*
X009958Y008315D01*
X009877Y008235D01*
X009863Y008243D01*
X009818Y008255D01*
X009675Y008255D01*
X009675Y007645D01*
X009675Y007645D01*
X009820Y007645D01*
X009820Y007645D01*
X009675Y007645D01*
X009675Y007645D01*
X009675Y007035D01*
X009675Y007645D01*
X009675Y007645D01*
X009675Y007645D01*
X009530Y007645D01*
X009530Y007645D01*
X009675Y007645D01*
X009675Y007709D02*
X009675Y007709D01*
X009675Y007561D02*
X009675Y007561D01*
X009675Y007412D02*
X009675Y007412D01*
X009675Y007264D02*
X009675Y007264D01*
X009675Y007115D02*
X009675Y007115D01*
X009175Y007645D02*
X009145Y007675D01*
X009175Y007925D01*
X008425Y008675D01*
X008939Y008897D02*
X010911Y008897D01*
X010903Y009046D02*
X011004Y009046D01*
X011030Y009194D02*
X011123Y009194D01*
X010865Y008749D02*
X008985Y008749D01*
X008985Y008600D02*
X010865Y008600D01*
X010763Y008452D02*
X009087Y008452D01*
X009404Y008303D02*
X009946Y008303D01*
X009675Y008155D02*
X009675Y008155D01*
X009675Y008006D02*
X009675Y008006D01*
X009675Y007858D02*
X009675Y007858D01*
X010404Y008303D02*
X010446Y008303D01*
X010675Y007925D02*
X010675Y007645D01*
X010675Y007925D02*
X011425Y008675D01*
X011632Y008155D02*
X012463Y008155D01*
X012503Y008115D02*
X012687Y008115D01*
X012663Y008103D01*
X012599Y008056D01*
X012544Y008001D01*
X012497Y007937D01*
X012462Y007867D01*
X012437Y007792D01*
X012425Y007714D01*
X012425Y007675D01*
X012925Y007675D01*
X013175Y007675D01*
X013675Y008175D01*
X013675Y010675D01*
X013175Y011175D01*
X013180Y011180D02*
X013170Y011180D01*
X013170Y011720D01*
X013132Y011720D01*
X013047Y011707D01*
X012966Y011680D01*
X012889Y011641D01*
X012820Y011591D01*
X012759Y011530D01*
X012711Y011463D01*
X012688Y011518D01*
X012518Y011688D01*
X012295Y011780D01*
X012055Y011780D01*
X011832Y011688D01*
X011662Y011518D01*
X011570Y011295D01*
X011570Y011055D01*
X011662Y010832D01*
X011832Y010662D01*
X012055Y010570D01*
X012080Y010570D01*
X012070Y010545D01*
X012070Y010305D01*
X012162Y010082D01*
X012332Y009912D01*
X012365Y009899D01*
X012365Y009613D01*
X012412Y009499D01*
X012615Y009297D01*
X012615Y009235D01*
X012503Y009235D01*
X012365Y009097D01*
X012365Y008253D01*
X012503Y008115D01*
X012549Y008006D02*
X011194Y008006D01*
X011046Y007858D02*
X012459Y007858D01*
X012425Y007709D02*
X011030Y007709D01*
X011030Y007561D02*
X012437Y007561D01*
X012437Y007558D02*
X012462Y007483D01*
X012497Y007413D01*
X012544Y007349D01*
X012599Y007294D01*
X012663Y007247D01*
X012733Y007212D01*
X012808Y007187D01*
X012886Y007175D01*
X012925Y007175D01*
X012964Y007175D01*
X013042Y007187D01*
X013117Y007212D01*
X013187Y007247D01*
X013251Y007294D01*
X013306Y007349D01*
X013353Y007413D01*
X013388Y007483D01*
X013413Y007558D01*
X013425Y007636D01*
X013425Y007675D01*
X013425Y007714D01*
X013413Y007792D01*
X013388Y007867D01*
X013353Y007937D01*
X013306Y008001D01*
X013251Y008056D01*
X013187Y008103D01*
X013163Y008115D01*
X013347Y008115D01*
X013485Y008253D01*
X013485Y009097D01*
X013347Y009235D01*
X013235Y009235D01*
X013235Y009487D01*
X013188Y009601D01*
X013101Y009688D01*
X012985Y009803D01*
X012985Y009899D01*
X013018Y009912D01*
X013188Y010082D01*
X013280Y010305D01*
X013280Y010545D01*
X013243Y010634D01*
X013303Y010643D01*
X013384Y010670D01*
X013461Y010709D01*
X013530Y010759D01*
X013591Y010820D01*
X013641Y010889D01*
X013680Y010966D01*
X013707Y011047D01*
X013715Y011101D01*
X013715Y007653D01*
X012828Y006766D01*
X012795Y006780D01*
X012555Y006780D01*
X012332Y006688D01*
X012162Y006518D01*
X012070Y006295D01*
X012070Y006055D01*
X012162Y005832D01*
X012332Y005662D01*
X012216Y005779D02*
X009134Y005779D01*
X008970Y005482D02*
X012385Y005482D01*
X012175Y005575D02*
X011675Y006075D01*
X011675Y006425D01*
X012925Y007675D01*
X013425Y007675D01*
X012925Y007675D01*
X012925Y007675D01*
X012925Y007675D01*
X012925Y007175D01*
X012925Y007675D01*
X012925Y007675D01*
X012425Y007675D01*
X012425Y007636D01*
X012437Y007558D01*
X012498Y007412D02*
X011030Y007412D01*
X011030Y007264D02*
X012641Y007264D01*
X012925Y007264D02*
X012925Y007264D01*
X012925Y007412D02*
X012925Y007412D01*
X012925Y007561D02*
X012925Y007561D01*
X013209Y007264D02*
X013325Y007264D01*
X013352Y007412D02*
X013474Y007412D01*
X013413Y007561D02*
X013622Y007561D01*
X013715Y007709D02*
X013425Y007709D01*
X013391Y007858D02*
X013715Y007858D01*
X013715Y008006D02*
X013301Y008006D01*
X013387Y008155D02*
X013715Y008155D01*
X013715Y008303D02*
X013485Y008303D01*
X013485Y008452D02*
X013715Y008452D01*
X013715Y008600D02*
X013485Y008600D01*
X013485Y008749D02*
X013715Y008749D01*
X013715Y008897D02*
X013485Y008897D01*
X013485Y009046D02*
X013715Y009046D01*
X013715Y009194D02*
X013388Y009194D01*
X013235Y009343D02*
X013715Y009343D01*
X013715Y009491D02*
X013233Y009491D01*
X013149Y009640D02*
X013715Y009640D01*
X013715Y009788D02*
X013000Y009788D01*
X013042Y009937D02*
X013715Y009937D01*
X013715Y010085D02*
X013189Y010085D01*
X013251Y010234D02*
X013715Y010234D01*
X013715Y010382D02*
X013280Y010382D01*
X013280Y010531D02*
X013715Y010531D01*
X013715Y010679D02*
X013402Y010679D01*
X013596Y010828D02*
X013715Y010828D01*
X013715Y010976D02*
X013683Y010976D01*
X013715Y011249D02*
X013707Y011303D01*
X013680Y011384D01*
X013641Y011461D01*
X013591Y011530D01*
X013530Y011591D01*
X013461Y011641D01*
X013384Y011680D01*
X013303Y011707D01*
X013218Y011720D01*
X013180Y011720D01*
X013180Y011180D01*
X013170Y011273D02*
X013180Y011273D01*
X013170Y011422D02*
X013180Y011422D01*
X013170Y011570D02*
X013180Y011570D01*
X013170Y011719D02*
X013180Y011719D01*
X013227Y011719D02*
X013715Y011719D01*
X013715Y011867D02*
X011305Y011867D01*
X011157Y011719D02*
X011906Y011719D01*
X011714Y011570D02*
X011008Y011570D01*
X010860Y011422D02*
X011622Y011422D01*
X011570Y011273D02*
X010711Y011273D01*
X010563Y011125D02*
X011570Y011125D01*
X011603Y010976D02*
X010485Y010976D01*
X010485Y010828D02*
X011667Y010828D01*
X011815Y010679D02*
X010485Y010679D01*
X010485Y010531D02*
X012070Y010531D01*
X012070Y010382D02*
X010485Y010382D01*
X011030Y010234D02*
X011310Y010234D01*
X011540Y010234D02*
X012099Y010234D01*
X012161Y010085D02*
X011807Y010085D01*
X011923Y009937D02*
X012308Y009937D01*
X012365Y009788D02*
X011984Y009788D01*
X011985Y009640D02*
X012365Y009640D01*
X012421Y009491D02*
X011955Y009491D01*
X011884Y009343D02*
X012569Y009343D01*
X012462Y009194D02*
X011727Y009194D01*
X011846Y009046D02*
X012365Y009046D01*
X012365Y008897D02*
X011939Y008897D01*
X011985Y008749D02*
X012365Y008749D01*
X012365Y008600D02*
X011985Y008600D01*
X011939Y008452D02*
X012365Y008452D01*
X012365Y008303D02*
X011845Y008303D01*
X012925Y008675D02*
X012925Y009425D01*
X012675Y009675D01*
X012675Y010425D01*
X013715Y011249D02*
X013715Y012197D01*
X013547Y012365D01*
X013003Y012365D01*
X012865Y012503D01*
X012865Y013347D01*
X013003Y013485D01*
X013187Y013485D01*
X013163Y013497D01*
X013099Y013544D01*
X013044Y013599D01*
X012997Y013663D01*
X012962Y013733D01*
X012937Y013808D01*
X012925Y013886D01*
X012925Y013925D01*
X013425Y013925D01*
X013425Y013925D01*
X013425Y014425D01*
X013464Y014425D01*
X013542Y014413D01*
X013617Y014388D01*
X013687Y014353D01*
X013751Y014306D01*
X013806Y014251D01*
X013853Y014187D01*
X013888Y014117D01*
X013913Y014042D01*
X013925Y013964D01*
X013925Y013925D01*
X014375Y013475D01*
X014375Y007375D01*
X013675Y006675D01*
X013675Y005925D01*
X013325Y005575D01*
X012175Y005575D01*
X012199Y005333D02*
X009151Y005333D01*
X009244Y005185D02*
X012106Y005185D01*
X012050Y005036D02*
X009300Y005036D01*
X009300Y004888D02*
X012050Y004888D01*
X012076Y004739D02*
X009274Y004739D01*
X009213Y004591D02*
X012137Y004591D01*
X012274Y004442D02*
X009076Y004442D01*
X008970Y004294D02*
X012380Y004294D01*
X012289Y004145D02*
X009061Y004145D01*
X009197Y003997D02*
X012153Y003997D01*
X012092Y003848D02*
X009258Y003848D01*
X009280Y003700D02*
X012070Y003700D01*
X012072Y003551D02*
X009278Y003551D01*
X009217Y003403D02*
X012133Y003403D01*
X012240Y003254D02*
X009110Y003254D01*
X009188Y003106D02*
X008881Y003106D01*
X009040Y002957D02*
X005220Y002957D01*
X005220Y002809D02*
X008891Y002809D01*
X008304Y002660D02*
X008046Y002660D01*
X007304Y002660D02*
X007046Y002660D01*
X006304Y002660D02*
X005220Y002660D01*
X005256Y002512D02*
X006160Y002512D01*
X006098Y002363D02*
X005404Y002363D01*
X005553Y002215D02*
X006070Y002215D01*
X006070Y002066D02*
X005701Y002066D01*
X005850Y001918D02*
X006127Y001918D01*
X005461Y001472D02*
X002685Y001472D01*
X002691Y001621D02*
X002253Y001621D01*
X002277Y001769D02*
X002008Y001769D01*
X001611Y003106D02*
X001447Y003106D01*
X001447Y003254D02*
X001640Y003254D01*
X001689Y003403D02*
X001447Y003403D01*
X001447Y003551D02*
X001757Y003551D01*
X001849Y003700D02*
X001447Y003700D01*
X001447Y003848D02*
X001974Y003848D01*
X002144Y003997D02*
X001447Y003997D01*
X001447Y004145D02*
X002408Y004145D01*
X002278Y006967D02*
X001970Y006967D01*
X001970Y007115D02*
X002149Y007115D01*
X002087Y007264D02*
X001970Y007264D01*
X001970Y007412D02*
X002070Y007412D01*
X002076Y007561D02*
X001970Y007561D01*
X001970Y007709D02*
X002138Y007709D01*
X002252Y007858D02*
X001970Y007858D01*
X001970Y008006D02*
X002238Y008006D01*
X002132Y008155D02*
X001970Y008155D01*
X001970Y008303D02*
X002071Y008303D01*
X002070Y008452D02*
X001970Y008452D01*
X001970Y008600D02*
X002093Y008600D01*
X002154Y008749D02*
X001970Y008749D01*
X001970Y008897D02*
X002291Y008897D01*
X002199Y009046D02*
X001970Y009046D01*
X001970Y009194D02*
X002116Y009194D01*
X002070Y009343D02*
X001970Y009343D01*
X001970Y009491D02*
X002070Y009491D01*
X002109Y009640D02*
X001970Y009640D01*
X001970Y009788D02*
X002182Y009788D01*
X002308Y009937D02*
X001970Y009937D01*
X001970Y010085D02*
X002161Y010085D01*
X003870Y013204D02*
X003880Y013208D01*
X003880Y014734D01*
X003925Y014842D01*
X004008Y014925D01*
X004925Y015842D01*
X005008Y015925D01*
X005116Y015970D01*
X006320Y015970D01*
X006320Y016487D01*
X006320Y016488D01*
X006200Y016608D01*
X006115Y016814D01*
X006115Y017036D01*
X006200Y017242D01*
X006358Y017400D01*
X006564Y017485D01*
X006786Y017485D01*
X006992Y017400D01*
X007150Y017242D01*
X007207Y017103D01*
X007212Y017117D01*
X007247Y017187D01*
X007294Y017251D01*
X007349Y017306D01*
X007413Y017353D01*
X007483Y017388D01*
X007558Y017413D01*
X007636Y017425D01*
X007675Y017425D01*
X007675Y016925D01*
X007675Y015955D01*
X007675Y015955D01*
X007675Y016565D01*
X007675Y016925D01*
X007675Y016925D01*
X007675Y017425D01*
X007714Y017425D01*
X007792Y017413D01*
X007867Y017388D01*
X007937Y017353D01*
X008001Y017306D01*
X008056Y017251D01*
X008103Y017187D01*
X008130Y017133D01*
X008130Y017803D01*
X007961Y017972D01*
X007835Y017972D01*
X007668Y018041D01*
X007541Y018168D01*
X007472Y018335D01*
X007472Y018515D01*
X007541Y018682D01*
X007668Y018809D01*
X007814Y018869D01*
X007593Y019090D01*
X007545Y019070D01*
X007305Y019070D01*
X007082Y019162D01*
X006925Y019319D01*
X006768Y019162D01*
X006545Y019070D01*
X006305Y019070D01*
X006257Y019090D01*
X006220Y019053D01*
X006220Y017666D01*
X006175Y017558D01*
X006092Y017475D01*
X003870Y015253D01*
X003870Y013204D01*
X003870Y013204D01*
X003870Y013352D02*
X003880Y013352D01*
X003870Y013501D02*
X003880Y013501D01*
X003870Y013649D02*
X003880Y013649D01*
X003870Y013798D02*
X003880Y013798D01*
X003870Y013946D02*
X003880Y013946D01*
X003870Y014095D02*
X003880Y014095D01*
X003870Y014243D02*
X003880Y014243D01*
X003870Y014392D02*
X003880Y014392D01*
X003870Y014540D02*
X003880Y014540D01*
X003870Y014689D02*
X003880Y014689D01*
X003870Y014837D02*
X003923Y014837D01*
X003870Y014986D02*
X004068Y014986D01*
X004217Y015134D02*
X003870Y015134D01*
X003900Y015283D02*
X004365Y015283D01*
X004514Y015431D02*
X004048Y015431D01*
X004197Y015580D02*
X004662Y015580D01*
X004811Y015728D02*
X004345Y015728D01*
X004494Y015877D02*
X004959Y015877D01*
X004642Y016025D02*
X006320Y016025D01*
X006320Y016174D02*
X004791Y016174D01*
X004939Y016322D02*
X006320Y016322D01*
X006320Y016471D02*
X005088Y016471D01*
X005236Y016619D02*
X006196Y016619D01*
X006134Y016768D02*
X005385Y016768D01*
X005533Y016916D02*
X006115Y016916D01*
X006127Y017065D02*
X005682Y017065D01*
X005830Y017213D02*
X006188Y017213D01*
X006320Y017362D02*
X005979Y017362D01*
X006127Y017510D02*
X008130Y017510D01*
X008130Y017362D02*
X007920Y017362D01*
X008084Y017213D02*
X008130Y017213D01*
X008130Y017659D02*
X006217Y017659D01*
X006220Y017807D02*
X008126Y017807D01*
X007977Y017956D02*
X006220Y017956D01*
X006220Y018104D02*
X007605Y018104D01*
X007506Y018253D02*
X006220Y018253D01*
X006220Y018401D02*
X007472Y018401D01*
X007486Y018550D02*
X006220Y018550D01*
X006220Y018698D02*
X007557Y018698D01*
X007759Y018847D02*
X006220Y018847D01*
X006220Y018995D02*
X007688Y018995D01*
X007127Y019144D02*
X006723Y019144D01*
X006898Y019292D02*
X006952Y019292D01*
X007030Y017362D02*
X007430Y017362D01*
X007266Y017213D02*
X007162Y017213D01*
X007675Y017213D02*
X007675Y017213D01*
X007675Y017065D02*
X007675Y017065D01*
X007675Y016925D02*
X007675Y016925D01*
X007675Y015955D01*
X007675Y016025D02*
X007675Y016025D01*
X007675Y016174D02*
X007675Y016174D01*
X007675Y016322D02*
X007675Y016322D01*
X007675Y016471D02*
X007675Y016471D01*
X007675Y016619D02*
X007675Y016619D01*
X007675Y016768D02*
X007675Y016768D01*
X007675Y016916D02*
X007675Y016916D01*
X007675Y017362D02*
X007675Y017362D01*
X007175Y016425D02*
X006675Y016925D01*
X007175Y016425D02*
X007175Y015955D01*
X009675Y014480D02*
X009675Y013895D01*
X009675Y013925D01*
X010675Y013925D01*
X009970Y013946D02*
X011425Y013946D01*
X011441Y013798D02*
X009970Y013798D01*
X009970Y013895D02*
X009675Y013895D01*
X009970Y013895D01*
X009970Y014095D02*
X011454Y014095D01*
X011538Y014243D02*
X009970Y014243D01*
X009960Y014392D02*
X011743Y014392D01*
X012107Y014392D02*
X013243Y014392D01*
X013233Y014388D02*
X013163Y014353D01*
X013099Y014306D01*
X013044Y014251D01*
X012997Y014187D01*
X012962Y014117D01*
X012937Y014042D01*
X012925Y013964D01*
X012925Y013925D01*
X013425Y013925D01*
X013925Y013925D01*
X013425Y013925D01*
X013425Y013925D01*
X013425Y013925D01*
X013425Y014425D01*
X013386Y014425D01*
X013308Y014413D01*
X013233Y014388D01*
X013425Y014392D02*
X013425Y014392D01*
X013425Y014243D02*
X013425Y014243D01*
X013425Y014095D02*
X013425Y014095D01*
X013425Y013946D02*
X013425Y013946D01*
X013607Y014392D02*
X014380Y014392D01*
X014380Y014540D02*
X011107Y014540D01*
X011208Y014689D02*
X011306Y014689D01*
X012312Y014243D02*
X013038Y014243D01*
X012954Y014095D02*
X012396Y014095D01*
X012425Y013946D02*
X012925Y013946D01*
X012941Y013798D02*
X012409Y013798D01*
X012343Y013649D02*
X013007Y013649D01*
X013159Y013501D02*
X012191Y013501D01*
X012290Y013352D02*
X012870Y013352D01*
X012865Y013204D02*
X012416Y013204D01*
X012477Y013055D02*
X012865Y013055D01*
X012865Y012907D02*
X012485Y012907D01*
X012462Y012758D02*
X012865Y012758D01*
X012865Y012610D02*
X012400Y012610D01*
X012253Y012461D02*
X012907Y012461D01*
X013425Y012925D02*
X014025Y012325D01*
X014025Y007525D01*
X012675Y006175D01*
X013227Y005927D02*
X013883Y005927D01*
X013870Y005779D02*
X013134Y005779D01*
X012940Y005630D02*
X013880Y005630D01*
X013930Y005482D02*
X012965Y005482D01*
X013151Y005333D02*
X013930Y005333D01*
X013930Y005185D02*
X013244Y005185D01*
X013300Y005036D02*
X013930Y005036D01*
X013930Y004888D02*
X013300Y004888D01*
X013274Y004739D02*
X013930Y004739D01*
X013930Y004591D02*
X013213Y004591D01*
X013076Y004442D02*
X013930Y004442D01*
X013802Y004294D02*
X012970Y004294D01*
X013280Y003630D02*
X013741Y003630D01*
X013750Y003608D01*
X013908Y003450D01*
X014114Y003365D01*
X014336Y003365D01*
X014542Y003450D01*
X014700Y003608D01*
X014757Y003747D01*
X014762Y003733D01*
X014797Y003663D01*
X014844Y003599D01*
X014899Y003544D01*
X014963Y003497D01*
X015033Y003462D01*
X015108Y003437D01*
X015186Y003425D01*
X015225Y003425D01*
X015264Y003425D01*
X015342Y003437D01*
X015417Y003462D01*
X015487Y003497D01*
X015551Y003544D01*
X015606Y003599D01*
X015653Y003663D01*
X015688Y003733D01*
X015713Y003808D01*
X015725Y003886D01*
X015725Y003925D01*
X015725Y003964D01*
X015713Y004042D01*
X015688Y004117D01*
X015653Y004187D01*
X015606Y004251D01*
X015551Y004306D01*
X015487Y004353D01*
X015417Y004388D01*
X015342Y004413D01*
X015264Y004425D01*
X015225Y004425D01*
X015225Y003925D01*
X015225Y005275D01*
X015230Y005280D02*
X015770Y005280D01*
X015770Y005313D01*
X015880Y005203D01*
X015880Y003797D01*
X015303Y003220D01*
X013076Y003220D01*
X013188Y003332D01*
X013280Y003555D01*
X013280Y003630D01*
X013278Y003551D02*
X013807Y003551D01*
X014023Y003403D02*
X013217Y003403D01*
X013110Y003254D02*
X015337Y003254D01*
X015225Y003425D02*
X015225Y003925D01*
X015225Y003925D01*
X015725Y003925D01*
X015225Y003925D01*
X015225Y003925D01*
X015225Y004425D01*
X015186Y004425D01*
X015108Y004413D01*
X015033Y004388D01*
X014963Y004353D01*
X014899Y004306D01*
X014844Y004251D01*
X014797Y004187D01*
X014762Y004117D01*
X014757Y004103D01*
X014700Y004242D01*
X014542Y004400D01*
X014520Y004409D01*
X014520Y005170D01*
X014595Y005170D01*
X014684Y005207D01*
X014693Y005147D01*
X014720Y005066D01*
X014759Y004989D01*
X014809Y004920D01*
X014870Y004859D01*
X014939Y004809D01*
X015016Y004770D01*
X015097Y004743D01*
X015182Y004730D01*
X015220Y004730D01*
X015220Y005270D01*
X015230Y005270D01*
X015230Y005280D01*
X015230Y005270D02*
X015770Y005270D01*
X015770Y005232D01*
X015757Y005147D01*
X015730Y005066D01*
X015691Y004989D01*
X015641Y004920D01*
X015580Y004859D01*
X015511Y004809D01*
X015434Y004770D01*
X015353Y004743D01*
X015268Y004730D01*
X015230Y004730D01*
X015230Y005270D01*
X015220Y005185D02*
X015230Y005185D01*
X015220Y005036D02*
X015230Y005036D01*
X015220Y004888D02*
X015230Y004888D01*
X015220Y004739D02*
X015230Y004739D01*
X015325Y004739D02*
X015880Y004739D01*
X015880Y004591D02*
X014520Y004591D01*
X014520Y004739D02*
X015125Y004739D01*
X014842Y004888D02*
X014520Y004888D01*
X014520Y005036D02*
X014735Y005036D01*
X014688Y005185D02*
X014630Y005185D01*
X014520Y004442D02*
X015880Y004442D01*
X015880Y004294D02*
X015564Y004294D01*
X015674Y004145D02*
X015880Y004145D01*
X015880Y003997D02*
X015720Y003997D01*
X015719Y003848D02*
X015880Y003848D01*
X015782Y003700D02*
X015671Y003700D01*
X015634Y003551D02*
X015558Y003551D01*
X015485Y003403D02*
X014427Y003403D01*
X014643Y003551D02*
X014892Y003551D01*
X014779Y003700D02*
X014738Y003700D01*
X014740Y004145D02*
X014776Y004145D01*
X014886Y004294D02*
X014648Y004294D01*
X015225Y004294D02*
X015225Y004294D01*
X015225Y004145D02*
X015225Y004145D01*
X015225Y003997D02*
X015225Y003997D01*
X015225Y003925D02*
X015225Y003925D01*
X015225Y003425D01*
X015225Y003551D02*
X015225Y003551D01*
X015225Y003700D02*
X015225Y003700D01*
X015225Y003848D02*
X015225Y003848D01*
X016023Y003106D02*
X016615Y003106D01*
X016615Y003064D02*
X016618Y003056D01*
X016047Y002485D01*
X013201Y002485D01*
X013188Y002518D01*
X013076Y002630D01*
X015484Y002630D01*
X015592Y002675D01*
X016342Y003425D01*
X016425Y003508D01*
X016470Y003616D01*
X016470Y005384D01*
X016425Y005492D01*
X015810Y006107D01*
X015830Y006155D01*
X015830Y006353D01*
X016175Y006008D01*
X016258Y005925D01*
X016366Y005880D01*
X018553Y005880D01*
X019090Y005343D01*
X019070Y005295D01*
X019070Y005055D01*
X019162Y004832D01*
X019319Y004675D01*
X019162Y004518D01*
X019142Y004470D01*
X018616Y004470D01*
X018508Y004425D01*
X018425Y004342D01*
X018380Y004234D01*
X018380Y001770D01*
X017468Y001770D01*
X017501Y001794D01*
X017556Y001849D01*
X017603Y001913D01*
X017638Y001983D01*
X017663Y002058D01*
X017675Y002136D01*
X017675Y002175D01*
X017675Y002214D01*
X017663Y002292D01*
X017638Y002367D01*
X017603Y002437D01*
X017556Y002501D01*
X017501Y002556D01*
X017437Y002603D01*
X017367Y002638D01*
X017353Y002643D01*
X017492Y002700D01*
X017650Y002858D01*
X017735Y003064D01*
X017735Y003286D01*
X017650Y003492D01*
X017492Y003650D01*
X017286Y003735D01*
X017064Y003735D01*
X016858Y003650D01*
X016700Y003492D01*
X016615Y003286D01*
X016615Y003064D01*
X016519Y002957D02*
X015874Y002957D01*
X015726Y002809D02*
X016370Y002809D01*
X016222Y002660D02*
X015556Y002660D01*
X016073Y002512D02*
X013190Y002512D01*
X012675Y002175D02*
X016175Y002175D01*
X017175Y003175D01*
X017691Y002957D02*
X018380Y002957D01*
X018380Y002809D02*
X017600Y002809D01*
X017395Y002660D02*
X018380Y002660D01*
X018380Y002512D02*
X017546Y002512D01*
X017640Y002363D02*
X018380Y002363D01*
X018380Y002215D02*
X017675Y002215D01*
X017675Y002175D02*
X017175Y002175D01*
X017175Y002175D01*
X017675Y002175D01*
X017664Y002066D02*
X018380Y002066D01*
X018380Y001918D02*
X017605Y001918D01*
X017175Y002175D02*
X016675Y002175D01*
X017175Y002175D01*
X017175Y002175D01*
X016882Y001770D02*
X013126Y001770D01*
X013188Y001832D01*
X013201Y001865D01*
X016237Y001865D01*
X016351Y001912D01*
X016679Y002241D01*
X016675Y002214D01*
X016675Y002175D01*
X016675Y002136D01*
X016687Y002058D01*
X016712Y001983D01*
X016747Y001913D01*
X016794Y001849D01*
X016849Y001794D01*
X016882Y001770D01*
X016745Y001918D02*
X016356Y001918D01*
X016504Y002066D02*
X016686Y002066D01*
X016675Y002215D02*
X016653Y002215D01*
X016615Y003254D02*
X016171Y003254D01*
X016320Y003403D02*
X016663Y003403D01*
X016759Y003551D02*
X016443Y003551D01*
X016470Y003700D02*
X016978Y003700D01*
X017372Y003700D02*
X018380Y003700D01*
X018380Y003848D02*
X016470Y003848D01*
X016470Y003997D02*
X018380Y003997D01*
X018380Y004145D02*
X016470Y004145D01*
X016470Y004294D02*
X018405Y004294D01*
X018549Y004442D02*
X016470Y004442D01*
X016470Y004591D02*
X019235Y004591D01*
X019255Y004739D02*
X016470Y004739D01*
X016470Y004888D02*
X019139Y004888D01*
X019078Y005036D02*
X016470Y005036D01*
X016470Y005185D02*
X019070Y005185D01*
X019086Y005333D02*
X016470Y005333D01*
X016429Y005482D02*
X018951Y005482D01*
X018803Y005630D02*
X016287Y005630D01*
X016139Y005779D02*
X018654Y005779D01*
X018840Y007235D02*
X018661Y007414D01*
X018523Y007746D01*
X018523Y008104D01*
X018661Y008436D01*
X018914Y008689D01*
X019246Y008827D01*
X019604Y008827D01*
X019936Y008689D01*
X020189Y008436D01*
X020327Y008104D01*
X020327Y007746D01*
X020189Y007414D01*
X020010Y007235D01*
X020403Y007235D01*
X020403Y018925D01*
X020391Y019118D01*
X020291Y019491D01*
X020098Y019825D01*
X019825Y020098D01*
X019491Y020291D01*
X019118Y020391D01*
X018925Y020403D01*
X018871Y020403D01*
X011720Y020403D01*
X011720Y020208D01*
X011768Y020188D01*
X011925Y020031D01*
X012082Y020188D01*
X012305Y020280D01*
X012545Y020280D01*
X012768Y020188D01*
X012925Y020031D01*
X013082Y020188D01*
X013305Y020280D01*
X013545Y020280D01*
X013768Y020188D01*
X013925Y020031D01*
X014082Y020188D01*
X014305Y020280D01*
X014545Y020280D01*
X014768Y020188D01*
X014938Y020018D01*
X014961Y019963D01*
X015009Y020030D01*
X015070Y020091D01*
X015139Y020141D01*
X015216Y020180D01*
X015297Y020207D01*
X015382Y020220D01*
X015400Y020220D01*
X015400Y019700D01*
X015450Y019700D01*
X015450Y020220D01*
X015468Y020220D01*
X015553Y020207D01*
X015634Y020180D01*
X015711Y020141D01*
X015780Y020091D01*
X015841Y020030D01*
X015889Y019963D01*
X015912Y020018D01*
X016082Y020188D01*
X016305Y020280D01*
X016545Y020280D01*
X016768Y020188D01*
X016938Y020018D01*
X017030Y019795D01*
X017030Y019555D01*
X016938Y019332D01*
X016768Y019162D01*
X016720Y019142D01*
X016720Y018547D01*
X017842Y017425D01*
X017925Y017342D01*
X017970Y017234D01*
X017970Y010366D01*
X017925Y010258D01*
X017842Y010175D01*
X017734Y010130D01*
X017458Y010130D01*
X017438Y010082D01*
X017281Y009925D01*
X017438Y009768D01*
X017530Y009545D01*
X017530Y009305D01*
X017438Y009082D01*
X017386Y009030D01*
X017392Y009030D01*
X017530Y008892D01*
X017530Y007958D01*
X017392Y007820D01*
X016458Y007820D01*
X016320Y007958D01*
X016320Y008464D01*
X016268Y008412D01*
X016045Y008320D01*
X015805Y008320D01*
X015657Y008381D01*
X016803Y007235D01*
X018840Y007235D01*
X018811Y007264D02*
X016775Y007264D01*
X016626Y007412D02*
X018663Y007412D01*
X018600Y007561D02*
X016478Y007561D01*
X016329Y007709D02*
X018538Y007709D01*
X018523Y007858D02*
X017430Y007858D01*
X017530Y008006D02*
X018523Y008006D01*
X018544Y008155D02*
X017530Y008155D01*
X017530Y008303D02*
X018606Y008303D01*
X018676Y008452D02*
X017530Y008452D01*
X017530Y008600D02*
X018825Y008600D01*
X019057Y008749D02*
X017530Y008749D01*
X017525Y008897D02*
X020403Y008897D01*
X020403Y008749D02*
X019793Y008749D01*
X020025Y008600D02*
X020403Y008600D01*
X020403Y008452D02*
X020174Y008452D01*
X020244Y008303D02*
X020403Y008303D01*
X020403Y008155D02*
X020306Y008155D01*
X020327Y008006D02*
X020403Y008006D01*
X020403Y007858D02*
X020327Y007858D01*
X020312Y007709D02*
X020403Y007709D01*
X020403Y007561D02*
X020250Y007561D01*
X020187Y007412D02*
X020403Y007412D01*
X020403Y007264D02*
X020039Y007264D01*
X020375Y006925D02*
X020375Y003175D01*
X019675Y003175D01*
X019114Y003403D02*
X018970Y003403D01*
X019070Y003295D02*
X019162Y003518D01*
X019319Y003675D01*
X019162Y003832D01*
X019142Y003880D01*
X018970Y003880D01*
X018970Y001447D01*
X020175Y001447D01*
X020220Y001451D01*
X020302Y001485D01*
X020365Y001548D01*
X020399Y001630D01*
X020403Y001675D01*
X020403Y002865D01*
X020201Y002865D01*
X020188Y002832D01*
X020018Y002662D01*
X019963Y002639D01*
X020030Y002591D01*
X020091Y002530D01*
X020141Y002461D01*
X020180Y002384D01*
X020207Y002303D01*
X020220Y002218D01*
X020220Y002200D01*
X019700Y002200D01*
X019700Y002570D01*
X019650Y002570D01*
X019650Y002200D01*
X019700Y002200D01*
X019700Y002150D01*
X020220Y002150D01*
X020220Y002132D01*
X020207Y002047D01*
X020180Y001966D01*
X020141Y001889D01*
X020091Y001820D01*
X020030Y001759D01*
X019961Y001709D01*
X019884Y001670D01*
X019803Y001643D01*
X019718Y001630D01*
X019700Y001630D01*
X019700Y002150D01*
X019650Y002150D01*
X019650Y001630D01*
X019632Y001630D01*
X019547Y001643D01*
X019466Y001670D01*
X019389Y001709D01*
X019320Y001759D01*
X019259Y001820D01*
X019209Y001889D01*
X019170Y001966D01*
X019143Y002047D01*
X019130Y002132D01*
X019130Y002150D01*
X019650Y002150D01*
X019650Y002200D01*
X019130Y002200D01*
X019130Y002218D01*
X019143Y002303D01*
X019170Y002384D01*
X019209Y002461D01*
X019259Y002530D01*
X019320Y002591D01*
X019387Y002639D01*
X019332Y002662D01*
X019162Y002832D01*
X019070Y003055D01*
X019070Y003295D01*
X019070Y003254D02*
X018970Y003254D01*
X018970Y003106D02*
X019070Y003106D01*
X019110Y002957D02*
X018970Y002957D01*
X018970Y002809D02*
X019186Y002809D01*
X019337Y002660D02*
X018970Y002660D01*
X018970Y002512D02*
X019246Y002512D01*
X019163Y002363D02*
X018970Y002363D01*
X018970Y002215D02*
X019130Y002215D01*
X019140Y002066D02*
X018970Y002066D01*
X018970Y001918D02*
X019195Y001918D01*
X019310Y001769D02*
X018970Y001769D01*
X018970Y001621D02*
X020395Y001621D01*
X020403Y001769D02*
X020040Y001769D01*
X020155Y001918D02*
X020403Y001918D01*
X020403Y002066D02*
X020210Y002066D01*
X020220Y002215D02*
X020403Y002215D01*
X020403Y002363D02*
X020187Y002363D01*
X020104Y002512D02*
X020403Y002512D01*
X020403Y002660D02*
X020013Y002660D01*
X020164Y002809D02*
X020403Y002809D01*
X019700Y002512D02*
X019650Y002512D01*
X019650Y002363D02*
X019700Y002363D01*
X019700Y002215D02*
X019650Y002215D01*
X019650Y002066D02*
X019700Y002066D01*
X019700Y001918D02*
X019650Y001918D01*
X019650Y001769D02*
X019700Y001769D01*
X020270Y001472D02*
X018970Y001472D01*
X018380Y003106D02*
X017735Y003106D01*
X017735Y003254D02*
X018380Y003254D01*
X018380Y003403D02*
X017687Y003403D01*
X017591Y003551D02*
X018380Y003551D01*
X018970Y003551D02*
X019195Y003551D01*
X019295Y003700D02*
X018970Y003700D01*
X018970Y003848D02*
X019156Y003848D01*
X016256Y005927D02*
X015990Y005927D01*
X016107Y006076D02*
X015842Y006076D01*
X015830Y006224D02*
X015959Y006224D01*
X016675Y006925D02*
X015275Y008325D01*
X015275Y010925D01*
X015275Y014175D01*
X016275Y015175D01*
X016659Y015431D02*
X016880Y015431D01*
X016880Y015283D02*
X016721Y015283D01*
X016728Y015265D02*
X016659Y015432D01*
X016532Y015559D01*
X016365Y015628D01*
X016185Y015628D01*
X016018Y015559D01*
X015891Y015432D01*
X015822Y015265D01*
X015822Y015160D01*
X015220Y014558D01*
X015220Y016984D01*
X015175Y017092D01*
X015092Y017175D01*
X014725Y017542D01*
X014642Y017625D01*
X014534Y017670D01*
X011810Y017670D01*
X011878Y017835D01*
X011878Y017961D01*
X012675Y018758D01*
X012720Y018866D01*
X012720Y019142D01*
X012768Y019162D01*
X012925Y019319D01*
X013082Y019162D01*
X013305Y019070D01*
X013545Y019070D01*
X013768Y019162D01*
X013925Y019319D01*
X014082Y019162D01*
X014130Y019142D01*
X014130Y018866D01*
X014175Y018758D01*
X016880Y016053D01*
X016880Y014521D01*
X016791Y014432D01*
X016722Y014265D01*
X016722Y014085D01*
X016791Y013918D01*
X016880Y013829D01*
X016880Y012030D01*
X016805Y012030D01*
X016582Y011938D01*
X016530Y011886D01*
X016530Y012045D01*
X016438Y012268D01*
X016268Y012438D01*
X016235Y012451D01*
X016235Y013722D01*
X016265Y013722D01*
X016432Y013791D01*
X016559Y013918D01*
X016628Y014085D01*
X016628Y014265D01*
X016559Y014432D01*
X016432Y014559D01*
X016265Y014628D01*
X016167Y014628D01*
X016260Y014722D01*
X016365Y014722D01*
X016532Y014791D01*
X016659Y014918D01*
X016728Y015085D01*
X016728Y015265D01*
X016728Y015134D02*
X016880Y015134D01*
X016880Y014986D02*
X016687Y014986D01*
X016578Y014837D02*
X016880Y014837D01*
X016880Y014689D02*
X016227Y014689D01*
X016451Y014540D02*
X016880Y014540D01*
X016774Y014392D02*
X016576Y014392D01*
X016628Y014243D02*
X016722Y014243D01*
X016722Y014095D02*
X016628Y014095D01*
X016571Y013946D02*
X016779Y013946D01*
X016880Y013798D02*
X016438Y013798D01*
X016235Y013649D02*
X016880Y013649D01*
X016880Y013501D02*
X016235Y013501D01*
X016235Y013352D02*
X016880Y013352D01*
X016880Y013204D02*
X016235Y013204D01*
X016235Y013055D02*
X016880Y013055D01*
X016880Y012907D02*
X016235Y012907D01*
X016235Y012758D02*
X016880Y012758D01*
X016880Y012610D02*
X016235Y012610D01*
X016235Y012461D02*
X016880Y012461D01*
X016880Y012313D02*
X016393Y012313D01*
X016481Y012164D02*
X016880Y012164D01*
X016770Y012016D02*
X016530Y012016D01*
X015925Y011925D02*
X015925Y013925D01*
X016175Y014175D01*
X015499Y014837D02*
X015220Y014837D01*
X015220Y014689D02*
X015350Y014689D01*
X015220Y014986D02*
X015647Y014986D01*
X015796Y015134D02*
X015220Y015134D01*
X015220Y015283D02*
X015829Y015283D01*
X015891Y015431D02*
X015220Y015431D01*
X015220Y015580D02*
X016068Y015580D01*
X016482Y015580D02*
X016880Y015580D01*
X016880Y015728D02*
X015220Y015728D01*
X015220Y015877D02*
X016880Y015877D01*
X016880Y016025D02*
X015220Y016025D01*
X015220Y016174D02*
X016759Y016174D01*
X016611Y016322D02*
X015220Y016322D01*
X015220Y016471D02*
X016462Y016471D01*
X016314Y016619D02*
X015220Y016619D01*
X015220Y016768D02*
X016165Y016768D01*
X016017Y016916D02*
X015220Y016916D01*
X015187Y017065D02*
X015868Y017065D01*
X015720Y017213D02*
X015054Y017213D01*
X014906Y017362D02*
X015571Y017362D01*
X015423Y017510D02*
X014757Y017510D01*
X014561Y017659D02*
X015274Y017659D01*
X015126Y017807D02*
X011867Y017807D01*
X011878Y017956D02*
X014977Y017956D01*
X014829Y018104D02*
X012021Y018104D01*
X012170Y018253D02*
X014680Y018253D01*
X014532Y018401D02*
X012318Y018401D01*
X012467Y018550D02*
X014383Y018550D01*
X014235Y018698D02*
X012615Y018698D01*
X012712Y018847D02*
X014138Y018847D01*
X014130Y018995D02*
X012720Y018995D01*
X012723Y019144D02*
X013127Y019144D01*
X012952Y019292D02*
X012898Y019292D01*
X012921Y020035D02*
X012929Y020035D01*
X013077Y020183D02*
X012773Y020183D01*
X012077Y020183D02*
X011773Y020183D01*
X011720Y020332D02*
X019338Y020332D01*
X019342Y020183D02*
X019677Y020183D01*
X019607Y020063D02*
X019492Y020124D01*
X019372Y020174D01*
X019247Y020212D01*
X019120Y020237D01*
X019000Y020249D01*
X019000Y019000D01*
X020249Y019000D01*
X020237Y019120D01*
X020212Y019247D01*
X020174Y019372D01*
X020124Y019492D01*
X020063Y019607D01*
X019991Y019715D01*
X019908Y019816D01*
X019816Y019908D01*
X019715Y019991D01*
X019607Y020063D01*
X019649Y020035D02*
X019888Y020035D01*
X019838Y019886D02*
X020037Y019886D01*
X019972Y019738D02*
X020148Y019738D01*
X020072Y019589D02*
X020234Y019589D01*
X020304Y019441D02*
X020146Y019441D01*
X020198Y019292D02*
X020344Y019292D01*
X020384Y019144D02*
X020232Y019144D01*
X020399Y018995D02*
X019000Y018995D01*
X019000Y019000D02*
X019000Y018850D01*
X020249Y018850D01*
X020237Y018730D01*
X020212Y018603D01*
X020174Y018478D01*
X020124Y018358D01*
X020063Y018243D01*
X019991Y018135D01*
X019908Y018034D01*
X019816Y017942D01*
X019715Y017859D01*
X019607Y017787D01*
X019492Y017726D01*
X019372Y017676D01*
X019247Y017638D01*
X019120Y017613D01*
X019000Y017601D01*
X019000Y018850D01*
X018850Y018850D01*
X018850Y017601D01*
X018730Y017613D01*
X018603Y017638D01*
X018478Y017676D01*
X018358Y017726D01*
X018243Y017787D01*
X018135Y017859D01*
X018034Y017942D01*
X017942Y018034D01*
X017859Y018135D01*
X017787Y018243D01*
X017726Y018358D01*
X017676Y018478D01*
X017638Y018603D01*
X017613Y018730D01*
X017601Y018850D01*
X018850Y018850D01*
X018850Y019000D01*
X018850Y020249D01*
X018730Y020237D01*
X018603Y020212D01*
X018478Y020174D01*
X018358Y020124D01*
X018243Y020063D01*
X018135Y019991D01*
X018034Y019908D01*
X017942Y019816D01*
X017859Y019715D01*
X017787Y019607D01*
X017726Y019492D01*
X017676Y019372D01*
X017638Y019247D01*
X017613Y019120D01*
X017601Y019000D01*
X018850Y019000D01*
X019000Y019000D01*
X018925Y018925D02*
X018975Y018875D01*
X018975Y017375D01*
X019675Y016675D01*
X019675Y015175D01*
X020375Y014475D01*
X020375Y010875D01*
X019675Y010175D01*
X020403Y010234D02*
X017901Y010234D01*
X017970Y010382D02*
X020403Y010382D01*
X020403Y010531D02*
X017970Y010531D01*
X017970Y010679D02*
X020403Y010679D01*
X020403Y010828D02*
X017970Y010828D01*
X017970Y010976D02*
X020403Y010976D01*
X020403Y011125D02*
X017970Y011125D01*
X017970Y011273D02*
X020403Y011273D01*
X020403Y011422D02*
X017970Y011422D01*
X017970Y011570D02*
X019133Y011570D01*
X019246Y011523D02*
X019604Y011523D01*
X019936Y011661D01*
X020189Y011914D01*
X020327Y012246D01*
X020327Y012604D01*
X020189Y012936D01*
X019936Y013189D01*
X019604Y013327D01*
X019246Y013327D01*
X018914Y013189D01*
X018661Y012936D01*
X018523Y012604D01*
X018523Y012246D01*
X018661Y011914D01*
X018914Y011661D01*
X019246Y011523D01*
X018856Y011719D02*
X017970Y011719D01*
X017970Y011867D02*
X018708Y011867D01*
X018619Y012016D02*
X017970Y012016D01*
X017970Y012164D02*
X018557Y012164D01*
X018523Y012313D02*
X017970Y012313D01*
X017970Y012461D02*
X018523Y012461D01*
X018525Y012610D02*
X017970Y012610D01*
X017970Y012758D02*
X018587Y012758D01*
X018648Y012907D02*
X017970Y012907D01*
X017970Y013055D02*
X018780Y013055D01*
X018948Y013204D02*
X017970Y013204D01*
X017970Y013352D02*
X020403Y013352D01*
X020403Y013204D02*
X019902Y013204D01*
X020070Y013055D02*
X020403Y013055D01*
X020403Y012907D02*
X020202Y012907D01*
X020263Y012758D02*
X020403Y012758D01*
X020403Y012610D02*
X020325Y012610D01*
X020327Y012461D02*
X020403Y012461D01*
X020403Y012313D02*
X020327Y012313D01*
X020293Y012164D02*
X020403Y012164D01*
X020403Y012016D02*
X020231Y012016D01*
X020142Y011867D02*
X020403Y011867D01*
X020403Y011719D02*
X019994Y011719D01*
X019717Y011570D02*
X020403Y011570D01*
X020403Y010085D02*
X017439Y010085D01*
X017292Y009937D02*
X020403Y009937D01*
X020403Y009788D02*
X017418Y009788D01*
X017491Y009640D02*
X020403Y009640D01*
X020403Y009491D02*
X017530Y009491D01*
X017530Y009343D02*
X020403Y009343D01*
X020403Y009194D02*
X017484Y009194D01*
X017401Y009046D02*
X020403Y009046D01*
X020375Y006925D02*
X016675Y006925D01*
X016420Y007858D02*
X016181Y007858D01*
X016320Y008006D02*
X016032Y008006D01*
X015884Y008155D02*
X016320Y008155D01*
X016320Y008303D02*
X015735Y008303D01*
X016307Y008452D02*
X016320Y008452D01*
X016459Y009815D02*
X016470Y009882D01*
X016470Y009902D01*
X015948Y009902D01*
X015948Y009948D01*
X016470Y009948D01*
X016470Y009968D01*
X016459Y010035D01*
X016569Y009925D01*
X016459Y009815D01*
X016558Y009937D02*
X015948Y009937D01*
X015925Y010925D02*
X015275Y010925D01*
X014380Y010976D02*
X014335Y010976D01*
X014335Y010828D02*
X014380Y010828D01*
X014380Y010679D02*
X014335Y010679D01*
X014335Y010531D02*
X014380Y010531D01*
X014380Y010382D02*
X014335Y010382D01*
X014335Y010234D02*
X014380Y010234D01*
X014380Y010085D02*
X014335Y010085D01*
X014335Y009937D02*
X014380Y009937D01*
X014380Y009788D02*
X014335Y009788D01*
X014335Y009640D02*
X014380Y009640D01*
X014380Y009491D02*
X014335Y009491D01*
X014335Y009343D02*
X014380Y009343D01*
X014380Y009194D02*
X014335Y009194D01*
X014335Y009046D02*
X014380Y009046D01*
X014380Y008897D02*
X014335Y008897D01*
X014335Y008749D02*
X014380Y008749D01*
X014380Y008600D02*
X014335Y008600D01*
X014335Y008452D02*
X014380Y008452D01*
X014380Y008303D02*
X014335Y008303D01*
X014335Y008155D02*
X014380Y008155D01*
X014380Y008006D02*
X014335Y008006D01*
X014335Y007858D02*
X014384Y007858D01*
X014335Y007709D02*
X014474Y007709D01*
X014335Y007561D02*
X014622Y007561D01*
X014771Y007412D02*
X014314Y007412D01*
X014202Y007264D02*
X014919Y007264D01*
X015068Y007115D02*
X014053Y007115D01*
X013905Y006967D02*
X015216Y006967D01*
X014955Y006818D02*
X013756Y006818D01*
X013608Y006670D02*
X014764Y006670D01*
X014672Y006521D02*
X013459Y006521D01*
X013311Y006373D02*
X014337Y006373D01*
X014613Y006373D02*
X014620Y006373D01*
X014068Y006224D02*
X013280Y006224D01*
X013280Y006076D02*
X013945Y006076D01*
X013028Y006967D02*
X010460Y006967D01*
X010460Y006818D02*
X012880Y006818D01*
X013177Y007115D02*
X011030Y007115D01*
X010460Y006670D02*
X012314Y006670D01*
X012165Y006521D02*
X010460Y006521D01*
X010460Y006373D02*
X012102Y006373D01*
X012070Y006224D02*
X010460Y006224D01*
X010442Y006076D02*
X012070Y006076D01*
X012123Y005927D02*
X010321Y005927D01*
X008314Y006670D02*
X008036Y006670D01*
X007314Y006670D02*
X007036Y006670D01*
X006990Y007412D02*
X006360Y007412D01*
X006581Y007561D02*
X006769Y007561D01*
X007134Y005779D02*
X007216Y005779D01*
X007410Y005630D02*
X006940Y005630D01*
X006175Y005175D02*
X006175Y003175D01*
X008846Y009046D02*
X008947Y009046D01*
X009403Y009046D02*
X009447Y009046D01*
X009903Y009046D02*
X009947Y009046D01*
X010403Y009046D02*
X010447Y009046D01*
X010705Y009675D02*
X010675Y009705D01*
X010705Y009675D02*
X011425Y009675D01*
X011043Y010085D02*
X011030Y010085D01*
X010175Y009705D02*
X010175Y011175D01*
X011925Y012925D01*
X011560Y013352D02*
X009935Y013352D01*
X009970Y013501D02*
X011659Y013501D01*
X011507Y013649D02*
X009970Y013649D01*
X009675Y013895D02*
X009675Y013895D01*
X009675Y014480D01*
X009675Y014480D01*
X009675Y014392D02*
X009675Y014392D01*
X009675Y014243D02*
X009675Y014243D01*
X009675Y014095D02*
X009675Y014095D01*
X009675Y013946D02*
X009675Y013946D01*
X009675Y013895D02*
X009675Y013895D01*
X010038Y013204D02*
X010415Y013204D01*
X010260Y013055D02*
X010165Y013055D01*
X010675Y013055D02*
X010675Y013055D01*
X010675Y012907D02*
X010675Y012907D01*
X010675Y013204D02*
X010675Y013204D01*
X010935Y013204D02*
X011434Y013204D01*
X011373Y013055D02*
X011090Y013055D01*
X011158Y012907D02*
X011365Y012907D01*
X011320Y012758D02*
X011175Y012758D01*
X011171Y012610D02*
X011147Y012610D01*
X010874Y012313D02*
X010869Y012313D01*
X010481Y012313D02*
X010004Y012313D01*
X010151Y012461D02*
X010285Y012461D01*
X009346Y012313D02*
X009220Y012313D01*
X009220Y011570D02*
X009492Y011570D01*
X009306Y011422D02*
X009220Y011422D01*
X009220Y011273D02*
X009245Y011273D01*
X009240Y011125D02*
X009220Y011125D01*
X009220Y010976D02*
X009287Y010976D01*
X009365Y010828D02*
X009204Y010828D01*
X009096Y010679D02*
X009365Y010679D01*
X009365Y010531D02*
X008948Y010531D01*
X008799Y010382D02*
X009365Y010382D01*
X008820Y010234D02*
X008651Y010234D01*
X008807Y010085D02*
X008820Y010085D01*
X008175Y011175D02*
X008175Y012675D01*
X011454Y012016D02*
X013715Y012016D01*
X013715Y012164D02*
X011602Y012164D01*
X011751Y012313D02*
X013599Y012313D01*
X014030Y012758D02*
X014380Y012758D01*
X014380Y012610D02*
X014179Y012610D01*
X014304Y012461D02*
X014380Y012461D01*
X014380Y012313D02*
X014335Y012313D01*
X014335Y012164D02*
X014380Y012164D01*
X014380Y012016D02*
X014335Y012016D01*
X014335Y011867D02*
X014380Y011867D01*
X014380Y011719D02*
X014335Y011719D01*
X014335Y011570D02*
X014380Y011570D01*
X014380Y011422D02*
X014335Y011422D01*
X014335Y011273D02*
X014380Y011273D01*
X014380Y011125D02*
X014335Y011125D01*
X013715Y011273D02*
X013711Y011273D01*
X013715Y011422D02*
X013661Y011422D01*
X013715Y011570D02*
X013551Y011570D01*
X013123Y011719D02*
X012444Y011719D01*
X012636Y011570D02*
X012799Y011570D01*
X013985Y012907D02*
X014380Y012907D01*
X014380Y013055D02*
X013985Y013055D01*
X013985Y013204D02*
X014380Y013204D01*
X014380Y013352D02*
X013980Y013352D01*
X013691Y013501D02*
X014380Y013501D01*
X014380Y013649D02*
X013843Y013649D01*
X013909Y013798D02*
X014380Y013798D01*
X014380Y013946D02*
X013925Y013946D01*
X013896Y014095D02*
X014380Y014095D01*
X014380Y014243D02*
X013812Y014243D01*
X014171Y014689D02*
X014380Y014689D01*
X014380Y014837D02*
X014235Y014837D01*
X014235Y014986D02*
X014380Y014986D01*
X014380Y015134D02*
X014235Y015134D01*
X014235Y015283D02*
X014380Y015283D01*
X014380Y015431D02*
X014235Y015431D01*
X014235Y015580D02*
X014380Y015580D01*
X014380Y015728D02*
X014104Y015728D01*
X014076Y015877D02*
X014380Y015877D01*
X014380Y016025D02*
X014152Y016025D01*
X014175Y016174D02*
X014380Y016174D01*
X014380Y016322D02*
X014153Y016322D01*
X014078Y016471D02*
X014380Y016471D01*
X014314Y016619D02*
X013905Y016619D01*
X015515Y018253D02*
X016180Y018253D01*
X016175Y018258D02*
X017380Y017053D01*
X017380Y016387D01*
X017342Y016425D01*
X014720Y019047D01*
X014720Y019142D01*
X014768Y019162D01*
X014938Y019332D01*
X014961Y019387D01*
X015009Y019320D01*
X015070Y019259D01*
X015139Y019209D01*
X015216Y019170D01*
X015297Y019143D01*
X015297Y019144D02*
X014723Y019144D01*
X014772Y018995D02*
X016130Y018995D01*
X016130Y019142D02*
X016130Y018366D01*
X016175Y018258D01*
X016130Y018401D02*
X015366Y018401D01*
X015218Y018550D02*
X016130Y018550D01*
X016130Y018698D02*
X015069Y018698D01*
X014921Y018847D02*
X016130Y018847D01*
X016130Y019142D02*
X016082Y019162D01*
X015912Y019332D01*
X015889Y019387D01*
X015841Y019320D01*
X015780Y019259D01*
X015711Y019209D01*
X015634Y019170D01*
X015553Y019143D01*
X015553Y019144D02*
X016127Y019144D01*
X015952Y019292D02*
X015813Y019292D01*
X015553Y019143D02*
X015468Y019130D01*
X015450Y019130D01*
X015450Y019650D01*
X015400Y019650D01*
X015400Y019130D01*
X015382Y019130D01*
X015297Y019143D01*
X015400Y019144D02*
X015450Y019144D01*
X015450Y019292D02*
X015400Y019292D01*
X015400Y019441D02*
X015450Y019441D01*
X015450Y019589D02*
X015400Y019589D01*
X015400Y019738D02*
X015450Y019738D01*
X015450Y019886D02*
X015400Y019886D01*
X015400Y020035D02*
X015450Y020035D01*
X015450Y020183D02*
X015400Y020183D01*
X015225Y020183D02*
X014773Y020183D01*
X014921Y020035D02*
X015014Y020035D01*
X015625Y020183D02*
X016077Y020183D01*
X015929Y020035D02*
X015836Y020035D01*
X015037Y019292D02*
X014898Y019292D01*
X014127Y019144D02*
X013723Y019144D01*
X013898Y019292D02*
X013952Y019292D01*
X013921Y020035D02*
X013929Y020035D01*
X014077Y020183D02*
X013773Y020183D01*
X011929Y020035D02*
X011921Y020035D01*
X015663Y018104D02*
X016329Y018104D01*
X016477Y017956D02*
X015812Y017956D01*
X015960Y017807D02*
X016626Y017807D01*
X016774Y017659D02*
X016109Y017659D01*
X016257Y017510D02*
X016923Y017510D01*
X017071Y017362D02*
X016406Y017362D01*
X016554Y017213D02*
X017220Y017213D01*
X017368Y017065D02*
X016703Y017065D01*
X016851Y016916D02*
X017380Y016916D01*
X017380Y016768D02*
X017000Y016768D01*
X017148Y016619D02*
X017380Y016619D01*
X017380Y016471D02*
X017297Y016471D01*
X017970Y016471D02*
X020403Y016471D01*
X020403Y016619D02*
X017970Y016619D01*
X017970Y016768D02*
X020403Y016768D01*
X020403Y016916D02*
X017970Y016916D01*
X017970Y017065D02*
X020403Y017065D01*
X020403Y017213D02*
X017970Y017213D01*
X017906Y017362D02*
X020403Y017362D01*
X020403Y017510D02*
X017757Y017510D01*
X017609Y017659D02*
X018536Y017659D01*
X018213Y017807D02*
X017460Y017807D01*
X017312Y017956D02*
X018021Y017956D01*
X017885Y018104D02*
X017163Y018104D01*
X017015Y018253D02*
X017782Y018253D01*
X017708Y018401D02*
X016866Y018401D01*
X016720Y018550D02*
X017654Y018550D01*
X017619Y018698D02*
X016720Y018698D01*
X016720Y018847D02*
X017601Y018847D01*
X017618Y019144D02*
X016723Y019144D01*
X016720Y018995D02*
X018850Y018995D01*
X018850Y018847D02*
X019000Y018847D01*
X019000Y018698D02*
X018850Y018698D01*
X018850Y018550D02*
X019000Y018550D01*
X019000Y018401D02*
X018850Y018401D01*
X018850Y018253D02*
X019000Y018253D01*
X019000Y018104D02*
X018850Y018104D01*
X018850Y017956D02*
X019000Y017956D01*
X019000Y017807D02*
X018850Y017807D01*
X018850Y017659D02*
X019000Y017659D01*
X019314Y017659D02*
X020403Y017659D01*
X020403Y017807D02*
X019637Y017807D01*
X019829Y017956D02*
X020403Y017956D01*
X020403Y018104D02*
X019965Y018104D01*
X020068Y018253D02*
X020403Y018253D01*
X020403Y018401D02*
X020142Y018401D01*
X020196Y018550D02*
X020403Y018550D01*
X020403Y018698D02*
X020231Y018698D01*
X020249Y018847D02*
X020403Y018847D01*
X019000Y019144D02*
X018850Y019144D01*
X018850Y019292D02*
X019000Y019292D01*
X019000Y019441D02*
X018850Y019441D01*
X018850Y019589D02*
X019000Y019589D01*
X019000Y019738D02*
X018850Y019738D01*
X018850Y019886D02*
X019000Y019886D01*
X019000Y020035D02*
X018850Y020035D01*
X018850Y020183D02*
X019000Y020183D01*
X018508Y020183D02*
X016773Y020183D01*
X016921Y020035D02*
X018201Y020035D01*
X018012Y019886D02*
X016992Y019886D01*
X017030Y019738D02*
X017878Y019738D01*
X017778Y019589D02*
X017030Y019589D01*
X016983Y019441D02*
X017704Y019441D01*
X017652Y019292D02*
X016898Y019292D01*
X017970Y016322D02*
X020403Y016322D01*
X020403Y016174D02*
X017970Y016174D01*
X017970Y016025D02*
X020403Y016025D01*
X020403Y015877D02*
X017970Y015877D01*
X017970Y015728D02*
X020403Y015728D01*
X020403Y015580D02*
X017970Y015580D01*
X017970Y015431D02*
X020403Y015431D01*
X020403Y015283D02*
X017970Y015283D01*
X017970Y015134D02*
X020403Y015134D01*
X020403Y014986D02*
X017970Y014986D01*
X017970Y014837D02*
X020403Y014837D01*
X020403Y014689D02*
X017970Y014689D01*
X017970Y014540D02*
X020403Y014540D01*
X020403Y014392D02*
X017970Y014392D01*
X017970Y014243D02*
X020403Y014243D01*
X020403Y014095D02*
X017970Y014095D01*
X017970Y013946D02*
X020403Y013946D01*
X020403Y013798D02*
X017970Y013798D01*
X017970Y013649D02*
X020403Y013649D01*
X020403Y013501D02*
X017970Y013501D01*
X015880Y005185D02*
X015762Y005185D01*
X015715Y005036D02*
X015880Y005036D01*
X015880Y004888D02*
X015608Y004888D01*
X003553Y017470D02*
X001616Y017470D01*
X001508Y017425D01*
X001447Y017364D01*
X001447Y018925D01*
X001459Y019118D01*
X001559Y019491D01*
X001752Y019825D01*
X002025Y020098D01*
X002359Y020291D01*
X002732Y020391D01*
X002925Y020403D01*
X004380Y020403D01*
X004380Y018297D01*
X003553Y017470D01*
X003593Y017510D02*
X001447Y017510D01*
X001447Y017659D02*
X002536Y017659D01*
X002478Y017676D02*
X002603Y017638D01*
X002730Y017613D01*
X002850Y017601D01*
X002850Y018850D01*
X003000Y018850D01*
X003000Y019000D01*
X004249Y019000D01*
X004237Y019120D01*
X004212Y019247D01*
X004174Y019372D01*
X004124Y019492D01*
X004063Y019607D01*
X003991Y019715D01*
X003908Y019816D01*
X003816Y019908D01*
X003715Y019991D01*
X003607Y020063D01*
X003492Y020124D01*
X003372Y020174D01*
X003247Y020212D01*
X003120Y020237D01*
X003000Y020249D01*
X003000Y019000D01*
X002850Y019000D01*
X002850Y020249D01*
X002730Y020237D01*
X002603Y020212D01*
X002478Y020174D01*
X002358Y020124D01*
X002243Y020063D01*
X002135Y019991D01*
X002034Y019908D01*
X001942Y019816D01*
X001859Y019715D01*
X001787Y019607D01*
X001726Y019492D01*
X001676Y019372D01*
X001638Y019247D01*
X001613Y019120D01*
X001601Y019000D01*
X002850Y019000D01*
X002850Y018850D01*
X001601Y018850D01*
X001613Y018730D01*
X001638Y018603D01*
X001676Y018478D01*
X001726Y018358D01*
X001787Y018243D01*
X001859Y018135D01*
X001942Y018034D01*
X002034Y017942D01*
X002135Y017859D01*
X002243Y017787D01*
X002358Y017726D01*
X002478Y017676D01*
X002213Y017807D02*
X001447Y017807D01*
X001447Y017956D02*
X002021Y017956D01*
X001885Y018104D02*
X001447Y018104D01*
X001447Y018253D02*
X001782Y018253D01*
X001708Y018401D02*
X001447Y018401D01*
X001447Y018550D02*
X001654Y018550D01*
X001619Y018698D02*
X001447Y018698D01*
X001447Y018847D02*
X001601Y018847D01*
X001451Y018995D02*
X002850Y018995D01*
X002850Y018847D02*
X003000Y018847D01*
X003000Y018850D02*
X003000Y017601D01*
X003120Y017613D01*
X003247Y017638D01*
X003372Y017676D01*
X003492Y017726D01*
X003607Y017787D01*
X003715Y017859D01*
X003816Y017942D01*
X003908Y018034D01*
X003991Y018135D01*
X004063Y018243D01*
X004124Y018358D01*
X004174Y018478D01*
X004212Y018603D01*
X004237Y018730D01*
X004249Y018850D01*
X003000Y018850D01*
X003000Y018995D02*
X004380Y018995D01*
X004380Y018847D02*
X004249Y018847D01*
X004231Y018698D02*
X004380Y018698D01*
X004380Y018550D02*
X004196Y018550D01*
X004142Y018401D02*
X004380Y018401D01*
X004335Y018253D02*
X004068Y018253D01*
X003965Y018104D02*
X004187Y018104D01*
X004038Y017956D02*
X003829Y017956D01*
X003890Y017807D02*
X003637Y017807D01*
X003741Y017659D02*
X003314Y017659D01*
X003000Y017659D02*
X002850Y017659D01*
X002850Y017807D02*
X003000Y017807D01*
X003000Y017956D02*
X002850Y017956D01*
X002850Y018104D02*
X003000Y018104D01*
X003000Y018253D02*
X002850Y018253D01*
X002850Y018401D02*
X003000Y018401D01*
X003000Y018550D02*
X002850Y018550D01*
X002850Y018698D02*
X003000Y018698D01*
X003000Y019144D02*
X002850Y019144D01*
X002850Y019292D02*
X003000Y019292D01*
X003000Y019441D02*
X002850Y019441D01*
X002850Y019589D02*
X003000Y019589D01*
X003000Y019738D02*
X002850Y019738D01*
X002850Y019886D02*
X003000Y019886D01*
X003000Y020035D02*
X002850Y020035D01*
X002850Y020183D02*
X003000Y020183D01*
X003342Y020183D02*
X004380Y020183D01*
X004380Y020035D02*
X003649Y020035D01*
X003838Y019886D02*
X004380Y019886D01*
X004380Y019738D02*
X003972Y019738D01*
X004072Y019589D02*
X004380Y019589D01*
X004380Y019441D02*
X004146Y019441D01*
X004198Y019292D02*
X004380Y019292D01*
X004380Y019144D02*
X004232Y019144D01*
X004380Y020332D02*
X002512Y020332D01*
X002508Y020183D02*
X002173Y020183D01*
X002201Y020035D02*
X001962Y020035D01*
X002012Y019886D02*
X001813Y019886D01*
X001878Y019738D02*
X001702Y019738D01*
X001778Y019589D02*
X001616Y019589D01*
X001546Y019441D02*
X001704Y019441D01*
X001652Y019292D02*
X001506Y019292D01*
X001466Y019144D02*
X001618Y019144D01*
D19*
X004875Y014675D03*
X004675Y013925D03*
X007275Y011175D03*
X006175Y005175D03*
X006175Y003175D03*
X016175Y014175D03*
X017175Y014175D03*
X016275Y015175D03*
X014425Y017925D03*
X011425Y017925D03*
X008925Y018175D03*
X007925Y018425D03*
X019675Y016675D03*
X019675Y015175D03*
X019675Y010175D03*
D20*
X009675Y011175D03*
D21*
X008925Y010925D02*
X008925Y012925D01*
X009175Y013175D01*
X009175Y013895D01*
X009175Y014775D01*
X010925Y014775D01*
X010925Y015675D01*
X010175Y015075D02*
X010175Y016925D01*
X014425Y016925D01*
X014675Y016675D01*
X014675Y007925D01*
X016425Y006175D01*
X018675Y006175D01*
X019675Y005175D01*
X019675Y004175D02*
X018675Y004175D01*
X018675Y001475D01*
X005875Y001475D01*
X004925Y002425D01*
X004925Y003675D01*
X003925Y004675D01*
X001675Y004675D01*
X001675Y010425D01*
X002675Y010425D01*
X001675Y010425D02*
X001675Y017175D01*
X003675Y017175D01*
X004675Y018175D01*
X004675Y020375D01*
X011425Y020375D01*
X011425Y019675D01*
X012425Y019675D02*
X012425Y018925D01*
X011425Y017925D01*
X009675Y017375D02*
X009675Y015955D01*
X009175Y015955D02*
X009175Y016425D01*
X009425Y016675D01*
X009425Y018675D01*
X008425Y018675D01*
X007425Y019675D01*
X008425Y019675D02*
X008425Y019175D01*
X008675Y018925D01*
X009675Y018925D01*
X009675Y017375D01*
X014475Y017375D01*
X014925Y016925D01*
X014925Y008175D01*
X016675Y006425D01*
X019425Y006425D01*
X019675Y006175D01*
X016175Y005325D02*
X016175Y003675D01*
X015425Y002925D01*
X009425Y002925D01*
X008675Y002175D01*
X008675Y003675D02*
X008675Y004925D01*
X008675Y006175D01*
X007175Y008925D02*
X007875Y009625D01*
X007875Y010175D01*
X007375Y010675D01*
X006925Y010675D01*
X006675Y010925D01*
X006675Y012175D01*
X007675Y013175D01*
X007675Y013895D01*
X007175Y013895D02*
X007175Y013425D01*
X005425Y011675D01*
X005425Y009175D01*
X005675Y008925D01*
X006175Y008925D01*
X007975Y010475D02*
X008475Y010475D01*
X008925Y010925D01*
X007975Y010475D02*
X007275Y011175D01*
X009175Y013175D02*
X009575Y012775D01*
X009675Y012775D01*
X008675Y013895D02*
X008675Y014575D01*
X008175Y015075D01*
X005275Y015075D01*
X004875Y014675D01*
X004175Y014675D02*
X004175Y012675D01*
X004175Y012175D01*
X003425Y011425D01*
X003425Y008175D01*
X002675Y007425D01*
X004175Y006925D02*
X004175Y011175D01*
X006675Y013675D01*
X006675Y013895D01*
X005775Y014775D02*
X004925Y013925D01*
X004675Y013925D01*
X004175Y014675D02*
X005175Y015675D01*
X006675Y015675D01*
X006675Y015955D01*
X005775Y014775D02*
X007825Y014775D01*
X008175Y014425D01*
X008175Y013895D01*
X009175Y015075D02*
X010175Y015075D01*
X009175Y015075D02*
X009175Y015955D01*
X008675Y015955D02*
X008675Y017925D01*
X008925Y018175D01*
X008425Y017925D02*
X007925Y018425D01*
X008425Y017925D02*
X008425Y016675D01*
X008175Y016375D01*
X008175Y015955D01*
X005925Y017725D02*
X005925Y019175D01*
X006425Y019675D01*
X005425Y019675D02*
X005425Y017675D01*
X003275Y015525D01*
X003275Y013025D01*
X002675Y012425D01*
X003575Y012325D02*
X002675Y011425D01*
X003575Y012325D02*
X003575Y015375D01*
X005925Y017725D01*
X014425Y018925D02*
X017175Y016175D01*
X017175Y014175D01*
X017175Y011675D01*
X016925Y011425D01*
X016925Y010425D02*
X017675Y010425D01*
X017675Y017175D01*
X016425Y018425D01*
X016425Y019675D01*
X014425Y019675D02*
X014425Y018925D01*
X004175Y006925D02*
X002675Y005425D01*
X012675Y004925D02*
X012675Y003675D01*
X012675Y003925D01*
X014225Y003925D01*
X014225Y005525D01*
X014475Y005775D01*
X015225Y006275D02*
X016175Y005325D01*
D22*
X010175Y006175D02*
X008675Y006175D01*
X010175Y006175D02*
X010175Y007645D01*
M02*
