%
M48
M72
T01C0.0200
T02C0.0236
T03C0.0276
T04C0.0320
T05C0.0354
T06C0.0394
T07C0.0400
T08C0.1181
T09C0.1260
%
T01
X9675Y11175
T02
X7275Y11175
X4675Y13925
X4875Y14675
X7925Y18425
X8925Y18175
X11425Y17925
X14425Y17925
X16275Y15175
X16175Y14175
X17175Y14175
X19675Y15175
X19675Y16675
X19675Y10175
X6175Y5175
X6175Y3175
T03
X8425Y8675
X8425Y9675
X11425Y9675
X11425Y8675
X12925Y8675
X12925Y7675
X14225Y3925
X15225Y3925
X17175Y3175
X17175Y2175
X10675Y12775
X9675Y12775
X11925Y12925
X11925Y13925
X13425Y13925
X13425Y12925
X13675Y15175
X13675Y16175
X7675Y16925
X6675Y16925
T04
X10925Y15675
X11675Y15175
X11675Y16175
X12175Y11175
X12675Y10425
X13175Y11175
X15225Y6275
X14475Y5775
X15225Y5275
T05
X12675Y6175
X12675Y3675
X12675Y2175
X8675Y2175
X8675Y3675
X8675Y6175
X8175Y11175
X8175Y12675
X4175Y12675
X4175Y11175
T06
X8675Y4925
X12675Y4925
X15925Y8925
X15925Y9925
X15925Y10925
X15925Y11925
X16925Y11425
X16925Y10425
X16925Y9425
X16925Y8425
T07
X19675Y6175
X19675Y5175
X19675Y4175
X19675Y3175
X19675Y2175
X7675Y2175
X6675Y2175
X2675Y5425
X2675Y6425
X2675Y7425
X2675Y8425
X2675Y9425
X2675Y10425
X2675Y11425
X2675Y12425
X2675Y13425
X2675Y14425
X2675Y15425
X2675Y16425
X5425Y19675
X6425Y19675
X7425Y19675
X8425Y19675
X9425Y19675
X10425Y19675
X11425Y19675
X12425Y19675
X13425Y19675
X14425Y19675
X15425Y19675
X16425Y19675
X7175Y9925
X7175Y8925
X7175Y7925
X6175Y7925
X6175Y8925
X6175Y9925
X6675Y6175
X7675Y6175
T08
X2925Y2925
X2925Y18925
X18925Y18925
T09
X19425Y12425
X19425Y7925
M30
